0
SECTION
2
HEADER
9
$ACADVER
1
AC1009
9
$INSUNITS
70
4
9
$MEASUREMENT
70
1
9
$LUNITS
70
2
9
$LUPREC
70
1
9
$TILEMODE
70
1
9
$EXTMIN
10
-4063.625
20
-2491.725773
30
0
9
$EXTMAX
10
4063.625
20
2491.725773
30
0
9
$PEXTMIN
10
-4063.625
20
-2491.725773
30
0
9
$PEXTMAX
10
4063.625
20
2491.725773
30
0
9
$LIMMIN
10
-4563.625
20
-2991.725773
9
$LIMMAX
10
4563.625
20
2991.725773
9
$PLIMMIN
10
-4563.625
20
-2991.725773
9
$PLIMMAX
10
4563.625
20
2991.725773
0
ENDSEC
0
SECTION
2
TABLES
0
TABLE
2
VPORT
70
1
0
VPORT
2
*ACTIVE
70
0
10
0
20
0
11
1
21
1
12
0
22
0
40
5983.451545
41
1.525416
42
50
43
0
44
0
50
0
51
0
71
0
72
100
73
1
74
3
75
0
76
0
77
0
78
0
0
ENDTAB
0
TABLE
2
LTYPE
70
2
0
LTYPE
2
CONTINUOUS
70
0
3
Solid line
72
65
73
0
40
0
0
LTYPE
2
DASHED
70
0
3
Dashed
72
65
73
2
40
240
49
120
74
0
49
-120
74
0
0
ENDTAB
0
TABLE
2
LAYER
70
6
0
LAYER
2
PIPES
70
0
62
5
6
CONTINUOUS
0
LAYER
2
PIPE_ENDS
70
0
62
5
6
CONTINUOUS
0
LAYER
2
DIMENSION
70
0
62
1
6
CONTINUOUS
0
LAYER
2
LEVEL_GUIDE
70
0
62
1
6
DASHED
0
LAYER
2
LEVEL_TEXT
70
0
62
1
6
CONTINUOUS
0
LAYER
2
FRAME
70
0
62
5
6
CONTINUOUS
0
ENDTAB
0
TABLE
2
STYLE
70
1
0
STYLE
2
STANDARD
70
0
40
0
41
1
50
0
71
0
42
100
3
txt
4

0
ENDTAB
0
ENDSEC
0
SECTION
2
BLOCKS
0
BLOCK
8
0
2
$MODEL_SPACE
70
0
10
0
20
0
30
0
3
$MODEL_SPACE
0
ENDBLK
8
0
0
BLOCK
67
1
8
0
2
$PAPER_SPACE
70
0
10
0
20
0
30
0
3
$PAPER_SPACE
0
ENDBLK
67
1
8
0
0
ENDSEC
0
SECTION
2
ENTITIES
0
LINE
8
PIPES
10
-3883.625
20
-1571.725773
30
0
11
-3883.625
21
-1271.724773
31
0
0
LINE
8
PIPES
10
-3883.625
20
-720.661773
30
0
11
-3883.625
21
-1271.724773
31
0
0
LINE
8
PIPES
10
-3883.625
20
-720.661773
30
0
11
-3883.625
21
-271.045773
31
0
0
LINE
8
PIPES
10
-3883.625
20
-271.045773
30
0
11
-3883.625
21
263.384227
31
0
0
LINE
8
PIPES
10
-3883.625
20
263.384227
30
0
11
-3883.625
21
853.814227
31
0
0
LINE
8
PIPES
10
-3883.625
20
1735.044227
30
0
11
-3883.625
21
853.814227
31
0
0
LINE
8
PIPES
10
-2623.625
20
-1571.725773
30
0
11
-2623.625
21
-1271.724773
31
0
0
LINE
8
PIPES
10
-2623.625
20
-1271.724773
30
0
11
-2623.625
21
-720.661773
31
0
0
LINE
8
PIPES
10
-2623.625
20
-720.661773
30
0
11
-2623.625
21
-271.045773
31
0
0
LINE
8
PIPES
10
-2623.625
20
-271.045773
30
0
11
-2623.625
21
263.384227
31
0
0
LINE
8
PIPES
10
-2623.625
20
263.384227
30
0
11
-2623.625
21
853.814227
31
0
0
LINE
8
PIPES
10
-2623.625
20
853.814227
30
0
11
-2623.625
21
1813.764227
31
0
0
LINE
8
PIPES
10
-1363.625
20
-1571.725773
30
0
11
-1363.625
21
-1271.724773
31
0
0
LINE
8
PIPES
10
-1363.625
20
-720.661773
30
0
11
-1363.625
21
-1271.724773
31
0
0
LINE
8
PIPES
10
-1363.625
20
-720.661773
30
0
11
-1363.625
21
-271.045773
31
0
0
LINE
8
PIPES
10
-1363.625
20
-271.045773
30
0
11
-1363.625
21
263.384227
31
0
0
LINE
8
PIPES
10
-1363.625
20
263.384227
30
0
11
-1363.625
21
853.814227
31
0
0
LINE
8
PIPES
10
-1363.625
20
853.814227
30
0
11
-1363.625
21
1892.494227
31
0
0
LINE
8
PIPES
10
-103.625
20
-1571.725773
30
0
11
-103.625
21
-1271.724773
31
0
0
LINE
8
PIPES
10
-103.625
20
-1271.724773
30
0
11
-103.625
21
-720.661773
31
0
0
LINE
8
PIPES
10
-103.625
20
-720.661773
30
0
11
-103.625
21
-271.045773
31
0
0
LINE
8
PIPES
10
-103.625
20
-271.045773
30
0
11
-103.625
21
263.384227
31
0
0
LINE
8
PIPES
10
-103.625
20
263.384227
30
0
11
-103.625
21
853.814227
31
0
0
LINE
8
PIPES
10
-103.625
20
853.814227
30
0
11
-103.625
21
1971.214227
31
0
0
LINE
8
PIPES
10
1156.375
20
-1571.725773
30
0
11
1156.375
21
-1271.724773
31
0
0
LINE
8
PIPES
10
1156.375
20
-720.661773
30
0
11
1156.375
21
-1271.724773
31
0
0
LINE
8
PIPES
10
1156.375
20
-720.661773
30
0
11
1156.375
21
-271.045773
31
0
0
LINE
8
PIPES
10
1156.375
20
-271.045773
30
0
11
1156.375
21
263.384227
31
0
0
LINE
8
PIPES
10
1156.375
20
263.384227
30
0
11
1156.375
21
853.814227
31
0
0
LINE
8
PIPES
10
1156.375
20
853.814227
30
0
11
1156.375
21
2049.944227
31
0
0
LINE
8
PIPES
10
2416.375
20
-1571.725773
30
0
11
2416.375
21
-1271.724773
31
0
0
LINE
8
PIPES
10
2416.375
20
-1271.724773
30
0
11
2416.375
21
-720.661773
31
0
0
LINE
8
PIPES
10
2416.375
20
-720.661773
30
0
11
2416.375
21
-271.045773
31
0
0
LINE
8
PIPES
10
2416.375
20
-271.045773
30
0
11
2416.375
21
263.384227
31
0
0
LINE
8
PIPES
10
2416.375
20
263.384227
30
0
11
2416.375
21
853.814227
31
0
0
LINE
8
PIPES
10
2416.375
20
2128.664227
30
0
11
2416.375
21
853.814227
31
0
0
LINE
8
PIPES
10
2416.375
20
853.814227
30
0
11
2416.375
21
1247.434227
31
0
0
LINE
8
PIPES
10
2416.375
20
1247.434227
30
0
11
2416.375
21
2128.664227
31
0
0
LINE
8
PIPES
10
2416.375
20
2428.284227
30
0
11
2416.375
21
2144.874227
31
0
0
LINE
8
PIPES
10
-3383.624
20
-720.661773
30
0
11
-3383.624
21
-271.045773
31
0
0
LINE
8
PIPES
10
1916.375
20
-720.661773
30
0
11
1916.375
21
-271.045773
31
0
0
LINE
8
PIPES
10
-3883.625
20
-1271.724773
30
0
11
-2623.625
21
-1271.724773
31
0
0
LINE
8
PIPES
10
-2623.625
20
-1271.724773
30
0
11
-1363.625
21
-1271.724773
31
0
0
LINE
8
PIPES
10
-1363.625
20
-1271.724773
30
0
11
-103.625
21
-1271.724773
31
0
0
LINE
8
PIPES
10
-103.625
20
-1271.724773
30
0
11
1156.375
21
-1271.724773
31
0
0
LINE
8
PIPES
10
1156.375
20
-1271.724773
30
0
11
2416.375
21
-1271.724773
31
0
0
LINE
8
PIPES
10
-3883.625
20
-720.661773
30
0
11
-3383.624
21
-720.661773
31
0
0
LINE
8
PIPES
10
-2623.625
20
-720.661773
30
0
11
-1363.625
21
-720.661773
31
0
0
LINE
8
PIPES
10
-1363.625
20
-720.661773
30
0
11
-103.625
21
-720.661773
31
0
0
LINE
8
PIPES
10
-103.625
20
-720.661773
30
0
11
1156.375
21
-720.661773
31
0
0
LINE
8
PIPES
10
1916.375
20
-720.661773
30
0
11
1156.375
21
-720.661773
31
0
0
LINE
8
PIPES
10
1916.375
20
-720.661773
30
0
11
2416.375
21
-720.661773
31
0
0
LINE
8
PIPES
10
-3383.624
20
-720.661773
30
0
11
-2623.625
21
-720.661773
31
0
0
LINE
8
PIPES
10
-3883.625
20
-271.045773
30
0
11
-3383.624
21
-271.045773
31
0
0
LINE
8
PIPES
10
-2623.625
20
-271.045773
30
0
11
-1363.625
21
-271.045773
31
0
0
LINE
8
PIPES
10
-1363.625
20
-271.045773
30
0
11
-103.625
21
-271.045773
31
0
0
LINE
8
PIPES
10
-103.625
20
-271.045773
30
0
11
1156.375
21
-271.045773
31
0
0
LINE
8
PIPES
10
1156.375
20
-271.045773
30
0
11
1916.375
21
-271.045773
31
0
0
LINE
8
PIPES
10
-3383.624
20
-271.045773
30
0
11
-2623.625
21
-271.045773
31
0
0
LINE
8
PIPES
10
1916.375
20
-271.045773
30
0
11
2416.375
21
-271.045773
31
0
0
LINE
8
PIPES
10
-3883.625
20
263.384227
30
0
11
-2623.625
21
263.384227
31
0
0
LINE
8
PIPES
10
-2623.625
20
263.384227
30
0
11
-1363.625
21
263.384227
31
0
0
LINE
8
PIPES
10
-1363.625
20
263.384227
30
0
11
-103.625
21
263.384227
31
0
0
LINE
8
PIPES
10
-103.625
20
263.384227
30
0
11
1156.375
21
263.384227
31
0
0
LINE
8
PIPES
10
1156.375
20
263.384227
30
0
11
2416.375
21
263.384227
31
0
0
LINE
8
PIPES
10
-3883.625
20
853.814227
30
0
11
-2623.625
21
853.814227
31
0
0
LINE
8
PIPES
10
-2623.625
20
853.814227
30
0
11
-1363.625
21
853.814227
31
0
0
LINE
8
PIPES
10
-1363.625
20
853.814227
30
0
11
-103.625
21
853.814227
31
0
0
LINE
8
PIPES
10
-103.625
20
853.814227
30
0
11
1156.375
21
853.814227
31
0
0
LINE
8
PIPES
10
1156.375
20
853.814227
30
0
11
2416.375
21
853.814227
31
0
0
LINE
8
PIPES
10
-3883.625
20
2034.664227
30
0
11
-3537.265
21
2056.304227
31
0
0
LINE
8
PIPES
10
-3537.265
20
2056.304227
30
0
11
-3239.583
21
2074.904227
31
0
0
LINE
8
PIPES
10
-3239.583
20
2074.904227
30
0
11
-2941.901
21
2093.504227
31
0
0
LINE
8
PIPES
10
-2941.901
20
2093.504227
30
0
11
-2644.215
21
2112.104227
31
0
0
LINE
8
PIPES
10
-2644.215
20
2112.104227
30
0
11
-2623.625
21
2113.384227
31
0
0
LINE
8
PIPES
10
-2346.535
20
2130.704227
30
0
11
-2048.855
21
2149.294227
31
0
0
LINE
8
PIPES
10
-2048.855
20
2149.294227
30
0
11
-1751.175
21
2167.894227
31
0
0
LINE
8
PIPES
10
-1751.175
20
2167.894227
30
0
11
-1453.495
21
2186.494227
31
0
0
LINE
8
PIPES
10
-1453.495
20
2186.494227
30
0
11
-1363.625
21
2192.114227
31
0
0
LINE
8
PIPES
10
-1155.805
20
2205.094227
30
0
11
-858.125
21
2223.694227
31
0
0
LINE
8
PIPES
10
-858.125
20
2223.694227
30
0
11
-560.445
21
2242.294227
31
0
0
LINE
8
PIPES
10
-560.445
20
2242.294227
30
0
11
-262.765
21
2260.894227
31
0
0
LINE
8
PIPES
10
-262.765
20
2260.894227
30
0
11
-103.625
21
2270.834227
31
0
0
LINE
8
PIPES
10
34.915
20
2279.494227
30
0
11
332.605
21
2298.094227
31
0
0
LINE
8
PIPES
10
332.605
20
2298.094227
30
0
11
630.285
21
2316.694227
31
0
0
LINE
8
PIPES
10
630.285
20
2316.694227
30
0
11
927.965
21
2335.294227
31
0
0
LINE
8
PIPES
10
927.965
20
2335.294227
30
0
11
1156.375
21
2349.564227
31
0
0
LINE
8
PIPES
10
1225.645
20
2353.884227
30
0
11
1523.325
21
2372.484227
31
0
0
LINE
8
PIPES
10
1523.325
20
2372.484227
30
0
11
1821.015
21
2391.084227
31
0
0
LINE
8
PIPES
10
1821.015
20
2391.084227
30
0
11
2118.695
21
2409.684227
31
0
0
LINE
8
PIPES
10
2118.695
20
2409.684227
30
0
11
2416.375
21
2428.284227
31
0
0
LINE
8
PIPES
10
-3883.625
20
1735.044227
30
0
11
-3537.265
21
1756.684227
31
0
0
LINE
8
PIPES
10
-3537.265
20
1756.684227
30
0
11
-3239.583
21
1775.284227
31
0
0
LINE
8
PIPES
10
-3239.583
20
1775.284227
30
0
11
-2941.901
21
1793.884227
31
0
0
LINE
8
PIPES
10
-2941.901
20
1793.884227
30
0
11
-2644.215
21
1812.484227
31
0
0
LINE
8
PIPES
10
-2644.215
20
1812.484227
30
0
11
-2623.625
21
1813.764227
31
0
0
LINE
8
PIPES
10
-2346.535
20
1831.084227
30
0
11
-2048.855
21
1849.674227
31
0
0
LINE
8
PIPES
10
-2048.855
20
1849.674227
30
0
11
-1751.175
21
1868.274227
31
0
0
LINE
8
PIPES
10
-1751.175
20
1868.274227
30
0
11
-1453.495
21
1886.874227
31
0
0
LINE
8
PIPES
10
-1453.495
20
1886.874227
30
0
11
-1363.625
21
1892.494227
31
0
0
LINE
8
PIPES
10
-1155.805
20
1905.474227
30
0
11
-858.125
21
1924.074227
31
0
0
LINE
8
PIPES
10
-858.125
20
1924.074227
30
0
11
-560.445
21
1942.674227
31
0
0
LINE
8
PIPES
10
-560.445
20
1942.674227
30
0
11
-262.765
21
1961.274227
31
0
0
LINE
8
PIPES
10
-262.765
20
1961.274227
30
0
11
-103.625
21
1971.214227
31
0
0
LINE
8
PIPES
10
34.915
20
1979.874227
30
0
11
332.605
21
1998.474227
31
0
0
LINE
8
PIPES
10
332.605
20
1998.474227
30
0
11
630.285
21
2017.074227
31
0
0
LINE
8
PIPES
10
630.285
20
2017.074227
30
0
11
927.965
21
2035.664227
31
0
0
LINE
8
PIPES
10
927.965
20
2035.664227
30
0
11
1156.375
21
2049.944227
31
0
0
LINE
8
PIPES
10
1225.645
20
2054.264227
30
0
11
1523.325
21
2072.864227
31
0
0
LINE
8
PIPES
10
1523.325
20
2072.864227
30
0
11
1821.015
21
2091.464227
31
0
0
LINE
8
PIPES
10
1821.015
20
2091.464227
30
0
11
2118.695
21
2110.064227
31
0
0
LINE
8
PIPES
10
2118.695
20
2110.064227
30
0
11
2416.375
21
2128.664227
31
0
0
LINE
8
PIPES
10
2416.375
20
2128.664227
30
0
11
2416.375
21
2144.874227
31
0
0
LINE
8
PIPES
10
-3883.625
20
2034.664227
30
0
11
-3883.625
21
1735.044227
31
0
0
LINE
8
PIPES
10
-3537.265
20
2056.304227
30
0
11
-3537.265
21
1756.684227
31
0
0
LINE
8
PIPES
10
-3239.583
20
2074.904227
30
0
11
-3239.583
21
1775.284227
31
0
0
LINE
8
PIPES
10
-2941.901
20
2093.504227
30
0
11
-2941.901
21
1793.884227
31
0
0
LINE
8
PIPES
10
-2644.215
20
2112.104227
30
0
11
-2644.215
21
1812.484227
31
0
0
LINE
8
PIPES
10
-2346.535
20
2130.704227
30
0
11
-2346.535
21
1831.084227
31
0
0
LINE
8
PIPES
10
-2048.855
20
2149.294227
30
0
11
-2048.855
21
1849.674227
31
0
0
LINE
8
PIPES
10
-1751.175
20
2167.894227
30
0
11
-1751.175
21
1868.274227
31
0
0
LINE
8
PIPES
10
-1453.495
20
2186.494227
30
0
11
-1453.495
21
1886.874227
31
0
0
LINE
8
PIPES
10
-1155.805
20
2205.094227
30
0
11
-1155.805
21
1905.474227
31
0
0
LINE
8
PIPES
10
-858.125
20
2223.694227
30
0
11
-858.125
21
1924.074227
31
0
0
LINE
8
PIPES
10
-560.445
20
2242.294227
30
0
11
-560.445
21
1942.674227
31
0
0
LINE
8
PIPES
10
-262.765
20
2260.894227
30
0
11
-262.765
21
1961.274227
31
0
0
LINE
8
PIPES
10
34.915
20
2279.494227
30
0
11
34.915
21
1979.874227
31
0
0
LINE
8
PIPES
10
332.605
20
2298.094227
30
0
11
332.605
21
1998.474227
31
0
0
LINE
8
PIPES
10
630.285
20
2316.694227
30
0
11
630.285
21
2017.074227
31
0
0
LINE
8
PIPES
10
927.965
20
2335.294227
30
0
11
927.965
21
2035.664227
31
0
0
LINE
8
PIPES
10
1225.645
20
2353.884227
30
0
11
1225.645
21
2054.264227
31
0
0
LINE
8
PIPES
10
1523.325
20
2372.484227
30
0
11
1523.325
21
2072.864227
31
0
0
LINE
8
PIPES
10
1821.015
20
2391.084227
30
0
11
1821.015
21
2091.464227
31
0
0
LINE
8
PIPES
10
2118.695
20
2409.684227
30
0
11
2118.695
21
2110.064227
31
0
0
LINE
8
PIPES
10
-3883.625
20
1735.044227
30
0
11
-2623.625
21
853.814227
31
0
0
LINE
8
PIPES
10
-2623.625
20
853.814227
30
0
11
-3883.625
21
-271.045773
31
0
0
LINE
8
PIPES
10
-3883.625
20
-271.045773
30
0
11
-2623.625
21
-1571.725773
31
0
0
LINE
8
PIPES
10
-2623.625
20
1813.764227
30
0
11
-1363.625
21
853.814227
31
0
0
LINE
8
PIPES
10
-1363.625
20
853.814227
30
0
11
-2623.625
21
-271.045773
31
0
0
LINE
8
PIPES
10
-2623.625
20
-271.045773
30
0
11
-1363.625
21
-1571.725773
31
0
0
LINE
8
PIPES
10
-1363.625
20
1892.494227
30
0
11
-103.625
21
853.814227
31
0
0
LINE
8
PIPES
10
-103.625
20
853.814227
30
0
11
-1363.625
21
-271.045773
31
0
0
LINE
8
PIPES
10
-1363.625
20
-271.045773
30
0
11
-103.625
21
-1571.725773
31
0
0
LINE
8
PIPES
10
-103.625
20
1971.214227
30
0
11
1156.375
21
853.814227
31
0
0
LINE
8
PIPES
10
1156.375
20
853.814227
30
0
11
-103.625
21
-271.045773
31
0
0
LINE
8
PIPES
10
-103.625
20
-271.045773
30
0
11
1156.375
21
-1571.725773
31
0
0
LINE
8
PIPES
10
1156.375
20
2049.944227
30
0
11
2416.375
21
853.814227
31
0
0
LINE
8
PIPES
10
2416.375
20
853.814227
30
0
11
1156.375
21
-271.045773
31
0
0
LINE
8
PIPES
10
1156.375
20
-271.045773
30
0
11
2416.375
21
-1571.725773
31
0
0
LINE
8
PIPES
10
-3883.625
20
-1271.724773
30
0
11
-2623.625
21
-720.661773
31
0
0
LINE
8
PIPES
10
-2623.625
20
-720.661773
30
0
11
-1363.625
21
-1271.724773
31
0
0
LINE
8
PIPES
10
-1363.625
20
-1271.724773
30
0
11
-103.625
21
-720.661773
31
0
0
LINE
8
PIPES
10
-103.625
20
-720.661773
30
0
11
1156.375
21
-1271.724773
31
0
0
LINE
8
PIPES
10
1156.375
20
-1271.724773
30
0
11
2416.375
21
-720.661773
31
0
0
LINE
8
PIPES
10
-3883.625
20
-720.661773
30
0
11
-2623.625
21
-1271.724773
31
0
0
LINE
8
PIPES
10
-2623.625
20
-1271.724773
30
0
11
-1363.625
21
-720.661773
31
0
0
LINE
8
PIPES
10
-1363.625
20
-720.661773
30
0
11
-103.625
21
-1271.724773
31
0
0
LINE
8
PIPES
10
-103.625
20
-1271.724773
30
0
11
1156.375
21
-720.661773
31
0
0
LINE
8
PIPES
10
1156.375
20
-720.661773
30
0
11
2416.375
21
-1271.724773
31
0
0
LINE
8
PIPES
10
-3883.625
20
1735.044227
30
0
11
-2623.625
21
1813.764227
31
0
0
LINE
8
PIPES
10
-2623.625
20
1813.764227
30
0
11
-1363.625
21
1892.494227
31
0
0
LINE
8
PIPES
10
-1363.625
20
1892.494227
30
0
11
-103.625
21
1971.214227
31
0
0
LINE
8
PIPES
10
-103.625
20
1971.214227
30
0
11
1156.375
21
2049.944227
31
0
0
LINE
8
PIPES
10
1156.375
20
2049.944227
30
0
11
2416.375
21
2128.664227
31
0
0
LINE
8
PIPES
10
-3883.625
20
2034.664227
30
0
11
-2623.625
21
2113.384227
31
0
0
LINE
8
PIPES
10
-2623.625
20
2113.384227
30
0
11
-1363.625
21
2192.114227
31
0
0
LINE
8
PIPES
10
-1363.625
20
2192.114227
30
0
11
-103.625
21
2270.834227
31
0
0
LINE
8
PIPES
10
-103.625
20
2270.834227
30
0
11
1156.375
21
2349.564227
31
0
0
LINE
8
PIPES
10
1156.375
20
2349.564227
30
0
11
2416.375
21
2428.284227
31
0
0
LINE
8
PIPES
10
2416.375
20
2128.664227
30
0
11
1156.375
21
853.814227
31
0
0
LINE
8
PIPES
10
1156.375
20
853.814227
30
0
11
2416.375
21
-271.045773
31
0
0
LINE
8
PIPES
10
2416.375
20
-271.045773
30
0
11
1156.375
21
-1571.725773
31
0
0
LINE
8
PIPES
10
1156.375
20
2049.944227
30
0
11
-103.625
21
853.814227
31
0
0
LINE
8
PIPES
10
-103.625
20
853.814227
30
0
11
1156.375
21
-271.045773
31
0
0
LINE
8
PIPES
10
1156.375
20
-271.045773
30
0
11
-103.625
21
-1571.725773
31
0
0
LINE
8
PIPES
10
-103.625
20
1971.214227
30
0
11
-1363.625
21
853.814227
31
0
0
LINE
8
PIPES
10
-1363.625
20
853.814227
30
0
11
-103.625
21
-271.045773
31
0
0
LINE
8
PIPES
10
-103.625
20
-271.045773
30
0
11
-1363.625
21
-1571.725773
31
0
0
LINE
8
PIPES
10
-1363.625
20
1892.494227
30
0
11
-2623.625
21
853.814227
31
0
0
LINE
8
PIPES
10
-2623.625
20
853.814227
30
0
11
-1363.625
21
-271.045773
31
0
0
LINE
8
PIPES
10
-1363.625
20
-271.045773
30
0
11
-2623.625
21
-1571.725773
31
0
0
LINE
8
PIPES
10
-2623.625
20
1813.764227
30
0
11
-3883.625
21
853.814227
31
0
0
LINE
8
PIPES
10
-3883.625
20
853.814227
30
0
11
-2623.625
21
-271.045773
31
0
0
LINE
8
PIPES
10
-2623.625
20
-271.045773
30
0
11
-3883.625
21
-1571.725773
31
0
0
LINE
8
PIPES
10
-3883.625
20
853.814227
30
0
11
-3883.625
21
-271.045773
31
0
0
LINE
8
PIPES
10
-3883.625
20
-271.045773
30
0
11
-3883.625
21
-1571.725773
31
0
0
LINE
8
PIPES
10
2416.375
20
2144.874227
30
0
11
2416.375
21
1247.434227
31
0
0
LINE
8
PIPES
10
2416.375
20
853.814227
30
0
11
2416.375
21
-271.045773
31
0
0
LINE
8
PIPES
10
2416.375
20
-1571.725773
30
0
11
2416.375
21
-271.045773
31
0
0
LINE
8
PIPES
10
2416.375
20
2144.874227
30
0
11
2416.375
21
853.814227
31
0
0
LINE
8
PIPES
10
-2623.625
20
2113.384227
30
0
11
-2623.625
21
1813.764227
31
0
0
LINE
8
PIPES
10
-1363.625
20
2192.114227
30
0
11
-1363.625
21
1892.494227
31
0
0
LINE
8
PIPES
10
-103.625
20
2270.834227
30
0
11
-103.625
21
1971.214227
31
0
0
LINE
8
PIPES
10
1156.375
20
2349.564227
30
0
11
1156.375
21
2049.944227
31
0
0
LINE
8
PIPES
10
2416.375
20
2128.664227
30
0
11
2416.375
21
2428.284227
31
0
0
LINE
8
PIPES
10
-2623.625
20
2113.384227
30
0
11
-2346.535
21
2130.704227
31
0
0
LINE
8
PIPES
10
-2623.625
20
1813.764227
30
0
11
-2346.535
21
1831.084227
31
0
0
LINE
8
PIPES
10
-1363.625
20
2192.114227
30
0
11
-1155.805
21
2205.094227
31
0
0
LINE
8
PIPES
10
-1363.625
20
1892.494227
30
0
11
-1155.805
21
1905.474227
31
0
0
LINE
8
PIPES
10
-103.625
20
2270.834227
30
0
11
34.915
21
2279.494227
31
0
0
LINE
8
PIPES
10
-103.625
20
1971.214227
30
0
11
34.915
21
1979.874227
31
0
0
LINE
8
PIPES
10
1156.375
20
2349.564227
30
0
11
1225.645
21
2353.884227
31
0
0
LINE
8
PIPES
10
1156.375
20
2049.944227
30
0
11
1225.645
21
2054.264227
31
0
0
LINE
8
PIPES
10
-3883.625
20
2034.664227
30
0
11
-2623.625
21
1813.764227
31
0
0
LINE
8
PIPES
10
-2623.625
20
1813.764227
30
0
11
-1363.625
21
2192.114227
31
0
0
LINE
8
PIPES
10
-1363.625
20
2192.114227
30
0
11
-103.625
21
1971.214227
31
0
0
LINE
8
PIPES
10
-103.625
20
1971.214227
30
0
11
1156.375
21
2349.564227
31
0
0
LINE
8
PIPES
10
1156.375
20
2349.564227
30
0
11
2416.375
21
2128.664227
31
0
0
LINE
8
PIPES
10
-3883.625
20
1735.044227
30
0
11
-2623.625
21
2113.384227
31
0
0
LINE
8
PIPES
10
-2623.625
20
2113.384227
30
0
11
-1363.625
21
1892.494227
31
0
0
LINE
8
PIPES
10
-1363.625
20
1892.494227
30
0
11
-103.625
21
2270.834227
31
0
0
LINE
8
PIPES
10
-103.625
20
2270.834227
30
0
11
1156.375
21
2049.944227
31
0
0
LINE
8
PIPES
10
1156.375
20
2049.944227
30
0
11
2416.375
21
2428.284227
31
0
0
CIRCLE
8
PIPE_ENDS
10
-3883.625
20
-1271.725773
30
0
40
32
0
CIRCLE
8
PIPE_ENDS
10
-2623.625
20
-1271.725773
30
0
40
32
0
CIRCLE
8
PIPE_ENDS
10
-1363.625
20
-1271.725773
30
0
40
32
0
CIRCLE
8
PIPE_ENDS
10
-103.625
20
-1271.725773
30
0
40
32
0
CIRCLE
8
PIPE_ENDS
10
1156.375
20
-1271.725773
30
0
40
32
0
CIRCLE
8
PIPE_ENDS
10
2416.375
20
-1271.725773
30
0
40
32
0
CIRCLE
8
PIPE_ENDS
10
-3883.625
20
-720.625773
30
0
40
32
0
CIRCLE
8
PIPE_ENDS
10
2416.375
20
-720.625773
30
0
40
32
0
CIRCLE
8
PIPE_ENDS
10
-2623.625
20
-720.625773
30
0
40
32
0
CIRCLE
8
PIPE_ENDS
10
-1363.625
20
-720.625773
30
0
40
32
0
CIRCLE
8
PIPE_ENDS
10
-103.625
20
-720.625773
30
0
40
32
0
CIRCLE
8
PIPE_ENDS
10
1156.375
20
-720.625773
30
0
40
32
0
CIRCLE
8
PIPE_ENDS
10
-3383.625
20
-271.025773
30
0
40
32
0
CIRCLE
8
PIPE_ENDS
10
1916.375
20
-271.025773
30
0
40
32
0
CIRCLE
8
PIPE_ENDS
10
-3883.625
20
-271.025773
30
0
40
32
0
CIRCLE
8
PIPE_ENDS
10
2416.375
20
-271.025773
30
0
40
32
0
CIRCLE
8
PIPE_ENDS
10
-2623.625
20
-271.025773
30
0
40
32
0
CIRCLE
8
PIPE_ENDS
10
-1363.625
20
-271.025773
30
0
40
32
0
CIRCLE
8
PIPE_ENDS
10
-103.625
20
-271.025773
30
0
40
32
0
CIRCLE
8
PIPE_ENDS
10
1156.375
20
-271.025773
30
0
40
32
0
CIRCLE
8
PIPE_ENDS
10
-3883.625
20
263.374227
30
0
40
32
0
CIRCLE
8
PIPE_ENDS
10
2416.375
20
263.374227
30
0
40
32
0
CIRCLE
8
PIPE_ENDS
10
-3883.625
20
853.774227
30
0
40
32
0
CIRCLE
8
PIPE_ENDS
10
2416.375
20
853.774227
30
0
40
32
0
CIRCLE
8
PIPE_ENDS
10
-3883.625
20
2034.674227
30
0
40
32
0
CIRCLE
8
PIPE_ENDS
10
-3883.625
20
1735.074227
30
0
40
32
0
CIRCLE
8
PIPE_ENDS
10
2416.375
20
2428.274227
30
0
40
32
0
CIRCLE
8
PIPE_ENDS
10
2416.375
20
2128.674227
30
0
40
32
0
CIRCLE
8
PIPE_ENDS
10
2416.375
20
1247.474227
30
0
40
25
0
CIRCLE
8
PIPE_ENDS
10
-2623.625
20
2113.374227
30
0
40
32
0
CIRCLE
8
PIPE_ENDS
10
-2623.625
20
1813.774227
30
0
40
32
0
CIRCLE
8
PIPE_ENDS
10
-1363.625
20
2192.074227
30
0
40
32
0
CIRCLE
8
PIPE_ENDS
10
-1363.625
20
1892.474227
30
0
40
32
0
CIRCLE
8
PIPE_ENDS
10
-103.625
20
2270.874227
30
0
40
32
0
CIRCLE
8
PIPE_ENDS
10
-103.625
20
1971.174227
30
0
40
32
0
CIRCLE
8
PIPE_ENDS
10
1156.375
20
2349.574227
30
0
40
32
0
CIRCLE
8
PIPE_ENDS
10
1156.375
20
2049.974227
30
0
40
32
0
LINE
8
LEVEL_GUIDE
6
DASHED
10
-4063.625
20
-1571.725773
30
0
11
2596.375
21
-1571.725773
31
0
0
LINE
8
LEVEL_GUIDE
6
DASHED
10
-4063.625
20
-1271.725773
30
0
11
2596.375
21
-1271.725773
31
0
0
LINE
8
LEVEL_GUIDE
6
DASHED
10
-4063.625
20
-720.665773
30
0
11
2596.375
21
-720.665773
31
0
0
LINE
8
LEVEL_GUIDE
6
DASHED
10
-4063.625
20
-271.045773
30
0
11
2596.375
21
-271.045773
31
0
0
LINE
8
LEVEL_GUIDE
6
DASHED
10
-4063.625
20
263.384227
30
0
11
2596.375
21
263.384227
31
0
0
LINE
8
LEVEL_GUIDE
6
DASHED
10
-4063.625
20
853.814227
30
0
11
2596.375
21
853.814227
31
0
0
LINE
8
LEVEL_GUIDE
6
DASHED
10
-4063.625
20
2428.284227
30
0
11
2596.375
21
2428.284227
31
0
0
LINE
8
DIMENSION
10
-3883.625
20
-1631.725773
30
0
11
-3883.625
21
-1951.725773
31
0
0
LINE
8
DIMENSION
10
-3383.625
20
-1631.725773
30
0
11
-3383.625
21
-1951.725773
31
0
0
LINE
8
DIMENSION
10
-3883.625
20
-1951.725773
30
0
11
-3383.625
21
-1951.725773
31
0
0
LINE
8
DIMENSION
10
-3883.625
20
-1951.725773
30
0
11
-3947.066545
21
-1922.142494
31
0
0
LINE
8
DIMENSION
10
-3883.625
20
-1951.725773
30
0
11
-3947.066545
21
-1981.309051
31
0
0
LINE
8
DIMENSION
10
-3383.625
20
-1951.725773
30
0
11
-3320.183455
21
-1981.309051
31
0
0
LINE
8
DIMENSION
10
-3383.625
20
-1951.725773
30
0
11
-3320.183455
21
-1922.142494
31
0
0
TEXT
8
DIMENSION
10
-3633.625
20
-2121.725773
30
0
40
85
1
0.5
50
0
7
STANDARD
72
1
73
2
11
-3633.625
21
-2121.725773
31
0
0
LINE
8
DIMENSION
10
-3383.625
20
-1631.725773
30
0
11
-3383.625
21
-1951.725773
31
0
0
LINE
8
DIMENSION
10
-2623.625
20
-1631.725773
30
0
11
-2623.625
21
-1951.725773
31
0
0
LINE
8
DIMENSION
10
-3383.625
20
-1951.725773
30
0
11
-2623.625
21
-1951.725773
31
0
0
LINE
8
DIMENSION
10
-3383.625
20
-1951.725773
30
0
11
-3447.066545
21
-1922.142494
31
0
0
LINE
8
DIMENSION
10
-3383.625
20
-1951.725773
30
0
11
-3447.066545
21
-1981.309051
31
0
0
LINE
8
DIMENSION
10
-2623.625
20
-1951.725773
30
0
11
-2560.183455
21
-1981.309051
31
0
0
LINE
8
DIMENSION
10
-2623.625
20
-1951.725773
30
0
11
-2560.183455
21
-1922.142494
31
0
0
TEXT
8
DIMENSION
10
-3003.625
20
-2121.725773
30
0
40
85
1
0.76
50
0
7
STANDARD
72
1
73
2
11
-3003.625
21
-2121.725773
31
0
0
LINE
8
DIMENSION
10
-2623.625
20
-1631.725773
30
0
11
-2623.625
21
-1951.725773
31
0
0
LINE
8
DIMENSION
10
-1363.625
20
-1631.725773
30
0
11
-1363.625
21
-1951.725773
31
0
0
LINE
8
DIMENSION
10
-2623.625
20
-1951.725773
30
0
11
-1363.625
21
-1951.725773
31
0
0
LINE
8
DIMENSION
10
-2623.625
20
-1951.725773
30
0
11
-2687.066545
21
-1922.142494
31
0
0
LINE
8
DIMENSION
10
-2623.625
20
-1951.725773
30
0
11
-2687.066545
21
-1981.309051
31
0
0
LINE
8
DIMENSION
10
-1363.625
20
-1951.725773
30
0
11
-1300.183455
21
-1981.309051
31
0
0
LINE
8
DIMENSION
10
-1363.625
20
-1951.725773
30
0
11
-1300.183455
21
-1922.142494
31
0
0
TEXT
8
DIMENSION
10
-1993.625
20
-2121.725773
30
0
40
85
1
1.26
50
0
7
STANDARD
72
1
73
2
11
-1993.625
21
-2121.725773
31
0
0
LINE
8
DIMENSION
10
-1363.625
20
-1631.725773
30
0
11
-1363.625
21
-1951.725773
31
0
0
LINE
8
DIMENSION
10
-103.625
20
-1631.725773
30
0
11
-103.625
21
-1951.725773
31
0
0
LINE
8
DIMENSION
10
-1363.625
20
-1951.725773
30
0
11
-103.625
21
-1951.725773
31
0
0
LINE
8
DIMENSION
10
-1363.625
20
-1951.725773
30
0
11
-1427.066545
21
-1922.142494
31
0
0
LINE
8
DIMENSION
10
-1363.625
20
-1951.725773
30
0
11
-1427.066545
21
-1981.309051
31
0
0
LINE
8
DIMENSION
10
-103.625
20
-1951.725773
30
0
11
-40.183455
21
-1981.309051
31
0
0
LINE
8
DIMENSION
10
-103.625
20
-1951.725773
30
0
11
-40.183455
21
-1922.142494
31
0
0
TEXT
8
DIMENSION
10
-733.625
20
-2121.725773
30
0
40
85
1
1.26
50
0
7
STANDARD
72
1
73
2
11
-733.625
21
-2121.725773
31
0
0
LINE
8
DIMENSION
10
-103.625
20
-1631.725773
30
0
11
-103.625
21
-1951.725773
31
0
0
LINE
8
DIMENSION
10
1156.375
20
-1631.725773
30
0
11
1156.375
21
-1951.725773
31
0
0
LINE
8
DIMENSION
10
-103.625
20
-1951.725773
30
0
11
1156.375
21
-1951.725773
31
0
0
LINE
8
DIMENSION
10
-103.625
20
-1951.725773
30
0
11
-167.066545
21
-1922.142494
31
0
0
LINE
8
DIMENSION
10
-103.625
20
-1951.725773
30
0
11
-167.066545
21
-1981.309051
31
0
0
LINE
8
DIMENSION
10
1156.375
20
-1951.725773
30
0
11
1219.816545
21
-1981.309051
31
0
0
LINE
8
DIMENSION
10
1156.375
20
-1951.725773
30
0
11
1219.816545
21
-1922.142494
31
0
0
TEXT
8
DIMENSION
10
526.375
20
-2121.725773
30
0
40
85
1
1.26
50
0
7
STANDARD
72
1
73
2
11
526.375
21
-2121.725773
31
0
0
LINE
8
DIMENSION
10
1156.375
20
-1631.725773
30
0
11
1156.375
21
-1951.725773
31
0
0
LINE
8
DIMENSION
10
1916.375
20
-1631.725773
30
0
11
1916.375
21
-1951.725773
31
0
0
LINE
8
DIMENSION
10
1156.375
20
-1951.725773
30
0
11
1916.375
21
-1951.725773
31
0
0
LINE
8
DIMENSION
10
1156.375
20
-1951.725773
30
0
11
1092.933455
21
-1922.142494
31
0
0
LINE
8
DIMENSION
10
1156.375
20
-1951.725773
30
0
11
1092.933455
21
-1981.309051
31
0
0
LINE
8
DIMENSION
10
1916.375
20
-1951.725773
30
0
11
1979.816545
21
-1981.309051
31
0
0
LINE
8
DIMENSION
10
1916.375
20
-1951.725773
30
0
11
1979.816545
21
-1922.142494
31
0
0
TEXT
8
DIMENSION
10
1536.375
20
-2121.725773
30
0
40
85
1
0.76
50
0
7
STANDARD
72
1
73
2
11
1536.375
21
-2121.725773
31
0
0
LINE
8
DIMENSION
10
1916.375
20
-1631.725773
30
0
11
1916.375
21
-1951.725773
31
0
0
LINE
8
DIMENSION
10
2416.375
20
-1631.725773
30
0
11
2416.375
21
-1951.725773
31
0
0
LINE
8
DIMENSION
10
1916.375
20
-1951.725773
30
0
11
2416.375
21
-1951.725773
31
0
0
LINE
8
DIMENSION
10
1916.375
20
-1951.725773
30
0
11
1852.933455
21
-1922.142494
31
0
0
LINE
8
DIMENSION
10
1916.375
20
-1951.725773
30
0
11
1852.933455
21
-1981.309051
31
0
0
LINE
8
DIMENSION
10
2416.375
20
-1951.725773
30
0
11
2479.816545
21
-1981.309051
31
0
0
LINE
8
DIMENSION
10
2416.375
20
-1951.725773
30
0
11
2479.816545
21
-1922.142494
31
0
0
TEXT
8
DIMENSION
10
2166.375
20
-2121.725773
30
0
40
85
1
0.5
50
0
7
STANDARD
72
1
73
2
11
2166.375
21
-2121.725773
31
0
0
LINE
8
DIMENSION
10
-3883.625
20
-1631.725773
30
0
11
-3883.625
21
-2321.725773
31
0
0
LINE
8
DIMENSION
10
2416.375
20
-1631.725773
30
0
11
2416.375
21
-2321.725773
31
0
0
LINE
8
DIMENSION
10
-3883.625
20
-2321.725773
30
0
11
2416.375
21
-2321.725773
31
0
0
LINE
8
DIMENSION
10
-3883.625
20
-2321.725773
30
0
11
-3947.066545
21
-2292.142494
31
0
0
LINE
8
DIMENSION
10
-3883.625
20
-2321.725773
30
0
11
-3947.066545
21
-2351.309051
31
0
0
LINE
8
DIMENSION
10
2416.375
20
-2321.725773
30
0
11
2479.816545
21
-2351.309051
31
0
0
LINE
8
DIMENSION
10
2416.375
20
-2321.725773
30
0
11
2479.816545
21
-2292.142494
31
0
0
TEXT
8
DIMENSION
10
-733.625
20
-2491.725773
30
0
40
85
1
TOTAL 6.3
50
0
7
STANDARD
72
1
73
2
11
-733.625
21
-2491.725773
31
0
0
LINE
8
DIMENSION
10
2476.375
20
-1571.725773
30
0
11
3116.375
21
-1571.725773
31
0
0
LINE
8
DIMENSION
10
2476.375
20
-1271.725773
30
0
11
3116.375
21
-1271.725773
31
0
0
LINE
8
DIMENSION
10
3116.375
20
-1571.725773
30
0
11
3116.375
21
-1271.725773
31
0
0
LINE
8
DIMENSION
10
3116.375
20
-1571.725773
30
0
11
3086.791722
21
-1635.167318
31
0
0
LINE
8
DIMENSION
10
3116.375
20
-1571.725773
30
0
11
3145.958278
21
-1635.167318
31
0
0
LINE
8
DIMENSION
10
3116.375
20
-1271.725773
30
0
11
3145.958278
21
-1208.284227
31
0
0
LINE
8
DIMENSION
10
3116.375
20
-1271.725773
30
0
11
3086.791722
21
-1208.284227
31
0
0
TEXT
8
DIMENSION
10
3286.375
20
-1421.725773
30
0
40
85
1
0.3
50
90
7
STANDARD
72
1
73
2
11
3286.375
21
-1421.725773
31
0
0
LINE
8
DIMENSION
10
2476.375
20
-1271.725773
30
0
11
3116.375
21
-1271.725773
31
0
0
LINE
8
DIMENSION
10
2476.375
20
-720.665773
30
0
11
3116.375
21
-720.665773
31
0
0
LINE
8
DIMENSION
10
3116.375
20
-1271.725773
30
0
11
3116.375
21
-720.665773
31
0
0
LINE
8
DIMENSION
10
3116.375
20
-1271.725773
30
0
11
3086.791722
21
-1335.167318
31
0
0
LINE
8
DIMENSION
10
3116.375
20
-1271.725773
30
0
11
3145.958278
21
-1335.167318
31
0
0
LINE
8
DIMENSION
10
3116.375
20
-720.665773
30
0
11
3145.958278
21
-657.224227
31
0
0
LINE
8
DIMENSION
10
3116.375
20
-720.665773
30
0
11
3086.791722
21
-657.224227
31
0
0
TEXT
8
DIMENSION
10
3286.375
20
-996.195773
30
0
40
85
1
0.551
50
90
7
STANDARD
72
1
73
2
11
3286.375
21
-996.195773
31
0
0
LINE
8
DIMENSION
10
2476.375
20
-720.665773
30
0
11
3116.375
21
-720.665773
31
0
0
LINE
8
DIMENSION
10
2476.375
20
-271.045773
30
0
11
3116.375
21
-271.045773
31
0
0
LINE
8
DIMENSION
10
3116.375
20
-720.665773
30
0
11
3116.375
21
-271.045773
31
0
0
LINE
8
DIMENSION
10
3116.375
20
-720.665773
30
0
11
3086.791722
21
-784.107318
31
0
0
LINE
8
DIMENSION
10
3116.375
20
-720.665773
30
0
11
3145.958278
21
-784.107318
31
0
0
LINE
8
DIMENSION
10
3116.375
20
-271.045773
30
0
11
3145.958278
21
-207.604227
31
0
0
LINE
8
DIMENSION
10
3116.375
20
-271.045773
30
0
11
3086.791722
21
-207.604227
31
0
0
TEXT
8
DIMENSION
10
3286.375
20
-495.855773
30
0
40
85
1
0.45
50
90
7
STANDARD
72
1
73
2
11
3286.375
21
-495.855773
31
0
0
LINE
8
DIMENSION
10
2476.375
20
-271.045773
30
0
11
3116.375
21
-271.045773
31
0
0
LINE
8
DIMENSION
10
2476.375
20
263.384227
30
0
11
3116.375
21
263.384227
31
0
0
LINE
8
DIMENSION
10
3116.375
20
-271.045773
30
0
11
3116.375
21
263.384227
31
0
0
LINE
8
DIMENSION
10
3116.375
20
-271.045773
30
0
11
3086.791722
21
-334.487318
31
0
0
LINE
8
DIMENSION
10
3116.375
20
-271.045773
30
0
11
3145.958278
21
-334.487318
31
0
0
LINE
8
DIMENSION
10
3116.375
20
263.384227
30
0
11
3145.958278
21
326.825773
31
0
0
LINE
8
DIMENSION
10
3116.375
20
263.384227
30
0
11
3086.791722
21
326.825773
31
0
0
TEXT
8
DIMENSION
10
3286.375
20
-3.830773
30
0
40
85
1
0.534
50
90
7
STANDARD
72
1
73
2
11
3286.375
21
-3.830773
31
0
0
LINE
8
DIMENSION
10
2476.375
20
263.384227
30
0
11
3116.375
21
263.384227
31
0
0
LINE
8
DIMENSION
10
2476.375
20
853.814227
30
0
11
3116.375
21
853.814227
31
0
0
LINE
8
DIMENSION
10
3116.375
20
263.384227
30
0
11
3116.375
21
853.814227
31
0
0
LINE
8
DIMENSION
10
3116.375
20
263.384227
30
0
11
3086.791722
21
199.942682
31
0
0
LINE
8
DIMENSION
10
3116.375
20
263.384227
30
0
11
3145.958278
21
199.942682
31
0
0
LINE
8
DIMENSION
10
3116.375
20
853.814227
30
0
11
3145.958278
21
917.255773
31
0
0
LINE
8
DIMENSION
10
3116.375
20
853.814227
30
0
11
3086.791722
21
917.255773
31
0
0
TEXT
8
DIMENSION
10
3286.375
20
558.599227
30
0
40
85
1
0.59
50
90
7
STANDARD
72
1
73
2
11
3286.375
21
558.599227
31
0
0
LINE
8
DIMENSION
10
2476.375
20
853.814227
30
0
11
3116.375
21
853.814227
31
0
0
LINE
8
DIMENSION
10
2476.375
20
2428.284227
30
0
11
3116.375
21
2428.284227
31
0
0
LINE
8
DIMENSION
10
3116.375
20
853.814227
30
0
11
3116.375
21
2428.284227
31
0
0
LINE
8
DIMENSION
10
3116.375
20
853.814227
30
0
11
3086.791722
21
790.372682
31
0
0
LINE
8
DIMENSION
10
3116.375
20
853.814227
30
0
11
3145.958278
21
790.372682
31
0
0
LINE
8
DIMENSION
10
3116.375
20
2428.284227
30
0
11
3145.958278
21
2491.725773
31
0
0
LINE
8
DIMENSION
10
3116.375
20
2428.284227
30
0
11
3086.791722
21
2491.725773
31
0
0
TEXT
8
DIMENSION
10
3286.375
20
1641.049227
30
0
40
85
1
1.574
50
90
7
STANDARD
72
1
73
2
11
3286.375
21
1641.049227
31
0
0
LINE
8
DIMENSION
10
2476.375
20
-1571.725773
30
0
11
3566.375
21
-1571.725773
31
0
0
LINE
8
DIMENSION
10
2476.375
20
2428.284227
30
0
11
3566.375
21
2428.284227
31
0
0
LINE
8
DIMENSION
10
3566.375
20
-1571.725773
30
0
11
3566.375
21
2428.284227
31
0
0
LINE
8
DIMENSION
10
3566.375
20
-1571.725773
30
0
11
3536.791722
21
-1635.167318
31
0
0
LINE
8
DIMENSION
10
3566.375
20
-1571.725773
30
0
11
3595.958278
21
-1635.167318
31
0
0
LINE
8
DIMENSION
10
3566.375
20
2428.284227
30
0
11
3595.958278
21
2491.725773
31
0
0
LINE
8
DIMENSION
10
3566.375
20
2428.284227
30
0
11
3536.791722
21
2491.725773
31
0
0
TEXT
8
DIMENSION
10
3736.375
20
428.279227
30
0
40
85
1
TOTAL 4
50
90
7
STANDARD
72
1
73
2
11
3736.375
21
428.279227
31
0
0
ENDSEC
0
EOF
