0
SECTION
2
HEADER
9
$ACADVER
1
AC1009
9
$INSUNITS
70
4
9
$MEASUREMENT
70
1
9
$LUNITS
70
2
9
$LUPREC
70
1
9
$TILEMODE
70
1
9
$EXTMIN
10
-2913.625
20
-2491.725773
30
0
9
$EXTMAX
10
2913.625
20
2491.725773
30
0
9
$PEXTMIN
10
-2913.625
20
-2491.725773
30
0
9
$PEXTMAX
10
2913.625
20
2491.725773
30
0
9
$LIMMIN
10
-3413.625
20
-2991.725773
9
$LIMMAX
10
3413.625
20
2991.725773
9
$PLIMMIN
10
-3413.625
20
-2991.725773
9
$PLIMMAX
10
3413.625
20
2991.725773
0
ENDSEC
0
SECTION
2
TABLES
0
TABLE
2
VPORT
70
1
0
VPORT
2
*ACTIVE
70
0
10
0
20
0
11
1
21
1
12
0
22
0
40
5983.451545
41
1.141022
42
50
43
0
44
0
50
0
51
0
71
0
72
100
73
1
74
3
75
0
76
0
77
0
78
0
0
ENDTAB
0
TABLE
2
LTYPE
70
2
0
LTYPE
2
CONTINUOUS
70
0
3
Solid line
72
65
73
0
40
0
0
LTYPE
2
DASHED
70
0
3
Dashed
72
65
73
2
40
240
49
120
74
0
49
-120
74
0
0
ENDTAB
0
TABLE
2
LAYER
70
6
0
LAYER
2
PIPES
70
0
62
5
6
CONTINUOUS
0
LAYER
2
PIPE_ENDS
70
0
62
5
6
CONTINUOUS
0
LAYER
2
DIMENSION
70
0
62
1
6
CONTINUOUS
0
LAYER
2
LEVEL_GUIDE
70
0
62
1
6
DASHED
0
LAYER
2
LEVEL_TEXT
70
0
62
1
6
CONTINUOUS
0
LAYER
2
FRAME
70
0
62
5
6
CONTINUOUS
0
ENDTAB
0
TABLE
2
STYLE
70
1
0
STYLE
2
STANDARD
70
0
40
0
41
1
50
0
71
0
42
100
3
txt
4

0
ENDTAB
0
ENDSEC
0
SECTION
2
BLOCKS
0
BLOCK
8
0
2
$MODEL_SPACE
70
0
10
0
20
0
30
0
3
$MODEL_SPACE
0
ENDBLK
8
0
0
BLOCK
67
1
8
0
2
$PAPER_SPACE
70
0
10
0
20
0
30
0
3
$PAPER_SPACE
0
ENDBLK
67
1
8
0
0
ENDSEC
0
SECTION
2
ENTITIES
0
LINE
8
PIPES
10
-2733.625
20
-1571.725773
30
0
11
-2733.625
21
-1271.724773
31
0
0
LINE
8
PIPES
10
-2733.625
20
-720.661773
30
0
11
-2733.625
21
-1271.724773
31
0
0
LINE
8
PIPES
10
-2733.625
20
-271.045773
30
0
11
-2733.625
21
-720.661773
31
0
0
LINE
8
PIPES
10
-2733.625
20
263.384227
30
0
11
-2733.625
21
-271.045773
31
0
0
LINE
8
PIPES
10
-2733.625
20
853.814227
30
0
11
-2733.625
21
263.384227
31
0
0
LINE
8
PIPES
10
-2733.625
20
1892.494227
30
0
11
-2733.625
21
853.814227
31
0
0
LINE
8
PIPES
10
-1400.625
20
-1571.725773
30
0
11
-1400.625
21
-1271.724773
31
0
0
LINE
8
PIPES
10
-1400.625
20
-1271.724773
30
0
11
-1400.625
21
-720.661773
31
0
0
LINE
8
PIPES
10
-1400.625
20
-720.661773
30
0
11
-1400.625
21
-271.045773
31
0
0
LINE
8
PIPES
10
-1400.625
20
-271.045773
30
0
11
-1400.625
21
263.384227
31
0
0
LINE
8
PIPES
10
-1400.625
20
263.384227
30
0
11
-1400.625
21
853.814227
31
0
0
LINE
8
PIPES
10
-1400.625
20
853.814227
30
0
11
-1400.625
21
1971.214227
31
0
0
LINE
8
PIPES
10
-67.625
20
-1571.725773
30
0
11
-67.625
21
-1271.724773
31
0
0
LINE
8
PIPES
10
-67.625
20
-720.661773
30
0
11
-67.625
21
-1271.724773
31
0
0
LINE
8
PIPES
10
-67.625
20
-720.661773
30
0
11
-67.625
21
-271.045773
31
0
0
LINE
8
PIPES
10
-67.625
20
-271.045773
30
0
11
-67.625
21
263.384227
31
0
0
LINE
8
PIPES
10
-67.625
20
263.384227
30
0
11
-67.625
21
853.814227
31
0
0
LINE
8
PIPES
10
-67.625
20
853.814227
30
0
11
-67.625
21
2049.944227
31
0
0
LINE
8
PIPES
10
1266.375
20
-1571.725773
30
0
11
1266.375
21
-1271.724773
31
0
0
LINE
8
PIPES
10
1266.375
20
-1271.724773
30
0
11
1266.375
21
-720.661773
31
0
0
LINE
8
PIPES
10
1266.375
20
-720.661773
30
0
11
1266.375
21
-271.045773
31
0
0
LINE
8
PIPES
10
1266.375
20
-271.045773
30
0
11
1266.375
21
263.384227
31
0
0
LINE
8
PIPES
10
1266.375
20
263.384227
30
0
11
1266.375
21
853.814227
31
0
0
LINE
8
PIPES
10
1266.375
20
2128.664227
30
0
11
1266.375
21
853.814227
31
0
0
LINE
8
PIPES
10
1266.375
20
853.814227
30
0
11
1266.375
21
1247.434227
31
0
0
LINE
8
PIPES
10
1266.375
20
1247.434227
30
0
11
1266.375
21
2128.664227
31
0
0
LINE
8
PIPES
10
1266.375
20
2428.284227
30
0
11
1266.375
21
2144.874227
31
0
0
LINE
8
PIPES
10
766.375
20
-720.661773
30
0
11
766.375
21
-271.045773
31
0
0
LINE
8
PIPES
10
-2733.625
20
-1271.724773
30
0
11
-1400.625
21
-1271.724773
31
0
0
LINE
8
PIPES
10
-1400.625
20
-1271.724773
30
0
11
-67.625
21
-1271.724773
31
0
0
LINE
8
PIPES
10
-67.625
20
-1271.724773
30
0
11
1266.375
21
-1271.724773
31
0
0
LINE
8
PIPES
10
-2733.625
20
-720.661773
30
0
11
-1400.625
21
-720.661773
31
0
0
LINE
8
PIPES
10
-1400.625
20
-720.661773
30
0
11
-67.625
21
-720.661773
31
0
0
LINE
8
PIPES
10
-67.625
20
-720.661773
30
0
11
766.375
21
-720.661773
31
0
0
LINE
8
PIPES
10
766.375
20
-720.661773
30
0
11
1266.375
21
-720.661773
31
0
0
LINE
8
PIPES
10
-2733.625
20
-720.661773
30
0
11
-2233.625
21
-720.661773
31
0
0
LINE
8
PIPES
10
-2733.625
20
-271.045773
30
0
11
-2233.625
21
-271.045773
31
0
0
LINE
8
PIPES
10
-1400.625
20
-271.045773
30
0
11
-67.625
21
-271.045773
31
0
0
LINE
8
PIPES
10
-67.625
20
-271.045773
30
0
11
766.375
21
-271.045773
31
0
0
LINE
8
PIPES
10
766.375
20
-271.045773
30
0
11
1266.375
21
-271.045773
31
0
0
LINE
8
PIPES
10
-2733.625
20
263.384227
30
0
11
-1400.625
21
263.384227
31
0
0
LINE
8
PIPES
10
-1400.625
20
263.384227
30
0
11
-67.625
21
263.384227
31
0
0
LINE
8
PIPES
10
-67.625
20
263.384227
30
0
11
1266.375
21
263.384227
31
0
0
LINE
8
PIPES
10
-2733.625
20
853.814227
30
0
11
-1400.625
21
853.814227
31
0
0
LINE
8
PIPES
10
-1400.625
20
853.814227
30
0
11
-67.625
21
853.814227
31
0
0
LINE
8
PIPES
10
-67.625
20
853.814227
30
0
11
1266.375
21
853.814227
31
0
0
LINE
8
PIPES
10
-2305.805
20
2205.094227
30
0
11
-2008.125
21
2223.694227
31
0
0
LINE
8
PIPES
10
-2008.125
20
2223.694227
30
0
11
-1710.445
21
2242.294227
31
0
0
LINE
8
PIPES
10
-1710.445
20
2242.294227
30
0
11
-1412.765
21
2260.894227
31
0
0
LINE
8
PIPES
10
-1412.765
20
2260.894227
30
0
11
-1400.625
21
2270.834227
31
0
0
LINE
8
PIPES
10
-1115.085
20
2279.494227
30
0
11
-817.395
21
2298.094227
31
0
0
LINE
8
PIPES
10
-817.395
20
2298.094227
30
0
11
-519.715
21
2316.694227
31
0
0
LINE
8
PIPES
10
-519.715
20
2316.694227
30
0
11
-222.035
21
2335.294227
31
0
0
LINE
8
PIPES
10
-222.035
20
2335.294227
30
0
11
-67.625
21
2349.564227
31
0
0
LINE
8
PIPES
10
75.645
20
2353.884227
30
0
11
373.325
21
2372.484227
31
0
0
LINE
8
PIPES
10
373.325
20
2372.484227
30
0
11
671.015
21
2391.084227
31
0
0
LINE
8
PIPES
10
671.015
20
2391.084227
30
0
11
968.695
21
2409.684227
31
0
0
LINE
8
PIPES
10
968.695
20
2409.684227
30
0
11
1266.375
21
2428.284227
31
0
0
LINE
8
PIPES
10
-2305.805
20
1905.474227
30
0
11
-2008.125
21
1924.074227
31
0
0
LINE
8
PIPES
10
-2008.125
20
1924.074227
30
0
11
-1710.445
21
1942.674227
31
0
0
LINE
8
PIPES
10
-1710.445
20
1942.674227
30
0
11
-1412.765
21
1961.274227
31
0
0
LINE
8
PIPES
10
-1412.765
20
1961.274227
30
0
11
-1400.625
21
1971.214227
31
0
0
LINE
8
PIPES
10
-1115.085
20
1979.874227
30
0
11
-817.395
21
1998.474227
31
0
0
LINE
8
PIPES
10
-817.395
20
1998.474227
30
0
11
-519.715
21
2017.074227
31
0
0
LINE
8
PIPES
10
-519.715
20
2017.074227
30
0
11
-222.035
21
2035.664227
31
0
0
LINE
8
PIPES
10
-222.035
20
2035.664227
30
0
11
-67.625
21
2049.944227
31
0
0
LINE
8
PIPES
10
75.645
20
2054.264227
30
0
11
373.325
21
2072.864227
31
0
0
LINE
8
PIPES
10
373.325
20
2072.864227
30
0
11
671.015
21
2091.464227
31
0
0
LINE
8
PIPES
10
671.015
20
2091.464227
30
0
11
968.695
21
2110.064227
31
0
0
LINE
8
PIPES
10
968.695
20
2110.064227
30
0
11
1266.375
21
2128.664227
31
0
0
LINE
8
PIPES
10
1266.375
20
2128.664227
30
0
11
1266.375
21
2144.874227
31
0
0
LINE
8
PIPES
10
-2305.805
20
2205.094227
30
0
11
-2305.805
21
1905.474227
31
0
0
LINE
8
PIPES
10
-2008.125
20
2223.694227
30
0
11
-2008.125
21
1924.074227
31
0
0
LINE
8
PIPES
10
-1710.445
20
2242.294227
30
0
11
-1710.445
21
1942.674227
31
0
0
LINE
8
PIPES
10
-1412.765
20
2260.894227
30
0
11
-1412.765
21
1961.274227
31
0
0
LINE
8
PIPES
10
-1115.085
20
2279.494227
30
0
11
-1115.085
21
1979.874227
31
0
0
LINE
8
PIPES
10
-817.395
20
2298.094227
30
0
11
-817.395
21
1998.474227
31
0
0
LINE
8
PIPES
10
-519.715
20
2316.694227
30
0
11
-519.715
21
2017.074227
31
0
0
LINE
8
PIPES
10
-222.035
20
2335.294227
30
0
11
-222.035
21
2035.664227
31
0
0
LINE
8
PIPES
10
75.645
20
2353.884227
30
0
11
75.645
21
2054.264227
31
0
0
LINE
8
PIPES
10
373.325
20
2372.484227
30
0
11
373.325
21
2072.864227
31
0
0
LINE
8
PIPES
10
671.015
20
2391.084227
30
0
11
671.015
21
2091.464227
31
0
0
LINE
8
PIPES
10
968.695
20
2409.684227
30
0
11
968.695
21
2110.064227
31
0
0
LINE
8
PIPES
10
-2733.625
20
1892.494227
30
0
11
-1400.625
21
853.814227
31
0
0
LINE
8
PIPES
10
-1400.625
20
853.814227
30
0
11
-2733.625
21
-271.045773
31
0
0
LINE
8
PIPES
10
-2733.625
20
-271.045773
30
0
11
-1400.625
21
-1571.725773
31
0
0
LINE
8
PIPES
10
-1400.625
20
1971.214227
30
0
11
-67.625
21
853.814227
31
0
0
LINE
8
PIPES
10
-67.625
20
853.814227
30
0
11
-1400.625
21
-271.045773
31
0
0
LINE
8
PIPES
10
-1400.625
20
-271.045773
30
0
11
-67.625
21
-1571.725773
31
0
0
LINE
8
PIPES
10
-67.625
20
2049.944227
30
0
11
1266.375
21
853.814227
31
0
0
LINE
8
PIPES
10
1266.375
20
853.814227
30
0
11
-67.625
21
-271.045773
31
0
0
LINE
8
PIPES
10
-67.625
20
-271.045773
30
0
11
1266.375
21
-1571.725773
31
0
0
LINE
8
PIPES
10
-2733.625
20
-1271.724773
30
0
11
-1400.625
21
-720.661773
31
0
0
LINE
8
PIPES
10
-1400.625
20
-720.661773
30
0
11
-67.625
21
-1271.724773
31
0
0
LINE
8
PIPES
10
-67.625
20
-1271.724773
30
0
11
1266.375
21
-720.661773
31
0
0
LINE
8
PIPES
10
-2733.625
20
-720.661773
30
0
11
-1400.625
21
-1271.724773
31
0
0
LINE
8
PIPES
10
-1400.625
20
-1271.724773
30
0
11
-67.625
21
-720.661773
31
0
0
LINE
8
PIPES
10
-67.625
20
-720.661773
30
0
11
1266.375
21
-1271.724773
31
0
0
LINE
8
PIPES
10
-2733.625
20
1892.494227
30
0
11
-1400.625
21
1971.214227
31
0
0
LINE
8
PIPES
10
-1400.625
20
1971.214227
30
0
11
-67.625
21
2049.944227
31
0
0
LINE
8
PIPES
10
-67.625
20
2049.944227
30
0
11
1266.375
21
2128.664227
31
0
0
LINE
8
PIPES
10
-2733.625
20
2192.114227
30
0
11
-1400.625
21
2270.834227
31
0
0
LINE
8
PIPES
10
-1400.625
20
2270.834227
30
0
11
-67.625
21
2349.564227
31
0
0
LINE
8
PIPES
10
-67.625
20
2349.564227
30
0
11
1266.375
21
2428.284227
31
0
0
LINE
8
PIPES
10
1266.375
20
2128.664227
30
0
11
-67.625
21
853.814227
31
0
0
LINE
8
PIPES
10
-67.625
20
853.814227
30
0
11
1266.375
21
-271.045773
31
0
0
LINE
8
PIPES
10
1266.375
20
-271.045773
30
0
11
-67.625
21
-1571.725773
31
0
0
LINE
8
PIPES
10
-67.625
20
2049.944227
30
0
11
-1400.625
21
853.814227
31
0
0
LINE
8
PIPES
10
-1400.625
20
853.814227
30
0
11
-67.625
21
-271.045773
31
0
0
LINE
8
PIPES
10
-67.625
20
-271.045773
30
0
11
-1400.625
21
-1571.725773
31
0
0
LINE
8
PIPES
10
-1400.625
20
1971.214227
30
0
11
-2733.625
21
853.814227
31
0
0
LINE
8
PIPES
10
-2733.625
20
853.814227
30
0
11
-1400.625
21
-271.045773
31
0
0
LINE
8
PIPES
10
-1400.625
20
-271.045773
30
0
11
-2733.625
21
-1571.725773
31
0
0
LINE
8
PIPES
10
1266.375
20
2144.874227
30
0
11
1266.375
21
1247.434227
31
0
0
LINE
8
PIPES
10
1266.375
20
853.814227
30
0
11
1266.375
21
-271.045773
31
0
0
LINE
8
PIPES
10
1266.375
20
-1571.725773
30
0
11
1266.375
21
-271.045773
31
0
0
LINE
8
PIPES
10
1266.375
20
2144.874227
30
0
11
1266.375
21
853.814227
31
0
0
LINE
8
PIPES
10
-2733.625
20
2192.114227
30
0
11
-2733.625
21
1892.494227
31
0
0
LINE
8
PIPES
10
-1400.625
20
2270.834227
30
0
11
-1400.625
21
1971.214227
31
0
0
LINE
8
PIPES
10
-67.625
20
2349.564227
30
0
11
-67.625
21
2049.944227
31
0
0
LINE
8
PIPES
10
1266.375
20
2128.664227
30
0
11
1266.375
21
2428.284227
31
0
0
LINE
8
PIPES
10
-2733.625
20
2192.114227
30
0
11
-2305.805
21
2205.094227
31
0
0
LINE
8
PIPES
10
-2733.625
20
1892.494227
30
0
11
-2305.805
21
1905.474227
31
0
0
LINE
8
PIPES
10
-1400.625
20
2270.834227
30
0
11
-1115.085
21
2279.494227
31
0
0
LINE
8
PIPES
10
-1400.625
20
1971.214227
30
0
11
-1115.085
21
1979.874227
31
0
0
LINE
8
PIPES
10
-67.625
20
2349.564227
30
0
11
75.645
21
2353.884227
31
0
0
LINE
8
PIPES
10
-67.625
20
2049.944227
30
0
11
75.645
21
2054.264227
31
0
0
LINE
8
PIPES
10
-2733.625
20
2192.114227
30
0
11
-1400.625
21
1971.214227
31
0
0
LINE
8
PIPES
10
-1400.625
20
1971.214227
30
0
11
-67.625
21
2349.564227
31
0
0
LINE
8
PIPES
10
-67.625
20
2349.564227
30
0
11
1266.375
21
2128.664227
31
0
0
LINE
8
PIPES
10
-2733.625
20
1892.494227
30
0
11
-1400.625
21
2270.834227
31
0
0
LINE
8
PIPES
10
-1400.625
20
2270.834227
30
0
11
-67.625
21
2049.944227
31
0
0
LINE
8
PIPES
10
-67.625
20
2049.944227
30
0
11
1266.375
21
2428.284227
31
0
0
LINE
8
PIPES
10
-2233.625
20
-271.045773
30
0
11
-1400.625
21
-271.045773
31
0
0
LINE
8
PIPES
10
-2233.625
20
-720.661773
30
0
11
-1400.625
21
-720.661773
31
0
0
LINE
8
PIPES
10
-2233.625
20
-271.045773
30
0
11
-2233.625
21
-720.661773
31
0
0
LINE
8
PIPES
10
-2733.625
20
853.814227
30
0
11
-2733.625
21
-271.045773
31
0
0
LINE
8
PIPES
10
-2733.625
20
-271.045773
30
0
11
-2733.625
21
-1571.725773
31
0
0
CIRCLE
8
PIPE_ENDS
10
-2733.625
20
-1271.725773
30
0
40
32
0
CIRCLE
8
PIPE_ENDS
10
-1400.625
20
-1271.725773
30
0
40
32
0
CIRCLE
8
PIPE_ENDS
10
-67.625
20
-1271.725773
30
0
40
32
0
CIRCLE
8
PIPE_ENDS
10
1266.375
20
-1271.725773
30
0
40
32
0
CIRCLE
8
PIPE_ENDS
10
1266.375
20
-720.625773
30
0
40
32
0
CIRCLE
8
PIPE_ENDS
10
-2733.625
20
-720.625773
30
0
40
32
0
CIRCLE
8
PIPE_ENDS
10
-1400.625
20
-720.625773
30
0
40
32
0
CIRCLE
8
PIPE_ENDS
10
-67.625
20
-720.625773
30
0
40
32
0
CIRCLE
8
PIPE_ENDS
10
766.375
20
-271.025773
30
0
40
32
0
CIRCLE
8
PIPE_ENDS
10
1266.375
20
-271.025773
30
0
40
32
0
CIRCLE
8
PIPE_ENDS
10
-2733.625
20
-271.025773
30
0
40
32
0
CIRCLE
8
PIPE_ENDS
10
-1400.625
20
-271.025773
30
0
40
32
0
CIRCLE
8
PIPE_ENDS
10
-67.625
20
-271.025773
30
0
40
32
0
CIRCLE
8
PIPE_ENDS
10
1266.375
20
263.374227
30
0
40
32
0
CIRCLE
8
PIPE_ENDS
10
1266.375
20
853.774227
30
0
40
32
0
CIRCLE
8
PIPE_ENDS
10
1266.375
20
2428.274227
30
0
40
32
0
CIRCLE
8
PIPE_ENDS
10
1266.375
20
2128.674227
30
0
40
32
0
CIRCLE
8
PIPE_ENDS
10
1266.375
20
1247.474227
30
0
40
25
0
CIRCLE
8
PIPE_ENDS
10
-2733.625
20
2192.074227
30
0
40
32
0
CIRCLE
8
PIPE_ENDS
10
-2733.625
20
1892.474227
30
0
40
32
0
CIRCLE
8
PIPE_ENDS
10
-1400.625
20
2270.874227
30
0
40
32
0
CIRCLE
8
PIPE_ENDS
10
-1400.625
20
1971.174227
30
0
40
32
0
CIRCLE
8
PIPE_ENDS
10
-67.625
20
2349.574227
30
0
40
32
0
CIRCLE
8
PIPE_ENDS
10
-67.625
20
2049.974227
30
0
40
32
0
CIRCLE
8
PIPE_ENDS
10
-2733.625
20
263.374227
30
0
40
32
0
CIRCLE
8
PIPE_ENDS
10
-2733.625
20
853.774227
30
0
40
32
0
CIRCLE
8
PIPE_ENDS
10
-2233.625
20
-271.025773
30
0
40
32
0
LINE
8
LEVEL_GUIDE
6
DASHED
10
-2913.625
20
-1571.725773
30
0
11
1446.375
21
-1571.725773
31
0
0
LINE
8
LEVEL_GUIDE
6
DASHED
10
-2913.625
20
-1271.725773
30
0
11
1446.375
21
-1271.725773
31
0
0
LINE
8
LEVEL_GUIDE
6
DASHED
10
-2913.625
20
-720.665773
30
0
11
1446.375
21
-720.665773
31
0
0
LINE
8
LEVEL_GUIDE
6
DASHED
10
-2913.625
20
-271.045773
30
0
11
1446.375
21
-271.045773
31
0
0
LINE
8
LEVEL_GUIDE
6
DASHED
10
-2913.625
20
263.384227
30
0
11
1446.375
21
263.384227
31
0
0
LINE
8
LEVEL_GUIDE
6
DASHED
10
-2913.625
20
853.814227
30
0
11
1446.375
21
853.814227
31
0
0
LINE
8
LEVEL_GUIDE
6
DASHED
10
-2913.625
20
1892.494227
30
0
11
1446.375
21
1892.494227
31
0
0
LINE
8
LEVEL_GUIDE
6
DASHED
10
-2913.625
20
2428.284227
30
0
11
1446.375
21
2428.284227
31
0
0
LINE
8
DIMENSION
10
-2733.625
20
-1631.725773
30
0
11
-2733.625
21
-1951.725773
31
0
0
LINE
8
DIMENSION
10
-2233.625
20
-1631.725773
30
0
11
-2233.625
21
-1951.725773
31
0
0
LINE
8
DIMENSION
10
-2733.625
20
-1951.725773
30
0
11
-2233.625
21
-1951.725773
31
0
0
LINE
8
DIMENSION
10
-2733.625
20
-1951.725773
30
0
11
-2797.066545
21
-1922.142494
31
0
0
LINE
8
DIMENSION
10
-2733.625
20
-1951.725773
30
0
11
-2797.066545
21
-1981.309051
31
0
0
LINE
8
DIMENSION
10
-2233.625
20
-1951.725773
30
0
11
-2170.183455
21
-1981.309051
31
0
0
LINE
8
DIMENSION
10
-2233.625
20
-1951.725773
30
0
11
-2170.183455
21
-1922.142494
31
0
0
TEXT
8
DIMENSION
10
-2483.625
20
-2121.725773
30
0
40
85
1
0.5
50
0
7
STANDARD
72
1
73
2
11
-2483.625
21
-2121.725773
31
0
0
LINE
8
DIMENSION
10
-2233.625
20
-1631.725773
30
0
11
-2233.625
21
-1951.725773
31
0
0
LINE
8
DIMENSION
10
-1400.625
20
-1631.725773
30
0
11
-1400.625
21
-1951.725773
31
0
0
LINE
8
DIMENSION
10
-2233.625
20
-1951.725773
30
0
11
-1400.625
21
-1951.725773
31
0
0
LINE
8
DIMENSION
10
-2233.625
20
-1951.725773
30
0
11
-2297.066545
21
-1922.142494
31
0
0
LINE
8
DIMENSION
10
-2233.625
20
-1951.725773
30
0
11
-2297.066545
21
-1981.309051
31
0
0
LINE
8
DIMENSION
10
-1400.625
20
-1951.725773
30
0
11
-1337.183455
21
-1981.309051
31
0
0
LINE
8
DIMENSION
10
-1400.625
20
-1951.725773
30
0
11
-1337.183455
21
-1922.142494
31
0
0
TEXT
8
DIMENSION
10
-1817.125
20
-2121.725773
30
0
40
85
1
0.833
50
0
7
STANDARD
72
1
73
2
11
-1817.125
21
-2121.725773
31
0
0
LINE
8
DIMENSION
10
-1400.625
20
-1631.725773
30
0
11
-1400.625
21
-1951.725773
31
0
0
LINE
8
DIMENSION
10
-67.625
20
-1631.725773
30
0
11
-67.625
21
-1951.725773
31
0
0
LINE
8
DIMENSION
10
-1400.625
20
-1951.725773
30
0
11
-67.625
21
-1951.725773
31
0
0
LINE
8
DIMENSION
10
-1400.625
20
-1951.725773
30
0
11
-1464.066545
21
-1922.142494
31
0
0
LINE
8
DIMENSION
10
-1400.625
20
-1951.725773
30
0
11
-1464.066545
21
-1981.309051
31
0
0
LINE
8
DIMENSION
10
-67.625
20
-1951.725773
30
0
11
-4.183455
21
-1981.309051
31
0
0
LINE
8
DIMENSION
10
-67.625
20
-1951.725773
30
0
11
-4.183455
21
-1922.142494
31
0
0
TEXT
8
DIMENSION
10
-734.125
20
-2121.725773
30
0
40
85
1
1.333
50
0
7
STANDARD
72
1
73
2
11
-734.125
21
-2121.725773
31
0
0
LINE
8
DIMENSION
10
-67.625
20
-1631.725773
30
0
11
-67.625
21
-1951.725773
31
0
0
LINE
8
DIMENSION
10
766.375
20
-1631.725773
30
0
11
766.375
21
-1951.725773
31
0
0
LINE
8
DIMENSION
10
-67.625
20
-1951.725773
30
0
11
766.375
21
-1951.725773
31
0
0
LINE
8
DIMENSION
10
-67.625
20
-1951.725773
30
0
11
-131.066545
21
-1922.142494
31
0
0
LINE
8
DIMENSION
10
-67.625
20
-1951.725773
30
0
11
-131.066545
21
-1981.309051
31
0
0
LINE
8
DIMENSION
10
766.375
20
-1951.725773
30
0
11
829.816545
21
-1981.309051
31
0
0
LINE
8
DIMENSION
10
766.375
20
-1951.725773
30
0
11
829.816545
21
-1922.142494
31
0
0
TEXT
8
DIMENSION
10
349.375
20
-2121.725773
30
0
40
85
1
0.834
50
0
7
STANDARD
72
1
73
2
11
349.375
21
-2121.725773
31
0
0
LINE
8
DIMENSION
10
766.375
20
-1631.725773
30
0
11
766.375
21
-1951.725773
31
0
0
LINE
8
DIMENSION
10
1266.375
20
-1631.725773
30
0
11
1266.375
21
-1951.725773
31
0
0
LINE
8
DIMENSION
10
766.375
20
-1951.725773
30
0
11
1266.375
21
-1951.725773
31
0
0
LINE
8
DIMENSION
10
766.375
20
-1951.725773
30
0
11
702.933455
21
-1922.142494
31
0
0
LINE
8
DIMENSION
10
766.375
20
-1951.725773
30
0
11
702.933455
21
-1981.309051
31
0
0
LINE
8
DIMENSION
10
1266.375
20
-1951.725773
30
0
11
1329.816545
21
-1981.309051
31
0
0
LINE
8
DIMENSION
10
1266.375
20
-1951.725773
30
0
11
1329.816545
21
-1922.142494
31
0
0
TEXT
8
DIMENSION
10
1016.375
20
-2121.725773
30
0
40
85
1
0.5
50
0
7
STANDARD
72
1
73
2
11
1016.375
21
-2121.725773
31
0
0
LINE
8
DIMENSION
10
-2733.625
20
-1631.725773
30
0
11
-2733.625
21
-2321.725773
31
0
0
LINE
8
DIMENSION
10
1266.375
20
-1631.725773
30
0
11
1266.375
21
-2321.725773
31
0
0
LINE
8
DIMENSION
10
-2733.625
20
-2321.725773
30
0
11
1266.375
21
-2321.725773
31
0
0
LINE
8
DIMENSION
10
-2733.625
20
-2321.725773
30
0
11
-2797.066545
21
-2292.142494
31
0
0
LINE
8
DIMENSION
10
-2733.625
20
-2321.725773
30
0
11
-2797.066545
21
-2351.309051
31
0
0
LINE
8
DIMENSION
10
1266.375
20
-2321.725773
30
0
11
1329.816545
21
-2351.309051
31
0
0
LINE
8
DIMENSION
10
1266.375
20
-2321.725773
30
0
11
1329.816545
21
-2292.142494
31
0
0
TEXT
8
DIMENSION
10
-733.625
20
-2491.725773
30
0
40
85
1
TOTAL 4
50
0
7
STANDARD
72
1
73
2
11
-733.625
21
-2491.725773
31
0
0
LINE
8
DIMENSION
10
1326.375
20
-1571.725773
30
0
11
1966.375
21
-1571.725773
31
0
0
LINE
8
DIMENSION
10
1326.375
20
-1271.725773
30
0
11
1966.375
21
-1271.725773
31
0
0
LINE
8
DIMENSION
10
1966.375
20
-1571.725773
30
0
11
1966.375
21
-1271.725773
31
0
0
LINE
8
DIMENSION
10
1966.375
20
-1571.725773
30
0
11
1936.791722
21
-1635.167318
31
0
0
LINE
8
DIMENSION
10
1966.375
20
-1571.725773
30
0
11
1995.958278
21
-1635.167318
31
0
0
LINE
8
DIMENSION
10
1966.375
20
-1271.725773
30
0
11
1995.958278
21
-1208.284227
31
0
0
LINE
8
DIMENSION
10
1966.375
20
-1271.725773
30
0
11
1936.791722
21
-1208.284227
31
0
0
TEXT
8
DIMENSION
10
2136.375
20
-1421.725773
30
0
40
85
1
0.3
50
90
7
STANDARD
72
1
73
2
11
2136.375
21
-1421.725773
31
0
0
LINE
8
DIMENSION
10
1326.375
20
-1271.725773
30
0
11
1966.375
21
-1271.725773
31
0
0
LINE
8
DIMENSION
10
1326.375
20
-720.665773
30
0
11
1966.375
21
-720.665773
31
0
0
LINE
8
DIMENSION
10
1966.375
20
-1271.725773
30
0
11
1966.375
21
-720.665773
31
0
0
LINE
8
DIMENSION
10
1966.375
20
-1271.725773
30
0
11
1936.791722
21
-1335.167318
31
0
0
LINE
8
DIMENSION
10
1966.375
20
-1271.725773
30
0
11
1995.958278
21
-1335.167318
31
0
0
LINE
8
DIMENSION
10
1966.375
20
-720.665773
30
0
11
1995.958278
21
-657.224227
31
0
0
LINE
8
DIMENSION
10
1966.375
20
-720.665773
30
0
11
1936.791722
21
-657.224227
31
0
0
TEXT
8
DIMENSION
10
2136.375
20
-996.195773
30
0
40
85
1
0.551
50
90
7
STANDARD
72
1
73
2
11
2136.375
21
-996.195773
31
0
0
LINE
8
DIMENSION
10
1326.375
20
-720.665773
30
0
11
1966.375
21
-720.665773
31
0
0
LINE
8
DIMENSION
10
1326.375
20
-271.045773
30
0
11
1966.375
21
-271.045773
31
0
0
LINE
8
DIMENSION
10
1966.375
20
-720.665773
30
0
11
1966.375
21
-271.045773
31
0
0
LINE
8
DIMENSION
10
1966.375
20
-720.665773
30
0
11
1936.791722
21
-784.107318
31
0
0
LINE
8
DIMENSION
10
1966.375
20
-720.665773
30
0
11
1995.958278
21
-784.107318
31
0
0
LINE
8
DIMENSION
10
1966.375
20
-271.045773
30
0
11
1995.958278
21
-207.604227
31
0
0
LINE
8
DIMENSION
10
1966.375
20
-271.045773
30
0
11
1936.791722
21
-207.604227
31
0
0
TEXT
8
DIMENSION
10
2136.375
20
-495.855773
30
0
40
85
1
0.45
50
90
7
STANDARD
72
1
73
2
11
2136.375
21
-495.855773
31
0
0
LINE
8
DIMENSION
10
1326.375
20
-271.045773
30
0
11
1966.375
21
-271.045773
31
0
0
LINE
8
DIMENSION
10
1326.375
20
263.384227
30
0
11
1966.375
21
263.384227
31
0
0
LINE
8
DIMENSION
10
1966.375
20
-271.045773
30
0
11
1966.375
21
263.384227
31
0
0
LINE
8
DIMENSION
10
1966.375
20
-271.045773
30
0
11
1936.791722
21
-334.487318
31
0
0
LINE
8
DIMENSION
10
1966.375
20
-271.045773
30
0
11
1995.958278
21
-334.487318
31
0
0
LINE
8
DIMENSION
10
1966.375
20
263.384227
30
0
11
1995.958278
21
326.825773
31
0
0
LINE
8
DIMENSION
10
1966.375
20
263.384227
30
0
11
1936.791722
21
326.825773
31
0
0
TEXT
8
DIMENSION
10
2136.375
20
-3.830773
30
0
40
85
1
0.534
50
90
7
STANDARD
72
1
73
2
11
2136.375
21
-3.830773
31
0
0
LINE
8
DIMENSION
10
1326.375
20
263.384227
30
0
11
1966.375
21
263.384227
31
0
0
LINE
8
DIMENSION
10
1326.375
20
853.814227
30
0
11
1966.375
21
853.814227
31
0
0
LINE
8
DIMENSION
10
1966.375
20
263.384227
30
0
11
1966.375
21
853.814227
31
0
0
LINE
8
DIMENSION
10
1966.375
20
263.384227
30
0
11
1936.791722
21
199.942682
31
0
0
LINE
8
DIMENSION
10
1966.375
20
263.384227
30
0
11
1995.958278
21
199.942682
31
0
0
LINE
8
DIMENSION
10
1966.375
20
853.814227
30
0
11
1995.958278
21
917.255773
31
0
0
LINE
8
DIMENSION
10
1966.375
20
853.814227
30
0
11
1936.791722
21
917.255773
31
0
0
TEXT
8
DIMENSION
10
2136.375
20
558.599227
30
0
40
85
1
0.59
50
90
7
STANDARD
72
1
73
2
11
2136.375
21
558.599227
31
0
0
LINE
8
DIMENSION
10
1326.375
20
853.814227
30
0
11
1966.375
21
853.814227
31
0
0
LINE
8
DIMENSION
10
1326.375
20
1892.494227
30
0
11
1966.375
21
1892.494227
31
0
0
LINE
8
DIMENSION
10
1966.375
20
853.814227
30
0
11
1966.375
21
1892.494227
31
0
0
LINE
8
DIMENSION
10
1966.375
20
853.814227
30
0
11
1936.791722
21
790.372682
31
0
0
LINE
8
DIMENSION
10
1966.375
20
853.814227
30
0
11
1995.958278
21
790.372682
31
0
0
LINE
8
DIMENSION
10
1966.375
20
1892.494227
30
0
11
1995.958278
21
1955.935773
31
0
0
LINE
8
DIMENSION
10
1966.375
20
1892.494227
30
0
11
1936.791722
21
1955.935773
31
0
0
TEXT
8
DIMENSION
10
2136.375
20
1373.154227
30
0
40
85
1
1.039
50
90
7
STANDARD
72
1
73
2
11
2136.375
21
1373.154227
31
0
0
LINE
8
DIMENSION
10
1326.375
20
1892.494227
30
0
11
1966.375
21
1892.494227
31
0
0
LINE
8
DIMENSION
10
1326.375
20
2428.284227
30
0
11
1966.375
21
2428.284227
31
0
0
LINE
8
DIMENSION
10
1966.375
20
1892.494227
30
0
11
1966.375
21
2428.284227
31
0
0
LINE
8
DIMENSION
10
1966.375
20
1892.494227
30
0
11
1936.791722
21
1829.052682
31
0
0
LINE
8
DIMENSION
10
1966.375
20
1892.494227
30
0
11
1995.958278
21
1829.052682
31
0
0
LINE
8
DIMENSION
10
1966.375
20
2428.284227
30
0
11
1995.958278
21
2491.725773
31
0
0
LINE
8
DIMENSION
10
1966.375
20
2428.284227
30
0
11
1936.791722
21
2491.725773
31
0
0
TEXT
8
DIMENSION
10
2136.375
20
2160.389227
30
0
40
85
1
0.536
50
90
7
STANDARD
72
1
73
2
11
2136.375
21
2160.389227
31
0
0
LINE
8
DIMENSION
10
1326.375
20
-1571.725773
30
0
11
2416.375
21
-1571.725773
31
0
0
LINE
8
DIMENSION
10
1326.375
20
2428.284227
30
0
11
2416.375
21
2428.284227
31
0
0
LINE
8
DIMENSION
10
2416.375
20
-1571.725773
30
0
11
2416.375
21
2428.284227
31
0
0
LINE
8
DIMENSION
10
2416.375
20
-1571.725773
30
0
11
2386.791722
21
-1635.167318
31
0
0
LINE
8
DIMENSION
10
2416.375
20
-1571.725773
30
0
11
2445.958278
21
-1635.167318
31
0
0
LINE
8
DIMENSION
10
2416.375
20
2428.284227
30
0
11
2445.958278
21
2491.725773
31
0
0
LINE
8
DIMENSION
10
2416.375
20
2428.284227
30
0
11
2386.791722
21
2491.725773
31
0
0
TEXT
8
DIMENSION
10
2586.375
20
428.279227
30
0
40
85
1
TOTAL 4
50
90
7
STANDARD
72
1
73
2
11
2586.375
21
428.279227
31
0
0
ENDSEC
0
EOF
