0
SECTION
2
HEADER
9
$ACADVER
1
AC1009
9
$INSUNITS
70
4
9
$MEASUREMENT
70
1
9
$LUNITS
70
2
9
$LUPREC
70
1
9
$TILEMODE
70
1
9
$EXTMIN
10
-7794.228634
20
-6500.005
30
0
9
$EXTMAX
10
7794.228634
20
6500.005
30
0
9
$PEXTMIN
10
-7794.228634
20
-6500.005
30
0
9
$PEXTMAX
10
7794.228634
20
6500.005
30
0
9
$LIMMIN
10
-8294.228634
20
-7000.005
9
$LIMMAX
10
8294.228634
20
7000.005
9
$PLIMMIN
10
-8294.228634
20
-7000.005
9
$PLIMMAX
10
8294.228634
20
7000.005
0
ENDSEC
0
SECTION
2
TABLES
0
TABLE
2
VPORT
70
1
0
VPORT
2
*ACTIVE
70
0
10
0
20
0
11
1
21
1
12
0
22
0
40
14000.01
41
1.184889
42
50
43
0
44
0
50
0
51
0
71
0
72
100
73
1
74
3
75
0
76
0
77
0
78
0
0
ENDTAB
0
TABLE
2
LTYPE
70
2
0
LTYPE
2
CONTINUOUS
70
0
3
Solid line
72
65
73
0
40
0
0
LTYPE
2
DASHED
70
0
3
Dashed
72
65
73
2
40
240
49
120
74
0
49
-120
74
0
0
ENDTAB
0
TABLE
2
LAYER
70
6
0
LAYER
2
PIPES
70
0
62
5
6
CONTINUOUS
0
LAYER
2
PIPE_ENDS
70
0
62
5
6
CONTINUOUS
0
LAYER
2
DIMENSION
70
0
62
1
6
CONTINUOUS
0
LAYER
2
LEVEL_GUIDE
70
0
62
1
6
DASHED
0
LAYER
2
LEVEL_TEXT
70
0
62
1
6
CONTINUOUS
0
LAYER
2
FRAME
70
0
62
5
6
CONTINUOUS
0
ENDTAB
0
TABLE
2
STYLE
70
1
0
STYLE
2
STANDARD
70
0
40
0
41
1
50
0
71
0
42
100
3
txt
4

0
ENDTAB
0
ENDSEC
0
SECTION
2
BLOCKS
0
BLOCK
8
0
2
$MODEL_SPACE
70
0
10
0
20
0
30
0
3
$MODEL_SPACE
0
ENDBLK
8
0
0
BLOCK
67
1
8
0
2
$PAPER_SPACE
70
0
10
0
20
0
30
0
3
$PAPER_SPACE
0
ENDBLK
67
1
8
0
0
ENDSEC
0
SECTION
2
ENTITIES
0
LINE
8
PIPES
10
-2598.076211
20
-6500.005
30
0
11
-2598.076211
21
-6200.004
31
0
0
LINE
8
PIPES
10
-2598.076211
20
-6200.004
30
0
11
-2598.076211
21
-5648.941
31
0
0
LINE
8
PIPES
10
-2598.076211
20
-5648.941
30
0
11
-2598.076211
21
-5199.325
31
0
0
LINE
8
PIPES
10
-2598.076211
20
-5199.325
30
0
11
-2598.076211
21
-4664.895
31
0
0
LINE
8
PIPES
10
-2598.076211
20
-4664.895
30
0
11
-2598.076211
21
-4074.465
31
0
0
LINE
8
PIPES
10
-2598.076211
20
-4074.465
30
0
11
-2598.076211
21
-3193.235
31
0
0
LINE
8
PIPES
10
-4330.127019
20
-5500.005
30
0
11
-4330.127019
21
-5200.004
31
0
0
LINE
8
PIPES
10
-4330.127019
20
-5200.004
30
0
11
-4330.127019
21
-4648.941
31
0
0
LINE
8
PIPES
10
-4330.127019
20
-4648.941
30
0
11
-4330.127019
21
-4199.325
31
0
0
LINE
8
PIPES
10
-4330.127019
20
-4199.325
30
0
11
-4330.127019
21
-3664.895
31
0
0
LINE
8
PIPES
10
-4330.127019
20
-3664.895
30
0
11
-4330.127019
21
-3074.465
31
0
0
LINE
8
PIPES
10
-4330.127019
20
-3074.465
30
0
11
-4330.127019
21
-2062.025
31
0
0
LINE
8
PIPES
10
-6062.177826
20
-4500.005
30
0
11
-6062.177826
21
-4200.004
31
0
0
LINE
8
PIPES
10
-6062.177826
20
-4200.004
30
0
11
-6062.177826
21
-3648.941
31
0
0
LINE
8
PIPES
10
-6062.177826
20
-3648.941
30
0
11
-6062.177826
21
-3199.325
31
0
0
LINE
8
PIPES
10
-6062.177826
20
-3199.325
30
0
11
-6062.177826
21
-2664.895
31
0
0
LINE
8
PIPES
10
-6062.177826
20
-2664.895
30
0
11
-6062.177826
21
-2074.465
31
0
0
LINE
8
PIPES
10
-6062.177826
20
-2074.465
30
0
11
-6062.177826
21
-930.825
31
0
0
LINE
8
PIPES
10
-7794.228634
20
-3500.005
30
0
11
-7794.228634
21
-3200.004
31
0
0
LINE
8
PIPES
10
-7794.228634
20
-3200.004
30
0
11
-7794.228634
21
-2648.941
31
0
0
LINE
8
PIPES
10
-7794.228634
20
-2648.941
30
0
11
-7794.228634
21
-2199.325
31
0
0
LINE
8
PIPES
10
-7794.228634
20
-2199.325
30
0
11
-7794.228634
21
-1664.895
31
0
0
LINE
8
PIPES
10
-7794.228634
20
-1664.895
30
0
11
-7794.228634
21
-1074.465
31
0
0
LINE
8
PIPES
10
-7794.228634
20
-1074.465
30
0
11
-7794.228634
21
200.385
31
0
0
LINE
8
PIPES
10
7794.228634
20
-500.005
30
0
11
7794.228634
21
-200.004
31
0
0
LINE
8
PIPES
10
7794.228634
20
-200.004
30
0
11
7794.228634
21
351.059
31
0
0
LINE
8
PIPES
10
7794.228634
20
351.059
30
0
11
7794.228634
21
800.675
31
0
0
LINE
8
PIPES
10
7794.228634
20
800.675
30
0
11
7794.228634
21
1335.105
31
0
0
LINE
8
PIPES
10
7794.228634
20
1335.105
30
0
11
7794.228634
21
1925.535
31
0
0
LINE
8
PIPES
10
7794.228634
20
1925.535
30
0
11
7794.228634
21
2806.765
31
0
0
LINE
8
PIPES
10
6062.177826
20
499.995
30
0
11
6062.177826
21
799.996
31
0
0
LINE
8
PIPES
10
6062.177826
20
799.996
30
0
11
6062.177826
21
1351.059
31
0
0
LINE
8
PIPES
10
6062.177826
20
1351.059
30
0
11
6062.177826
21
1800.675
31
0
0
LINE
8
PIPES
10
6062.177826
20
1800.675
30
0
11
6062.177826
21
2335.105
31
0
0
LINE
8
PIPES
10
6062.177826
20
2335.105
30
0
11
6062.177826
21
2925.535
31
0
0
LINE
8
PIPES
10
6062.177826
20
2925.535
30
0
11
6062.177826
21
3937.975
31
0
0
LINE
8
PIPES
10
4330.127019
20
1499.995
30
0
11
4330.127019
21
1799.996
31
0
0
LINE
8
PIPES
10
4330.127019
20
1799.996
30
0
11
4330.127019
21
2351.059
31
0
0
LINE
8
PIPES
10
4330.127019
20
2351.059
30
0
11
4330.127019
21
2800.675
31
0
0
LINE
8
PIPES
10
4330.127019
20
2800.675
30
0
11
4330.127019
21
3335.105
31
0
0
LINE
8
PIPES
10
4330.127019
20
3335.105
30
0
11
4330.127019
21
3925.535
31
0
0
LINE
8
PIPES
10
4330.127019
20
3925.535
30
0
11
4330.127019
21
5069.175
31
0
0
LINE
8
PIPES
10
2598.076211
20
2499.995
30
0
11
2598.076211
21
2799.996
31
0
0
LINE
8
PIPES
10
2598.076211
20
2799.996
30
0
11
2598.076211
21
3351.059
31
0
0
LINE
8
PIPES
10
2598.076211
20
3351.059
30
0
11
2598.076211
21
3800.675
31
0
0
LINE
8
PIPES
10
2598.076211
20
3800.675
30
0
11
2598.076211
21
4335.105
31
0
0
LINE
8
PIPES
10
2598.076211
20
4335.105
30
0
11
2598.076211
21
4925.535
31
0
0
LINE
8
PIPES
10
2598.076211
20
4925.535
30
0
11
2598.076211
21
6200.385
31
0
0
LINE
8
PIPES
10
-1443.37856
20
-5833.34
30
0
11
-1443.37856
21
-5533.339
31
0
0
LINE
8
PIPES
10
-1443.37856
20
-5533.339
30
0
11
-1443.37856
21
-4982.276
31
0
0
LINE
8
PIPES
10
-1443.37856
20
-4982.276
30
0
11
-1443.37856
21
-4532.66
31
0
0
LINE
8
PIPES
10
-1443.37856
20
-4532.66
30
0
11
-1443.37856
21
-3998.23
31
0
0
LINE
8
PIPES
10
-1443.37856
20
-3998.23
30
0
11
-1443.37856
21
-3407.8
31
0
0
LINE
8
PIPES
10
-1443.37856
20
-3407.8
30
0
11
-1443.37856
21
-2526.57
31
0
0
LINE
8
PIPES
10
-6639.530982
20
-2833.34
30
0
11
-6639.530982
21
-2533.339
31
0
0
LINE
8
PIPES
10
-6639.530982
20
-2533.339
30
0
11
-6639.530982
21
-1982.276
31
0
0
LINE
8
PIPES
10
-6639.530982
20
-1982.276
30
0
11
-6639.530982
21
-1532.66
31
0
0
LINE
8
PIPES
10
-6639.530982
20
-1532.66
30
0
11
-6639.530982
21
-998.23
31
0
0
LINE
8
PIPES
10
-6639.530982
20
-998.23
30
0
11
-6639.530982
21
-407.8
31
0
0
LINE
8
PIPES
10
-6639.530982
20
-407.8
30
0
11
-6639.530982
21
867.05
31
0
0
LINE
8
PIPES
10
-3175.429367
20
-4833.34
30
0
11
-3175.429367
21
-4533.339
31
0
0
LINE
8
PIPES
10
-3175.429367
20
-4533.339
30
0
11
-3175.429367
21
-3982.276
31
0
0
LINE
8
PIPES
10
-4907.480175
20
-3833.34
30
0
11
-4907.480175
21
-3533.339
31
0
0
LINE
8
PIPES
10
-4907.480175
20
-3533.339
30
0
11
-4907.480175
21
-2982.276
31
0
0
LINE
8
PIPES
10
-288.672248
20
-5166.67
30
0
11
-288.672248
21
-4866.669
31
0
0
LINE
8
PIPES
10
-288.672248
20
-4866.669
30
0
11
-288.672248
21
-4315.606
31
0
0
LINE
8
PIPES
10
-288.672248
20
-4315.606
30
0
11
-288.672248
21
-3865.99
31
0
0
LINE
8
PIPES
10
-288.672248
20
-3865.99
30
0
11
-288.672248
21
-3331.56
31
0
0
LINE
8
PIPES
10
-288.672248
20
-3331.56
30
0
11
-288.672248
21
-2741.13
31
0
0
LINE
8
PIPES
10
-288.672248
20
-2741.13
30
0
11
-288.672248
21
-1859.9
31
0
0
LINE
8
PIPES
10
-5484.824671
20
-2166.67
30
0
11
-5484.824671
21
-1866.669
31
0
0
LINE
8
PIPES
10
-5484.824671
20
-1866.669
30
0
11
-5484.824671
21
-1315.606
31
0
0
LINE
8
PIPES
10
-5484.824671
20
-1315.606
30
0
11
-5484.824671
21
-865.99
31
0
0
LINE
8
PIPES
10
-5484.824671
20
-865.99
30
0
11
-5484.824671
21
-331.56
31
0
0
LINE
8
PIPES
10
-5484.824671
20
-331.56
30
0
11
-5484.824671
21
258.87
31
0
0
LINE
8
PIPES
10
-5484.824671
20
258.87
30
0
11
-5484.824671
21
1533.72
31
0
0
LINE
8
PIPES
10
-2020.723055
20
-4166.67
30
0
11
-2020.723055
21
-3866.669
31
0
0
LINE
8
PIPES
10
-2020.723055
20
-3866.669
30
0
11
-2020.723055
21
-3315.606
31
0
0
LINE
8
PIPES
10
-3752.773863
20
-3166.67
30
0
11
-3752.773863
21
-2866.669
31
0
0
LINE
8
PIPES
10
-3752.773863
20
-2866.669
30
0
11
-3752.773863
21
-2315.606
31
0
0
LINE
8
PIPES
10
866.025404
20
-4500.005
30
0
11
866.025404
21
-4200.004
31
0
0
LINE
8
PIPES
10
866.025404
20
-4200.004
30
0
11
866.025404
21
-3648.941
31
0
0
LINE
8
PIPES
10
866.025404
20
-3648.941
30
0
11
866.025404
21
-3199.325
31
0
0
LINE
8
PIPES
10
866.025404
20
-3199.325
30
0
11
866.025404
21
-2664.895
31
0
0
LINE
8
PIPES
10
866.025404
20
-2664.895
30
0
11
866.025404
21
-2074.465
31
0
0
LINE
8
PIPES
10
866.025404
20
-2074.465
30
0
11
866.025404
21
-1193.235
31
0
0
LINE
8
PIPES
10
-4330.127019
20
-1500.005
30
0
11
-4330.127019
21
-1200.004
31
0
0
LINE
8
PIPES
10
-4330.127019
20
-1200.004
30
0
11
-4330.127019
21
-648.941
31
0
0
LINE
8
PIPES
10
-4330.127019
20
-648.941
30
0
11
-4330.127019
21
-199.325
31
0
0
LINE
8
PIPES
10
-4330.127019
20
-199.325
30
0
11
-4330.127019
21
335.105
31
0
0
LINE
8
PIPES
10
-4330.127019
20
335.105
30
0
11
-4330.127019
21
925.535
31
0
0
LINE
8
PIPES
10
-4330.127019
20
925.535
30
0
11
-4330.127019
21
2200.385
31
0
0
LINE
8
PIPES
10
-866.025404
20
-3500.005
30
0
11
-866.025404
21
-3200.004
31
0
0
LINE
8
PIPES
10
-866.025404
20
-3200.004
30
0
11
-866.025404
21
-2648.941
31
0
0
LINE
8
PIPES
10
-2598.076211
20
-2500.005
30
0
11
-2598.076211
21
-2200.004
31
0
0
LINE
8
PIPES
10
-2598.076211
20
-2200.004
30
0
11
-2598.076211
21
-1648.941
31
0
0
LINE
8
PIPES
10
4330.127019
20
-2500.005
30
0
11
4330.127019
21
-2200.004
31
0
0
LINE
8
PIPES
10
4330.127019
20
-2200.004
30
0
11
4330.127019
21
-1648.941
31
0
0
LINE
8
PIPES
10
4330.127019
20
-1648.941
30
0
11
4330.127019
21
-1199.325
31
0
0
LINE
8
PIPES
10
4330.127019
20
-1199.325
30
0
11
4330.127019
21
-664.895
31
0
0
LINE
8
PIPES
10
4330.127019
20
-664.895
30
0
11
4330.127019
21
-74.465
31
0
0
LINE
8
PIPES
10
4330.127019
20
-74.465
30
0
11
4330.127019
21
806.765
31
0
0
LINE
8
PIPES
10
-866.025404
20
499.995
30
0
11
-866.025404
21
799.996
31
0
0
LINE
8
PIPES
10
-866.025404
20
799.996
30
0
11
-866.025404
21
1351.059
31
0
0
LINE
8
PIPES
10
-866.025404
20
1351.059
30
0
11
-866.025404
21
1800.675
31
0
0
LINE
8
PIPES
10
-866.025404
20
1800.675
30
0
11
-866.025404
21
2335.105
31
0
0
LINE
8
PIPES
10
-866.025404
20
2335.105
30
0
11
-866.025404
21
2925.535
31
0
0
LINE
8
PIPES
10
-866.025404
20
2925.535
30
0
11
-866.025404
21
4200.385
31
0
0
LINE
8
PIPES
10
2598.076211
20
-1500.005
30
0
11
2598.076211
21
-1200.004
31
0
0
LINE
8
PIPES
10
2598.076211
20
-1200.004
30
0
11
2598.076211
21
-648.941
31
0
0
LINE
8
PIPES
10
866.025404
20
-500.005
30
0
11
866.025404
21
-200.004
31
0
0
LINE
8
PIPES
10
866.025404
20
-200.004
30
0
11
866.025404
21
351.059
31
0
0
LINE
8
PIPES
10
5484.824671
20
-1833.34
30
0
11
5484.824671
21
-1533.339
31
0
0
LINE
8
PIPES
10
5484.824671
20
-1533.339
30
0
11
5484.824671
21
-982.276
31
0
0
LINE
8
PIPES
10
5484.824671
20
-982.276
30
0
11
5484.824671
21
-532.66
31
0
0
LINE
8
PIPES
10
5484.824671
20
-532.66
30
0
11
5484.824671
21
1.77
31
0
0
LINE
8
PIPES
10
5484.824671
20
1.77
30
0
11
5484.824671
21
592.2
31
0
0
LINE
8
PIPES
10
5484.824671
20
592.2
30
0
11
5484.824671
21
1473.43
31
0
0
LINE
8
PIPES
10
288.672248
20
1166.66
30
0
11
288.672248
21
1466.661
31
0
0
LINE
8
PIPES
10
288.672248
20
1466.661
30
0
11
288.672248
21
2017.724
31
0
0
LINE
8
PIPES
10
288.672248
20
2017.724
30
0
11
288.672248
21
2467.34
31
0
0
LINE
8
PIPES
10
288.672248
20
2467.34
30
0
11
288.672248
21
3001.77
31
0
0
LINE
8
PIPES
10
288.672248
20
3001.77
30
0
11
288.672248
21
3592.2
31
0
0
LINE
8
PIPES
10
288.672248
20
3592.2
30
0
11
288.672248
21
4867.05
31
0
0
LINE
8
PIPES
10
3752.773863
20
-833.34
30
0
11
3752.773863
21
-533.339
31
0
0
LINE
8
PIPES
10
3752.773863
20
-533.339
30
0
11
3752.773863
21
17.724
31
0
0
LINE
8
PIPES
10
2020.723055
20
166.66
30
0
11
2020.723055
21
466.661
31
0
0
LINE
8
PIPES
10
2020.723055
20
466.661
30
0
11
2020.723055
21
1017.724
31
0
0
LINE
8
PIPES
10
6639.556963
20
-1166.655
30
0
11
6639.556963
21
-866.654
31
0
0
LINE
8
PIPES
10
6639.556963
20
-866.654
30
0
11
6639.556963
21
-315.591
31
0
0
LINE
8
PIPES
10
6639.556963
20
-315.591
30
0
11
6639.556963
21
134.025
31
0
0
LINE
8
PIPES
10
6639.556963
20
134.025
30
0
11
6639.556963
21
668.455
31
0
0
LINE
8
PIPES
10
6639.556963
20
668.455
30
0
11
6639.556963
21
1258.885
31
0
0
LINE
8
PIPES
10
6639.556963
20
1258.885
30
0
11
6639.556963
21
2140.115
31
0
0
LINE
8
PIPES
10
1443.40454
20
1833.345
30
0
11
1443.40454
21
2133.346
31
0
0
LINE
8
PIPES
10
1443.40454
20
2133.346
30
0
11
1443.40454
21
2684.409
31
0
0
LINE
8
PIPES
10
1443.40454
20
2684.409
30
0
11
1443.40454
21
3134.025
31
0
0
LINE
8
PIPES
10
1443.40454
20
3134.025
30
0
11
1443.40454
21
3668.455
31
0
0
LINE
8
PIPES
10
1443.40454
20
3668.455
30
0
11
1443.40454
21
4258.885
31
0
0
LINE
8
PIPES
10
1443.40454
20
4258.885
30
0
11
1443.40454
21
5533.735
31
0
0
LINE
8
PIPES
10
4907.506156
20
-166.655
30
0
11
4907.506156
21
133.346
31
0
0
LINE
8
PIPES
10
4907.506156
20
133.346
30
0
11
4907.506156
21
684.409
31
0
0
LINE
8
PIPES
10
3175.455348
20
833.345
30
0
11
3175.455348
21
1133.346
31
0
0
LINE
8
PIPES
10
3175.455348
20
1133.346
30
0
11
3175.455348
21
1684.409
31
0
0
LINE
8
PIPES
10
2020.723055
20
-3833.34
30
0
11
2020.723055
21
-3533.339
31
0
0
LINE
8
PIPES
10
2020.723055
20
-3533.339
30
0
11
2020.723055
21
-2982.276
31
0
0
LINE
8
PIPES
10
2020.723055
20
-2982.276
30
0
11
2020.723055
21
-2532.66
31
0
0
LINE
8
PIPES
10
2020.723055
20
-2532.66
30
0
11
2020.723055
21
-1998.23
31
0
0
LINE
8
PIPES
10
2020.723055
20
-1998.23
30
0
11
2020.723055
21
-1407.8
31
0
0
LINE
8
PIPES
10
2020.723055
20
-1407.8
30
0
11
2020.723055
21
-526.57
31
0
0
LINE
8
PIPES
10
-3175.429367
20
-833.34
30
0
11
-3175.429367
21
-533.339
31
0
0
LINE
8
PIPES
10
-3175.429367
20
-533.339
30
0
11
-3175.429367
21
17.724
31
0
0
LINE
8
PIPES
10
-3175.429367
20
17.724
30
0
11
-3175.429367
21
467.34
31
0
0
LINE
8
PIPES
10
-3175.429367
20
467.34
30
0
11
-3175.429367
21
1001.77
31
0
0
LINE
8
PIPES
10
-3175.429367
20
1001.77
30
0
11
-3175.429367
21
1592.2
31
0
0
LINE
8
PIPES
10
-3175.429367
20
1592.2
30
0
11
-3175.429367
21
2017.82
31
0
0
LINE
8
PIPES
10
288.672248
20
-2833.34
30
0
11
288.672248
21
-2533.339
31
0
0
LINE
8
PIPES
10
288.672248
20
-2533.339
30
0
11
288.672248
21
-1982.276
31
0
0
LINE
8
PIPES
10
-1443.37856
20
-1833.34
30
0
11
-1443.37856
21
-1533.339
31
0
0
LINE
8
PIPES
10
-1443.37856
20
-1533.339
30
0
11
-1443.37856
21
-982.276
31
0
0
LINE
8
PIPES
10
3175.429367
20
-3166.67
30
0
11
3175.429367
21
-2866.669
31
0
0
LINE
8
PIPES
10
3175.429367
20
-2866.669
30
0
11
3175.429367
21
-2315.606
31
0
0
LINE
8
PIPES
10
3175.429367
20
-2315.606
30
0
11
3175.429367
21
-1865.99
31
0
0
LINE
8
PIPES
10
3175.429367
20
-1865.99
30
0
11
3175.429367
21
-1331.56
31
0
0
LINE
8
PIPES
10
3175.429367
20
-1331.56
30
0
11
3175.429367
21
-741.13
31
0
0
LINE
8
PIPES
10
3175.429367
20
-741.13
30
0
11
3175.429367
21
140.1
31
0
0
LINE
8
PIPES
10
-2020.723055
20
-166.67
30
0
11
-2020.723055
21
133.331
31
0
0
LINE
8
PIPES
10
-2020.723055
20
133.331
30
0
11
-2020.723055
21
684.394
31
0
0
LINE
8
PIPES
10
-2020.723055
20
684.394
30
0
11
-2020.723055
21
1134.01
31
0
0
LINE
8
PIPES
10
-2020.723055
20
1134.01
30
0
11
-2020.723055
21
1668.44
31
0
0
LINE
8
PIPES
10
-2020.723055
20
1668.44
30
0
11
-2020.723055
21
2258.87
31
0
0
LINE
8
PIPES
10
-2020.723055
20
2258.87
30
0
11
-2020.723055
21
2684.49
31
0
0
LINE
8
PIPES
10
1443.37856
20
-2166.67
30
0
11
1443.37856
21
-1866.669
31
0
0
LINE
8
PIPES
10
1443.37856
20
-1866.669
30
0
11
1443.37856
21
-1315.606
31
0
0
LINE
8
PIPES
10
-288.672248
20
-1166.67
30
0
11
-288.672248
21
-866.669
31
0
0
LINE
8
PIPES
10
-288.672248
20
-866.669
30
0
11
-288.672248
21
-315.606
31
0
0
LINE
8
PIPES
10
-2165.062643
20
-5398.9405
30
0
11
-2165.062643
21
-4949.3245
31
0
0
LINE
8
PIPES
10
7361.215932
20
101.059
30
0
11
7361.215932
21
550.675
31
0
0
LINE
8
PIPES
10
-3897.113451
20
-4398.9405
30
0
11
-3897.113451
21
-3949.3245
31
0
0
LINE
8
PIPES
10
5629.165125
20
1101.059
30
0
11
5629.165125
21
1550.675
31
0
0
LINE
8
PIPES
10
-5629.164259
20
-3398.9405
30
0
11
-5629.164259
21
-2949.3245
31
0
0
LINE
8
PIPES
10
3897.114317
20
2101.059
30
0
11
3897.114317
21
2550.675
31
0
0
LINE
8
PIPES
10
-7361.215066
20
-2398.9405
30
0
11
-7361.215066
21
-1949.3245
31
0
0
LINE
8
PIPES
10
2165.063509
20
3101.059
30
0
11
2165.063509
21
3550.675
31
0
0
LINE
8
PIPES
10
-1876.392128
20
-4732.2755
30
0
11
-1876.392128
21
-4282.6595
31
0
0
LINE
8
PIPES
10
-6206.518281
20
-2232.276
30
0
11
-6206.518281
21
-1782.66
31
0
0
LINE
8
PIPES
10
-721.685816
20
-4065.6055
30
0
11
-721.685816
21
-3615.9895
31
0
0
LINE
8
PIPES
10
-5051.811969
20
-1565.606
30
0
11
-5051.811969
21
-1115.99
31
0
0
LINE
8
PIPES
10
433.011836
20
-3398.9405
30
0
11
433.011836
21
-2949.3245
31
0
0
LINE
8
PIPES
10
-3897.114317
20
-898.941
30
0
11
-3897.114317
21
-449.325
31
0
0
LINE
8
PIPES
10
3897.113451
20
-1398.9405
30
0
11
3897.113451
21
-949.3245
31
0
0
LINE
8
PIPES
10
-433.012702
20
1101.059
30
0
11
-433.012702
21
1550.675
31
0
0
LINE
8
PIPES
10
5051.811103
20
-732.2755
30
0
11
5051.811103
21
-282.6595
31
0
0
LINE
8
PIPES
10
721.68495
20
1767.724
30
0
11
721.68495
21
2217.34
31
0
0
LINE
8
PIPES
10
6206.543395
20
-65.5905
30
0
11
6206.543395
21
384.0255
31
0
0
LINE
8
PIPES
10
1876.417242
20
2434.409
30
0
11
1876.417242
21
2884.025
31
0
0
LINE
8
PIPES
10
1587.709487
20
-2732.2755
30
0
11
1587.709487
21
-2282.6595
31
0
0
LINE
8
PIPES
10
-2742.416665
20
-232.276
30
0
11
-2742.416665
21
217.34
31
0
0
LINE
8
PIPES
10
2742.415799
20
-2065.6055
30
0
11
2742.415799
21
-1615.9895
31
0
0
LINE
8
PIPES
10
-1587.710354
20
434.394
30
0
11
-1587.710354
21
884.01
31
0
0
LINE
8
PIPES
10
-2598.076211
20
-5148.94
30
0
11
-2598.076211
21
-4699.324
31
0
0
LINE
8
PIPES
10
6928.202364
20
351.0595
30
0
11
6928.202364
21
800.6755
31
0
0
LINE
8
PIPES
10
-6928.202364
20
-2648.9405
30
0
11
-6928.202364
21
-2199.3245
31
0
0
LINE
8
PIPES
10
2598.076211
20
2851.059
30
0
11
2598.076211
21
3300.675
31
0
0
LINE
8
PIPES
10
-2598.076211
20
-6200.004
30
0
11
-1443.37856
21
-5533.339
31
0
0
LINE
8
PIPES
10
-1443.37856
20
-5533.339
30
0
11
-288.672248
21
-4866.669
31
0
0
LINE
8
PIPES
10
-288.672248
20
-4866.669
30
0
11
866.025404
21
-4200.004
31
0
0
LINE
8
PIPES
10
866.025404
20
-4200.004
30
0
11
2020.723055
21
-3533.339
31
0
0
LINE
8
PIPES
10
2020.723055
20
-3533.339
30
0
11
3175.429367
21
-2866.669
31
0
0
LINE
8
PIPES
10
3175.429367
20
-2866.669
30
0
11
4330.127019
21
-2200.004
31
0
0
LINE
8
PIPES
10
4330.127019
20
-2200.004
30
0
11
5484.824671
21
-1533.339
31
0
0
LINE
8
PIPES
10
5484.824671
20
-1533.339
30
0
11
6639.556963
21
-866.654
31
0
0
LINE
8
PIPES
10
6639.556963
20
-866.654
30
0
11
7794.228634
21
-200.004
31
0
0
LINE
8
PIPES
10
-4330.127019
20
-5200.004
30
0
11
-3175.429367
21
-4533.339
31
0
0
LINE
8
PIPES
10
-3175.429367
20
-4533.339
30
0
11
-2020.723055
21
-3866.669
31
0
0
LINE
8
PIPES
10
-2020.723055
20
-3866.669
30
0
11
-866.025404
21
-3200.004
31
0
0
LINE
8
PIPES
10
-866.025404
20
-3200.004
30
0
11
288.672248
21
-2533.339
31
0
0
LINE
8
PIPES
10
288.672248
20
-2533.339
30
0
11
1443.37856
21
-1866.669
31
0
0
LINE
8
PIPES
10
1443.37856
20
-1866.669
30
0
11
2598.076211
21
-1200.004
31
0
0
LINE
8
PIPES
10
2598.076211
20
-1200.004
30
0
11
3752.773863
21
-533.339
31
0
0
LINE
8
PIPES
10
3752.773863
20
-533.339
30
0
11
4907.506156
21
133.346
31
0
0
LINE
8
PIPES
10
4907.506156
20
133.346
30
0
11
6062.177826
21
799.996
31
0
0
LINE
8
PIPES
10
-6062.177826
20
-4200.004
30
0
11
-4907.480175
21
-3533.339
31
0
0
LINE
8
PIPES
10
-4907.480175
20
-3533.339
30
0
11
-3752.773863
21
-2866.669
31
0
0
LINE
8
PIPES
10
-3752.773863
20
-2866.669
30
0
11
-2598.076211
21
-2200.004
31
0
0
LINE
8
PIPES
10
-2598.076211
20
-2200.004
30
0
11
-1443.37856
21
-1533.339
31
0
0
LINE
8
PIPES
10
-1443.37856
20
-1533.339
30
0
11
-288.672248
21
-866.669
31
0
0
LINE
8
PIPES
10
-288.672248
20
-866.669
30
0
11
866.025404
21
-200.004
31
0
0
LINE
8
PIPES
10
866.025404
20
-200.004
30
0
11
2020.723055
21
466.661
31
0
0
LINE
8
PIPES
10
2020.723055
20
466.661
30
0
11
3175.455348
21
1133.346
31
0
0
LINE
8
PIPES
10
3175.455348
20
1133.346
30
0
11
4330.127019
21
1799.996
31
0
0
LINE
8
PIPES
10
-7794.228634
20
-3200.004
30
0
11
-6639.530982
21
-2533.339
31
0
0
LINE
8
PIPES
10
-6639.530982
20
-2533.339
30
0
11
-5484.824671
21
-1866.669
31
0
0
LINE
8
PIPES
10
-5484.824671
20
-1866.669
30
0
11
-4330.127019
21
-1200.004
31
0
0
LINE
8
PIPES
10
-4330.127019
20
-1200.004
30
0
11
-3175.429367
21
-533.339
31
0
0
LINE
8
PIPES
10
-3175.429367
20
-533.339
30
0
11
-2020.723055
21
133.331
31
0
0
LINE
8
PIPES
10
-2020.723055
20
133.331
30
0
11
-866.025404
21
799.996
31
0
0
LINE
8
PIPES
10
-866.025404
20
799.996
30
0
11
288.672248
21
1466.661
31
0
0
LINE
8
PIPES
10
288.672248
20
1466.661
30
0
11
1443.40454
21
2133.346
31
0
0
LINE
8
PIPES
10
1443.40454
20
2133.346
30
0
11
2598.076211
21
2799.996
31
0
0
LINE
8
PIPES
10
-2598.076211
20
-6200.004
30
0
11
-4330.127019
21
-5200.004
31
0
0
LINE
8
PIPES
10
-4330.127019
20
-5200.004
30
0
11
-6062.177826
21
-4200.004
31
0
0
LINE
8
PIPES
10
-6062.177826
20
-4200.004
30
0
11
-7794.228634
21
-3200.004
31
0
0
LINE
8
PIPES
10
-1443.37856
20
-5533.339
30
0
11
-3175.429367
21
-4533.339
31
0
0
LINE
8
PIPES
10
-3175.429367
20
-4533.339
30
0
11
-4907.480175
21
-3533.339
31
0
0
LINE
8
PIPES
10
-4907.480175
20
-3533.339
30
0
11
-6639.530982
21
-2533.339
31
0
0
LINE
8
PIPES
10
-288.672248
20
-4866.669
30
0
11
-2020.723055
21
-3866.669
31
0
0
LINE
8
PIPES
10
-2020.723055
20
-3866.669
30
0
11
-3752.773863
21
-2866.669
31
0
0
LINE
8
PIPES
10
-3752.773863
20
-2866.669
30
0
11
-5484.824671
21
-1866.669
31
0
0
LINE
8
PIPES
10
866.025404
20
-4200.004
30
0
11
-866.025404
21
-3200.004
31
0
0
LINE
8
PIPES
10
-866.025404
20
-3200.004
30
0
11
-2598.076211
21
-2200.004
31
0
0
LINE
8
PIPES
10
-2598.076211
20
-2200.004
30
0
11
-4330.127019
21
-1200.004
31
0
0
LINE
8
PIPES
10
2020.723055
20
-3533.339
30
0
11
288.672248
21
-2533.339
31
0
0
LINE
8
PIPES
10
288.672248
20
-2533.339
30
0
11
-1443.37856
21
-1533.339
31
0
0
LINE
8
PIPES
10
-1443.37856
20
-1533.339
30
0
11
-3175.429367
21
-533.339
31
0
0
LINE
8
PIPES
10
3175.429367
20
-2866.669
30
0
11
1443.37856
21
-1866.669
31
0
0
LINE
8
PIPES
10
1443.37856
20
-1866.669
30
0
11
-288.672248
21
-866.669
31
0
0
LINE
8
PIPES
10
-288.672248
20
-866.669
30
0
11
-2020.723055
21
133.331
31
0
0
LINE
8
PIPES
10
4330.127019
20
-2200.004
30
0
11
2598.076211
21
-1200.004
31
0
0
LINE
8
PIPES
10
2598.076211
20
-1200.004
30
0
11
866.025404
21
-200.004
31
0
0
LINE
8
PIPES
10
866.025404
20
-200.004
30
0
11
-866.025404
21
799.996
31
0
0
LINE
8
PIPES
10
5484.824671
20
-1533.339
30
0
11
3752.773863
21
-533.339
31
0
0
LINE
8
PIPES
10
3752.773863
20
-533.339
30
0
11
2020.723055
21
466.661
31
0
0
LINE
8
PIPES
10
2020.723055
20
466.661
30
0
11
288.672248
21
1466.661
31
0
0
LINE
8
PIPES
10
6639.556963
20
-866.654
30
0
11
4907.506156
21
133.346
31
0
0
LINE
8
PIPES
10
4907.506156
20
133.346
30
0
11
3175.455348
21
1133.346
31
0
0
LINE
8
PIPES
10
3175.455348
20
1133.346
30
0
11
1443.40454
21
2133.346
31
0
0
LINE
8
PIPES
10
7794.228634
20
-200.004
30
0
11
6062.177826
21
799.996
31
0
0
LINE
8
PIPES
10
6062.177826
20
799.996
30
0
11
4330.127019
21
1799.996
31
0
0
LINE
8
PIPES
10
4330.127019
20
1799.996
30
0
11
2598.076211
21
2799.996
31
0
0
LINE
8
PIPES
10
-2598.076211
20
-5648.941
30
0
11
-2165.062643
21
-5398.9405
31
0
0
LINE
8
PIPES
10
-1443.37856
20
-4982.276
30
0
11
-288.672248
21
-4315.606
31
0
0
LINE
8
PIPES
10
-288.672248
20
-4315.606
30
0
11
866.025404
21
-3648.941
31
0
0
LINE
8
PIPES
10
866.025404
20
-3648.941
30
0
11
2020.723055
21
-2982.276
31
0
0
LINE
8
PIPES
10
2020.723055
20
-2982.276
30
0
11
3175.429367
21
-2315.606
31
0
0
LINE
8
PIPES
10
3175.429367
20
-2315.606
30
0
11
4330.127019
21
-1648.941
31
0
0
LINE
8
PIPES
10
4330.127019
20
-1648.941
30
0
11
5484.824671
21
-982.276
31
0
0
LINE
8
PIPES
10
5484.824671
20
-982.276
30
0
11
6639.556963
21
-315.591
31
0
0
LINE
8
PIPES
10
6639.556963
20
-315.591
30
0
11
7361.215932
21
101.059
31
0
0
LINE
8
PIPES
10
-7794.228634
20
-2648.941
30
0
11
-7361.215066
21
-2398.9405
31
0
0
LINE
8
PIPES
10
-6639.530982
20
-1982.276
30
0
11
-5484.824671
21
-1315.606
31
0
0
LINE
8
PIPES
10
-5484.824671
20
-1315.606
30
0
11
-4330.127019
21
-648.941
31
0
0
LINE
8
PIPES
10
-4330.127019
20
-648.941
30
0
11
-3175.429367
21
17.724
31
0
0
LINE
8
PIPES
10
-3175.429367
20
17.724
30
0
11
-2020.723055
21
684.394
31
0
0
LINE
8
PIPES
10
-2020.723055
20
684.394
30
0
11
-866.025404
21
1351.059
31
0
0
LINE
8
PIPES
10
-866.025404
20
1351.059
30
0
11
288.672248
21
2017.724
31
0
0
LINE
8
PIPES
10
288.672248
20
2017.724
30
0
11
1443.40454
21
2684.409
31
0
0
LINE
8
PIPES
10
1443.40454
20
2684.409
30
0
11
2165.063509
21
3101.059
31
0
0
LINE
8
PIPES
10
-2598.076211
20
-5648.941
30
0
11
-3031.089779
21
-5398.9405
31
0
0
LINE
8
PIPES
10
-4330.127019
20
-4648.941
30
0
11
-6062.177826
21
-3648.941
31
0
0
LINE
8
PIPES
10
-6062.177826
20
-3648.941
30
0
11
-7361.215932
21
-2898.941
31
0
0
LINE
8
PIPES
10
7794.228634
20
351.059
30
0
11
7361.215066
21
601.0595
31
0
0
LINE
8
PIPES
10
6062.177826
20
1351.059
30
0
11
4330.127019
21
2351.059
31
0
0
LINE
8
PIPES
10
4330.127019
20
2351.059
30
0
11
3031.088913
21
3101.059
31
0
0
LINE
8
PIPES
10
-4330.127019
20
-4648.941
30
0
11
-3897.113451
21
-4398.9405
31
0
0
LINE
8
PIPES
10
-3897.113451
20
-4398.9405
30
0
11
-3175.429367
21
-3982.276
31
0
0
LINE
8
PIPES
10
-3175.429367
20
-3982.276
30
0
11
-2020.723055
21
-3315.606
31
0
0
LINE
8
PIPES
10
-2020.723055
20
-3315.606
30
0
11
-866.025404
21
-2648.941
31
0
0
LINE
8
PIPES
10
-866.025404
20
-2648.941
30
0
11
288.672248
21
-1982.276
31
0
0
LINE
8
PIPES
10
288.672248
20
-1982.276
30
0
11
1443.37856
21
-1315.606
31
0
0
LINE
8
PIPES
10
1443.37856
20
-1315.606
30
0
11
2598.076211
21
-648.941
31
0
0
LINE
8
PIPES
10
2598.076211
20
-648.941
30
0
11
3752.773863
21
17.724
31
0
0
LINE
8
PIPES
10
3752.773863
20
17.724
30
0
11
4907.506156
21
684.409
31
0
0
LINE
8
PIPES
10
4907.506156
20
684.409
30
0
11
5629.165125
21
1101.059
31
0
0
LINE
8
PIPES
10
5629.165125
20
1101.059
30
0
11
6062.177826
21
1351.059
31
0
0
LINE
8
PIPES
10
-6062.177826
20
-3648.941
30
0
11
-5629.164259
21
-3398.9405
31
0
0
LINE
8
PIPES
10
-5629.164259
20
-3398.9405
30
0
11
-4907.480175
21
-2982.276
31
0
0
LINE
8
PIPES
10
-4907.480175
20
-2982.276
30
0
11
-3752.773863
21
-2315.606
31
0
0
LINE
8
PIPES
10
-3752.773863
20
-2315.606
30
0
11
-2598.076211
21
-1648.941
31
0
0
LINE
8
PIPES
10
-2598.076211
20
-1648.941
30
0
11
-1443.37856
21
-982.276
31
0
0
LINE
8
PIPES
10
-1443.37856
20
-982.276
30
0
11
-288.672248
21
-315.606
31
0
0
LINE
8
PIPES
10
-288.672248
20
-315.606
30
0
11
866.025404
21
351.059
31
0
0
LINE
8
PIPES
10
866.025404
20
351.059
30
0
11
2020.723055
21
1017.724
31
0
0
LINE
8
PIPES
10
2020.723055
20
1017.724
30
0
11
3175.455348
21
1684.409
31
0
0
LINE
8
PIPES
10
3175.455348
20
1684.409
30
0
11
3897.114317
21
2101.059
31
0
0
LINE
8
PIPES
10
3897.114317
20
2101.059
30
0
11
4330.127019
21
2351.059
31
0
0
LINE
8
PIPES
10
-1443.37856
20
-4982.276
30
0
11
-1876.392128
21
-4732.2755
31
0
0
LINE
8
PIPES
10
-6639.530982
20
-1982.276
30
0
11
-6206.518281
21
-2232.276
31
0
0
LINE
8
PIPES
10
-1876.392128
20
-4732.2755
30
0
11
-3175.429367
21
-3982.276
31
0
0
LINE
8
PIPES
10
-6206.518281
20
-2232.276
30
0
11
-4907.480175
21
-2982.276
31
0
0
LINE
8
PIPES
10
-288.672248
20
-4315.606
30
0
11
-721.685816
21
-4065.6055
31
0
0
LINE
8
PIPES
10
-5484.824671
20
-1315.606
30
0
11
-5051.811969
21
-1565.606
31
0
0
LINE
8
PIPES
10
-721.685816
20
-4065.6055
30
0
11
-2020.723055
21
-3315.606
31
0
0
LINE
8
PIPES
10
-5051.811969
20
-1565.606
30
0
11
-3752.773863
21
-2315.606
31
0
0
LINE
8
PIPES
10
866.025404
20
-3648.941
30
0
11
433.011836
21
-3398.9405
31
0
0
LINE
8
PIPES
10
-4330.127019
20
-648.941
30
0
11
-3897.114317
21
-898.941
31
0
0
LINE
8
PIPES
10
433.011836
20
-3398.9405
30
0
11
-866.025404
21
-2648.941
31
0
0
LINE
8
PIPES
10
-3897.114317
20
-898.941
30
0
11
-2598.076211
21
-1648.941
31
0
0
LINE
8
PIPES
10
4330.127019
20
-1648.941
30
0
11
3897.113451
21
-1398.9405
31
0
0
LINE
8
PIPES
10
-866.025404
20
1351.059
30
0
11
-433.012702
21
1101.059
31
0
0
LINE
8
PIPES
10
3897.113451
20
-1398.9405
30
0
11
2598.076211
21
-648.941
31
0
0
LINE
8
PIPES
10
-433.012702
20
1101.059
30
0
11
866.025404
21
351.059
31
0
0
LINE
8
PIPES
10
5484.824671
20
-982.276
30
0
11
5051.811103
21
-732.2755
31
0
0
LINE
8
PIPES
10
288.672248
20
2017.724
30
0
11
721.68495
21
1767.724
31
0
0
LINE
8
PIPES
10
5051.811103
20
-732.2755
30
0
11
3752.773863
21
17.724
31
0
0
LINE
8
PIPES
10
721.68495
20
1767.724
30
0
11
2020.723055
21
1017.724
31
0
0
LINE
8
PIPES
10
6639.556963
20
-315.591
30
0
11
6206.543395
21
-65.5905
31
0
0
LINE
8
PIPES
10
1443.40454
20
2684.409
30
0
11
1876.417242
21
2434.409
31
0
0
LINE
8
PIPES
10
6206.543395
20
-65.5905
30
0
11
4907.506156
21
684.409
31
0
0
LINE
8
PIPES
10
1876.417242
20
2434.409
30
0
11
3175.455348
21
1684.409
31
0
0
LINE
8
PIPES
10
2020.723055
20
-2982.276
30
0
11
1587.709487
21
-2732.2755
31
0
0
LINE
8
PIPES
10
-3175.429367
20
17.724
30
0
11
-2742.416665
21
-232.276
31
0
0
LINE
8
PIPES
10
1587.709487
20
-2732.2755
30
0
11
288.672248
21
-1982.276
31
0
0
LINE
8
PIPES
10
-2742.416665
20
-232.276
30
0
11
-1443.37856
21
-982.276
31
0
0
LINE
8
PIPES
10
3175.429367
20
-2315.606
30
0
11
2742.415799
21
-2065.6055
31
0
0
LINE
8
PIPES
10
-2020.723055
20
684.394
30
0
11
-1587.710354
21
434.394
31
0
0
LINE
8
PIPES
10
2742.415799
20
-2065.6055
30
0
11
1443.37856
21
-1315.606
31
0
0
LINE
8
PIPES
10
-1587.710354
20
434.394
30
0
11
-288.672248
21
-315.606
31
0
0
LINE
8
PIPES
10
-2165.062643
20
-5398.9405
30
0
11
-2598.076211
21
-5148.94
31
0
0
LINE
8
PIPES
10
-2598.076211
20
-5148.94
30
0
11
-3897.113451
21
-4398.9405
31
0
0
LINE
8
PIPES
10
-3897.113451
20
-4398.9405
30
0
11
-5629.164259
21
-3398.9405
31
0
0
LINE
8
PIPES
10
-5629.164259
20
-3398.9405
30
0
11
-6928.202364
21
-2648.9405
31
0
0
LINE
8
PIPES
10
-6928.202364
20
-2648.9405
30
0
11
-7361.215066
21
-2398.9405
31
0
0
LINE
8
PIPES
10
7361.215932
20
101.059
30
0
11
6928.202364
21
351.0595
31
0
0
LINE
8
PIPES
10
6928.202364
20
351.0595
30
0
11
5629.165125
21
1101.059
31
0
0
LINE
8
PIPES
10
5629.165125
20
1101.059
30
0
11
3897.114317
21
2101.059
31
0
0
LINE
8
PIPES
10
3897.114317
20
2101.059
30
0
11
2598.076211
21
2851.059
31
0
0
LINE
8
PIPES
10
2598.076211
20
2851.059
30
0
11
2165.063509
21
3101.059
31
0
0
LINE
8
PIPES
10
-2598.076211
20
-5148.94
30
0
11
-1876.392128
21
-4732.2755
31
0
0
LINE
8
PIPES
10
-1876.392128
20
-4732.2755
30
0
11
-721.685816
21
-4065.6055
31
0
0
LINE
8
PIPES
10
-721.685816
20
-4065.6055
30
0
11
433.011836
21
-3398.9405
31
0
0
LINE
8
PIPES
10
433.011836
20
-3398.9405
30
0
11
1587.709487
21
-2732.2755
31
0
0
LINE
8
PIPES
10
1587.709487
20
-2732.2755
30
0
11
2742.415799
21
-2065.6055
31
0
0
LINE
8
PIPES
10
2742.415799
20
-2065.6055
30
0
11
3897.113451
21
-1398.9405
31
0
0
LINE
8
PIPES
10
3897.113451
20
-1398.9405
30
0
11
5051.811103
21
-732.2755
31
0
0
LINE
8
PIPES
10
5051.811103
20
-732.2755
30
0
11
6206.543395
21
-65.5905
31
0
0
LINE
8
PIPES
10
6206.543395
20
-65.5905
30
0
11
6928.202364
21
351.0595
31
0
0
LINE
8
PIPES
10
-6928.202364
20
-2648.9405
30
0
11
-6206.518281
21
-2232.276
31
0
0
LINE
8
PIPES
10
-6206.518281
20
-2232.276
30
0
11
-5051.811969
21
-1565.606
31
0
0
LINE
8
PIPES
10
-5051.811969
20
-1565.606
30
0
11
-3897.114317
21
-898.941
31
0
0
LINE
8
PIPES
10
-3897.114317
20
-898.941
30
0
11
-2742.416665
21
-232.276
31
0
0
LINE
8
PIPES
10
-2742.416665
20
-232.276
30
0
11
-1587.710354
21
434.394
31
0
0
LINE
8
PIPES
10
-1587.710354
20
434.394
30
0
11
-433.012702
21
1101.059
31
0
0
LINE
8
PIPES
10
-433.012702
20
1101.059
30
0
11
721.68495
21
1767.724
31
0
0
LINE
8
PIPES
10
721.68495
20
1767.724
30
0
11
1876.417242
21
2434.409
31
0
0
LINE
8
PIPES
10
1876.417242
20
2434.409
30
0
11
2598.076211
21
2851.059
31
0
0
LINE
8
PIPES
10
-2598.076211
20
-5199.325
30
0
11
-2165.062643
21
-4949.3245
31
0
0
LINE
8
PIPES
10
-2165.062643
20
-4949.3245
30
0
11
-1443.37856
21
-4532.66
31
0
0
LINE
8
PIPES
10
-1443.37856
20
-4532.66
30
0
11
-288.672248
21
-3865.99
31
0
0
LINE
8
PIPES
10
-288.672248
20
-3865.99
30
0
11
866.025404
21
-3199.325
31
0
0
LINE
8
PIPES
10
866.025404
20
-3199.325
30
0
11
2020.723055
21
-2532.66
31
0
0
LINE
8
PIPES
10
2020.723055
20
-2532.66
30
0
11
3175.429367
21
-1865.99
31
0
0
LINE
8
PIPES
10
3175.429367
20
-1865.99
30
0
11
4330.127019
21
-1199.325
31
0
0
LINE
8
PIPES
10
4330.127019
20
-1199.325
30
0
11
5484.824671
21
-532.66
31
0
0
LINE
8
PIPES
10
5484.824671
20
-532.66
30
0
11
6639.556963
21
134.025
31
0
0
LINE
8
PIPES
10
6639.556963
20
134.025
30
0
11
7361.215932
21
550.675
31
0
0
LINE
8
PIPES
10
7361.215932
20
550.675
30
0
11
7794.228634
21
800.675
31
0
0
LINE
8
PIPES
10
2598.076211
20
3800.675
30
0
11
2165.063509
21
3550.675
31
0
0
LINE
8
PIPES
10
2165.063509
20
3550.675
30
0
11
1443.40454
21
3134.025
31
0
0
LINE
8
PIPES
10
1443.40454
20
3134.025
30
0
11
288.672248
21
2467.34
31
0
0
LINE
8
PIPES
10
288.672248
20
2467.34
30
0
11
-866.025404
21
1800.675
31
0
0
LINE
8
PIPES
10
-866.025404
20
1800.675
30
0
11
-2020.723055
21
1134.01
31
0
0
LINE
8
PIPES
10
-3175.429367
20
467.34
30
0
11
-4330.127019
21
-199.325
31
0
0
LINE
8
PIPES
10
-4330.127019
20
-199.325
30
0
11
-5484.824671
21
-865.99
31
0
0
LINE
8
PIPES
10
-5484.824671
20
-865.99
30
0
11
-6639.530982
21
-1532.66
31
0
0
LINE
8
PIPES
10
-6639.530982
20
-1532.66
30
0
11
-7361.215066
21
-1949.3245
31
0
0
LINE
8
PIPES
10
-7361.215066
20
-1949.3245
30
0
11
-7794.228634
21
-2199.325
31
0
0
LINE
8
PIPES
10
-2598.076211
20
-5199.325
30
0
11
-3031.089779
21
-4949.3245
31
0
0
LINE
8
PIPES
10
-4330.127019
20
-4199.325
30
0
11
-6062.177826
21
-3199.325
31
0
0
LINE
8
PIPES
10
-6062.177826
20
-3199.325
30
0
11
-7361.215932
21
-2449.325
31
0
0
LINE
8
PIPES
10
7794.228634
20
800.675
30
0
11
7361.215066
21
1050.6755
31
0
0
LINE
8
PIPES
10
6062.177826
20
1800.675
30
0
11
4330.127019
21
2800.675
31
0
0
LINE
8
PIPES
10
4330.127019
20
2800.675
30
0
11
3031.088913
21
3550.675
31
0
0
LINE
8
PIPES
10
-2165.062643
20
-4949.3245
30
0
11
-2598.076211
21
-4699.324
31
0
0
LINE
8
PIPES
10
-2598.076211
20
-4699.324
30
0
11
-3897.113451
21
-3949.3245
31
0
0
LINE
8
PIPES
10
-3897.113451
20
-3949.3245
30
0
11
-5629.164259
21
-2949.3245
31
0
0
LINE
8
PIPES
10
-5629.164259
20
-2949.3245
30
0
11
-6928.202364
21
-2199.3245
31
0
0
LINE
8
PIPES
10
-6928.202364
20
-2199.3245
30
0
11
-7361.215066
21
-1949.3245
31
0
0
LINE
8
PIPES
10
7361.215932
20
550.675
30
0
11
6928.202364
21
800.6755
31
0
0
LINE
8
PIPES
10
6928.202364
20
800.6755
30
0
11
5629.165125
21
1550.675
31
0
0
LINE
8
PIPES
10
5629.165125
20
1550.675
30
0
11
3897.114317
21
2550.675
31
0
0
LINE
8
PIPES
10
3897.114317
20
2550.675
30
0
11
2598.076211
21
3300.675
31
0
0
LINE
8
PIPES
10
2598.076211
20
3300.675
30
0
11
2165.063509
21
3550.675
31
0
0
LINE
8
PIPES
10
-1443.37856
20
-4532.66
30
0
11
-1876.392128
21
-4282.6595
31
0
0
LINE
8
PIPES
10
-6639.530982
20
-1532.66
30
0
11
-6206.518281
21
-1782.66
31
0
0
LINE
8
PIPES
10
-288.672248
20
-3865.99
30
0
11
-721.685816
21
-3615.9895
31
0
0
LINE
8
PIPES
10
-5484.824671
20
-865.99
30
0
11
-5051.811969
21
-1115.99
31
0
0
LINE
8
PIPES
10
866.025404
20
-3199.325
30
0
11
433.011836
21
-2949.3245
31
0
0
LINE
8
PIPES
10
-4330.127019
20
-199.325
30
0
11
-3897.114317
21
-449.325
31
0
0
LINE
8
PIPES
10
4330.127019
20
-1199.325
30
0
11
3897.113451
21
-949.3245
31
0
0
LINE
8
PIPES
10
-866.025404
20
1800.675
30
0
11
-433.012702
21
1550.675
31
0
0
LINE
8
PIPES
10
5484.824671
20
-532.66
30
0
11
5051.811103
21
-282.6595
31
0
0
LINE
8
PIPES
10
288.672248
20
2467.34
30
0
11
721.68495
21
2217.34
31
0
0
LINE
8
PIPES
10
6639.556963
20
134.025
30
0
11
6206.543395
21
384.0255
31
0
0
LINE
8
PIPES
10
1443.40454
20
3134.025
30
0
11
1876.417242
21
2884.025
31
0
0
LINE
8
PIPES
10
2020.723055
20
-2532.66
30
0
11
1587.709487
21
-2282.6595
31
0
0
LINE
8
PIPES
10
-3175.429367
20
467.34
30
0
11
-2742.416665
21
217.34
31
0
0
LINE
8
PIPES
10
3175.429367
20
-1865.99
30
0
11
2742.415799
21
-1615.9895
31
0
0
LINE
8
PIPES
10
-2020.723055
20
1134.01
30
0
11
-1587.710354
21
884.01
31
0
0
LINE
8
PIPES
10
-4330.127019
20
-4199.325
30
0
11
-3897.113451
21
-3949.3245
31
0
0
LINE
8
PIPES
10
6062.177826
20
1800.675
30
0
11
5629.165125
21
1550.675
31
0
0
LINE
8
PIPES
10
-6062.177826
20
-3199.325
30
0
11
-5629.164259
21
-2949.3245
31
0
0
LINE
8
PIPES
10
4330.127019
20
2800.675
30
0
11
3897.114317
21
2550.675
31
0
0
LINE
8
PIPES
10
-2598.076211
20
-4699.324
30
0
11
-1876.392128
21
-4282.6595
31
0
0
LINE
8
PIPES
10
-1876.392128
20
-4282.6595
30
0
11
-721.685816
21
-3615.9895
31
0
0
LINE
8
PIPES
10
-721.685816
20
-3615.9895
30
0
11
433.011836
21
-2949.3245
31
0
0
LINE
8
PIPES
10
433.011836
20
-2949.3245
30
0
11
1587.709487
21
-2282.6595
31
0
0
LINE
8
PIPES
10
1587.709487
20
-2282.6595
30
0
11
2742.415799
21
-1615.9895
31
0
0
LINE
8
PIPES
10
2742.415799
20
-1615.9895
30
0
11
3897.113451
21
-949.3245
31
0
0
LINE
8
PIPES
10
3897.113451
20
-949.3245
30
0
11
5051.811103
21
-282.6595
31
0
0
LINE
8
PIPES
10
5051.811103
20
-282.6595
30
0
11
6206.543395
21
384.0255
31
0
0
LINE
8
PIPES
10
6206.543395
20
384.0255
30
0
11
6928.202364
21
800.6755
31
0
0
LINE
8
PIPES
10
-6928.202364
20
-2199.3245
30
0
11
-6206.518281
21
-1782.66
31
0
0
LINE
8
PIPES
10
-6206.518281
20
-1782.66
30
0
11
-5051.811969
21
-1115.99
31
0
0
LINE
8
PIPES
10
-5051.811969
20
-1115.99
30
0
11
-3897.114317
21
-449.325
31
0
0
LINE
8
PIPES
10
-3897.114317
20
-449.325
30
0
11
-2742.416665
21
217.34
31
0
0
LINE
8
PIPES
10
-1587.710354
20
884.01
30
0
11
-433.012702
21
1550.675
31
0
0
LINE
8
PIPES
10
-433.012702
20
1550.675
30
0
11
721.68495
21
2217.34
31
0
0
LINE
8
PIPES
10
721.68495
20
2217.34
30
0
11
1876.417242
21
2884.025
31
0
0
LINE
8
PIPES
10
1876.417242
20
2884.025
30
0
11
2598.076211
21
3300.675
31
0
0
LINE
8
PIPES
10
-2598.076211
20
-4664.895
30
0
11
-1443.37856
21
-3998.23
31
0
0
LINE
8
PIPES
10
-1443.37856
20
-3998.23
30
0
11
-288.672248
21
-3331.56
31
0
0
LINE
8
PIPES
10
-288.672248
20
-3331.56
30
0
11
866.025404
21
-2664.895
31
0
0
LINE
8
PIPES
10
866.025404
20
-2664.895
30
0
11
2020.723055
21
-1998.23
31
0
0
LINE
8
PIPES
10
2020.723055
20
-1998.23
30
0
11
3175.429367
21
-1331.56
31
0
0
LINE
8
PIPES
10
3175.429367
20
-1331.56
30
0
11
4330.127019
21
-664.895
31
0
0
LINE
8
PIPES
10
4330.127019
20
-664.895
30
0
11
5484.824671
21
1.77
31
0
0
LINE
8
PIPES
10
5484.824671
20
1.77
30
0
11
6639.556963
21
668.455
31
0
0
LINE
8
PIPES
10
6639.556963
20
668.455
30
0
11
7794.228634
21
1335.105
31
0
0
LINE
8
PIPES
10
-7794.228634
20
-1664.895
30
0
11
-6639.530982
21
-998.23
31
0
0
LINE
8
PIPES
10
-6639.530982
20
-998.23
30
0
11
-5484.824671
21
-331.56
31
0
0
LINE
8
PIPES
10
-5484.824671
20
-331.56
30
0
11
-4330.127019
21
335.105
31
0
0
LINE
8
PIPES
10
-4330.127019
20
335.105
30
0
11
-3175.429367
21
1001.77
31
0
0
LINE
8
PIPES
10
-2020.723055
20
1668.44
30
0
11
-866.025404
21
2335.105
31
0
0
LINE
8
PIPES
10
-866.025404
20
2335.105
30
0
11
288.672248
21
3001.77
31
0
0
LINE
8
PIPES
10
288.672248
20
3001.77
30
0
11
1443.40454
21
3668.455
31
0
0
LINE
8
PIPES
10
1443.40454
20
3668.455
30
0
11
2598.076211
21
4335.105
31
0
0
LINE
8
PIPES
10
-2598.076211
20
-4664.895
30
0
11
-4330.127019
21
-3664.895
31
0
0
LINE
8
PIPES
10
-4330.127019
20
-3664.895
30
0
11
-6062.177826
21
-2664.895
31
0
0
LINE
8
PIPES
10
-6062.177826
20
-2664.895
30
0
11
-7794.228634
21
-1664.895
31
0
0
LINE
8
PIPES
10
7794.228634
20
1335.105
30
0
11
6062.177826
21
2335.105
31
0
0
LINE
8
PIPES
10
6062.177826
20
2335.105
30
0
11
4330.127019
21
3335.105
31
0
0
LINE
8
PIPES
10
4330.127019
20
3335.105
30
0
11
2598.076211
21
4335.105
31
0
0
LINE
8
PIPES
10
-2598.076211
20
-4074.465
30
0
11
-1443.37856
21
-3407.8
31
0
0
LINE
8
PIPES
10
-1443.37856
20
-3407.8
30
0
11
-288.672248
21
-2741.13
31
0
0
LINE
8
PIPES
10
-288.672248
20
-2741.13
30
0
11
866.025404
21
-2074.465
31
0
0
LINE
8
PIPES
10
866.025404
20
-2074.465
30
0
11
2020.723055
21
-1407.8
31
0
0
LINE
8
PIPES
10
2020.723055
20
-1407.8
30
0
11
3175.429367
21
-741.13
31
0
0
LINE
8
PIPES
10
3175.429367
20
-741.13
30
0
11
4330.127019
21
-74.465
31
0
0
LINE
8
PIPES
10
4330.127019
20
-74.465
30
0
11
5484.824671
21
592.2
31
0
0
LINE
8
PIPES
10
5484.824671
20
592.2
30
0
11
6639.556963
21
1258.885
31
0
0
LINE
8
PIPES
10
6639.556963
20
1258.885
30
0
11
7794.228634
21
1925.535
31
0
0
LINE
8
PIPES
10
-7794.228634
20
-1074.465
30
0
11
-6639.530982
21
-407.8
31
0
0
LINE
8
PIPES
10
-6639.530982
20
-407.8
30
0
11
-5484.824671
21
258.87
31
0
0
LINE
8
PIPES
10
-5484.824671
20
258.87
30
0
11
-4330.127019
21
925.535
31
0
0
LINE
8
PIPES
10
-4330.127019
20
925.535
30
0
11
-3175.429367
21
1592.2
31
0
0
LINE
8
PIPES
10
-2020.723055
20
2258.87
30
0
11
-866.025404
21
2925.535
31
0
0
LINE
8
PIPES
10
-866.025404
20
2925.535
30
0
11
288.672248
21
3592.2
31
0
0
LINE
8
PIPES
10
288.672248
20
3592.2
30
0
11
1443.40454
21
4258.885
31
0
0
LINE
8
PIPES
10
1443.40454
20
4258.885
30
0
11
2598.076211
21
4925.535
31
0
0
LINE
8
PIPES
10
-2598.076211
20
-4074.465
30
0
11
-4330.127019
21
-3074.465
31
0
0
LINE
8
PIPES
10
-4330.127019
20
-3074.465
30
0
11
-6062.177826
21
-2074.465
31
0
0
LINE
8
PIPES
10
-6062.177826
20
-2074.465
30
0
11
-7794.228634
21
-1074.465
31
0
0
LINE
8
PIPES
10
7794.228634
20
1925.535
30
0
11
6062.177826
21
2925.535
31
0
0
LINE
8
PIPES
10
6062.177826
20
2925.535
30
0
11
4330.127019
21
3925.535
31
0
0
LINE
8
PIPES
10
4330.127019
20
3925.535
30
0
11
2598.076211
21
4925.535
31
0
0
LINE
8
PIPES
10
-2598.076211
20
-2893.615
30
0
11
-1443.37856
21
-2226.95
31
0
0
LINE
8
PIPES
10
-2598.076211
20
-3193.235
30
0
11
-1443.37856
21
-2526.57
31
0
0
LINE
8
PIPES
10
-1443.37856
20
-2226.95
30
0
11
-288.672248
21
-1560.28
31
0
0
LINE
8
PIPES
10
-1443.37856
20
-2526.57
30
0
11
-288.672248
21
-1859.9
31
0
0
LINE
8
PIPES
10
-288.672248
20
-1560.28
30
0
11
866.025404
21
-893.615
31
0
0
LINE
8
PIPES
10
-288.672248
20
-1859.9
30
0
11
866.025404
21
-1193.235
31
0
0
LINE
8
PIPES
10
866.025404
20
-893.615
30
0
11
2020.723055
21
-226.95
31
0
0
LINE
8
PIPES
10
866.025404
20
-1193.235
30
0
11
2020.723055
21
-526.57
31
0
0
LINE
8
PIPES
10
2020.723055
20
-226.95
30
0
11
3175.429367
21
439.72
31
0
0
LINE
8
PIPES
10
2020.723055
20
-526.57
30
0
11
3175.429367
21
140.1
31
0
0
LINE
8
PIPES
10
3175.429367
20
439.72
30
0
11
4330.127019
21
1106.385
31
0
0
LINE
8
PIPES
10
3175.429367
20
140.1
30
0
11
4330.127019
21
806.765
31
0
0
LINE
8
PIPES
10
4330.127019
20
1106.385
30
0
11
5484.824671
21
1773.05
31
0
0
LINE
8
PIPES
10
4330.127019
20
806.765
30
0
11
5484.824671
21
1473.43
31
0
0
LINE
8
PIPES
10
5484.824671
20
1773.05
30
0
11
6639.556963
21
2439.735
31
0
0
LINE
8
PIPES
10
5484.824671
20
1473.43
30
0
11
6639.556963
21
2140.115
31
0
0
LINE
8
PIPES
10
6639.556963
20
2439.735
30
0
11
7794.228634
21
3106.385
31
0
0
LINE
8
PIPES
10
6639.556963
20
2140.115
30
0
11
7794.228634
21
2806.765
31
0
0
LINE
8
PIPES
10
-7794.228634
20
500.005
30
0
11
-6639.530982
21
1166.67
31
0
0
LINE
8
PIPES
10
-7794.228634
20
200.385
30
0
11
-6639.530982
21
867.05
31
0
0
LINE
8
PIPES
10
-6639.530982
20
1166.67
30
0
11
-5484.824671
21
1833.34
31
0
0
LINE
8
PIPES
10
-6639.530982
20
867.05
30
0
11
-5484.824671
21
1533.72
31
0
0
LINE
8
PIPES
10
-5484.824671
20
1833.34
30
0
11
-4330.127019
21
2500.005
31
0
0
LINE
8
PIPES
10
-5484.824671
20
1533.72
30
0
11
-4330.127019
21
2200.385
31
0
0
LINE
8
PIPES
10
-4330.127019
20
2500.005
30
0
11
-3175.429367
21
3166.67
31
0
0
LINE
8
PIPES
10
-4330.127019
20
2200.385
30
0
11
-3175.429367
21
2867.05
31
0
0
LINE
8
PIPES
10
-3175.429367
20
3166.67
30
0
11
-2020.723055
21
3833.34
31
0
0
LINE
8
PIPES
10
-3175.429367
20
2867.05
30
0
11
-2020.723055
21
3533.72
31
0
0
LINE
8
PIPES
10
-2020.723055
20
3833.34
30
0
11
-866.025404
21
4500.005
31
0
0
LINE
8
PIPES
10
-2020.723055
20
3533.72
30
0
11
-866.025404
21
4200.385
31
0
0
LINE
8
PIPES
10
-866.025404
20
4500.005
30
0
11
288.672248
21
5166.67
31
0
0
LINE
8
PIPES
10
-866.025404
20
4200.385
30
0
11
288.672248
21
4867.05
31
0
0
LINE
8
PIPES
10
288.672248
20
5166.67
30
0
11
1443.40454
21
5833.355
31
0
0
LINE
8
PIPES
10
288.672248
20
4867.05
30
0
11
1443.40454
21
5533.735
31
0
0
LINE
8
PIPES
10
1443.40454
20
5833.355
30
0
11
2598.076211
21
6500.005
31
0
0
LINE
8
PIPES
10
1443.40454
20
5533.735
30
0
11
2598.076211
21
6200.385
31
0
0
LINE
8
PIPES
10
2020.723055
20
-226.95
30
0
11
1722.773943
21
-32.359
31
0
0
LINE
8
PIPES
10
1722.773943
20
-32.359
30
0
11
1464.973769
21
136.012
31
0
0
LINE
8
PIPES
10
1464.973769
20
136.012
30
0
11
1207.173595
21
304.383
31
0
0
LINE
8
PIPES
10
1207.173595
20
304.383
30
0
11
949.371689
21
472.755
31
0
0
LINE
8
PIPES
10
949.371689
20
472.755
30
0
11
691.573246
21
641.125
31
0
0
LINE
8
PIPES
10
691.573246
20
641.125
30
0
11
433.774804
21
809.485
31
0
0
LINE
8
PIPES
10
433.774804
20
809.485
30
0
11
175.976362
21
977.855
31
0
0
LINE
8
PIPES
10
175.976362
20
977.855
30
0
11
-81.83074
21
1146.23
31
0
0
LINE
8
PIPES
10
-81.83074
20
1146.23
30
0
11
-339.629183
21
1314.6
31
0
0
LINE
8
PIPES
10
-339.629183
20
1314.6
30
0
11
-597.427625
21
1482.97
31
0
0
LINE
8
PIPES
10
-597.427625
20
1482.97
30
0
11
-855.226067
21
1651.34
31
0
0
LINE
8
PIPES
10
-855.226067
20
1651.34
30
0
11
-1113.024509
21
1819.71
31
0
0
LINE
8
PIPES
10
-1113.024509
20
1819.71
30
0
11
-1370.831612
21
1988.085
31
0
0
LINE
8
PIPES
10
-1370.831612
20
1988.085
30
0
11
-1628.630054
21
2156.455
31
0
0
LINE
8
PIPES
10
-1628.630054
20
2156.455
30
0
11
-1886.428496
21
2324.815
31
0
0
LINE
8
PIPES
10
-1886.428496
20
2324.815
30
0
11
-2144.226938
21
2493.185
31
0
0
LINE
8
PIPES
10
-2144.226938
20
2493.185
30
0
11
-2402.02538
21
2661.555
31
0
0
LINE
8
PIPES
10
-2402.02538
20
2661.555
30
0
11
-2659.832483
21
2829.93
31
0
0
LINE
8
PIPES
10
-2659.832483
20
2829.93
30
0
11
-2917.630925
21
2998.3
31
0
0
LINE
8
PIPES
10
-2917.630925
20
2998.3
30
0
11
-3175.429367
21
3166.67
31
0
0
LINE
8
PIPES
10
2020.723055
20
-526.57
30
0
11
1722.773943
21
-331.979
31
0
0
LINE
8
PIPES
10
1722.773943
20
-331.979
30
0
11
1464.973769
21
-163.608
31
0
0
LINE
8
PIPES
10
1464.973769
20
-163.608
30
0
11
1207.173595
21
4.763
31
0
0
LINE
8
PIPES
10
1207.173595
20
4.763
30
0
11
949.371689
21
173.135
31
0
0
LINE
8
PIPES
10
949.371689
20
173.135
30
0
11
691.573246
21
341.505
31
0
0
LINE
8
PIPES
10
691.573246
20
341.505
30
0
11
433.774804
21
509.865
31
0
0
LINE
8
PIPES
10
433.774804
20
509.865
30
0
11
175.976362
21
678.235
31
0
0
LINE
8
PIPES
10
175.976362
20
678.235
30
0
11
-81.83074
21
846.61
31
0
0
LINE
8
PIPES
10
-81.83074
20
846.61
30
0
11
-339.629183
21
1014.98
31
0
0
LINE
8
PIPES
10
-339.629183
20
1014.98
30
0
11
-597.427625
21
1183.35
31
0
0
LINE
8
PIPES
10
-597.427625
20
1183.35
30
0
11
-855.226067
21
1351.72
31
0
0
LINE
8
PIPES
10
-855.226067
20
1351.72
30
0
11
-1113.024509
21
1520.09
31
0
0
LINE
8
PIPES
10
-1113.024509
20
1520.09
30
0
11
-1370.831612
21
1688.465
31
0
0
LINE
8
PIPES
10
-1370.831612
20
1688.465
30
0
11
-1628.630054
21
1856.835
31
0
0
LINE
8
PIPES
10
-1628.630054
20
1856.835
30
0
11
-1886.428496
21
2025.205
31
0
0
LINE
8
PIPES
10
-1886.428496
20
2025.205
30
0
11
-2144.226938
21
2193.565
31
0
0
LINE
8
PIPES
10
-2144.226938
20
2193.565
30
0
11
-2402.02538
21
2361.935
31
0
0
LINE
8
PIPES
10
-2402.02538
20
2361.935
30
0
11
-2659.832483
21
2530.31
31
0
0
LINE
8
PIPES
10
-2659.832483
20
2530.31
30
0
11
-2917.630925
21
2698.68
31
0
0
LINE
8
PIPES
10
-2917.630925
20
2698.68
30
0
11
-3175.429367
21
2867.05
31
0
0
LINE
8
PIPES
10
2020.723055
20
-226.95
30
0
11
2020.723055
21
-526.57
31
0
0
LINE
8
PIPES
10
1722.773943
20
-32.359
30
0
11
1722.773943
21
-331.979
31
0
0
LINE
8
PIPES
10
1464.973769
20
136.012
30
0
11
1464.973769
21
-163.608
31
0
0
LINE
8
PIPES
10
1207.173595
20
304.383
30
0
11
1207.173595
21
4.763
31
0
0
LINE
8
PIPES
10
949.371689
20
472.755
30
0
11
949.371689
21
173.135
31
0
0
LINE
8
PIPES
10
691.573246
20
641.125
30
0
11
691.573246
21
341.505
31
0
0
LINE
8
PIPES
10
433.774804
20
809.485
30
0
11
433.774804
21
509.865
31
0
0
LINE
8
PIPES
10
175.976362
20
977.855
30
0
11
175.976362
21
678.235
31
0
0
LINE
8
PIPES
10
-81.83074
20
1146.23
30
0
11
-81.83074
21
846.61
31
0
0
LINE
8
PIPES
10
-339.629183
20
1314.6
30
0
11
-339.629183
21
1014.98
31
0
0
LINE
8
PIPES
10
-597.427625
20
1482.97
30
0
11
-597.427625
21
1183.35
31
0
0
LINE
8
PIPES
10
-855.226067
20
1651.34
30
0
11
-855.226067
21
1351.72
31
0
0
LINE
8
PIPES
10
-1113.024509
20
1819.71
30
0
11
-1113.024509
21
1520.09
31
0
0
LINE
8
PIPES
10
-1370.831612
20
1988.085
30
0
11
-1370.831612
21
1688.465
31
0
0
LINE
8
PIPES
10
-1628.630054
20
2156.455
30
0
11
-1628.630054
21
1856.835
31
0
0
LINE
8
PIPES
10
-1886.428496
20
2324.815
30
0
11
-1886.428496
21
2025.205
31
0
0
LINE
8
PIPES
10
-2144.226938
20
2493.185
30
0
11
-2144.226938
21
2193.565
31
0
0
LINE
8
PIPES
10
-2402.02538
20
2661.555
30
0
11
-2402.02538
21
2361.935
31
0
0
LINE
8
PIPES
10
-2659.832483
20
2829.93
30
0
11
-2659.832483
21
2530.31
31
0
0
LINE
8
PIPES
10
-2917.630925
20
2998.3
30
0
11
-2917.630925
21
2698.68
31
0
0
LINE
8
PIPES
10
3175.429367
20
439.72
30
0
11
2877.480255
21
634.311
31
0
0
LINE
8
PIPES
10
2877.480255
20
634.311
30
0
11
2619.680081
21
802.682
31
0
0
LINE
8
PIPES
10
2619.680081
20
802.682
30
0
11
2361.879907
21
971.053
31
0
0
LINE
8
PIPES
10
2361.879907
20
971.053
30
0
11
2104.078001
21
1139.425
31
0
0
LINE
8
PIPES
10
2104.078001
20
1139.425
30
0
11
1846.279558
21
1307.795
31
0
0
LINE
8
PIPES
10
1846.279558
20
1307.795
30
0
11
1588.481116
21
1476.155
31
0
0
LINE
8
PIPES
10
1588.481116
20
1476.155
30
0
11
1330.682674
21
1644.525
31
0
0
LINE
8
PIPES
10
1330.682674
20
1644.525
30
0
11
1072.875571
21
1812.9
31
0
0
LINE
8
PIPES
10
1072.875571
20
1812.9
30
0
11
815.077129
21
1981.27
31
0
0
LINE
8
PIPES
10
815.077129
20
1981.27
30
0
11
557.278687
21
2149.64
31
0
0
LINE
8
PIPES
10
557.278687
20
2149.64
30
0
11
299.480245
21
2318.01
31
0
0
LINE
8
PIPES
10
299.480245
20
2318.01
30
0
11
41.681803
21
2486.38
31
0
0
LINE
8
PIPES
10
41.681803
20
2486.38
30
0
11
-216.1253
21
2654.755
31
0
0
LINE
8
PIPES
10
-216.1253
20
2654.755
30
0
11
-473.923742
21
2823.125
31
0
0
LINE
8
PIPES
10
-473.923742
20
2823.125
30
0
11
-731.722184
21
2991.485
31
0
0
LINE
8
PIPES
10
-731.722184
20
2991.485
30
0
11
-989.520626
21
3159.855
31
0
0
LINE
8
PIPES
10
-989.520626
20
3159.855
30
0
11
-1247.319069
21
3328.225
31
0
0
LINE
8
PIPES
10
-1247.319069
20
3328.225
30
0
11
-1505.126171
21
3496.6
31
0
0
LINE
8
PIPES
10
-1505.126171
20
3496.6
30
0
11
-1762.924613
21
3664.97
31
0
0
LINE
8
PIPES
10
-1762.924613
20
3664.97
30
0
11
-2020.723055
21
3833.34
31
0
0
LINE
8
PIPES
10
3175.429367
20
140.1
30
0
11
2877.480255
21
334.691
31
0
0
LINE
8
PIPES
10
2877.480255
20
334.691
30
0
11
2619.680081
21
503.062
31
0
0
LINE
8
PIPES
10
2619.680081
20
503.062
30
0
11
2361.879907
21
671.433
31
0
0
LINE
8
PIPES
10
2361.879907
20
671.433
30
0
11
2104.078001
21
839.805
31
0
0
LINE
8
PIPES
10
2104.078001
20
839.805
30
0
11
1846.279558
21
1008.175
31
0
0
LINE
8
PIPES
10
1846.279558
20
1008.175
30
0
11
1588.481116
21
1176.535
31
0
0
LINE
8
PIPES
10
1588.481116
20
1176.535
30
0
11
1330.682674
21
1344.905
31
0
0
LINE
8
PIPES
10
1330.682674
20
1344.905
30
0
11
1072.875571
21
1513.28
31
0
0
LINE
8
PIPES
10
1072.875571
20
1513.28
30
0
11
815.077129
21
1681.65
31
0
0
LINE
8
PIPES
10
815.077129
20
1681.65
30
0
11
557.278687
21
1850.02
31
0
0
LINE
8
PIPES
10
557.278687
20
1850.02
30
0
11
299.480245
21
2018.39
31
0
0
LINE
8
PIPES
10
299.480245
20
2018.39
30
0
11
41.681803
21
2186.76
31
0
0
LINE
8
PIPES
10
41.681803
20
2186.76
30
0
11
-216.1253
21
2355.135
31
0
0
LINE
8
PIPES
10
-216.1253
20
2355.135
30
0
11
-473.923742
21
2523.505
31
0
0
LINE
8
PIPES
10
-473.923742
20
2523.505
30
0
11
-731.722184
21
2691.875
31
0
0
LINE
8
PIPES
10
-731.722184
20
2691.875
30
0
11
-989.520626
21
2860.235
31
0
0
LINE
8
PIPES
10
-989.520626
20
2860.235
30
0
11
-1247.319069
21
3028.605
31
0
0
LINE
8
PIPES
10
-1247.319069
20
3028.605
30
0
11
-1505.126171
21
3196.98
31
0
0
LINE
8
PIPES
10
-1505.126171
20
3196.98
30
0
11
-1762.924613
21
3365.35
31
0
0
LINE
8
PIPES
10
-1762.924613
20
3365.35
30
0
11
-2020.723055
21
3533.72
31
0
0
LINE
8
PIPES
10
3175.429367
20
439.72
30
0
11
3175.429367
21
140.1
31
0
0
LINE
8
PIPES
10
2877.480255
20
634.311
30
0
11
2877.480255
21
334.691
31
0
0
LINE
8
PIPES
10
2619.680081
20
802.682
30
0
11
2619.680081
21
503.062
31
0
0
LINE
8
PIPES
10
2361.879907
20
971.053
30
0
11
2361.879907
21
671.433
31
0
0
LINE
8
PIPES
10
2104.078001
20
1139.425
30
0
11
2104.078001
21
839.805
31
0
0
LINE
8
PIPES
10
1846.279558
20
1307.795
30
0
11
1846.279558
21
1008.175
31
0
0
LINE
8
PIPES
10
1588.481116
20
1476.155
30
0
11
1588.481116
21
1176.535
31
0
0
LINE
8
PIPES
10
1330.682674
20
1644.525
30
0
11
1330.682674
21
1344.905
31
0
0
LINE
8
PIPES
10
1072.875571
20
1812.9
30
0
11
1072.875571
21
1513.28
31
0
0
LINE
8
PIPES
10
815.077129
20
1981.27
30
0
11
815.077129
21
1681.65
31
0
0
LINE
8
PIPES
10
557.278687
20
2149.64
30
0
11
557.278687
21
1850.02
31
0
0
LINE
8
PIPES
10
299.480245
20
2318.01
30
0
11
299.480245
21
2018.39
31
0
0
LINE
8
PIPES
10
41.681803
20
2486.38
30
0
11
41.681803
21
2186.76
31
0
0
LINE
8
PIPES
10
-216.1253
20
2654.755
30
0
11
-216.1253
21
2355.135
31
0
0
LINE
8
PIPES
10
-473.923742
20
2823.125
30
0
11
-473.923742
21
2523.505
31
0
0
LINE
8
PIPES
10
-731.722184
20
2991.485
30
0
11
-731.722184
21
2691.875
31
0
0
LINE
8
PIPES
10
-989.520626
20
3159.855
30
0
11
-989.520626
21
2860.235
31
0
0
LINE
8
PIPES
10
-1247.319069
20
3328.225
30
0
11
-1247.319069
21
3028.605
31
0
0
LINE
8
PIPES
10
-1505.126171
20
3496.6
30
0
11
-1505.126171
21
3196.98
31
0
0
LINE
8
PIPES
10
-1762.924613
20
3664.97
30
0
11
-1762.924613
21
3365.35
31
0
0
LINE
8
PIPES
10
-3175.429367
20
2017.82
30
0
11
-2020.723055
21
2684.49
31
0
0
LINE
8
PIPES
10
866.025404
20
-893.615
30
0
11
-866.025404
21
237.595
31
0
0
LINE
8
PIPES
10
866.025404
20
-1193.235
30
0
11
-866.025404
21
-62.025
31
0
0
LINE
8
PIPES
10
-288.672248
20
-1560.28
30
0
11
-536.10783
21
-1398.683
31
0
0
LINE
8
PIPES
10
-288.672248
20
-1859.9
30
0
11
-536.10783
21
-1698.303
31
0
0
LINE
8
PIPES
10
-1443.37856
20
-2226.95
30
0
11
-3175.429367
21
-1095.74
31
0
0
LINE
8
PIPES
10
-1443.37856
20
-2526.57
30
0
11
-3175.429367
21
-1395.36
31
0
0
LINE
8
PIPES
10
-2598.076211
20
-2893.615
30
0
11
-2845.511794
21
-2732.018
31
0
0
LINE
8
PIPES
10
-7794.228634
20
200.385
30
0
11
-7546.796516
21
38.79
31
0
0
LINE
8
PIPES
10
2598.076211
20
6500.005
30
0
11
2845.508329
21
6338.41
31
0
0
LINE
8
PIPES
10
2598.076211
20
6200.385
30
0
11
2845.508329
21
6038.79
31
0
0
LINE
8
PIPES
10
6062.177826
20
4237.595
30
0
11
6309.609945
21
4076
31
0
0
LINE
8
PIPES
10
4330.127019
20
5368.795
30
0
11
4577.559137
21
5207.2
31
0
0
LINE
8
PIPES
10
-4330.127019
20
-1762.405
30
0
11
-4577.559137
21
-1600.81
31
0
0
LINE
8
PIPES
10
-6062.177826
20
-631.205
30
0
11
-6309.609945
21
-469.61
31
0
0
LINE
8
PIPES
10
6062.177826
20
3937.975
30
0
11
6062.177826
21
4237.595
31
0
0
LINE
8
PIPES
10
4330.127019
20
5069.175
30
0
11
4330.127019
21
5368.795
31
0
0
LINE
8
PIPES
10
6062.177826
20
3937.975
30
0
11
6309.609945
21
3776.38
31
0
0
LINE
8
PIPES
10
4330.127019
20
5069.175
30
0
11
4577.559137
21
4907.58
31
0
0
LINE
8
PIPES
10
-4330.127019
20
-2062.025
30
0
11
-4330.127019
21
-1762.405
31
0
0
LINE
8
PIPES
10
-6062.177826
20
-930.825
30
0
11
-6062.177826
21
-631.205
31
0
0
LINE
8
PIPES
10
-4330.127019
20
-2062.025
30
0
11
-4082.694901
21
-2223.62
31
0
0
LINE
8
PIPES
10
-6062.177826
20
-930.825
30
0
11
-5814.745708
21
-1092.42
31
0
0
LINE
8
PIPES
10
-3175.429367
20
-1095.74
30
0
11
-4907.480175
21
35.46
31
0
0
LINE
8
PIPES
10
-4330.127019
20
-1762.405
30
0
11
-3175.429367
21
-1095.74
31
0
0
LINE
8
PIPES
10
-4907.480175
20
35.46
30
0
11
-6639.530982
21
1166.67
31
0
0
LINE
8
PIPES
10
-6062.177826
20
-631.205
30
0
11
-4907.480175
21
35.46
31
0
0
LINE
8
PIPES
10
-3175.429367
20
-1395.36
30
0
11
-4907.480175
21
-264.16
31
0
0
LINE
8
PIPES
10
-4330.127019
20
-2062.025
30
0
11
-3175.429367
21
-1395.36
31
0
0
LINE
8
PIPES
10
-4907.480175
20
-264.16
30
0
11
-6639.530982
21
867.05
31
0
0
LINE
8
PIPES
10
-6062.177826
20
-930.825
30
0
11
-4907.480175
21
-264.16
31
0
0
LINE
8
PIPES
10
-3175.429367
20
-1395.36
30
0
11
-3175.429367
21
-1095.74
31
0
0
LINE
8
PIPES
10
-4907.480175
20
-264.16
30
0
11
-4907.480175
21
35.46
31
0
0
LINE
8
PIPES
10
-2020.723055
20
-429.07
30
0
11
-2268.155174
21
-267.475
31
0
0
LINE
8
PIPES
10
-3175.429367
20
-1095.74
30
0
11
-2020.723055
21
-429.07
31
0
0
LINE
8
PIPES
10
-3752.773863
20
702.13
30
0
11
-4000.205981
21
863.725
31
0
0
LINE
8
PIPES
10
-4907.480175
20
35.46
30
0
11
-3752.773863
21
702.13
31
0
0
LINE
8
PIPES
10
-2020.723055
20
-728.69
30
0
11
-2268.155174
21
-567.095
31
0
0
LINE
8
PIPES
10
-3175.429367
20
-1395.36
30
0
11
-2020.723055
21
-728.69
31
0
0
LINE
8
PIPES
10
-3752.773863
20
402.51
30
0
11
-4000.205981
21
564.105
31
0
0
LINE
8
PIPES
10
-4907.480175
20
-264.16
30
0
11
-3752.773863
21
402.51
31
0
0
LINE
8
PIPES
10
-2020.723055
20
-728.69
30
0
11
-2020.723055
21
-429.07
31
0
0
LINE
8
PIPES
10
-3752.773863
20
402.51
30
0
11
-3752.773863
21
702.13
31
0
0
LINE
8
PIPES
10
-866.025404
20
237.595
30
0
11
-2598.076211
21
1368.795
31
0
0
LINE
8
PIPES
10
-2020.723055
20
-429.07
30
0
11
-866.025404
21
237.595
31
0
0
LINE
8
PIPES
10
-2598.076211
20
1368.795
30
0
11
-4330.127019
21
2500.005
31
0
0
LINE
8
PIPES
10
-3752.773863
20
702.13
30
0
11
-2598.076211
21
1368.795
31
0
0
LINE
8
PIPES
10
-866.025404
20
-62.025
30
0
11
-2598.076211
21
1069.175
31
0
0
LINE
8
PIPES
10
-2020.723055
20
-728.69
30
0
11
-866.025404
21
-62.025
31
0
0
LINE
8
PIPES
10
-2598.076211
20
1069.175
30
0
11
-4330.127019
21
2200.385
31
0
0
LINE
8
PIPES
10
-3752.773863
20
402.51
30
0
11
-2598.076211
21
1069.175
31
0
0
LINE
8
PIPES
10
-866.025404
20
-62.025
30
0
11
-866.025404
21
237.595
31
0
0
LINE
8
PIPES
10
-2598.076211
20
1069.175
30
0
11
-2598.076211
21
1368.795
31
0
0
LINE
8
PIPES
10
-866.025404
20
237.595
30
0
11
287.529094
21
903.6
31
0
0
LINE
8
PIPES
10
-2598.076211
20
1368.795
30
0
11
-1444.521713
21
2034.8
31
0
0
LINE
8
PIPES
10
-866.025404
20
-62.025
30
0
11
287.529094
21
603.98
31
0
0
LINE
8
PIPES
10
-2598.076211
20
1069.175
30
0
11
-1444.521713
21
1735.18
31
0
0
LINE
8
PIPES
10
287.529094
20
603.98
30
0
11
287.529094
21
903.6
31
0
0
LINE
8
PIPES
10
-1444.521713
20
1735.18
30
0
11
-1444.521713
21
2034.8
31
0
0
LINE
8
PIPES
10
287.529094
20
903.6
30
0
11
1441.940958
21
1570.1
31
0
0
LINE
8
PIPES
10
-1444.521713
20
2034.8
30
0
11
-290.10985
21
2701.3
31
0
0
LINE
8
PIPES
10
287.529094
20
603.98
30
0
11
1441.940958
21
1270.48
31
0
0
LINE
8
PIPES
10
-1444.521713
20
1735.18
30
0
11
-290.10985
21
2401.68
31
0
0
LINE
8
PIPES
10
1441.940958
20
1270.48
30
0
11
1441.940958
21
1570.1
31
0
0
LINE
8
PIPES
10
-290.10985
20
2401.68
30
0
11
-290.10985
21
2701.3
31
0
0
LINE
8
PIPES
10
1441.940958
20
1570.1
30
0
11
2596.361481
21
2236.605
31
0
0
LINE
8
PIPES
10
-290.10985
20
2701.3
30
0
11
864.310673
21
3367.805
31
0
0
LINE
8
PIPES
10
1441.940958
20
1270.48
30
0
11
2596.361481
21
1936.985
31
0
0
LINE
8
PIPES
10
-290.10985
20
2401.68
30
0
11
864.310673
21
3068.185
31
0
0
LINE
8
PIPES
10
2596.361481
20
1936.985
30
0
11
2596.361481
21
2236.605
31
0
0
LINE
8
PIPES
10
864.310673
20
3068.185
30
0
11
864.310673
21
3367.805
31
0
0
LINE
8
PIPES
10
2596.361481
20
2236.605
30
0
11
3750.773344
21
2903.105
31
0
0
LINE
8
PIPES
10
864.310673
20
3367.805
30
0
11
2018.722537
21
4034.305
31
0
0
LINE
8
PIPES
10
2596.361481
20
1936.985
30
0
11
3750.773344
21
2603.485
31
0
0
LINE
8
PIPES
10
864.310673
20
3068.185
30
0
11
2018.722537
21
3734.685
31
0
0
LINE
8
PIPES
10
3750.773344
20
2603.485
30
0
11
3750.773344
21
2903.105
31
0
0
LINE
8
PIPES
10
2018.722537
20
3734.685
30
0
11
2018.722537
21
4034.305
31
0
0
LINE
8
PIPES
10
3750.773344
20
2903.105
30
0
11
4905.167887
21
3569.595
31
0
0
LINE
8
PIPES
10
2018.722537
20
4034.305
30
0
11
3173.117079
21
4700.795
31
0
0
LINE
8
PIPES
10
3750.773344
20
2603.485
30
0
11
4905.167887
21
3269.975
31
0
0
LINE
8
PIPES
10
2018.722537
20
3734.685
30
0
11
3173.117079
21
4401.175
31
0
0
LINE
8
PIPES
10
4905.167887
20
3269.975
30
0
11
4905.167887
21
3569.595
31
0
0
LINE
8
PIPES
10
3173.117079
20
4401.175
30
0
11
3173.117079
21
4700.795
31
0
0
LINE
8
PIPES
10
4905.167887
20
3569.595
30
0
11
6059.57975
21
4236.095
31
0
0
LINE
8
PIPES
10
3173.117079
20
4700.795
30
0
11
4327.528943
21
5367.295
31
0
0
LINE
8
PIPES
10
4905.167887
20
3269.975
30
0
11
6059.57975
21
3936.475
31
0
0
LINE
8
PIPES
10
3173.117079
20
4401.175
30
0
11
4327.528943
21
5067.675
31
0
0
LINE
8
PIPES
10
6059.57975
20
3936.475
30
0
11
6059.57975
21
4236.095
31
0
0
LINE
8
PIPES
10
4327.528943
20
5067.675
30
0
11
4327.528943
21
5367.295
31
0
0
LINE
8
PIPES
10
-3175.429367
20
-3982.276
30
0
11
-4907.480175
21
-2982.276
31
0
0
LINE
8
PIPES
10
-2020.723055
20
-3315.606
30
0
11
-3752.773863
21
-2315.606
31
0
0
LINE
8
PIPES
10
-866.025404
20
-2648.941
30
0
11
-2598.076211
21
-1648.941
31
0
0
LINE
8
PIPES
10
288.672248
20
-1982.276
30
0
11
-1443.37856
21
-982.276
31
0
0
LINE
8
PIPES
10
1443.37856
20
-1315.606
30
0
11
-288.672248
21
-315.606
31
0
0
LINE
8
PIPES
10
2598.076211
20
-648.941
30
0
11
866.025404
21
351.059
31
0
0
LINE
8
PIPES
10
3752.773863
20
17.724
30
0
11
2020.723055
21
1017.724
31
0
0
LINE
8
PIPES
10
4907.506156
20
684.409
30
0
11
3175.455348
21
1684.409
31
0
0
LINE
8
PIPES
10
-3031.089779
20
-5398.9405
30
0
11
-4330.127019
21
-4648.941
31
0
0
LINE
8
PIPES
10
-2598.076211
20
-5148.94
30
0
11
-3031.089779
21
-5398.9405
31
0
0
LINE
8
PIPES
10
-7361.215932
20
-2898.941
30
0
11
-7794.228634
21
-2648.941
31
0
0
LINE
8
PIPES
10
-6928.202364
20
-2648.9405
30
0
11
-7361.215932
21
-2898.941
31
0
0
LINE
8
PIPES
10
7361.215066
20
601.0595
30
0
11
6062.177826
21
1351.059
31
0
0
LINE
8
PIPES
10
6928.202364
20
351.0595
30
0
11
7361.215066
21
601.0595
31
0
0
LINE
8
PIPES
10
3031.088913
20
3101.059
30
0
11
2598.076211
21
3351.059
31
0
0
LINE
8
PIPES
10
2598.076211
20
2851.059
30
0
11
3031.088913
21
3101.059
31
0
0
LINE
8
PIPES
10
-2598.076211
20
-2893.615
30
0
11
-1443.37856
21
-3407.8
31
0
0
LINE
8
PIPES
10
-1443.37856
20
-3407.8
30
0
11
-2598.076211
21
-5199.325
31
0
0
LINE
8
PIPES
10
-2598.076211
20
-5199.325
30
0
11
-1443.37856
21
-5833.34
31
0
0
LINE
8
PIPES
10
-288.672248
20
-1560.28
30
0
11
866.025404
21
-2074.465
31
0
0
LINE
8
PIPES
10
866.025404
20
-2074.465
30
0
11
-288.672248
21
-3865.99
31
0
0
LINE
8
PIPES
10
2020.723055
20
-226.95
30
0
11
3175.429367
21
-741.13
31
0
0
LINE
8
PIPES
10
3175.429367
20
-741.13
30
0
11
2020.723055
21
-2532.66
31
0
0
LINE
8
PIPES
10
2020.723055
20
-2532.66
30
0
11
3175.429367
21
-3166.67
31
0
0
LINE
8
PIPES
10
4330.127019
20
1106.385
30
0
11
5484.824671
21
592.2
31
0
0
LINE
8
PIPES
10
5484.824671
20
592.2
30
0
11
4330.127019
21
-1199.325
31
0
0
LINE
8
PIPES
10
4330.127019
20
-1199.325
30
0
11
5484.824671
21
-1833.34
31
0
0
LINE
8
PIPES
10
6639.556963
20
2439.735
30
0
11
7794.228634
21
1925.535
31
0
0
LINE
8
PIPES
10
7794.228634
20
1925.535
30
0
11
6639.556963
21
134.025
31
0
0
LINE
8
PIPES
10
6639.556963
20
134.025
30
0
11
7794.228634
21
-500.005
31
0
0
LINE
8
PIPES
10
-6639.530982
20
1166.67
30
0
11
-7794.228634
21
-1074.465
31
0
0
LINE
8
PIPES
10
-7794.228634
20
-1074.465
30
0
11
-6639.530982
21
-1532.66
31
0
0
LINE
8
PIPES
10
-6639.530982
20
-1532.66
30
0
11
-7794.228634
21
-3500.005
31
0
0
LINE
8
PIPES
10
-4330.127019
20
2500.005
30
0
11
-5484.824671
21
258.87
31
0
0
LINE
8
PIPES
10
-5484.824671
20
258.87
30
0
11
-4330.127019
21
-199.325
31
0
0
LINE
8
PIPES
10
-4330.127019
20
-199.325
30
0
11
-5484.824671
21
-2166.67
31
0
0
LINE
8
PIPES
10
288.672248
20
4867.05
30
0
11
-866.025404
21
2925.535
31
0
0
LINE
8
PIPES
10
-866.025404
20
2925.535
30
0
11
288.672248
21
2467.34
31
0
0
LINE
8
PIPES
10
288.672248
20
2467.34
30
0
11
-866.025404
21
499.995
31
0
0
LINE
8
PIPES
10
2598.076211
20
6200.385
30
0
11
1443.40454
21
4258.885
31
0
0
LINE
8
PIPES
10
1443.40454
20
4258.885
30
0
11
2598.076211
21
3800.675
31
0
0
LINE
8
PIPES
10
2598.076211
20
3800.675
30
0
11
1443.40454
21
1833.345
31
0
0
LINE
8
PIPES
10
-2598.076211
20
-2893.615
30
0
11
-4330.127019
21
-3074.465
31
0
0
LINE
8
PIPES
10
-4330.127019
20
-3074.465
30
0
11
-2598.076211
21
-5199.325
31
0
0
LINE
8
PIPES
10
-2598.076211
20
-5199.325
30
0
11
-4330.127019
21
-5500.005
31
0
0
LINE
8
PIPES
10
-6062.177826
20
-631.205
30
0
11
-7794.228634
21
-1074.465
31
0
0
LINE
8
PIPES
10
-7794.228634
20
-1074.465
30
0
11
-6062.177826
21
-3199.325
31
0
0
LINE
8
PIPES
10
-6062.177826
20
-3199.325
30
0
11
-7794.228634
21
-3500.005
31
0
0
LINE
8
PIPES
10
6062.177826
20
4237.595
30
0
11
7794.228634
21
1925.535
31
0
0
LINE
8
PIPES
10
7794.228634
20
1925.535
30
0
11
6062.177826
21
1800.675
31
0
0
LINE
8
PIPES
10
6062.177826
20
1800.675
30
0
11
7794.228634
21
-500.005
31
0
0
LINE
8
PIPES
10
2598.076211
20
6500.005
30
0
11
4330.127019
21
3925.535
31
0
0
LINE
8
PIPES
10
4330.127019
20
3925.535
30
0
11
2598.076211
21
3800.675
31
0
0
LINE
8
PIPES
10
2598.076211
20
3800.675
30
0
11
4330.127019
21
1499.995
31
0
0
LINE
8
PIPES
10
-7361.215066
20
-2398.9405
30
0
11
-6639.530982
21
-1982.276
31
0
0
LINE
8
PIPES
10
-2165.062643
20
-5398.9405
30
0
11
-1443.37856
21
-4982.276
31
0
0
LINE
8
PIPES
10
7361.215932
20
101.059
30
0
11
7794.228634
21
351.059
31
0
0
LINE
8
PIPES
10
2165.063509
20
3101.059
30
0
11
2598.076211
21
3351.059
31
0
0
LINE
8
PIPES
10
-2598.076211
20
-3193.235
30
0
11
-2598.076211
21
-2893.615
31
0
0
LINE
8
PIPES
10
7794.228634
20
2806.765
30
0
11
7794.228634
21
3106.385
31
0
0
LINE
8
PIPES
10
-1443.37856
20
-2526.57
30
0
11
-1443.37856
21
-2226.95
31
0
0
LINE
8
PIPES
10
-288.672248
20
-1859.9
30
0
11
-288.672248
21
-1560.28
31
0
0
LINE
8
PIPES
10
866.025404
20
-1193.235
30
0
11
866.025404
21
-893.615
31
0
0
LINE
8
PIPES
10
4330.127019
20
806.765
30
0
11
4330.127019
21
1106.385
31
0
0
LINE
8
PIPES
10
5484.824671
20
1473.43
30
0
11
5484.824671
21
1773.05
31
0
0
LINE
8
PIPES
10
6639.556963
20
2140.115
30
0
11
6639.556963
21
2439.735
31
0
0
LINE
8
PIPES
10
-3031.089779
20
-4949.3245
30
0
11
-4330.127019
21
-4199.325
31
0
0
LINE
8
PIPES
10
-2598.076211
20
-4699.324
30
0
11
-3031.089779
21
-4949.3245
31
0
0
LINE
8
PIPES
10
-7361.215932
20
-2449.325
30
0
11
-7794.228634
21
-2199.325
31
0
0
LINE
8
PIPES
10
-6928.202364
20
-2199.3245
30
0
11
-7361.215932
21
-2449.325
31
0
0
LINE
8
PIPES
10
7361.215066
20
1050.6755
30
0
11
6062.177826
21
1800.675
31
0
0
LINE
8
PIPES
10
6928.202364
20
800.6755
30
0
11
7361.215066
21
1050.6755
31
0
0
LINE
8
PIPES
10
3031.088913
20
3550.675
30
0
11
2598.076211
21
3800.675
31
0
0
LINE
8
PIPES
10
2598.076211
20
3300.675
30
0
11
3031.088913
21
3550.675
31
0
0
LINE
8
PIPES
10
288.672248
20
4867.05
30
0
11
288.672248
21
5166.67
31
0
0
LINE
8
PIPES
10
1443.40454
20
5533.735
30
0
11
1443.40454
21
5833.355
31
0
0
LINE
8
PIPES
10
5484.824671
20
1473.43
30
0
11
5237.1033
21
1634.862
31
0
0
LINE
8
PIPES
10
3750.773344
20
2603.485
30
0
11
3503.341226
21
2765.08
31
0
0
LINE
8
PIPES
10
2018.722537
20
3734.685
30
0
11
1771.576207
21
3896.445
31
0
0
LINE
8
PIPES
10
5484.824671
20
1773.05
30
0
11
5237.1033
21
1934.482
31
0
0
LINE
8
PIPES
10
3750.773344
20
2903.105
30
0
11
3503.341226
21
3064.7
31
0
0
LINE
8
PIPES
10
2018.722537
20
4034.305
30
0
11
1771.576207
21
4196.065
31
0
0
LINE
8
PIPES
10
6639.556963
20
2140.115
30
0
11
4905.167887
21
3269.975
31
0
0
LINE
8
PIPES
10
4905.167887
20
3269.975
30
0
11
3173.117079
21
4401.175
31
0
0
LINE
8
PIPES
10
3173.117079
20
4401.175
30
0
11
1443.40454
21
5533.735
31
0
0
LINE
8
PIPES
10
6639.556963
20
2439.735
30
0
11
4905.167887
21
3569.595
31
0
0
LINE
8
PIPES
10
4905.167887
20
3569.595
30
0
11
3173.117079
21
4700.795
31
0
0
LINE
8
PIPES
10
3173.117079
20
4700.795
30
0
11
1443.40454
21
5833.355
31
0
0
LINE
8
PIPES
10
4330.127019
20
806.765
30
0
11
2596.361481
21
1936.985
31
0
0
LINE
8
PIPES
10
2596.361481
20
1936.985
30
0
11
864.310673
21
3068.185
31
0
0
LINE
8
PIPES
10
864.310673
20
3068.185
30
0
11
-866.025404
21
4200.385
31
0
0
LINE
8
PIPES
10
4330.127019
20
1106.385
30
0
11
2596.361481
21
2236.605
31
0
0
LINE
8
PIPES
10
2596.361481
20
2236.605
30
0
11
864.310673
21
3367.805
31
0
0
LINE
8
PIPES
10
864.310673
20
3367.805
30
0
11
-866.025404
21
4500.005
31
0
0
LINE
8
PIPES
10
-3175.429367
20
2017.82
30
0
11
-3175.429367
21
2867.05
31
0
0
LINE
8
PIPES
10
-3175.429367
20
3166.67
30
0
11
-3175.429367
21
2883.26
31
0
0
LINE
8
PIPES
10
-2020.723055
20
3533.72
30
0
11
-2020.723055
21
2684.49
31
0
0
LINE
8
PIPES
10
-2020.723055
20
3833.34
30
0
11
-2020.723055
21
3533.72
31
0
0
LINE
8
PIPES
10
-7794.228634
20
200.385
30
0
11
-7794.228634
21
500.005
31
0
0
LINE
8
PIPES
10
2598.076211
20
6200.385
30
0
11
2598.076211
21
6500.005
31
0
0
LINE
8
PIPES
10
-6639.530982
20
867.05
30
0
11
-6639.530982
21
1166.67
31
0
0
LINE
8
PIPES
10
-5484.824671
20
1533.72
30
0
11
-5484.824671
21
1833.34
31
0
0
LINE
8
PIPES
10
-4330.127019
20
2200.385
30
0
11
-4330.127019
21
2500.005
31
0
0
LINE
8
PIPES
10
-866.025404
20
4200.385
30
0
11
-866.025404
21
4500.005
31
0
0
LINE
8
PIPES
10
-3175.429367
20
2867.05
30
0
11
-3175.429367
21
2883.26
31
0
0
LINE
8
PIPES
10
-1443.37856
20
-2526.57
30
0
11
-4330.127019
21
-2062.025
31
0
0
LINE
8
PIPES
10
-4330.127019
20
-2062.025
30
0
11
-4907.480175
21
-264.16
31
0
0
LINE
8
PIPES
10
-4907.480175
20
-264.16
30
0
11
-7794.228634
21
200.385
31
0
0
LINE
8
PIPES
10
-1443.37856
20
-2526.57
30
0
11
-2020.723055
21
-728.69
31
0
0
LINE
8
PIPES
10
-2020.723055
20
-728.69
30
0
11
-4907.480175
21
-264.16
31
0
0
LINE
8
PIPES
10
-4907.480175
20
-264.16
30
0
11
-5484.824671
21
1533.72
31
0
0
LINE
8
PIPES
10
-5484.824671
20
1533.72
30
0
11
-2598.076211
21
1069.175
31
0
0
LINE
8
PIPES
10
-2598.076211
20
1069.175
30
0
11
-2020.723055
21
-728.69
31
0
0
LINE
8
PIPES
10
-2020.723055
20
-728.69
30
0
11
866.025404
21
-1193.235
31
0
0
LINE
8
PIPES
10
866.025404
20
-1193.235
30
0
11
287.529094
21
603.98
31
0
0
LINE
8
PIPES
10
287.529094
20
603.98
30
0
11
-2598.076211
21
1069.175
31
0
0
LINE
8
PIPES
10
-2598.076211
20
1069.175
30
0
11
-3175.429367
21
2867.05
31
0
0
LINE
8
PIPES
10
-3175.429367
20
2867.05
30
0
11
-290.10985
21
2401.68
31
0
0
LINE
8
PIPES
10
-290.10985
20
2401.68
30
0
11
287.529094
21
603.98
31
0
0
LINE
8
PIPES
10
287.529094
20
603.98
30
0
11
3175.429367
21
140.1
31
0
0
LINE
8
PIPES
10
3175.429367
20
140.1
30
0
11
2596.361481
21
1936.985
31
0
0
LINE
8
PIPES
10
2596.361481
20
1936.985
30
0
11
-290.10985
21
2401.68
31
0
0
LINE
8
PIPES
10
-290.10985
20
2401.68
30
0
11
-866.025404
21
4200.385
31
0
0
LINE
8
PIPES
10
-866.025404
20
4200.385
30
0
11
2018.722537
21
3734.685
31
0
0
LINE
8
PIPES
10
2018.722537
20
3734.685
30
0
11
2596.361481
21
1936.985
31
0
0
LINE
8
PIPES
10
2596.361481
20
1936.985
30
0
11
5484.824671
21
1473.43
31
0
0
LINE
8
PIPES
10
5484.824671
20
1473.43
30
0
11
4905.167887
21
3269.975
31
0
0
LINE
8
PIPES
10
4905.167887
20
3269.975
30
0
11
2018.722537
21
3734.685
31
0
0
LINE
8
PIPES
10
2018.722537
20
3734.685
30
0
11
1443.40454
21
5533.735
31
0
0
LINE
8
PIPES
10
1443.40454
20
5533.735
30
0
11
4327.528943
21
5067.675
31
0
0
LINE
8
PIPES
10
4327.528943
20
5067.675
30
0
11
4905.167887
21
3269.975
31
0
0
LINE
8
PIPES
10
4905.167887
20
3269.975
30
0
11
7794.228634
21
2806.765
31
0
0
LINE
8
PIPES
10
-2598.076211
20
-2893.615
30
0
11
-3175.429367
21
-1095.74
31
0
0
LINE
8
PIPES
10
-3175.429367
20
-1095.74
30
0
11
-6062.177826
21
-631.205
31
0
0
LINE
8
PIPES
10
-6062.177826
20
-631.205
30
0
11
-6639.530982
21
1166.67
31
0
0
LINE
8
PIPES
10
-6639.530982
20
1166.67
30
0
11
-3752.773863
21
702.13
31
0
0
LINE
8
PIPES
10
-3752.773863
20
702.13
30
0
11
-3175.429367
21
-1095.74
31
0
0
LINE
8
PIPES
10
-3175.429367
20
-1095.74
30
0
11
-288.672248
21
-1560.28
31
0
0
LINE
8
PIPES
10
-288.672248
20
-1560.28
30
0
11
-866.025404
21
237.595
31
0
0
LINE
8
PIPES
10
-866.025404
20
237.595
30
0
11
-3752.773863
21
702.13
31
0
0
LINE
8
PIPES
10
-3752.773863
20
702.13
30
0
11
-4330.127019
21
2500.005
31
0
0
LINE
8
PIPES
10
-4330.127019
20
2500.005
30
0
11
-1444.521713
21
2034.8
31
0
0
LINE
8
PIPES
10
-1444.521713
20
2034.8
30
0
11
-866.025404
21
237.595
31
0
0
LINE
8
PIPES
10
-866.025404
20
237.595
30
0
11
2020.723055
21
-226.95
31
0
0
LINE
8
PIPES
10
2020.723055
20
-226.95
30
0
11
1441.940958
21
1570.1
31
0
0
LINE
8
PIPES
10
1441.940958
20
1570.1
30
0
11
-1444.521713
21
2034.8
31
0
0
LINE
8
PIPES
10
-1444.521713
20
2034.8
30
0
11
-2020.723055
21
3833.34
31
0
0
LINE
8
PIPES
10
-2020.723055
20
3833.34
30
0
11
864.310673
21
3367.805
31
0
0
LINE
8
PIPES
10
864.310673
20
3367.805
30
0
11
1441.940958
21
1570.1
31
0
0
LINE
8
PIPES
10
1441.940958
20
1570.1
30
0
11
4330.127019
21
1106.385
31
0
0
LINE
8
PIPES
10
4330.127019
20
1106.385
30
0
11
3750.773344
21
2903.105
31
0
0
LINE
8
PIPES
10
3750.773344
20
2903.105
30
0
11
864.310673
21
3367.805
31
0
0
LINE
8
PIPES
10
864.310673
20
3367.805
30
0
11
288.672248
21
5166.67
31
0
0
LINE
8
PIPES
10
288.672248
20
5166.67
30
0
11
3173.117079
21
4700.795
31
0
0
LINE
8
PIPES
10
3173.117079
20
4700.795
30
0
11
3750.773344
21
2903.105
31
0
0
LINE
8
PIPES
10
3750.773344
20
2903.105
30
0
11
6639.556963
21
2439.735
31
0
0
LINE
8
PIPES
10
6639.556963
20
2439.735
30
0
11
6062.177826
21
4237.595
31
0
0
LINE
8
PIPES
10
6062.177826
20
4237.595
30
0
11
3173.117079
21
4700.795
31
0
0
LINE
8
PIPES
10
3173.117079
20
4700.795
30
0
11
2598.076211
21
6500.005
31
0
0
LINE
8
PIPES
10
-2598.076211
20
-2893.615
30
0
11
-1443.37856
21
-2526.57
31
0
0
LINE
8
PIPES
10
-1443.37856
20
-2526.57
30
0
11
-288.672248
21
-1560.28
31
0
0
LINE
8
PIPES
10
-288.672248
20
-1560.28
30
0
11
866.025404
21
-1193.235
31
0
0
LINE
8
PIPES
10
866.025404
20
-1193.235
30
0
11
2020.723055
21
-226.95
31
0
0
LINE
8
PIPES
10
2020.723055
20
-226.95
30
0
11
3175.429367
21
140.1
31
0
0
LINE
8
PIPES
10
3175.429367
20
140.1
30
0
11
4330.127019
21
1106.385
31
0
0
LINE
8
PIPES
10
4330.127019
20
1106.385
30
0
11
5484.824671
21
1473.43
31
0
0
LINE
8
PIPES
10
5484.824671
20
1473.43
30
0
11
6639.556963
21
2439.735
31
0
0
LINE
8
PIPES
10
6639.556963
20
2439.735
30
0
11
7794.228634
21
2806.765
31
0
0
LINE
8
PIPES
10
-4330.127019
20
-2062.025
30
0
11
-3175.429367
21
-1095.74
31
0
0
LINE
8
PIPES
10
-3175.429367
20
-1095.74
30
0
11
-2020.723055
21
-728.69
31
0
0
LINE
8
PIPES
10
-2020.723055
20
-728.69
30
0
11
-866.025404
21
237.595
31
0
0
LINE
8
PIPES
10
-866.025404
20
237.595
30
0
11
287.529094
21
603.98
31
0
0
LINE
8
PIPES
10
287.529094
20
603.98
30
0
11
1441.940958
21
1570.1
31
0
0
LINE
8
PIPES
10
1441.940958
20
1570.1
30
0
11
2596.361481
21
1936.985
31
0
0
LINE
8
PIPES
10
2596.361481
20
1936.985
30
0
11
3750.773344
21
2903.105
31
0
0
LINE
8
PIPES
10
3750.773344
20
2903.105
30
0
11
4905.167887
21
3269.975
31
0
0
LINE
8
PIPES
10
4905.167887
20
3269.975
30
0
11
6062.177826
21
4237.595
31
0
0
LINE
8
PIPES
10
-6062.177826
20
-631.205
30
0
11
-4907.480175
21
-264.16
31
0
0
LINE
8
PIPES
10
-4907.480175
20
-264.16
30
0
11
-3752.773863
21
702.13
31
0
0
LINE
8
PIPES
10
-3752.773863
20
702.13
30
0
11
-2598.076211
21
1069.175
31
0
0
LINE
8
PIPES
10
-2598.076211
20
1069.175
30
0
11
-1444.521713
21
2034.8
31
0
0
LINE
8
PIPES
10
-1444.521713
20
2034.8
30
0
11
-290.10985
21
2401.68
31
0
0
LINE
8
PIPES
10
-290.10985
20
2401.68
30
0
11
864.310673
21
3367.805
31
0
0
LINE
8
PIPES
10
864.310673
20
3367.805
30
0
11
2018.722537
21
3734.685
31
0
0
LINE
8
PIPES
10
2018.722537
20
3734.685
30
0
11
3173.117079
21
4700.795
31
0
0
LINE
8
PIPES
10
3173.117079
20
4700.795
30
0
11
4327.528943
21
5067.675
31
0
0
LINE
8
PIPES
10
-7794.228634
20
200.385
30
0
11
-6639.530982
21
1166.67
31
0
0
LINE
8
PIPES
10
-6639.530982
20
1166.67
30
0
11
-5484.824671
21
1533.72
31
0
0
LINE
8
PIPES
10
-5484.824671
20
1533.72
30
0
11
-4330.127019
21
2500.005
31
0
0
LINE
8
PIPES
10
-4330.127019
20
2500.005
30
0
11
-3175.429367
21
2867.05
31
0
0
LINE
8
PIPES
10
-3175.429367
20
2867.05
30
0
11
-2020.723055
21
3833.34
31
0
0
LINE
8
PIPES
10
-2020.723055
20
3833.34
30
0
11
-866.025404
21
4200.385
31
0
0
LINE
8
PIPES
10
-866.025404
20
4200.385
30
0
11
288.672248
21
5166.67
31
0
0
LINE
8
PIPES
10
288.672248
20
5166.67
30
0
11
1443.40454
21
5533.735
31
0
0
LINE
8
PIPES
10
1443.40454
20
5533.735
30
0
11
2598.076211
21
6500.005
31
0
0
LINE
8
PIPES
10
-7546.796516
20
38.79
30
0
11
-7299.355738
21
-122.82
31
0
0
LINE
8
PIPES
10
-7299.355738
20
-122.82
30
0
11
-7051.923619
21
-284.415
31
0
0
LINE
8
PIPES
10
-7051.923619
20
-284.415
30
0
11
-6804.482841
21
-446.025
31
0
0
LINE
8
PIPES
10
-6804.482841
20
-446.025
30
0
11
-6557.050723
21
-607.62
31
0
0
LINE
8
PIPES
10
-6557.050723
20
-607.62
30
0
11
-6309.609945
21
-769.23
31
0
0
LINE
8
PIPES
10
-6309.609945
20
-769.23
30
0
11
-6062.177826
21
-930.825
31
0
0
LINE
8
PIPES
10
-6309.609945
20
-469.61
30
0
11
-6557.050723
21
-308
31
0
0
LINE
8
PIPES
10
-6557.050723
20
-308
30
0
11
-6804.482841
21
-146.405
31
0
0
LINE
8
PIPES
10
-6804.482841
20
-146.405
30
0
11
-7051.923619
21
15.205
31
0
0
LINE
8
PIPES
10
-7051.923619
20
15.205
30
0
11
-7299.355738
21
176.8
31
0
0
LINE
8
PIPES
10
-7299.355738
20
176.8
30
0
11
-7546.796516
21
338.41
31
0
0
LINE
8
PIPES
10
-7546.796516
20
338.41
30
0
11
-7794.228634
21
500.005
31
0
0
LINE
8
PIPES
10
-7546.796516
20
338.41
30
0
11
-7546.796516
21
38.79
31
0
0
LINE
8
PIPES
10
-7299.355738
20
176.8
30
0
11
-7299.355738
21
-122.82
31
0
0
LINE
8
PIPES
10
-7051.923619
20
15.205
30
0
11
-7051.923619
21
-284.415
31
0
0
LINE
8
PIPES
10
-6804.482841
20
-146.405
30
0
11
-6804.482841
21
-446.025
31
0
0
LINE
8
PIPES
10
-6557.050723
20
-308
30
0
11
-6557.050723
21
-607.62
31
0
0
LINE
8
PIPES
10
-6309.609945
20
-469.61
30
0
11
-6309.609945
21
-769.23
31
0
0
LINE
8
PIPES
10
-4577.559137
20
-1600.81
30
0
11
-4824.999915
21
-1439.2
31
0
0
LINE
8
PIPES
10
-4824.999915
20
-1439.2
30
0
11
-5072.432034
21
-1277.605
31
0
0
LINE
8
PIPES
10
-5072.432034
20
-1277.605
30
0
11
-5319.872812
21
-1116.005
31
0
0
LINE
8
PIPES
10
-5319.872812
20
-1116.005
30
0
11
-5567.30493
21
-954.41
31
0
0
LINE
8
PIPES
10
-5567.30493
20
-954.41
30
0
11
-5814.745708
21
-792.8
31
0
0
LINE
8
PIPES
10
-5814.745708
20
-792.8
30
0
11
-6062.177826
21
-631.205
31
0
0
LINE
8
PIPES
10
-5814.745708
20
-1092.42
30
0
11
-5567.30493
21
-1254.03
31
0
0
LINE
8
PIPES
10
-5567.30493
20
-1254.03
30
0
11
-5319.872812
21
-1415.625
31
0
0
LINE
8
PIPES
10
-5319.872812
20
-1415.625
30
0
11
-5072.432034
21
-1577.225
31
0
0
LINE
8
PIPES
10
-5072.432034
20
-1577.225
30
0
11
-4824.999915
21
-1738.82
31
0
0
LINE
8
PIPES
10
-4824.999915
20
-1738.82
30
0
11
-4577.559137
21
-1900.43
31
0
0
LINE
8
PIPES
10
-4577.559137
20
-1900.43
30
0
11
-4330.127019
21
-2062.025
31
0
0
LINE
8
PIPES
10
-5567.30493
20
-1254.03
30
0
11
-5567.30493
21
-954.41
31
0
0
LINE
8
PIPES
10
-5814.745708
20
-1092.42
30
0
11
-5814.745708
21
-792.8
31
0
0
LINE
8
PIPES
10
-5319.872812
20
-1415.625
30
0
11
-5319.872812
21
-1116.005
31
0
0
LINE
8
PIPES
10
-5072.432034
20
-1577.225
30
0
11
-5072.432034
21
-1277.605
31
0
0
LINE
8
PIPES
10
-4824.999915
20
-1738.82
30
0
11
-4824.999915
21
-1439.2
31
0
0
LINE
8
PIPES
10
-4577.559137
20
-1900.43
30
0
11
-4577.559137
21
-1600.81
31
0
0
LINE
8
PIPES
10
-2845.511794
20
-2732.018
30
0
11
-3092.948242
21
-2570.4105
31
0
0
LINE
8
PIPES
10
-3092.948242
20
-2570.4105
30
0
11
-3340.383824
21
-2408.8135
31
0
0
LINE
8
PIPES
10
-3340.383824
20
-2408.8135
30
0
11
-3587.822004
21
-2247.205
31
0
0
LINE
8
PIPES
10
-3587.822004
20
-2247.205
30
0
11
-3835.254122
21
-2085.61
31
0
0
LINE
8
PIPES
10
-3835.254122
20
-2085.61
30
0
11
-4082.694901
21
-1924
31
0
0
LINE
8
PIPES
10
-4082.694901
20
-1924
30
0
11
-4330.127019
21
-1762.405
31
0
0
LINE
8
PIPES
10
-4082.694901
20
-2223.62
30
0
11
-3835.254122
21
-2385.23
31
0
0
LINE
8
PIPES
10
-3835.254122
20
-2385.23
30
0
11
-3587.822004
21
-2546.825
31
0
0
LINE
8
PIPES
10
-3587.822004
20
-2546.825
30
0
11
-3340.383824
21
-2708.4335
31
0
0
LINE
8
PIPES
10
-3340.383824
20
-2708.4335
30
0
11
-3092.948242
21
-2870.0305
31
0
0
LINE
8
PIPES
10
-3092.948242
20
-2870.0305
30
0
11
-2845.511794
21
-3031.638
31
0
0
LINE
8
PIPES
10
-2845.511794
20
-3031.638
30
0
11
-2598.076211
21
-3193.235
31
0
0
LINE
8
PIPES
10
-3587.822004
20
-2546.825
30
0
11
-3587.822004
21
-2247.205
31
0
0
LINE
8
PIPES
10
-4082.694901
20
-1924
30
0
11
-4082.694901
21
-2223.62
31
0
0
LINE
8
PIPES
10
-3835.254122
20
-2085.61
30
0
11
-3835.254122
21
-2385.23
31
0
0
LINE
8
PIPES
10
-3340.383824
20
-2408.8135
30
0
11
-3340.383824
21
-2708.4335
31
0
0
LINE
8
PIPES
10
-3092.948242
20
-2570.4105
30
0
11
-3092.948242
21
-2870.0305
31
0
0
LINE
8
PIPES
10
-2845.511794
20
-3031.638
30
0
11
-2845.511794
21
-2732.018
31
0
0
LINE
8
PIPES
10
-4000.205981
20
863.725
30
0
11
-4247.646759
21
1025.335
31
0
0
LINE
8
PIPES
10
-4247.646759
20
1025.335
30
0
11
-4495.078878
21
1186.93
31
0
0
LINE
8
PIPES
10
-4495.078878
20
1186.93
30
0
11
-4742.519656
21
1348.54
31
0
0
LINE
8
PIPES
10
-4742.519656
20
1348.54
30
0
11
-4989.951774
21
1510.135
31
0
0
LINE
8
PIPES
10
-4989.951774
20
1510.135
30
0
11
-5237.392552
21
1671.745
31
0
0
LINE
8
PIPES
10
-5237.392552
20
1671.745
30
0
11
-5484.824671
21
1833.34
31
0
0
LINE
8
PIPES
10
-4000.205981
20
564.105
30
0
11
-4247.646759
21
725.715
31
0
0
LINE
8
PIPES
10
-4247.646759
20
725.715
30
0
11
-4495.078878
21
887.31
31
0
0
LINE
8
PIPES
10
-4495.078878
20
887.31
30
0
11
-4742.519656
21
1048.92
31
0
0
LINE
8
PIPES
10
-4742.519656
20
1048.92
30
0
11
-4989.951774
21
1210.515
31
0
0
LINE
8
PIPES
10
-4989.951774
20
1210.515
30
0
11
-5237.392552
21
1372.125
31
0
0
LINE
8
PIPES
10
-5237.392552
20
1372.125
30
0
11
-5484.824671
21
1533.72
31
0
0
LINE
8
PIPES
10
-2268.155174
20
-267.475
30
0
11
-2515.595952
21
-105.865
31
0
0
LINE
8
PIPES
10
-2515.595952
20
-105.865
30
0
11
-2763.02807
21
55.73
31
0
0
LINE
8
PIPES
10
-2763.02807
20
55.73
30
0
11
-3010.468848
21
217.33
31
0
0
LINE
8
PIPES
10
-3010.468848
20
217.33
30
0
11
-3257.900966
21
378.925
31
0
0
LINE
8
PIPES
10
-3257.900966
20
378.925
30
0
11
-3505.341745
21
540.535
31
0
0
LINE
8
PIPES
10
-3505.341745
20
540.535
30
0
11
-3752.773863
21
702.13
31
0
0
LINE
8
PIPES
10
-2268.155174
20
-567.095
30
0
11
-2515.595952
21
-405.485
31
0
0
LINE
8
PIPES
10
-2515.595952
20
-405.485
30
0
11
-2763.02807
21
-243.89
31
0
0
LINE
8
PIPES
10
-2763.02807
20
-243.89
30
0
11
-3010.468848
21
-82.29
31
0
0
LINE
8
PIPES
10
-3010.468848
20
-82.29
30
0
11
-3257.900966
21
79.305
31
0
0
LINE
8
PIPES
10
-3257.900966
20
79.305
30
0
11
-3505.341745
21
240.915
31
0
0
LINE
8
PIPES
10
-3505.341745
20
240.915
30
0
11
-3752.773863
21
402.51
31
0
0
LINE
8
PIPES
10
-536.10783
20
-1398.683
30
0
11
-783.544278
21
-1237.0755
31
0
0
LINE
8
PIPES
10
-783.544278
20
-1237.0755
30
0
11
-1030.979861
21
-1075.4785
31
0
0
LINE
8
PIPES
10
-1030.979861
20
-1075.4785
30
0
11
-1278.418041
21
-913.87
31
0
0
LINE
8
PIPES
10
-1278.418041
20
-913.87
30
0
11
-1525.850159
21
-752.275
31
0
0
LINE
8
PIPES
10
-1525.850159
20
-752.275
30
0
11
-1773.290937
21
-590.665
31
0
0
LINE
8
PIPES
10
-1773.290937
20
-590.665
30
0
11
-2020.723055
21
-429.07
31
0
0
LINE
8
PIPES
10
-536.10783
20
-1698.303
30
0
11
-783.544278
21
-1536.6955
31
0
0
LINE
8
PIPES
10
-783.544278
20
-1536.6955
30
0
11
-1030.979861
21
-1375.0985
31
0
0
LINE
8
PIPES
10
-1030.979861
20
-1375.0985
30
0
11
-1278.418041
21
-1213.49
31
0
0
LINE
8
PIPES
10
-1278.418041
20
-1213.49
30
0
11
-1525.850159
21
-1051.895
31
0
0
LINE
8
PIPES
10
-1525.850159
20
-1051.895
30
0
11
-1773.290937
21
-890.285
31
0
0
LINE
8
PIPES
10
-1773.290937
20
-890.285
30
0
11
-2020.723055
21
-728.69
31
0
0
LINE
8
PIPES
10
-5237.392552
20
1671.745
30
0
11
-5237.392552
21
1372.125
31
0
0
LINE
8
PIPES
10
-4989.951774
20
1510.135
30
0
11
-4989.951774
21
1210.515
31
0
0
LINE
8
PIPES
10
-4742.519656
20
1348.54
30
0
11
-4742.519656
21
1048.92
31
0
0
LINE
8
PIPES
10
-4495.078878
20
1186.93
30
0
11
-4495.078878
21
887.31
31
0
0
LINE
8
PIPES
10
-4247.646759
20
1025.335
30
0
11
-4247.646759
21
725.715
31
0
0
LINE
8
PIPES
10
-4000.205981
20
863.725
30
0
11
-4000.205981
21
564.105
31
0
0
LINE
8
PIPES
10
-3505.341745
20
540.535
30
0
11
-3505.341745
21
240.915
31
0
0
LINE
8
PIPES
10
-3257.900966
20
378.925
30
0
11
-3257.900966
21
79.305
31
0
0
LINE
8
PIPES
10
-3010.468848
20
217.33
30
0
11
-3010.468848
21
-82.29
31
0
0
LINE
8
PIPES
10
-2763.02807
20
-243.89
30
0
11
-2763.02807
21
55.73
31
0
0
LINE
8
PIPES
10
-2515.595952
20
-105.865
30
0
11
-2515.595952
21
-405.485
31
0
0
LINE
8
PIPES
10
-2268.155174
20
-267.475
30
0
11
-2268.155174
21
-567.095
31
0
0
LINE
8
PIPES
10
-1773.290937
20
-590.665
30
0
11
-1773.290937
21
-890.285
31
0
0
LINE
8
PIPES
10
-1525.850159
20
-752.275
30
0
11
-1525.850159
21
-1051.895
31
0
0
LINE
8
PIPES
10
-1278.418041
20
-913.87
30
0
11
-1278.418041
21
-1213.49
31
0
0
LINE
8
PIPES
10
-1030.979861
20
-1075.4785
30
0
11
-1030.979861
21
-1375.0985
31
0
0
LINE
8
PIPES
10
-783.544278
20
-1237.0755
30
0
11
-783.544278
21
-1536.6955
31
0
0
LINE
8
PIPES
10
-536.10783
20
-1398.683
30
0
11
-536.10783
21
-1698.303
31
0
0
LINE
8
PIPES
10
6309.609945
20
4076
30
0
11
6557.050723
21
3914.39
31
0
0
LINE
8
PIPES
10
6557.050723
20
3914.39
30
0
11
6804.482841
21
3752.795
31
0
0
LINE
8
PIPES
10
6804.482841
20
3752.795
30
0
11
7051.921021
21
3591.1865
31
0
0
LINE
8
PIPES
10
7051.921021
20
3591.1865
30
0
11
7299.356604
21
3429.5895
31
0
0
LINE
8
PIPES
10
7299.356604
20
3429.5895
30
0
11
7546.793052
21
3267.982
31
0
0
LINE
8
PIPES
10
7546.793052
20
3267.982
30
0
11
7794.228634
21
3106.385
31
0
0
LINE
8
PIPES
10
6309.609945
20
3776.38
30
0
11
6557.050723
21
3614.77
31
0
0
LINE
8
PIPES
10
6557.050723
20
3614.77
30
0
11
6804.482841
21
3453.175
31
0
0
LINE
8
PIPES
10
6804.482841
20
3453.175
30
0
11
7051.921021
21
3291.5665
31
0
0
LINE
8
PIPES
10
7051.921021
20
3291.5665
30
0
11
7299.356604
21
3129.9695
31
0
0
LINE
8
PIPES
10
7299.356604
20
3129.9695
30
0
11
7546.793052
21
2968.362
31
0
0
LINE
8
PIPES
10
7546.793052
20
2968.362
30
0
11
7794.228634
21
2806.765
31
0
0
LINE
8
PIPES
10
4577.559137
20
5207.2
30
0
11
4824.999915
21
5045.59
31
0
0
LINE
8
PIPES
10
4824.999915
20
5045.59
30
0
11
5072.432034
21
4883.995
31
0
0
LINE
8
PIPES
10
5072.432034
20
4883.995
30
0
11
5319.872812
21
4722.395
31
0
0
LINE
8
PIPES
10
5319.872812
20
4722.395
30
0
11
5567.30493
21
4560.8
31
0
0
LINE
8
PIPES
10
5567.30493
20
4560.8
30
0
11
5814.745708
21
4399.19
31
0
0
LINE
8
PIPES
10
5814.745708
20
4399.19
30
0
11
6062.177826
21
4237.595
31
0
0
LINE
8
PIPES
10
4577.559137
20
4907.58
30
0
11
4824.999915
21
4745.97
31
0
0
LINE
8
PIPES
10
4824.999915
20
4745.97
30
0
11
5072.432034
21
4584.375
31
0
0
LINE
8
PIPES
10
5072.432034
20
4584.375
30
0
11
5319.872812
21
4422.775
31
0
0
LINE
8
PIPES
10
5319.872812
20
4422.775
30
0
11
5567.30493
21
4261.18
31
0
0
LINE
8
PIPES
10
5567.30493
20
4261.18
30
0
11
5814.745708
21
4099.57
31
0
0
LINE
8
PIPES
10
5814.745708
20
4099.57
30
0
11
6062.177826
21
3937.975
31
0
0
LINE
8
PIPES
10
2845.508329
20
6338.41
30
0
11
3092.949108
21
6176.8
31
0
0
LINE
8
PIPES
10
3092.949108
20
6176.8
30
0
11
3340.381226
21
6015.205
31
0
0
LINE
8
PIPES
10
3340.381226
20
6015.205
30
0
11
3587.822004
21
5853.595
31
0
0
LINE
8
PIPES
10
3587.822004
20
5853.595
30
0
11
3835.254122
21
5692
31
0
0
LINE
8
PIPES
10
3835.254122
20
5692
30
0
11
4082.694901
21
5530.39
31
0
0
LINE
8
PIPES
10
4082.694901
20
5530.39
30
0
11
4330.127019
21
5368.795
31
0
0
LINE
8
PIPES
10
2845.508329
20
6038.79
30
0
11
3092.949108
21
5877.18
31
0
0
LINE
8
PIPES
10
3092.949108
20
5877.18
30
0
11
3340.381226
21
5715.585
31
0
0
LINE
8
PIPES
10
3340.381226
20
5715.585
30
0
11
3587.822004
21
5553.975
31
0
0
LINE
8
PIPES
10
3587.822004
20
5553.975
30
0
11
3835.254122
21
5392.38
31
0
0
LINE
8
PIPES
10
3835.254122
20
5392.38
30
0
11
4082.694901
21
5230.77
31
0
0
LINE
8
PIPES
10
4082.694901
20
5230.77
30
0
11
4330.127019
21
5069.175
31
0
0
LINE
8
PIPES
10
5237.1033
20
1934.482
30
0
11
4989.381063
21
2095.9245
31
0
0
LINE
8
PIPES
10
4989.381063
20
2095.9245
30
0
11
4741.659693
21
2257.3565
31
0
0
LINE
8
PIPES
10
4741.659693
20
2257.3565
30
0
11
4493.935724
21
2418.8
31
0
0
LINE
8
PIPES
10
4493.935724
20
2418.8
30
0
11
4246.217818
21
2580.23
31
0
0
LINE
8
PIPES
10
4246.217818
20
2580.23
30
0
11
3998.491251
21
2741.675
31
0
0
LINE
8
PIPES
10
3998.491251
20
2741.675
30
0
11
3750.773344
21
2903.105
31
0
0
LINE
8
PIPES
10
5237.1033
20
1634.862
30
0
11
4989.381063
21
1796.3045
31
0
0
LINE
8
PIPES
10
4989.381063
20
1796.3045
30
0
11
4741.659693
21
1957.7365
31
0
0
LINE
8
PIPES
10
4741.659693
20
1957.7365
30
0
11
4493.935724
21
2119.18
31
0
0
LINE
8
PIPES
10
4493.935724
20
2119.18
30
0
11
4246.217818
21
2280.61
31
0
0
LINE
8
PIPES
10
4246.217818
20
2280.61
30
0
11
3998.491251
21
2442.055
31
0
0
LINE
8
PIPES
10
3998.491251
20
2442.055
30
0
11
3750.773344
21
2603.485
31
0
0
LINE
8
PIPES
10
3503.341226
20
3064.7
30
0
11
3255.900448
21
3226.31
31
0
0
LINE
8
PIPES
10
3255.900448
20
3226.31
30
0
11
3008.46833
21
3387.905
31
0
0
LINE
8
PIPES
10
3008.46833
20
3387.905
30
0
11
2761.027551
21
3549.505
31
0
0
LINE
8
PIPES
10
2761.027551
20
3549.505
30
0
11
2513.595433
21
3711.1
31
0
0
LINE
8
PIPES
10
2513.595433
20
3711.1
30
0
11
2266.154655
21
3872.71
31
0
0
LINE
8
PIPES
10
2266.154655
20
3872.71
30
0
11
2018.722537
21
4034.305
31
0
0
LINE
8
PIPES
10
3503.341226
20
2765.08
30
0
11
3255.900448
21
2926.69
31
0
0
LINE
8
PIPES
10
3255.900448
20
2926.69
30
0
11
3008.46833
21
3088.285
31
0
0
LINE
8
PIPES
10
3008.46833
20
3088.285
30
0
11
2761.027551
21
3249.885
31
0
0
LINE
8
PIPES
10
2761.027551
20
3249.885
30
0
11
2513.595433
21
3411.48
31
0
0
LINE
8
PIPES
10
2513.595433
20
3411.48
30
0
11
2266.154655
21
3573.09
31
0
0
LINE
8
PIPES
10
2266.154655
20
3573.09
30
0
11
2018.722537
21
3734.685
31
0
0
LINE
8
PIPES
10
1771.576207
20
4196.065
30
0
11
1524.421217
21
4357.84
31
0
0
LINE
8
PIPES
10
1524.421217
20
4357.84
30
0
11
1277.274887
21
4519.6
31
0
0
LINE
8
PIPES
10
1277.274887
20
4519.6
30
0
11
1030.119897
21
4681.375
31
0
0
LINE
8
PIPES
10
1030.119897
20
4681.375
30
0
11
782.973568
21
4843.135
31
0
0
LINE
8
PIPES
10
782.973568
20
4843.135
30
0
11
535.818578
21
5004.91
31
0
0
LINE
8
PIPES
10
535.818578
20
5004.91
30
0
11
288.672248
21
5166.67
31
0
0
LINE
8
PIPES
10
1771.576207
20
3896.445
30
0
11
1524.421217
21
4058.22
31
0
0
LINE
8
PIPES
10
1524.421217
20
4058.22
30
0
11
1277.274887
21
4219.98
31
0
0
LINE
8
PIPES
10
1277.274887
20
4219.98
30
0
11
1030.119897
21
4381.755
31
0
0
LINE
8
PIPES
10
1030.119897
20
4381.755
30
0
11
782.973568
21
4543.515
31
0
0
LINE
8
PIPES
10
782.973568
20
4543.515
30
0
11
535.818578
21
4705.29
31
0
0
LINE
8
PIPES
10
535.818578
20
4705.29
30
0
11
288.672248
21
4867.05
31
0
0
LINE
8
PIPES
10
2845.508329
20
6338.41
30
0
11
2845.508329
21
6038.79
31
0
0
LINE
8
PIPES
10
3092.949108
20
6176.8
30
0
11
3092.949108
21
5877.18
31
0
0
LINE
8
PIPES
10
3340.381226
20
6015.205
30
0
11
3340.381226
21
5715.585
31
0
0
LINE
8
PIPES
10
3587.822004
20
5853.595
30
0
11
3587.822004
21
5553.975
31
0
0
LINE
8
PIPES
10
3835.254122
20
5692
30
0
11
3835.254122
21
5392.38
31
0
0
LINE
8
PIPES
10
4082.694901
20
5530.39
30
0
11
4082.694901
21
5230.77
31
0
0
LINE
8
PIPES
10
4577.559137
20
5207.2
30
0
11
4577.559137
21
4907.58
31
0
0
LINE
8
PIPES
10
4824.999915
20
5045.59
30
0
11
4824.999915
21
4745.97
31
0
0
LINE
8
PIPES
10
5072.432034
20
4883.995
30
0
11
5072.432034
21
4584.375
31
0
0
LINE
8
PIPES
10
5319.872812
20
4722.395
30
0
11
5319.872812
21
4422.775
31
0
0
LINE
8
PIPES
10
5567.30493
20
4560.8
30
0
11
5567.30493
21
4261.18
31
0
0
LINE
8
PIPES
10
5814.745708
20
4399.19
30
0
11
5814.745708
21
4099.57
31
0
0
LINE
8
PIPES
10
6309.609945
20
4076
30
0
11
6309.609945
21
3776.38
31
0
0
LINE
8
PIPES
10
6557.050723
20
3914.39
30
0
11
6557.050723
21
3614.77
31
0
0
LINE
8
PIPES
10
6804.482841
20
3752.795
30
0
11
6804.482841
21
3453.175
31
0
0
LINE
8
PIPES
10
7051.921021
20
3591.1865
30
0
11
7051.921021
21
3291.5665
31
0
0
LINE
8
PIPES
10
7299.356604
20
3429.5895
30
0
11
7299.356604
21
3129.9695
31
0
0
LINE
8
PIPES
10
7546.793052
20
3267.982
30
0
11
7546.793052
21
2968.362
31
0
0
LINE
8
PIPES
10
5237.1033
20
1934.482
30
0
11
5237.1033
21
1634.862
31
0
0
LINE
8
PIPES
10
4989.381063
20
2095.9245
30
0
11
4989.381063
21
1796.3045
31
0
0
LINE
8
PIPES
10
4741.659693
20
2257.3565
30
0
11
4741.659693
21
1957.7365
31
0
0
LINE
8
PIPES
10
4493.935724
20
2418.8
30
0
11
4493.935724
21
2119.18
31
0
0
LINE
8
PIPES
10
4246.217818
20
2580.23
30
0
11
4246.217818
21
2280.61
31
0
0
LINE
8
PIPES
10
3998.491251
20
2741.675
30
0
11
3998.491251
21
2442.055
31
0
0
LINE
8
PIPES
10
3503.341226
20
3064.7
30
0
11
3503.341226
21
2765.08
31
0
0
LINE
8
PIPES
10
3255.900448
20
3226.31
30
0
11
3255.900448
21
2926.69
31
0
0
LINE
8
PIPES
10
3008.46833
20
3387.905
30
0
11
3008.46833
21
3088.285
31
0
0
LINE
8
PIPES
10
2761.027551
20
3549.505
30
0
11
2761.027551
21
3249.885
31
0
0
LINE
8
PIPES
10
2513.595433
20
3711.1
30
0
11
2513.595433
21
3411.48
31
0
0
LINE
8
PIPES
10
2266.154655
20
3872.71
30
0
11
2266.154655
21
3573.09
31
0
0
LINE
8
PIPES
10
1771.576207
20
4196.065
30
0
11
1771.576207
21
3896.445
31
0
0
LINE
8
PIPES
10
1524.421217
20
4357.84
30
0
11
1524.421217
21
4058.22
31
0
0
LINE
8
PIPES
10
1277.274887
20
4519.6
30
0
11
1277.274887
21
4219.98
31
0
0
LINE
8
PIPES
10
1030.119897
20
4681.375
30
0
11
1030.119897
21
4381.755
31
0
0
LINE
8
PIPES
10
782.973568
20
4843.135
30
0
11
782.973568
21
4543.515
31
0
0
LINE
8
PIPES
10
535.818578
20
5004.91
30
0
11
535.818578
21
4705.29
31
0
0
LINE
8
PIPES
10
-1443.37856
20
-2226.95
30
0
11
-3175.429367
21
-1395.36
31
0
0
LINE
8
PIPES
10
-3175.429367
20
-1395.36
30
0
11
-4907.480175
21
35.46
31
0
0
LINE
8
PIPES
10
-4907.480175
20
35.46
30
0
11
-6639.530982
21
867.05
31
0
0
LINE
8
PIPES
10
866.025404
20
-1193.235
30
0
11
-866.025404
21
237.595
31
0
0
LINE
8
PIPES
10
-866.025404
20
237.595
30
0
11
-2598.076211
21
1069.175
31
0
0
LINE
8
PIPES
10
-2598.076211
20
1069.175
30
0
11
-4330.127019
21
2500.005
31
0
0
LINE
8
PIPES
10
4330.127019
20
1106.385
30
0
11
2596.361481
21
1936.985
31
0
0
LINE
8
PIPES
10
2596.361481
20
1936.985
30
0
11
864.310673
21
3367.805
31
0
0
LINE
8
PIPES
10
864.310673
20
3367.805
30
0
11
-866.025404
21
4200.385
31
0
0
LINE
8
PIPES
10
6639.556963
20
2140.115
30
0
11
4905.167887
21
3569.595
31
0
0
LINE
8
PIPES
10
4905.167887
20
3569.595
30
0
11
3173.117079
21
4401.175
31
0
0
LINE
8
PIPES
10
3173.117079
20
4401.175
30
0
11
1443.40454
21
5833.355
31
0
0
LINE
8
PIPES
10
-2598.076211
20
-5648.941
30
0
11
-4330.127019
21
-5200.004
31
0
0
LINE
8
PIPES
10
-4330.127019
20
-5200.004
30
0
11
-6062.177826
21
-3648.941
31
0
0
LINE
8
PIPES
10
-6062.177826
20
-3648.941
30
0
11
-7794.228634
21
-3200.004
31
0
0
LINE
8
PIPES
10
-1443.37856
20
-5533.339
30
0
11
-3175.429367
21
-3982.276
31
0
0
LINE
8
PIPES
10
-3175.429367
20
-3982.276
30
0
11
-4907.480175
21
-3533.339
31
0
0
LINE
8
PIPES
10
-4907.480175
20
-3533.339
30
0
11
-6639.530982
21
-1982.276
31
0
0
LINE
8
PIPES
10
-288.672248
20
-4315.606
30
0
11
-2020.723055
21
-3866.669
31
0
0
LINE
8
PIPES
10
-2020.723055
20
-3866.669
30
0
11
-3752.773863
21
-2315.606
31
0
0
LINE
8
PIPES
10
-3752.773863
20
-2315.606
30
0
11
-5484.824671
21
-1866.669
31
0
0
LINE
8
PIPES
10
866.025404
20
-4200.004
30
0
11
-866.025404
21
-2648.941
31
0
0
LINE
8
PIPES
10
-866.025404
20
-2648.941
30
0
11
-2598.076211
21
-2200.004
31
0
0
LINE
8
PIPES
10
-2598.076211
20
-2200.004
30
0
11
-4330.127019
21
-648.941
31
0
0
LINE
8
PIPES
10
2020.723055
20
-2982.276
30
0
11
288.672248
21
-2533.339
31
0
0
LINE
8
PIPES
10
288.672248
20
-2533.339
30
0
11
-1443.37856
21
-982.276
31
0
0
LINE
8
PIPES
10
-1443.37856
20
-982.276
30
0
11
-3175.429367
21
-533.339
31
0
0
LINE
8
PIPES
10
3175.429367
20
-2866.669
30
0
11
1443.37856
21
-1315.606
31
0
0
LINE
8
PIPES
10
1443.37856
20
-1315.606
30
0
11
-288.672248
21
-866.669
31
0
0
LINE
8
PIPES
10
-288.672248
20
-866.669
30
0
11
-2020.723055
21
684.394
31
0
0
LINE
8
PIPES
10
4330.127019
20
-1648.941
30
0
11
2598.076211
21
-1200.004
31
0
0
LINE
8
PIPES
10
2598.076211
20
-1200.004
30
0
11
866.025404
21
351.059
31
0
0
LINE
8
PIPES
10
866.025404
20
351.059
30
0
11
-866.025404
21
799.996
31
0
0
LINE
8
PIPES
10
5484.824671
20
-1533.339
30
0
11
3752.773863
21
17.724
31
0
0
LINE
8
PIPES
10
3752.773863
20
17.724
30
0
11
2020.723055
21
466.661
31
0
0
LINE
8
PIPES
10
2020.723055
20
466.661
30
0
11
288.672248
21
2017.724
31
0
0
LINE
8
PIPES
10
6639.556963
20
-315.591
30
0
11
4907.506156
21
133.346
31
0
0
LINE
8
PIPES
10
4907.506156
20
133.346
30
0
11
3175.455348
21
1684.409
31
0
0
LINE
8
PIPES
10
3175.455348
20
1684.409
30
0
11
1443.40454
21
2133.346
31
0
0
LINE
8
PIPES
10
7794.228634
20
-200.004
30
0
11
6062.177826
21
1351.059
31
0
0
LINE
8
PIPES
10
6062.177826
20
1351.059
30
0
11
4330.127019
21
1799.996
31
0
0
LINE
8
PIPES
10
4330.127019
20
1799.996
30
0
11
2598.076211
21
3351.059
31
0
0
LINE
8
PIPES
10
-2598.076211
20
-5648.941
30
0
11
-1443.37856
21
-5533.339
31
0
0
LINE
8
PIPES
10
-1443.37856
20
-5533.339
30
0
11
-288.672248
21
-4315.606
31
0
0
LINE
8
PIPES
10
-288.672248
20
-4315.606
30
0
11
866.025404
21
-4200.004
31
0
0
LINE
8
PIPES
10
866.025404
20
-4200.004
30
0
11
2020.723055
21
-2982.276
31
0
0
LINE
8
PIPES
10
2020.723055
20
-2982.276
30
0
11
3175.429367
21
-2866.669
31
0
0
LINE
8
PIPES
10
3175.429367
20
-2866.669
30
0
11
4330.127019
21
-1648.941
31
0
0
LINE
8
PIPES
10
4330.127019
20
-1648.941
30
0
11
5484.824671
21
-1533.339
31
0
0
LINE
8
PIPES
10
5484.824671
20
-1533.339
30
0
11
6639.556963
21
-315.591
31
0
0
LINE
8
PIPES
10
6639.556963
20
-315.591
30
0
11
7794.228634
21
-200.004
31
0
0
LINE
8
PIPES
10
-4330.127019
20
-5200.004
30
0
11
-3175.429367
21
-3982.276
31
0
0
LINE
8
PIPES
10
-3175.429367
20
-3982.276
30
0
11
-2020.723055
21
-3866.669
31
0
0
LINE
8
PIPES
10
-2020.723055
20
-3866.669
30
0
11
-866.025404
21
-2648.941
31
0
0
LINE
8
PIPES
10
-866.025404
20
-2648.941
30
0
11
288.672248
21
-2533.339
31
0
0
LINE
8
PIPES
10
288.672248
20
-2533.339
30
0
11
1443.37856
21
-1315.606
31
0
0
LINE
8
PIPES
10
1443.37856
20
-1315.606
30
0
11
2598.076211
21
-1200.004
31
0
0
LINE
8
PIPES
10
2598.076211
20
-1200.004
30
0
11
3752.773863
21
17.724
31
0
0
LINE
8
PIPES
10
3752.773863
20
17.724
30
0
11
4907.506156
21
133.346
31
0
0
LINE
8
PIPES
10
4907.506156
20
133.346
30
0
11
6062.177826
21
1351.059
31
0
0
LINE
8
PIPES
10
-6062.177826
20
-3648.941
30
0
11
-4907.480175
21
-3533.339
31
0
0
LINE
8
PIPES
10
-4907.480175
20
-3533.339
30
0
11
-3752.773863
21
-2315.606
31
0
0
LINE
8
PIPES
10
-3752.773863
20
-2315.606
30
0
11
-2598.076211
21
-2200.004
31
0
0
LINE
8
PIPES
10
-2598.076211
20
-2200.004
30
0
11
-1443.37856
21
-982.276
31
0
0
LINE
8
PIPES
10
-1443.37856
20
-982.276
30
0
11
-288.672248
21
-866.669
31
0
0
LINE
8
PIPES
10
-288.672248
20
-866.669
30
0
11
866.025404
21
351.059
31
0
0
LINE
8
PIPES
10
866.025404
20
351.059
30
0
11
2020.723055
21
466.661
31
0
0
LINE
8
PIPES
10
2020.723055
20
466.661
30
0
11
3175.455348
21
1684.409
31
0
0
LINE
8
PIPES
10
3175.455348
20
1684.409
30
0
11
4330.127019
21
1799.996
31
0
0
LINE
8
PIPES
10
-7794.228634
20
-3200.004
30
0
11
-6639.530982
21
-1982.276
31
0
0
LINE
8
PIPES
10
-6639.530982
20
-1982.276
30
0
11
-5484.824671
21
-1866.669
31
0
0
LINE
8
PIPES
10
-5484.824671
20
-1866.669
30
0
11
-4330.127019
21
-648.941
31
0
0
LINE
8
PIPES
10
-4330.127019
20
-648.941
30
0
11
-3175.429367
21
-533.339
31
0
0
LINE
8
PIPES
10
-3175.429367
20
-533.339
30
0
11
-2020.723055
21
684.394
31
0
0
LINE
8
PIPES
10
-2020.723055
20
684.394
30
0
11
-866.025404
21
799.996
31
0
0
LINE
8
PIPES
10
-866.025404
20
799.996
30
0
11
288.672248
21
2017.724
31
0
0
LINE
8
PIPES
10
288.672248
20
2017.724
30
0
11
1443.40454
21
2133.346
31
0
0
LINE
8
PIPES
10
1443.40454
20
2133.346
30
0
11
2598.076211
21
3351.059
31
0
0
LINE
8
PIPES
10
-4330.127019
20
-1762.405
30
0
11
-6062.177826
21
-2074.465
31
0
0
LINE
8
PIPES
10
-6062.177826
20
-2074.465
30
0
11
-4330.127019
21
-4199.325
31
0
0
LINE
8
PIPES
10
-4330.127019
20
-4199.325
30
0
11
-6062.177826
21
-4500.005
31
0
0
LINE
8
PIPES
10
4327.528943
20
5367.295
30
0
11
6062.177826
21
2925.535
31
0
0
LINE
8
PIPES
10
6062.177826
20
2925.535
30
0
11
4330.127019
21
2800.675
31
0
0
LINE
8
PIPES
10
4330.127019
20
2800.675
30
0
11
6062.177826
21
499.995
31
0
0
LINE
8
PIPES
10
-2598.076211
20
-6200.004
30
0
11
-3175.429367
21
-4533.339
31
0
0
LINE
8
PIPES
10
-3175.429367
20
-4533.339
30
0
11
-6062.177826
21
-4200.004
31
0
0
LINE
8
PIPES
10
-6062.177826
20
-4200.004
30
0
11
-6639.530982
21
-2533.339
31
0
0
LINE
8
PIPES
10
-6639.530982
20
-2533.339
30
0
11
-3752.773863
21
-2866.669
31
0
0
LINE
8
PIPES
10
-3752.773863
20
-2866.669
30
0
11
-3175.429367
21
-4533.339
31
0
0
LINE
8
PIPES
10
-3175.429367
20
-4533.339
30
0
11
-288.672248
21
-4866.669
31
0
0
LINE
8
PIPES
10
-288.672248
20
-4866.669
30
0
11
-866.025404
21
-3200.004
31
0
0
LINE
8
PIPES
10
-866.025404
20
-3200.004
30
0
11
-3752.773863
21
-2866.669
31
0
0
LINE
8
PIPES
10
-3752.773863
20
-2866.669
30
0
11
-4330.127019
21
-1200.004
31
0
0
LINE
8
PIPES
10
-4330.127019
20
-1200.004
30
0
11
-1443.37856
21
-1533.339
31
0
0
LINE
8
PIPES
10
-1443.37856
20
-1533.339
30
0
11
-866.025404
21
-3200.004
31
0
0
LINE
8
PIPES
10
-866.025404
20
-3200.004
30
0
11
2020.723055
21
-3533.339
31
0
0
LINE
8
PIPES
10
2020.723055
20
-3533.339
30
0
11
1443.37856
21
-1866.669
31
0
0
LINE
8
PIPES
10
1443.37856
20
-1866.669
30
0
11
-1443.37856
21
-1533.339
31
0
0
LINE
8
PIPES
10
-1443.37856
20
-1533.339
30
0
11
-2020.723055
21
133.331
31
0
0
LINE
8
PIPES
10
-2020.723055
20
133.331
30
0
11
866.025404
21
-200.004
31
0
0
LINE
8
PIPES
10
866.025404
20
-200.004
30
0
11
1443.37856
21
-1866.669
31
0
0
LINE
8
PIPES
10
1443.37856
20
-1866.669
30
0
11
4330.127019
21
-2200.004
31
0
0
LINE
8
PIPES
10
4330.127019
20
-2200.004
30
0
11
3752.773863
21
-533.339
31
0
0
LINE
8
PIPES
10
3752.773863
20
-533.339
30
0
11
866.025404
21
-200.004
31
0
0
LINE
8
PIPES
10
866.025404
20
-200.004
30
0
11
288.672248
21
1466.661
31
0
0
LINE
8
PIPES
10
288.672248
20
1466.661
30
0
11
3175.455348
21
1133.346
31
0
0
LINE
8
PIPES
10
3175.455348
20
1133.346
30
0
11
3752.773863
21
-533.339
31
0
0
LINE
8
PIPES
10
3752.773863
20
-533.339
30
0
11
6639.556963
21
-866.654
31
0
0
LINE
8
PIPES
10
6639.556963
20
-866.654
30
0
11
6062.177826
21
799.996
31
0
0
LINE
8
PIPES
10
6062.177826
20
799.996
30
0
11
3175.455348
21
1133.346
31
0
0
LINE
8
PIPES
10
3175.455348
20
1133.346
30
0
11
2598.076211
21
2799.996
31
0
0
LINE
8
PIPES
10
-1443.37856
20
-4982.276
30
0
11
-4330.127019
21
-4648.941
31
0
0
LINE
8
PIPES
10
-4330.127019
20
-4648.941
30
0
11
-4907.480175
21
-2982.276
31
0
0
LINE
8
PIPES
10
-4907.480175
20
-2982.276
30
0
11
-7794.228634
21
-2648.941
31
0
0
LINE
8
PIPES
10
-1443.37856
20
-4982.276
30
0
11
-2020.723055
21
-3315.606
31
0
0
LINE
8
PIPES
10
-2020.723055
20
-3315.606
30
0
11
-4907.480175
21
-2982.276
31
0
0
LINE
8
PIPES
10
-4907.480175
20
-2982.276
30
0
11
-5484.824671
21
-1315.606
31
0
0
LINE
8
PIPES
10
-5484.824671
20
-1315.606
30
0
11
-2598.076211
21
-1648.941
31
0
0
LINE
8
PIPES
10
-2598.076211
20
-1648.941
30
0
11
-2020.723055
21
-3315.606
31
0
0
LINE
8
PIPES
10
-2020.723055
20
-3315.606
30
0
11
866.025404
21
-3648.941
31
0
0
LINE
8
PIPES
10
866.025404
20
-3648.941
30
0
11
288.672248
21
-1982.276
31
0
0
LINE
8
PIPES
10
288.672248
20
-1982.276
30
0
11
-2598.076211
21
-1648.941
31
0
0
LINE
8
PIPES
10
-2598.076211
20
-1648.941
30
0
11
-3175.429367
21
17.724
31
0
0
LINE
8
PIPES
10
-3175.429367
20
17.724
30
0
11
-288.672248
21
-315.606
31
0
0
LINE
8
PIPES
10
-288.672248
20
-315.606
30
0
11
288.672248
21
-1982.276
31
0
0
LINE
8
PIPES
10
288.672248
20
-1982.276
30
0
11
3175.429367
21
-2315.606
31
0
0
LINE
8
PIPES
10
3175.429367
20
-2315.606
30
0
11
2598.076211
21
-648.941
31
0
0
LINE
8
PIPES
10
2598.076211
20
-648.941
30
0
11
-288.672248
21
-315.606
31
0
0
LINE
8
PIPES
10
-288.672248
20
-315.606
30
0
11
-866.025404
21
1351.059
31
0
0
LINE
8
PIPES
10
-866.025404
20
1351.059
30
0
11
2020.723055
21
1017.724
31
0
0
LINE
8
PIPES
10
2020.723055
20
1017.724
30
0
11
2598.076211
21
-648.941
31
0
0
LINE
8
PIPES
10
2598.076211
20
-648.941
30
0
11
5484.824671
21
-982.276
31
0
0
LINE
8
PIPES
10
5484.824671
20
-982.276
30
0
11
4907.506156
21
684.409
31
0
0
LINE
8
PIPES
10
4907.506156
20
684.409
30
0
11
2020.723055
21
1017.724
31
0
0
LINE
8
PIPES
10
2020.723055
20
1017.724
30
0
11
1443.40454
21
2684.409
31
0
0
LINE
8
PIPES
10
1443.40454
20
2684.409
30
0
11
4330.127019
21
2351.059
31
0
0
LINE
8
PIPES
10
4330.127019
20
2351.059
30
0
11
4907.506156
21
684.409
31
0
0
LINE
8
PIPES
10
4907.506156
20
684.409
30
0
11
7794.228634
21
351.059
31
0
0
ENDSEC
0
EOF
