0
SECTION
2
HEADER
9
$ACADVER
1
AC1009
9
$INSUNITS
70
4
9
$MEASUREMENT
70
1
9
$LUNITS
70
2
9
$LUPREC
70
1
9
$TILEMODE
70
1
9
$EXTMIN
10
-3913.625
20
-2491.725773
30
0
9
$EXTMAX
10
3913.625
20
2491.725773
30
0
9
$PEXTMIN
10
-3913.625
20
-2491.725773
30
0
9
$PEXTMAX
10
3913.625
20
2491.725773
30
0
9
$LIMMIN
10
-4413.625
20
-2991.725773
9
$LIMMAX
10
4413.625
20
2991.725773
9
$PLIMMIN
10
-4413.625
20
-2991.725773
9
$PLIMMAX
10
4413.625
20
2991.725773
0
ENDSEC
0
SECTION
2
TABLES
0
TABLE
2
VPORT
70
1
0
VPORT
2
*ACTIVE
70
0
10
0
20
0
11
1
21
1
12
0
22
0
40
5983.451545
41
1.475277
42
50
43
0
44
0
50
0
51
0
71
0
72
100
73
1
74
3
75
0
76
0
77
0
78
0
0
ENDTAB
0
TABLE
2
LTYPE
70
2
0
LTYPE
2
CONTINUOUS
70
0
3
Solid line
72
65
73
0
40
0
0
LTYPE
2
DASHED
70
0
3
Dashed
72
65
73
2
40
240
49
120
74
0
49
-120
74
0
0
ENDTAB
0
TABLE
2
LAYER
70
6
0
LAYER
2
PIPES
70
0
62
5
6
CONTINUOUS
0
LAYER
2
PIPE_ENDS
70
0
62
5
6
CONTINUOUS
0
LAYER
2
DIMENSION
70
0
62
1
6
CONTINUOUS
0
LAYER
2
LEVEL_GUIDE
70
0
62
1
6
DASHED
0
LAYER
2
LEVEL_TEXT
70
0
62
1
6
CONTINUOUS
0
LAYER
2
FRAME
70
0
62
5
6
CONTINUOUS
0
ENDTAB
0
TABLE
2
STYLE
70
1
0
STYLE
2
STANDARD
70
0
40
0
41
1
50
0
71
0
42
100
3
txt
4

0
ENDTAB
0
ENDSEC
0
SECTION
2
BLOCKS
0
BLOCK
8
0
2
$MODEL_SPACE
70
0
10
0
20
0
30
0
3
$MODEL_SPACE
0
ENDBLK
8
0
0
BLOCK
67
1
8
0
2
$PAPER_SPACE
70
0
10
0
20
0
30
0
3
$PAPER_SPACE
0
ENDBLK
67
1
8
0
0
ENDSEC
0
SECTION
2
ENTITIES
0
LINE
8
PIPES
10
-3733.625
20
-1571.725773
30
0
11
-3733.625
21
-1271.724773
31
0
0
LINE
8
PIPES
10
-3733.625
20
-720.661773
30
0
11
-3733.625
21
-1271.724773
31
0
0
LINE
8
PIPES
10
-3733.625
20
-720.661773
30
0
11
-3733.625
21
-271.045773
31
0
0
LINE
8
PIPES
10
-3733.625
20
-271.045773
30
0
11
-3733.625
21
263.384227
31
0
0
LINE
8
PIPES
10
-3733.625
20
263.384227
30
0
11
-3733.625
21
853.814227
31
0
0
LINE
8
PIPES
10
-3733.625
20
853.814227
30
0
11
-3733.625
21
1735.044227
31
0
0
LINE
8
PIPES
10
-1733.625
20
-1571.725773
30
0
11
-1733.625
21
-1271.724773
31
0
0
LINE
8
PIPES
10
-1733.625
20
-1271.724773
30
0
11
-1733.625
21
-720.661773
31
0
0
LINE
8
PIPES
10
-1733.625
20
-720.661773
30
0
11
-1733.625
21
-271.045773
31
0
0
LINE
8
PIPES
10
-1733.625
20
-271.045773
30
0
11
-1733.625
21
263.384227
31
0
0
LINE
8
PIPES
10
-1733.625
20
263.384227
30
0
11
-1733.625
21
853.814227
31
0
0
LINE
8
PIPES
10
-1733.625
20
853.814227
30
0
11
-1733.625
21
1866.254227
31
0
0
LINE
8
PIPES
10
266.375
20
-1571.725773
30
0
11
266.375
21
-1271.724773
31
0
0
LINE
8
PIPES
10
266.375
20
-720.661773
30
0
11
266.375
21
-1271.724773
31
0
0
LINE
8
PIPES
10
266.375
20
-720.661773
30
0
11
266.375
21
-271.045773
31
0
0
LINE
8
PIPES
10
266.375
20
-271.045773
30
0
11
266.375
21
263.384227
31
0
0
LINE
8
PIPES
10
266.375
20
263.384227
30
0
11
266.375
21
853.814227
31
0
0
LINE
8
PIPES
10
266.375
20
853.814227
30
0
11
266.375
21
1997.454227
31
0
0
LINE
8
PIPES
10
2266.375
20
-1571.725773
30
0
11
2266.375
21
-1271.724773
31
0
0
LINE
8
PIPES
10
2266.375
20
-1271.724773
30
0
11
2266.375
21
-720.661773
31
0
0
LINE
8
PIPES
10
2266.375
20
-720.661773
30
0
11
2266.375
21
-271.045773
31
0
0
LINE
8
PIPES
10
2266.375
20
-271.045773
30
0
11
2266.375
21
263.384227
31
0
0
LINE
8
PIPES
10
2266.375
20
263.384227
30
0
11
2266.375
21
853.814227
31
0
0
LINE
8
PIPES
10
2266.375
20
2128.664227
30
0
11
2266.375
21
853.814227
31
0
0
LINE
8
PIPES
10
2266.375
20
853.814227
30
0
11
2266.375
21
1279.434227
31
0
0
LINE
8
PIPES
10
-3233.624
20
-720.661773
30
0
11
-3233.624
21
-271.045773
31
0
0
LINE
8
PIPES
10
1766.375
20
-720.661773
30
0
11
1766.375
21
-271.045773
31
0
0
LINE
8
PIPES
10
-3733.625
20
-1271.724773
30
0
11
-1733.625
21
-1271.724773
31
0
0
LINE
8
PIPES
10
-1733.625
20
-1271.724773
30
0
11
266.375
21
-1271.724773
31
0
0
LINE
8
PIPES
10
266.375
20
-1271.724773
30
0
11
2266.375
21
-1271.724773
31
0
0
LINE
8
PIPES
10
-3733.625
20
-720.661773
30
0
11
-3233.624
21
-720.661773
31
0
0
LINE
8
PIPES
10
266.375
20
-720.661773
30
0
11
-1733.625
21
-720.661773
31
0
0
LINE
8
PIPES
10
266.375
20
-720.661773
30
0
11
1766.375
21
-720.661773
31
0
0
LINE
8
PIPES
10
1766.375
20
-720.661773
30
0
11
2266.375
21
-720.661773
31
0
0
LINE
8
PIPES
10
-3233.624
20
-720.661773
30
0
11
-1733.625
21
-720.661773
31
0
0
LINE
8
PIPES
10
-3733.625
20
-271.045773
30
0
11
-3233.624
21
-271.045773
31
0
0
LINE
8
PIPES
10
-1733.625
20
-271.045773
30
0
11
266.375
21
-271.045773
31
0
0
LINE
8
PIPES
10
266.375
20
-271.045773
30
0
11
1766.375
21
-271.045773
31
0
0
LINE
8
PIPES
10
-3233.624
20
-271.045773
30
0
11
-1733.625
21
-271.045773
31
0
0
LINE
8
PIPES
10
1766.375
20
-271.045773
30
0
11
2266.375
21
-271.045773
31
0
0
LINE
8
PIPES
10
-3733.625
20
263.384227
30
0
11
-1733.625
21
263.384227
31
0
0
LINE
8
PIPES
10
-1733.625
20
263.384227
30
0
11
266.375
21
263.384227
31
0
0
LINE
8
PIPES
10
266.375
20
263.384227
30
0
11
2266.375
21
263.384227
31
0
0
LINE
8
PIPES
10
-3733.625
20
853.814227
30
0
11
-1733.625
21
853.814227
31
0
0
LINE
8
PIPES
10
-1733.625
20
853.814227
30
0
11
266.375
21
853.814227
31
0
0
LINE
8
PIPES
10
266.375
20
853.814227
30
0
11
2266.375
21
853.814227
31
0
0
LINE
8
PIPES
10
-3733.625
20
2034.664227
30
0
11
-3389.583
21
2057.234227
31
0
0
LINE
8
PIPES
10
-3389.583
20
2057.234227
30
0
11
-3091.901
21
2076.764227
31
0
0
LINE
8
PIPES
10
-3091.901
20
2076.764227
30
0
11
-2794.219
21
2096.294227
31
0
0
LINE
8
PIPES
10
-2794.219
20
2096.294227
30
0
11
-2496.535
21
2115.824227
31
0
0
LINE
8
PIPES
10
-2496.535
20
2115.824227
30
0
11
-2198.855
21
2135.354227
31
0
0
LINE
8
PIPES
10
-2198.855
20
2135.354227
30
0
11
-1901.175
21
2154.874227
31
0
0
LINE
8
PIPES
10
-1901.175
20
2154.874227
30
0
11
-1603.495
21
2174.404227
31
0
0
LINE
8
PIPES
10
-1603.495
20
2174.404227
30
0
11
-1305.805
21
2193.934227
31
0
0
LINE
8
PIPES
10
-1305.805
20
2193.934227
30
0
11
-1008.125
21
2213.464227
31
0
0
LINE
8
PIPES
10
-1008.125
20
2213.464227
30
0
11
-710.445
21
2232.994227
31
0
0
LINE
8
PIPES
10
-710.445
20
2232.994227
30
0
11
-412.765
21
2252.524227
31
0
0
LINE
8
PIPES
10
-412.765
20
2252.524227
30
0
11
-115.085
21
2272.054227
31
0
0
LINE
8
PIPES
10
-115.085
20
2272.054227
30
0
11
182.605
21
2291.584227
31
0
0
LINE
8
PIPES
10
182.605
20
2291.584227
30
0
11
480.285
21
2311.114227
31
0
0
LINE
8
PIPES
10
480.285
20
2311.114227
30
0
11
777.965
21
2330.634227
31
0
0
LINE
8
PIPES
10
777.965
20
2330.634227
30
0
11
1075.645
21
2350.164227
31
0
0
LINE
8
PIPES
10
1075.645
20
2350.164227
30
0
11
1373.325
21
2369.694227
31
0
0
LINE
8
PIPES
10
1373.325
20
2369.694227
30
0
11
1671.015
21
2389.224227
31
0
0
LINE
8
PIPES
10
1671.015
20
2389.224227
30
0
11
1968.695
21
2408.754227
31
0
0
LINE
8
PIPES
10
1968.695
20
2408.754227
30
0
11
2266.375
21
2428.284227
31
0
0
LINE
8
PIPES
10
-3733.625
20
1735.044227
30
0
11
-3389.583
21
1757.614227
31
0
0
LINE
8
PIPES
10
-3389.583
20
1757.614227
30
0
11
-3091.901
21
1777.144227
31
0
0
LINE
8
PIPES
10
-3091.901
20
1777.144227
30
0
11
-2794.219
21
1796.674227
31
0
0
LINE
8
PIPES
10
-2794.219
20
1796.674227
30
0
11
-2496.535
21
1816.204227
31
0
0
LINE
8
PIPES
10
-2496.535
20
1816.204227
30
0
11
-2198.855
21
1835.734227
31
0
0
LINE
8
PIPES
10
-2198.855
20
1835.734227
30
0
11
-1901.175
21
1855.254227
31
0
0
LINE
8
PIPES
10
-1901.175
20
1855.254227
30
0
11
-1603.495
21
1874.784227
31
0
0
LINE
8
PIPES
10
-1603.495
20
1874.784227
30
0
11
-1305.805
21
1894.314227
31
0
0
LINE
8
PIPES
10
-1305.805
20
1894.314227
30
0
11
-1008.125
21
1913.844227
31
0
0
LINE
8
PIPES
10
-1008.125
20
1913.844227
30
0
11
-710.445
21
1933.374227
31
0
0
LINE
8
PIPES
10
-710.445
20
1933.374227
30
0
11
-412.765
21
1952.904227
31
0
0
LINE
8
PIPES
10
-412.765
20
1952.904227
30
0
11
-115.085
21
1972.434227
31
0
0
LINE
8
PIPES
10
-115.085
20
1972.434227
30
0
11
182.605
21
1991.964227
31
0
0
LINE
8
PIPES
10
182.605
20
1991.964227
30
0
11
480.285
21
2011.494227
31
0
0
LINE
8
PIPES
10
480.285
20
2011.494227
30
0
11
777.965
21
2031.024227
31
0
0
LINE
8
PIPES
10
777.965
20
2031.024227
30
0
11
1075.645
21
2050.544227
31
0
0
LINE
8
PIPES
10
1075.645
20
2050.544227
30
0
11
1373.325
21
2070.074227
31
0
0
LINE
8
PIPES
10
1373.325
20
2070.074227
30
0
11
1671.015
21
2089.604227
31
0
0
LINE
8
PIPES
10
1671.015
20
2089.604227
30
0
11
1968.695
21
2109.134227
31
0
0
LINE
8
PIPES
10
1968.695
20
2109.134227
30
0
11
2266.375
21
2128.664227
31
0
0
LINE
8
PIPES
10
-3733.625
20
2034.664227
30
0
11
-3733.625
21
1735.044227
31
0
0
LINE
8
PIPES
10
-3389.583
20
2057.234227
30
0
11
-3389.583
21
1757.614227
31
0
0
LINE
8
PIPES
10
-3091.901
20
2076.764227
30
0
11
-3091.901
21
1777.144227
31
0
0
LINE
8
PIPES
10
-2794.219
20
2096.294227
30
0
11
-2794.219
21
1796.674227
31
0
0
LINE
8
PIPES
10
-2496.535
20
2115.824227
30
0
11
-2496.535
21
1816.204227
31
0
0
LINE
8
PIPES
10
-2198.855
20
2135.354227
30
0
11
-2198.855
21
1835.734227
31
0
0
LINE
8
PIPES
10
-1901.175
20
2154.874227
30
0
11
-1901.175
21
1855.254227
31
0
0
LINE
8
PIPES
10
-1603.495
20
2174.404227
30
0
11
-1603.495
21
1874.784227
31
0
0
LINE
8
PIPES
10
-1305.805
20
2193.934227
30
0
11
-1305.805
21
1894.314227
31
0
0
LINE
8
PIPES
10
-1008.125
20
2213.464227
30
0
11
-1008.125
21
1913.844227
31
0
0
LINE
8
PIPES
10
-710.445
20
2232.994227
30
0
11
-710.445
21
1933.374227
31
0
0
LINE
8
PIPES
10
-412.765
20
2252.524227
30
0
11
-412.765
21
1952.904227
31
0
0
LINE
8
PIPES
10
-115.085
20
2272.054227
30
0
11
-115.085
21
1972.434227
31
0
0
LINE
8
PIPES
10
182.605
20
2291.584227
30
0
11
182.605
21
1991.964227
31
0
0
LINE
8
PIPES
10
480.285
20
2311.114227
30
0
11
480.285
21
2011.494227
31
0
0
LINE
8
PIPES
10
777.965
20
2330.634227
30
0
11
777.965
21
2031.024227
31
0
0
LINE
8
PIPES
10
1075.645
20
2350.164227
30
0
11
1075.645
21
2050.544227
31
0
0
LINE
8
PIPES
10
1373.325
20
2369.694227
30
0
11
1373.325
21
2070.074227
31
0
0
LINE
8
PIPES
10
1671.015
20
2389.224227
30
0
11
1671.015
21
2089.604227
31
0
0
LINE
8
PIPES
10
1968.695
20
2408.754227
30
0
11
1968.695
21
2109.134227
31
0
0
LINE
8
PIPES
10
-3733.625
20
2034.664227
30
0
11
-1733.625
21
2165.874227
31
0
0
LINE
8
PIPES
10
-1733.625
20
1866.254227
30
0
11
-3733.625
21
1735.044227
31
0
0
LINE
8
PIPES
10
-3447.911
20
2053.404227
30
0
11
-3733.625
21
2034.664227
31
0
0
LINE
8
PIPES
10
-3447.911
20
1753.784227
30
0
11
-3733.625
21
1735.044227
31
0
0
LINE
8
PIPES
10
1980.665
20
2109.924227
30
0
11
2266.375
21
2128.664227
31
0
0
LINE
8
PIPES
10
1980.665
20
2409.544227
30
0
11
2266.375
21
2428.284227
31
0
0
LINE
8
PIPES
10
-2019.335
20
2147.134227
30
0
11
-1733.625
21
2165.874227
31
0
0
LINE
8
PIPES
10
-19.335
20
2278.334227
30
0
11
266.375
21
2297.074227
31
0
0
LINE
8
PIPES
10
-1447.915
20
2184.614227
30
0
11
-1733.625
21
2165.874227
31
0
0
LINE
8
PIPES
10
552.085
20
2315.814227
30
0
11
266.375
21
2297.074227
31
0
0
LINE
8
PIPES
10
-1733.625
20
1866.254227
30
0
11
-1733.625
21
2165.874227
31
0
0
LINE
8
PIPES
10
266.375
20
2297.074227
30
0
11
266.375
21
1997.454227
31
0
0
LINE
8
PIPES
10
-2019.335
20
1847.514227
30
0
11
-1733.625
21
1866.254227
31
0
0
LINE
8
PIPES
10
-19.335
20
1978.714227
30
0
11
266.375
21
1997.454227
31
0
0
LINE
8
PIPES
10
-1733.625
20
2165.874227
30
0
11
266.375
21
2297.074227
31
0
0
LINE
8
PIPES
10
266.375
20
2297.074227
30
0
11
2266.375
21
2428.284227
31
0
0
LINE
8
PIPES
10
266.375
20
1997.454227
30
0
11
-1733.625
21
1866.254227
31
0
0
LINE
8
PIPES
10
2266.375
20
2128.664227
30
0
11
266.375
21
1997.454227
31
0
0
LINE
8
PIPES
10
-1447.915
20
1884.994227
30
0
11
-1733.625
21
1866.254227
31
0
0
LINE
8
PIPES
10
552.085
20
2016.194227
30
0
11
266.375
21
1997.454227
31
0
0
LINE
8
PIPES
10
-3733.625
20
2034.664227
30
0
11
-3733.625
21
853.814227
31
0
0
LINE
8
PIPES
10
-3733.625
20
853.814227
30
0
11
-3733.625
21
-271.045773
31
0
0
LINE
8
PIPES
10
-3733.625
20
-271.045773
30
0
11
-3733.625
21
-1571.725773
31
0
0
LINE
8
PIPES
10
2266.375
20
2428.284227
30
0
11
2266.375
21
853.814227
31
0
0
LINE
8
PIPES
10
2266.375
20
853.814227
30
0
11
2266.375
21
-271.045773
31
0
0
LINE
8
PIPES
10
2266.375
20
-271.045773
30
0
11
2266.375
21
-1571.725773
31
0
0
LINE
8
PIPES
10
-3733.625
20
2034.664227
30
0
11
-1733.625
21
853.814227
31
0
0
LINE
8
PIPES
10
-1733.625
20
853.814227
30
0
11
-3733.625
21
-271.045773
31
0
0
LINE
8
PIPES
10
-3733.625
20
-271.045773
30
0
11
-1733.625
21
-1571.725773
31
0
0
LINE
8
PIPES
10
266.375
20
2297.074227
30
0
11
2266.375
21
853.814227
31
0
0
LINE
8
PIPES
10
2266.375
20
853.814227
30
0
11
266.375
21
-271.045773
31
0
0
LINE
8
PIPES
10
266.375
20
-271.045773
30
0
11
2266.375
21
-1571.725773
31
0
0
LINE
8
PIPES
10
-1733.625
20
2165.874227
30
0
11
-3733.625
21
853.814227
31
0
0
LINE
8
PIPES
10
-3733.625
20
853.814227
30
0
11
-1733.625
21
-271.045773
31
0
0
LINE
8
PIPES
10
-1733.625
20
-271.045773
30
0
11
-3733.625
21
-1571.725773
31
0
0
LINE
8
PIPES
10
2266.375
20
2428.284227
30
0
11
266.375
21
853.814227
31
0
0
LINE
8
PIPES
10
266.375
20
853.814227
30
0
11
2266.375
21
-271.045773
31
0
0
LINE
8
PIPES
10
2266.375
20
-271.045773
30
0
11
266.375
21
-1571.725773
31
0
0
LINE
8
PIPES
10
2266.375
20
2128.664227
30
0
11
2266.375
21
2428.284227
31
0
0
LINE
8
PIPES
10
2266.375
20
2128.664227
30
0
11
2266.375
21
1279.434227
31
0
0
LINE
8
PIPES
10
2266.375
20
2428.284227
30
0
11
2266.375
21
2144.874227
31
0
0
LINE
8
PIPES
10
2266.375
20
2128.664227
30
0
11
2266.375
21
2144.874227
31
0
0
LINE
8
PIPES
10
1694.945
20
2091.174227
30
0
11
1980.665
21
2109.924227
31
0
0
LINE
8
PIPES
10
1409.235
20
2072.434227
30
0
11
1694.945
21
2091.174227
31
0
0
LINE
8
PIPES
10
1123.515
20
2053.684227
30
0
11
1409.235
21
2072.434227
31
0
0
LINE
8
PIPES
10
837.805
20
2034.944227
30
0
11
1123.515
21
2053.684227
31
0
0
LINE
8
PIPES
10
552.085
20
2016.194227
30
0
11
837.805
21
2034.944227
31
0
0
LINE
8
PIPES
10
552.085
20
2315.814227
30
0
11
837.805
21
2334.564227
31
0
0
LINE
8
PIPES
10
837.805
20
2334.564227
30
0
11
1123.515
21
2353.304227
31
0
0
LINE
8
PIPES
10
1123.515
20
2353.304227
30
0
11
1409.235
21
2372.054227
31
0
0
LINE
8
PIPES
10
1409.235
20
2372.054227
30
0
11
1694.945
21
2390.794227
31
0
0
LINE
8
PIPES
10
1694.945
20
2390.794227
30
0
11
1980.665
21
2409.544227
31
0
0
LINE
8
PIPES
10
1980.665
20
2409.544227
30
0
11
1980.665
21
2109.924227
31
0
0
LINE
8
PIPES
10
1694.945
20
2390.794227
30
0
11
1694.945
21
2091.174227
31
0
0
LINE
8
PIPES
10
1409.235
20
2372.054227
30
0
11
1409.235
21
2072.434227
31
0
0
LINE
8
PIPES
10
1123.515
20
2353.304227
30
0
11
1123.515
21
2053.684227
31
0
0
LINE
8
PIPES
10
837.805
20
2334.564227
30
0
11
837.805
21
2034.944227
31
0
0
LINE
8
PIPES
10
552.085
20
2315.814227
30
0
11
552.085
21
2016.194227
31
0
0
LINE
8
PIPES
10
-1447.915
20
2184.614227
30
0
11
-1162.195
21
2203.364227
31
0
0
LINE
8
PIPES
10
-1162.195
20
2203.364227
30
0
11
-876.485
21
2222.104227
31
0
0
LINE
8
PIPES
10
-876.485
20
2222.104227
30
0
11
-590.765
21
2240.844227
31
0
0
LINE
8
PIPES
10
-590.765
20
2240.844227
30
0
11
-305.055
21
2259.584227
31
0
0
LINE
8
PIPES
10
-305.055
20
2259.584227
30
0
11
-19.335
21
2278.334227
31
0
0
LINE
8
PIPES
10
-305.055
20
1959.964227
30
0
11
-19.335
21
1978.714227
31
0
0
LINE
8
PIPES
10
-590.765
20
1941.224227
30
0
11
-305.055
21
1959.964227
31
0
0
LINE
8
PIPES
10
-876.485
20
1922.484227
30
0
11
-590.765
21
1941.224227
31
0
0
LINE
8
PIPES
10
-1162.195
20
1903.744227
30
0
11
-876.485
21
1922.484227
31
0
0
LINE
8
PIPES
10
-1447.915
20
1884.994227
30
0
11
-1162.195
21
1903.744227
31
0
0
LINE
8
PIPES
10
-305.055
20
2259.584227
30
0
11
-305.055
21
1959.964227
31
0
0
LINE
8
PIPES
10
-19.335
20
2278.334227
30
0
11
-19.335
21
1978.714227
31
0
0
LINE
8
PIPES
10
-590.765
20
2240.844227
30
0
11
-590.765
21
1941.224227
31
0
0
LINE
8
PIPES
10
-876.485
20
2222.104227
30
0
11
-876.485
21
1922.484227
31
0
0
LINE
8
PIPES
10
-1162.195
20
2203.364227
30
0
11
-1162.195
21
1903.744227
31
0
0
LINE
8
PIPES
10
-1447.915
20
2184.614227
30
0
11
-1447.915
21
1884.994227
31
0
0
LINE
8
PIPES
10
-3447.911
20
2053.404227
30
0
11
-3162.196
21
2072.154227
31
0
0
LINE
8
PIPES
10
-3162.196
20
2072.154227
30
0
11
-2876.482
21
2090.894227
31
0
0
LINE
8
PIPES
10
-2876.482
20
2090.894227
30
0
11
-2590.765
21
2109.644227
31
0
0
LINE
8
PIPES
10
-2590.765
20
2109.644227
30
0
11
-2305.055
21
2128.384227
31
0
0
LINE
8
PIPES
10
-2305.055
20
2128.384227
30
0
11
-2019.335
21
2147.134227
31
0
0
LINE
8
PIPES
10
-2305.055
20
1828.764227
30
0
11
-2019.335
21
1847.514227
31
0
0
LINE
8
PIPES
10
-2590.765
20
1810.024227
30
0
11
-2305.055
21
1828.764227
31
0
0
LINE
8
PIPES
10
-2876.482
20
1791.274227
30
0
11
-2590.765
21
1810.024227
31
0
0
LINE
8
PIPES
10
-3162.196
20
1772.534227
30
0
11
-2876.482
21
1791.274227
31
0
0
LINE
8
PIPES
10
-3447.911
20
1753.784227
30
0
11
-3162.196
21
1772.534227
31
0
0
LINE
8
PIPES
10
-2590.765
20
2109.644227
30
0
11
-2590.765
21
1810.024227
31
0
0
LINE
8
PIPES
10
-2019.335
20
2147.134227
30
0
11
-2019.335
21
1847.514227
31
0
0
LINE
8
PIPES
10
-2305.055
20
2128.384227
30
0
11
-2305.055
21
1828.764227
31
0
0
LINE
8
PIPES
10
-2876.482
20
2090.894227
30
0
11
-2876.482
21
1791.274227
31
0
0
LINE
8
PIPES
10
-3162.196
20
2072.154227
30
0
11
-3162.196
21
1772.534227
31
0
0
LINE
8
PIPES
10
-3447.911
20
2053.404227
30
0
11
-3447.911
21
1753.784227
31
0
0
LINE
8
PIPES
10
-3733.625
20
2034.664227
30
0
11
-1733.625
21
1866.254227
31
0
0
LINE
8
PIPES
10
-1733.625
20
1866.254227
30
0
11
266.375
21
2297.074227
31
0
0
LINE
8
PIPES
10
266.375
20
2297.074227
30
0
11
2266.375
21
2128.664227
31
0
0
LINE
8
PIPES
10
-3733.625
20
1735.044227
30
0
11
-1733.625
21
2165.874227
31
0
0
LINE
8
PIPES
10
-1733.625
20
2165.874227
30
0
11
266.375
21
1997.454227
31
0
0
LINE
8
PIPES
10
266.375
20
1997.454227
30
0
11
2266.375
21
2428.284227
31
0
0
LINE
8
PIPES
10
-3733.625
20
-720.661773
30
0
11
-1733.625
21
-1271.724773
31
0
0
LINE
8
PIPES
10
-1733.625
20
-1271.724773
30
0
11
266.375
21
-720.661773
31
0
0
LINE
8
PIPES
10
266.375
20
-720.661773
30
0
11
2266.375
21
-1271.724773
31
0
0
LINE
8
PIPES
10
-3733.625
20
-1271.724773
30
0
11
-1733.625
21
-720.661773
31
0
0
LINE
8
PIPES
10
-1733.625
20
-720.661773
30
0
11
266.375
21
-1271.724773
31
0
0
LINE
8
PIPES
10
266.375
20
-1271.724773
30
0
11
2266.375
21
-720.661773
31
0
0
LINE
8
PIPES
10
-1733.625
20
2165.874227
30
0
11
266.375
21
853.814227
31
0
0
LINE
8
PIPES
10
266.375
20
853.814227
30
0
11
-1733.625
21
-271.045773
31
0
0
LINE
8
PIPES
10
-1733.625
20
-271.045773
30
0
11
266.375
21
-1571.725773
31
0
0
LINE
8
PIPES
10
266.375
20
2297.074227
30
0
11
-1733.625
21
853.814227
31
0
0
LINE
8
PIPES
10
-1733.625
20
853.814227
30
0
11
266.375
21
-271.045773
31
0
0
LINE
8
PIPES
10
266.375
20
-271.045773
30
0
11
-1733.625
21
-1571.725773
31
0
0
LINE
8
PIPES
10
-1733.625
20
-720.661773
30
0
11
-3733.625
21
-720.661773
31
0
0
LINE
8
PIPES
10
2266.375
20
-720.661773
30
0
11
266.375
21
-720.661773
31
0
0
CIRCLE
8
PIPE_ENDS
10
-3733.625
20
-1271.725773
30
0
40
32
0
CIRCLE
8
PIPE_ENDS
10
-1733.625
20
-1271.725773
30
0
40
32
0
CIRCLE
8
PIPE_ENDS
10
266.375
20
-1271.725773
30
0
40
32
0
CIRCLE
8
PIPE_ENDS
10
2266.375
20
-1271.725773
30
0
40
32
0
CIRCLE
8
PIPE_ENDS
10
-3733.625
20
-720.625773
30
0
40
32
0
CIRCLE
8
PIPE_ENDS
10
2266.375
20
-720.625773
30
0
40
32
0
CIRCLE
8
PIPE_ENDS
10
-1733.625
20
-720.625773
30
0
40
32
0
CIRCLE
8
PIPE_ENDS
10
266.375
20
-720.625773
30
0
40
32
0
CIRCLE
8
PIPE_ENDS
10
-3233.625
20
-720.625773
30
0
40
32
0
CIRCLE
8
PIPE_ENDS
10
1766.375
20
-720.625773
30
0
40
32
0
CIRCLE
8
PIPE_ENDS
10
-3733.625
20
-271.025773
30
0
40
32
0
CIRCLE
8
PIPE_ENDS
10
2266.375
20
-271.025773
30
0
40
32
0
CIRCLE
8
PIPE_ENDS
10
-1733.625
20
-271.025773
30
0
40
32
0
CIRCLE
8
PIPE_ENDS
10
266.375
20
-271.025773
30
0
40
32
0
CIRCLE
8
PIPE_ENDS
10
-3233.625
20
-271.025773
30
0
40
32
0
CIRCLE
8
PIPE_ENDS
10
1766.375
20
-271.025773
30
0
40
32
0
CIRCLE
8
PIPE_ENDS
10
-3733.625
20
263.374227
30
0
40
32
0
CIRCLE
8
PIPE_ENDS
10
2266.375
20
263.374227
30
0
40
32
0
CIRCLE
8
PIPE_ENDS
10
-3733.625
20
853.774227
30
0
40
32
0
CIRCLE
8
PIPE_ENDS
10
2266.375
20
853.774227
30
0
40
32
0
CIRCLE
8
PIPE_ENDS
10
-3733.625
20
2034.674227
30
0
40
32
0
CIRCLE
8
PIPE_ENDS
10
-3733.625
20
1735.074227
30
0
40
32
0
CIRCLE
8
PIPE_ENDS
10
2266.375
20
2428.274227
30
0
40
32
0
CIRCLE
8
PIPE_ENDS
10
2266.375
20
2128.674227
30
0
40
32
0
CIRCLE
8
PIPE_ENDS
10
2266.375
20
1279.474227
30
0
40
25
0
CIRCLE
8
PIPE_ENDS
10
-1733.625
20
2165.874227
30
0
40
32
0
CIRCLE
8
PIPE_ENDS
10
266.375
20
2297.074227
30
0
40
32
0
CIRCLE
8
PIPE_ENDS
10
-1733.625
20
1866.274227
30
0
40
32
0
CIRCLE
8
PIPE_ENDS
10
266.375
20
1997.474227
30
0
40
32
0
LINE
8
LEVEL_GUIDE
6
DASHED
10
-3913.625
20
-1571.725773
30
0
11
2446.375
21
-1571.725773
31
0
0
LINE
8
LEVEL_GUIDE
6
DASHED
10
-3913.625
20
-1271.725773
30
0
11
2446.375
21
-1271.725773
31
0
0
LINE
8
LEVEL_GUIDE
6
DASHED
10
-3913.625
20
-720.665773
30
0
11
2446.375
21
-720.665773
31
0
0
LINE
8
LEVEL_GUIDE
6
DASHED
10
-3913.625
20
-271.045773
30
0
11
2446.375
21
-271.045773
31
0
0
LINE
8
LEVEL_GUIDE
6
DASHED
10
-3913.625
20
263.384227
30
0
11
2446.375
21
263.384227
31
0
0
LINE
8
LEVEL_GUIDE
6
DASHED
10
-3913.625
20
853.814227
30
0
11
2446.375
21
853.814227
31
0
0
LINE
8
LEVEL_GUIDE
6
DASHED
10
-3913.625
20
1866.254227
30
0
11
2446.375
21
1866.254227
31
0
0
LINE
8
LEVEL_GUIDE
6
DASHED
10
-3913.625
20
2428.284227
30
0
11
2446.375
21
2428.284227
31
0
0
LINE
8
DIMENSION
10
-3733.625
20
-1631.725773
30
0
11
-3733.625
21
-1951.725773
31
0
0
LINE
8
DIMENSION
10
-3233.625
20
-1631.725773
30
0
11
-3233.625
21
-1951.725773
31
0
0
LINE
8
DIMENSION
10
-3733.625
20
-1951.725773
30
0
11
-3233.625
21
-1951.725773
31
0
0
LINE
8
DIMENSION
10
-3733.625
20
-1951.725773
30
0
11
-3797.066545
21
-1922.142494
31
0
0
LINE
8
DIMENSION
10
-3733.625
20
-1951.725773
30
0
11
-3797.066545
21
-1981.309051
31
0
0
LINE
8
DIMENSION
10
-3233.625
20
-1951.725773
30
0
11
-3170.183455
21
-1981.309051
31
0
0
LINE
8
DIMENSION
10
-3233.625
20
-1951.725773
30
0
11
-3170.183455
21
-1922.142494
31
0
0
TEXT
8
DIMENSION
10
-3483.625
20
-2121.725773
30
0
40
85
1
0.5
50
0
7
STANDARD
72
1
73
2
11
-3483.625
21
-2121.725773
31
0
0
LINE
8
DIMENSION
10
-3233.625
20
-1631.725773
30
0
11
-3233.625
21
-1951.725773
31
0
0
LINE
8
DIMENSION
10
-1733.625
20
-1631.725773
30
0
11
-1733.625
21
-1951.725773
31
0
0
LINE
8
DIMENSION
10
-3233.625
20
-1951.725773
30
0
11
-1733.625
21
-1951.725773
31
0
0
LINE
8
DIMENSION
10
-3233.625
20
-1951.725773
30
0
11
-3297.066545
21
-1922.142494
31
0
0
LINE
8
DIMENSION
10
-3233.625
20
-1951.725773
30
0
11
-3297.066545
21
-1981.309051
31
0
0
LINE
8
DIMENSION
10
-1733.625
20
-1951.725773
30
0
11
-1670.183455
21
-1981.309051
31
0
0
LINE
8
DIMENSION
10
-1733.625
20
-1951.725773
30
0
11
-1670.183455
21
-1922.142494
31
0
0
TEXT
8
DIMENSION
10
-2483.625
20
-2121.725773
30
0
40
85
1
1.5
50
0
7
STANDARD
72
1
73
2
11
-2483.625
21
-2121.725773
31
0
0
LINE
8
DIMENSION
10
-1733.625
20
-1631.725773
30
0
11
-1733.625
21
-1951.725773
31
0
0
LINE
8
DIMENSION
10
266.375
20
-1631.725773
30
0
11
266.375
21
-1951.725773
31
0
0
LINE
8
DIMENSION
10
-1733.625
20
-1951.725773
30
0
11
266.375
21
-1951.725773
31
0
0
LINE
8
DIMENSION
10
-1733.625
20
-1951.725773
30
0
11
-1797.066545
21
-1922.142494
31
0
0
LINE
8
DIMENSION
10
-1733.625
20
-1951.725773
30
0
11
-1797.066545
21
-1981.309051
31
0
0
LINE
8
DIMENSION
10
266.375
20
-1951.725773
30
0
11
329.816545
21
-1981.309051
31
0
0
LINE
8
DIMENSION
10
266.375
20
-1951.725773
30
0
11
329.816545
21
-1922.142494
31
0
0
TEXT
8
DIMENSION
10
-733.625
20
-2121.725773
30
0
40
85
1
2
50
0
7
STANDARD
72
1
73
2
11
-733.625
21
-2121.725773
31
0
0
LINE
8
DIMENSION
10
266.375
20
-1631.725773
30
0
11
266.375
21
-1951.725773
31
0
0
LINE
8
DIMENSION
10
1766.375
20
-1631.725773
30
0
11
1766.375
21
-1951.725773
31
0
0
LINE
8
DIMENSION
10
266.375
20
-1951.725773
30
0
11
1766.375
21
-1951.725773
31
0
0
LINE
8
DIMENSION
10
266.375
20
-1951.725773
30
0
11
202.933455
21
-1922.142494
31
0
0
LINE
8
DIMENSION
10
266.375
20
-1951.725773
30
0
11
202.933455
21
-1981.309051
31
0
0
LINE
8
DIMENSION
10
1766.375
20
-1951.725773
30
0
11
1829.816545
21
-1981.309051
31
0
0
LINE
8
DIMENSION
10
1766.375
20
-1951.725773
30
0
11
1829.816545
21
-1922.142494
31
0
0
TEXT
8
DIMENSION
10
1016.375
20
-2121.725773
30
0
40
85
1
1.5
50
0
7
STANDARD
72
1
73
2
11
1016.375
21
-2121.725773
31
0
0
LINE
8
DIMENSION
10
1766.375
20
-1631.725773
30
0
11
1766.375
21
-1951.725773
31
0
0
LINE
8
DIMENSION
10
2266.375
20
-1631.725773
30
0
11
2266.375
21
-1951.725773
31
0
0
LINE
8
DIMENSION
10
1766.375
20
-1951.725773
30
0
11
2266.375
21
-1951.725773
31
0
0
LINE
8
DIMENSION
10
1766.375
20
-1951.725773
30
0
11
1702.933455
21
-1922.142494
31
0
0
LINE
8
DIMENSION
10
1766.375
20
-1951.725773
30
0
11
1702.933455
21
-1981.309051
31
0
0
LINE
8
DIMENSION
10
2266.375
20
-1951.725773
30
0
11
2329.816545
21
-1981.309051
31
0
0
LINE
8
DIMENSION
10
2266.375
20
-1951.725773
30
0
11
2329.816545
21
-1922.142494
31
0
0
TEXT
8
DIMENSION
10
2016.375
20
-2121.725773
30
0
40
85
1
0.5
50
0
7
STANDARD
72
1
73
2
11
2016.375
21
-2121.725773
31
0
0
LINE
8
DIMENSION
10
-3733.625
20
-1631.725773
30
0
11
-3733.625
21
-2321.725773
31
0
0
LINE
8
DIMENSION
10
2266.375
20
-1631.725773
30
0
11
2266.375
21
-2321.725773
31
0
0
LINE
8
DIMENSION
10
-3733.625
20
-2321.725773
30
0
11
2266.375
21
-2321.725773
31
0
0
LINE
8
DIMENSION
10
-3733.625
20
-2321.725773
30
0
11
-3797.066545
21
-2292.142494
31
0
0
LINE
8
DIMENSION
10
-3733.625
20
-2321.725773
30
0
11
-3797.066545
21
-2351.309051
31
0
0
LINE
8
DIMENSION
10
2266.375
20
-2321.725773
30
0
11
2329.816545
21
-2351.309051
31
0
0
LINE
8
DIMENSION
10
2266.375
20
-2321.725773
30
0
11
2329.816545
21
-2292.142494
31
0
0
TEXT
8
DIMENSION
10
-733.625
20
-2491.725773
30
0
40
85
1
TOTAL 6
50
0
7
STANDARD
72
1
73
2
11
-733.625
21
-2491.725773
31
0
0
LINE
8
DIMENSION
10
2326.375
20
-1571.725773
30
0
11
2966.375
21
-1571.725773
31
0
0
LINE
8
DIMENSION
10
2326.375
20
-1271.725773
30
0
11
2966.375
21
-1271.725773
31
0
0
LINE
8
DIMENSION
10
2966.375
20
-1571.725773
30
0
11
2966.375
21
-1271.725773
31
0
0
LINE
8
DIMENSION
10
2966.375
20
-1571.725773
30
0
11
2936.791722
21
-1635.167318
31
0
0
LINE
8
DIMENSION
10
2966.375
20
-1571.725773
30
0
11
2995.958278
21
-1635.167318
31
0
0
LINE
8
DIMENSION
10
2966.375
20
-1271.725773
30
0
11
2995.958278
21
-1208.284227
31
0
0
LINE
8
DIMENSION
10
2966.375
20
-1271.725773
30
0
11
2936.791722
21
-1208.284227
31
0
0
TEXT
8
DIMENSION
10
3136.375
20
-1421.725773
30
0
40
85
1
0.3
50
90
7
STANDARD
72
1
73
2
11
3136.375
21
-1421.725773
31
0
0
LINE
8
DIMENSION
10
2326.375
20
-1271.725773
30
0
11
2966.375
21
-1271.725773
31
0
0
LINE
8
DIMENSION
10
2326.375
20
-720.665773
30
0
11
2966.375
21
-720.665773
31
0
0
LINE
8
DIMENSION
10
2966.375
20
-1271.725773
30
0
11
2966.375
21
-720.665773
31
0
0
LINE
8
DIMENSION
10
2966.375
20
-1271.725773
30
0
11
2936.791722
21
-1335.167318
31
0
0
LINE
8
DIMENSION
10
2966.375
20
-1271.725773
30
0
11
2995.958278
21
-1335.167318
31
0
0
LINE
8
DIMENSION
10
2966.375
20
-720.665773
30
0
11
2995.958278
21
-657.224227
31
0
0
LINE
8
DIMENSION
10
2966.375
20
-720.665773
30
0
11
2936.791722
21
-657.224227
31
0
0
TEXT
8
DIMENSION
10
3136.375
20
-996.195773
30
0
40
85
1
0.551
50
90
7
STANDARD
72
1
73
2
11
3136.375
21
-996.195773
31
0
0
LINE
8
DIMENSION
10
2326.375
20
-720.665773
30
0
11
2966.375
21
-720.665773
31
0
0
LINE
8
DIMENSION
10
2326.375
20
-271.045773
30
0
11
2966.375
21
-271.045773
31
0
0
LINE
8
DIMENSION
10
2966.375
20
-720.665773
30
0
11
2966.375
21
-271.045773
31
0
0
LINE
8
DIMENSION
10
2966.375
20
-720.665773
30
0
11
2936.791722
21
-784.107318
31
0
0
LINE
8
DIMENSION
10
2966.375
20
-720.665773
30
0
11
2995.958278
21
-784.107318
31
0
0
LINE
8
DIMENSION
10
2966.375
20
-271.045773
30
0
11
2995.958278
21
-207.604227
31
0
0
LINE
8
DIMENSION
10
2966.375
20
-271.045773
30
0
11
2936.791722
21
-207.604227
31
0
0
TEXT
8
DIMENSION
10
3136.375
20
-495.855773
30
0
40
85
1
0.45
50
90
7
STANDARD
72
1
73
2
11
3136.375
21
-495.855773
31
0
0
LINE
8
DIMENSION
10
2326.375
20
-271.045773
30
0
11
2966.375
21
-271.045773
31
0
0
LINE
8
DIMENSION
10
2326.375
20
263.384227
30
0
11
2966.375
21
263.384227
31
0
0
LINE
8
DIMENSION
10
2966.375
20
-271.045773
30
0
11
2966.375
21
263.384227
31
0
0
LINE
8
DIMENSION
10
2966.375
20
-271.045773
30
0
11
2936.791722
21
-334.487318
31
0
0
LINE
8
DIMENSION
10
2966.375
20
-271.045773
30
0
11
2995.958278
21
-334.487318
31
0
0
LINE
8
DIMENSION
10
2966.375
20
263.384227
30
0
11
2995.958278
21
326.825773
31
0
0
LINE
8
DIMENSION
10
2966.375
20
263.384227
30
0
11
2936.791722
21
326.825773
31
0
0
TEXT
8
DIMENSION
10
3136.375
20
-3.830773
30
0
40
85
1
0.534
50
90
7
STANDARD
72
1
73
2
11
3136.375
21
-3.830773
31
0
0
LINE
8
DIMENSION
10
2326.375
20
263.384227
30
0
11
2966.375
21
263.384227
31
0
0
LINE
8
DIMENSION
10
2326.375
20
853.814227
30
0
11
2966.375
21
853.814227
31
0
0
LINE
8
DIMENSION
10
2966.375
20
263.384227
30
0
11
2966.375
21
853.814227
31
0
0
LINE
8
DIMENSION
10
2966.375
20
263.384227
30
0
11
2936.791722
21
199.942682
31
0
0
LINE
8
DIMENSION
10
2966.375
20
263.384227
30
0
11
2995.958278
21
199.942682
31
0
0
LINE
8
DIMENSION
10
2966.375
20
853.814227
30
0
11
2995.958278
21
917.255773
31
0
0
LINE
8
DIMENSION
10
2966.375
20
853.814227
30
0
11
2936.791722
21
917.255773
31
0
0
TEXT
8
DIMENSION
10
3136.375
20
558.599227
30
0
40
85
1
0.59
50
90
7
STANDARD
72
1
73
2
11
3136.375
21
558.599227
31
0
0
LINE
8
DIMENSION
10
2326.375
20
853.814227
30
0
11
2966.375
21
853.814227
31
0
0
LINE
8
DIMENSION
10
2326.375
20
1866.254227
30
0
11
2966.375
21
1866.254227
31
0
0
LINE
8
DIMENSION
10
2966.375
20
853.814227
30
0
11
2966.375
21
1866.254227
31
0
0
LINE
8
DIMENSION
10
2966.375
20
853.814227
30
0
11
2936.791722
21
790.372682
31
0
0
LINE
8
DIMENSION
10
2966.375
20
853.814227
30
0
11
2995.958278
21
790.372682
31
0
0
LINE
8
DIMENSION
10
2966.375
20
1866.254227
30
0
11
2995.958278
21
1929.695773
31
0
0
LINE
8
DIMENSION
10
2966.375
20
1866.254227
30
0
11
2936.791722
21
1929.695773
31
0
0
TEXT
8
DIMENSION
10
3136.375
20
1360.034227
30
0
40
85
1
1.012
50
90
7
STANDARD
72
1
73
2
11
3136.375
21
1360.034227
31
0
0
LINE
8
DIMENSION
10
2326.375
20
1866.254227
30
0
11
2966.375
21
1866.254227
31
0
0
LINE
8
DIMENSION
10
2326.375
20
2428.284227
30
0
11
2966.375
21
2428.284227
31
0
0
LINE
8
DIMENSION
10
2966.375
20
1866.254227
30
0
11
2966.375
21
2428.284227
31
0
0
LINE
8
DIMENSION
10
2966.375
20
1866.254227
30
0
11
2936.791722
21
1802.812682
31
0
0
LINE
8
DIMENSION
10
2966.375
20
1866.254227
30
0
11
2995.958278
21
1802.812682
31
0
0
LINE
8
DIMENSION
10
2966.375
20
2428.284227
30
0
11
2995.958278
21
2491.725773
31
0
0
LINE
8
DIMENSION
10
2966.375
20
2428.284227
30
0
11
2936.791722
21
2491.725773
31
0
0
TEXT
8
DIMENSION
10
3136.375
20
2147.269227
30
0
40
85
1
0.562
50
90
7
STANDARD
72
1
73
2
11
3136.375
21
2147.269227
31
0
0
LINE
8
DIMENSION
10
2326.375
20
-1571.725773
30
0
11
3416.375
21
-1571.725773
31
0
0
LINE
8
DIMENSION
10
2326.375
20
2428.284227
30
0
11
3416.375
21
2428.284227
31
0
0
LINE
8
DIMENSION
10
3416.375
20
-1571.725773
30
0
11
3416.375
21
2428.284227
31
0
0
LINE
8
DIMENSION
10
3416.375
20
-1571.725773
30
0
11
3386.791722
21
-1635.167318
31
0
0
LINE
8
DIMENSION
10
3416.375
20
-1571.725773
30
0
11
3445.958278
21
-1635.167318
31
0
0
LINE
8
DIMENSION
10
3416.375
20
2428.284227
30
0
11
3445.958278
21
2491.725773
31
0
0
LINE
8
DIMENSION
10
3416.375
20
2428.284227
30
0
11
3386.791722
21
2491.725773
31
0
0
TEXT
8
DIMENSION
10
3586.375
20
428.279227
30
0
40
85
1
TOTAL 4
50
90
7
STANDARD
72
1
73
2
11
3586.375
21
428.279227
31
0
0
ENDSEC
0
EOF
