0
SECTION
2
HEADER
9
$ACADVER
1
AC1009
9
$INSUNITS
70
4
9
$MEASUREMENT
70
1
9
$LUNITS
70
2
9
$LUPREC
70
1
9
$TILEMODE
70
1
9
$EXTMIN
10
-7794.227768
20
-6500.0045
30
0
9
$EXTMAX
10
7794.227768
20
6500.0045
30
0
9
$PEXTMIN
10
-7794.227768
20
-6500.0045
30
0
9
$PEXTMAX
10
7794.227768
20
6500.0045
30
0
9
$LIMMIN
10
-8294.227768
20
-7000.0045
9
$LIMMAX
10
8294.227768
20
7000.0045
9
$PLIMMIN
10
-8294.227768
20
-7000.0045
9
$PLIMMAX
10
8294.227768
20
7000.0045
0
ENDSEC
0
SECTION
2
TABLES
0
TABLE
2
VPORT
70
1
0
VPORT
2
*ACTIVE
70
0
10
0
20
0
11
1
21
1
12
0
22
0
40
14000.009
41
1.184889
42
50
43
0
44
0
50
0
51
0
71
0
72
100
73
1
74
3
75
0
76
0
77
0
78
0
0
ENDTAB
0
TABLE
2
LTYPE
70
2
0
LTYPE
2
CONTINUOUS
70
0
3
Solid line
72
65
73
0
40
0
0
LTYPE
2
DASHED
70
0
3
Dashed
72
65
73
2
40
240
49
120
74
0
49
-120
74
0
0
ENDTAB
0
TABLE
2
LAYER
70
6
0
LAYER
2
PIPES
70
0
62
5
6
CONTINUOUS
0
LAYER
2
PIPE_ENDS
70
0
62
5
6
CONTINUOUS
0
LAYER
2
DIMENSION
70
0
62
1
6
CONTINUOUS
0
LAYER
2
LEVEL_GUIDE
70
0
62
1
6
DASHED
0
LAYER
2
LEVEL_TEXT
70
0
62
1
6
CONTINUOUS
0
LAYER
2
FRAME
70
0
62
5
6
CONTINUOUS
0
ENDTAB
0
TABLE
2
STYLE
70
1
0
STYLE
2
STANDARD
70
0
40
0
41
1
50
0
71
0
42
100
3
txt
4

0
ENDTAB
0
ENDSEC
0
SECTION
2
BLOCKS
0
BLOCK
8
0
2
$MODEL_SPACE
70
0
10
0
20
0
30
0
3
$MODEL_SPACE
0
ENDBLK
8
0
0
BLOCK
67
1
8
0
2
$PAPER_SPACE
70
0
10
0
20
0
30
0
3
$PAPER_SPACE
0
ENDBLK
67
1
8
0
0
ENDSEC
0
SECTION
2
ENTITIES
0
LINE
8
PIPES
10
-2598.076211
20
-6500.0045
30
0
11
-2598.076211
21
-6200.0035
31
0
0
LINE
8
PIPES
10
-2598.076211
20
-6200.0035
30
0
11
-2598.076211
21
-5648.9405
31
0
0
LINE
8
PIPES
10
-2598.076211
20
-5648.9405
30
0
11
-2598.076211
21
-5199.3245
31
0
0
LINE
8
PIPES
10
-2598.076211
20
-5199.3245
30
0
11
-2598.076211
21
-4664.8945
31
0
0
LINE
8
PIPES
10
-2598.076211
20
-4664.8945
30
0
11
-2598.076211
21
-4074.4645
31
0
0
LINE
8
PIPES
10
-2598.076211
20
-4074.4645
30
0
11
-2598.076211
21
-3193.2345
31
0
0
LINE
8
PIPES
10
-3429.459733
20
-6020.005
30
0
11
-3429.459733
21
-5720.004
31
0
0
LINE
8
PIPES
10
-3429.459733
20
-5720.004
30
0
11
-3429.459733
21
-5168.941
31
0
0
LINE
8
PIPES
10
-3429.459733
20
-5168.941
30
0
11
-3429.459733
21
-4719.325
31
0
0
LINE
8
PIPES
10
-3429.459733
20
-4719.325
30
0
11
-3429.459733
21
-4184.895
31
0
0
LINE
8
PIPES
10
-3429.459733
20
-4184.895
30
0
11
-3429.459733
21
-3594.465
31
0
0
LINE
8
PIPES
10
-3429.459733
20
-3594.465
30
0
11
-3429.459733
21
-2634.515
31
0
0
LINE
8
PIPES
10
-4520.651742
20
-5390.005
30
0
11
-4520.651742
21
-5090.004
31
0
0
LINE
8
PIPES
10
-4520.651742
20
-5090.004
30
0
11
-4520.651742
21
-4538.941
31
0
0
LINE
8
PIPES
10
-4520.651742
20
-4538.941
30
0
11
-4520.651742
21
-4089.325
31
0
0
LINE
8
PIPES
10
-4520.651742
20
-4089.325
30
0
11
-4520.651742
21
-3554.895
31
0
0
LINE
8
PIPES
10
-4520.651742
20
-3554.895
30
0
11
-4520.651742
21
-2964.465
31
0
0
LINE
8
PIPES
10
-4520.651742
20
-2964.465
30
0
11
-4520.651742
21
-1925.785
31
0
0
LINE
8
PIPES
10
-5611.84375
20
-4760.005
30
0
11
-5611.84375
21
-4460.004
31
0
0
LINE
8
PIPES
10
-5611.84375
20
-4460.004
30
0
11
-5611.84375
21
-3908.941
31
0
0
LINE
8
PIPES
10
-5611.84375
20
-3908.941
30
0
11
-5611.84375
21
-3459.325
31
0
0
LINE
8
PIPES
10
-5611.84375
20
-3459.325
30
0
11
-5611.84375
21
-2924.895
31
0
0
LINE
8
PIPES
10
-5611.84375
20
-2924.895
30
0
11
-5611.84375
21
-2334.465
31
0
0
LINE
8
PIPES
10
-5611.84375
20
-2334.465
30
0
11
-5611.84375
21
-1217.065
31
0
0
LINE
8
PIPES
10
-6703.035759
20
-4130.005
30
0
11
-6703.035759
21
-3830.004
31
0
0
LINE
8
PIPES
10
-6703.035759
20
-3830.004
30
0
11
-6703.035759
21
-3278.941
31
0
0
LINE
8
PIPES
10
-6703.035759
20
-3278.941
30
0
11
-6703.035759
21
-2829.325
31
0
0
LINE
8
PIPES
10
-6703.035759
20
-2829.325
30
0
11
-6703.035759
21
-2294.895
31
0
0
LINE
8
PIPES
10
-6703.035759
20
-2294.895
30
0
11
-6703.035759
21
-1704.465
31
0
0
LINE
8
PIPES
10
-6703.035759
20
-1704.465
30
0
11
-6703.035759
21
-508.335
31
0
0
LINE
8
PIPES
10
-7794.227768
20
-3500.005
30
0
11
-7794.227768
21
-3200.004
31
0
0
LINE
8
PIPES
10
-7794.227768
20
-3200.004
30
0
11
-7794.227768
21
-2648.941
31
0
0
LINE
8
PIPES
10
-7794.227768
20
-2648.941
30
0
11
-7794.227768
21
-2199.325
31
0
0
LINE
8
PIPES
10
-7794.227768
20
-2199.325
30
0
11
-7794.227768
21
-1664.895
31
0
0
LINE
8
PIPES
10
-7794.227768
20
-1664.895
30
0
11
-7794.227768
21
-1074.465
31
0
0
LINE
8
PIPES
10
-7794.227768
20
-1074.465
30
0
11
-7794.227768
21
200.385
31
0
0
LINE
8
PIPES
10
2598.075345
20
-3500.005
30
0
11
2598.075345
21
-3200.004
31
0
0
LINE
8
PIPES
10
2598.075345
20
-3200.004
30
0
11
2598.075345
21
-2648.941
31
0
0
LINE
8
PIPES
10
2598.075345
20
-2648.941
30
0
11
2598.075345
21
-2199.325
31
0
0
LINE
8
PIPES
10
2598.075345
20
-2199.325
30
0
11
2598.075345
21
-1664.895
31
0
0
LINE
8
PIPES
10
2598.075345
20
-1664.895
30
0
11
2598.075345
21
-1074.465
31
0
0
LINE
8
PIPES
10
2598.075345
20
-1074.465
30
0
11
2598.075345
21
-193.235
31
0
0
LINE
8
PIPES
10
-2598.076211
20
-500.0055
30
0
11
-2598.076211
21
-200.0045
31
0
0
LINE
8
PIPES
10
-2598.076211
20
-200.0045
30
0
11
-2598.076211
21
351.0585
31
0
0
LINE
8
PIPES
10
-2598.076211
20
351.0585
30
0
11
-2598.076211
21
800.6745
31
0
0
LINE
8
PIPES
10
-2598.076211
20
800.6745
30
0
11
-2598.076211
21
1335.1045
31
0
0
LINE
8
PIPES
10
-2598.076211
20
1335.1045
30
0
11
-2598.076211
21
1925.5345
31
0
0
LINE
8
PIPES
10
-2598.076211
20
1925.5345
30
0
11
-2598.076211
21
3200.3845
31
0
0
LINE
8
PIPES
10
-1766.69269
20
-6020.005
30
0
11
-1766.69269
21
-5720.004
31
0
0
LINE
8
PIPES
10
-1766.69269
20
-5720.004
30
0
11
-1766.69269
21
-5168.941
31
0
0
LINE
8
PIPES
10
-1766.69269
20
-5168.941
30
0
11
-1766.69269
21
-4719.325
31
0
0
LINE
8
PIPES
10
-1766.69269
20
-4719.325
30
0
11
-1766.69269
21
-4184.895
31
0
0
LINE
8
PIPES
10
-1766.69269
20
-4184.895
30
0
11
-1766.69269
21
-3594.465
31
0
0
LINE
8
PIPES
10
-1766.69269
20
-3594.465
30
0
11
-1766.69269
21
-2713.235
31
0
0
LINE
8
PIPES
10
-6962.844246
20
-3020.0055
30
0
11
-6962.844246
21
-2720.0045
31
0
0
LINE
8
PIPES
10
-6962.844246
20
-2720.0045
30
0
11
-6962.844246
21
-2168.9415
31
0
0
LINE
8
PIPES
10
-6962.844246
20
-2168.9415
30
0
11
-6962.844246
21
-1719.3255
31
0
0
LINE
8
PIPES
10
-6962.844246
20
-1719.3255
30
0
11
-6962.844246
21
-1184.8955
31
0
0
LINE
8
PIPES
10
-6962.844246
20
-1184.8955
30
0
11
-6962.844246
21
-594.4655
31
0
0
LINE
8
PIPES
10
-6962.844246
20
-594.4655
30
0
11
-6962.844246
21
680.3845
31
0
0
LINE
8
PIPES
10
-2598.076211
20
-5540.0055
30
0
11
-2598.076211
21
-5240.0045
31
0
0
LINE
8
PIPES
10
-2598.076211
20
-5240.0045
30
0
11
-2598.076211
21
-4688.9415
31
0
0
LINE
8
PIPES
10
-3689.26822
20
-4910.0055
30
0
11
-3689.26822
21
-4610.0045
31
0
0
LINE
8
PIPES
10
-3689.26822
20
-4610.0045
30
0
11
-3689.26822
21
-4058.9415
31
0
0
LINE
8
PIPES
10
-4780.460229
20
-4280.0055
30
0
11
-4780.460229
21
-3980.0045
31
0
0
LINE
8
PIPES
10
-4780.460229
20
-3980.0045
30
0
11
-4780.460229
21
-3428.9415
31
0
0
LINE
8
PIPES
10
-5871.652238
20
-3650.0055
30
0
11
-5871.652238
21
-3350.0045
31
0
0
LINE
8
PIPES
10
-5871.652238
20
-3350.0045
30
0
11
-5871.652238
21
-2798.9415
31
0
0
LINE
8
PIPES
10
1506.883337
20
-4130.005
30
0
11
1506.883337
21
-3830.004
31
0
0
LINE
8
PIPES
10
1506.883337
20
-3830.004
30
0
11
1506.883337
21
-3278.941
31
0
0
LINE
8
PIPES
10
1506.883337
20
-3278.941
30
0
11
1506.883337
21
-2829.325
31
0
0
LINE
8
PIPES
10
1506.883337
20
-2829.325
30
0
11
1506.883337
21
-2294.895
31
0
0
LINE
8
PIPES
10
1506.883337
20
-2294.895
30
0
11
1506.883337
21
-1704.465
31
0
0
LINE
8
PIPES
10
1506.883337
20
-1704.465
30
0
11
1506.883337
21
-823.235
31
0
0
LINE
8
PIPES
10
-3689.26822
20
-1130.0055
30
0
11
-3689.26822
21
-830.0045
31
0
0
LINE
8
PIPES
10
-3689.26822
20
-830.0045
30
0
11
-3689.26822
21
-278.9415
31
0
0
LINE
8
PIPES
10
-3689.26822
20
-278.9415
30
0
11
-3689.26822
21
170.6745
31
0
0
LINE
8
PIPES
10
-3689.26822
20
170.6745
30
0
11
-3689.26822
21
705.1045
31
0
0
LINE
8
PIPES
10
-3689.26822
20
705.1045
30
0
11
-3689.26822
21
1295.5345
31
0
0
LINE
8
PIPES
10
-3689.26822
20
1295.5345
30
0
11
-3689.26822
21
2570.3845
31
0
0
LINE
8
PIPES
10
675.499815
20
-3650.0055
30
0
11
675.499815
21
-3350.0045
31
0
0
LINE
8
PIPES
10
675.499815
20
-3350.0045
30
0
11
675.499815
21
-2798.9415
31
0
0
LINE
8
PIPES
10
-415.692194
20
-3020.0055
30
0
11
-415.692194
21
-2720.0045
31
0
0
LINE
8
PIPES
10
-415.692194
20
-2720.0045
30
0
11
-415.692194
21
-2168.9415
31
0
0
LINE
8
PIPES
10
-1506.884203
20
-2390.0055
30
0
11
-1506.884203
21
-2090.0045
31
0
0
LINE
8
PIPES
10
-1506.884203
20
-2090.0045
30
0
11
-1506.884203
21
-1538.9415
31
0
0
LINE
8
PIPES
10
-2598.076211
20
-1760.0055
30
0
11
-2598.076211
21
-1460.0045
31
0
0
LINE
8
PIPES
10
-2598.076211
20
-1460.0045
30
0
11
-2598.076211
21
-908.9415
31
0
0
LINE
8
PIPES
10
-675.500681
20
-5390.005
30
0
11
-675.500681
21
-5090.004
31
0
0
LINE
8
PIPES
10
-675.500681
20
-5090.004
30
0
11
-675.500681
21
-4538.941
31
0
0
LINE
8
PIPES
10
-675.500681
20
-4538.941
30
0
11
-675.500681
21
-4089.325
31
0
0
LINE
8
PIPES
10
-675.500681
20
-4089.325
30
0
11
-675.500681
21
-3554.895
31
0
0
LINE
8
PIPES
10
-675.500681
20
-3554.895
30
0
11
-675.500681
21
-2964.465
31
0
0
LINE
8
PIPES
10
-675.500681
20
-2964.465
30
0
11
-675.500681
21
-2083.235
31
0
0
LINE
8
PIPES
10
-5871.652238
20
-2390.0055
30
0
11
-5871.652238
21
-2090.0045
31
0
0
LINE
8
PIPES
10
-5871.652238
20
-2090.0045
30
0
11
-5871.652238
21
-1538.9415
31
0
0
LINE
8
PIPES
10
-5871.652238
20
-1538.9415
30
0
11
-5871.652238
21
-1089.3255
31
0
0
LINE
8
PIPES
10
-5871.652238
20
-1089.3255
30
0
11
-5871.652238
21
-554.8955
31
0
0
LINE
8
PIPES
10
-5871.652238
20
-554.8955
30
0
11
-5871.652238
21
35.5345
31
0
0
LINE
8
PIPES
10
-5871.652238
20
35.5345
30
0
11
-5871.652238
21
429.1545
31
0
0
LINE
8
PIPES
10
-5871.652238
20
429.1545
30
0
11
-5871.652238
21
1310.3845
31
0
0
LINE
8
PIPES
10
-5871.652238
20
1326.5945
30
0
11
-5871.652238
21
1610.0045
31
0
0
LINE
8
PIPES
10
-1506.884203
20
-4910.0055
30
0
11
-1506.884203
21
-4610.0045
31
0
0
LINE
8
PIPES
10
-1506.884203
20
-4610.0045
30
0
11
-1506.884203
21
-4058.9415
31
0
0
LINE
8
PIPES
10
-2598.076211
20
-4280.0055
30
0
11
-2598.076211
21
-3980.0045
31
0
0
LINE
8
PIPES
10
-2598.076211
20
-3980.0045
30
0
11
-2598.076211
21
-3428.9415
31
0
0
LINE
8
PIPES
10
-3689.26822
20
-3650.0055
30
0
11
-3689.26822
21
-3350.0045
31
0
0
LINE
8
PIPES
10
-3689.26822
20
-3350.0045
30
0
11
-3689.26822
21
-2798.9415
31
0
0
LINE
8
PIPES
10
-4780.460229
20
-3020.0055
30
0
11
-4780.460229
21
-2720.0045
31
0
0
LINE
8
PIPES
10
-4780.460229
20
-2720.0045
30
0
11
-4780.460229
21
-2168.9415
31
0
0
LINE
8
PIPES
10
415.691328
20
-4760.005
30
0
11
415.691328
21
-4460.004
31
0
0
LINE
8
PIPES
10
415.691328
20
-4460.004
30
0
11
415.691328
21
-3908.941
31
0
0
LINE
8
PIPES
10
415.691328
20
-3908.941
30
0
11
415.691328
21
-3459.325
31
0
0
LINE
8
PIPES
10
415.691328
20
-3459.325
30
0
11
415.691328
21
-2924.895
31
0
0
LINE
8
PIPES
10
415.691328
20
-2924.895
30
0
11
415.691328
21
-2334.465
31
0
0
LINE
8
PIPES
10
415.691328
20
-2334.465
30
0
11
415.691328
21
-1453.235
31
0
0
LINE
8
PIPES
10
-4780.460229
20
-1760.0055
30
0
11
-4780.460229
21
-1460.0045
31
0
0
LINE
8
PIPES
10
-4780.460229
20
-1460.0045
30
0
11
-4780.460229
21
-908.9415
31
0
0
LINE
8
PIPES
10
-4780.460229
20
-908.9415
30
0
11
-4780.460229
21
-459.3255
31
0
0
LINE
8
PIPES
10
-4780.460229
20
-459.3255
30
0
11
-4780.460229
21
75.1045
31
0
0
LINE
8
PIPES
10
-4780.460229
20
75.1045
30
0
11
-4780.460229
21
665.5345
31
0
0
LINE
8
PIPES
10
-4780.460229
20
665.5345
30
0
11
-4780.460229
21
1059.1545
31
0
0
LINE
8
PIPES
10
-4780.460229
20
1059.1545
30
0
11
-4780.460229
21
1940.3845
31
0
0
LINE
8
PIPES
10
-4780.460229
20
1956.5945
30
0
11
-4780.460229
21
2240.0045
31
0
0
LINE
8
PIPES
10
-415.692194
20
-4280.0055
30
0
11
-415.692194
21
-3980.0045
31
0
0
LINE
8
PIPES
10
-415.692194
20
-3980.0045
30
0
11
-415.692194
21
-3428.9415
31
0
0
LINE
8
PIPES
10
-1506.884203
20
-3650.0055
30
0
11
-1506.884203
21
-3350.0045
31
0
0
LINE
8
PIPES
10
-1506.884203
20
-3350.0045
30
0
11
-1506.884203
21
-2798.9415
31
0
0
LINE
8
PIPES
10
-2598.076211
20
-3020.0055
30
0
11
-2598.076211
21
-2720.0045
31
0
0
LINE
8
PIPES
10
-2598.076211
20
-2720.0045
30
0
11
-2598.076211
21
-2168.9415
31
0
0
LINE
8
PIPES
10
-3689.26822
20
-2390.0055
30
0
11
-3689.26822
21
-2090.0045
31
0
0
LINE
8
PIPES
10
-3689.26822
20
-2090.0045
30
0
11
-3689.26822
21
-1538.9415
31
0
0
LINE
8
PIPES
10
-2165.062643
20
-5398.94
30
0
11
-2165.062643
21
-4949.324
31
0
0
LINE
8
PIPES
10
-2996.446165
20
-4918.9405
30
0
11
-2996.446165
21
-4469.3245
31
0
0
LINE
8
PIPES
10
-4087.638174
20
-4288.9405
30
0
11
-4087.638174
21
-3839.3245
31
0
0
LINE
8
PIPES
10
-5178.830183
20
-3658.9405
30
0
11
-5178.830183
21
-3209.3245
31
0
0
LINE
8
PIPES
10
-6270.022191
20
-3028.9405
30
0
11
-6270.022191
21
-2579.3245
31
0
0
LINE
8
PIPES
10
-7361.2142
20
-2398.9405
30
0
11
-7361.2142
21
-1949.3245
31
0
0
LINE
8
PIPES
10
-1108.514249
20
-4288.9405
30
0
11
-1108.514249
21
-3839.3245
31
0
0
LINE
8
PIPES
10
-5438.639536
20
-1788.9415
30
0
11
-5438.639536
21
-1339.3255
31
0
0
LINE
8
PIPES
10
-17.32224
20
-3658.9405
30
0
11
-17.32224
21
-3209.3245
31
0
0
LINE
8
PIPES
10
-4347.447527
20
-1158.9415
30
0
11
-4347.447527
21
-709.3255
31
0
0
LINE
8
PIPES
10
-2199.706258
20
-4918.9405
30
0
11
-2199.706258
21
-4469.3245
31
0
0
LINE
8
PIPES
10
-6529.831545
20
-2418.9415
30
0
11
-6529.831545
21
-1969.3255
31
0
0
LINE
8
PIPES
10
1073.869769
20
-3028.9405
30
0
11
1073.869769
21
-2579.3245
31
0
0
LINE
8
PIPES
10
-3256.255518
20
-528.9415
30
0
11
-3256.255518
21
-79.3255
31
0
0
LINE
8
PIPES
10
-2598.076211
20
-6200.0035
30
0
11
-1766.69269
21
-5720.004
31
0
0
LINE
8
PIPES
10
-1766.69269
20
-5720.004
30
0
11
-675.500681
21
-5090.004
31
0
0
LINE
8
PIPES
10
-675.500681
20
-5090.004
30
0
11
415.691328
21
-4460.004
31
0
0
LINE
8
PIPES
10
415.691328
20
-4460.004
30
0
11
1506.883337
21
-3830.004
31
0
0
LINE
8
PIPES
10
1506.883337
20
-3830.004
30
0
11
2598.075345
21
-3200.004
31
0
0
LINE
8
PIPES
10
-3429.459733
20
-5720.004
30
0
11
-2598.076211
21
-5240.0045
31
0
0
LINE
8
PIPES
10
-2598.076211
20
-5240.0045
30
0
11
-1506.884203
21
-4610.0045
31
0
0
LINE
8
PIPES
10
-1506.884203
20
-4610.0045
30
0
11
-415.692194
21
-3980.0045
31
0
0
LINE
8
PIPES
10
-415.692194
20
-3980.0045
30
0
11
675.499815
21
-3350.0045
31
0
0
LINE
8
PIPES
10
675.499815
20
-3350.0045
30
0
11
1766.691824
21
-2720.0045
31
0
0
LINE
8
PIPES
10
-4520.651742
20
-5090.004
30
0
11
-3689.26822
21
-4610.0045
31
0
0
LINE
8
PIPES
10
-3689.26822
20
-4610.0045
30
0
11
-2598.076211
21
-3980.0045
31
0
0
LINE
8
PIPES
10
-2598.076211
20
-3980.0045
30
0
11
-1506.884203
21
-3350.0045
31
0
0
LINE
8
PIPES
10
-1506.884203
20
-3350.0045
30
0
11
-415.692194
21
-2720.0045
31
0
0
LINE
8
PIPES
10
-415.692194
20
-2720.0045
30
0
11
675.499815
21
-2090.0045
31
0
0
LINE
8
PIPES
10
-5611.84375
20
-4460.004
30
0
11
-4780.460229
21
-3980.0045
31
0
0
LINE
8
PIPES
10
-4780.460229
20
-3980.0045
30
0
11
-3689.26822
21
-3350.0045
31
0
0
LINE
8
PIPES
10
-3689.26822
20
-3350.0045
30
0
11
-2598.076211
21
-2720.0045
31
0
0
LINE
8
PIPES
10
-2598.076211
20
-2720.0045
30
0
11
-1506.884203
21
-2090.0045
31
0
0
LINE
8
PIPES
10
-1506.884203
20
-2090.0045
30
0
11
-415.692194
21
-1460.0045
31
0
0
LINE
8
PIPES
10
-6703.035759
20
-3830.004
30
0
11
-5871.652238
21
-3350.0045
31
0
0
LINE
8
PIPES
10
-5871.652238
20
-3350.0045
30
0
11
-4780.460229
21
-2720.0045
31
0
0
LINE
8
PIPES
10
-4780.460229
20
-2720.0045
30
0
11
-3689.26822
21
-2090.0045
31
0
0
LINE
8
PIPES
10
-3689.26822
20
-2090.0045
30
0
11
-2598.076211
21
-1460.0045
31
0
0
LINE
8
PIPES
10
-2598.076211
20
-1460.0045
30
0
11
-1506.884203
21
-830.0045
31
0
0
LINE
8
PIPES
10
-7794.227768
20
-3200.004
30
0
11
-6962.844246
21
-2720.0045
31
0
0
LINE
8
PIPES
10
-6962.844246
20
-2720.0045
30
0
11
-5871.652238
21
-2090.0045
31
0
0
LINE
8
PIPES
10
-5871.652238
20
-2090.0045
30
0
11
-4780.460229
21
-1460.0045
31
0
0
LINE
8
PIPES
10
-4780.460229
20
-1460.0045
30
0
11
-3689.26822
21
-830.0045
31
0
0
LINE
8
PIPES
10
-3689.26822
20
-830.0045
30
0
11
-2598.076211
21
-200.0045
31
0
0
LINE
8
PIPES
10
-2598.076211
20
-6200.0035
30
0
11
-3429.459733
21
-5720.004
31
0
0
LINE
8
PIPES
10
-3429.459733
20
-5720.004
30
0
11
-4520.651742
21
-5090.004
31
0
0
LINE
8
PIPES
10
-4520.651742
20
-5090.004
30
0
11
-5611.84375
21
-4460.004
31
0
0
LINE
8
PIPES
10
-5611.84375
20
-4460.004
30
0
11
-6703.035759
21
-3830.004
31
0
0
LINE
8
PIPES
10
-6703.035759
20
-3830.004
30
0
11
-7794.227768
21
-3200.004
31
0
0
LINE
8
PIPES
10
-1766.69269
20
-5720.004
30
0
11
-2598.076211
21
-5240.0045
31
0
0
LINE
8
PIPES
10
-2598.076211
20
-5240.0045
30
0
11
-3689.26822
21
-4610.0045
31
0
0
LINE
8
PIPES
10
-3689.26822
20
-4610.0045
30
0
11
-4780.460229
21
-3980.0045
31
0
0
LINE
8
PIPES
10
-4780.460229
20
-3980.0045
30
0
11
-5871.652238
21
-3350.0045
31
0
0
LINE
8
PIPES
10
-5871.652238
20
-3350.0045
30
0
11
-6962.844246
21
-2720.0045
31
0
0
LINE
8
PIPES
10
-675.500681
20
-5090.004
30
0
11
-1506.884203
21
-4610.0045
31
0
0
LINE
8
PIPES
10
-1506.884203
20
-4610.0045
30
0
11
-2598.076211
21
-3980.0045
31
0
0
LINE
8
PIPES
10
-2598.076211
20
-3980.0045
30
0
11
-3689.26822
21
-3350.0045
31
0
0
LINE
8
PIPES
10
-3689.26822
20
-3350.0045
30
0
11
-4780.460229
21
-2720.0045
31
0
0
LINE
8
PIPES
10
-4780.460229
20
-2720.0045
30
0
11
-5871.652238
21
-2090.0045
31
0
0
LINE
8
PIPES
10
415.691328
20
-4460.004
30
0
11
-415.692194
21
-3980.0045
31
0
0
LINE
8
PIPES
10
-415.692194
20
-3980.0045
30
0
11
-1506.884203
21
-3350.0045
31
0
0
LINE
8
PIPES
10
-1506.884203
20
-3350.0045
30
0
11
-2598.076211
21
-2720.0045
31
0
0
LINE
8
PIPES
10
-2598.076211
20
-2720.0045
30
0
11
-3689.26822
21
-2090.0045
31
0
0
LINE
8
PIPES
10
-3689.26822
20
-2090.0045
30
0
11
-4780.460229
21
-1460.0045
31
0
0
LINE
8
PIPES
10
1506.883337
20
-3830.004
30
0
11
675.499815
21
-3350.0045
31
0
0
LINE
8
PIPES
10
675.499815
20
-3350.0045
30
0
11
-415.692194
21
-2720.0045
31
0
0
LINE
8
PIPES
10
-415.692194
20
-2720.0045
30
0
11
-1506.884203
21
-2090.0045
31
0
0
LINE
8
PIPES
10
-1506.884203
20
-2090.0045
30
0
11
-2598.076211
21
-1460.0045
31
0
0
LINE
8
PIPES
10
-2598.076211
20
-1460.0045
30
0
11
-3689.26822
21
-830.0045
31
0
0
LINE
8
PIPES
10
-2598.076211
20
-5648.9405
30
0
11
-2165.062643
21
-5398.94
31
0
0
LINE
8
PIPES
10
-1766.69269
20
-5168.941
30
0
11
-675.500681
21
-4538.941
31
0
0
LINE
8
PIPES
10
-675.500681
20
-4538.941
30
0
11
415.691328
21
-3908.941
31
0
0
LINE
8
PIPES
10
415.691328
20
-3908.941
30
0
11
1506.883337
21
-3278.941
31
0
0
LINE
8
PIPES
10
-7794.227768
20
-2648.941
30
0
11
-7361.2142
21
-2398.9405
31
0
0
LINE
8
PIPES
10
-6962.844246
20
-2168.9415
30
0
11
-5871.652238
21
-1538.9415
31
0
0
LINE
8
PIPES
10
-5871.652238
20
-1538.9415
30
0
11
-4780.460229
21
-908.9415
31
0
0
LINE
8
PIPES
10
-4780.460229
20
-908.9415
30
0
11
-3689.26822
21
-278.9415
31
0
0
LINE
8
PIPES
10
-2598.076211
20
-5648.9405
30
0
11
-3031.089779
21
-5398.94
31
0
0
LINE
8
PIPES
10
-3429.459733
20
-5168.941
30
0
11
-4520.651742
21
-4538.941
31
0
0
LINE
8
PIPES
10
-4520.651742
20
-4538.941
30
0
11
-5611.84375
21
-3908.941
31
0
0
LINE
8
PIPES
10
-5611.84375
20
-3908.941
30
0
11
-6703.035759
21
-3278.941
31
0
0
LINE
8
PIPES
10
-6703.035759
20
-3278.941
30
0
11
-7361.215066
21
-2898.941
31
0
0
LINE
8
PIPES
10
-3429.459733
20
-5168.941
30
0
11
-2996.446165
21
-4918.9405
31
0
0
LINE
8
PIPES
10
-2996.446165
20
-4918.9405
30
0
11
-2598.076211
21
-4688.9415
31
0
0
LINE
8
PIPES
10
-2598.076211
20
-4688.9415
30
0
11
-1506.884203
21
-4058.9415
31
0
0
LINE
8
PIPES
10
-1506.884203
20
-4058.9415
30
0
11
-415.692194
21
-3428.9415
31
0
0
LINE
8
PIPES
10
-415.692194
20
-3428.9415
30
0
11
675.499815
21
-2798.9415
31
0
0
LINE
8
PIPES
10
-4520.651742
20
-4538.941
30
0
11
-4087.638174
21
-4288.9405
31
0
0
LINE
8
PIPES
10
-4087.638174
20
-4288.9405
30
0
11
-3689.26822
21
-4058.9415
31
0
0
LINE
8
PIPES
10
-3689.26822
20
-4058.9415
30
0
11
-2598.076211
21
-3428.9415
31
0
0
LINE
8
PIPES
10
-2598.076211
20
-3428.9415
30
0
11
-1506.884203
21
-2798.9415
31
0
0
LINE
8
PIPES
10
-1506.884203
20
-2798.9415
30
0
11
-415.692194
21
-2168.9415
31
0
0
LINE
8
PIPES
10
-5611.84375
20
-3908.941
30
0
11
-5178.830183
21
-3658.9405
31
0
0
LINE
8
PIPES
10
-5178.830183
20
-3658.9405
30
0
11
-4780.460229
21
-3428.9415
31
0
0
LINE
8
PIPES
10
-4780.460229
20
-3428.9415
30
0
11
-3689.26822
21
-2798.9415
31
0
0
LINE
8
PIPES
10
-3689.26822
20
-2798.9415
30
0
11
-2598.076211
21
-2168.9415
31
0
0
LINE
8
PIPES
10
-2598.076211
20
-2168.9415
30
0
11
-1506.884203
21
-1538.9415
31
0
0
LINE
8
PIPES
10
-6703.035759
20
-3278.941
30
0
11
-6270.022191
21
-3028.9405
31
0
0
LINE
8
PIPES
10
-6270.022191
20
-3028.9405
30
0
11
-5871.652238
21
-2798.9415
31
0
0
LINE
8
PIPES
10
-5871.652238
20
-2798.9415
30
0
11
-4780.460229
21
-2168.9415
31
0
0
LINE
8
PIPES
10
-4780.460229
20
-2168.9415
30
0
11
-3689.26822
21
-1538.9415
31
0
0
LINE
8
PIPES
10
-3689.26822
20
-1538.9415
30
0
11
-2598.076211
21
-908.9415
31
0
0
LINE
8
PIPES
10
-675.500681
20
-4538.941
30
0
11
-1108.514249
21
-4288.9405
31
0
0
LINE
8
PIPES
10
-5871.652238
20
-1538.9415
30
0
11
-5438.639536
21
-1788.9415
31
0
0
LINE
8
PIPES
10
-1108.514249
20
-4288.9405
30
0
11
-1506.884203
21
-4058.9415
31
0
0
LINE
8
PIPES
10
-5438.639536
20
-1788.9415
30
0
11
-4780.460229
21
-2168.9415
31
0
0
LINE
8
PIPES
10
415.691328
20
-3908.941
30
0
11
-17.32224
21
-3658.9405
31
0
0
LINE
8
PIPES
10
-4780.460229
20
-908.9415
30
0
11
-4347.447527
21
-1158.9415
31
0
0
LINE
8
PIPES
10
-17.32224
20
-3658.9405
30
0
11
-415.692194
21
-3428.9415
31
0
0
LINE
8
PIPES
10
-4347.447527
20
-1158.9415
30
0
11
-3689.26822
21
-1538.9415
31
0
0
LINE
8
PIPES
10
-1766.69269
20
-5168.941
30
0
11
-2199.706258
21
-4918.9405
31
0
0
LINE
8
PIPES
10
-6962.844246
20
-2168.9415
30
0
11
-6529.831545
21
-2418.9415
31
0
0
LINE
8
PIPES
10
-2199.706258
20
-4918.9405
30
0
11
-2598.076211
21
-4688.9415
31
0
0
LINE
8
PIPES
10
-6529.831545
20
-2418.9415
30
0
11
-5871.652238
21
-2798.9415
31
0
0
LINE
8
PIPES
10
1506.883337
20
-3278.941
30
0
11
1073.869769
21
-3028.9405
31
0
0
LINE
8
PIPES
10
-3689.26822
20
-278.9415
30
0
11
-3256.255518
21
-528.9415
31
0
0
LINE
8
PIPES
10
1073.869769
20
-3028.9405
30
0
11
675.499815
21
-2798.9415
31
0
0
LINE
8
PIPES
10
-3256.255518
20
-528.9415
30
0
11
-2598.076211
21
-908.9415
31
0
0
LINE
8
PIPES
10
-2598.076211
20
-4699.3235
30
0
11
-2199.706258
21
-4469.3245
31
0
0
LINE
8
PIPES
10
-2199.706258
20
-4469.3245
30
0
11
-1108.514249
21
-3839.3245
31
0
0
LINE
8
PIPES
10
-1108.514249
20
-3839.3245
30
0
11
-17.32224
21
-3209.3245
31
0
0
LINE
8
PIPES
10
-17.32224
20
-3209.3245
30
0
11
1073.869769
21
-2579.3245
31
0
0
LINE
8
PIPES
10
1073.869769
20
-2579.3245
30
0
11
2165.070438
21
-1949.3195
31
0
0
LINE
8
PIPES
10
-6928.201498
20
-2199.3245
30
0
11
-6529.831545
21
-1969.3255
31
0
0
LINE
8
PIPES
10
-6529.831545
20
-1969.3255
30
0
11
-5438.639536
21
-1339.3255
31
0
0
LINE
8
PIPES
10
-4347.447527
20
-709.3255
30
0
11
-3256.255518
21
-79.3255
31
0
0
LINE
8
PIPES
10
-3256.255518
20
-79.3255
30
0
11
-2165.054849
21
550.6795
31
0
0
LINE
8
PIPES
10
-2598.076211
20
-5199.3245
30
0
11
-2165.062643
21
-4949.324
31
0
0
LINE
8
PIPES
10
-2165.062643
20
-4949.324
30
0
11
-1766.69269
21
-4719.325
31
0
0
LINE
8
PIPES
10
-1766.69269
20
-4719.325
30
0
11
-675.500681
21
-4089.325
31
0
0
LINE
8
PIPES
10
-675.500681
20
-4089.325
30
0
11
415.691328
21
-3459.325
31
0
0
LINE
8
PIPES
10
415.691328
20
-3459.325
30
0
11
1506.883337
21
-2829.325
31
0
0
LINE
8
PIPES
10
1506.883337
20
-2829.325
30
0
11
2598.075345
21
-2199.325
31
0
0
LINE
8
PIPES
10
-2598.076211
20
800.6745
30
0
11
-3689.26822
21
170.6745
31
0
0
LINE
8
PIPES
10
-3689.26822
20
170.6745
30
0
11
-4780.460229
21
-459.3255
31
0
0
LINE
8
PIPES
10
-5871.652238
20
-1089.3255
30
0
11
-6962.844246
21
-1719.3255
31
0
0
LINE
8
PIPES
10
-6962.844246
20
-1719.3255
30
0
11
-7361.2142
21
-1949.3245
31
0
0
LINE
8
PIPES
10
-7361.2142
20
-1949.3245
30
0
11
-7794.227768
21
-2199.325
31
0
0
LINE
8
PIPES
10
-2598.076211
20
-5199.3245
30
0
11
-3031.089779
21
-4949.324
31
0
0
LINE
8
PIPES
10
-3429.459733
20
-4719.325
30
0
11
-4520.651742
21
-4089.325
31
0
0
LINE
8
PIPES
10
-4520.651742
20
-4089.325
30
0
11
-5611.84375
21
-3459.325
31
0
0
LINE
8
PIPES
10
-5611.84375
20
-3459.325
30
0
11
-6703.035759
21
-2829.325
31
0
0
LINE
8
PIPES
10
-6703.035759
20
-2829.325
30
0
11
-7361.215066
21
-2449.325
31
0
0
LINE
8
PIPES
10
-2165.062643
20
-4949.324
30
0
11
-2598.076211
21
-4699.3235
31
0
0
LINE
8
PIPES
10
-2598.076211
20
-4699.3235
30
0
11
-2996.446165
21
-4469.3245
31
0
0
LINE
8
PIPES
10
-4087.638174
20
-3839.3245
30
0
11
-5178.830183
21
-3209.3245
31
0
0
LINE
8
PIPES
10
-6928.201498
20
-2199.3245
30
0
11
-7361.2142
21
-1949.3245
31
0
0
LINE
8
PIPES
10
-675.500681
20
-4089.325
30
0
11
-1108.514249
21
-3839.3245
31
0
0
LINE
8
PIPES
10
-5871.652238
20
-1089.3255
30
0
11
-5438.639536
21
-1339.3255
31
0
0
LINE
8
PIPES
10
415.691328
20
-3459.325
30
0
11
-17.32224
21
-3209.3245
31
0
0
LINE
8
PIPES
10
-4780.460229
20
-459.3255
30
0
11
-4347.447527
21
-709.3255
31
0
0
LINE
8
PIPES
10
-1766.69269
20
-4719.325
30
0
11
-2199.706258
21
-4469.3245
31
0
0
LINE
8
PIPES
10
-6962.844246
20
-1719.3255
30
0
11
-6529.831545
21
-1969.3255
31
0
0
LINE
8
PIPES
10
1506.883337
20
-2829.325
30
0
11
1073.869769
21
-2579.3245
31
0
0
LINE
8
PIPES
10
-3689.26822
20
170.6745
30
0
11
-3256.255518
21
-79.3255
31
0
0
LINE
8
PIPES
10
-3429.459733
20
-4719.325
30
0
11
-2996.446165
21
-4469.3245
31
0
0
LINE
8
PIPES
10
-4520.651742
20
-4089.325
30
0
11
-4087.638174
21
-3839.3245
31
0
0
LINE
8
PIPES
10
-5611.84375
20
-3459.325
30
0
11
-5178.830183
21
-3209.3245
31
0
0
LINE
8
PIPES
10
-6703.035759
20
-2829.325
30
0
11
-6270.022191
21
-2579.3245
31
0
0
LINE
8
PIPES
10
-2598.076211
20
-4664.8945
30
0
11
-1766.69269
21
-4184.895
31
0
0
LINE
8
PIPES
10
-1766.69269
20
-4184.895
30
0
11
-675.500681
21
-3554.895
31
0
0
LINE
8
PIPES
10
-675.500681
20
-3554.895
30
0
11
415.691328
21
-2924.895
31
0
0
LINE
8
PIPES
10
415.691328
20
-2924.895
30
0
11
1506.883337
21
-2294.895
31
0
0
LINE
8
PIPES
10
1506.883337
20
-2294.895
30
0
11
2598.075345
21
-1664.895
31
0
0
LINE
8
PIPES
10
-7794.227768
20
-1664.895
30
0
11
-6962.844246
21
-1184.8955
31
0
0
LINE
8
PIPES
10
-6962.844246
20
-1184.8955
30
0
11
-5871.652238
21
-554.8955
31
0
0
LINE
8
PIPES
10
-4780.460229
20
75.1045
30
0
11
-3689.26822
21
705.1045
31
0
0
LINE
8
PIPES
10
-3689.26822
20
705.1045
30
0
11
-2598.076211
21
1335.1045
31
0
0
LINE
8
PIPES
10
-2598.076211
20
-4664.8945
30
0
11
-3429.459733
21
-4184.895
31
0
0
LINE
8
PIPES
10
-3429.459733
20
-4184.895
30
0
11
-4520.651742
21
-3554.895
31
0
0
LINE
8
PIPES
10
-4520.651742
20
-3554.895
30
0
11
-5611.84375
21
-2924.895
31
0
0
LINE
8
PIPES
10
-5611.84375
20
-2924.895
30
0
11
-6703.035759
21
-2294.895
31
0
0
LINE
8
PIPES
10
-6703.035759
20
-2294.895
30
0
11
-7794.227768
21
-1664.895
31
0
0
LINE
8
PIPES
10
-2598.076211
20
-4074.4645
30
0
11
-1766.69269
21
-3594.465
31
0
0
LINE
8
PIPES
10
-1766.69269
20
-3594.465
30
0
11
-675.500681
21
-2964.465
31
0
0
LINE
8
PIPES
10
-675.500681
20
-2964.465
30
0
11
415.691328
21
-2334.465
31
0
0
LINE
8
PIPES
10
415.691328
20
-2334.465
30
0
11
1506.883337
21
-1704.465
31
0
0
LINE
8
PIPES
10
1506.883337
20
-1704.465
30
0
11
2598.075345
21
-1074.465
31
0
0
LINE
8
PIPES
10
-7794.227768
20
-1074.465
30
0
11
-6962.844246
21
-594.4655
31
0
0
LINE
8
PIPES
10
-6962.844246
20
-594.4655
30
0
11
-5871.652238
21
35.5345
31
0
0
LINE
8
PIPES
10
-4780.460229
20
665.5345
30
0
11
-3689.26822
21
1295.5345
31
0
0
LINE
8
PIPES
10
-3689.26822
20
1295.5345
30
0
11
-2598.076211
21
1925.5345
31
0
0
LINE
8
PIPES
10
-2598.076211
20
-4074.4645
30
0
11
-3429.459733
21
-3594.465
31
0
0
LINE
8
PIPES
10
-3429.459733
20
-3594.465
30
0
11
-4520.651742
21
-2964.465
31
0
0
LINE
8
PIPES
10
-4520.651742
20
-2964.465
30
0
11
-5611.84375
21
-2334.465
31
0
0
LINE
8
PIPES
10
-5611.84375
20
-2334.465
30
0
11
-6703.035759
21
-1704.465
31
0
0
LINE
8
PIPES
10
-6703.035759
20
-1704.465
30
0
11
-7794.227768
21
-1074.465
31
0
0
LINE
8
PIPES
10
-2598.076211
20
-2893.6145
30
0
11
-1766.69269
21
-2413.615
31
0
0
LINE
8
PIPES
10
-2598.076211
20
-3193.2345
30
0
11
-1766.69269
21
-2713.235
31
0
0
LINE
8
PIPES
10
-1766.69269
20
-2413.615
30
0
11
-675.500681
21
-1783.615
31
0
0
LINE
8
PIPES
10
-1766.69269
20
-2713.235
30
0
11
-675.500681
21
-2083.235
31
0
0
LINE
8
PIPES
10
-675.500681
20
-1783.615
30
0
11
415.691328
21
-1153.615
31
0
0
LINE
8
PIPES
10
-675.500681
20
-2083.235
30
0
11
415.691328
21
-1453.235
31
0
0
LINE
8
PIPES
10
415.691328
20
-1153.615
30
0
11
1506.883337
21
-523.615
31
0
0
LINE
8
PIPES
10
415.691328
20
-1453.235
30
0
11
1506.883337
21
-823.235
31
0
0
LINE
8
PIPES
10
1506.883337
20
-523.615
30
0
11
2598.075345
21
106.385
31
0
0
LINE
8
PIPES
10
1506.883337
20
-823.235
30
0
11
2598.075345
21
-193.235
31
0
0
LINE
8
PIPES
10
-7794.227768
20
500.005
30
0
11
-6962.844246
21
980.0045
31
0
0
LINE
8
PIPES
10
-7794.227768
20
200.385
30
0
11
-6962.844246
21
680.3845
31
0
0
LINE
8
PIPES
10
-6962.844246
20
980.0045
30
0
11
-5871.652238
21
1610.0045
31
0
0
LINE
8
PIPES
10
-6962.844246
20
680.3845
30
0
11
-5871.652238
21
1310.3845
31
0
0
LINE
8
PIPES
10
-5871.652238
20
1610.0045
30
0
11
-4780.460229
21
2240.0045
31
0
0
LINE
8
PIPES
10
-5871.652238
20
1310.3845
30
0
11
-4780.460229
21
1940.3845
31
0
0
LINE
8
PIPES
10
-4780.460229
20
2240.0045
30
0
11
-3689.26822
21
2870.0045
31
0
0
LINE
8
PIPES
10
-4780.460229
20
1940.3845
30
0
11
-3689.26822
21
2570.3845
31
0
0
LINE
8
PIPES
10
-3689.26822
20
2870.0045
30
0
11
-2598.076211
21
3500.0045
31
0
0
LINE
8
PIPES
10
-3689.26822
20
2570.3845
30
0
11
-2598.076211
21
3200.3845
31
0
0
LINE
8
PIPES
10
-675.500681
20
-1783.615
30
0
11
-715.648753
21
-1738.7955
31
0
0
LINE
8
PIPES
10
-715.648753
20
-1738.7955
30
0
11
-973.448927
21
-1571.3545
31
0
0
LINE
8
PIPES
10
-973.448927
20
-1571.3545
30
0
11
-1231.249101
21
-1403.9135
31
0
0
LINE
8
PIPES
10
-1231.249101
20
-1403.9135
30
0
11
-1489.05274
21
-1236.4705
31
0
0
LINE
8
PIPES
10
-1489.05274
20
-1236.4705
30
0
11
-1506.884203
21
-1224.8955
31
0
0
LINE
8
PIPES
10
-1746.851182
20
-1069.0305
30
0
11
-2004.649624
21
-901.6005
31
0
0
LINE
8
PIPES
10
-2004.649624
20
-901.6005
30
0
11
-2262.448066
21
-734.1605
31
0
0
LINE
8
PIPES
10
-2262.448066
20
-734.1605
30
0
11
-2520.246508
21
-566.7205
31
0
0
LINE
8
PIPES
10
-2520.246508
20
-566.7205
30
0
11
-2598.076211
21
-516.1655
31
0
0
LINE
8
PIPES
10
-2778.053611
20
-399.2755
30
0
11
-3035.852053
21
-231.8355
31
0
0
LINE
8
PIPES
10
-3035.852053
20
-231.8355
30
0
11
-3293.650495
21
-64.3955
31
0
0
LINE
8
PIPES
10
-3293.650495
20
-64.3955
30
0
11
-3551.448937
21
103.0445
31
0
0
LINE
8
PIPES
10
-3551.448937
20
103.0445
30
0
11
-3689.26822
21
192.5545
31
0
0
LINE
8
PIPES
10
-3809.24738
20
270.4845
30
0
11
-4067.054482
21
437.9295
31
0
0
LINE
8
PIPES
10
-4067.054482
20
437.9295
30
0
11
-4324.852924
21
605.3695
31
0
0
LINE
8
PIPES
10
-4324.852924
20
605.3695
30
0
11
-4582.651366
21
772.8095
31
0
0
LINE
8
PIPES
10
-4582.651366
20
772.8095
30
0
11
-4780.460229
21
901.2845
31
0
0
LINE
8
PIPES
10
-4840.449809
20
940.2395
30
0
11
-5098.248251
21
1107.6795
31
0
0
LINE
8
PIPES
10
-5098.248251
20
1107.6795
30
0
11
-5356.055353
21
1275.1245
31
0
0
LINE
8
PIPES
10
-5356.055353
20
1275.1245
30
0
11
-5613.853795
21
1442.5645
31
0
0
LINE
8
PIPES
10
-5613.853795
20
1442.5645
30
0
11
-5871.652238
21
1610.0045
31
0
0
LINE
8
PIPES
10
-675.500681
20
-2083.235
30
0
11
-715.648753
21
-2038.4155
31
0
0
LINE
8
PIPES
10
-715.648753
20
-2038.4155
30
0
11
-973.448927
21
-1870.9745
31
0
0
LINE
8
PIPES
10
-973.448927
20
-1870.9745
30
0
11
-1231.249101
21
-1703.5335
31
0
0
LINE
8
PIPES
10
-1231.249101
20
-1703.5335
30
0
11
-1489.05274
21
-1536.0905
31
0
0
LINE
8
PIPES
10
-1489.05274
20
-1536.0905
30
0
11
-1506.884203
21
-1524.5155
31
0
0
LINE
8
PIPES
10
-1746.851182
20
-1368.6505
30
0
11
-2004.649624
21
-1201.2205
31
0
0
LINE
8
PIPES
10
-2004.649624
20
-1201.2205
30
0
11
-2262.448066
21
-1033.7805
31
0
0
LINE
8
PIPES
10
-2262.448066
20
-1033.7805
30
0
11
-2520.246508
21
-866.3405
31
0
0
LINE
8
PIPES
10
-2520.246508
20
-866.3405
30
0
11
-2598.076211
21
-815.7855
31
0
0
LINE
8
PIPES
10
-2778.053611
20
-698.8955
30
0
11
-3035.852053
21
-531.4555
31
0
0
LINE
8
PIPES
10
-3035.852053
20
-531.4555
30
0
11
-3293.650495
21
-364.0155
31
0
0
LINE
8
PIPES
10
-3293.650495
20
-364.0155
30
0
11
-3551.448937
21
-196.5755
31
0
0
LINE
8
PIPES
10
-3551.448937
20
-196.5755
30
0
11
-3689.26822
21
-107.0655
31
0
0
LINE
8
PIPES
10
-3809.24738
20
-29.1355
30
0
11
-4067.054482
21
138.3095
31
0
0
LINE
8
PIPES
10
-4067.054482
20
138.3095
30
0
11
-4324.852924
21
305.7495
31
0
0
LINE
8
PIPES
10
-4324.852924
20
305.7495
30
0
11
-4582.651366
21
473.1795
31
0
0
LINE
8
PIPES
10
-4582.651366
20
473.1795
30
0
11
-4780.460229
21
601.6645
31
0
0
LINE
8
PIPES
10
-4840.449809
20
640.6195
30
0
11
-5098.248251
21
808.0595
31
0
0
LINE
8
PIPES
10
-5098.248251
20
808.0595
30
0
11
-5356.055353
21
975.5045
31
0
0
LINE
8
PIPES
10
-5356.055353
20
975.5045
30
0
11
-5613.853795
21
1142.9445
31
0
0
LINE
8
PIPES
10
-5613.853795
20
1142.9445
30
0
11
-5871.652238
21
1310.3845
31
0
0
LINE
8
PIPES
10
-5871.652238
20
1310.3845
30
0
11
-5871.652238
21
1326.5945
31
0
0
LINE
8
PIPES
10
-675.500681
20
-1783.615
30
0
11
-675.500681
21
-2083.235
31
0
0
LINE
8
PIPES
10
-715.648753
20
-1738.7955
30
0
11
-715.648753
21
-2038.4155
31
0
0
LINE
8
PIPES
10
-973.448927
20
-1571.3545
30
0
11
-973.448927
21
-1870.9745
31
0
0
LINE
8
PIPES
10
-1231.249101
20
-1403.9135
30
0
11
-1231.249101
21
-1703.5335
31
0
0
LINE
8
PIPES
10
-1489.05274
20
-1236.4705
30
0
11
-1489.05274
21
-1536.0905
31
0
0
LINE
8
PIPES
10
-1746.851182
20
-1069.0305
30
0
11
-1746.851182
21
-1368.6505
31
0
0
LINE
8
PIPES
10
-2004.649624
20
-901.6005
30
0
11
-2004.649624
21
-1201.2205
31
0
0
LINE
8
PIPES
10
-2262.448066
20
-734.1605
30
0
11
-2262.448066
21
-1033.7805
31
0
0
LINE
8
PIPES
10
-2520.246508
20
-566.7205
30
0
11
-2520.246508
21
-866.3405
31
0
0
LINE
8
PIPES
10
-2778.053611
20
-399.2755
30
0
11
-2778.053611
21
-698.8955
31
0
0
LINE
8
PIPES
10
-3035.852053
20
-231.8355
30
0
11
-3035.852053
21
-531.4555
31
0
0
LINE
8
PIPES
10
-3293.650495
20
-64.3955
30
0
11
-3293.650495
21
-364.0155
31
0
0
LINE
8
PIPES
10
-3551.448937
20
103.0445
30
0
11
-3551.448937
21
-196.5755
31
0
0
LINE
8
PIPES
10
-3809.24738
20
270.4845
30
0
11
-3809.24738
21
-29.1355
31
0
0
LINE
8
PIPES
10
-4067.054482
20
437.9295
30
0
11
-4067.054482
21
138.3095
31
0
0
LINE
8
PIPES
10
-4324.852924
20
605.3695
30
0
11
-4324.852924
21
305.7495
31
0
0
LINE
8
PIPES
10
-4582.651366
20
772.8095
30
0
11
-4582.651366
21
473.1795
31
0
0
LINE
8
PIPES
10
-4840.449809
20
940.2395
30
0
11
-4840.449809
21
640.6195
31
0
0
LINE
8
PIPES
10
-5098.248251
20
1107.6795
30
0
11
-5098.248251
21
808.0595
31
0
0
LINE
8
PIPES
10
-5356.055353
20
1275.1245
30
0
11
-5356.055353
21
975.5045
31
0
0
LINE
8
PIPES
10
-5613.853795
20
1442.5645
30
0
11
-5613.853795
21
1142.9445
31
0
0
LINE
8
PIPES
10
415.691328
20
-1153.615
30
0
11
375.543256
21
-1108.7955
31
0
0
LINE
8
PIPES
10
375.543256
20
-1108.7955
30
0
11
117.743082
21
-941.3545
31
0
0
LINE
8
PIPES
10
117.743082
20
-941.3545
30
0
11
-140.057092
21
-773.9135
31
0
0
LINE
8
PIPES
10
-140.057092
20
-773.9135
30
0
11
-397.860731
21
-606.4705
31
0
0
LINE
8
PIPES
10
-397.860731
20
-606.4705
30
0
11
-415.692194
21
-594.8955
31
0
0
LINE
8
PIPES
10
-655.659173
20
-439.0305
30
0
11
-913.457615
21
-271.6005
31
0
0
LINE
8
PIPES
10
-913.457615
20
-271.6005
30
0
11
-1171.256057
21
-104.1605
31
0
0
LINE
8
PIPES
10
-1171.256057
20
-104.1605
30
0
11
-1429.0545
21
63.2795
31
0
0
LINE
8
PIPES
10
-1429.0545
20
63.2795
30
0
11
-1506.884203
21
113.8345
31
0
0
LINE
8
PIPES
10
-1686.861602
20
230.7245
30
0
11
-1944.660044
21
398.1645
31
0
0
LINE
8
PIPES
10
-1944.660044
20
398.1645
30
0
11
-2202.458486
21
565.6045
31
0
0
LINE
8
PIPES
10
-2202.458486
20
565.6045
30
0
11
-2460.256929
21
733.0445
31
0
0
LINE
8
PIPES
10
-2460.256929
20
733.0445
30
0
11
-2598.076211
21
822.5545
31
0
0
LINE
8
PIPES
10
-2718.055371
20
900.4845
30
0
11
-2975.862473
21
1067.9295
31
0
0
LINE
8
PIPES
10
-2975.862473
20
1067.9295
30
0
11
-3233.660915
21
1235.3695
31
0
0
LINE
8
PIPES
10
-3233.660915
20
1235.3695
30
0
11
-3491.459358
21
1402.8095
31
0
0
LINE
8
PIPES
10
-3491.459358
20
1402.8095
30
0
11
-3689.26822
21
1531.2845
31
0
0
LINE
8
PIPES
10
-3749.2578
20
1570.2395
30
0
11
-4007.056242
21
1737.6795
31
0
0
LINE
8
PIPES
10
-4007.056242
20
1737.6795
30
0
11
-4264.863344
21
1905.1245
31
0
0
LINE
8
PIPES
10
-4264.863344
20
1905.1245
30
0
11
-4522.661787
21
2072.5645
31
0
0
LINE
8
PIPES
10
-4522.661787
20
2072.5645
30
0
11
-4780.460229
21
2240.0045
31
0
0
LINE
8
PIPES
10
415.691328
20
-1453.235
30
0
11
375.543256
21
-1408.4155
31
0
0
LINE
8
PIPES
10
375.543256
20
-1408.4155
30
0
11
117.743082
21
-1240.9745
31
0
0
LINE
8
PIPES
10
117.743082
20
-1240.9745
30
0
11
-140.057092
21
-1073.5335
31
0
0
LINE
8
PIPES
10
-140.057092
20
-1073.5335
30
0
11
-397.860731
21
-906.0905
31
0
0
LINE
8
PIPES
10
-397.860731
20
-906.0905
30
0
11
-415.692194
21
-894.5155
31
0
0
LINE
8
PIPES
10
-655.659173
20
-738.6505
30
0
11
-913.457615
21
-571.2205
31
0
0
LINE
8
PIPES
10
-913.457615
20
-571.2205
30
0
11
-1171.256057
21
-403.7805
31
0
0
LINE
8
PIPES
10
-1171.256057
20
-403.7805
30
0
11
-1429.0545
21
-236.3405
31
0
0
LINE
8
PIPES
10
-1429.0545
20
-236.3405
30
0
11
-1506.884203
21
-185.7855
31
0
0
LINE
8
PIPES
10
-1686.861602
20
-68.8955
30
0
11
-1944.660044
21
98.5445
31
0
0
LINE
8
PIPES
10
-1944.660044
20
98.5445
30
0
11
-2202.458486
21
265.9845
31
0
0
LINE
8
PIPES
10
-2202.458486
20
265.9845
30
0
11
-2460.256929
21
433.4245
31
0
0
LINE
8
PIPES
10
-2460.256929
20
433.4245
30
0
11
-2598.076211
21
522.9345
31
0
0
LINE
8
PIPES
10
-2718.055371
20
600.8645
30
0
11
-2975.862473
21
768.3095
31
0
0
LINE
8
PIPES
10
-2975.862473
20
768.3095
30
0
11
-3233.660915
21
935.7495
31
0
0
LINE
8
PIPES
10
-3233.660915
20
935.7495
30
0
11
-3491.459358
21
1103.1795
31
0
0
LINE
8
PIPES
10
-3491.459358
20
1103.1795
30
0
11
-3689.26822
21
1231.6645
31
0
0
LINE
8
PIPES
10
-3749.2578
20
1270.6195
30
0
11
-4007.056242
21
1438.0595
31
0
0
LINE
8
PIPES
10
-4007.056242
20
1438.0595
30
0
11
-4264.863344
21
1605.5045
31
0
0
LINE
8
PIPES
10
-4264.863344
20
1605.5045
30
0
11
-4522.661787
21
1772.9445
31
0
0
LINE
8
PIPES
10
-4522.661787
20
1772.9445
30
0
11
-4780.460229
21
1940.3845
31
0
0
LINE
8
PIPES
10
-4780.460229
20
1940.3845
30
0
11
-4780.460229
21
1956.5945
31
0
0
LINE
8
PIPES
10
415.691328
20
-1153.615
30
0
11
415.691328
21
-1453.235
31
0
0
LINE
8
PIPES
10
375.543256
20
-1108.7955
30
0
11
375.543256
21
-1408.4155
31
0
0
LINE
8
PIPES
10
117.743082
20
-941.3545
30
0
11
117.743082
21
-1240.9745
31
0
0
LINE
8
PIPES
10
-140.057092
20
-773.9135
30
0
11
-140.057092
21
-1073.5335
31
0
0
LINE
8
PIPES
10
-397.860731
20
-606.4705
30
0
11
-397.860731
21
-906.0905
31
0
0
LINE
8
PIPES
10
-655.659173
20
-439.0305
30
0
11
-655.659173
21
-738.6505
31
0
0
LINE
8
PIPES
10
-913.457615
20
-271.6005
30
0
11
-913.457615
21
-571.2205
31
0
0
LINE
8
PIPES
10
-1171.256057
20
-104.1605
30
0
11
-1171.256057
21
-403.7805
31
0
0
LINE
8
PIPES
10
-1429.0545
20
63.2795
30
0
11
-1429.0545
21
-236.3405
31
0
0
LINE
8
PIPES
10
-1686.861602
20
230.7245
30
0
11
-1686.861602
21
-68.8955
31
0
0
LINE
8
PIPES
10
-1944.660044
20
398.1645
30
0
11
-1944.660044
21
98.5445
31
0
0
LINE
8
PIPES
10
-2202.458486
20
565.6045
30
0
11
-2202.458486
21
265.9845
31
0
0
LINE
8
PIPES
10
-2460.256929
20
733.0445
30
0
11
-2460.256929
21
433.4245
31
0
0
LINE
8
PIPES
10
-2718.055371
20
900.4845
30
0
11
-2718.055371
21
600.8645
31
0
0
LINE
8
PIPES
10
-2975.862473
20
1067.9295
30
0
11
-2975.862473
21
768.3095
31
0
0
LINE
8
PIPES
10
-3233.660915
20
1235.3695
30
0
11
-3233.660915
21
935.7495
31
0
0
LINE
8
PIPES
10
-3491.459358
20
1402.8095
30
0
11
-3491.459358
21
1103.1795
31
0
0
LINE
8
PIPES
10
-3749.2578
20
1570.2395
30
0
11
-3749.2578
21
1270.6195
31
0
0
LINE
8
PIPES
10
-4007.056242
20
1737.6795
30
0
11
-4007.056242
21
1438.0595
31
0
0
LINE
8
PIPES
10
-4264.863344
20
1905.1245
30
0
11
-4264.863344
21
1605.5045
31
0
0
LINE
8
PIPES
10
-4522.661787
20
2072.5645
30
0
11
-4522.661787
21
1772.9445
31
0
0
LINE
8
PIPES
10
-2598.076211
20
-3193.2345
30
0
11
-3429.459733
21
-3594.465
31
0
0
LINE
8
PIPES
10
-3429.459733
20
-3594.465
30
0
11
-2598.076211
21
-5199.3245
31
0
0
LINE
8
PIPES
10
-2598.076211
20
-5199.3245
30
0
11
-3429.459733
21
-6020.005
31
0
0
LINE
8
PIPES
10
-3429.459733
20
-2634.515
30
0
11
-4520.651742
21
-2964.465
31
0
0
LINE
8
PIPES
10
-4520.651742
20
-2964.465
30
0
11
-3429.459733
21
-4719.325
31
0
0
LINE
8
PIPES
10
-3429.459733
20
-4719.325
30
0
11
-4520.651742
21
-5390.005
31
0
0
LINE
8
PIPES
10
-4520.651742
20
-1925.785
30
0
11
-5611.84375
21
-2334.465
31
0
0
LINE
8
PIPES
10
-5611.84375
20
-2334.465
30
0
11
-4520.651742
21
-4089.325
31
0
0
LINE
8
PIPES
10
-4520.651742
20
-4089.325
30
0
11
-5611.84375
21
-4760.005
31
0
0
LINE
8
PIPES
10
-5611.84375
20
-1217.065
30
0
11
-6703.035759
21
-1704.465
31
0
0
LINE
8
PIPES
10
-6703.035759
20
-1704.465
30
0
11
-5611.84375
21
-3459.325
31
0
0
LINE
8
PIPES
10
-5611.84375
20
-3459.325
30
0
11
-6703.035759
21
-4130.005
31
0
0
LINE
8
PIPES
10
-6703.035759
20
-508.335
30
0
11
-7794.227768
21
-1074.465
31
0
0
LINE
8
PIPES
10
-7794.227768
20
-1074.465
30
0
11
-6703.035759
21
-2829.325
31
0
0
LINE
8
PIPES
10
-6703.035759
20
-2829.325
30
0
11
-7794.227768
21
-3500.005
31
0
0
LINE
8
PIPES
10
-5871.652238
20
429.1545
30
0
11
-4780.460229
21
1059.1545
31
0
0
LINE
8
PIPES
10
-2598.076211
20
-4688.9415
30
0
11
-3689.26822
21
-4058.9415
31
0
0
LINE
8
PIPES
10
-3689.26822
20
-4058.9415
30
0
11
-4780.460229
21
-3428.9415
31
0
0
LINE
8
PIPES
10
-4780.460229
20
-3428.9415
30
0
11
-5871.652238
21
-2798.9415
31
0
0
LINE
8
PIPES
10
-1506.884203
20
-4058.9415
30
0
11
-2598.076211
21
-3428.9415
31
0
0
LINE
8
PIPES
10
-2598.076211
20
-3428.9415
30
0
11
-3689.26822
21
-2798.9415
31
0
0
LINE
8
PIPES
10
-3689.26822
20
-2798.9415
30
0
11
-4780.460229
21
-2168.9415
31
0
0
LINE
8
PIPES
10
-415.692194
20
-3428.9415
30
0
11
-1506.884203
21
-2798.9415
31
0
0
LINE
8
PIPES
10
-1506.884203
20
-2798.9415
30
0
11
-2598.076211
21
-2168.9415
31
0
0
LINE
8
PIPES
10
-2598.076211
20
-2168.9415
30
0
11
-3689.26822
21
-1538.9415
31
0
0
LINE
8
PIPES
10
675.499815
20
-2798.9415
30
0
11
-415.692194
21
-2168.9415
31
0
0
LINE
8
PIPES
10
-415.692194
20
-2168.9415
30
0
11
-1506.884203
21
-1538.9415
31
0
0
LINE
8
PIPES
10
-1506.884203
20
-1538.9415
30
0
11
-2598.076211
21
-908.9415
31
0
0
LINE
8
PIPES
10
-2598.076211
20
-5648.9405
30
0
11
-1766.69269
21
-5720.004
31
0
0
LINE
8
PIPES
10
-1766.69269
20
-5720.004
30
0
11
-675.500681
21
-4538.941
31
0
0
LINE
8
PIPES
10
-675.500681
20
-4538.941
30
0
11
415.691328
21
-4460.004
31
0
0
LINE
8
PIPES
10
1506.883337
20
-3278.941
30
0
11
415.691328
21
-4460.004
31
0
0
LINE
8
PIPES
10
1506.883337
20
-3278.941
30
0
11
2598.075345
21
-3200.004
31
0
0
LINE
8
PIPES
10
-3429.459733
20
-5720.004
30
0
11
-2598.076211
21
-4688.9415
31
0
0
LINE
8
PIPES
10
-2598.076211
20
-4688.9415
30
0
11
-1506.884203
21
-4610.0045
31
0
0
LINE
8
PIPES
10
-1506.884203
20
-4610.0045
30
0
11
-415.692194
21
-3428.9415
31
0
0
LINE
8
PIPES
10
-415.692194
20
-3428.9415
30
0
11
675.499815
21
-3350.0045
31
0
0
LINE
8
PIPES
10
675.499815
20
-3350.0045
30
0
11
1766.691824
21
-2168.9415
31
0
0
LINE
8
PIPES
10
-4520.651742
20
-4538.941
30
0
11
-3689.26822
21
-4610.0045
31
0
0
LINE
8
PIPES
10
-3689.26822
20
-4610.0045
30
0
11
-2598.076211
21
-3428.9415
31
0
0
LINE
8
PIPES
10
-2598.076211
20
-3428.9415
30
0
11
-1506.884203
21
-3350.0045
31
0
0
LINE
8
PIPES
10
-1506.884203
20
-3350.0045
30
0
11
-415.692194
21
-2168.9415
31
0
0
LINE
8
PIPES
10
-415.692194
20
-2168.9415
30
0
11
675.499815
21
-2090.0045
31
0
0
LINE
8
PIPES
10
-5611.84375
20
-4460.004
30
0
11
-4780.460229
21
-3428.9415
31
0
0
LINE
8
PIPES
10
-4780.460229
20
-3428.9415
30
0
11
-3689.26822
21
-3350.0045
31
0
0
LINE
8
PIPES
10
-3689.26822
20
-3350.0045
30
0
11
-2598.076211
21
-2168.9415
31
0
0
LINE
8
PIPES
10
-2598.076211
20
-2168.9415
30
0
11
-1506.884203
21
-2090.0045
31
0
0
LINE
8
PIPES
10
-1506.884203
20
-2090.0045
30
0
11
-415.692194
21
-908.9415
31
0
0
LINE
8
PIPES
10
-6703.035759
20
-3278.941
30
0
11
-5871.652238
21
-3350.0045
31
0
0
LINE
8
PIPES
10
-5871.652238
20
-3350.0045
30
0
11
-4780.460229
21
-2168.9415
31
0
0
LINE
8
PIPES
10
-4780.460229
20
-2168.9415
30
0
11
-3689.26822
21
-2090.0045
31
0
0
LINE
8
PIPES
10
-3689.26822
20
-2090.0045
30
0
11
-2598.076211
21
-908.9415
31
0
0
LINE
8
PIPES
10
-2598.076211
20
-908.9415
30
0
11
-1506.884203
21
-830.0045
31
0
0
LINE
8
PIPES
10
-7794.227768
20
-3200.004
30
0
11
-6962.844246
21
-2168.9415
31
0
0
LINE
8
PIPES
10
-6962.844246
20
-2168.9415
30
0
11
-5871.652238
21
-2090.0045
31
0
0
LINE
8
PIPES
10
-5871.652238
20
-2090.0045
30
0
11
-4780.460229
21
-908.9415
31
0
0
LINE
8
PIPES
10
-4780.460229
20
-908.9415
30
0
11
-3689.26822
21
-830.0045
31
0
0
LINE
8
PIPES
10
-3689.26822
20
-830.0045
30
0
11
-2598.076211
21
351.0585
31
0
0
LINE
8
PIPES
10
-1766.69269
20
-5720.004
30
0
11
-2598.076211
21
-4688.9415
31
0
0
LINE
8
PIPES
10
-2598.076211
20
-4688.9415
30
0
11
-3689.26822
21
-4610.0045
31
0
0
LINE
8
PIPES
10
-3689.26822
20
-4610.0045
30
0
11
-4780.460229
21
-3428.9415
31
0
0
LINE
8
PIPES
10
-4780.460229
20
-3428.9415
30
0
11
-5871.652238
21
-3350.0045
31
0
0
LINE
8
PIPES
10
-5871.652238
20
-3350.0045
30
0
11
-6962.844246
21
-2168.9415
31
0
0
LINE
8
PIPES
10
-675.500681
20
-4538.941
30
0
11
-1506.884203
21
-4610.0045
31
0
0
LINE
8
PIPES
10
-1506.884203
20
-4610.0045
30
0
11
-2598.076211
21
-3428.9415
31
0
0
LINE
8
PIPES
10
-2598.076211
20
-3428.9415
30
0
11
-3689.26822
21
-3350.0045
31
0
0
LINE
8
PIPES
10
-3689.26822
20
-3350.0045
30
0
11
-4780.460229
21
-2168.9415
31
0
0
LINE
8
PIPES
10
-4780.460229
20
-2168.9415
30
0
11
-5871.652238
21
-2090.0045
31
0
0
LINE
8
PIPES
10
415.691328
20
-4460.004
30
0
11
-415.692194
21
-3428.9415
31
0
0
LINE
8
PIPES
10
-415.692194
20
-3428.9415
30
0
11
-1506.884203
21
-3350.0045
31
0
0
LINE
8
PIPES
10
-1506.884203
20
-3350.0045
30
0
11
-2598.076211
21
-2168.9415
31
0
0
LINE
8
PIPES
10
-2598.076211
20
-2168.9415
30
0
11
-3689.26822
21
-2090.0045
31
0
0
LINE
8
PIPES
10
-3689.26822
20
-2090.0045
30
0
11
-4780.460229
21
-908.9415
31
0
0
LINE
8
PIPES
10
1506.883337
20
-3278.941
30
0
11
675.499815
21
-3350.0045
31
0
0
LINE
8
PIPES
10
675.499815
20
-3350.0045
30
0
11
-415.692194
21
-2168.9415
31
0
0
LINE
8
PIPES
10
-415.692194
20
-2168.9415
30
0
11
-1506.884203
21
-2090.0045
31
0
0
LINE
8
PIPES
10
-1506.884203
20
-2090.0045
30
0
11
-2598.076211
21
-908.9415
31
0
0
LINE
8
PIPES
10
-2598.076211
20
-908.9415
30
0
11
-3689.26822
21
-830.0045
31
0
0
LINE
8
PIPES
10
-2598.076211
20
-3193.2345
30
0
11
-3429.459733
21
-2634.515
31
0
0
LINE
8
PIPES
10
-3429.459733
20
-2634.515
30
0
11
-4520.651742
21
-1925.785
31
0
0
LINE
8
PIPES
10
-4520.651742
20
-1925.785
30
0
11
-5611.84375
21
-1217.065
31
0
0
LINE
8
PIPES
10
-5611.84375
20
-1217.065
30
0
11
-6703.035759
21
-508.335
31
0
0
LINE
8
PIPES
10
-6703.035759
20
-508.335
30
0
11
-7794.227768
21
200.385
31
0
0
LINE
8
PIPES
10
-2598.076211
20
-2893.6145
30
0
11
-3429.459733
21
-2334.895
31
0
0
LINE
8
PIPES
10
-3429.459733
20
-2334.895
30
0
11
-4520.651742
21
-1626.165
31
0
0
LINE
8
PIPES
10
-4520.651742
20
-1626.165
30
0
11
-5611.84375
21
-917.445
31
0
0
LINE
8
PIPES
10
-5611.84375
20
-917.445
30
0
11
-6703.035759
21
-208.715
31
0
0
LINE
8
PIPES
10
-6703.035759
20
-208.715
30
0
11
-7794.227768
21
500.005
31
0
0
LINE
8
PIPES
10
2598.075345
20
-193.235
30
0
11
1766.691824
21
365.4845
31
0
0
LINE
8
PIPES
10
1766.691824
20
365.4845
30
0
11
675.499815
21
1074.2145
31
0
0
LINE
8
PIPES
10
675.499815
20
1074.2145
30
0
11
-415.692194
21
1782.9345
31
0
0
LINE
8
PIPES
10
-415.692194
20
1782.9345
30
0
11
-1506.884203
21
2491.6645
31
0
0
LINE
8
PIPES
10
-1506.884203
20
2491.6645
30
0
11
-2598.076211
21
3200.3845
31
0
0
LINE
8
PIPES
10
2598.075345
20
106.385
30
0
11
1766.691824
21
665.1045
31
0
0
LINE
8
PIPES
10
1766.691824
20
665.1045
30
0
11
675.499815
21
1373.8345
31
0
0
LINE
8
PIPES
10
675.499815
20
1373.8345
30
0
11
-415.692194
21
2082.5545
31
0
0
LINE
8
PIPES
10
-415.692194
20
2082.5545
30
0
11
-1506.884203
21
2791.2845
31
0
0
LINE
8
PIPES
10
-1506.884203
20
2791.2845
30
0
11
-2598.076211
21
3500.0045
31
0
0
LINE
8
PIPES
10
-2598.076211
20
-3193.2345
30
0
11
-1766.69269
21
-3594.465
31
0
0
LINE
8
PIPES
10
-1766.69269
20
-3594.465
30
0
11
-2598.076211
21
-5199.3245
31
0
0
LINE
8
PIPES
10
-2598.076211
20
-5199.3245
30
0
11
-1766.69269
21
-6020.005
31
0
0
LINE
8
PIPES
10
-1766.69269
20
-2713.235
30
0
11
-675.500681
21
-2964.465
31
0
0
LINE
8
PIPES
10
-675.500681
20
-2964.465
30
0
11
-1766.69269
21
-4719.325
31
0
0
LINE
8
PIPES
10
-1766.69269
20
-4719.325
30
0
11
-675.500681
21
-5390.005
31
0
0
LINE
8
PIPES
10
-675.500681
20
-2083.235
30
0
11
415.691328
21
-2334.465
31
0
0
LINE
8
PIPES
10
415.691328
20
-2334.465
30
0
11
-675.500681
21
-4089.325
31
0
0
LINE
8
PIPES
10
-675.500681
20
-4089.325
30
0
11
415.691328
21
-4760.005
31
0
0
LINE
8
PIPES
10
415.691328
20
-1453.235
30
0
11
1506.883337
21
-1704.465
31
0
0
LINE
8
PIPES
10
1506.883337
20
-1704.465
30
0
11
415.691328
21
-3459.325
31
0
0
LINE
8
PIPES
10
415.691328
20
-3459.325
30
0
11
1506.883337
21
-4130.005
31
0
0
LINE
8
PIPES
10
1506.883337
20
-823.235
30
0
11
2598.075345
21
-1074.465
31
0
0
LINE
8
PIPES
10
2598.075345
20
-1074.465
30
0
11
1506.883337
21
-2829.325
31
0
0
LINE
8
PIPES
10
1506.883337
20
-2829.325
30
0
11
2598.075345
21
-3500.005
31
0
0
LINE
8
PIPES
10
-4780.460229
20
1956.5945
30
0
11
-5871.652238
21
429.1545
31
0
0
LINE
8
PIPES
10
-6962.844246
20
680.3845
30
0
11
-7794.227768
21
-1074.465
31
0
0
LINE
8
PIPES
10
-7794.227768
20
-1074.465
30
0
11
-6962.844246
21
-1719.3255
31
0
0
LINE
8
PIPES
10
-6962.844246
20
-1719.3255
30
0
11
-7794.227768
21
-3500.005
31
0
0
LINE
8
PIPES
10
-5871.652238
20
1326.5945
30
0
11
-6962.844246
21
-594.4655
31
0
0
LINE
8
PIPES
10
-6962.844246
20
-594.4655
30
0
11
-5871.652238
21
-1089.3255
31
0
0
LINE
8
PIPES
10
-5871.652238
20
-1089.3255
30
0
11
-6962.844246
21
-3020.0055
31
0
0
LINE
8
PIPES
10
-3689.26822
20
2570.3845
30
0
11
-4780.460229
21
665.5345
31
0
0
LINE
8
PIPES
10
-4780.460229
20
665.5345
30
0
11
-3689.26822
21
170.6745
31
0
0
LINE
8
PIPES
10
-3689.26822
20
170.6745
30
0
11
-4780.460229
21
-1760.0055
31
0
0
LINE
8
PIPES
10
-2598.076211
20
3200.3845
30
0
11
-3689.26822
21
1295.5345
31
0
0
LINE
8
PIPES
10
-3689.26822
20
1295.5345
30
0
11
-2598.076211
21
800.6745
31
0
0
LINE
8
PIPES
10
-3689.26822
20
-1130.0055
30
0
11
-2598.076211
21
800.6745
31
0
0
LINE
8
PIPES
10
-2598.076211
20
-3193.2345
30
0
11
-2598.076211
21
-2893.6145
31
0
0
LINE
8
PIPES
10
-3429.459733
20
-2634.515
30
0
11
-3429.459733
21
-2334.895
31
0
0
LINE
8
PIPES
10
-4520.651742
20
-1925.785
30
0
11
-4520.651742
21
-1626.165
31
0
0
LINE
8
PIPES
10
-5611.84375
20
-1217.065
30
0
11
-5611.84375
21
-917.445
31
0
0
LINE
8
PIPES
10
-6703.035759
20
-508.335
30
0
11
-6703.035759
21
-208.715
31
0
0
LINE
8
PIPES
10
-7794.227768
20
200.385
30
0
11
-7794.227768
21
500.005
31
0
0
LINE
8
PIPES
10
-2165.062643
20
-5398.94
30
0
11
-1766.69269
21
-5168.941
31
0
0
LINE
8
PIPES
10
-2996.446165
20
-4469.3245
30
0
11
-4087.638174
21
-3839.3245
31
0
0
LINE
8
PIPES
10
-5178.830183
20
-3209.3245
30
0
11
-6270.022191
21
-2579.3245
31
0
0
LINE
8
PIPES
10
-6270.022191
20
-2579.3245
30
0
11
-6928.201498
21
-2199.3245
31
0
0
LINE
8
PIPES
10
-7361.2142
20
-2398.9405
30
0
11
-6962.844246
21
-2168.9415
31
0
0
LINE
8
PIPES
10
2598.075345
20
-193.235
30
0
11
2598.075345
21
106.385
31
0
0
LINE
8
PIPES
10
1766.691824
20
365.4845
30
0
11
1766.691824
21
665.1045
31
0
0
LINE
8
PIPES
10
675.499815
20
1074.2145
30
0
11
675.499815
21
1373.8345
31
0
0
LINE
8
PIPES
10
-415.692194
20
1782.9345
30
0
11
-415.692194
21
2082.5545
31
0
0
LINE
8
PIPES
10
-1506.884203
20
2491.6645
30
0
11
-1506.884203
21
2791.2845
31
0
0
LINE
8
PIPES
10
-2598.076211
20
3200.3845
30
0
11
-2598.076211
21
3500.0045
31
0
0
LINE
8
PIPES
10
-1766.69269
20
-2713.235
30
0
11
-1766.69269
21
-2413.615
31
0
0
LINE
8
PIPES
10
-6962.844246
20
680.3845
30
0
11
-6962.844246
21
980.0045
31
0
0
LINE
8
PIPES
10
1506.883337
20
-823.235
30
0
11
1506.883337
21
-523.615
31
0
0
LINE
8
PIPES
10
-3689.26822
20
2570.3845
30
0
11
-3689.26822
21
2870.0045
31
0
0
LINE
8
PIPES
10
-3429.459733
20
-2334.895
30
0
11
-2598.076211
21
-1854.8955
31
0
0
LINE
8
PIPES
10
-3429.459733
20
-2634.515
30
0
11
-2598.076211
21
-2154.5155
31
0
0
LINE
8
PIPES
10
-4520.651742
20
-1626.165
30
0
11
-3689.26822
21
-1146.1655
31
0
0
LINE
8
PIPES
10
-4520.651742
20
-1925.785
30
0
11
-3689.26822
21
-1445.7855
31
0
0
LINE
8
PIPES
10
-5611.84375
20
-917.445
30
0
11
-4780.460229
21
-437.4455
31
0
0
LINE
8
PIPES
10
-5611.84375
20
-1217.065
30
0
11
-4780.460229
21
-737.0655
31
0
0
LINE
8
PIPES
10
-6703.035759
20
-208.715
30
0
11
-5871.652238
21
271.2845
31
0
0
LINE
8
PIPES
10
-6703.035759
20
-508.335
30
0
11
-5871.652238
21
-28.3355
31
0
0
LINE
8
PIPES
10
-2598.076211
20
-2154.5155
30
0
11
-2598.076211
21
-1854.8955
31
0
0
LINE
8
PIPES
10
-3689.26822
20
-1445.7855
30
0
11
-3689.26822
21
-1146.1655
31
0
0
LINE
8
PIPES
10
-4780.460229
20
-737.0655
30
0
11
-4780.460229
21
-437.4455
31
0
0
LINE
8
PIPES
10
-5871.652238
20
-28.3355
30
0
11
-5871.652238
21
271.2845
31
0
0
LINE
8
PIPES
10
-1506.884203
20
-1224.8955
30
0
11
-1746.851182
21
-1069.0305
31
0
0
LINE
8
PIPES
10
-2598.076211
20
-1854.8955
30
0
11
-1506.884203
21
-1224.8955
31
0
0
LINE
8
PIPES
10
-1506.884203
20
-1524.5155
30
0
11
-1746.851182
21
-1368.6505
31
0
0
LINE
8
PIPES
10
-2598.076211
20
-2154.5155
30
0
11
-1506.884203
21
-1524.5155
31
0
0
LINE
8
PIPES
10
-2598.076211
20
-516.1655
30
0
11
-2778.053611
21
-399.2755
31
0
0
LINE
8
PIPES
10
-3689.26822
20
-1146.1655
30
0
11
-2598.076211
21
-516.1655
31
0
0
LINE
8
PIPES
10
-2598.076211
20
-815.7855
30
0
11
-2778.053611
21
-698.8955
31
0
0
LINE
8
PIPES
10
-3689.26822
20
-1445.7855
30
0
11
-2598.076211
21
-815.7855
31
0
0
LINE
8
PIPES
10
-3689.26822
20
192.5545
30
0
11
-3809.24738
21
270.4845
31
0
0
LINE
8
PIPES
10
-4780.460229
20
-437.4455
30
0
11
-3689.26822
21
192.5545
31
0
0
LINE
8
PIPES
10
-3689.26822
20
-107.0655
30
0
11
-3809.24738
21
-29.1355
31
0
0
LINE
8
PIPES
10
-4780.460229
20
-737.0655
30
0
11
-3689.26822
21
-107.0655
31
0
0
LINE
8
PIPES
10
-4780.460229
20
901.2845
30
0
11
-4840.449809
21
940.2395
31
0
0
LINE
8
PIPES
10
-5871.652238
20
271.2845
30
0
11
-4780.460229
21
901.2845
31
0
0
LINE
8
PIPES
10
-4780.460229
20
601.6645
30
0
11
-4840.449809
21
640.6195
31
0
0
LINE
8
PIPES
10
-5871.652238
20
-28.3355
30
0
11
-4780.460229
21
601.6645
31
0
0
LINE
8
PIPES
10
-1506.884203
20
-1524.5155
30
0
11
-1506.884203
21
-1224.8955
31
0
0
LINE
8
PIPES
10
-2598.076211
20
-815.7855
30
0
11
-2598.076211
21
-516.1655
31
0
0
LINE
8
PIPES
10
-3689.26822
20
-107.0655
30
0
11
-3689.26822
21
192.5545
31
0
0
LINE
8
PIPES
10
-4780.460229
20
601.6645
30
0
11
-4780.460229
21
901.2845
31
0
0
LINE
8
PIPES
10
-415.692194
20
-594.8955
30
0
11
-655.659173
21
-439.0305
31
0
0
LINE
8
PIPES
10
-1506.884203
20
-1224.8955
30
0
11
-415.692194
21
-594.8955
31
0
0
LINE
8
PIPES
10
-415.692194
20
-894.5155
30
0
11
-655.659173
21
-738.6505
31
0
0
LINE
8
PIPES
10
-1506.884203
20
-1524.5155
30
0
11
-415.692194
21
-894.5155
31
0
0
LINE
8
PIPES
10
-1506.884203
20
113.8345
30
0
11
-1686.861602
21
230.7245
31
0
0
LINE
8
PIPES
10
-2598.076211
20
-516.1655
30
0
11
-1506.884203
21
113.8345
31
0
0
LINE
8
PIPES
10
-1506.884203
20
-185.7855
30
0
11
-1686.861602
21
-68.8955
31
0
0
LINE
8
PIPES
10
-2598.076211
20
-815.7855
30
0
11
-1506.884203
21
-185.7855
31
0
0
LINE
8
PIPES
10
-2598.076211
20
822.5545
30
0
11
-2718.055371
21
900.4845
31
0
0
LINE
8
PIPES
10
-3689.26822
20
192.5545
30
0
11
-2598.076211
21
822.5545
31
0
0
LINE
8
PIPES
10
-2598.076211
20
522.9345
30
0
11
-2718.055371
21
600.8645
31
0
0
LINE
8
PIPES
10
-3689.26822
20
-107.0655
30
0
11
-2598.076211
21
522.9345
31
0
0
LINE
8
PIPES
10
-3689.26822
20
1531.2845
30
0
11
-3749.2578
21
1570.2395
31
0
0
LINE
8
PIPES
10
-4780.460229
20
901.2845
30
0
11
-3689.26822
21
1531.2845
31
0
0
LINE
8
PIPES
10
-3689.26822
20
1231.6645
30
0
11
-3749.2578
21
1270.6195
31
0
0
LINE
8
PIPES
10
-4780.460229
20
601.6645
30
0
11
-3689.26822
21
1231.6645
31
0
0
LINE
8
PIPES
10
-415.692194
20
-894.5155
30
0
11
-415.692194
21
-594.8955
31
0
0
LINE
8
PIPES
10
-1506.884203
20
-185.7855
30
0
11
-1506.884203
21
113.8345
31
0
0
LINE
8
PIPES
10
-2598.076211
20
522.9345
30
0
11
-2598.076211
21
822.5545
31
0
0
LINE
8
PIPES
10
-3689.26822
20
1231.6645
30
0
11
-3689.26822
21
1531.2845
31
0
0
LINE
8
PIPES
10
-415.692194
20
-594.8955
30
0
11
675.508475
21
35.1095
31
0
0
LINE
8
PIPES
10
-415.692194
20
-894.5155
30
0
11
675.508475
21
-264.5105
31
0
0
LINE
8
PIPES
10
-1506.884203
20
113.8345
30
0
11
-415.683534
21
743.8395
31
0
0
LINE
8
PIPES
10
-1506.884203
20
-185.7855
30
0
11
-415.683534
21
444.2195
31
0
0
LINE
8
PIPES
10
-2598.076211
20
822.5545
30
0
11
-1506.875542
21
1452.5595
31
0
0
LINE
8
PIPES
10
-2598.076211
20
522.9345
30
0
11
-1506.875542
21
1152.9395
31
0
0
LINE
8
PIPES
10
-3689.26822
20
1531.2845
30
0
11
-2598.067551
21
2161.2895
31
0
0
LINE
8
PIPES
10
-3689.26822
20
1231.6645
30
0
11
-2598.067551
21
1861.6695
31
0
0
LINE
8
PIPES
10
675.508475
20
-264.5105
30
0
11
675.508475
21
35.1095
31
0
0
LINE
8
PIPES
10
-415.683534
20
444.2195
30
0
11
-415.683534
21
743.8395
31
0
0
LINE
8
PIPES
10
-1506.875542
20
1152.9395
30
0
11
-1506.875542
21
1452.5595
31
0
0
LINE
8
PIPES
10
-2598.067551
20
1861.6695
30
0
11
-2598.067551
21
2161.2895
31
0
0
LINE
8
PIPES
10
675.508475
20
35.1095
30
0
11
1766.691824
21
665.1045
31
0
0
LINE
8
PIPES
10
675.508475
20
-264.5105
30
0
11
1766.691824
21
365.4845
31
0
0
LINE
8
PIPES
10
-415.683534
20
743.8395
30
0
11
675.499815
21
1373.8345
31
0
0
LINE
8
PIPES
10
-415.683534
20
444.2195
30
0
11
675.499815
21
1074.2145
31
0
0
LINE
8
PIPES
10
-1506.875542
20
1452.5595
30
0
11
-415.692194
21
2082.5545
31
0
0
LINE
8
PIPES
10
-1506.875542
20
1152.9395
30
0
11
-415.692194
21
1782.9345
31
0
0
LINE
8
PIPES
10
-2598.067551
20
2161.2895
30
0
11
-1506.884203
21
2791.2845
31
0
0
LINE
8
PIPES
10
-2598.067551
20
1861.6695
30
0
11
-1506.884203
21
2491.6645
31
0
0
LINE
8
PIPES
10
-1766.69269
20
-2413.615
30
0
11
-2598.076211
21
-1854.8955
31
0
0
LINE
8
PIPES
10
-2598.076211
20
-1854.8955
30
0
11
-3689.26822
21
-1146.1655
31
0
0
LINE
8
PIPES
10
-4780.460229
20
-437.4455
30
0
11
-3689.26822
21
-1146.1655
31
0
0
LINE
8
PIPES
10
-4780.460229
20
-437.4455
30
0
11
-5871.652238
21
271.2845
31
0
0
LINE
8
PIPES
10
-5871.652238
20
271.2845
30
0
11
-6962.844246
21
980.0045
31
0
0
LINE
8
PIPES
10
-1766.69269
20
-2713.235
30
0
11
-2598.076211
21
-2154.5155
31
0
0
LINE
8
PIPES
10
-2598.076211
20
-2154.5155
30
0
11
-3689.26822
21
-1445.7855
31
0
0
LINE
8
PIPES
10
-3689.26822
20
-1445.7855
30
0
11
-4780.460229
21
-737.0655
31
0
0
LINE
8
PIPES
10
-4780.460229
20
-737.0655
30
0
11
-5871.652238
21
-28.3355
31
0
0
LINE
8
PIPES
10
-5871.652238
20
-28.3355
30
0
11
-6962.844246
21
680.3845
31
0
0
LINE
8
PIPES
10
1506.883337
20
-823.235
30
0
11
675.508475
21
-264.5105
31
0
0
LINE
8
PIPES
10
675.508475
20
-264.5105
30
0
11
-415.683534
21
444.2195
31
0
0
LINE
8
PIPES
10
-415.683534
20
444.2195
30
0
11
-1506.875542
21
1152.9395
31
0
0
LINE
8
PIPES
10
-1506.875542
20
1152.9395
30
0
11
-2598.067551
21
1861.6695
31
0
0
LINE
8
PIPES
10
-2598.067551
20
1861.6695
30
0
11
-3689.26822
21
2570.3845
31
0
0
LINE
8
PIPES
10
1506.883337
20
-523.615
30
0
11
675.508475
21
35.1095
31
0
0
LINE
8
PIPES
10
675.508475
20
35.1095
30
0
11
-415.683534
21
743.8395
31
0
0
LINE
8
PIPES
10
-415.683534
20
743.8395
30
0
11
-1506.875542
21
1452.5595
31
0
0
LINE
8
PIPES
10
-1506.875542
20
1452.5595
30
0
11
-2598.067551
21
2161.2895
31
0
0
LINE
8
PIPES
10
-2598.067551
20
2161.2895
30
0
11
-3689.26822
21
2870.0045
31
0
0
LINE
8
PIPES
10
-2598.076211
20
-2893.6145
30
0
11
-1766.69269
21
-2713.235
31
0
0
LINE
8
PIPES
10
-1766.69269
20
-2713.235
30
0
11
-675.500681
21
-1783.615
31
0
0
LINE
8
PIPES
10
-675.500681
20
-1783.615
30
0
11
415.691328
21
-1453.235
31
0
0
LINE
8
PIPES
10
1506.883337
20
-523.615
30
0
11
415.691328
21
-1453.235
31
0
0
LINE
8
PIPES
10
1506.883337
20
-523.615
30
0
11
2598.075345
21
-193.235
31
0
0
LINE
8
PIPES
10
-3429.459733
20
-2634.515
30
0
11
-2598.076211
21
-1854.8955
31
0
0
LINE
8
PIPES
10
1766.691824
20
665.1045
30
0
11
675.508475
21
-264.5105
31
0
0
LINE
8
PIPES
10
-4520.651742
20
-1626.165
30
0
11
-3689.26822
21
-1445.7855
31
0
0
LINE
8
PIPES
10
-3689.26822
20
-1445.7855
30
0
11
-2598.076211
21
-516.1655
31
0
0
LINE
8
PIPES
10
-2598.076211
20
-516.1655
30
0
11
-1506.884203
21
-185.7855
31
0
0
LINE
8
PIPES
10
-1506.884203
20
-185.7855
30
0
11
-415.683534
21
743.8395
31
0
0
LINE
8
PIPES
10
-415.683534
20
743.8395
30
0
11
675.499815
21
1074.2145
31
0
0
LINE
8
PIPES
10
-5611.84375
20
-1217.065
30
0
11
-4780.460229
21
-437.4455
31
0
0
LINE
8
PIPES
10
-4780.460229
20
-437.4455
30
0
11
-3689.26822
21
-107.0655
31
0
0
LINE
8
PIPES
10
-3689.26822
20
-107.0655
30
0
11
-2598.076211
21
822.5545
31
0
0
LINE
8
PIPES
10
-2598.076211
20
822.5545
30
0
11
-1506.875542
21
1152.9395
31
0
0
LINE
8
PIPES
10
-415.692194
20
2082.5545
30
0
11
-1506.875542
21
1152.9395
31
0
0
LINE
8
PIPES
10
-6703.035759
20
-208.715
30
0
11
-5871.652238
21
-28.3355
31
0
0
LINE
8
PIPES
10
-5871.652238
20
-28.3355
30
0
11
-4780.460229
21
901.2845
31
0
0
LINE
8
PIPES
10
-4780.460229
20
901.2845
30
0
11
-3689.26822
21
1231.6645
31
0
0
LINE
8
PIPES
10
-3689.26822
20
1231.6645
30
0
11
-2598.067551
21
2161.2895
31
0
0
LINE
8
PIPES
10
-2598.067551
20
2161.2895
30
0
11
-1506.884203
21
2491.6645
31
0
0
LINE
8
PIPES
10
-7794.227768
20
200.385
30
0
11
-6962.844246
21
980.0045
31
0
0
LINE
8
PIPES
10
-6962.844246
20
980.0045
30
0
11
-5871.652238
21
1326.5945
31
0
0
LINE
8
PIPES
10
-5871.652238
20
1310.3845
30
0
11
-4780.460229
21
2240.0045
31
0
0
LINE
8
PIPES
10
-4780.460229
20
2240.0045
30
0
11
-3689.26822
21
2570.3845
31
0
0
LINE
8
PIPES
10
-3689.26822
20
2570.3845
30
0
11
-2598.076211
21
3500.0045
31
0
0
LINE
8
PIPES
10
-2598.076211
20
-2893.6145
30
0
11
-3429.459733
21
-2634.515
31
0
0
LINE
8
PIPES
10
-3429.459733
20
-2634.515
30
0
11
-4520.651742
21
-1626.165
31
0
0
LINE
8
PIPES
10
-4520.651742
20
-1626.165
30
0
11
-5611.84375
21
-1217.065
31
0
0
LINE
8
PIPES
10
-5611.84375
20
-1217.065
30
0
11
-6703.035759
21
-208.715
31
0
0
LINE
8
PIPES
10
-6703.035759
20
-208.715
30
0
11
-7794.227768
21
200.385
31
0
0
LINE
8
PIPES
10
-1766.69269
20
-2713.235
30
0
11
-2598.076211
21
-1854.8955
31
0
0
LINE
8
PIPES
10
-2598.076211
20
-1854.8955
30
0
11
-3689.26822
21
-1445.7855
31
0
0
LINE
8
PIPES
10
-3689.26822
20
-1445.7855
30
0
11
-4780.460229
21
-437.4455
31
0
0
LINE
8
PIPES
10
-4780.460229
20
-437.4455
30
0
11
-5871.652238
21
-28.3355
31
0
0
LINE
8
PIPES
10
-5871.652238
20
-28.3355
30
0
11
-6962.844246
21
980.0045
31
0
0
LINE
8
PIPES
10
1506.883337
20
-523.615
30
0
11
675.508475
21
-264.5105
31
0
0
LINE
8
PIPES
10
675.508475
20
-264.5105
30
0
11
-415.683534
21
743.8395
31
0
0
LINE
8
PIPES
10
-415.683534
20
743.8395
30
0
11
-1506.875542
21
1152.9395
31
0
0
LINE
8
PIPES
10
-1506.875542
20
1152.9395
30
0
11
-2598.067551
21
2161.2895
31
0
0
LINE
8
PIPES
10
-2598.067551
20
2161.2895
30
0
11
-3689.26822
21
2570.3845
31
0
0
LINE
8
PIPES
10
2598.075345
20
-193.235
30
0
11
1766.691824
21
665.1045
31
0
0
LINE
8
PIPES
10
1766.691824
20
665.1045
30
0
11
675.499815
21
1074.2145
31
0
0
LINE
8
PIPES
10
675.499815
20
1074.2145
30
0
11
-415.692194
21
2082.5545
31
0
0
LINE
8
PIPES
10
-415.692194
20
2082.5545
30
0
11
-1506.884203
21
2491.6645
31
0
0
LINE
8
PIPES
10
-1506.884203
20
2491.6645
30
0
11
-2598.076211
21
3500.0045
31
0
0
LINE
8
PIPES
10
-3031.089779
20
-5398.94
30
0
11
-3429.459733
21
-5168.941
31
0
0
LINE
8
PIPES
10
-7361.215066
20
-2898.941
30
0
11
-7794.227768
21
-2648.941
31
0
0
LINE
8
PIPES
10
-3031.089779
20
-4949.324
30
0
11
-3429.459733
21
-4719.325
31
0
0
LINE
8
PIPES
10
-2598.076211
20
-4699.3235
30
0
11
-3031.089779
21
-4949.324
31
0
0
LINE
8
PIPES
10
-7361.215066
20
-2449.325
30
0
11
-7794.227768
21
-2199.325
31
0
0
LINE
8
PIPES
10
-6928.201498
20
-2199.3245
30
0
11
-7361.215066
21
-2449.325
31
0
0
LINE
8
PIPES
10
-2598.076211
20
-1854.8955
30
0
11
-1506.884203
21
-1524.5155
31
0
0
LINE
8
PIPES
10
-1506.884203
20
-1524.5155
30
0
11
-415.692194
21
-594.8955
31
0
0
LINE
8
PIPES
10
-415.692194
20
-594.8955
30
0
11
675.508475
21
-264.5105
31
0
0
LINE
8
PIPES
10
-2598.076211
20
-2893.6145
30
0
11
-2598.076211
21
-1854.8955
31
0
0
LINE
8
PIPES
10
-2598.076211
20
-1854.8955
30
0
11
-4520.651742
21
-1626.165
31
0
0
LINE
8
PIPES
10
-4520.651742
20
-1626.165
30
0
11
-4780.460229
21
-437.4455
31
0
0
LINE
8
PIPES
10
-4780.460229
20
-437.4455
30
0
11
-6703.035759
21
-208.715
31
0
0
LINE
8
PIPES
10
-6703.035759
20
-208.715
30
0
11
-6962.844246
21
980.0045
31
0
0
LINE
8
PIPES
10
-1766.69269
20
-2413.615
30
0
11
-1506.884203
21
-1224.8955
31
0
0
LINE
8
PIPES
10
-1506.884203
20
-1224.8955
30
0
11
-3689.26822
21
-1146.1655
31
0
0
LINE
8
PIPES
10
-675.500681
20
-1783.615
30
0
11
-415.692194
21
-594.8955
31
0
0
LINE
8
PIPES
10
-3689.26822
20
-1146.1655
30
0
11
-3689.26822
21
192.5545
31
0
0
LINE
8
PIPES
10
-3689.26822
20
192.5545
30
0
11
-5871.652238
21
271.2845
31
0
0
LINE
8
PIPES
10
-5871.652238
20
271.2845
30
0
11
-5871.652238
21
1610.0045
31
0
0
LINE
8
PIPES
10
-415.692194
20
-594.8955
30
0
11
-2598.076211
21
-516.1655
31
0
0
LINE
8
PIPES
10
-2598.076211
20
-516.1655
30
0
11
-2598.076211
21
822.5545
31
0
0
LINE
8
PIPES
10
-2598.076211
20
822.5545
30
0
11
-4780.460229
21
901.2845
31
0
0
LINE
8
PIPES
10
-4780.460229
20
901.2845
30
0
11
-4780.460229
21
2240.0045
31
0
0
LINE
8
PIPES
10
415.691328
20
-1153.615
30
0
11
675.508475
21
35.1095
31
0
0
LINE
8
PIPES
10
675.508475
20
35.1095
30
0
11
-1506.884203
21
113.8345
31
0
0
LINE
8
PIPES
10
-1506.884203
20
113.8345
30
0
11
-1506.875542
21
1452.5595
31
0
0
LINE
8
PIPES
10
-1506.875542
20
1452.5595
30
0
11
-3689.26822
21
1531.2845
31
0
0
LINE
8
PIPES
10
-3689.26822
20
1531.2845
30
0
11
-3689.26822
21
2870.0045
31
0
0
LINE
8
PIPES
10
1506.883337
20
-523.615
30
0
11
1766.691824
21
665.1045
31
0
0
LINE
8
PIPES
10
1766.691824
20
665.1045
30
0
11
-415.683534
21
743.8395
31
0
0
LINE
8
PIPES
10
-415.683534
20
743.8395
30
0
11
-415.692194
21
2082.5545
31
0
0
LINE
8
PIPES
10
-415.692194
20
2082.5545
30
0
11
-2598.067551
21
2161.2895
31
0
0
LINE
8
PIPES
10
-2598.067551
20
2161.2895
30
0
11
-2598.076211
21
3500.0045
31
0
0
LINE
8
PIPES
10
-1766.69269
20
-2713.235
30
0
11
-3429.459733
21
-2634.515
31
0
0
LINE
8
PIPES
10
-3429.459733
20
-2634.515
30
0
11
-3689.26822
21
-1445.7855
31
0
0
LINE
8
PIPES
10
-3689.26822
20
-1445.7855
30
0
11
-5611.84375
21
-1217.065
31
0
0
LINE
8
PIPES
10
-5611.84375
20
-1217.065
30
0
11
-5871.652238
21
-28.3355
31
0
0
LINE
8
PIPES
10
-5871.652238
20
-28.3355
30
0
11
-7794.227768
21
200.385
31
0
0
LINE
8
PIPES
10
-675.500681
20
-2083.235
30
0
11
-2598.076211
21
-2154.5155
31
0
0
LINE
8
PIPES
10
-2598.076211
20
-2154.5155
30
0
11
-2598.076211
21
-815.7855
31
0
0
LINE
8
PIPES
10
-2598.076211
20
-815.7855
30
0
11
-4780.460229
21
-737.0655
31
0
0
LINE
8
PIPES
10
-4780.460229
20
-737.0655
30
0
11
-4780.460229
21
601.6645
31
0
0
LINE
8
PIPES
10
-4780.460229
20
601.6645
30
0
11
-6962.844246
21
680.3845
31
0
0
LINE
8
PIPES
10
415.691328
20
-1453.235
30
0
11
-1506.884203
21
-1524.5155
31
0
0
LINE
8
PIPES
10
-1506.884203
20
-1524.5155
30
0
11
-1506.884203
21
-185.7855
31
0
0
LINE
8
PIPES
10
-1506.884203
20
-185.7855
30
0
11
-3689.26822
21
-107.0655
31
0
0
LINE
8
PIPES
10
-3689.26822
20
-107.0655
30
0
11
-3689.26822
21
1231.6645
31
0
0
LINE
8
PIPES
10
-3689.26822
20
1231.6645
30
0
11
-5871.652238
21
1310.3845
31
0
0
LINE
8
PIPES
10
1506.883337
20
-823.235
30
0
11
-415.692194
21
-894.5155
31
0
0
LINE
8
PIPES
10
-415.692194
20
-894.5155
30
0
11
-415.683534
21
444.2195
31
0
0
LINE
8
PIPES
10
-415.683534
20
444.2195
30
0
11
-2598.076211
21
522.9345
31
0
0
LINE
8
PIPES
10
-2598.076211
20
522.9345
30
0
11
-2598.067551
21
1861.6695
31
0
0
LINE
8
PIPES
10
-2598.067551
20
1861.6695
30
0
11
-4780.460229
21
1940.3845
31
0
0
LINE
8
PIPES
10
2598.075345
20
-193.235
30
0
11
675.508475
21
-264.5105
31
0
0
LINE
8
PIPES
10
675.508475
20
-264.5105
30
0
11
675.499815
21
1074.2145
31
0
0
LINE
8
PIPES
10
675.499815
20
1074.2145
30
0
11
-1506.875542
21
1152.9395
31
0
0
LINE
8
PIPES
10
-1506.875542
20
1152.9395
30
0
11
-1506.884203
21
2491.6645
31
0
0
LINE
8
PIPES
10
-1506.884203
20
2491.6645
30
0
11
-3689.26822
21
2570.3845
31
0
0
LINE
8
PIPES
10
7794.227768
20
-500.005
30
0
11
7794.227768
21
-200.004
31
0
0
LINE
8
PIPES
10
7794.227768
20
-200.004
30
0
11
7794.227768
21
351.059
31
0
0
LINE
8
PIPES
10
7794.227768
20
351.059
30
0
11
7794.227768
21
800.675
31
0
0
LINE
8
PIPES
10
7794.227768
20
800.675
30
0
11
7794.227768
21
1335.105
31
0
0
LINE
8
PIPES
10
7794.227768
20
1335.105
30
0
11
7794.227768
21
1925.535
31
0
0
LINE
8
PIPES
10
7794.227768
20
1925.535
30
0
11
7794.227768
21
2806.765
31
0
0
LINE
8
PIPES
10
6962.844246
20
-20.0055
30
0
11
6962.844246
21
279.9955
31
0
0
LINE
8
PIPES
10
6962.844246
20
279.9955
30
0
11
6962.844246
21
831.0585
31
0
0
LINE
8
PIPES
10
6962.844246
20
831.0585
30
0
11
6962.844246
21
1280.6745
31
0
0
LINE
8
PIPES
10
6962.844246
20
1280.6745
30
0
11
6962.844246
21
1815.1045
31
0
0
LINE
8
PIPES
10
6962.844246
20
1815.1045
30
0
11
6962.844246
21
2405.5345
31
0
0
LINE
8
PIPES
10
6962.844246
20
2405.5345
30
0
11
6962.844246
21
3365.4845
31
0
0
LINE
8
PIPES
10
5871.652238
20
609.9945
30
0
11
5871.652238
21
909.9955
31
0
0
LINE
8
PIPES
10
5871.652238
20
909.9955
30
0
11
5871.652238
21
1461.0585
31
0
0
LINE
8
PIPES
10
5871.652238
20
1461.0585
30
0
11
5871.652238
21
1910.6745
31
0
0
LINE
8
PIPES
10
5871.652238
20
1910.6745
30
0
11
5871.652238
21
2445.1045
31
0
0
LINE
8
PIPES
10
5871.652238
20
2445.1045
30
0
11
5871.652238
21
3035.5345
31
0
0
LINE
8
PIPES
10
5871.652238
20
3035.5345
30
0
11
5871.652238
21
4074.2145
31
0
0
LINE
8
PIPES
10
4780.460229
20
1239.9945
30
0
11
4780.460229
21
1539.9955
31
0
0
LINE
8
PIPES
10
4780.460229
20
1539.9955
30
0
11
4780.460229
21
2091.0585
31
0
0
LINE
8
PIPES
10
4780.460229
20
2091.0585
30
0
11
4780.460229
21
2540.6745
31
0
0
LINE
8
PIPES
10
4780.460229
20
2540.6745
30
0
11
4780.460229
21
3075.1045
31
0
0
LINE
8
PIPES
10
4780.460229
20
3075.1045
30
0
11
4780.460229
21
3665.5345
31
0
0
LINE
8
PIPES
10
4780.460229
20
3665.5345
30
0
11
4780.460229
21
4782.9345
31
0
0
LINE
8
PIPES
10
3689.26822
20
1869.9945
30
0
11
3689.26822
21
2169.9955
31
0
0
LINE
8
PIPES
10
3689.26822
20
2169.9955
30
0
11
3689.26822
21
2721.0585
31
0
0
LINE
8
PIPES
10
3689.26822
20
2721.0585
30
0
11
3689.26822
21
3170.6745
31
0
0
LINE
8
PIPES
10
3689.26822
20
3170.6745
30
0
11
3689.26822
21
3705.1045
31
0
0
LINE
8
PIPES
10
3689.26822
20
3705.1045
30
0
11
3689.26822
21
4295.5345
31
0
0
LINE
8
PIPES
10
3689.26822
20
4295.5345
30
0
11
3689.26822
21
5491.6645
31
0
0
LINE
8
PIPES
10
2598.076211
20
2499.9945
30
0
11
2598.076211
21
2799.9955
31
0
0
LINE
8
PIPES
10
2598.076211
20
2799.9955
30
0
11
2598.076211
21
3351.0585
31
0
0
LINE
8
PIPES
10
2598.076211
20
3351.0585
30
0
11
2598.076211
21
3800.6745
31
0
0
LINE
8
PIPES
10
2598.076211
20
3800.6745
30
0
11
2598.076211
21
4335.1045
31
0
0
LINE
8
PIPES
10
2598.076211
20
4335.1045
30
0
11
2598.076211
21
4925.5345
31
0
0
LINE
8
PIPES
10
2598.076211
20
4925.5345
30
0
11
2598.076211
21
6200.3845
31
0
0
LINE
8
PIPES
10
3689.276014
20
-2870
30
0
11
3689.276014
21
-2569.999
31
0
0
LINE
8
PIPES
10
3689.276014
20
-2569.999
30
0
11
3689.276014
21
-2018.936
31
0
0
LINE
8
PIPES
10
3689.276014
20
-2018.936
30
0
11
3689.276014
21
-1569.32
31
0
0
LINE
8
PIPES
10
3689.276014
20
-1569.32
30
0
11
3689.276014
21
-1034.89
31
0
0
LINE
8
PIPES
10
3689.276014
20
-1034.89
30
0
11
3689.276014
21
-444.46
31
0
0
LINE
8
PIPES
10
3689.276014
20
-444.46
30
0
11
3689.276014
21
436.77
31
0
0
LINE
8
PIPES
10
-1506.875542
20
129.9995
30
0
11
-1506.875542
21
430.0005
31
0
0
LINE
8
PIPES
10
-1506.875542
20
430.0005
30
0
11
-1506.875542
21
981.0635
31
0
0
LINE
8
PIPES
10
-1506.875542
20
981.0635
30
0
11
-1506.875542
21
1430.6795
31
0
0
LINE
8
PIPES
10
-1506.875542
20
1430.6795
30
0
11
-1506.875542
21
1965.1095
31
0
0
LINE
8
PIPES
10
-1506.875542
20
1965.1095
30
0
11
-1506.875542
21
2555.5395
31
0
0
LINE
8
PIPES
10
-1506.875542
20
2555.5395
30
0
11
-1506.875542
21
3830.3895
31
0
0
LINE
8
PIPES
10
2857.892493
20
-2390.0005
30
0
11
2857.892493
21
-2089.9995
31
0
0
LINE
8
PIPES
10
2857.892493
20
-2089.9995
30
0
11
2857.892493
21
-1538.9365
31
0
0
LINE
8
PIPES
10
1766.700484
20
-1760.0005
30
0
11
1766.700484
21
-1459.9995
31
0
0
LINE
8
PIPES
10
1766.700484
20
-1459.9995
30
0
11
1766.700484
21
-908.9365
31
0
0
LINE
8
PIPES
10
675.508475
20
-1130.0005
30
0
11
675.508475
21
-829.9995
31
0
0
LINE
8
PIPES
10
675.508475
20
-829.9995
30
0
11
675.508475
21
-278.9365
31
0
0
LINE
8
PIPES
10
-415.683534
20
-500.0005
30
0
11
-415.683534
21
-199.9995
31
0
0
LINE
8
PIPES
10
-415.683534
20
-199.9995
30
0
11
-415.683534
21
351.0635
31
0
0
LINE
8
PIPES
10
6962.84338
20
-980.005
30
0
11
6962.84338
21
-680.004
31
0
0
LINE
8
PIPES
10
6962.84338
20
-680.004
30
0
11
6962.84338
21
-128.941
31
0
0
LINE
8
PIPES
10
6962.84338
20
-128.941
30
0
11
6962.84338
21
320.675
31
0
0
LINE
8
PIPES
10
6962.84338
20
320.675
30
0
11
6962.84338
21
855.105
31
0
0
LINE
8
PIPES
10
6962.84338
20
855.105
30
0
11
6962.84338
21
1445.535
31
0
0
LINE
8
PIPES
10
6962.84338
20
1445.535
30
0
11
6962.84338
21
2326.765
31
0
0
LINE
8
PIPES
10
1766.691824
20
2019.9945
30
0
11
1766.691824
21
2319.9955
31
0
0
LINE
8
PIPES
10
1766.691824
20
2319.9955
30
0
11
1766.691824
21
2871.0585
31
0
0
LINE
8
PIPES
10
1766.691824
20
2871.0585
30
0
11
1766.691824
21
3320.6745
31
0
0
LINE
8
PIPES
10
1766.691824
20
3320.6745
30
0
11
1766.691824
21
3855.1045
31
0
0
LINE
8
PIPES
10
1766.691824
20
3855.1045
30
0
11
1766.691824
21
4445.5345
31
0
0
LINE
8
PIPES
10
1766.691824
20
4445.5345
30
0
11
1766.691824
21
5720.3845
31
0
0
LINE
8
PIPES
10
6131.459859
20
-500.0055
30
0
11
6131.459859
21
-200.0045
31
0
0
LINE
8
PIPES
10
6131.459859
20
-200.0045
30
0
11
6131.459859
21
351.0585
31
0
0
LINE
8
PIPES
10
5040.26785
20
129.9945
30
0
11
5040.26785
21
429.9955
31
0
0
LINE
8
PIPES
10
5040.26785
20
429.9955
30
0
11
5040.26785
21
981.0585
31
0
0
LINE
8
PIPES
10
3949.075841
20
759.9945
30
0
11
3949.075841
21
1059.9955
31
0
0
LINE
8
PIPES
10
3949.075841
20
1059.9955
30
0
11
3949.075841
21
1611.0585
31
0
0
LINE
8
PIPES
10
2857.883832
20
1389.9945
30
0
11
2857.883832
21
1689.9955
31
0
0
LINE
8
PIPES
10
2857.883832
20
1689.9955
30
0
11
2857.883832
21
2241.0585
31
0
0
LINE
8
PIPES
10
4780.468023
20
-2240
30
0
11
4780.468023
21
-1939.999
31
0
0
LINE
8
PIPES
10
4780.468023
20
-1939.999
30
0
11
4780.468023
21
-1388.936
31
0
0
LINE
8
PIPES
10
4780.468023
20
-1388.936
30
0
11
4780.468023
21
-939.32
31
0
0
LINE
8
PIPES
10
4780.468023
20
-939.32
30
0
11
4780.468023
21
-404.89
31
0
0
LINE
8
PIPES
10
4780.468023
20
-404.89
30
0
11
4780.468023
21
185.54
31
0
0
LINE
8
PIPES
10
4780.468023
20
185.54
30
0
11
4780.468023
21
1066.77
31
0
0
LINE
8
PIPES
10
-415.683534
20
759.9995
30
0
11
-415.683534
21
1060.0005
31
0
0
LINE
8
PIPES
10
-415.683534
20
1060.0005
30
0
11
-415.683534
21
1611.0635
31
0
0
LINE
8
PIPES
10
-415.683534
20
1611.0635
30
0
11
-415.683534
21
2060.6795
31
0
0
LINE
8
PIPES
10
-415.683534
20
2060.6795
30
0
11
-415.683534
21
2595.1095
31
0
0
LINE
8
PIPES
10
-415.683534
20
2595.1095
30
0
11
-415.683534
21
3185.5395
31
0
0
LINE
8
PIPES
10
-415.683534
20
3185.5395
30
0
11
-415.683534
21
3579.1595
31
0
0
LINE
8
PIPES
10
-415.683534
20
3579.1595
30
0
11
-415.683534
21
4460.3895
31
0
0
LINE
8
PIPES
10
-415.683534
20
4476.5995
30
0
11
-415.683534
21
4760.0095
31
0
0
LINE
8
PIPES
10
3949.084502
20
-1760.0005
30
0
11
3949.084502
21
-1459.9995
31
0
0
LINE
8
PIPES
10
3949.084502
20
-1459.9995
30
0
11
3949.084502
21
-908.9365
31
0
0
LINE
8
PIPES
10
2857.892493
20
-1130.0005
30
0
11
2857.892493
21
-829.9995
31
0
0
LINE
8
PIPES
10
2857.892493
20
-829.9995
30
0
11
2857.892493
21
-278.9365
31
0
0
LINE
8
PIPES
10
1766.700484
20
-500.0005
30
0
11
1766.700484
21
-199.9995
31
0
0
LINE
8
PIPES
10
1766.700484
20
-199.9995
30
0
11
1766.700484
21
351.0635
31
0
0
LINE
8
PIPES
10
675.508475
20
129.9995
30
0
11
675.508475
21
430.0005
31
0
0
LINE
8
PIPES
10
675.508475
20
430.0005
30
0
11
675.508475
21
981.0635
31
0
0
LINE
8
PIPES
10
5871.651372
20
-1610.005
30
0
11
5871.651372
21
-1310.004
31
0
0
LINE
8
PIPES
10
5871.651372
20
-1310.004
30
0
11
5871.651372
21
-758.941
31
0
0
LINE
8
PIPES
10
5871.651372
20
-758.941
30
0
11
5871.651372
21
-309.325
31
0
0
LINE
8
PIPES
10
5871.651372
20
-309.325
30
0
11
5871.651372
21
225.105
31
0
0
LINE
8
PIPES
10
5871.651372
20
225.105
30
0
11
5871.651372
21
815.535
31
0
0
LINE
8
PIPES
10
5871.651372
20
815.535
30
0
11
5871.651372
21
1696.765
31
0
0
LINE
8
PIPES
10
675.499815
20
1389.9945
30
0
11
675.499815
21
1689.9955
31
0
0
LINE
8
PIPES
10
675.499815
20
1689.9955
30
0
11
675.499815
21
2241.0585
31
0
0
LINE
8
PIPES
10
675.499815
20
2241.0585
30
0
11
675.499815
21
2690.6745
31
0
0
LINE
8
PIPES
10
675.499815
20
2690.6745
30
0
11
675.499815
21
3225.1045
31
0
0
LINE
8
PIPES
10
675.499815
20
3225.1045
30
0
11
675.499815
21
3815.5345
31
0
0
LINE
8
PIPES
10
675.499815
20
3815.5345
30
0
11
675.499815
21
4209.1545
31
0
0
LINE
8
PIPES
10
675.499815
20
4209.1545
30
0
11
675.499815
21
5090.3845
31
0
0
LINE
8
PIPES
10
675.499815
20
5106.5945
30
0
11
675.499815
21
5390.0045
31
0
0
LINE
8
PIPES
10
5040.26785
20
-1130.0055
30
0
11
5040.26785
21
-830.0045
31
0
0
LINE
8
PIPES
10
5040.26785
20
-830.0045
30
0
11
5040.26785
21
-278.9415
31
0
0
LINE
8
PIPES
10
3949.075841
20
-500.0055
30
0
11
3949.075841
21
-200.0045
31
0
0
LINE
8
PIPES
10
3949.075841
20
-200.0045
30
0
11
3949.075841
21
351.0585
31
0
0
LINE
8
PIPES
10
2857.883832
20
129.9945
30
0
11
2857.883832
21
429.9955
31
0
0
LINE
8
PIPES
10
2857.883832
20
429.9955
30
0
11
2857.883832
21
981.0585
31
0
0
LINE
8
PIPES
10
1766.691824
20
759.9945
30
0
11
1766.691824
21
1059.9955
31
0
0
LINE
8
PIPES
10
1766.691824
20
1059.9955
30
0
11
1766.691824
21
1611.0585
31
0
0
LINE
8
PIPES
10
7361.215066
20
101.059
30
0
11
7361.215066
21
550.675
31
0
0
LINE
8
PIPES
10
6529.831545
20
581.0585
30
0
11
6529.831545
21
1030.6745
31
0
0
LINE
8
PIPES
10
5438.639536
20
1211.0585
30
0
11
5438.639536
21
1660.6745
31
0
0
LINE
8
PIPES
10
4347.447527
20
1841.0585
30
0
11
4347.447527
21
2290.6745
31
0
0
LINE
8
PIPES
10
3256.255518
20
2471.0585
30
0
11
3256.255518
21
2920.6745
31
0
0
LINE
8
PIPES
10
2165.063509
20
3101.0585
30
0
11
2165.063509
21
3550.6745
31
0
0
LINE
8
PIPES
10
4347.454455
20
-1138.9355
30
0
11
4347.454455
21
-689.3195
31
0
0
LINE
8
PIPES
10
17.329168
20
1361.0635
30
0
11
17.329168
21
1810.6795
31
0
0
LINE
8
PIPES
10
5438.637804
20
-508.9405
30
0
11
5438.637804
21
-59.3245
31
0
0
LINE
8
PIPES
10
1108.512517
20
1991.0585
30
0
11
1108.512517
21
2440.6745
31
0
0
LINE
8
PIPES
10
3256.262446
20
-1768.9355
30
0
11
3256.262446
21
-1319.3195
31
0
0
LINE
8
PIPES
10
-1073.86284
20
731.0635
30
0
11
-1073.86284
21
1180.6795
31
0
0
LINE
8
PIPES
10
6529.829812
20
121.0595
30
0
11
6529.829812
21
570.6755
31
0
0
LINE
8
PIPES
10
2199.704526
20
2621.0585
30
0
11
2199.704526
21
3070.6745
31
0
0
LINE
8
PIPES
10
2598.076211
20
2851.0585
30
0
11
2598.076211
21
3300.6745
31
0
0
LINE
8
PIPES
10
2598.075345
20
-3200.004
30
0
11
3689.276014
21
-2569.999
31
0
0
LINE
8
PIPES
10
3689.276014
20
-2569.999
30
0
11
4780.468023
21
-1939.999
31
0
0
LINE
8
PIPES
10
4780.468023
20
-1939.999
30
0
11
5871.651372
21
-1310.004
31
0
0
LINE
8
PIPES
10
5871.651372
20
-1310.004
30
0
11
6962.84338
21
-680.004
31
0
0
LINE
8
PIPES
10
6962.84338
20
-680.004
30
0
11
7794.227768
21
-200.004
31
0
0
LINE
8
PIPES
10
1766.691824
20
-2720.0045
30
0
11
2857.892493
21
-2089.9995
31
0
0
LINE
8
PIPES
10
2857.892493
20
-2089.9995
30
0
11
3949.084502
21
-1459.9995
31
0
0
LINE
8
PIPES
10
3949.084502
20
-1459.9995
30
0
11
5040.26785
21
-830.0045
31
0
0
LINE
8
PIPES
10
5040.26785
20
-830.0045
30
0
11
6131.459859
21
-200.0045
31
0
0
LINE
8
PIPES
10
6131.459859
20
-200.0045
30
0
11
6962.844246
21
279.9955
31
0
0
LINE
8
PIPES
10
675.499815
20
-2090.0045
30
0
11
1766.700484
21
-1459.9995
31
0
0
LINE
8
PIPES
10
1766.700484
20
-1459.9995
30
0
11
2857.892493
21
-829.9995
31
0
0
LINE
8
PIPES
10
2857.892493
20
-829.9995
30
0
11
3949.075841
21
-200.0045
31
0
0
LINE
8
PIPES
10
3949.075841
20
-200.0045
30
0
11
5040.26785
21
429.9955
31
0
0
LINE
8
PIPES
10
5040.26785
20
429.9955
30
0
11
5871.652238
21
909.9955
31
0
0
LINE
8
PIPES
10
-415.692194
20
-1460.0045
30
0
11
675.508475
21
-829.9995
31
0
0
LINE
8
PIPES
10
675.508475
20
-829.9995
30
0
11
1766.700484
21
-199.9995
31
0
0
LINE
8
PIPES
10
1766.700484
20
-199.9995
30
0
11
2857.883832
21
429.9955
31
0
0
LINE
8
PIPES
10
2857.883832
20
429.9955
30
0
11
3949.075841
21
1059.9955
31
0
0
LINE
8
PIPES
10
3949.075841
20
1059.9955
30
0
11
4780.460229
21
1539.9955
31
0
0
LINE
8
PIPES
10
-1506.884203
20
-830.0045
30
0
11
-415.683534
21
-199.9995
31
0
0
LINE
8
PIPES
10
-415.683534
20
-199.9995
30
0
11
675.508475
21
430.0005
31
0
0
LINE
8
PIPES
10
675.508475
20
430.0005
30
0
11
1766.691824
21
1059.9955
31
0
0
LINE
8
PIPES
10
1766.691824
20
1059.9955
30
0
11
2857.883832
21
1689.9955
31
0
0
LINE
8
PIPES
10
2857.883832
20
1689.9955
30
0
11
3689.26822
21
2169.9955
31
0
0
LINE
8
PIPES
10
-2598.076211
20
-200.0045
30
0
11
-1506.875542
21
430.0005
31
0
0
LINE
8
PIPES
10
-1506.875542
20
430.0005
30
0
11
-415.683534
21
1060.0005
31
0
0
LINE
8
PIPES
10
-415.683534
20
1060.0005
30
0
11
675.499815
21
1689.9955
31
0
0
LINE
8
PIPES
10
675.499815
20
1689.9955
30
0
11
1766.691824
21
2319.9955
31
0
0
LINE
8
PIPES
10
1766.691824
20
2319.9955
30
0
11
2598.076211
21
2799.9955
31
0
0
LINE
8
PIPES
10
3689.276014
20
-2569.999
30
0
11
2857.892493
21
-2089.9995
31
0
0
LINE
8
PIPES
10
2857.892493
20
-2089.9995
30
0
11
1766.700484
21
-1459.9995
31
0
0
LINE
8
PIPES
10
1766.700484
20
-1459.9995
30
0
11
675.508475
21
-829.9995
31
0
0
LINE
8
PIPES
10
675.508475
20
-829.9995
30
0
11
-415.683534
21
-199.9995
31
0
0
LINE
8
PIPES
10
-415.683534
20
-199.9995
30
0
11
-1506.875542
21
430.0005
31
0
0
LINE
8
PIPES
10
4780.468023
20
-1939.999
30
0
11
3949.084502
21
-1459.9995
31
0
0
LINE
8
PIPES
10
3949.084502
20
-1459.9995
30
0
11
2857.892493
21
-829.9995
31
0
0
LINE
8
PIPES
10
2857.892493
20
-829.9995
30
0
11
1766.700484
21
-199.9995
31
0
0
LINE
8
PIPES
10
1766.700484
20
-199.9995
30
0
11
675.508475
21
430.0005
31
0
0
LINE
8
PIPES
10
675.508475
20
430.0005
30
0
11
-415.683534
21
1060.0005
31
0
0
LINE
8
PIPES
10
5871.651372
20
-1310.004
30
0
11
5040.26785
21
-830.0045
31
0
0
LINE
8
PIPES
10
5040.26785
20
-830.0045
30
0
11
3949.075841
21
-200.0045
31
0
0
LINE
8
PIPES
10
3949.075841
20
-200.0045
30
0
11
2857.883832
21
429.9955
31
0
0
LINE
8
PIPES
10
2857.883832
20
429.9955
30
0
11
1766.691824
21
1059.9955
31
0
0
LINE
8
PIPES
10
1766.691824
20
1059.9955
30
0
11
675.499815
21
1689.9955
31
0
0
LINE
8
PIPES
10
6962.84338
20
-680.004
30
0
11
6131.459859
21
-200.0045
31
0
0
LINE
8
PIPES
10
6131.459859
20
-200.0045
30
0
11
5040.26785
21
429.9955
31
0
0
LINE
8
PIPES
10
5040.26785
20
429.9955
30
0
11
3949.075841
21
1059.9955
31
0
0
LINE
8
PIPES
10
3949.075841
20
1059.9955
30
0
11
2857.883832
21
1689.9955
31
0
0
LINE
8
PIPES
10
2857.883832
20
1689.9955
30
0
11
1766.691824
21
2319.9955
31
0
0
LINE
8
PIPES
10
7794.227768
20
-200.004
30
0
11
6962.844246
21
279.9955
31
0
0
LINE
8
PIPES
10
6962.844246
20
279.9955
30
0
11
5871.652238
21
909.9955
31
0
0
LINE
8
PIPES
10
5871.652238
20
909.9955
30
0
11
4780.460229
21
1539.9955
31
0
0
LINE
8
PIPES
10
4780.460229
20
1539.9955
30
0
11
3689.26822
21
2169.9955
31
0
0
LINE
8
PIPES
10
3689.26822
20
2169.9955
30
0
11
2598.076211
21
2799.9955
31
0
0
LINE
8
PIPES
10
3689.276014
20
-2018.936
30
0
11
4780.468023
21
-1388.936
31
0
0
LINE
8
PIPES
10
4780.468023
20
-1388.936
30
0
11
5871.651372
21
-758.941
31
0
0
LINE
8
PIPES
10
5871.651372
20
-758.941
30
0
11
6962.84338
21
-128.941
31
0
0
LINE
8
PIPES
10
6962.84338
20
-128.941
30
0
11
7361.215066
21
101.059
31
0
0
LINE
8
PIPES
10
-1506.875542
20
981.0635
30
0
11
-415.683534
21
1611.0635
31
0
0
LINE
8
PIPES
10
-415.683534
20
1611.0635
30
0
11
675.499815
21
2241.0585
31
0
0
LINE
8
PIPES
10
675.499815
20
2241.0585
30
0
11
1766.691824
21
2871.0585
31
0
0
LINE
8
PIPES
10
1766.691824
20
2871.0585
30
0
11
2165.063509
21
3101.0585
31
0
0
LINE
8
PIPES
10
7794.227768
20
351.059
30
0
11
7361.2142
21
601.0595
31
0
0
LINE
8
PIPES
10
6962.844246
20
831.0585
30
0
11
5871.652238
21
1461.0585
31
0
0
LINE
8
PIPES
10
5871.652238
20
1461.0585
30
0
11
4780.460229
21
2091.0585
31
0
0
LINE
8
PIPES
10
4780.460229
20
2091.0585
30
0
11
3689.26822
21
2721.0585
31
0
0
LINE
8
PIPES
10
3689.26822
20
2721.0585
30
0
11
3031.088913
21
3101.0585
31
0
0
LINE
8
PIPES
10
2857.892493
20
-1538.9365
30
0
11
3949.084502
21
-908.9365
31
0
0
LINE
8
PIPES
10
3949.084502
20
-908.9365
30
0
11
5040.26785
21
-278.9415
31
0
0
LINE
8
PIPES
10
5040.26785
20
-278.9415
30
0
11
6131.459859
21
351.0585
31
0
0
LINE
8
PIPES
10
6131.459859
20
351.0585
30
0
11
6529.831545
21
581.0585
31
0
0
LINE
8
PIPES
10
6529.831545
20
581.0585
30
0
11
6962.844246
21
831.0585
31
0
0
LINE
8
PIPES
10
1766.700484
20
-908.9365
30
0
11
2857.892493
21
-278.9365
31
0
0
LINE
8
PIPES
10
2857.892493
20
-278.9365
30
0
11
3949.075841
21
351.0585
31
0
0
LINE
8
PIPES
10
3949.075841
20
351.0585
30
0
11
5040.26785
21
981.0585
31
0
0
LINE
8
PIPES
10
5040.26785
20
981.0585
30
0
11
5438.639536
21
1211.0585
31
0
0
LINE
8
PIPES
10
5438.639536
20
1211.0585
30
0
11
5871.652238
21
1461.0585
31
0
0
LINE
8
PIPES
10
675.508475
20
-278.9365
30
0
11
1766.700484
21
351.0635
31
0
0
LINE
8
PIPES
10
1766.700484
20
351.0635
30
0
11
2857.883832
21
981.0585
31
0
0
LINE
8
PIPES
10
2857.883832
20
981.0585
30
0
11
3949.075841
21
1611.0585
31
0
0
LINE
8
PIPES
10
3949.075841
20
1611.0585
30
0
11
4347.447527
21
1841.0585
31
0
0
LINE
8
PIPES
10
4347.447527
20
1841.0585
30
0
11
4780.460229
21
2091.0585
31
0
0
LINE
8
PIPES
10
-415.683534
20
351.0635
30
0
11
675.508475
21
981.0635
31
0
0
LINE
8
PIPES
10
675.508475
20
981.0635
30
0
11
1766.691824
21
1611.0585
31
0
0
LINE
8
PIPES
10
1766.691824
20
1611.0585
30
0
11
2857.883832
21
2241.0585
31
0
0
LINE
8
PIPES
10
2857.883832
20
2241.0585
30
0
11
3256.255518
21
2471.0585
31
0
0
LINE
8
PIPES
10
3256.255518
20
2471.0585
30
0
11
3689.26822
21
2721.0585
31
0
0
LINE
8
PIPES
10
4780.468023
20
-1388.936
30
0
11
4347.454455
21
-1138.9355
31
0
0
LINE
8
PIPES
10
-415.683534
20
1611.0635
30
0
11
17.329168
21
1361.0635
31
0
0
LINE
8
PIPES
10
4347.454455
20
-1138.9355
30
0
11
3949.084502
21
-908.9365
31
0
0
LINE
8
PIPES
10
17.329168
20
1361.0635
30
0
11
675.508475
21
981.0635
31
0
0
LINE
8
PIPES
10
5871.651372
20
-758.941
30
0
11
5438.637804
21
-508.9405
31
0
0
LINE
8
PIPES
10
675.499815
20
2241.0585
30
0
11
1108.512517
21
1991.0585
31
0
0
LINE
8
PIPES
10
5438.637804
20
-508.9405
30
0
11
5040.26785
21
-278.9415
31
0
0
LINE
8
PIPES
10
1108.512517
20
1991.0585
30
0
11
1766.691824
21
1611.0585
31
0
0
LINE
8
PIPES
10
3689.276014
20
-2018.936
30
0
11
3256.262446
21
-1768.9355
31
0
0
LINE
8
PIPES
10
-1506.875542
20
981.0635
30
0
11
-1073.86284
21
731.0635
31
0
0
LINE
8
PIPES
10
3256.262446
20
-1768.9355
30
0
11
2857.892493
21
-1538.9365
31
0
0
LINE
8
PIPES
10
-1073.86284
20
731.0635
30
0
11
-415.683534
21
351.0635
31
0
0
LINE
8
PIPES
10
6962.84338
20
-128.941
30
0
11
6529.829812
21
121.0595
31
0
0
LINE
8
PIPES
10
1766.691824
20
2871.0585
30
0
11
2199.704526
21
2621.0585
31
0
0
LINE
8
PIPES
10
6529.829812
20
121.0595
30
0
11
6131.459859
21
351.0585
31
0
0
LINE
8
PIPES
10
2199.704526
20
2621.0585
30
0
11
2857.883832
21
2241.0585
31
0
0
LINE
8
PIPES
10
3256.262446
20
-1319.3195
30
0
11
4347.454455
21
-689.3195
31
0
0
LINE
8
PIPES
10
4347.454455
20
-689.3195
30
0
11
5438.637804
21
-59.3245
31
0
0
LINE
8
PIPES
10
5438.637804
20
-59.3245
30
0
11
6529.829812
21
570.6755
31
0
0
LINE
8
PIPES
10
6529.829812
20
570.6755
30
0
11
6928.201498
21
800.6755
31
0
0
LINE
8
PIPES
10
-1073.86284
20
1180.6795
30
0
11
17.329168
21
1810.6795
31
0
0
LINE
8
PIPES
10
1108.512517
20
2440.6745
30
0
11
2199.704526
21
3070.6745
31
0
0
LINE
8
PIPES
10
2199.704526
20
3070.6745
30
0
11
2598.076211
21
3300.6745
31
0
0
LINE
8
PIPES
10
2598.075345
20
-2199.325
30
0
11
3689.276014
21
-1569.32
31
0
0
LINE
8
PIPES
10
3689.276014
20
-1569.32
30
0
11
4780.468023
21
-939.32
31
0
0
LINE
8
PIPES
10
4780.468023
20
-939.32
30
0
11
5871.651372
21
-309.325
31
0
0
LINE
8
PIPES
10
5871.651372
20
-309.325
30
0
11
6962.84338
21
320.675
31
0
0
LINE
8
PIPES
10
6962.84338
20
320.675
30
0
11
7361.215066
21
550.675
31
0
0
LINE
8
PIPES
10
7361.215066
20
550.675
30
0
11
7794.227768
21
800.675
31
0
0
LINE
8
PIPES
10
2598.076211
20
3800.6745
30
0
11
2165.063509
21
3550.6745
31
0
0
LINE
8
PIPES
10
2165.063509
20
3550.6745
30
0
11
1766.691824
21
3320.6745
31
0
0
LINE
8
PIPES
10
1766.691824
20
3320.6745
30
0
11
675.499815
21
2690.6745
31
0
0
LINE
8
PIPES
10
-415.683534
20
2060.6795
30
0
11
-1506.875542
21
1430.6795
31
0
0
LINE
8
PIPES
10
-1506.875542
20
1430.6795
30
0
11
-2598.076211
21
800.6745
31
0
0
LINE
8
PIPES
10
7794.227768
20
800.675
30
0
11
7361.2142
21
1050.6755
31
0
0
LINE
8
PIPES
10
6962.844246
20
1280.6745
30
0
11
5871.652238
21
1910.6745
31
0
0
LINE
8
PIPES
10
5871.652238
20
1910.6745
30
0
11
4780.460229
21
2540.6745
31
0
0
LINE
8
PIPES
10
4780.460229
20
2540.6745
30
0
11
3689.26822
21
3170.6745
31
0
0
LINE
8
PIPES
10
3689.26822
20
3170.6745
30
0
11
3031.088913
21
3550.6745
31
0
0
LINE
8
PIPES
10
7361.215066
20
550.675
30
0
11
6928.201498
21
800.6755
31
0
0
LINE
8
PIPES
10
6928.201498
20
800.6755
30
0
11
6529.831545
21
1030.6745
31
0
0
LINE
8
PIPES
10
5438.639536
20
1660.6745
30
0
11
4347.447527
21
2290.6745
31
0
0
LINE
8
PIPES
10
2598.076211
20
3300.6745
30
0
11
2165.063509
21
3550.6745
31
0
0
LINE
8
PIPES
10
4780.468023
20
-939.32
30
0
11
4347.454455
21
-689.3195
31
0
0
LINE
8
PIPES
10
-415.683534
20
2060.6795
30
0
11
17.329168
21
1810.6795
31
0
0
LINE
8
PIPES
10
5871.651372
20
-309.325
30
0
11
5438.637804
21
-59.3245
31
0
0
LINE
8
PIPES
10
675.499815
20
2690.6745
30
0
11
1108.512517
21
2440.6745
31
0
0
LINE
8
PIPES
10
3689.276014
20
-1569.32
30
0
11
3256.262446
21
-1319.3195
31
0
0
LINE
8
PIPES
10
-1506.875542
20
1430.6795
30
0
11
-1073.86284
21
1180.6795
31
0
0
LINE
8
PIPES
10
6962.84338
20
320.675
30
0
11
6529.829812
21
570.6755
31
0
0
LINE
8
PIPES
10
1766.691824
20
3320.6745
30
0
11
2199.704526
21
3070.6745
31
0
0
LINE
8
PIPES
10
6962.844246
20
1280.6745
30
0
11
6529.831545
21
1030.6745
31
0
0
LINE
8
PIPES
10
5871.652238
20
1910.6745
30
0
11
5438.639536
21
1660.6745
31
0
0
LINE
8
PIPES
10
4780.460229
20
2540.6745
30
0
11
4347.447527
21
2290.6745
31
0
0
LINE
8
PIPES
10
3689.26822
20
3170.6745
30
0
11
3256.255518
21
2920.6745
31
0
0
LINE
8
PIPES
10
2598.075345
20
-1664.895
30
0
11
3689.276014
21
-1034.89
31
0
0
LINE
8
PIPES
10
3689.276014
20
-1034.89
30
0
11
4780.468023
21
-404.89
31
0
0
LINE
8
PIPES
10
4780.468023
20
-404.89
30
0
11
5871.651372
21
225.105
31
0
0
LINE
8
PIPES
10
5871.651372
20
225.105
30
0
11
6962.84338
21
855.105
31
0
0
LINE
8
PIPES
10
6962.84338
20
855.105
30
0
11
7794.227768
21
1335.105
31
0
0
LINE
8
PIPES
10
-2598.076211
20
1335.1045
30
0
11
-1506.875542
21
1965.1095
31
0
0
LINE
8
PIPES
10
-1506.875542
20
1965.1095
30
0
11
-415.683534
21
2595.1095
31
0
0
LINE
8
PIPES
10
675.499815
20
3225.1045
30
0
11
1766.691824
21
3855.1045
31
0
0
LINE
8
PIPES
10
1766.691824
20
3855.1045
30
0
11
2598.076211
21
4335.1045
31
0
0
LINE
8
PIPES
10
7794.227768
20
1335.105
30
0
11
6962.844246
21
1815.1045
31
0
0
LINE
8
PIPES
10
6962.844246
20
1815.1045
30
0
11
5871.652238
21
2445.1045
31
0
0
LINE
8
PIPES
10
5871.652238
20
2445.1045
30
0
11
4780.460229
21
3075.1045
31
0
0
LINE
8
PIPES
10
4780.460229
20
3075.1045
30
0
11
3689.26822
21
3705.1045
31
0
0
LINE
8
PIPES
10
3689.26822
20
3705.1045
30
0
11
2598.076211
21
4335.1045
31
0
0
LINE
8
PIPES
10
2598.075345
20
-1074.465
30
0
11
3689.276014
21
-444.46
31
0
0
LINE
8
PIPES
10
3689.276014
20
-444.46
30
0
11
4780.468023
21
185.54
31
0
0
LINE
8
PIPES
10
4780.468023
20
185.54
30
0
11
5871.651372
21
815.535
31
0
0
LINE
8
PIPES
10
5871.651372
20
815.535
30
0
11
6962.84338
21
1445.535
31
0
0
LINE
8
PIPES
10
6962.84338
20
1445.535
30
0
11
7794.227768
21
1925.535
31
0
0
LINE
8
PIPES
10
-2598.076211
20
1925.5345
30
0
11
-1506.875542
21
2555.5395
31
0
0
LINE
8
PIPES
10
-1506.875542
20
2555.5395
30
0
11
-415.683534
21
3185.5395
31
0
0
LINE
8
PIPES
10
675.499815
20
3815.5345
30
0
11
1766.691824
21
4445.5345
31
0
0
LINE
8
PIPES
10
1766.691824
20
4445.5345
30
0
11
2598.076211
21
4925.5345
31
0
0
LINE
8
PIPES
10
7794.227768
20
1925.535
30
0
11
6962.844246
21
2405.5345
31
0
0
LINE
8
PIPES
10
6962.844246
20
2405.5345
30
0
11
5871.652238
21
3035.5345
31
0
0
LINE
8
PIPES
10
5871.652238
20
3035.5345
30
0
11
4780.460229
21
3665.5345
31
0
0
LINE
8
PIPES
10
4780.460229
20
3665.5345
30
0
11
3689.26822
21
4295.5345
31
0
0
LINE
8
PIPES
10
3689.26822
20
4295.5345
30
0
11
2598.076211
21
4925.5345
31
0
0
LINE
8
PIPES
10
2598.075345
20
106.385
30
0
11
3689.276014
21
736.39
31
0
0
LINE
8
PIPES
10
2598.075345
20
-193.235
30
0
11
3689.276014
21
436.77
31
0
0
LINE
8
PIPES
10
3689.276014
20
736.39
30
0
11
4780.468023
21
1366.39
31
0
0
LINE
8
PIPES
10
3689.276014
20
436.77
30
0
11
4780.468023
21
1066.77
31
0
0
LINE
8
PIPES
10
4780.468023
20
1366.39
30
0
11
5871.651372
21
1996.385
31
0
0
LINE
8
PIPES
10
4780.468023
20
1066.77
30
0
11
5871.651372
21
1696.765
31
0
0
LINE
8
PIPES
10
5871.651372
20
1996.385
30
0
11
6962.84338
21
2626.385
31
0
0
LINE
8
PIPES
10
5871.651372
20
1696.765
30
0
11
6962.84338
21
2326.765
31
0
0
LINE
8
PIPES
10
6962.84338
20
2626.385
30
0
11
7794.227768
21
3106.385
31
0
0
LINE
8
PIPES
10
6962.84338
20
2326.765
30
0
11
7794.227768
21
2806.765
31
0
0
LINE
8
PIPES
10
-2598.076211
20
3500.0045
30
0
11
-1506.875542
21
4130.0095
31
0
0
LINE
8
PIPES
10
-2598.076211
20
3200.3845
30
0
11
-1506.875542
21
3830.3895
31
0
0
LINE
8
PIPES
10
-1506.875542
20
4130.0095
30
0
11
-415.683534
21
4760.0095
31
0
0
LINE
8
PIPES
10
-1506.875542
20
3830.3895
30
0
11
-415.683534
21
4460.3895
31
0
0
LINE
8
PIPES
10
-415.683534
20
4760.0095
30
0
11
675.499815
21
5390.0045
31
0
0
LINE
8
PIPES
10
-415.683534
20
4460.3895
30
0
11
675.499815
21
5090.3845
31
0
0
LINE
8
PIPES
10
675.499815
20
5390.0045
30
0
11
1766.691824
21
6020.0045
31
0
0
LINE
8
PIPES
10
675.499815
20
5090.3845
30
0
11
1766.691824
21
5720.3845
31
0
0
LINE
8
PIPES
10
1766.691824
20
6020.0045
30
0
11
2598.076211
21
6500.0045
31
0
0
LINE
8
PIPES
10
1766.691824
20
5720.3845
30
0
11
2598.076211
21
6200.3845
31
0
0
LINE
8
PIPES
10
4780.468023
20
1366.39
30
0
11
4740.319951
21
1411.2095
31
0
0
LINE
8
PIPES
10
4740.319951
20
1411.2095
30
0
11
4482.519777
21
1578.6505
31
0
0
LINE
8
PIPES
10
4482.519777
20
1578.6505
30
0
11
4224.719603
21
1746.0915
31
0
0
LINE
8
PIPES
10
4224.719603
20
1746.0915
30
0
11
3966.915965
21
1913.5345
31
0
0
LINE
8
PIPES
10
3966.915965
20
1913.5345
30
0
11
3949.084502
21
1925.1095
31
0
0
LINE
8
PIPES
10
3709.117522
20
2080.9745
30
0
11
3451.31908
21
2248.4045
31
0
0
LINE
8
PIPES
10
3451.31908
20
2248.4045
30
0
11
3193.520638
21
2415.8445
31
0
0
LINE
8
PIPES
10
3193.520638
20
2415.8445
30
0
11
2935.722196
21
2583.2845
31
0
0
LINE
8
PIPES
10
2935.722196
20
2583.2845
30
0
11
2857.892493
21
2633.8395
31
0
0
LINE
8
PIPES
10
2677.915093
20
2750.7295
30
0
11
2420.116651
21
2918.1695
31
0
0
LINE
8
PIPES
10
2420.116651
20
2918.1695
30
0
11
2162.318209
21
3085.6095
31
0
0
LINE
8
PIPES
10
2162.318209
20
3085.6095
30
0
11
1904.519767
21
3253.0495
31
0
0
LINE
8
PIPES
10
1904.519767
20
3253.0495
30
0
11
1766.700484
21
3342.5595
31
0
0
LINE
8
PIPES
10
1646.721325
20
3420.4895
30
0
11
1388.914222
21
3587.9345
31
0
0
LINE
8
PIPES
10
1388.914222
20
3587.9345
30
0
11
1131.11578
21
3755.3745
31
0
0
LINE
8
PIPES
10
1131.11578
20
3755.3745
30
0
11
873.317338
21
3922.8145
31
0
0
LINE
8
PIPES
10
873.317338
20
3922.8145
30
0
11
675.508475
21
4051.2895
31
0
0
LINE
8
PIPES
10
615.518895
20
4090.2445
30
0
11
357.720453
21
4257.6845
31
0
0
LINE
8
PIPES
10
357.720453
20
4257.6845
30
0
11
99.913351
21
4425.1295
31
0
0
LINE
8
PIPES
10
99.913351
20
4425.1295
30
0
11
-157.885091
21
4592.5695
31
0
0
LINE
8
PIPES
10
-157.885091
20
4592.5695
30
0
11
-415.683534
21
4760.0095
31
0
0
LINE
8
PIPES
10
4780.468023
20
1066.77
30
0
11
4740.319951
21
1111.5895
31
0
0
LINE
8
PIPES
10
4740.319951
20
1111.5895
30
0
11
4482.519777
21
1279.0305
31
0
0
LINE
8
PIPES
10
4482.519777
20
1279.0305
30
0
11
4224.719603
21
1446.4715
31
0
0
LINE
8
PIPES
10
4224.719603
20
1446.4715
30
0
11
3966.915965
21
1613.9145
31
0
0
LINE
8
PIPES
10
3966.915965
20
1613.9145
30
0
11
3949.084502
21
1625.4895
31
0
0
LINE
8
PIPES
10
3709.117522
20
1781.3545
30
0
11
3451.31908
21
1948.7845
31
0
0
LINE
8
PIPES
10
3451.31908
20
1948.7845
30
0
11
3193.520638
21
2116.2245
31
0
0
LINE
8
PIPES
10
3193.520638
20
2116.2245
30
0
11
2935.722196
21
2283.6645
31
0
0
LINE
8
PIPES
10
2935.722196
20
2283.6645
30
0
11
2857.892493
21
2334.2195
31
0
0
LINE
8
PIPES
10
2677.915093
20
2451.1095
30
0
11
2420.116651
21
2618.5495
31
0
0
LINE
8
PIPES
10
2420.116651
20
2618.5495
30
0
11
2162.318209
21
2785.9895
31
0
0
LINE
8
PIPES
10
2162.318209
20
2785.9895
30
0
11
1904.519767
21
2953.4295
31
0
0
LINE
8
PIPES
10
1904.519767
20
2953.4295
30
0
11
1766.700484
21
3042.9395
31
0
0
LINE
8
PIPES
10
1646.721325
20
3120.8695
30
0
11
1388.914222
21
3288.3145
31
0
0
LINE
8
PIPES
10
1388.914222
20
3288.3145
30
0
11
1131.11578
21
3455.7545
31
0
0
LINE
8
PIPES
10
1131.11578
20
3455.7545
30
0
11
873.317338
21
3623.1845
31
0
0
LINE
8
PIPES
10
873.317338
20
3623.1845
30
0
11
675.508475
21
3751.6695
31
0
0
LINE
8
PIPES
10
615.518895
20
3790.6245
30
0
11
357.720453
21
3958.0645
31
0
0
LINE
8
PIPES
10
357.720453
20
3958.0645
30
0
11
99.913351
21
4125.5095
31
0
0
LINE
8
PIPES
10
99.913351
20
4125.5095
30
0
11
-157.885091
21
4292.9495
31
0
0
LINE
8
PIPES
10
-157.885091
20
4292.9495
30
0
11
-415.683534
21
4460.3895
31
0
0
LINE
8
PIPES
10
-415.683534
20
4460.3895
30
0
11
-415.683534
21
4476.5995
31
0
0
LINE
8
PIPES
10
4780.468023
20
1366.39
30
0
11
4780.468023
21
1066.77
31
0
0
LINE
8
PIPES
10
4740.319951
20
1411.2095
30
0
11
4740.319951
21
1111.5895
31
0
0
LINE
8
PIPES
10
4482.519777
20
1578.6505
30
0
11
4482.519777
21
1279.0305
31
0
0
LINE
8
PIPES
10
4224.719603
20
1746.0915
30
0
11
4224.719603
21
1446.4715
31
0
0
LINE
8
PIPES
10
3966.915965
20
1913.5345
30
0
11
3966.915965
21
1613.9145
31
0
0
LINE
8
PIPES
10
3709.117522
20
2080.9745
30
0
11
3709.117522
21
1781.3545
31
0
0
LINE
8
PIPES
10
3451.31908
20
2248.4045
30
0
11
3451.31908
21
1948.7845
31
0
0
LINE
8
PIPES
10
3193.520638
20
2415.8445
30
0
11
3193.520638
21
2116.2245
31
0
0
LINE
8
PIPES
10
2935.722196
20
2583.2845
30
0
11
2935.722196
21
2283.6645
31
0
0
LINE
8
PIPES
10
2677.915093
20
2750.7295
30
0
11
2677.915093
21
2451.1095
31
0
0
LINE
8
PIPES
10
2420.116651
20
2918.1695
30
0
11
2420.116651
21
2618.5495
31
0
0
LINE
8
PIPES
10
2162.318209
20
3085.6095
30
0
11
2162.318209
21
2785.9895
31
0
0
LINE
8
PIPES
10
1904.519767
20
3253.0495
30
0
11
1904.519767
21
2953.4295
31
0
0
LINE
8
PIPES
10
1646.721325
20
3420.4895
30
0
11
1646.721325
21
3120.8695
31
0
0
LINE
8
PIPES
10
1388.914222
20
3587.9345
30
0
11
1388.914222
21
3288.3145
31
0
0
LINE
8
PIPES
10
1131.11578
20
3755.3745
30
0
11
1131.11578
21
3455.7545
31
0
0
LINE
8
PIPES
10
873.317338
20
3922.8145
30
0
11
873.317338
21
3623.1845
31
0
0
LINE
8
PIPES
10
615.518895
20
4090.2445
30
0
11
615.518895
21
3790.6245
31
0
0
LINE
8
PIPES
10
357.720453
20
4257.6845
30
0
11
357.720453
21
3958.0645
31
0
0
LINE
8
PIPES
10
99.913351
20
4425.1295
30
0
11
99.913351
21
4125.5095
31
0
0
LINE
8
PIPES
10
-157.885091
20
4592.5695
30
0
11
-157.885091
21
4292.9495
31
0
0
LINE
8
PIPES
10
5871.651372
20
1996.385
30
0
11
5831.5033
21
2041.2045
31
0
0
LINE
8
PIPES
10
5831.5033
20
2041.2045
30
0
11
5573.703126
21
2208.6455
31
0
0
LINE
8
PIPES
10
5573.703126
20
2208.6455
30
0
11
5315.902951
21
2376.0865
31
0
0
LINE
8
PIPES
10
5315.902951
20
2376.0865
30
0
11
5058.099313
21
2543.5295
31
0
0
LINE
8
PIPES
10
5058.099313
20
2543.5295
30
0
11
5040.26785
21
2555.1045
31
0
0
LINE
8
PIPES
10
4800.300871
20
2710.9695
30
0
11
4542.502429
21
2878.3995
31
0
0
LINE
8
PIPES
10
4542.502429
20
2878.3995
30
0
11
4284.703986
21
3045.8395
31
0
0
LINE
8
PIPES
10
4284.703986
20
3045.8395
30
0
11
4026.905544
21
3213.2795
31
0
0
LINE
8
PIPES
10
4026.905544
20
3213.2795
30
0
11
3949.075841
21
3263.8345
31
0
0
LINE
8
PIPES
10
3769.098442
20
3380.7245
30
0
11
3511.3
21
3548.1645
31
0
0
LINE
8
PIPES
10
3511.3
20
3548.1645
30
0
11
3253.501557
21
3715.6045
31
0
0
LINE
8
PIPES
10
3253.501557
20
3715.6045
30
0
11
2995.703115
21
3883.0445
31
0
0
LINE
8
PIPES
10
2995.703115
20
3883.0445
30
0
11
2857.883832
21
3972.5545
31
0
0
LINE
8
PIPES
10
2737.904673
20
4050.4845
30
0
11
2480.097571
21
4217.9295
31
0
0
LINE
8
PIPES
10
2480.097571
20
4217.9295
30
0
11
2222.299128
21
4385.3695
31
0
0
LINE
8
PIPES
10
2222.299128
20
4385.3695
30
0
11
1964.500686
21
4552.8095
31
0
0
LINE
8
PIPES
10
1964.500686
20
4552.8095
30
0
11
1766.691824
21
4681.2845
31
0
0
LINE
8
PIPES
10
1706.702244
20
4720.2395
30
0
11
1448.903802
21
4887.6795
31
0
0
LINE
8
PIPES
10
1448.903802
20
4887.6795
30
0
11
1191.096699
21
5055.1245
31
0
0
LINE
8
PIPES
10
1191.096699
20
5055.1245
30
0
11
933.298257
21
5222.5645
31
0
0
LINE
8
PIPES
10
933.298257
20
5222.5645
30
0
11
675.499815
21
5390.0045
31
0
0
LINE
8
PIPES
10
5871.651372
20
1696.765
30
0
11
5831.5033
21
1741.5845
31
0
0
LINE
8
PIPES
10
5831.5033
20
1741.5845
30
0
11
5573.703126
21
1909.0255
31
0
0
LINE
8
PIPES
10
5573.703126
20
1909.0255
30
0
11
5315.902951
21
2076.4665
31
0
0
LINE
8
PIPES
10
5315.902951
20
2076.4665
30
0
11
5058.099313
21
2243.9095
31
0
0
LINE
8
PIPES
10
5058.099313
20
2243.9095
30
0
11
5040.26785
21
2255.4845
31
0
0
LINE
8
PIPES
10
4800.300871
20
2411.3495
30
0
11
4542.502429
21
2578.7795
31
0
0
LINE
8
PIPES
10
4542.502429
20
2578.7795
30
0
11
4284.703986
21
2746.2195
31
0
0
LINE
8
PIPES
10
4284.703986
20
2746.2195
30
0
11
4026.905544
21
2913.6595
31
0
0
LINE
8
PIPES
10
4026.905544
20
2913.6595
30
0
11
3949.075841
21
2964.2145
31
0
0
LINE
8
PIPES
10
3769.098442
20
3081.1045
30
0
11
3511.3
21
3248.5445
31
0
0
LINE
8
PIPES
10
3511.3
20
3248.5445
30
0
11
3253.501557
21
3415.9845
31
0
0
LINE
8
PIPES
10
3253.501557
20
3415.9845
30
0
11
2995.703115
21
3583.4245
31
0
0
LINE
8
PIPES
10
2995.703115
20
3583.4245
30
0
11
2857.883832
21
3672.9345
31
0
0
LINE
8
PIPES
10
2737.904673
20
3750.8645
30
0
11
2480.097571
21
3918.3095
31
0
0
LINE
8
PIPES
10
2480.097571
20
3918.3095
30
0
11
2222.299128
21
4085.7495
31
0
0
LINE
8
PIPES
10
2222.299128
20
4085.7495
30
0
11
1964.500686
21
4253.1795
31
0
0
LINE
8
PIPES
10
1964.500686
20
4253.1795
30
0
11
1766.691824
21
4381.6645
31
0
0
LINE
8
PIPES
10
1706.702244
20
4420.6195
30
0
11
1448.903802
21
4588.0595
31
0
0
LINE
8
PIPES
10
1448.903802
20
4588.0595
30
0
11
1191.096699
21
4755.5045
31
0
0
LINE
8
PIPES
10
1191.096699
20
4755.5045
30
0
11
933.298257
21
4922.9445
31
0
0
LINE
8
PIPES
10
933.298257
20
4922.9445
30
0
11
675.499815
21
5090.3845
31
0
0
LINE
8
PIPES
10
675.499815
20
5090.3845
30
0
11
675.499815
21
5106.5945
31
0
0
LINE
8
PIPES
10
5871.651372
20
1996.385
30
0
11
5871.651372
21
1696.765
31
0
0
LINE
8
PIPES
10
5831.5033
20
2041.2045
30
0
11
5831.5033
21
1741.5845
31
0
0
LINE
8
PIPES
10
5573.703126
20
2208.6455
30
0
11
5573.703126
21
1909.0255
31
0
0
LINE
8
PIPES
10
5315.902951
20
2376.0865
30
0
11
5315.902951
21
2076.4665
31
0
0
LINE
8
PIPES
10
5058.099313
20
2543.5295
30
0
11
5058.099313
21
2243.9095
31
0
0
LINE
8
PIPES
10
4800.300871
20
2710.9695
30
0
11
4800.300871
21
2411.3495
31
0
0
LINE
8
PIPES
10
4542.502429
20
2878.3995
30
0
11
4542.502429
21
2578.7795
31
0
0
LINE
8
PIPES
10
4284.703986
20
3045.8395
30
0
11
4284.703986
21
2746.2195
31
0
0
LINE
8
PIPES
10
4026.905544
20
3213.2795
30
0
11
4026.905544
21
2913.6595
31
0
0
LINE
8
PIPES
10
3769.098442
20
3380.7245
30
0
11
3769.098442
21
3081.1045
31
0
0
LINE
8
PIPES
10
3511.3
20
3548.1645
30
0
11
3511.3
21
3248.5445
31
0
0
LINE
8
PIPES
10
3253.501557
20
3715.6045
30
0
11
3253.501557
21
3415.9845
31
0
0
LINE
8
PIPES
10
2995.703115
20
3883.0445
30
0
11
2995.703115
21
3583.4245
31
0
0
LINE
8
PIPES
10
2737.904673
20
4050.4845
30
0
11
2737.904673
21
3750.8645
31
0
0
LINE
8
PIPES
10
2480.097571
20
4217.9295
30
0
11
2480.097571
21
3918.3095
31
0
0
LINE
8
PIPES
10
2222.299128
20
4385.3695
30
0
11
2222.299128
21
4085.7495
31
0
0
LINE
8
PIPES
10
1964.500686
20
4552.8095
30
0
11
1964.500686
21
4253.1795
31
0
0
LINE
8
PIPES
10
1706.702244
20
4720.2395
30
0
11
1706.702244
21
4420.6195
31
0
0
LINE
8
PIPES
10
1448.903802
20
4887.6795
30
0
11
1448.903802
21
4588.0595
31
0
0
LINE
8
PIPES
10
1191.096699
20
5055.1245
30
0
11
1191.096699
21
4755.5045
31
0
0
LINE
8
PIPES
10
933.298257
20
5222.5645
30
0
11
933.298257
21
4922.9445
31
0
0
LINE
8
PIPES
10
-415.683534
20
3579.1595
30
0
11
675.499815
21
4209.1545
31
0
0
LINE
8
PIPES
10
2857.892493
20
-1538.9365
30
0
11
1766.700484
21
-908.9365
31
0
0
LINE
8
PIPES
10
1766.700484
20
-908.9365
30
0
11
675.508475
21
-278.9365
31
0
0
LINE
8
PIPES
10
675.508475
20
-278.9365
30
0
11
-415.683534
21
351.0635
31
0
0
LINE
8
PIPES
10
3949.084502
20
-908.9365
30
0
11
2857.892493
21
-278.9365
31
0
0
LINE
8
PIPES
10
2857.892493
20
-278.9365
30
0
11
1766.700484
21
351.0635
31
0
0
LINE
8
PIPES
10
1766.700484
20
351.0635
30
0
11
675.508475
21
981.0635
31
0
0
LINE
8
PIPES
10
5040.26785
20
-278.9415
30
0
11
3949.075841
21
351.0585
31
0
0
LINE
8
PIPES
10
3949.075841
20
351.0585
30
0
11
2857.883832
21
981.0585
31
0
0
LINE
8
PIPES
10
2857.883832
20
981.0585
30
0
11
1766.691824
21
1611.0585
31
0
0
LINE
8
PIPES
10
6131.459859
20
351.0585
30
0
11
5040.26785
21
981.0585
31
0
0
LINE
8
PIPES
10
5040.26785
20
981.0585
30
0
11
3949.075841
21
1611.0585
31
0
0
LINE
8
PIPES
10
3949.075841
20
1611.0585
30
0
11
2857.883832
21
2241.0585
31
0
0
LINE
8
PIPES
10
2598.075345
20
-2648.941
30
0
11
3689.276014
21
-2569.999
31
0
0
LINE
8
PIPES
10
3689.276014
20
-2569.999
30
0
11
4780.468023
21
-1388.936
31
0
0
LINE
8
PIPES
10
4780.468023
20
-1388.936
30
0
11
5871.651372
21
-1310.004
31
0
0
LINE
8
PIPES
10
6962.84338
20
-128.941
30
0
11
5871.651372
21
-1310.004
31
0
0
LINE
8
PIPES
10
6962.84338
20
-128.941
30
0
11
7794.227768
21
-200.004
31
0
0
LINE
8
PIPES
10
1766.691824
20
-2720.0045
30
0
11
2857.892493
21
-1538.9365
31
0
0
LINE
8
PIPES
10
2857.892493
20
-1538.9365
30
0
11
3949.084502
21
-1459.9995
31
0
0
LINE
8
PIPES
10
3949.084502
20
-1459.9995
30
0
11
5040.26785
21
-278.9415
31
0
0
LINE
8
PIPES
10
5040.26785
20
-278.9415
30
0
11
6131.459859
21
-200.0045
31
0
0
LINE
8
PIPES
10
6131.459859
20
-200.0045
30
0
11
6962.844246
21
831.0585
31
0
0
LINE
8
PIPES
10
675.499815
20
-1538.9415
30
0
11
1766.700484
21
-1459.9995
31
0
0
LINE
8
PIPES
10
1766.700484
20
-1459.9995
30
0
11
2857.892493
21
-278.9365
31
0
0
LINE
8
PIPES
10
2857.892493
20
-278.9365
30
0
11
3949.075841
21
-200.0045
31
0
0
LINE
8
PIPES
10
3949.075841
20
-200.0045
30
0
11
5040.26785
21
981.0585
31
0
0
LINE
8
PIPES
10
5040.26785
20
981.0585
30
0
11
5871.652238
21
909.9955
31
0
0
LINE
8
PIPES
10
-415.692194
20
-1460.0045
30
0
11
675.508475
21
-278.9365
31
0
0
LINE
8
PIPES
10
675.508475
20
-278.9365
30
0
11
1766.700484
21
-199.9995
31
0
0
LINE
8
PIPES
10
1766.700484
20
-199.9995
30
0
11
2857.883832
21
981.0585
31
0
0
LINE
8
PIPES
10
2857.883832
20
981.0585
30
0
11
3949.075841
21
1059.9955
31
0
0
LINE
8
PIPES
10
3949.075841
20
1059.9955
30
0
11
4780.460229
21
2091.0585
31
0
0
LINE
8
PIPES
10
-1506.884203
20
-278.9415
30
0
11
-415.683534
21
-199.9995
31
0
0
LINE
8
PIPES
10
-415.683534
20
-199.9995
30
0
11
675.508475
21
981.0635
31
0
0
LINE
8
PIPES
10
675.508475
20
981.0635
30
0
11
1766.691824
21
1059.9955
31
0
0
LINE
8
PIPES
10
1766.691824
20
1059.9955
30
0
11
2857.883832
21
2241.0585
31
0
0
LINE
8
PIPES
10
2857.883832
20
2241.0585
30
0
11
3689.26822
21
2169.9955
31
0
0
LINE
8
PIPES
10
-2598.076211
20
-200.0045
30
0
11
-1506.875542
21
981.0635
31
0
0
LINE
8
PIPES
10
-1506.875542
20
981.0635
30
0
11
-415.683534
21
1060.0005
31
0
0
LINE
8
PIPES
10
-415.683534
20
1060.0005
30
0
11
675.499815
21
2241.0585
31
0
0
LINE
8
PIPES
10
675.499815
20
2241.0585
30
0
11
1766.691824
21
2319.9955
31
0
0
LINE
8
PIPES
10
1766.691824
20
2319.9955
30
0
11
2598.076211
21
3351.0585
31
0
0
LINE
8
PIPES
10
3689.276014
20
-2569.999
30
0
11
2857.892493
21
-1538.9365
31
0
0
LINE
8
PIPES
10
2857.892493
20
-1538.9365
30
0
11
1766.700484
21
-1459.9995
31
0
0
LINE
8
PIPES
10
1766.700484
20
-1459.9995
30
0
11
675.508475
21
-278.9365
31
0
0
LINE
8
PIPES
10
675.508475
20
-278.9365
30
0
11
-415.683534
21
-199.9995
31
0
0
LINE
8
PIPES
10
-415.683534
20
-199.9995
30
0
11
-1506.875542
21
981.0635
31
0
0
LINE
8
PIPES
10
4780.468023
20
-1388.936
30
0
11
3949.084502
21
-1459.9995
31
0
0
LINE
8
PIPES
10
3949.084502
20
-1459.9995
30
0
11
2857.892493
21
-278.9365
31
0
0
LINE
8
PIPES
10
2857.892493
20
-278.9365
30
0
11
1766.700484
21
-199.9995
31
0
0
LINE
8
PIPES
10
1766.700484
20
-199.9995
30
0
11
675.508475
21
981.0635
31
0
0
LINE
8
PIPES
10
675.508475
20
981.0635
30
0
11
-415.683534
21
1060.0005
31
0
0
LINE
8
PIPES
10
5871.651372
20
-1310.004
30
0
11
5040.26785
21
-278.9415
31
0
0
LINE
8
PIPES
10
5040.26785
20
-278.9415
30
0
11
3949.075841
21
-200.0045
31
0
0
LINE
8
PIPES
10
3949.075841
20
-200.0045
30
0
11
2857.883832
21
981.0585
31
0
0
LINE
8
PIPES
10
2857.883832
20
981.0585
30
0
11
1766.691824
21
1059.9955
31
0
0
LINE
8
PIPES
10
1766.691824
20
1059.9955
30
0
11
675.499815
21
2241.0585
31
0
0
LINE
8
PIPES
10
6962.84338
20
-128.941
30
0
11
6131.459859
21
-200.0045
31
0
0
LINE
8
PIPES
10
6131.459859
20
-200.0045
30
0
11
5040.26785
21
981.0585
31
0
0
LINE
8
PIPES
10
5040.26785
20
981.0585
30
0
11
3949.075841
21
1059.9955
31
0
0
LINE
8
PIPES
10
3949.075841
20
1059.9955
30
0
11
2857.883832
21
2241.0585
31
0
0
LINE
8
PIPES
10
2857.883832
20
2241.0585
30
0
11
1766.691824
21
2319.9955
31
0
0
LINE
8
PIPES
10
7794.227768
20
2806.765
30
0
11
6962.844246
21
3365.4845
31
0
0
LINE
8
PIPES
10
6962.844246
20
3365.4845
30
0
11
5871.652238
21
4074.2145
31
0
0
LINE
8
PIPES
10
5871.652238
20
4074.2145
30
0
11
4780.460229
21
4782.9345
31
0
0
LINE
8
PIPES
10
4780.460229
20
4782.9345
30
0
11
3689.26822
21
5491.6645
31
0
0
LINE
8
PIPES
10
3689.26822
20
5491.6645
30
0
11
2598.076211
21
6200.3845
31
0
0
LINE
8
PIPES
10
7794.227768
20
3106.385
30
0
11
6962.844246
21
3665.1045
31
0
0
LINE
8
PIPES
10
6962.844246
20
3665.1045
30
0
11
5871.652238
21
4373.8345
31
0
0
LINE
8
PIPES
10
5871.652238
20
4373.8345
30
0
11
4780.460229
21
5082.5545
31
0
0
LINE
8
PIPES
10
4780.460229
20
5082.5545
30
0
11
3689.26822
21
5791.2845
31
0
0
LINE
8
PIPES
10
3689.26822
20
5791.2845
30
0
11
2598.076211
21
6500.0045
31
0
0
LINE
8
PIPES
10
2598.076211
20
6200.3845
30
0
11
3689.26822
21
4295.5345
31
0
0
LINE
8
PIPES
10
3689.26822
20
4295.5345
30
0
11
2598.076211
21
3800.6745
31
0
0
LINE
8
PIPES
10
2598.076211
20
3800.6745
30
0
11
3689.26822
21
1869.9945
31
0
0
LINE
8
PIPES
10
3689.26822
20
5491.6645
30
0
11
4780.460229
21
3665.5345
31
0
0
LINE
8
PIPES
10
4780.460229
20
3665.5345
30
0
11
3689.26822
21
3170.6745
31
0
0
LINE
8
PIPES
10
3689.26822
20
3170.6745
30
0
11
4780.460229
21
1239.9945
31
0
0
LINE
8
PIPES
10
4780.460229
20
4782.9345
30
0
11
5871.652238
21
3035.5345
31
0
0
LINE
8
PIPES
10
5871.652238
20
3035.5345
30
0
11
4780.460229
21
2540.6745
31
0
0
LINE
8
PIPES
10
4780.460229
20
2540.6745
30
0
11
5871.652238
21
609.9945
31
0
0
LINE
8
PIPES
10
5871.652238
20
4074.2145
30
0
11
6962.844246
21
2405.5345
31
0
0
LINE
8
PIPES
10
6962.844246
20
2405.5345
30
0
11
5871.652238
21
1910.6745
31
0
0
LINE
8
PIPES
10
5871.652238
20
1910.6745
30
0
11
6962.844246
21
-20.0055
31
0
0
LINE
8
PIPES
10
6962.844246
20
3365.4845
30
0
11
7794.227768
21
1925.535
31
0
0
LINE
8
PIPES
10
7794.227768
20
1925.535
30
0
11
6962.844246
21
1280.6745
31
0
0
LINE
8
PIPES
10
6962.844246
20
1280.6745
30
0
11
7794.227768
21
-500.005
31
0
0
LINE
8
PIPES
10
2598.075345
20
-193.235
30
0
11
3689.276014
21
-444.46
31
0
0
LINE
8
PIPES
10
3689.276014
20
-444.46
30
0
11
2598.075345
21
-2199.325
31
0
0
LINE
8
PIPES
10
2598.075345
20
-2199.325
30
0
11
3689.276014
21
-2870
31
0
0
LINE
8
PIPES
10
3689.276014
20
436.77
30
0
11
4780.468023
21
185.54
31
0
0
LINE
8
PIPES
10
4780.468023
20
185.54
30
0
11
3689.276014
21
-1569.32
31
0
0
LINE
8
PIPES
10
3689.276014
20
-1569.32
30
0
11
4780.468023
21
-2240
31
0
0
LINE
8
PIPES
10
4780.468023
20
1066.77
30
0
11
5871.651372
21
815.535
31
0
0
LINE
8
PIPES
10
5871.651372
20
815.535
30
0
11
4780.468023
21
-939.32
31
0
0
LINE
8
PIPES
10
4780.468023
20
-939.32
30
0
11
5871.651372
21
-1610.005
31
0
0
LINE
8
PIPES
10
5871.651372
20
1696.765
30
0
11
6962.84338
21
1445.535
31
0
0
LINE
8
PIPES
10
6962.84338
20
1445.535
30
0
11
5871.651372
21
-309.325
31
0
0
LINE
8
PIPES
10
5871.651372
20
-309.325
30
0
11
6962.84338
21
-980.005
31
0
0
LINE
8
PIPES
10
6962.84338
20
2326.765
30
0
11
7794.227768
21
1925.535
31
0
0
LINE
8
PIPES
10
7794.227768
20
1925.535
30
0
11
6962.84338
21
320.675
31
0
0
LINE
8
PIPES
10
6962.84338
20
320.675
30
0
11
7794.227768
21
-500.005
31
0
0
LINE
8
PIPES
10
675.499815
20
5106.5945
30
0
11
-415.683534
21
3579.1595
31
0
0
LINE
8
PIPES
10
-1506.875542
20
3830.3895
30
0
11
-2598.076211
21
1925.5345
31
0
0
LINE
8
PIPES
10
-2598.076211
20
1925.5345
30
0
11
-1506.875542
21
1430.6795
31
0
0
LINE
8
PIPES
10
-1506.875542
20
1430.6795
30
0
11
-2598.076211
21
-500.0055
31
0
0
LINE
8
PIPES
10
-415.683534
20
4476.5995
30
0
11
-1506.875542
21
2555.5395
31
0
0
LINE
8
PIPES
10
-1506.875542
20
2555.5395
30
0
11
-415.683534
21
2060.6795
31
0
0
LINE
8
PIPES
10
-415.683534
20
2060.6795
30
0
11
-1506.875542
21
129.9995
31
0
0
LINE
8
PIPES
10
1766.691824
20
5720.3845
30
0
11
675.499815
21
3815.5345
31
0
0
LINE
8
PIPES
10
675.499815
20
3815.5345
30
0
11
1766.691824
21
3320.6745
31
0
0
LINE
8
PIPES
10
1766.691824
20
3320.6745
30
0
11
675.499815
21
1389.9945
31
0
0
LINE
8
PIPES
10
2598.076211
20
6200.3845
30
0
11
1766.691824
21
4445.5345
31
0
0
LINE
8
PIPES
10
1766.691824
20
4445.5345
30
0
11
2598.076211
21
3800.6745
31
0
0
LINE
8
PIPES
10
1766.691824
20
2019.9945
30
0
11
2598.076211
21
3800.6745
31
0
0
LINE
8
PIPES
10
7361.215066
20
101.059
30
0
11
7794.227768
21
351.059
31
0
0
LINE
8
PIPES
10
6529.831545
20
1030.6745
30
0
11
5438.639536
21
1660.6745
31
0
0
LINE
8
PIPES
10
4347.447527
20
2290.6745
30
0
11
3256.255518
21
2920.6745
31
0
0
LINE
8
PIPES
10
3256.255518
20
2920.6745
30
0
11
2598.076211
21
3300.6745
31
0
0
LINE
8
PIPES
10
2165.063509
20
3101.0585
30
0
11
2598.076211
21
3351.0585
31
0
0
LINE
8
PIPES
10
7794.227768
20
2806.765
30
0
11
7794.227768
21
3106.385
31
0
0
LINE
8
PIPES
10
6962.844246
20
3365.4845
30
0
11
6962.844246
21
3665.1045
31
0
0
LINE
8
PIPES
10
5871.652238
20
4074.2145
30
0
11
5871.652238
21
4373.8345
31
0
0
LINE
8
PIPES
10
4780.460229
20
4782.9345
30
0
11
4780.460229
21
5082.5545
31
0
0
LINE
8
PIPES
10
3689.26822
20
5491.6645
30
0
11
3689.26822
21
5791.2845
31
0
0
LINE
8
PIPES
10
2598.076211
20
6200.3845
30
0
11
2598.076211
21
6500.0045
31
0
0
LINE
8
PIPES
10
3689.276014
20
436.77
30
0
11
3689.276014
21
736.39
31
0
0
LINE
8
PIPES
10
-1506.875542
20
3830.3895
30
0
11
-1506.875542
21
4130.0095
31
0
0
LINE
8
PIPES
10
6962.84338
20
2326.765
30
0
11
6962.84338
21
2626.385
31
0
0
LINE
8
PIPES
10
1766.691824
20
5720.3845
30
0
11
1766.691824
21
6020.0045
31
0
0
LINE
8
PIPES
10
1766.691824
20
665.1045
30
0
11
2857.892493
21
1295.1095
31
0
0
LINE
8
PIPES
10
1766.691824
20
365.4845
30
0
11
2857.892493
21
995.4895
31
0
0
LINE
8
PIPES
10
675.499815
20
1373.8345
30
0
11
1766.700484
21
2003.8395
31
0
0
LINE
8
PIPES
10
675.499815
20
1074.2145
30
0
11
1766.700484
21
1704.2195
31
0
0
LINE
8
PIPES
10
-415.692194
20
2082.5545
30
0
11
675.508475
21
2712.5595
31
0
0
LINE
8
PIPES
10
-415.692194
20
1782.9345
30
0
11
675.508475
21
2412.9395
31
0
0
LINE
8
PIPES
10
-1506.884203
20
2791.2845
30
0
11
-415.683534
21
3421.2895
31
0
0
LINE
8
PIPES
10
-1506.884203
20
2491.6645
30
0
11
-415.683534
21
3121.6695
31
0
0
LINE
8
PIPES
10
2857.892493
20
995.4895
30
0
11
2857.892493
21
1295.1095
31
0
0
LINE
8
PIPES
10
1766.700484
20
1704.2195
30
0
11
1766.700484
21
2003.8395
31
0
0
LINE
8
PIPES
10
675.508475
20
2412.9395
30
0
11
675.508475
21
2712.5595
31
0
0
LINE
8
PIPES
10
-415.683534
20
3121.6695
30
0
11
-415.683534
21
3421.2895
31
0
0
LINE
8
PIPES
10
3949.084502
20
1925.1095
30
0
11
3709.117522
21
2080.9745
31
0
0
LINE
8
PIPES
10
2857.892493
20
1295.1095
30
0
11
3949.084502
21
1925.1095
31
0
0
LINE
8
PIPES
10
3949.084502
20
1625.4895
30
0
11
3709.117522
21
1781.3545
31
0
0
LINE
8
PIPES
10
2857.892493
20
995.4895
30
0
11
3949.084502
21
1625.4895
31
0
0
LINE
8
PIPES
10
2857.892493
20
2633.8395
30
0
11
2677.915093
21
2750.7295
31
0
0
LINE
8
PIPES
10
1766.700484
20
2003.8395
30
0
11
2857.892493
21
2633.8395
31
0
0
LINE
8
PIPES
10
2857.892493
20
2334.2195
30
0
11
2677.915093
21
2451.1095
31
0
0
LINE
8
PIPES
10
1766.700484
20
1704.2195
30
0
11
2857.892493
21
2334.2195
31
0
0
LINE
8
PIPES
10
1766.700484
20
3342.5595
30
0
11
1646.721325
21
3420.4895
31
0
0
LINE
8
PIPES
10
675.508475
20
2712.5595
30
0
11
1766.700484
21
3342.5595
31
0
0
LINE
8
PIPES
10
1766.700484
20
3042.9395
30
0
11
1646.721325
21
3120.8695
31
0
0
LINE
8
PIPES
10
675.508475
20
2412.9395
30
0
11
1766.700484
21
3042.9395
31
0
0
LINE
8
PIPES
10
675.508475
20
4051.2895
30
0
11
615.518895
21
4090.2445
31
0
0
LINE
8
PIPES
10
-415.683534
20
3421.2895
30
0
11
675.508475
21
4051.2895
31
0
0
LINE
8
PIPES
10
675.508475
20
3751.6695
30
0
11
615.518895
21
3790.6245
31
0
0
LINE
8
PIPES
10
-415.683534
20
3121.6695
30
0
11
675.508475
21
3751.6695
31
0
0
LINE
8
PIPES
10
3949.084502
20
1625.4895
30
0
11
3949.084502
21
1925.1095
31
0
0
LINE
8
PIPES
10
2857.892493
20
2334.2195
30
0
11
2857.892493
21
2633.8395
31
0
0
LINE
8
PIPES
10
1766.700484
20
3042.9395
30
0
11
1766.700484
21
3342.5595
31
0
0
LINE
8
PIPES
10
675.508475
20
3751.6695
30
0
11
675.508475
21
4051.2895
31
0
0
LINE
8
PIPES
10
5040.26785
20
2555.1045
30
0
11
4800.300871
21
2710.9695
31
0
0
LINE
8
PIPES
10
3949.084502
20
1925.1095
30
0
11
5040.26785
21
2555.1045
31
0
0
LINE
8
PIPES
10
5040.26785
20
2255.4845
30
0
11
4800.300871
21
2411.3495
31
0
0
LINE
8
PIPES
10
3949.084502
20
1625.4895
30
0
11
5040.26785
21
2255.4845
31
0
0
LINE
8
PIPES
10
3949.075841
20
3263.8345
30
0
11
3769.098442
21
3380.7245
31
0
0
LINE
8
PIPES
10
2857.892493
20
2633.8395
30
0
11
3949.075841
21
3263.8345
31
0
0
LINE
8
PIPES
10
3949.075841
20
2964.2145
30
0
11
3769.098442
21
3081.1045
31
0
0
LINE
8
PIPES
10
2857.892493
20
2334.2195
30
0
11
3949.075841
21
2964.2145
31
0
0
LINE
8
PIPES
10
2857.883832
20
3972.5545
30
0
11
2737.904673
21
4050.4845
31
0
0
LINE
8
PIPES
10
1766.700484
20
3342.5595
30
0
11
2857.883832
21
3972.5545
31
0
0
LINE
8
PIPES
10
2857.883832
20
3672.9345
30
0
11
2737.904673
21
3750.8645
31
0
0
LINE
8
PIPES
10
1766.700484
20
3042.9395
30
0
11
2857.883832
21
3672.9345
31
0
0
LINE
8
PIPES
10
1766.691824
20
4681.2845
30
0
11
1706.702244
21
4720.2395
31
0
0
LINE
8
PIPES
10
675.508475
20
4051.2895
30
0
11
1766.691824
21
4681.2845
31
0
0
LINE
8
PIPES
10
1766.691824
20
4381.6645
30
0
11
1706.702244
21
4420.6195
31
0
0
LINE
8
PIPES
10
675.508475
20
3751.6695
30
0
11
1766.691824
21
4381.6645
31
0
0
LINE
8
PIPES
10
5040.26785
20
2255.4845
30
0
11
5040.26785
21
2555.1045
31
0
0
LINE
8
PIPES
10
3949.075841
20
2964.2145
30
0
11
3949.075841
21
3263.8345
31
0
0
LINE
8
PIPES
10
2857.883832
20
3672.9345
30
0
11
2857.883832
21
3972.5545
31
0
0
LINE
8
PIPES
10
1766.691824
20
4381.6645
30
0
11
1766.691824
21
4681.2845
31
0
0
LINE
8
PIPES
10
5040.26785
20
2555.1045
30
0
11
6131.459859
21
3185.1045
31
0
0
LINE
8
PIPES
10
5040.26785
20
2255.4845
30
0
11
6131.459859
21
2885.4845
31
0
0
LINE
8
PIPES
10
3949.075841
20
3263.8345
30
0
11
5040.26785
21
3893.8345
31
0
0
LINE
8
PIPES
10
3949.075841
20
2964.2145
30
0
11
5040.26785
21
3594.2145
31
0
0
LINE
8
PIPES
10
2857.883832
20
3972.5545
30
0
11
3949.075841
21
4602.5545
31
0
0
LINE
8
PIPES
10
2857.883832
20
3672.9345
30
0
11
3949.075841
21
4302.9345
31
0
0
LINE
8
PIPES
10
1766.691824
20
4681.2845
30
0
11
2857.883832
21
5311.2845
31
0
0
LINE
8
PIPES
10
1766.691824
20
4381.6645
30
0
11
2857.883832
21
5011.6645
31
0
0
LINE
8
PIPES
10
6131.459859
20
2885.4845
30
0
11
6131.459859
21
3185.1045
31
0
0
LINE
8
PIPES
10
5040.26785
20
3594.2145
30
0
11
5040.26785
21
3893.8345
31
0
0
LINE
8
PIPES
10
3949.075841
20
4302.9345
30
0
11
3949.075841
21
4602.5545
31
0
0
LINE
8
PIPES
10
2857.883832
20
5011.6645
30
0
11
2857.883832
21
5311.2845
31
0
0
LINE
8
PIPES
10
6131.459859
20
3185.1045
30
0
11
6962.844246
21
3665.1045
31
0
0
LINE
8
PIPES
10
6131.459859
20
2885.4845
30
0
11
6962.844246
21
3365.4845
31
0
0
LINE
8
PIPES
10
5040.26785
20
3893.8345
30
0
11
5871.652238
21
4373.8345
31
0
0
LINE
8
PIPES
10
5040.26785
20
3594.2145
30
0
11
5871.652238
21
4074.2145
31
0
0
LINE
8
PIPES
10
3949.075841
20
4602.5545
30
0
11
4780.460229
21
5082.5545
31
0
0
LINE
8
PIPES
10
3949.075841
20
4302.9345
30
0
11
4780.460229
21
4782.9345
31
0
0
LINE
8
PIPES
10
2857.883832
20
5311.2845
30
0
11
3689.26822
21
5791.2845
31
0
0
LINE
8
PIPES
10
2857.883832
20
5011.6645
30
0
11
3689.26822
21
5491.6645
31
0
0
LINE
8
PIPES
10
3689.276014
20
736.39
30
0
11
2857.892493
21
1295.1095
31
0
0
LINE
8
PIPES
10
2857.892493
20
1295.1095
30
0
11
1766.700484
21
2003.8395
31
0
0
LINE
8
PIPES
10
675.508475
20
2712.5595
30
0
11
1766.700484
21
2003.8395
31
0
0
LINE
8
PIPES
10
675.508475
20
2712.5595
30
0
11
-415.683534
21
3421.2895
31
0
0
LINE
8
PIPES
10
-415.683534
20
3421.2895
30
0
11
-1506.875542
21
4130.0095
31
0
0
LINE
8
PIPES
10
3689.276014
20
436.77
30
0
11
2857.892493
21
995.4895
31
0
0
LINE
8
PIPES
10
2857.892493
20
995.4895
30
0
11
1766.700484
21
1704.2195
31
0
0
LINE
8
PIPES
10
1766.700484
20
1704.2195
30
0
11
675.508475
21
2412.9395
31
0
0
LINE
8
PIPES
10
675.508475
20
2412.9395
30
0
11
-415.683534
21
3121.6695
31
0
0
LINE
8
PIPES
10
-415.683534
20
3121.6695
30
0
11
-1506.875542
21
3830.3895
31
0
0
LINE
8
PIPES
10
6962.84338
20
2326.765
30
0
11
6131.459859
21
2885.4845
31
0
0
LINE
8
PIPES
10
6131.459859
20
2885.4845
30
0
11
5040.26785
21
3594.2145
31
0
0
LINE
8
PIPES
10
5040.26785
20
3594.2145
30
0
11
3949.075841
21
4302.9345
31
0
0
LINE
8
PIPES
10
3949.075841
20
4302.9345
30
0
11
2857.883832
21
5011.6645
31
0
0
LINE
8
PIPES
10
2857.883832
20
5011.6645
30
0
11
1766.691824
21
5720.3845
31
0
0
LINE
8
PIPES
10
6962.84338
20
2626.385
30
0
11
6131.459859
21
3185.1045
31
0
0
LINE
8
PIPES
10
6131.459859
20
3185.1045
30
0
11
5040.26785
21
3893.8345
31
0
0
LINE
8
PIPES
10
5040.26785
20
3893.8345
30
0
11
3949.075841
21
4602.5545
31
0
0
LINE
8
PIPES
10
3949.075841
20
4602.5545
30
0
11
2857.883832
21
5311.2845
31
0
0
LINE
8
PIPES
10
2857.883832
20
5311.2845
30
0
11
1766.691824
21
6020.0045
31
0
0
LINE
8
PIPES
10
2598.075345
20
106.385
30
0
11
3689.276014
21
436.77
31
0
0
LINE
8
PIPES
10
3689.276014
20
436.77
30
0
11
4780.468023
21
1366.39
31
0
0
LINE
8
PIPES
10
4780.468023
20
1366.39
30
0
11
5871.651372
21
1696.765
31
0
0
LINE
8
PIPES
10
6962.84338
20
2626.385
30
0
11
5871.651372
21
1696.765
31
0
0
LINE
8
PIPES
10
6962.84338
20
2626.385
30
0
11
7794.227768
21
2806.765
31
0
0
LINE
8
PIPES
10
1766.691824
20
365.4845
30
0
11
2857.892493
21
1295.1095
31
0
0
LINE
8
PIPES
10
6962.844246
20
3665.1045
30
0
11
6131.459859
21
2885.4845
31
0
0
LINE
8
PIPES
10
675.499815
20
1373.8345
30
0
11
1766.700484
21
1704.2195
31
0
0
LINE
8
PIPES
10
1766.700484
20
1704.2195
30
0
11
2857.892493
21
2633.8395
31
0
0
LINE
8
PIPES
10
2857.892493
20
2633.8395
30
0
11
3949.075841
21
2964.2145
31
0
0
LINE
8
PIPES
10
3949.075841
20
2964.2145
30
0
11
5040.26785
21
3893.8345
31
0
0
LINE
8
PIPES
10
5040.26785
20
3893.8345
30
0
11
5871.652238
21
4074.2145
31
0
0
LINE
8
PIPES
10
-415.692194
20
1782.9345
30
0
11
675.508475
21
2712.5595
31
0
0
LINE
8
PIPES
10
675.508475
20
2712.5595
30
0
11
1766.700484
21
3042.9395
31
0
0
LINE
8
PIPES
10
1766.700484
20
3042.9395
30
0
11
2857.883832
21
3972.5545
31
0
0
LINE
8
PIPES
10
2857.883832
20
3972.5545
30
0
11
3949.075841
21
4302.9345
31
0
0
LINE
8
PIPES
10
4780.460229
20
5082.5545
30
0
11
3949.075841
21
4302.9345
31
0
0
LINE
8
PIPES
10
-1506.884203
20
2791.2845
30
0
11
-415.683534
21
3121.6695
31
0
0
LINE
8
PIPES
10
-415.683534
20
3121.6695
30
0
11
675.508475
21
4051.2895
31
0
0
LINE
8
PIPES
10
675.508475
20
4051.2895
30
0
11
1766.691824
21
4381.6645
31
0
0
LINE
8
PIPES
10
1766.691824
20
4381.6645
30
0
11
2857.883832
21
5311.2845
31
0
0
LINE
8
PIPES
10
2857.883832
20
5311.2845
30
0
11
3689.26822
21
5491.6645
31
0
0
LINE
8
PIPES
10
-2598.076211
20
3200.3845
30
0
11
-1506.875542
21
4130.0095
31
0
0
LINE
8
PIPES
10
-1506.875542
20
4130.0095
30
0
11
-415.683534
21
4476.5995
31
0
0
LINE
8
PIPES
10
-415.683534
20
4460.3895
30
0
11
675.499815
21
5390.0045
31
0
0
LINE
8
PIPES
10
675.499815
20
5390.0045
30
0
11
1766.691824
21
5720.3845
31
0
0
LINE
8
PIPES
10
1766.691824
20
5720.3845
30
0
11
2598.076211
21
6500.0045
31
0
0
LINE
8
PIPES
10
3689.276014
20
436.77
30
0
11
2857.892493
21
1295.1095
31
0
0
LINE
8
PIPES
10
2857.892493
20
1295.1095
30
0
11
1766.700484
21
1704.2195
31
0
0
LINE
8
PIPES
10
1766.700484
20
1704.2195
30
0
11
675.508475
21
2712.5595
31
0
0
LINE
8
PIPES
10
675.508475
20
2712.5595
30
0
11
-415.683534
21
3121.6695
31
0
0
LINE
8
PIPES
10
-415.683534
20
3121.6695
30
0
11
-1506.875542
21
4130.0095
31
0
0
LINE
8
PIPES
10
6962.84338
20
2626.385
30
0
11
6131.459859
21
2885.4845
31
0
0
LINE
8
PIPES
10
6131.459859
20
2885.4845
30
0
11
5040.26785
21
3893.8345
31
0
0
LINE
8
PIPES
10
5040.26785
20
3893.8345
30
0
11
3949.075841
21
4302.9345
31
0
0
LINE
8
PIPES
10
3949.075841
20
4302.9345
30
0
11
2857.883832
21
5311.2845
31
0
0
LINE
8
PIPES
10
2857.883832
20
5311.2845
30
0
11
1766.691824
21
5720.3845
31
0
0
LINE
8
PIPES
10
7794.227768
20
2806.765
30
0
11
6962.844246
21
3665.1045
31
0
0
LINE
8
PIPES
10
6962.844246
20
3665.1045
30
0
11
5871.652238
21
4074.2145
31
0
0
LINE
8
PIPES
10
5871.652238
20
4074.2145
30
0
11
4780.460229
21
5082.5545
31
0
0
LINE
8
PIPES
10
4780.460229
20
5082.5545
30
0
11
3689.26822
21
5491.6645
31
0
0
LINE
8
PIPES
10
3689.26822
20
5491.6645
30
0
11
2598.076211
21
6500.0045
31
0
0
LINE
8
PIPES
10
7361.2142
20
601.0595
30
0
11
6962.844246
21
831.0585
31
0
0
LINE
8
PIPES
10
3031.088913
20
3101.0585
30
0
11
2598.076211
21
3351.0585
31
0
0
LINE
8
PIPES
10
7361.2142
20
1050.6755
30
0
11
6962.844246
21
1280.6745
31
0
0
LINE
8
PIPES
10
6928.201498
20
800.6755
30
0
11
7361.2142
21
1050.6755
31
0
0
LINE
8
PIPES
10
3031.088913
20
3550.6745
30
0
11
2598.076211
21
3800.6745
31
0
0
LINE
8
PIPES
10
2598.076211
20
3300.6745
30
0
11
3031.088913
21
3550.6745
31
0
0
LINE
8
PIPES
10
2857.892493
20
1295.1095
30
0
11
3949.084502
21
1625.4895
31
0
0
LINE
8
PIPES
10
3949.084502
20
1625.4895
30
0
11
5040.26785
21
2555.1045
31
0
0
LINE
8
PIPES
10
5040.26785
20
2555.1045
30
0
11
6131.459859
21
2885.4845
31
0
0
LINE
8
PIPES
10
2598.075345
20
106.385
30
0
11
2857.892493
21
1295.1095
31
0
0
LINE
8
PIPES
10
2857.892493
20
1295.1095
30
0
11
675.499815
21
1373.8345
31
0
0
LINE
8
PIPES
10
675.499815
20
1373.8345
30
0
11
675.508475
21
2712.5595
31
0
0
LINE
8
PIPES
10
675.508475
20
2712.5595
30
0
11
-1506.884203
21
2791.2845
31
0
0
LINE
8
PIPES
10
-1506.884203
20
2791.2845
30
0
11
-1506.875542
21
4130.0095
31
0
0
LINE
8
PIPES
10
3689.276014
20
736.39
30
0
11
3949.084502
21
1925.1095
31
0
0
LINE
8
PIPES
10
3949.084502
20
1925.1095
30
0
11
1766.700484
21
2003.8395
31
0
0
LINE
8
PIPES
10
4780.468023
20
1366.39
30
0
11
5040.26785
21
2555.1045
31
0
0
LINE
8
PIPES
10
1766.700484
20
2003.8395
30
0
11
1766.700484
21
3342.5595
31
0
0
LINE
8
PIPES
10
1766.700484
20
3342.5595
30
0
11
-415.683534
21
3421.2895
31
0
0
LINE
8
PIPES
10
-415.683534
20
3421.2895
30
0
11
-415.683534
21
4760.0095
31
0
0
LINE
8
PIPES
10
5040.26785
20
2555.1045
30
0
11
2857.892493
21
2633.8395
31
0
0
LINE
8
PIPES
10
2857.892493
20
2633.8395
30
0
11
2857.883832
21
3972.5545
31
0
0
LINE
8
PIPES
10
2857.883832
20
3972.5545
30
0
11
675.508475
21
4051.2895
31
0
0
LINE
8
PIPES
10
675.508475
20
4051.2895
30
0
11
675.499815
21
5390.0045
31
0
0
LINE
8
PIPES
10
5871.651372
20
1996.385
30
0
11
6131.459859
21
3185.1045
31
0
0
LINE
8
PIPES
10
6131.459859
20
3185.1045
30
0
11
3949.075841
21
3263.8345
31
0
0
LINE
8
PIPES
10
3949.075841
20
3263.8345
30
0
11
3949.075841
21
4602.5545
31
0
0
LINE
8
PIPES
10
3949.075841
20
4602.5545
30
0
11
1766.691824
21
4681.2845
31
0
0
LINE
8
PIPES
10
1766.691824
20
4681.2845
30
0
11
1766.691824
21
6020.0045
31
0
0
LINE
8
PIPES
10
6962.84338
20
2626.385
30
0
11
6962.844246
21
3665.1045
31
0
0
LINE
8
PIPES
10
6962.844246
20
3665.1045
30
0
11
5040.26785
21
3893.8345
31
0
0
LINE
8
PIPES
10
5040.26785
20
3893.8345
30
0
11
4780.460229
21
5082.5545
31
0
0
LINE
8
PIPES
10
4780.460229
20
5082.5545
30
0
11
2857.883832
21
5311.2845
31
0
0
LINE
8
PIPES
10
2857.883832
20
5311.2845
30
0
11
2598.076211
21
6500.0045
31
0
0
LINE
8
PIPES
10
3689.276014
20
436.77
30
0
11
1766.691824
21
365.4845
31
0
0
LINE
8
PIPES
10
1766.691824
20
365.4845
30
0
11
1766.700484
21
1704.2195
31
0
0
LINE
8
PIPES
10
1766.700484
20
1704.2195
30
0
11
-415.692194
21
1782.9345
31
0
0
LINE
8
PIPES
10
-415.692194
20
1782.9345
30
0
11
-415.683534
21
3121.6695
31
0
0
LINE
8
PIPES
10
-415.683534
20
3121.6695
30
0
11
-2598.076211
21
3200.3845
31
0
0
LINE
8
PIPES
10
4780.468023
20
1066.77
30
0
11
2857.892493
21
995.4895
31
0
0
LINE
8
PIPES
10
2857.892493
20
995.4895
30
0
11
2857.892493
21
2334.2195
31
0
0
LINE
8
PIPES
10
2857.892493
20
2334.2195
30
0
11
675.508475
21
2412.9395
31
0
0
LINE
8
PIPES
10
675.508475
20
2412.9395
30
0
11
675.508475
21
3751.6695
31
0
0
LINE
8
PIPES
10
675.508475
20
3751.6695
30
0
11
-1506.875542
21
3830.3895
31
0
0
LINE
8
PIPES
10
5871.651372
20
1696.765
30
0
11
3949.084502
21
1625.4895
31
0
0
LINE
8
PIPES
10
3949.084502
20
1625.4895
30
0
11
3949.075841
21
2964.2145
31
0
0
LINE
8
PIPES
10
3949.075841
20
2964.2145
30
0
11
1766.700484
21
3042.9395
31
0
0
LINE
8
PIPES
10
1766.700484
20
3042.9395
30
0
11
1766.691824
21
4381.6645
31
0
0
LINE
8
PIPES
10
1766.691824
20
4381.6645
30
0
11
-415.683534
21
4460.3895
31
0
0
LINE
8
PIPES
10
6962.84338
20
2326.765
30
0
11
5040.26785
21
2255.4845
31
0
0
LINE
8
PIPES
10
5040.26785
20
2255.4845
30
0
11
5040.26785
21
3594.2145
31
0
0
LINE
8
PIPES
10
5040.26785
20
3594.2145
30
0
11
2857.883832
21
3672.9345
31
0
0
LINE
8
PIPES
10
2857.883832
20
3672.9345
30
0
11
2857.883832
21
5011.6645
31
0
0
LINE
8
PIPES
10
2857.883832
20
5011.6645
30
0
11
675.499815
21
5090.3845
31
0
0
LINE
8
PIPES
10
7794.227768
20
2806.765
30
0
11
6131.459859
21
2885.4845
31
0
0
LINE
8
PIPES
10
6131.459859
20
2885.4845
30
0
11
5871.652238
21
4074.2145
31
0
0
LINE
8
PIPES
10
5871.652238
20
4074.2145
30
0
11
3949.075841
21
4302.9345
31
0
0
LINE
8
PIPES
10
3949.075841
20
4302.9345
30
0
11
3689.26822
21
5491.6645
31
0
0
LINE
8
PIPES
10
3689.26822
20
5491.6645
30
0
11
1766.691824
21
5720.3845
31
0
0
LINE
8
PIPES
10
2165.070438
20
-1949.3195
30
0
11
3256.262446
21
-1319.3195
31
0
0
LINE
8
PIPES
10
2165.070438
20
-1949.3195
30
0
11
2598.075345
21
-2199.325
31
0
0
LINE
8
PIPES
10
-2165.054849
20
550.6795
30
0
11
-1073.86284
21
1180.6795
31
0
0
LINE
8
PIPES
10
-2165.054849
20
550.6795
30
0
11
-2598.076211
21
800.6745
31
0
0
LINE
8
PIPES
10
-2598.076211
20
351.0585
30
0
11
-2165.063509
21
101.0585
31
0
0
LINE
8
PIPES
10
-1506.884203
20
-278.9415
30
0
11
-415.692194
21
-908.9415
31
0
0
LINE
8
PIPES
10
-415.692194
20
-908.9415
30
0
11
675.499815
21
-1538.9415
31
0
0
LINE
8
PIPES
10
675.499815
20
-1538.9415
30
0
11
1766.691824
21
-2168.9415
31
0
0
LINE
8
PIPES
10
1766.691824
20
-2168.9415
30
0
11
2165.061777
21
-2398.9405
31
0
0
LINE
8
PIPES
10
1766.691824
20
-2168.9415
30
0
11
1766.691824
21
-2720.0045
31
0
0
LINE
8
PIPES
10
675.499815
20
-1538.9415
30
0
11
675.499815
21
-2090.0045
31
0
0
LINE
8
PIPES
10
-2598.076211
20
-200.0045
30
0
11
-1506.884203
21
-830.0045
31
0
0
LINE
8
PIPES
10
-1506.884203
20
-830.0045
30
0
11
-415.692194
21
-1460.0045
31
0
0
LINE
8
PIPES
10
-415.692194
20
-1460.0045
30
0
11
675.499815
21
-2090.0045
31
0
0
LINE
8
PIPES
10
675.499815
20
-2090.0045
30
0
11
1766.691824
21
-2720.0045
31
0
0
LINE
8
PIPES
10
1766.691824
20
-2720.0045
30
0
11
2598.075345
21
-3200.004
31
0
0
LINE
8
PIPES
10
2598.075345
20
-3200.004
30
0
11
1766.691824
21
-2168.9415
31
0
0
LINE
8
PIPES
10
1766.691824
20
-2168.9415
30
0
11
675.499815
21
-2090.0045
31
0
0
LINE
8
PIPES
10
675.499815
20
-2090.0045
30
0
11
-415.692194
21
-908.9415
31
0
0
LINE
8
PIPES
10
-415.692194
20
-908.9415
30
0
11
-415.692194
21
-1460.0045
31
0
0
LINE
8
PIPES
10
-415.692194
20
-908.9415
30
0
11
-1506.884203
21
-830.0045
31
0
0
LINE
8
PIPES
10
-1506.884203
20
-830.0045
30
0
11
-2598.076211
21
351.0585
31
0
0
LINE
8
PIPES
10
-1506.884203
20
-278.9415
30
0
11
-1506.884203
21
-830.0045
31
0
0
LINE
8
PIPES
10
1506.883337
20
-3278.941
30
0
11
2598.075345
21
-2648.941
31
0
0
LINE
8
PIPES
10
2598.075345
20
-2648.941
30
0
11
3689.276014
21
-2018.936
31
0
0
LINE
8
PIPES
10
675.499815
20
-2798.9415
30
0
11
1766.691824
21
-2168.9415
31
0
0
LINE
8
PIPES
10
1766.691824
20
-2168.9415
30
0
11
2857.892493
21
-1538.9365
31
0
0
LINE
8
PIPES
10
-415.692194
20
-2168.9415
30
0
11
675.499815
21
-1538.9415
31
0
0
LINE
8
PIPES
10
675.499815
20
-1538.9415
30
0
11
1766.700484
21
-908.9365
31
0
0
LINE
8
PIPES
10
-1506.884203
20
-1538.9415
30
0
11
-415.692194
21
-908.9415
31
0
0
LINE
8
PIPES
10
-415.692194
20
-908.9415
30
0
11
675.508475
21
-278.9365
31
0
0
LINE
8
PIPES
10
-2598.076211
20
-908.9415
30
0
11
-1506.884203
21
-278.9415
31
0
0
LINE
8
PIPES
10
-1506.884203
20
-278.9415
30
0
11
-415.683534
21
351.0635
31
0
0
LINE
8
PIPES
10
-3689.26822
20
-278.9415
30
0
11
-2598.076211
21
351.0585
31
0
0
LINE
8
PIPES
10
-2598.076211
20
351.0585
30
0
11
-1506.875542
21
981.0635
31
0
0
LINE
8
PIPES
10
2165.061777
20
-2398.9405
30
0
11
2598.075345
21
-2648.941
31
0
0
LINE
8
PIPES
10
2165.070438
20
-1949.3195
30
0
11
2165.061777
21
-2398.9405
31
0
0
LINE
8
PIPES
10
-2165.063509
20
101.0585
30
0
11
-1506.884203
21
-278.9415
31
0
0
LINE
8
PIPES
10
-2165.054849
20
550.6795
30
0
11
-2165.063509
21
101.0585
31
0
0
ENDSEC
0
EOF
