0
SECTION
2
HEADER
9
$ACADVER
1
AC1009
9
$INSUNITS
70
4
9
$MEASUREMENT
70
1
9
$LUNITS
70
2
9
$LUPREC
70
1
9
$TILEMODE
70
1
9
$EXTMIN
10
-6855.345773
20
-3491.720773
30
0
9
$EXTMAX
10
6855.345773
20
3491.720773
30
0
9
$PEXTMIN
10
-6855.345773
20
-3491.720773
30
0
9
$PEXTMAX
10
6855.345773
20
3491.720773
30
0
9
$LIMMIN
10
-7355.345773
20
-3991.720773
9
$LIMMAX
10
7355.345773
20
3991.720773
9
$PLIMMIN
10
-7355.345773
20
-3991.720773
9
$PLIMMAX
10
7355.345773
20
3991.720773
0
ENDSEC
0
SECTION
2
TABLES
0
TABLE
2
VPORT
70
1
0
VPORT
2
*ACTIVE
70
0
10
0
20
0
11
1
21
1
12
0
22
0
40
7983.441545
41
1.84265
42
50
43
0
44
0
50
0
51
0
71
0
72
100
73
1
74
3
75
0
76
0
77
0
78
0
0
ENDTAB
0
TABLE
2
LTYPE
70
2
0
LTYPE
2
CONTINUOUS
70
0
3
Solid line
72
65
73
0
40
0
0
LTYPE
2
DASHED
70
0
3
Dashed
72
65
73
2
40
240
49
120
74
0
49
-120
74
0
0
ENDTAB
0
TABLE
2
LAYER
70
6
0
LAYER
2
PIPES
70
0
62
5
6
CONTINUOUS
0
LAYER
2
PIPE_ENDS
70
0
62
5
6
CONTINUOUS
0
LAYER
2
DIMENSION
70
0
62
1
6
CONTINUOUS
0
LAYER
2
LEVEL_GUIDE
70
0
62
1
6
DASHED
0
LAYER
2
LEVEL_TEXT
70
0
62
1
6
CONTINUOUS
0
LAYER
2
FRAME
70
0
62
5
6
CONTINUOUS
0
ENDTAB
0
TABLE
2
STYLE
70
1
0
STYLE
2
STANDARD
70
0
40
0
41
1
50
0
71
0
42
100
3
txt
4

0
ENDTAB
0
ENDSEC
0
SECTION
2
BLOCKS
0
BLOCK
8
0
2
$MODEL_SPACE
70
0
10
0
20
0
30
0
3
$MODEL_SPACE
0
ENDBLK
8
0
0
BLOCK
67
1
8
0
2
$PAPER_SPACE
70
0
10
0
20
0
30
0
3
$PAPER_SPACE
0
ENDBLK
67
1
8
0
0
ENDSEC
0
SECTION
2
ENTITIES
0
LINE
8
PIPES
10
-6791.904227
20
-2571.720773
30
0
11
-5458.574227
21
-2571.720773
31
0
0
LINE
8
PIPES
10
-5458.574227
20
-2571.720773
30
0
11
-4125.234227
21
-2571.720773
31
0
0
LINE
8
PIPES
10
-4125.234227
20
-2571.720773
30
0
11
-2791.904227
21
-2571.720773
31
0
0
LINE
8
PIPES
10
-2791.904227
20
-2571.720773
30
0
11
-1458.574227
21
-2571.720773
31
0
0
LINE
8
PIPES
10
-1458.574227
20
-2571.720773
30
0
11
-125.234227
21
-2571.720773
31
0
0
LINE
8
PIPES
10
-125.234227
20
-2571.720773
30
0
11
1208.095773
21
-2571.720773
31
0
0
LINE
8
PIPES
10
1208.095773
20
-2571.720773
30
0
11
2541.425773
21
-2571.720773
31
0
0
LINE
8
PIPES
10
2541.425773
20
-2571.720773
30
0
11
3874.795773
21
-2571.720773
31
0
0
LINE
8
PIPES
10
3874.795773
20
-2571.720773
30
0
11
5208.095773
21
-2571.720773
31
0
0
LINE
8
PIPES
10
-6791.904227
20
-571.720773
30
0
11
-5458.574227
21
-571.720773
31
0
0
LINE
8
PIPES
10
-5458.574227
20
-571.720773
30
0
11
-4125.234227
21
-571.720773
31
0
0
LINE
8
PIPES
10
-4125.234227
20
-571.720773
30
0
11
-2791.904227
21
-571.720773
31
0
0
LINE
8
PIPES
10
-2791.904227
20
-571.720773
30
0
11
-1458.574227
21
-571.720773
31
0
0
LINE
8
PIPES
10
-1458.574227
20
-571.720773
30
0
11
-125.234227
21
-571.720773
31
0
0
LINE
8
PIPES
10
-125.234227
20
-571.720773
30
0
11
1208.095773
21
-571.720773
31
0
0
LINE
8
PIPES
10
1208.095773
20
-571.720773
30
0
11
2541.425773
21
-571.720773
31
0
0
LINE
8
PIPES
10
2541.425773
20
-571.720773
30
0
11
3874.795773
21
-571.720773
31
0
0
LINE
8
PIPES
10
3874.795773
20
-571.720773
30
0
11
5208.095773
21
-571.720773
31
0
0
LINE
8
PIPES
10
-6791.904227
20
1428.279227
30
0
11
-5458.574227
21
1428.279227
31
0
0
LINE
8
PIPES
10
-5458.574227
20
1428.279227
30
0
11
-4125.234227
21
1428.279227
31
0
0
LINE
8
PIPES
10
-4125.234227
20
1428.279227
30
0
11
-2791.904227
21
1428.279227
31
0
0
LINE
8
PIPES
10
-2791.904227
20
1428.279227
30
0
11
-1458.574227
21
1428.279227
31
0
0
LINE
8
PIPES
10
-1458.574227
20
1428.279227
30
0
11
-125.234227
21
1428.279227
31
0
0
LINE
8
PIPES
10
-125.234227
20
1428.279227
30
0
11
1208.095773
21
1428.279227
31
0
0
LINE
8
PIPES
10
1208.095773
20
1428.279227
30
0
11
2541.425773
21
1428.279227
31
0
0
LINE
8
PIPES
10
2541.425773
20
1428.279227
30
0
11
3874.795773
21
1428.279227
31
0
0
LINE
8
PIPES
10
3874.795773
20
1428.279227
30
0
11
5208.095773
21
1428.279227
31
0
0
LINE
8
PIPES
10
-6791.904227
20
3428.279227
30
0
11
-5458.574227
21
3428.279227
31
0
0
LINE
8
PIPES
10
-5458.574227
20
3428.279227
30
0
11
-4125.234227
21
3428.279227
31
0
0
LINE
8
PIPES
10
-4125.234227
20
3428.279227
30
0
11
-2791.904227
21
3428.279227
31
0
0
LINE
8
PIPES
10
-2791.904227
20
3428.279227
30
0
11
-1458.574227
21
3428.279227
31
0
0
LINE
8
PIPES
10
-1458.574227
20
3428.279227
30
0
11
-125.234227
21
3428.279227
31
0
0
LINE
8
PIPES
10
-125.234227
20
3428.279227
30
0
11
1208.095773
21
3428.279227
31
0
0
LINE
8
PIPES
10
1208.095773
20
3428.279227
30
0
11
2541.425773
21
3428.279227
31
0
0
LINE
8
PIPES
10
2541.425773
20
3428.279227
30
0
11
3874.795773
21
3428.279227
31
0
0
LINE
8
PIPES
10
3874.795773
20
3428.279227
30
0
11
5208.095773
21
3428.279227
31
0
0
LINE
8
PIPES
10
-6791.904227
20
-2571.720773
30
0
11
-6791.904227
21
-571.720773
31
0
0
LINE
8
PIPES
10
-6791.904227
20
-571.720773
30
0
11
-6791.904227
21
1428.279227
31
0
0
LINE
8
PIPES
10
-6791.904227
20
1428.279227
30
0
11
-6791.904227
21
3428.279227
31
0
0
LINE
8
PIPES
10
-5458.574227
20
-2571.720773
30
0
11
-5458.574227
21
-571.720773
31
0
0
LINE
8
PIPES
10
-5458.574227
20
-571.720773
30
0
11
-5458.574227
21
1428.279227
31
0
0
LINE
8
PIPES
10
-5458.574227
20
1428.279227
30
0
11
-5458.574227
21
3428.279227
31
0
0
LINE
8
PIPES
10
-4125.234227
20
-2571.720773
30
0
11
-4125.234227
21
-571.720773
31
0
0
LINE
8
PIPES
10
-4125.234227
20
-571.720773
30
0
11
-4125.234227
21
1428.279227
31
0
0
LINE
8
PIPES
10
-4125.234227
20
1428.279227
30
0
11
-4125.234227
21
3428.279227
31
0
0
LINE
8
PIPES
10
-2791.904227
20
-2571.720773
30
0
11
-2791.904227
21
-571.720773
31
0
0
LINE
8
PIPES
10
-2791.904227
20
-571.720773
30
0
11
-2791.904227
21
1428.279227
31
0
0
LINE
8
PIPES
10
-2791.904227
20
1428.279227
30
0
11
-2791.904227
21
3428.279227
31
0
0
LINE
8
PIPES
10
-1458.574227
20
-2571.720773
30
0
11
-1458.574227
21
-571.720773
31
0
0
LINE
8
PIPES
10
-1458.574227
20
-571.720773
30
0
11
-1458.574227
21
1428.279227
31
0
0
LINE
8
PIPES
10
-1458.574227
20
1428.279227
30
0
11
-1458.574227
21
3428.279227
31
0
0
LINE
8
PIPES
10
-125.234227
20
-2571.720773
30
0
11
-125.234227
21
-571.720773
31
0
0
LINE
8
PIPES
10
-125.234227
20
-571.720773
30
0
11
-125.234227
21
1428.279227
31
0
0
LINE
8
PIPES
10
-125.234227
20
1428.279227
30
0
11
-125.234227
21
3428.279227
31
0
0
LINE
8
PIPES
10
1208.095773
20
-2571.720773
30
0
11
1208.095773
21
-571.720773
31
0
0
LINE
8
PIPES
10
1208.095773
20
-571.720773
30
0
11
1208.095773
21
1428.279227
31
0
0
LINE
8
PIPES
10
1208.095773
20
1428.279227
30
0
11
1208.095773
21
3428.279227
31
0
0
LINE
8
PIPES
10
2541.425773
20
-2571.720773
30
0
11
2541.425773
21
-571.720773
31
0
0
LINE
8
PIPES
10
2541.425773
20
-571.720773
30
0
11
2541.425773
21
1428.279227
31
0
0
LINE
8
PIPES
10
2541.425773
20
1428.279227
30
0
11
2541.425773
21
3428.279227
31
0
0
LINE
8
PIPES
10
3874.795773
20
-2571.720773
30
0
11
3874.795773
21
-571.720773
31
0
0
LINE
8
PIPES
10
3874.795773
20
-571.720773
30
0
11
3874.795773
21
1428.279227
31
0
0
LINE
8
PIPES
10
3874.795773
20
1428.279227
30
0
11
3874.795773
21
3428.279227
31
0
0
LINE
8
PIPES
10
5208.095773
20
-2571.720773
30
0
11
5208.095773
21
-571.720773
31
0
0
LINE
8
PIPES
10
5208.095773
20
1428.279227
30
0
11
5208.095773
21
-571.720773
31
0
0
LINE
8
PIPES
10
5208.095773
20
1428.279227
30
0
11
5208.095773
21
3428.279227
31
0
0
LINE
8
PIPES
10
-6791.904227
20
-2571.720773
30
0
11
-6291.903227
21
-2571.720773
31
0
0
LINE
8
PIPES
10
3874.795773
20
-2571.720773
30
0
11
4708.095773
21
-2571.720773
31
0
0
LINE
8
PIPES
10
-6291.903227
20
3428.279227
30
0
11
-6791.904227
21
3428.279227
31
0
0
LINE
8
PIPES
10
4708.095773
20
3428.279227
30
0
11
3874.795773
21
3428.279227
31
0
0
LINE
8
PIPES
10
-6791.904227
20
-2571.720773
30
0
11
-6791.904227
21
-2071.719773
31
0
0
LINE
8
PIPES
10
-6791.904227
20
1428.279227
30
0
11
-6791.904227
21
2928.279227
31
0
0
LINE
8
PIPES
10
5208.095773
20
-2571.720773
30
0
11
5208.095773
21
-2071.719773
31
0
0
LINE
8
PIPES
10
5208.095773
20
1428.279227
30
0
11
5208.095773
21
2928.279227
31
0
0
LINE
8
PIPES
10
-6791.904227
20
-571.720773
30
0
11
-6291.903227
21
-571.720773
31
0
0
LINE
8
PIPES
10
-6291.903227
20
-571.720773
30
0
11
-5458.574227
21
-571.720773
31
0
0
LINE
8
PIPES
10
3874.795773
20
-571.720773
30
0
11
4708.095773
21
-571.720773
31
0
0
LINE
8
PIPES
10
5208.095773
20
-571.720773
30
0
11
4708.095773
21
-571.720773
31
0
0
LINE
8
PIPES
10
-6791.904227
20
1428.279227
30
0
11
-6291.903227
21
1428.279227
31
0
0
LINE
8
PIPES
10
-6291.903227
20
1428.279227
30
0
11
-5458.574227
21
1428.279227
31
0
0
LINE
8
PIPES
10
3874.795773
20
1428.279227
30
0
11
4708.095773
21
1428.279227
31
0
0
LINE
8
PIPES
10
5208.095773
20
1428.279227
30
0
11
4708.095773
21
1428.279227
31
0
0
LINE
8
PIPES
10
-5458.574227
20
-2571.720773
30
0
11
-5458.574227
21
-2071.719773
31
0
0
LINE
8
PIPES
10
-5458.574227
20
3428.279227
30
0
11
-5458.574227
21
2928.279227
31
0
0
LINE
8
PIPES
10
-5458.574227
20
-2071.719773
30
0
11
-5458.574227
21
-571.720773
31
0
0
LINE
8
PIPES
10
-5458.574227
20
2928.279227
30
0
11
-5458.574227
21
1428.279227
31
0
0
LINE
8
PIPES
10
-4125.234227
20
-2571.720773
30
0
11
-4125.234227
21
-2071.719773
31
0
0
LINE
8
PIPES
10
-4125.234227
20
3428.279227
30
0
11
-4125.234227
21
2928.279227
31
0
0
LINE
8
PIPES
10
-4125.234227
20
-2071.719773
30
0
11
-4125.234227
21
-571.720773
31
0
0
LINE
8
PIPES
10
-4125.234227
20
2928.279227
30
0
11
-4125.234227
21
1428.279227
31
0
0
LINE
8
PIPES
10
-2791.904227
20
-2571.720773
30
0
11
-2791.904227
21
-2071.719773
31
0
0
LINE
8
PIPES
10
-2791.904227
20
3428.279227
30
0
11
-2791.904227
21
2928.279227
31
0
0
LINE
8
PIPES
10
-2791.904227
20
-2071.719773
30
0
11
-2791.904227
21
-571.720773
31
0
0
LINE
8
PIPES
10
-2791.904227
20
2928.279227
30
0
11
-2791.904227
21
1428.279227
31
0
0
LINE
8
PIPES
10
1208.095773
20
-2571.720773
30
0
11
1208.095773
21
-2071.719773
31
0
0
LINE
8
PIPES
10
1208.095773
20
3428.279227
30
0
11
1208.095773
21
2928.279227
31
0
0
LINE
8
PIPES
10
1208.095773
20
-2071.719773
30
0
11
1208.095773
21
-571.720773
31
0
0
LINE
8
PIPES
10
1208.095773
20
2928.279227
30
0
11
1208.095773
21
1428.279227
31
0
0
LINE
8
PIPES
10
2541.425773
20
-2571.720773
30
0
11
2541.425773
21
-2071.719773
31
0
0
LINE
8
PIPES
10
2541.425773
20
3428.279227
30
0
11
2541.425773
21
2928.279227
31
0
0
LINE
8
PIPES
10
2541.425773
20
-2071.719773
30
0
11
2541.425773
21
-571.720773
31
0
0
LINE
8
PIPES
10
2541.425773
20
2928.279227
30
0
11
2541.425773
21
1428.279227
31
0
0
LINE
8
PIPES
10
3874.795773
20
-2571.720773
30
0
11
3874.795773
21
-2071.719773
31
0
0
LINE
8
PIPES
10
3874.795773
20
3428.279227
30
0
11
3874.795773
21
2928.279227
31
0
0
LINE
8
PIPES
10
3874.795773
20
-2071.719773
30
0
11
3874.795773
21
-571.720773
31
0
0
LINE
8
PIPES
10
3874.795773
20
2928.279227
30
0
11
3874.795773
21
1428.279227
31
0
0
LINE
8
PIPES
10
-1458.574227
20
-2571.720773
30
0
11
-1458.574227
21
-2071.719773
31
0
0
LINE
8
PIPES
10
-1458.574227
20
3428.279227
30
0
11
-1458.574227
21
2928.279227
31
0
0
LINE
8
PIPES
10
-1458.574227
20
-2071.719773
30
0
11
-1458.574227
21
-571.720773
31
0
0
LINE
8
PIPES
10
-1458.574227
20
2928.279227
30
0
11
-1458.574227
21
1428.279227
31
0
0
LINE
8
PIPES
10
-125.234227
20
-2571.720773
30
0
11
-125.234227
21
-2071.719773
31
0
0
LINE
8
PIPES
10
-125.234227
20
3428.279227
30
0
11
-125.234227
21
2928.279227
31
0
0
LINE
8
PIPES
10
-125.234227
20
-2071.719773
30
0
11
-125.234227
21
-571.720773
31
0
0
LINE
8
PIPES
10
-125.234227
20
2928.279227
30
0
11
-125.234227
21
1428.279227
31
0
0
LINE
8
PIPES
10
-6291.903227
20
-2571.720773
30
0
11
-6291.903227
21
-2071.719773
31
0
0
LINE
8
PIPES
10
-6291.903227
20
-2071.719773
30
0
11
-6291.903227
21
-571.720773
31
0
0
LINE
8
PIPES
10
-6291.903227
20
-571.720773
30
0
11
-6291.903227
21
1428.279227
31
0
0
LINE
8
PIPES
10
-6291.903227
20
1428.279227
30
0
11
-6291.903227
21
2928.279227
31
0
0
LINE
8
PIPES
10
-6291.903227
20
2928.279227
30
0
11
-6291.903227
21
3428.279227
31
0
0
LINE
8
PIPES
10
4708.095773
20
-2571.720773
30
0
11
4708.095773
21
-2071.719773
31
0
0
LINE
8
PIPES
10
4708.095773
20
-2071.719773
30
0
11
4708.095773
21
-571.720773
31
0
0
LINE
8
PIPES
10
4708.095773
20
-571.720773
30
0
11
4708.095773
21
1428.279227
31
0
0
LINE
8
PIPES
10
4708.095773
20
1428.279227
30
0
11
4708.095773
21
2928.279227
31
0
0
LINE
8
PIPES
10
4708.095773
20
2928.279227
30
0
11
4708.095773
21
3428.279227
31
0
0
LINE
8
PIPES
10
-6291.903227
20
-2071.719773
30
0
11
-5458.574227
21
-2071.719773
31
0
0
LINE
8
PIPES
10
-5458.574227
20
-2071.719773
30
0
11
-4125.234227
21
-2071.719773
31
0
0
LINE
8
PIPES
10
-4125.234227
20
-2071.719773
30
0
11
-2791.904227
21
-2071.719773
31
0
0
LINE
8
PIPES
10
-2791.904227
20
-2071.719773
30
0
11
-1458.574227
21
-2071.719773
31
0
0
LINE
8
PIPES
10
-1458.574227
20
-2071.719773
30
0
11
-125.234227
21
-2071.719773
31
0
0
LINE
8
PIPES
10
-125.234227
20
-2071.719773
30
0
11
1208.095773
21
-2071.719773
31
0
0
LINE
8
PIPES
10
1208.095773
20
-2071.719773
30
0
11
2541.425773
21
-2071.719773
31
0
0
LINE
8
PIPES
10
2541.425773
20
-2071.719773
30
0
11
3874.795773
21
-2071.719773
31
0
0
LINE
8
PIPES
10
3874.795773
20
-2071.719773
30
0
11
4708.095773
21
-2071.719773
31
0
0
LINE
8
PIPES
10
-6291.903227
20
2928.279227
30
0
11
-5458.574227
21
2928.279227
31
0
0
LINE
8
PIPES
10
-5458.574227
20
2928.279227
30
0
11
-4125.234227
21
2928.279227
31
0
0
LINE
8
PIPES
10
-4125.234227
20
2928.279227
30
0
11
-2791.904227
21
2928.279227
31
0
0
LINE
8
PIPES
10
-2791.904227
20
2928.279227
30
0
11
-1458.574227
21
2928.279227
31
0
0
LINE
8
PIPES
10
-1458.574227
20
2928.279227
30
0
11
-125.234227
21
2928.279227
31
0
0
LINE
8
PIPES
10
-125.234227
20
2928.279227
30
0
11
1208.095773
21
2928.279227
31
0
0
LINE
8
PIPES
10
1208.095773
20
2928.279227
30
0
11
2541.425773
21
2928.279227
31
0
0
LINE
8
PIPES
10
2541.425773
20
2928.279227
30
0
11
3874.795773
21
2928.279227
31
0
0
LINE
8
PIPES
10
3874.795773
20
2928.279227
30
0
11
4708.095773
21
2928.279227
31
0
0
LINE
8
PIPES
10
-6291.903227
20
-2571.720773
30
0
11
-5458.574227
21
-2571.720773
31
0
0
LINE
8
PIPES
10
4708.095773
20
-2571.720773
30
0
11
5208.095773
21
-2571.720773
31
0
0
LINE
8
PIPES
10
4708.095773
20
3428.279227
30
0
11
5208.095773
21
3428.279227
31
0
0
LINE
8
PIPES
10
-6291.903227
20
3428.279227
30
0
11
-5458.574227
21
3428.279227
31
0
0
LINE
8
PIPES
10
-1458.574227
20
-2571.720773
30
0
11
-1458.574227
21
-2227.678773
31
0
0
LINE
8
PIPES
10
-1458.574227
20
-2227.678773
30
0
11
-1458.574227
21
-1929.996773
31
0
0
LINE
8
PIPES
10
-1458.574227
20
-1929.996773
30
0
11
-1458.574227
21
-1632.314773
31
0
0
LINE
8
PIPES
10
-1458.574227
20
-1632.314773
30
0
11
-1458.574227
21
-1334.630773
31
0
0
LINE
8
PIPES
10
-1458.574227
20
-1334.630773
30
0
11
-1458.574227
21
-1036.950773
31
0
0
LINE
8
PIPES
10
-1458.574227
20
-1036.950773
30
0
11
-1458.574227
21
-739.270773
31
0
0
LINE
8
PIPES
10
-1458.574227
20
-739.270773
30
0
11
-1458.574227
21
-441.590773
31
0
0
LINE
8
PIPES
10
-1458.574227
20
-441.590773
30
0
11
-1458.574227
21
-143.900773
31
0
0
LINE
8
PIPES
10
-1458.574227
20
-143.900773
30
0
11
-1458.574227
21
153.779227
31
0
0
LINE
8
PIPES
10
-1458.574227
20
153.779227
30
0
11
-1458.574227
21
451.459227
31
0
0
LINE
8
PIPES
10
-1458.574227
20
451.459227
30
0
11
-1458.574227
21
749.139227
31
0
0
LINE
8
PIPES
10
-1458.574227
20
749.139227
30
0
11
-1458.574227
21
1046.819227
31
0
0
LINE
8
PIPES
10
-1458.574227
20
1046.819227
30
0
11
-1458.574227
21
1344.509227
31
0
0
LINE
8
PIPES
10
-1458.574227
20
1344.509227
30
0
11
-1458.574227
21
1642.189227
31
0
0
LINE
8
PIPES
10
-1458.574227
20
1642.189227
30
0
11
-1458.574227
21
1939.869227
31
0
0
LINE
8
PIPES
10
-1458.574227
20
1939.869227
30
0
11
-1458.574227
21
2237.549227
31
0
0
LINE
8
PIPES
10
-1458.574227
20
2237.549227
30
0
11
-1458.574227
21
2535.229227
31
0
0
LINE
8
PIPES
10
-1458.574227
20
2535.229227
30
0
11
-1458.574227
21
2832.919227
31
0
0
LINE
8
PIPES
10
-1458.574227
20
2832.919227
30
0
11
-1458.574227
21
3130.599227
31
0
0
LINE
8
PIPES
10
-1458.574227
20
3130.599227
30
0
11
-1458.574227
21
3428.279227
31
0
0
LINE
8
PIPES
10
-125.234227
20
-2571.720773
30
0
11
-125.234227
21
-2227.678773
31
0
0
LINE
8
PIPES
10
-125.234227
20
-2227.678773
30
0
11
-125.234227
21
-1929.996773
31
0
0
LINE
8
PIPES
10
-125.234227
20
-1929.996773
30
0
11
-125.234227
21
-1632.314773
31
0
0
LINE
8
PIPES
10
-125.234227
20
-1632.314773
30
0
11
-125.234227
21
-1334.630773
31
0
0
LINE
8
PIPES
10
-125.234227
20
-1334.630773
30
0
11
-125.234227
21
-1036.950773
31
0
0
LINE
8
PIPES
10
-125.234227
20
-1036.950773
30
0
11
-125.234227
21
-739.270773
31
0
0
LINE
8
PIPES
10
-125.234227
20
-739.270773
30
0
11
-125.234227
21
-441.590773
31
0
0
LINE
8
PIPES
10
-125.234227
20
-441.590773
30
0
11
-125.234227
21
-143.900773
31
0
0
LINE
8
PIPES
10
-125.234227
20
-143.900773
30
0
11
-125.234227
21
153.779227
31
0
0
LINE
8
PIPES
10
-125.234227
20
153.779227
30
0
11
-125.234227
21
451.459227
31
0
0
LINE
8
PIPES
10
-125.234227
20
451.459227
30
0
11
-125.234227
21
749.139227
31
0
0
LINE
8
PIPES
10
-125.234227
20
749.139227
30
0
11
-125.234227
21
1046.819227
31
0
0
LINE
8
PIPES
10
-125.234227
20
1046.819227
30
0
11
-125.234227
21
1344.509227
31
0
0
LINE
8
PIPES
10
-125.234227
20
1344.509227
30
0
11
-125.234227
21
1642.189227
31
0
0
LINE
8
PIPES
10
-125.234227
20
1642.189227
30
0
11
-125.234227
21
1939.869227
31
0
0
LINE
8
PIPES
10
-125.234227
20
1939.869227
30
0
11
-125.234227
21
2237.549227
31
0
0
LINE
8
PIPES
10
-125.234227
20
2237.549227
30
0
11
-125.234227
21
2535.229227
31
0
0
LINE
8
PIPES
10
-125.234227
20
2535.229227
30
0
11
-125.234227
21
2832.919227
31
0
0
LINE
8
PIPES
10
-125.234227
20
2832.919227
30
0
11
-125.234227
21
3130.599227
31
0
0
LINE
8
PIPES
10
-125.234227
20
3130.599227
30
0
11
-125.234227
21
3428.279227
31
0
0
LINE
8
PIPES
10
-4125.234227
20
-2571.720773
30
0
11
-4125.234227
21
-2286.006773
31
0
0
LINE
8
PIPES
10
-6791.904227
20
-2286.006773
30
0
11
-6791.904227
21
-2571.720773
31
0
0
LINE
8
PIPES
10
-6791.904227
20
3142.569227
30
0
11
-6791.904227
21
3428.279227
31
0
0
LINE
8
PIPES
10
5208.095773
20
3428.279227
30
0
11
5208.095773
21
3142.569227
31
0
0
LINE
8
PIPES
10
5208.095773
20
-571.720773
30
0
11
5208.095773
21
-857.430773
31
0
0
LINE
8
PIPES
10
5208.095773
20
1428.279227
30
0
11
5208.095773
21
1142.569227
31
0
0
LINE
8
PIPES
10
-6791.904227
20
-286.010773
30
0
11
-6791.904227
21
-571.720773
31
0
0
LINE
8
PIPES
10
-6791.904227
20
1713.989227
30
0
11
-6791.904227
21
1428.279227
31
0
0
LINE
8
PIPES
10
-6791.904227
20
-857.430773
30
0
11
-6791.904227
21
-571.720773
31
0
0
LINE
8
PIPES
10
-6791.904227
20
1142.569227
30
0
11
-6791.904227
21
1428.279227
31
0
0
LINE
8
PIPES
10
-4125.234227
20
-571.720773
30
0
11
-4125.234227
21
-286.010773
31
0
0
LINE
8
PIPES
10
-4125.234227
20
1428.279227
30
0
11
-4125.234227
21
1713.989227
31
0
0
LINE
8
PIPES
10
-2791.904227
20
-571.720773
30
0
11
-1459.894227
21
-571.720773
31
0
0
LINE
8
PIPES
10
-2791.904227
20
1428.279227
30
0
11
-1459.894227
21
1428.279227
31
0
0
LINE
8
PIPES
10
-1459.894227
20
-571.720773
30
0
11
-126.894227
21
-571.720773
31
0
0
LINE
8
PIPES
10
-1459.894227
20
1428.279227
30
0
11
-126.894227
21
1428.279227
31
0
0
LINE
8
PIPES
10
-126.894227
20
-571.720773
30
0
11
1206.115773
21
-571.720773
31
0
0
LINE
8
PIPES
10
-126.894227
20
1428.279227
30
0
11
1206.115773
21
1428.279227
31
0
0
LINE
8
PIPES
10
1206.115773
20
-571.720773
30
0
11
2539.115773
21
-571.720773
31
0
0
LINE
8
PIPES
10
1206.115773
20
1428.279227
30
0
11
2539.115773
21
1428.279227
31
0
0
LINE
8
PIPES
10
2539.115773
20
-571.720773
30
0
11
3872.095773
21
-571.720773
31
0
0
LINE
8
PIPES
10
2539.115773
20
1428.279227
30
0
11
3872.095773
21
1428.279227
31
0
0
LINE
8
PIPES
10
3872.095773
20
-571.720773
30
0
11
5205.095773
21
-571.720773
31
0
0
LINE
8
PIPES
10
3872.095773
20
1428.279227
30
0
11
5205.095773
21
1428.279227
31
0
0
LINE
8
PIPES
10
-6791.904227
20
-2071.719773
30
0
11
-6791.904227
21
-571.720773
31
0
0
LINE
8
PIPES
10
-6291.903227
20
-2071.719773
30
0
11
-6791.904227
21
-2071.719773
31
0
0
LINE
8
PIPES
10
-6791.904227
20
2928.279227
30
0
11
-6791.904227
21
3428.279227
31
0
0
LINE
8
PIPES
10
-6291.903227
20
2928.279227
30
0
11
-6791.904227
21
2928.279227
31
0
0
LINE
8
PIPES
10
5208.095773
20
-2071.719773
30
0
11
5208.095773
21
-571.720773
31
0
0
LINE
8
PIPES
10
4708.095773
20
-2071.719773
30
0
11
5208.095773
21
-2071.719773
31
0
0
LINE
8
PIPES
10
5208.095773
20
2928.279227
30
0
11
5208.095773
21
3428.279227
31
0
0
LINE
8
PIPES
10
4708.095773
20
2928.279227
30
0
11
5208.095773
21
2928.279227
31
0
0
LINE
8
PIPES
10
2541.425773
20
-2571.720773
30
0
11
2541.095773
21
-2286.006773
31
0
0
LINE
8
PIPES
10
2539.115773
20
-571.720773
30
0
11
2539.115773
21
-286.010773
31
0
0
LINE
8
PIPES
10
2539.115773
20
1428.279227
30
0
11
2539.445773
21
1713.989227
31
0
0
LINE
8
PIPES
10
3874.795773
20
-2571.720773
30
0
11
3872.095773
21
-571.720773
31
0
0
LINE
8
PIPES
10
3872.095773
20
-571.720773
30
0
11
3872.095773
21
1428.279227
31
0
0
LINE
8
PIPES
10
3872.095773
20
1428.279227
30
0
11
3874.795773
21
3428.279227
31
0
0
LINE
8
PIPES
10
1208.095773
20
-2571.720773
30
0
11
1206.115773
21
-571.720773
31
0
0
LINE
8
PIPES
10
1206.115773
20
-571.720773
30
0
11
1206.115773
21
1428.279227
31
0
0
LINE
8
PIPES
10
1206.115773
20
1428.279227
30
0
11
1208.095773
21
3428.279227
31
0
0
LINE
8
PIPES
10
-5458.574227
20
-2571.720773
30
0
11
-6791.904227
21
-571.720773
31
0
0
LINE
8
PIPES
10
-6791.904227
20
-571.720773
30
0
11
-5458.574227
21
1428.279227
31
0
0
LINE
8
PIPES
10
-5458.574227
20
1428.279227
30
0
11
-6791.904227
21
3428.279227
31
0
0
LINE
8
PIPES
10
-5458.574227
20
-2571.720773
30
0
11
-4125.234227
21
-571.720773
31
0
0
LINE
8
PIPES
10
-4125.234227
20
-571.720773
30
0
11
-5458.574227
21
1428.279227
31
0
0
LINE
8
PIPES
10
-5458.574227
20
1428.279227
30
0
11
-4125.234227
21
3428.279227
31
0
0
LINE
8
PIPES
10
-4125.234227
20
3428.279227
30
0
11
-2791.904227
21
1428.279227
31
0
0
LINE
8
PIPES
10
-2791.904227
20
1428.279227
30
0
11
-4125.234227
21
-571.720773
31
0
0
LINE
8
PIPES
10
-4125.234227
20
-571.720773
30
0
11
-2791.904227
21
-2571.720773
31
0
0
LINE
8
PIPES
10
-2791.904227
20
-2571.720773
30
0
11
-1459.894227
21
-571.720773
31
0
0
LINE
8
PIPES
10
-1459.894227
20
-571.720773
30
0
11
-2791.904227
21
1428.279227
31
0
0
LINE
8
PIPES
10
-2791.904227
20
1428.279227
30
0
11
-1458.574227
21
3428.279227
31
0
0
LINE
8
PIPES
10
-1458.574227
20
3428.279227
30
0
11
-126.894227
21
1428.279227
31
0
0
LINE
8
PIPES
10
-126.894227
20
1428.279227
30
0
11
-1459.894227
21
-571.720773
31
0
0
LINE
8
PIPES
10
-1459.894227
20
-571.720773
30
0
11
-125.234227
21
-2571.720773
31
0
0
LINE
8
PIPES
10
-125.234227
20
-2571.720773
30
0
11
1206.115773
21
-571.720773
31
0
0
LINE
8
PIPES
10
1206.115773
20
-571.720773
30
0
11
-126.894227
21
1428.279227
31
0
0
LINE
8
PIPES
10
-126.894227
20
1428.279227
30
0
11
1208.095773
21
3428.279227
31
0
0
LINE
8
PIPES
10
1208.095773
20
3428.279227
30
0
11
2539.115773
21
1428.279227
31
0
0
LINE
8
PIPES
10
2539.115773
20
1428.279227
30
0
11
1206.115773
21
-571.720773
31
0
0
LINE
8
PIPES
10
1206.115773
20
-571.720773
30
0
11
2541.425773
21
-2571.720773
31
0
0
LINE
8
PIPES
10
2541.425773
20
-2571.720773
30
0
11
3872.095773
21
-571.720773
31
0
0
LINE
8
PIPES
10
3872.095773
20
-571.720773
30
0
11
2539.115773
21
1428.279227
31
0
0
LINE
8
PIPES
10
2539.115773
20
1428.279227
30
0
11
3874.795773
21
3428.279227
31
0
0
LINE
8
PIPES
10
3874.795773
20
3428.279227
30
0
11
5205.095773
21
1428.279227
31
0
0
LINE
8
PIPES
10
5205.095773
20
1428.279227
30
0
11
3872.095773
21
-571.720773
31
0
0
LINE
8
PIPES
10
3872.095773
20
-571.720773
30
0
11
5208.095773
21
-2571.720773
31
0
0
LINE
8
PIPES
10
-6791.904227
20
-2571.720773
30
0
11
-5458.574227
21
-571.720773
31
0
0
LINE
8
PIPES
10
-5458.574227
20
-571.720773
30
0
11
-6791.904227
21
1428.279227
31
0
0
LINE
8
PIPES
10
-6791.904227
20
1428.279227
30
0
11
-5458.574227
21
3428.279227
31
0
0
LINE
8
PIPES
10
-5458.574227
20
3428.279227
30
0
11
-4125.234227
21
1428.279227
31
0
0
LINE
8
PIPES
10
-4125.234227
20
1428.279227
30
0
11
-5458.574227
21
-571.720773
31
0
0
LINE
8
PIPES
10
-5458.574227
20
-571.720773
30
0
11
-4125.234227
21
-2571.720773
31
0
0
LINE
8
PIPES
10
-4125.234227
20
-2571.720773
30
0
11
-2791.904227
21
-571.720773
31
0
0
LINE
8
PIPES
10
-2791.904227
20
-571.720773
30
0
11
-4125.234227
21
1428.279227
31
0
0
LINE
8
PIPES
10
-4125.234227
20
1428.279227
30
0
11
-2791.904227
21
3428.279227
31
0
0
LINE
8
PIPES
10
-2791.904227
20
3428.279227
30
0
11
-1459.894227
21
1428.279227
31
0
0
LINE
8
PIPES
10
-1459.894227
20
1428.279227
30
0
11
-2791.904227
21
-571.720773
31
0
0
LINE
8
PIPES
10
-2791.904227
20
-571.720773
30
0
11
-1458.574227
21
-2571.720773
31
0
0
LINE
8
PIPES
10
-1458.574227
20
-2571.720773
30
0
11
-126.894227
21
-571.720773
31
0
0
LINE
8
PIPES
10
-126.894227
20
-571.720773
30
0
11
-1459.894227
21
1428.279227
31
0
0
LINE
8
PIPES
10
-1459.894227
20
1428.279227
30
0
11
-125.234227
21
3428.279227
31
0
0
LINE
8
PIPES
10
-125.234227
20
3428.279227
30
0
11
1206.115773
21
1428.279227
31
0
0
LINE
8
PIPES
10
1206.115773
20
1428.279227
30
0
11
-126.894227
21
-571.720773
31
0
0
LINE
8
PIPES
10
-126.894227
20
-571.720773
30
0
11
1208.095773
21
-2571.720773
31
0
0
LINE
8
PIPES
10
1208.095773
20
-2571.720773
30
0
11
2539.115773
21
-571.720773
31
0
0
LINE
8
PIPES
10
2539.115773
20
-571.720773
30
0
11
1206.115773
21
1428.279227
31
0
0
LINE
8
PIPES
10
1206.115773
20
1428.279227
30
0
11
2541.425773
21
3428.279227
31
0
0
LINE
8
PIPES
10
2541.425773
20
3428.279227
30
0
11
3872.095773
21
1428.279227
31
0
0
LINE
8
PIPES
10
3872.095773
20
1428.279227
30
0
11
2539.115773
21
-571.720773
31
0
0
LINE
8
PIPES
10
2539.115773
20
-571.720773
30
0
11
3874.795773
21
-2571.720773
31
0
0
LINE
8
PIPES
10
3874.795773
20
-2571.720773
30
0
11
5208.095773
21
-571.720773
31
0
0
LINE
8
PIPES
10
5208.095773
20
-571.720773
30
0
11
3872.095773
21
1428.279227
31
0
0
LINE
8
PIPES
10
3872.095773
20
1428.279227
30
0
11
5208.095773
21
3428.279227
31
0
0
LINE
8
PIPES
10
3872.095773
20
-571.720773
30
0
11
5208.095773
21
-571.720773
31
0
0
LINE
8
PIPES
10
-6791.904227
20
2856.849227
30
0
11
-6791.904227
21
3142.569227
31
0
0
LINE
8
PIPES
10
-6791.904227
20
2571.139227
30
0
11
-6791.904227
21
2856.849227
31
0
0
LINE
8
PIPES
10
-6791.904227
20
2285.419227
30
0
11
-6791.904227
21
2571.139227
31
0
0
LINE
8
PIPES
10
-6791.904227
20
1999.709227
30
0
11
-6791.904227
21
2285.419227
31
0
0
LINE
8
PIPES
10
-6791.904227
20
1713.989227
30
0
11
-6791.904227
21
1999.709227
31
0
0
LINE
8
PIPES
10
-6791.904227
20
-0.290773
30
0
11
-6791.904227
21
-286.010773
31
0
0
LINE
8
PIPES
10
-6791.904227
20
285.419227
30
0
11
-6791.904227
21
-0.290773
31
0
0
LINE
8
PIPES
10
-6791.904227
20
571.139227
30
0
11
-6791.904227
21
285.419227
31
0
0
LINE
8
PIPES
10
-6791.904227
20
856.849227
30
0
11
-6791.904227
21
571.139227
31
0
0
LINE
8
PIPES
10
-6791.904227
20
1142.569227
30
0
11
-6791.904227
21
856.849227
31
0
0
LINE
8
PIPES
10
-6791.904227
20
-2000.291773
30
0
11
-6791.904227
21
-2286.006773
31
0
0
LINE
8
PIPES
10
-6791.904227
20
-1714.577773
30
0
11
-6791.904227
21
-2000.291773
31
0
0
LINE
8
PIPES
10
-6791.904227
20
-1428.860773
30
0
11
-6791.904227
21
-1714.577773
31
0
0
LINE
8
PIPES
10
-6791.904227
20
-1143.150773
30
0
11
-6791.904227
21
-1428.860773
31
0
0
LINE
8
PIPES
10
-6791.904227
20
-857.430773
30
0
11
-6791.904227
21
-1143.150773
31
0
0
LINE
8
PIPES
10
-4125.234227
20
1713.989227
30
0
11
-4125.234227
21
1999.709227
31
0
0
LINE
8
PIPES
10
-4125.234227
20
1999.709227
30
0
11
-4125.234227
21
2285.419227
31
0
0
LINE
8
PIPES
10
-4125.234227
20
2285.419227
30
0
11
-4125.234227
21
2571.139227
31
0
0
LINE
8
PIPES
10
-4125.234227
20
2571.139227
30
0
11
-4125.234227
21
2856.849227
31
0
0
LINE
8
PIPES
10
-4125.234227
20
2856.849227
30
0
11
-4125.234227
21
3142.569227
31
0
0
LINE
8
PIPES
10
-4125.234227
20
3142.569227
30
0
11
-4125.234227
21
3428.279227
31
0
0
LINE
8
PIPES
10
-4125.234227
20
-286.010773
30
0
11
-4125.234227
21
-0.290773
31
0
0
LINE
8
PIPES
10
-4125.234227
20
-0.290773
30
0
11
-4125.234227
21
285.419227
31
0
0
LINE
8
PIPES
10
-4125.234227
20
285.419227
30
0
11
-4125.234227
21
571.139227
31
0
0
LINE
8
PIPES
10
-4125.234227
20
571.139227
30
0
11
-4125.234227
21
856.849227
31
0
0
LINE
8
PIPES
10
-4125.234227
20
856.849227
30
0
11
-4125.234227
21
1142.569227
31
0
0
LINE
8
PIPES
10
-4125.234227
20
1142.569227
30
0
11
-4125.234227
21
1428.279227
31
0
0
LINE
8
PIPES
10
-4125.234227
20
-2286.006773
30
0
11
-4125.234227
21
-2000.291773
31
0
0
LINE
8
PIPES
10
-4125.234227
20
-2000.291773
30
0
11
-4125.234227
21
-1714.577773
31
0
0
LINE
8
PIPES
10
-4125.234227
20
-1714.577773
30
0
11
-4125.234227
21
-1428.860773
31
0
0
LINE
8
PIPES
10
-4125.234227
20
-1428.860773
30
0
11
-4125.234227
21
-1143.150773
31
0
0
LINE
8
PIPES
10
-4125.234227
20
-1143.150773
30
0
11
-4125.234227
21
-857.430773
31
0
0
LINE
8
PIPES
10
-4125.234227
20
-857.430773
30
0
11
-4125.234227
21
-571.720773
31
0
0
LINE
8
PIPES
10
5208.095773
20
-857.430773
30
0
11
5208.095773
21
-1143.150773
31
0
0
LINE
8
PIPES
10
5208.095773
20
-1143.150773
30
0
11
5208.095773
21
-1428.860773
31
0
0
LINE
8
PIPES
10
5208.095773
20
-1428.860773
30
0
11
5208.095773
21
-1714.577773
31
0
0
LINE
8
PIPES
10
5208.095773
20
-1714.577773
30
0
11
5208.095773
21
-2000.291773
31
0
0
LINE
8
PIPES
10
5208.095773
20
-2000.291773
30
0
11
5208.095773
21
-2286.006773
31
0
0
LINE
8
PIPES
10
5208.095773
20
-2286.006773
30
0
11
5208.095773
21
-2571.720773
31
0
0
LINE
8
PIPES
10
5208.095773
20
1142.569227
30
0
11
5208.095773
21
856.849227
31
0
0
LINE
8
PIPES
10
5208.095773
20
856.849227
30
0
11
5208.095773
21
571.139227
31
0
0
LINE
8
PIPES
10
5208.095773
20
571.139227
30
0
11
5208.095773
21
285.419227
31
0
0
LINE
8
PIPES
10
5208.095773
20
285.419227
30
0
11
5208.095773
21
-0.290773
31
0
0
LINE
8
PIPES
10
5208.095773
20
-0.290773
30
0
11
5208.095773
21
-286.010773
31
0
0
LINE
8
PIPES
10
5208.095773
20
-286.010773
30
0
11
5208.095773
21
-571.720773
31
0
0
LINE
8
PIPES
10
5208.095773
20
3142.569227
30
0
11
5208.095773
21
2856.849227
31
0
0
LINE
8
PIPES
10
5208.095773
20
2856.849227
30
0
11
5208.095773
21
2571.139227
31
0
0
LINE
8
PIPES
10
5208.095773
20
2571.139227
30
0
11
5208.095773
21
2285.419227
31
0
0
LINE
8
PIPES
10
5208.095773
20
2285.419227
30
0
11
5208.095773
21
1999.709227
31
0
0
LINE
8
PIPES
10
5208.095773
20
1999.709227
30
0
11
5208.095773
21
1713.989227
31
0
0
LINE
8
PIPES
10
5208.095773
20
1713.989227
30
0
11
5208.095773
21
1428.279227
31
0
0
LINE
8
PIPES
10
2541.095773
20
-2286.006773
30
0
11
2540.765773
21
-2000.291773
31
0
0
LINE
8
PIPES
10
2540.765773
20
-2000.291773
30
0
11
2540.435773
21
-1714.577773
31
0
0
LINE
8
PIPES
10
2540.435773
20
-1714.577773
30
0
11
2540.105773
21
-1428.860773
31
0
0
LINE
8
PIPES
10
2540.105773
20
-1428.860773
30
0
11
2539.775773
21
-1143.150773
31
0
0
LINE
8
PIPES
10
2539.775773
20
-1143.150773
30
0
11
2539.445773
21
-857.430773
31
0
0
LINE
8
PIPES
10
2539.445773
20
-857.430773
30
0
11
2539.115773
21
-571.720773
31
0
0
LINE
8
PIPES
10
2539.115773
20
-286.010773
30
0
11
2539.115773
21
-0.290773
31
0
0
LINE
8
PIPES
10
2539.115773
20
-0.290773
30
0
11
2539.115773
21
285.419227
31
0
0
LINE
8
PIPES
10
2539.115773
20
285.419227
30
0
11
2539.115773
21
571.139227
31
0
0
LINE
8
PIPES
10
2539.115773
20
571.139227
30
0
11
2539.115773
21
856.849227
31
0
0
LINE
8
PIPES
10
2539.115773
20
856.849227
30
0
11
2539.115773
21
1142.569227
31
0
0
LINE
8
PIPES
10
2539.115773
20
1142.569227
30
0
11
2539.115773
21
1428.279227
31
0
0
LINE
8
PIPES
10
2539.445773
20
1713.989227
30
0
11
2539.775773
21
1999.709227
31
0
0
LINE
8
PIPES
10
2539.775773
20
1999.709227
30
0
11
2540.105773
21
2285.419227
31
0
0
LINE
8
PIPES
10
2540.105773
20
2285.419227
30
0
11
2540.435773
21
2571.139227
31
0
0
LINE
8
PIPES
10
2540.435773
20
2571.139227
30
0
11
2540.765773
21
2856.849227
31
0
0
LINE
8
PIPES
10
2540.765773
20
2856.849227
30
0
11
2541.095773
21
3142.569227
31
0
0
LINE
8
PIPES
10
2541.095773
20
3142.569227
30
0
11
2541.425773
21
3428.279227
31
0
0
LINE
8
PIPES
10
5205.095773
20
1428.279227
30
0
11
5208.095773
21
-571.720773
31
0
0
LINE
8
PIPES
10
-2791.904227
20
3428.279227
30
0
11
-1458.574227
21
1428.279227
31
0
0
LINE
8
PIPES
10
-1458.574227
20
1428.279227
30
0
11
-2791.904227
21
-571.720773
31
0
0
LINE
8
PIPES
10
-1458.574227
20
-2571.720773
30
0
11
-125.234227
21
-571.720773
31
0
0
LINE
8
PIPES
10
-125.234227
20
-571.720773
30
0
11
-1458.574227
21
1428.279227
31
0
0
LINE
8
PIPES
10
-1458.574227
20
1428.279227
30
0
11
-125.234227
21
3428.279227
31
0
0
LINE
8
PIPES
10
-125.234227
20
3428.279227
30
0
11
1208.095773
21
1428.279227
31
0
0
LINE
8
PIPES
10
1208.095773
20
1428.279227
30
0
11
-125.234227
21
-571.720773
31
0
0
LINE
8
PIPES
10
-125.234227
20
-571.720773
30
0
11
1208.095773
21
-2571.720773
31
0
0
LINE
8
PIPES
10
1208.095773
20
-2571.720773
30
0
11
2541.425773
21
-571.720773
31
0
0
LINE
8
PIPES
10
2541.425773
20
-571.720773
30
0
11
1208.095773
21
1428.279227
31
0
0
LINE
8
PIPES
10
1208.095773
20
1428.279227
30
0
11
2541.425773
21
3428.279227
31
0
0
LINE
8
PIPES
10
2541.425773
20
3428.279227
30
0
11
3874.795773
21
1428.279227
31
0
0
LINE
8
PIPES
10
3874.795773
20
1428.279227
30
0
11
2541.425773
21
-571.720773
31
0
0
LINE
8
PIPES
10
2541.425773
20
-571.720773
30
0
11
3874.795773
21
-2571.720773
31
0
0
LINE
8
PIPES
10
5208.095773
20
-571.720773
30
0
11
3874.795773
21
1428.279227
31
0
0
LINE
8
PIPES
10
3874.795773
20
1428.279227
30
0
11
5208.095773
21
3428.279227
31
0
0
LINE
8
PIPES
10
-2791.904227
20
-2571.720773
30
0
11
-1458.574227
21
-571.720773
31
0
0
LINE
8
PIPES
10
-1458.574227
20
-571.720773
30
0
11
-2791.904227
21
1428.279227
31
0
0
LINE
8
PIPES
10
-1458.574227
20
3428.279227
30
0
11
-125.234227
21
1428.279227
31
0
0
LINE
8
PIPES
10
-125.234227
20
1428.279227
30
0
11
-1458.574227
21
-571.720773
31
0
0
LINE
8
PIPES
10
-1458.574227
20
-571.720773
30
0
11
-125.234227
21
-2571.720773
31
0
0
LINE
8
PIPES
10
-125.234227
20
-2571.720773
30
0
11
1208.095773
21
-571.720773
31
0
0
LINE
8
PIPES
10
1208.095773
20
-571.720773
30
0
11
-125.234227
21
1428.279227
31
0
0
LINE
8
PIPES
10
-125.234227
20
1428.279227
30
0
11
1208.095773
21
3428.279227
31
0
0
LINE
8
PIPES
10
1208.095773
20
3428.279227
30
0
11
2541.425773
21
1428.279227
31
0
0
LINE
8
PIPES
10
2541.425773
20
1428.279227
30
0
11
1208.095773
21
-571.720773
31
0
0
LINE
8
PIPES
10
1208.095773
20
-571.720773
30
0
11
2541.425773
21
-2571.720773
31
0
0
LINE
8
PIPES
10
2541.425773
20
-2571.720773
30
0
11
3874.795773
21
-571.720773
31
0
0
LINE
8
PIPES
10
3874.795773
20
-571.720773
30
0
11
2541.425773
21
1428.279227
31
0
0
LINE
8
PIPES
10
2541.425773
20
1428.279227
30
0
11
3874.795773
21
3428.279227
31
0
0
LINE
8
PIPES
10
3874.795773
20
3428.279227
30
0
11
5208.095773
21
1428.279227
31
0
0
LINE
8
PIPES
10
5208.095773
20
1428.279227
30
0
11
3874.795773
21
-571.720773
31
0
0
LINE
8
PIPES
10
3874.795773
20
-571.720773
30
0
11
5208.095773
21
-2571.720773
31
0
0
CIRCLE
8
PIPE_ENDS
10
-6791.904227
20
-2571.720773
30
0
40
32
0
CIRCLE
8
PIPE_ENDS
10
-6791.904227
20
-571.720773
30
0
40
32
0
CIRCLE
8
PIPE_ENDS
10
-6791.904227
20
1428.279227
30
0
40
32
0
CIRCLE
8
PIPE_ENDS
10
-6791.904227
20
3428.279227
30
0
40
32
0
CIRCLE
8
PIPE_ENDS
10
5208.095773
20
-2571.720773
30
0
40
32
0
CIRCLE
8
PIPE_ENDS
10
5208.095773
20
-571.720773
30
0
40
32
0
CIRCLE
8
PIPE_ENDS
10
5208.095773
20
1428.279227
30
0
40
32
0
CIRCLE
8
PIPE_ENDS
10
5208.095773
20
3428.279227
30
0
40
32
0
CIRCLE
8
PIPE_ENDS
10
-5458.604227
20
-2571.720773
30
0
40
32
0
CIRCLE
8
PIPE_ENDS
10
-5458.604227
20
3428.279227
30
0
40
32
0
CIRCLE
8
PIPE_ENDS
10
-5458.604227
20
-571.720773
30
0
40
32
0
CIRCLE
8
PIPE_ENDS
10
-5458.604227
20
1428.279227
30
0
40
32
0
CIRCLE
8
PIPE_ENDS
10
-4125.204227
20
-2571.720773
30
0
40
32
0
CIRCLE
8
PIPE_ENDS
10
-4125.204227
20
3428.279227
30
0
40
32
0
CIRCLE
8
PIPE_ENDS
10
-4125.204227
20
-571.720773
30
0
40
32
0
CIRCLE
8
PIPE_ENDS
10
-4125.204227
20
1428.279227
30
0
40
32
0
CIRCLE
8
PIPE_ENDS
10
-2791.904227
20
-2571.720773
30
0
40
32
0
CIRCLE
8
PIPE_ENDS
10
-2791.904227
20
3428.279227
30
0
40
32
0
CIRCLE
8
PIPE_ENDS
10
-2791.904227
20
-571.720773
30
0
40
32
0
CIRCLE
8
PIPE_ENDS
10
-2791.904227
20
1428.279227
30
0
40
32
0
CIRCLE
8
PIPE_ENDS
10
1208.095773
20
-2571.720773
30
0
40
32
0
CIRCLE
8
PIPE_ENDS
10
1208.095773
20
3428.279227
30
0
40
32
0
CIRCLE
8
PIPE_ENDS
10
1208.095773
20
-571.720773
30
0
40
32
0
CIRCLE
8
PIPE_ENDS
10
1208.095773
20
1428.279227
30
0
40
32
0
CIRCLE
8
PIPE_ENDS
10
2541.395773
20
-2571.720773
30
0
40
32
0
CIRCLE
8
PIPE_ENDS
10
2541.395773
20
3428.279227
30
0
40
32
0
CIRCLE
8
PIPE_ENDS
10
2541.395773
20
-571.720773
30
0
40
32
0
CIRCLE
8
PIPE_ENDS
10
2541.395773
20
1428.279227
30
0
40
32
0
CIRCLE
8
PIPE_ENDS
10
3874.795773
20
-2571.720773
30
0
40
32
0
CIRCLE
8
PIPE_ENDS
10
3874.795773
20
3428.279227
30
0
40
32
0
CIRCLE
8
PIPE_ENDS
10
3874.795773
20
-571.720773
30
0
40
32
0
CIRCLE
8
PIPE_ENDS
10
3874.795773
20
1428.279227
30
0
40
32
0
CIRCLE
8
PIPE_ENDS
10
-1458.604227
20
-2571.720773
30
0
40
32
0
CIRCLE
8
PIPE_ENDS
10
-1458.604227
20
3428.279227
30
0
40
32
0
CIRCLE
8
PIPE_ENDS
10
-1458.604227
20
-571.720773
30
0
40
32
0
CIRCLE
8
PIPE_ENDS
10
-1458.604227
20
1428.279227
30
0
40
32
0
CIRCLE
8
PIPE_ENDS
10
-125.204227
20
-2571.720773
30
0
40
32
0
CIRCLE
8
PIPE_ENDS
10
-125.204227
20
3428.279227
30
0
40
32
0
CIRCLE
8
PIPE_ENDS
10
-125.204227
20
-571.720773
30
0
40
32
0
CIRCLE
8
PIPE_ENDS
10
-125.204227
20
1428.279227
30
0
40
32
0
CIRCLE
8
PIPE_ENDS
10
-6291.904227
20
-2571.720773
30
0
40
25
0
CIRCLE
8
PIPE_ENDS
10
4708.095773
20
-2571.720773
30
0
40
25
0
CIRCLE
8
PIPE_ENDS
10
-6291.904227
20
-571.720773
30
0
40
25
0
CIRCLE
8
PIPE_ENDS
10
4708.095773
20
-571.720773
30
0
40
25
0
CIRCLE
8
PIPE_ENDS
10
-6291.904227
20
1428.279227
30
0
40
25
0
CIRCLE
8
PIPE_ENDS
10
4708.095773
20
1428.279227
30
0
40
25
0
CIRCLE
8
PIPE_ENDS
10
-6291.904227
20
3428.279227
30
0
40
25
0
CIRCLE
8
PIPE_ENDS
10
4708.095773
20
3428.279227
30
0
40
25
0
CIRCLE
8
PIPE_ENDS
10
-5458.604227
20
-2071.720773
30
0
40
25
0
CIRCLE
8
PIPE_ENDS
10
-5458.604227
20
2928.279227
30
0
40
25
0
CIRCLE
8
PIPE_ENDS
10
-4125.204227
20
-2071.720773
30
0
40
25
0
CIRCLE
8
PIPE_ENDS
10
-4125.204227
20
2928.279227
30
0
40
25
0
CIRCLE
8
PIPE_ENDS
10
-2791.904227
20
-2071.720773
30
0
40
25
0
CIRCLE
8
PIPE_ENDS
10
-2791.904227
20
2928.279227
30
0
40
25
0
CIRCLE
8
PIPE_ENDS
10
1208.095773
20
-2071.720773
30
0
40
25
0
CIRCLE
8
PIPE_ENDS
10
1208.095773
20
2928.279227
30
0
40
25
0
CIRCLE
8
PIPE_ENDS
10
2541.395773
20
-2071.720773
30
0
40
25
0
CIRCLE
8
PIPE_ENDS
10
2541.395773
20
2928.279227
30
0
40
25
0
CIRCLE
8
PIPE_ENDS
10
3874.795773
20
-2071.720773
30
0
40
25
0
CIRCLE
8
PIPE_ENDS
10
3874.795773
20
2928.279227
30
0
40
25
0
CIRCLE
8
PIPE_ENDS
10
-1458.604227
20
-2071.720773
30
0
40
25
0
CIRCLE
8
PIPE_ENDS
10
-1458.604227
20
2928.279227
30
0
40
25
0
CIRCLE
8
PIPE_ENDS
10
-125.204227
20
-2071.720773
30
0
40
25
0
CIRCLE
8
PIPE_ENDS
10
-125.204227
20
2928.279227
30
0
40
25
0
CIRCLE
8
PIPE_ENDS
10
-6291.904227
20
-2071.720773
30
0
40
25
0
CIRCLE
8
PIPE_ENDS
10
4708.095773
20
-2071.720773
30
0
40
25
0
CIRCLE
8
PIPE_ENDS
10
-6291.904227
20
2928.279227
30
0
40
25
0
CIRCLE
8
PIPE_ENDS
10
4708.095773
20
2928.279227
30
0
40
25
0
CIRCLE
8
PIPE_ENDS
10
-1458.604227
20
-2227.720773
30
0
40
25
0
CIRCLE
8
PIPE_ENDS
10
-1458.604227
20
-1930.020773
30
0
40
25
0
CIRCLE
8
PIPE_ENDS
10
-1458.604227
20
-1632.320773
30
0
40
25
0
CIRCLE
8
PIPE_ENDS
10
-1458.604227
20
-1334.620773
30
0
40
25
0
CIRCLE
8
PIPE_ENDS
10
-1458.604227
20
-1036.920773
30
0
40
25
0
CIRCLE
8
PIPE_ENDS
10
-1458.604227
20
-739.320773
30
0
40
25
0
CIRCLE
8
PIPE_ENDS
10
-1458.604227
20
-441.620773
30
0
40
25
0
CIRCLE
8
PIPE_ENDS
10
-1458.604227
20
-143.920773
30
0
40
25
0
CIRCLE
8
PIPE_ENDS
10
-1458.604227
20
153.779227
30
0
40
25
0
CIRCLE
8
PIPE_ENDS
10
-1458.604227
20
451.479227
30
0
40
25
0
CIRCLE
8
PIPE_ENDS
10
-1458.604227
20
749.179227
30
0
40
25
0
CIRCLE
8
PIPE_ENDS
10
-1458.604227
20
1046.779227
30
0
40
25
0
CIRCLE
8
PIPE_ENDS
10
-1458.604227
20
1344.479227
30
0
40
25
0
CIRCLE
8
PIPE_ENDS
10
-1458.604227
20
1642.179227
30
0
40
25
0
CIRCLE
8
PIPE_ENDS
10
-1458.604227
20
1939.879227
30
0
40
25
0
CIRCLE
8
PIPE_ENDS
10
-1458.604227
20
2237.579227
30
0
40
25
0
CIRCLE
8
PIPE_ENDS
10
-1458.604227
20
2535.279227
30
0
40
25
0
CIRCLE
8
PIPE_ENDS
10
-1458.604227
20
2832.879227
30
0
40
25
0
CIRCLE
8
PIPE_ENDS
10
-1458.604227
20
3130.579227
30
0
40
25
0
CIRCLE
8
PIPE_ENDS
10
-125.204227
20
-2227.720773
30
0
40
25
0
CIRCLE
8
PIPE_ENDS
10
-125.204227
20
-1930.020773
30
0
40
25
0
CIRCLE
8
PIPE_ENDS
10
-125.204227
20
-1632.320773
30
0
40
25
0
CIRCLE
8
PIPE_ENDS
10
-125.204227
20
-1334.620773
30
0
40
25
0
CIRCLE
8
PIPE_ENDS
10
-125.204227
20
-1036.920773
30
0
40
25
0
CIRCLE
8
PIPE_ENDS
10
-125.204227
20
-739.320773
30
0
40
25
0
CIRCLE
8
PIPE_ENDS
10
-125.204227
20
-441.620773
30
0
40
25
0
CIRCLE
8
PIPE_ENDS
10
-125.204227
20
-143.920773
30
0
40
25
0
CIRCLE
8
PIPE_ENDS
10
-125.204227
20
153.779227
30
0
40
25
0
CIRCLE
8
PIPE_ENDS
10
-125.204227
20
451.479227
30
0
40
25
0
CIRCLE
8
PIPE_ENDS
10
-125.204227
20
749.179227
30
0
40
25
0
CIRCLE
8
PIPE_ENDS
10
-125.204227
20
1046.779227
30
0
40
25
0
CIRCLE
8
PIPE_ENDS
10
-125.204227
20
1344.479227
30
0
40
25
0
CIRCLE
8
PIPE_ENDS
10
-125.204227
20
1642.179227
30
0
40
25
0
CIRCLE
8
PIPE_ENDS
10
-125.204227
20
1939.879227
30
0
40
25
0
CIRCLE
8
PIPE_ENDS
10
-125.204227
20
2237.579227
30
0
40
25
0
CIRCLE
8
PIPE_ENDS
10
-125.204227
20
2535.279227
30
0
40
25
0
CIRCLE
8
PIPE_ENDS
10
-125.204227
20
2832.879227
30
0
40
25
0
CIRCLE
8
PIPE_ENDS
10
-125.204227
20
3130.579227
30
0
40
25
0
CIRCLE
8
PIPE_ENDS
10
-1459.904227
20
-571.720773
30
0
40
25
0
CIRCLE
8
PIPE_ENDS
10
-1459.904227
20
1428.279227
30
0
40
25
0
CIRCLE
8
PIPE_ENDS
10
-126.904227
20
-571.720773
30
0
40
25
0
CIRCLE
8
PIPE_ENDS
10
-126.904227
20
1428.279227
30
0
40
25
0
CIRCLE
8
PIPE_ENDS
10
1206.095773
20
-571.720773
30
0
40
25
0
CIRCLE
8
PIPE_ENDS
10
1206.095773
20
1428.279227
30
0
40
25
0
CIRCLE
8
PIPE_ENDS
10
2539.095773
20
-571.720773
30
0
40
25
0
CIRCLE
8
PIPE_ENDS
10
2539.095773
20
1428.279227
30
0
40
25
0
CIRCLE
8
PIPE_ENDS
10
3872.095773
20
-571.720773
30
0
40
25
0
CIRCLE
8
PIPE_ENDS
10
3872.095773
20
1428.279227
30
0
40
25
0
CIRCLE
8
PIPE_ENDS
10
5205.095773
20
-571.720773
30
0
40
25
0
CIRCLE
8
PIPE_ENDS
10
5205.095773
20
1428.279227
30
0
40
25
0
CIRCLE
8
PIPE_ENDS
10
-6791.904227
20
3142.579227
30
0
40
25
0
CIRCLE
8
PIPE_ENDS
10
-6791.904227
20
2856.879227
30
0
40
25
0
CIRCLE
8
PIPE_ENDS
10
-6791.904227
20
2571.179227
30
0
40
25
0
CIRCLE
8
PIPE_ENDS
10
-6791.904227
20
2285.379227
30
0
40
25
0
CIRCLE
8
PIPE_ENDS
10
-6791.904227
20
1999.679227
30
0
40
25
0
CIRCLE
8
PIPE_ENDS
10
-6791.904227
20
1713.979227
30
0
40
25
0
CIRCLE
8
PIPE_ENDS
10
-6791.904227
20
856.879227
30
0
40
25
0
CIRCLE
8
PIPE_ENDS
10
-6791.904227
20
1142.579227
30
0
40
25
0
CIRCLE
8
PIPE_ENDS
10
-6791.904227
20
571.179227
30
0
40
25
0
CIRCLE
8
PIPE_ENDS
10
-6791.904227
20
285.379227
30
0
40
25
0
CIRCLE
8
PIPE_ENDS
10
-6791.904227
20
-0.320773
30
0
40
25
0
CIRCLE
8
PIPE_ENDS
10
-6791.904227
20
-286.020773
30
0
40
25
0
CIRCLE
8
PIPE_ENDS
10
-6791.904227
20
-1428.820773
30
0
40
25
0
CIRCLE
8
PIPE_ENDS
10
-6791.904227
20
-857.420773
30
0
40
25
0
CIRCLE
8
PIPE_ENDS
10
-6791.904227
20
-1143.120773
30
0
40
25
0
CIRCLE
8
PIPE_ENDS
10
-6791.904227
20
-1714.620773
30
0
40
25
0
CIRCLE
8
PIPE_ENDS
10
-6791.904227
20
-2000.320773
30
0
40
25
0
CIRCLE
8
PIPE_ENDS
10
-6791.904227
20
-2286.020773
30
0
40
25
0
CIRCLE
8
PIPE_ENDS
10
-4125.204227
20
3142.579227
30
0
40
25
0
CIRCLE
8
PIPE_ENDS
10
-4125.204227
20
2856.879227
30
0
40
25
0
CIRCLE
8
PIPE_ENDS
10
-4125.204227
20
2571.179227
30
0
40
25
0
CIRCLE
8
PIPE_ENDS
10
-4125.204227
20
2285.379227
30
0
40
25
0
CIRCLE
8
PIPE_ENDS
10
-4125.204227
20
1999.679227
30
0
40
25
0
CIRCLE
8
PIPE_ENDS
10
-4125.204227
20
1713.979227
30
0
40
25
0
CIRCLE
8
PIPE_ENDS
10
-4125.204227
20
1142.579227
30
0
40
25
0
CIRCLE
8
PIPE_ENDS
10
-4125.204227
20
856.879227
30
0
40
25
0
CIRCLE
8
PIPE_ENDS
10
-4125.204227
20
571.179227
30
0
40
25
0
CIRCLE
8
PIPE_ENDS
10
-4125.204227
20
285.379227
30
0
40
25
0
CIRCLE
8
PIPE_ENDS
10
-4125.204227
20
-0.320773
30
0
40
25
0
CIRCLE
8
PIPE_ENDS
10
-4125.204227
20
-286.020773
30
0
40
25
0
CIRCLE
8
PIPE_ENDS
10
-4125.204227
20
-857.420773
30
0
40
25
0
CIRCLE
8
PIPE_ENDS
10
-4125.204227
20
-1143.120773
30
0
40
25
0
CIRCLE
8
PIPE_ENDS
10
-4125.204227
20
-1428.820773
30
0
40
25
0
CIRCLE
8
PIPE_ENDS
10
-4125.204227
20
-1714.620773
30
0
40
25
0
CIRCLE
8
PIPE_ENDS
10
-4125.204227
20
-2000.320773
30
0
40
25
0
CIRCLE
8
PIPE_ENDS
10
-4125.204227
20
-2286.020773
30
0
40
25
0
CIRCLE
8
PIPE_ENDS
10
5208.095773
20
3142.579227
30
0
40
25
0
CIRCLE
8
PIPE_ENDS
10
5208.095773
20
2856.879227
30
0
40
25
0
CIRCLE
8
PIPE_ENDS
10
5208.095773
20
2571.179227
30
0
40
25
0
CIRCLE
8
PIPE_ENDS
10
5208.095773
20
2285.379227
30
0
40
25
0
CIRCLE
8
PIPE_ENDS
10
5208.095773
20
1999.679227
30
0
40
25
0
CIRCLE
8
PIPE_ENDS
10
5208.095773
20
1713.979227
30
0
40
25
0
CIRCLE
8
PIPE_ENDS
10
5208.095773
20
1142.579227
30
0
40
25
0
CIRCLE
8
PIPE_ENDS
10
5208.095773
20
856.879227
30
0
40
25
0
CIRCLE
8
PIPE_ENDS
10
5208.095773
20
571.179227
30
0
40
25
0
CIRCLE
8
PIPE_ENDS
10
5208.095773
20
285.379227
30
0
40
25
0
CIRCLE
8
PIPE_ENDS
10
5208.095773
20
-0.320773
30
0
40
25
0
CIRCLE
8
PIPE_ENDS
10
5208.095773
20
-286.020773
30
0
40
25
0
CIRCLE
8
PIPE_ENDS
10
5208.095773
20
-857.420773
30
0
40
25
0
CIRCLE
8
PIPE_ENDS
10
5208.095773
20
-1143.120773
30
0
40
25
0
CIRCLE
8
PIPE_ENDS
10
5208.095773
20
-1428.820773
30
0
40
25
0
CIRCLE
8
PIPE_ENDS
10
5208.095773
20
-1714.620773
30
0
40
25
0
CIRCLE
8
PIPE_ENDS
10
5208.095773
20
-2000.320773
30
0
40
25
0
CIRCLE
8
PIPE_ENDS
10
5208.095773
20
-2286.020773
30
0
40
25
0
CIRCLE
8
PIPE_ENDS
10
2541.095773
20
-2286.020773
30
0
40
25
0
CIRCLE
8
PIPE_ENDS
10
2540.795773
20
-2000.320773
30
0
40
25
0
CIRCLE
8
PIPE_ENDS
10
2540.395773
20
-1714.620773
30
0
40
25
0
CIRCLE
8
PIPE_ENDS
10
2540.095773
20
-1428.820773
30
0
40
25
0
CIRCLE
8
PIPE_ENDS
10
2539.795773
20
-1143.120773
30
0
40
25
0
CIRCLE
8
PIPE_ENDS
10
2539.495773
20
-857.420773
30
0
40
25
0
CIRCLE
8
PIPE_ENDS
10
2539.095773
20
-286.020773
30
0
40
25
0
CIRCLE
8
PIPE_ENDS
10
2539.095773
20
-0.320773
30
0
40
25
0
CIRCLE
8
PIPE_ENDS
10
2539.095773
20
285.379227
30
0
40
25
0
CIRCLE
8
PIPE_ENDS
10
2539.095773
20
571.179227
30
0
40
25
0
CIRCLE
8
PIPE_ENDS
10
2539.095773
20
856.879227
30
0
40
25
0
CIRCLE
8
PIPE_ENDS
10
2539.095773
20
1142.579227
30
0
40
25
0
CIRCLE
8
PIPE_ENDS
10
2539.495773
20
1713.979227
30
0
40
25
0
CIRCLE
8
PIPE_ENDS
10
2539.795773
20
1999.679227
30
0
40
25
0
CIRCLE
8
PIPE_ENDS
10
2540.095773
20
2285.379227
30
0
40
25
0
CIRCLE
8
PIPE_ENDS
10
2540.395773
20
2571.179227
30
0
40
25
0
CIRCLE
8
PIPE_ENDS
10
2540.795773
20
2856.879227
30
0
40
25
0
CIRCLE
8
PIPE_ENDS
10
2541.095773
20
3142.579227
30
0
40
25
0
LINE
8
DIMENSION
10
-6791.904227
20
-2631.720773
30
0
11
-6791.904227
21
-2951.720773
31
0
0
LINE
8
DIMENSION
10
-5458.574227
20
-2631.720773
30
0
11
-5458.574227
21
-2951.720773
31
0
0
LINE
8
DIMENSION
10
-6791.904227
20
-2951.720773
30
0
11
-5458.574227
21
-2951.720773
31
0
0
LINE
8
DIMENSION
10
-6791.904227
20
-2951.720773
30
0
11
-6855.345773
21
-2922.137494
31
0
0
LINE
8
DIMENSION
10
-6791.904227
20
-2951.720773
30
0
11
-6855.345773
21
-2981.304051
31
0
0
LINE
8
DIMENSION
10
-5458.574227
20
-2951.720773
30
0
11
-5395.132682
21
-2981.304051
31
0
0
LINE
8
DIMENSION
10
-5458.574227
20
-2951.720773
30
0
11
-5395.132682
21
-2922.137494
31
0
0
TEXT
8
DIMENSION
10
-6125.239227
20
-3121.720773
30
0
40
85
1
1.333
50
0
7
STANDARD
72
1
73
2
11
-6125.239227
21
-3121.720773
31
0
0
LINE
8
DIMENSION
10
-5458.574227
20
-2631.720773
30
0
11
-5458.574227
21
-2951.720773
31
0
0
LINE
8
DIMENSION
10
-4125.234227
20
-2631.720773
30
0
11
-4125.234227
21
-2951.720773
31
0
0
LINE
8
DIMENSION
10
-5458.574227
20
-2951.720773
30
0
11
-4125.234227
21
-2951.720773
31
0
0
LINE
8
DIMENSION
10
-5458.574227
20
-2951.720773
30
0
11
-5522.015773
21
-2922.137494
31
0
0
LINE
8
DIMENSION
10
-5458.574227
20
-2951.720773
30
0
11
-5522.015773
21
-2981.304051
31
0
0
LINE
8
DIMENSION
10
-4125.234227
20
-2951.720773
30
0
11
-4061.792682
21
-2981.304051
31
0
0
LINE
8
DIMENSION
10
-4125.234227
20
-2951.720773
30
0
11
-4061.792682
21
-2922.137494
31
0
0
TEXT
8
DIMENSION
10
-4791.904227
20
-3121.720773
30
0
40
85
1
1.333
50
0
7
STANDARD
72
1
73
2
11
-4791.904227
21
-3121.720773
31
0
0
LINE
8
DIMENSION
10
-4125.234227
20
-2631.720773
30
0
11
-4125.234227
21
-2951.720773
31
0
0
LINE
8
DIMENSION
10
-2791.904227
20
-2631.720773
30
0
11
-2791.904227
21
-2951.720773
31
0
0
LINE
8
DIMENSION
10
-4125.234227
20
-2951.720773
30
0
11
-2791.904227
21
-2951.720773
31
0
0
LINE
8
DIMENSION
10
-4125.234227
20
-2951.720773
30
0
11
-4188.675773
21
-2922.137494
31
0
0
LINE
8
DIMENSION
10
-4125.234227
20
-2951.720773
30
0
11
-4188.675773
21
-2981.304051
31
0
0
LINE
8
DIMENSION
10
-2791.904227
20
-2951.720773
30
0
11
-2728.462682
21
-2981.304051
31
0
0
LINE
8
DIMENSION
10
-2791.904227
20
-2951.720773
30
0
11
-2728.462682
21
-2922.137494
31
0
0
TEXT
8
DIMENSION
10
-3458.569227
20
-3121.720773
30
0
40
85
1
1.333
50
0
7
STANDARD
72
1
73
2
11
-3458.569227
21
-3121.720773
31
0
0
LINE
8
DIMENSION
10
-2791.904227
20
-2631.720773
30
0
11
-2791.904227
21
-2951.720773
31
0
0
LINE
8
DIMENSION
10
-1458.574227
20
-2631.720773
30
0
11
-1458.574227
21
-2951.720773
31
0
0
LINE
8
DIMENSION
10
-2791.904227
20
-2951.720773
30
0
11
-1458.574227
21
-2951.720773
31
0
0
LINE
8
DIMENSION
10
-2791.904227
20
-2951.720773
30
0
11
-2855.345773
21
-2922.137494
31
0
0
LINE
8
DIMENSION
10
-2791.904227
20
-2951.720773
30
0
11
-2855.345773
21
-2981.304051
31
0
0
LINE
8
DIMENSION
10
-1458.574227
20
-2951.720773
30
0
11
-1395.132682
21
-2981.304051
31
0
0
LINE
8
DIMENSION
10
-1458.574227
20
-2951.720773
30
0
11
-1395.132682
21
-2922.137494
31
0
0
TEXT
8
DIMENSION
10
-2125.239227
20
-3121.720773
30
0
40
85
1
1.333
50
0
7
STANDARD
72
1
73
2
11
-2125.239227
21
-3121.720773
31
0
0
LINE
8
DIMENSION
10
-1458.574227
20
-2631.720773
30
0
11
-1458.574227
21
-2951.720773
31
0
0
LINE
8
DIMENSION
10
-125.234227
20
-2631.720773
30
0
11
-125.234227
21
-2951.720773
31
0
0
LINE
8
DIMENSION
10
-1458.574227
20
-2951.720773
30
0
11
-125.234227
21
-2951.720773
31
0
0
LINE
8
DIMENSION
10
-1458.574227
20
-2951.720773
30
0
11
-1522.015773
21
-2922.137494
31
0
0
LINE
8
DIMENSION
10
-1458.574227
20
-2951.720773
30
0
11
-1522.015773
21
-2981.304051
31
0
0
LINE
8
DIMENSION
10
-125.234227
20
-2951.720773
30
0
11
-61.792682
21
-2981.304051
31
0
0
LINE
8
DIMENSION
10
-125.234227
20
-2951.720773
30
0
11
-61.792682
21
-2922.137494
31
0
0
TEXT
8
DIMENSION
10
-791.904227
20
-3121.720773
30
0
40
85
1
1.333
50
0
7
STANDARD
72
1
73
2
11
-791.904227
21
-3121.720773
31
0
0
LINE
8
DIMENSION
10
-125.234227
20
-2631.720773
30
0
11
-125.234227
21
-2951.720773
31
0
0
LINE
8
DIMENSION
10
1208.095773
20
-2631.720773
30
0
11
1208.095773
21
-2951.720773
31
0
0
LINE
8
DIMENSION
10
-125.234227
20
-2951.720773
30
0
11
1208.095773
21
-2951.720773
31
0
0
LINE
8
DIMENSION
10
-125.234227
20
-2951.720773
30
0
11
-188.675773
21
-2922.137494
31
0
0
LINE
8
DIMENSION
10
-125.234227
20
-2951.720773
30
0
11
-188.675773
21
-2981.304051
31
0
0
LINE
8
DIMENSION
10
1208.095773
20
-2951.720773
30
0
11
1271.537318
21
-2981.304051
31
0
0
LINE
8
DIMENSION
10
1208.095773
20
-2951.720773
30
0
11
1271.537318
21
-2922.137494
31
0
0
TEXT
8
DIMENSION
10
541.430773
20
-3121.720773
30
0
40
85
1
1.333
50
0
7
STANDARD
72
1
73
2
11
541.430773
21
-3121.720773
31
0
0
LINE
8
DIMENSION
10
1208.095773
20
-2631.720773
30
0
11
1208.095773
21
-2951.720773
31
0
0
LINE
8
DIMENSION
10
2541.425773
20
-2631.720773
30
0
11
2541.425773
21
-2951.720773
31
0
0
LINE
8
DIMENSION
10
1208.095773
20
-2951.720773
30
0
11
2541.425773
21
-2951.720773
31
0
0
LINE
8
DIMENSION
10
1208.095773
20
-2951.720773
30
0
11
1144.654227
21
-2922.137494
31
0
0
LINE
8
DIMENSION
10
1208.095773
20
-2951.720773
30
0
11
1144.654227
21
-2981.304051
31
0
0
LINE
8
DIMENSION
10
2541.425773
20
-2951.720773
30
0
11
2604.867318
21
-2981.304051
31
0
0
LINE
8
DIMENSION
10
2541.425773
20
-2951.720773
30
0
11
2604.867318
21
-2922.137494
31
0
0
TEXT
8
DIMENSION
10
1874.760773
20
-3121.720773
30
0
40
85
1
1.333
50
0
7
STANDARD
72
1
73
2
11
1874.760773
21
-3121.720773
31
0
0
LINE
8
DIMENSION
10
2541.425773
20
-2631.720773
30
0
11
2541.425773
21
-2951.720773
31
0
0
LINE
8
DIMENSION
10
3874.795773
20
-2631.720773
30
0
11
3874.795773
21
-2951.720773
31
0
0
LINE
8
DIMENSION
10
2541.425773
20
-2951.720773
30
0
11
3874.795773
21
-2951.720773
31
0
0
LINE
8
DIMENSION
10
2541.425773
20
-2951.720773
30
0
11
2477.984227
21
-2922.137494
31
0
0
LINE
8
DIMENSION
10
2541.425773
20
-2951.720773
30
0
11
2477.984227
21
-2981.304051
31
0
0
LINE
8
DIMENSION
10
3874.795773
20
-2951.720773
30
0
11
3938.237318
21
-2981.304051
31
0
0
LINE
8
DIMENSION
10
3874.795773
20
-2951.720773
30
0
11
3938.237318
21
-2922.137494
31
0
0
TEXT
8
DIMENSION
10
3208.110773
20
-3121.720773
30
0
40
85
1
1.333
50
0
7
STANDARD
72
1
73
2
11
3208.110773
21
-3121.720773
31
0
0
LINE
8
DIMENSION
10
3874.795773
20
-2631.720773
30
0
11
3874.795773
21
-2951.720773
31
0
0
LINE
8
DIMENSION
10
5208.095773
20
-2631.720773
30
0
11
5208.095773
21
-2951.720773
31
0
0
LINE
8
DIMENSION
10
3874.795773
20
-2951.720773
30
0
11
5208.095773
21
-2951.720773
31
0
0
LINE
8
DIMENSION
10
3874.795773
20
-2951.720773
30
0
11
3811.354227
21
-2922.137494
31
0
0
LINE
8
DIMENSION
10
3874.795773
20
-2951.720773
30
0
11
3811.354227
21
-2981.304051
31
0
0
LINE
8
DIMENSION
10
5208.095773
20
-2951.720773
30
0
11
5271.537318
21
-2981.304051
31
0
0
LINE
8
DIMENSION
10
5208.095773
20
-2951.720773
30
0
11
5271.537318
21
-2922.137494
31
0
0
TEXT
8
DIMENSION
10
4541.445773
20
-3121.720773
30
0
40
85
1
1.333
50
0
7
STANDARD
72
1
73
2
11
4541.445773
21
-3121.720773
31
0
0
LINE
8
DIMENSION
10
-6791.904227
20
-2631.720773
30
0
11
-6791.904227
21
-3321.720773
31
0
0
LINE
8
DIMENSION
10
5208.095773
20
-2631.720773
30
0
11
5208.095773
21
-3321.720773
31
0
0
LINE
8
DIMENSION
10
-6791.904227
20
-3321.720773
30
0
11
5208.095773
21
-3321.720773
31
0
0
LINE
8
DIMENSION
10
-6791.904227
20
-3321.720773
30
0
11
-6855.345773
21
-3292.137494
31
0
0
LINE
8
DIMENSION
10
-6791.904227
20
-3321.720773
30
0
11
-6855.345773
21
-3351.304051
31
0
0
LINE
8
DIMENSION
10
5208.095773
20
-3321.720773
30
0
11
5271.537318
21
-3351.304051
31
0
0
LINE
8
DIMENSION
10
5208.095773
20
-3321.720773
30
0
11
5271.537318
21
-3292.137494
31
0
0
TEXT
8
DIMENSION
10
-791.904227
20
-3491.720773
30
0
40
85
1
TOTAL 12
50
0
7
STANDARD
72
1
73
2
11
-791.904227
21
-3491.720773
31
0
0
LINE
8
DIMENSION
10
5268.095773
20
-2571.720773
30
0
11
5908.095773
21
-2571.720773
31
0
0
LINE
8
DIMENSION
10
5268.095773
20
-2071.720773
30
0
11
5908.095773
21
-2071.720773
31
0
0
LINE
8
DIMENSION
10
5908.095773
20
-2571.720773
30
0
11
5908.095773
21
-2071.720773
31
0
0
LINE
8
DIMENSION
10
5908.095773
20
-2571.720773
30
0
11
5878.512494
21
-2635.162318
31
0
0
LINE
8
DIMENSION
10
5908.095773
20
-2571.720773
30
0
11
5937.679051
21
-2635.162318
31
0
0
LINE
8
DIMENSION
10
5908.095773
20
-2071.720773
30
0
11
5937.679051
21
-2008.279227
31
0
0
LINE
8
DIMENSION
10
5908.095773
20
-2071.720773
30
0
11
5878.512494
21
-2008.279227
31
0
0
TEXT
8
DIMENSION
10
6078.095773
20
-2321.720773
30
0
40
85
1
0.5
50
90
7
STANDARD
72
1
73
2
11
6078.095773
21
-2321.720773
31
0
0
LINE
8
DIMENSION
10
5268.095773
20
-2071.720773
30
0
11
5908.095773
21
-2071.720773
31
0
0
LINE
8
DIMENSION
10
5268.095773
20
-571.720773
30
0
11
5908.095773
21
-571.720773
31
0
0
LINE
8
DIMENSION
10
5908.095773
20
-2071.720773
30
0
11
5908.095773
21
-571.720773
31
0
0
LINE
8
DIMENSION
10
5908.095773
20
-2071.720773
30
0
11
5878.512494
21
-2135.162318
31
0
0
LINE
8
DIMENSION
10
5908.095773
20
-2071.720773
30
0
11
5937.679051
21
-2135.162318
31
0
0
LINE
8
DIMENSION
10
5908.095773
20
-571.720773
30
0
11
5937.679051
21
-508.279227
31
0
0
LINE
8
DIMENSION
10
5908.095773
20
-571.720773
30
0
11
5878.512494
21
-508.279227
31
0
0
TEXT
8
DIMENSION
10
6078.095773
20
-1321.720773
30
0
40
85
1
1.5
50
90
7
STANDARD
72
1
73
2
11
6078.095773
21
-1321.720773
31
0
0
LINE
8
DIMENSION
10
5268.095773
20
-571.720773
30
0
11
5908.095773
21
-571.720773
31
0
0
LINE
8
DIMENSION
10
5268.095773
20
1428.279227
30
0
11
5908.095773
21
1428.279227
31
0
0
LINE
8
DIMENSION
10
5908.095773
20
-571.720773
30
0
11
5908.095773
21
1428.279227
31
0
0
LINE
8
DIMENSION
10
5908.095773
20
-571.720773
30
0
11
5878.512494
21
-635.162318
31
0
0
LINE
8
DIMENSION
10
5908.095773
20
-571.720773
30
0
11
5937.679051
21
-635.162318
31
0
0
LINE
8
DIMENSION
10
5908.095773
20
1428.279227
30
0
11
5937.679051
21
1491.720773
31
0
0
LINE
8
DIMENSION
10
5908.095773
20
1428.279227
30
0
11
5878.512494
21
1491.720773
31
0
0
TEXT
8
DIMENSION
10
6078.095773
20
428.279227
30
0
40
85
1
2
50
90
7
STANDARD
72
1
73
2
11
6078.095773
21
428.279227
31
0
0
LINE
8
DIMENSION
10
5268.095773
20
1428.279227
30
0
11
5908.095773
21
1428.279227
31
0
0
LINE
8
DIMENSION
10
5268.095773
20
2928.279227
30
0
11
5908.095773
21
2928.279227
31
0
0
LINE
8
DIMENSION
10
5908.095773
20
1428.279227
30
0
11
5908.095773
21
2928.279227
31
0
0
LINE
8
DIMENSION
10
5908.095773
20
1428.279227
30
0
11
5878.512494
21
1364.837682
31
0
0
LINE
8
DIMENSION
10
5908.095773
20
1428.279227
30
0
11
5937.679051
21
1364.837682
31
0
0
LINE
8
DIMENSION
10
5908.095773
20
2928.279227
30
0
11
5937.679051
21
2991.720773
31
0
0
LINE
8
DIMENSION
10
5908.095773
20
2928.279227
30
0
11
5878.512494
21
2991.720773
31
0
0
TEXT
8
DIMENSION
10
6078.095773
20
2178.279227
30
0
40
85
1
1.5
50
90
7
STANDARD
72
1
73
2
11
6078.095773
21
2178.279227
31
0
0
LINE
8
DIMENSION
10
5268.095773
20
2928.279227
30
0
11
5908.095773
21
2928.279227
31
0
0
LINE
8
DIMENSION
10
5268.095773
20
3428.279227
30
0
11
5908.095773
21
3428.279227
31
0
0
LINE
8
DIMENSION
10
5908.095773
20
2928.279227
30
0
11
5908.095773
21
3428.279227
31
0
0
LINE
8
DIMENSION
10
5908.095773
20
2928.279227
30
0
11
5878.512494
21
2864.837682
31
0
0
LINE
8
DIMENSION
10
5908.095773
20
2928.279227
30
0
11
5937.679051
21
2864.837682
31
0
0
LINE
8
DIMENSION
10
5908.095773
20
3428.279227
30
0
11
5937.679051
21
3491.720773
31
0
0
LINE
8
DIMENSION
10
5908.095773
20
3428.279227
30
0
11
5878.512494
21
3491.720773
31
0
0
TEXT
8
DIMENSION
10
6078.095773
20
3178.279227
30
0
40
85
1
0.5
50
90
7
STANDARD
72
1
73
2
11
6078.095773
21
3178.279227
31
0
0
LINE
8
DIMENSION
10
5268.095773
20
-2571.720773
30
0
11
6358.095773
21
-2571.720773
31
0
0
LINE
8
DIMENSION
10
5268.095773
20
3428.279227
30
0
11
6358.095773
21
3428.279227
31
0
0
LINE
8
DIMENSION
10
6358.095773
20
-2571.720773
30
0
11
6358.095773
21
3428.279227
31
0
0
LINE
8
DIMENSION
10
6358.095773
20
-2571.720773
30
0
11
6328.512494
21
-2635.162318
31
0
0
LINE
8
DIMENSION
10
6358.095773
20
-2571.720773
30
0
11
6387.679051
21
-2635.162318
31
0
0
LINE
8
DIMENSION
10
6358.095773
20
3428.279227
30
0
11
6387.679051
21
3491.720773
31
0
0
LINE
8
DIMENSION
10
6358.095773
20
3428.279227
30
0
11
6328.512494
21
3491.720773
31
0
0
TEXT
8
DIMENSION
10
6528.095773
20
428.279227
30
0
40
85
1
TOTAL 6
50
90
7
STANDARD
72
1
73
2
11
6528.095773
21
428.279227
31
0
0
ENDSEC
0
EOF
