0
SECTION
2
HEADER
9
$ACADVER
1
AC1009
9
$INSUNITS
70
4
9
$MEASUREMENT
70
1
9
$LUNITS
70
2
9
$LUPREC
70
1
9
$TILEMODE
70
1
9
$EXTMIN
10
-6855.345773
20
-3491.720273
30
0
9
$EXTMAX
10
6855.345773
20
3491.720273
30
0
9
$PEXTMIN
10
-6855.345773
20
-3491.720273
30
0
9
$PEXTMAX
10
6855.345773
20
3491.720273
30
0
9
$LIMMIN
10
-7355.345773
20
-3991.720273
9
$LIMMAX
10
7355.345773
20
3991.720273
9
$PLIMMIN
10
-7355.345773
20
-3991.720273
9
$PLIMMAX
10
7355.345773
20
3991.720273
0
ENDSEC
0
SECTION
2
TABLES
0
TABLE
2
VPORT
70
1
0
VPORT
2
*ACTIVE
70
0
10
0
20
0
11
1
21
1
12
0
22
0
40
7983.440545
41
1.842651
42
50
43
0
44
0
50
0
51
0
71
0
72
100
73
1
74
3
75
0
76
0
77
0
78
0
0
ENDTAB
0
TABLE
2
LTYPE
70
2
0
LTYPE
2
CONTINUOUS
70
0
3
Solid line
72
65
73
0
40
0
0
LTYPE
2
DASHED
70
0
3
Dashed
72
65
73
2
40
240
49
120
74
0
49
-120
74
0
0
ENDTAB
0
TABLE
2
LAYER
70
6
0
LAYER
2
PIPES
70
0
62
5
6
CONTINUOUS
0
LAYER
2
PIPE_ENDS
70
0
62
5
6
CONTINUOUS
0
LAYER
2
DIMENSION
70
0
62
1
6
CONTINUOUS
0
LAYER
2
LEVEL_GUIDE
70
0
62
1
6
DASHED
0
LAYER
2
LEVEL_TEXT
70
0
62
1
6
CONTINUOUS
0
LAYER
2
FRAME
70
0
62
5
6
CONTINUOUS
0
ENDTAB
0
TABLE
2
STYLE
70
1
0
STYLE
2
STANDARD
70
0
40
0
41
1
50
0
71
0
42
100
3
txt
4

0
ENDTAB
0
ENDSEC
0
SECTION
2
BLOCKS
0
BLOCK
8
0
2
$MODEL_SPACE
70
0
10
0
20
0
30
0
3
$MODEL_SPACE
0
ENDBLK
8
0
0
BLOCK
67
1
8
0
2
$PAPER_SPACE
70
0
10
0
20
0
30
0
3
$PAPER_SPACE
0
ENDBLK
67
1
8
0
0
ENDSEC
0
SECTION
2
ENTITIES
0
LINE
8
PIPES
10
-6791.903227
20
-2571.720273
30
0
11
-5831.904227
21
-2571.720273
31
0
0
LINE
8
PIPES
10
-5831.904227
20
-2571.720273
30
0
11
-4571.904227
21
-2571.720273
31
0
0
LINE
8
PIPES
10
-4571.904227
20
-2571.720273
30
0
11
-3311.904227
21
-2571.720273
31
0
0
LINE
8
PIPES
10
-2051.904227
20
-2571.720273
30
0
11
-3311.904227
21
-2571.720273
31
0
0
LINE
8
PIPES
10
-2051.904227
20
-2571.720273
30
0
11
-791.904227
21
-2571.720273
31
0
0
LINE
8
PIPES
10
-6791.903227
20
-1611.721273
30
0
11
-5831.904227
21
-1611.721273
31
0
0
LINE
8
PIPES
10
-5831.904227
20
-1611.721273
30
0
11
-4571.904227
21
-1611.721273
31
0
0
LINE
8
PIPES
10
-4571.904227
20
-1611.721273
30
0
11
-3311.904227
21
-1611.721273
31
0
0
LINE
8
PIPES
10
-3311.904227
20
-1611.721273
30
0
11
-2051.904227
21
-1611.721273
31
0
0
LINE
8
PIPES
10
-2051.904227
20
-1611.721273
30
0
11
-791.904227
21
-1611.721273
31
0
0
LINE
8
PIPES
10
-6791.903227
20
-351.721273
30
0
11
-5831.904227
21
-351.721273
31
0
0
LINE
8
PIPES
10
-5831.904227
20
-351.721273
30
0
11
-4571.904227
21
-351.721273
31
0
0
LINE
8
PIPES
10
-4571.904227
20
-351.721273
30
0
11
-3311.904227
21
-351.721273
31
0
0
LINE
8
PIPES
10
-3311.904227
20
-351.721273
30
0
11
-2051.904227
21
-351.721273
31
0
0
LINE
8
PIPES
10
-2051.904227
20
-351.721273
30
0
11
-791.904227
21
-351.721273
31
0
0
LINE
8
PIPES
10
-6791.903227
20
908.278727
30
0
11
-5831.904227
21
908.278727
31
0
0
LINE
8
PIPES
10
-5831.904227
20
908.278727
30
0
11
-4571.904227
21
908.278727
31
0
0
LINE
8
PIPES
10
-4571.904227
20
908.278727
30
0
11
-3311.904227
21
908.278727
31
0
0
LINE
8
PIPES
10
-3311.904227
20
908.278727
30
0
11
-2051.904227
21
908.278727
31
0
0
LINE
8
PIPES
10
-2051.904227
20
908.278727
30
0
11
-791.904227
21
908.278727
31
0
0
LINE
8
PIPES
10
-6791.903227
20
2168.278727
30
0
11
-5831.904227
21
2168.278727
31
0
0
LINE
8
PIPES
10
-5831.904227
20
2168.278727
30
0
11
-4571.904227
21
2168.278727
31
0
0
LINE
8
PIPES
10
-4571.904227
20
2168.278727
30
0
11
-3311.904227
21
2168.278727
31
0
0
LINE
8
PIPES
10
-3311.904227
20
2168.278727
30
0
11
-2051.904227
21
2168.278727
31
0
0
LINE
8
PIPES
10
-2051.904227
20
2168.278727
30
0
11
-791.904227
21
2168.278727
31
0
0
LINE
8
PIPES
10
-6791.903227
20
3428.278727
30
0
11
-5831.904227
21
3428.278727
31
0
0
LINE
8
PIPES
10
-5831.904227
20
3428.278727
30
0
11
-4571.904227
21
3428.278727
31
0
0
LINE
8
PIPES
10
-4571.904227
20
3428.278727
30
0
11
-3311.904227
21
3428.278727
31
0
0
LINE
8
PIPES
10
-3311.904227
20
3428.278727
30
0
11
-2051.904227
21
3428.278727
31
0
0
LINE
8
PIPES
10
-2051.904227
20
3428.278727
30
0
11
-791.904227
21
3428.278727
31
0
0
LINE
8
PIPES
10
-6791.903227
20
-2571.720273
30
0
11
-6791.903227
21
-1611.721273
31
0
0
LINE
8
PIPES
10
-6791.903227
20
-1611.721273
30
0
11
-6791.903227
21
-351.721273
31
0
0
LINE
8
PIPES
10
-6791.903227
20
-351.721273
30
0
11
-6791.903227
21
908.278727
31
0
0
LINE
8
PIPES
10
-6791.903227
20
908.278727
30
0
11
-6791.903227
21
2168.278727
31
0
0
LINE
8
PIPES
10
-6791.903227
20
2168.278727
30
0
11
-6791.903227
21
3428.278727
31
0
0
LINE
8
PIPES
10
-5831.904227
20
-2571.720273
30
0
11
-5831.904227
21
-1611.721273
31
0
0
LINE
8
PIPES
10
-5831.904227
20
-1611.721273
30
0
11
-5831.904227
21
-351.721273
31
0
0
LINE
8
PIPES
10
-5831.904227
20
-351.721273
30
0
11
-5831.904227
21
908.278727
31
0
0
LINE
8
PIPES
10
-5831.904227
20
908.278727
30
0
11
-5831.904227
21
2168.278727
31
0
0
LINE
8
PIPES
10
-5831.904227
20
2168.278727
30
0
11
-5831.904227
21
3428.278727
31
0
0
LINE
8
PIPES
10
-4571.904227
20
-2571.720273
30
0
11
-4571.904227
21
-1611.721273
31
0
0
LINE
8
PIPES
10
-4571.904227
20
-1611.721273
30
0
11
-4571.904227
21
-351.721273
31
0
0
LINE
8
PIPES
10
-4571.904227
20
-351.721273
30
0
11
-4571.904227
21
908.278727
31
0
0
LINE
8
PIPES
10
-4571.904227
20
908.278727
30
0
11
-4571.904227
21
2168.278727
31
0
0
LINE
8
PIPES
10
-4571.904227
20
2168.278727
30
0
11
-4571.904227
21
3428.278727
31
0
0
LINE
8
PIPES
10
-3311.904227
20
-2571.720273
30
0
11
-3311.904227
21
-1611.721273
31
0
0
LINE
8
PIPES
10
-3311.904227
20
-1611.721273
30
0
11
-3311.904227
21
-351.721273
31
0
0
LINE
8
PIPES
10
-3311.904227
20
-351.721273
30
0
11
-3311.904227
21
908.278727
31
0
0
LINE
8
PIPES
10
-3311.904227
20
908.278727
30
0
11
-3311.904227
21
2168.278727
31
0
0
LINE
8
PIPES
10
-3311.904227
20
2168.278727
30
0
11
-3311.904227
21
3428.278727
31
0
0
LINE
8
PIPES
10
-2051.904227
20
-2571.720273
30
0
11
-2051.904227
21
-1611.721273
31
0
0
LINE
8
PIPES
10
-2051.904227
20
-1611.721273
30
0
11
-2051.904227
21
-351.721273
31
0
0
LINE
8
PIPES
10
-2051.904227
20
-351.721273
30
0
11
-2051.904227
21
908.278727
31
0
0
LINE
8
PIPES
10
-2051.904227
20
908.278727
30
0
11
-2051.904227
21
2168.278727
31
0
0
LINE
8
PIPES
10
-2051.904227
20
2168.278727
30
0
11
-2051.904227
21
3428.278727
31
0
0
LINE
8
PIPES
10
-6791.903227
20
-2571.720273
30
0
11
-6291.902227
21
-2571.720273
31
0
0
LINE
8
PIPES
10
-6291.902227
20
3428.278727
30
0
11
-6791.903227
21
3428.278727
31
0
0
LINE
8
PIPES
10
-6791.903227
20
-2571.720273
30
0
11
-6791.903227
21
-2071.719273
31
0
0
LINE
8
PIPES
10
-6791.903227
20
2168.278727
30
0
11
-6791.903227
21
2928.278727
31
0
0
LINE
8
PIPES
10
-6791.903227
20
-1611.721273
30
0
11
-6291.902227
21
-1611.721273
31
0
0
LINE
8
PIPES
10
-6291.902227
20
-1611.721273
30
0
11
-5831.904227
21
-1611.721273
31
0
0
LINE
8
PIPES
10
-6791.903227
20
-351.721273
30
0
11
-6291.902227
21
-351.721273
31
0
0
LINE
8
PIPES
10
-6291.902227
20
-351.721273
30
0
11
-5831.904227
21
-351.721273
31
0
0
LINE
8
PIPES
10
-6791.903227
20
908.278727
30
0
11
-6291.902227
21
908.278727
31
0
0
LINE
8
PIPES
10
-6291.902227
20
908.278727
30
0
11
-5831.904227
21
908.278727
31
0
0
LINE
8
PIPES
10
-6791.903227
20
2168.278727
30
0
11
-6291.902227
21
2168.278727
31
0
0
LINE
8
PIPES
10
-6291.902227
20
2168.278727
30
0
11
-5831.904227
21
2168.278727
31
0
0
LINE
8
PIPES
10
-4571.904227
20
-2571.720273
30
0
11
-4571.904227
21
-2071.719273
31
0
0
LINE
8
PIPES
10
-4571.904227
20
3428.278727
30
0
11
-4571.904227
21
2928.278727
31
0
0
LINE
8
PIPES
10
-4571.904227
20
-2071.719273
30
0
11
-4571.904227
21
-1611.721273
31
0
0
LINE
8
PIPES
10
-4571.904227
20
2928.278727
30
0
11
-4571.904227
21
2168.278727
31
0
0
LINE
8
PIPES
10
-3311.904227
20
-2571.720273
30
0
11
-3311.904227
21
-2071.719273
31
0
0
LINE
8
PIPES
10
-3311.904227
20
3428.278727
30
0
11
-3311.904227
21
2928.278727
31
0
0
LINE
8
PIPES
10
-3311.904227
20
-2071.719273
30
0
11
-3311.904227
21
-1611.721273
31
0
0
LINE
8
PIPES
10
-3311.904227
20
2928.278727
30
0
11
-3311.904227
21
2168.278727
31
0
0
LINE
8
PIPES
10
-5831.904227
20
-2571.720273
30
0
11
-5831.904227
21
-2071.719273
31
0
0
LINE
8
PIPES
10
-5831.904227
20
3428.278727
30
0
11
-5831.904227
21
2928.278727
31
0
0
LINE
8
PIPES
10
-5831.904227
20
-2071.719273
30
0
11
-5831.904227
21
-1611.721273
31
0
0
LINE
8
PIPES
10
-5831.904227
20
2928.278727
30
0
11
-5831.904227
21
2168.278727
31
0
0
LINE
8
PIPES
10
-2051.904227
20
-2571.720273
30
0
11
-2051.904227
21
-2071.719273
31
0
0
LINE
8
PIPES
10
-2051.904227
20
3428.278727
30
0
11
-2051.904227
21
2928.278727
31
0
0
LINE
8
PIPES
10
-2051.904227
20
-2071.719273
30
0
11
-2051.904227
21
-1611.721273
31
0
0
LINE
8
PIPES
10
-2051.904227
20
2928.278727
30
0
11
-2051.904227
21
2168.278727
31
0
0
LINE
8
PIPES
10
-6291.902227
20
-2071.719273
30
0
11
-5831.904227
21
-2071.719273
31
0
0
LINE
8
PIPES
10
-5831.904227
20
-2071.719273
30
0
11
-4571.904227
21
-2071.719273
31
0
0
LINE
8
PIPES
10
-4571.904227
20
-2071.719273
30
0
11
-3311.904227
21
-2071.719273
31
0
0
LINE
8
PIPES
10
-3311.904227
20
-2071.719273
30
0
11
-2051.904227
21
-2071.719273
31
0
0
LINE
8
PIPES
10
-2051.904227
20
-2071.719273
30
0
11
-791.894227
21
-2071.719273
31
0
0
LINE
8
PIPES
10
-6291.902227
20
2928.278727
30
0
11
-5831.904227
21
2928.278727
31
0
0
LINE
8
PIPES
10
-5831.904227
20
2928.278727
30
0
11
-4571.904227
21
2928.278727
31
0
0
LINE
8
PIPES
10
-3311.904227
20
2928.278727
30
0
11
-2051.904227
21
2928.278727
31
0
0
LINE
8
PIPES
10
-2051.904227
20
2928.278727
30
0
11
-791.894227
21
2928.278727
31
0
0
LINE
8
PIPES
10
-6291.902227
20
-2571.720273
30
0
11
-5831.904227
21
-2571.720273
31
0
0
LINE
8
PIPES
10
-6291.902227
20
3428.278727
30
0
11
-5831.904227
21
3428.278727
31
0
0
LINE
8
PIPES
10
-6291.902227
20
-2571.720273
30
0
11
-6291.902227
21
-2071.719273
31
0
0
LINE
8
PIPES
10
-6291.902227
20
-2071.719273
30
0
11
-6291.902227
21
-1611.721273
31
0
0
LINE
8
PIPES
10
-6291.902227
20
-351.721273
30
0
11
-6291.902227
21
908.278727
31
0
0
LINE
8
PIPES
10
-6291.902227
20
2928.278727
30
0
11
-6291.902227
21
3428.278727
31
0
0
LINE
8
PIPES
10
-4571.904227
20
-2571.720273
30
0
11
-4571.904227
21
-2525.361273
31
0
0
LINE
8
PIPES
10
-4571.904227
20
-2525.361273
30
0
11
-4571.904227
21
-2227.679273
31
0
0
LINE
8
PIPES
10
-4571.904227
20
-2227.679273
30
0
11
-4571.904227
21
-1929.997273
31
0
0
LINE
8
PIPES
10
-4571.904227
20
-1929.997273
30
0
11
-4571.904227
21
-1632.311273
31
0
0
LINE
8
PIPES
10
-4571.904227
20
-1632.311273
30
0
11
-4571.904227
21
-1611.721273
31
0
0
LINE
8
PIPES
10
-4571.904227
20
-1334.631273
30
0
11
-4571.904227
21
-1036.951273
31
0
0
LINE
8
PIPES
10
-4571.904227
20
-1036.951273
30
0
11
-4571.904227
21
-739.271273
31
0
0
LINE
8
PIPES
10
-4571.904227
20
-739.271273
30
0
11
-4571.904227
21
-441.591273
31
0
0
LINE
8
PIPES
10
-4571.904227
20
-441.591273
30
0
11
-4571.904227
21
-351.721273
31
0
0
LINE
8
PIPES
10
-4571.904227
20
-143.901273
30
0
11
-4571.904227
21
153.778727
31
0
0
LINE
8
PIPES
10
-4571.904227
20
153.778727
30
0
11
-4571.904227
21
451.458727
31
0
0
LINE
8
PIPES
10
-4571.904227
20
451.458727
30
0
11
-4571.904227
21
749.138727
31
0
0
LINE
8
PIPES
10
-4571.904227
20
749.138727
30
0
11
-4571.904227
21
908.278727
31
0
0
LINE
8
PIPES
10
-4571.904227
20
1046.818727
30
0
11
-4571.904227
21
1344.508727
31
0
0
LINE
8
PIPES
10
-4571.904227
20
1344.508727
30
0
11
-4571.904227
21
1642.188727
31
0
0
LINE
8
PIPES
10
-4571.904227
20
1642.188727
30
0
11
-4571.904227
21
1939.868727
31
0
0
LINE
8
PIPES
10
-4571.904227
20
1939.868727
30
0
11
-4571.904227
21
2168.278727
31
0
0
LINE
8
PIPES
10
-4571.904227
20
2237.548727
30
0
11
-4571.904227
21
2535.228727
31
0
0
LINE
8
PIPES
10
-4571.904227
20
2535.228727
30
0
11
-4571.904227
21
2832.918727
31
0
0
LINE
8
PIPES
10
-4571.904227
20
2832.918727
30
0
11
-4571.904227
21
3130.598727
31
0
0
LINE
8
PIPES
10
-4571.904227
20
3130.598727
30
0
11
-4571.904227
21
3428.278727
31
0
0
LINE
8
PIPES
10
-3311.904227
20
-2571.720273
30
0
11
-3311.904227
21
-2525.361273
31
0
0
LINE
8
PIPES
10
-3311.904227
20
-2525.361273
30
0
11
-3311.904227
21
-2227.679273
31
0
0
LINE
8
PIPES
10
-3311.904227
20
-2227.679273
30
0
11
-3311.904227
21
-1929.997273
31
0
0
LINE
8
PIPES
10
-3311.904227
20
-1929.997273
30
0
11
-3311.904227
21
-1632.311273
31
0
0
LINE
8
PIPES
10
-3311.904227
20
-1632.311273
30
0
11
-3311.904227
21
-1611.721273
31
0
0
LINE
8
PIPES
10
-3311.904227
20
-1334.631273
30
0
11
-3311.904227
21
-1036.951273
31
0
0
LINE
8
PIPES
10
-3311.904227
20
-1036.951273
30
0
11
-3311.904227
21
-739.271273
31
0
0
LINE
8
PIPES
10
-3311.904227
20
-739.271273
30
0
11
-3311.904227
21
-441.591273
31
0
0
LINE
8
PIPES
10
-3311.904227
20
-441.591273
30
0
11
-3311.904227
21
-351.721273
31
0
0
LINE
8
PIPES
10
-3311.904227
20
-143.901273
30
0
11
-3311.904227
21
153.778727
31
0
0
LINE
8
PIPES
10
-3311.904227
20
153.778727
30
0
11
-3311.904227
21
451.458727
31
0
0
LINE
8
PIPES
10
-3311.904227
20
451.458727
30
0
11
-3311.904227
21
749.138727
31
0
0
LINE
8
PIPES
10
-3311.904227
20
749.138727
30
0
11
-3311.904227
21
908.278727
31
0
0
LINE
8
PIPES
10
-3311.904227
20
1046.818727
30
0
11
-3311.904227
21
1344.508727
31
0
0
LINE
8
PIPES
10
-3311.904227
20
1344.508727
30
0
11
-3311.904227
21
1642.188727
31
0
0
LINE
8
PIPES
10
-3311.904227
20
1642.188727
30
0
11
-3311.904227
21
1939.868727
31
0
0
LINE
8
PIPES
10
-3311.904227
20
1939.868727
30
0
11
-3311.904227
21
2168.278727
31
0
0
LINE
8
PIPES
10
-3311.904227
20
2237.548727
30
0
11
-3311.904227
21
2535.228727
31
0
0
LINE
8
PIPES
10
-3311.904227
20
2535.228727
30
0
11
-3311.904227
21
2832.918727
31
0
0
LINE
8
PIPES
10
-3311.904227
20
2832.918727
30
0
11
-3311.904227
21
3130.598727
31
0
0
LINE
8
PIPES
10
-3311.904227
20
3130.598727
30
0
11
-3311.904227
21
3428.278727
31
0
0
LINE
8
PIPES
10
-791.904227
20
-2571.720273
30
0
11
-791.904227
21
-1611.721273
31
0
0
LINE
8
PIPES
10
-791.904227
20
-1611.721273
30
0
11
-791.904227
21
-351.721273
31
0
0
LINE
8
PIPES
10
-791.904227
20
-351.721273
30
0
11
-791.904227
21
908.278727
31
0
0
LINE
8
PIPES
10
-791.904227
20
908.278727
30
0
11
-791.904227
21
2168.278727
31
0
0
LINE
8
PIPES
10
-791.904227
20
2168.278727
30
0
11
-791.904227
21
3428.278727
31
0
0
LINE
8
PIPES
10
-6291.902227
20
-1611.721273
30
0
11
-6291.902227
21
-351.721273
31
0
0
LINE
8
PIPES
10
-6291.902227
20
908.278727
30
0
11
-6291.902227
21
2168.278727
31
0
0
LINE
8
PIPES
10
-6291.902227
20
2168.278727
30
0
11
-6291.902227
21
2928.278727
31
0
0
LINE
8
PIPES
10
-4571.904227
20
-1611.721273
30
0
11
-4571.904227
21
-1334.631273
31
0
0
LINE
8
PIPES
10
-4571.904227
20
-351.721273
30
0
11
-4571.904227
21
-143.901273
31
0
0
LINE
8
PIPES
10
-4571.904227
20
908.278727
30
0
11
-4571.904227
21
1046.818727
31
0
0
LINE
8
PIPES
10
-4571.904227
20
2168.278727
30
0
11
-4571.904227
21
2237.548727
31
0
0
LINE
8
PIPES
10
-3311.904227
20
-1611.721273
30
0
11
-3311.904227
21
-1334.631273
31
0
0
LINE
8
PIPES
10
-3311.904227
20
-351.721273
30
0
11
-3311.904227
21
-143.901273
31
0
0
LINE
8
PIPES
10
-3311.904227
20
908.278727
30
0
11
-3311.904227
21
1046.818727
31
0
0
LINE
8
PIPES
10
-3311.904227
20
2168.278727
30
0
11
-3311.904227
21
2237.548727
31
0
0
LINE
8
PIPES
10
-3311.904227
20
-1611.721273
30
0
11
-2051.894227
21
-1611.721273
31
0
0
LINE
8
PIPES
10
-3311.904227
20
-351.721273
30
0
11
-2051.894227
21
-351.721273
31
0
0
LINE
8
PIPES
10
-3311.904227
20
908.278727
30
0
11
-2051.894227
21
908.278727
31
0
0
LINE
8
PIPES
10
-3311.904227
20
2168.278727
30
0
11
-2051.894227
21
2168.278727
31
0
0
LINE
8
PIPES
10
-791.904227
20
-1611.721273
30
0
11
-2051.894227
21
-1611.721273
31
0
0
LINE
8
PIPES
10
-2051.894227
20
-351.721273
30
0
11
-791.904227
21
-351.721273
31
0
0
LINE
8
PIPES
10
-791.904227
20
908.278727
30
0
11
-2051.894227
21
908.278727
31
0
0
LINE
8
PIPES
10
-2051.894227
20
2168.278727
30
0
11
-791.904227
21
2168.278727
31
0
0
LINE
8
PIPES
10
-2051.904227
20
-2571.720273
30
0
11
-2051.894227
21
-1611.721273
31
0
0
LINE
8
PIPES
10
-2051.894227
20
-1611.721273
30
0
11
-2051.894227
21
-351.721273
31
0
0
LINE
8
PIPES
10
-2051.894227
20
-351.721273
30
0
11
-2051.894227
21
908.278727
31
0
0
LINE
8
PIPES
10
-2051.894227
20
908.278727
30
0
11
-2051.894227
21
2168.278727
31
0
0
LINE
8
PIPES
10
-2051.894227
20
2168.278727
30
0
11
-2051.904227
21
3428.278727
31
0
0
LINE
8
PIPES
10
-6791.903227
20
-2071.719273
30
0
11
-6791.903227
21
-1611.721273
31
0
0
LINE
8
PIPES
10
-6791.903227
20
2928.278727
30
0
11
-6791.903227
21
3428.278727
31
0
0
LINE
8
PIPES
10
-6291.902227
20
-2071.719273
30
0
11
-6791.903227
21
-2071.719273
31
0
0
LINE
8
PIPES
10
-6291.902227
20
2928.278727
30
0
11
-6791.903227
21
2928.278727
31
0
0
LINE
8
PIPES
10
-6791.903227
20
-2571.720273
30
0
11
-5831.904227
21
-1611.721273
31
0
0
LINE
8
PIPES
10
-5831.904227
20
-1611.721273
30
0
11
-6791.903227
21
-351.721273
31
0
0
LINE
8
PIPES
10
-6791.903227
20
-351.721273
30
0
11
-5831.904227
21
908.278727
31
0
0
LINE
8
PIPES
10
-5831.904227
20
908.278727
30
0
11
-6791.903227
21
2168.278727
31
0
0
LINE
8
PIPES
10
-6791.903227
20
2168.278727
30
0
11
-5831.904227
21
3428.278727
31
0
0
LINE
8
PIPES
10
-5831.904227
20
-2571.720273
30
0
11
-4571.904227
21
-1611.721273
31
0
0
LINE
8
PIPES
10
-4571.904227
20
-1611.721273
30
0
11
-5831.904227
21
-351.721273
31
0
0
LINE
8
PIPES
10
-4571.904227
20
-2571.720273
30
0
11
-3311.904227
21
-1611.721273
31
0
0
LINE
8
PIPES
10
-5831.904227
20
-351.721273
30
0
11
-4571.904227
21
908.278727
31
0
0
LINE
8
PIPES
10
-4571.904227
20
908.278727
30
0
11
-5831.904227
21
2168.278727
31
0
0
LINE
8
PIPES
10
-5831.904227
20
2168.278727
30
0
11
-4571.904227
21
3428.278727
31
0
0
LINE
8
PIPES
10
-3311.904227
20
-1611.721273
30
0
11
-4571.904227
21
-351.721273
31
0
0
LINE
8
PIPES
10
-4571.904227
20
-351.721273
30
0
11
-3311.904227
21
908.278727
31
0
0
LINE
8
PIPES
10
-3311.904227
20
908.278727
30
0
11
-4571.904227
21
2168.278727
31
0
0
LINE
8
PIPES
10
-4571.904227
20
2168.278727
30
0
11
-3311.904227
21
3428.278727
31
0
0
LINE
8
PIPES
10
-3311.904227
20
-2571.720273
30
0
11
-2051.894227
21
-1611.721273
31
0
0
LINE
8
PIPES
10
-2051.894227
20
-1611.721273
30
0
11
-3311.904227
21
-351.721273
31
0
0
LINE
8
PIPES
10
-3311.904227
20
-351.721273
30
0
11
-2051.894227
21
908.278727
31
0
0
LINE
8
PIPES
10
-2051.894227
20
908.278727
30
0
11
-3311.904227
21
2168.278727
31
0
0
LINE
8
PIPES
10
-3311.904227
20
2168.278727
30
0
11
-2051.904227
21
3428.278727
31
0
0
LINE
8
PIPES
10
-2051.904227
20
-2571.720273
30
0
11
-791.904227
21
-1611.721273
31
0
0
LINE
8
PIPES
10
-791.904227
20
-1611.721273
30
0
11
-2051.894227
21
-351.721273
31
0
0
LINE
8
PIPES
10
-2051.894227
20
-351.721273
30
0
11
-791.904227
21
908.278727
31
0
0
LINE
8
PIPES
10
-791.904227
20
908.278727
30
0
11
-2051.894227
21
2168.278727
31
0
0
LINE
8
PIPES
10
-2051.894227
20
2168.278727
30
0
11
-791.904227
21
3428.278727
31
0
0
LINE
8
PIPES
10
-5831.904227
20
-2571.720273
30
0
11
-6791.903227
21
-1611.721273
31
0
0
LINE
8
PIPES
10
-6791.903227
20
-1611.721273
30
0
11
-5831.904227
21
-351.721273
31
0
0
LINE
8
PIPES
10
-5831.904227
20
-351.721273
30
0
11
-6791.903227
21
908.278727
31
0
0
LINE
8
PIPES
10
-6791.903227
20
908.278727
30
0
11
-5831.904227
21
2168.278727
31
0
0
LINE
8
PIPES
10
-5831.904227
20
2168.278727
30
0
11
-6791.903227
21
3428.278727
31
0
0
LINE
8
PIPES
10
-4571.904227
20
-2571.720273
30
0
11
-5831.904227
21
-1611.721273
31
0
0
LINE
8
PIPES
10
-5831.904227
20
-1611.721273
30
0
11
-4571.904227
21
-351.721273
31
0
0
LINE
8
PIPES
10
-4571.904227
20
-351.721273
30
0
11
-5831.904227
21
908.278727
31
0
0
LINE
8
PIPES
10
-5831.904227
20
908.278727
30
0
11
-4571.904227
21
2168.278727
31
0
0
LINE
8
PIPES
10
-4571.904227
20
2168.278727
30
0
11
-5831.904227
21
3428.278727
31
0
0
LINE
8
PIPES
10
-3311.904227
20
-2571.720273
30
0
11
-4571.904227
21
-1611.721273
31
0
0
LINE
8
PIPES
10
-4571.904227
20
-1611.721273
30
0
11
-3311.904227
21
-351.721273
31
0
0
LINE
8
PIPES
10
-3311.904227
20
-351.721273
30
0
11
-4571.904227
21
908.278727
31
0
0
LINE
8
PIPES
10
-4571.904227
20
908.278727
30
0
11
-3311.904227
21
2168.278727
31
0
0
LINE
8
PIPES
10
-3311.904227
20
2168.278727
30
0
11
-4571.904227
21
3428.278727
31
0
0
LINE
8
PIPES
10
-2051.904227
20
-2571.720273
30
0
11
-3311.904227
21
-1611.721273
31
0
0
LINE
8
PIPES
10
-3311.904227
20
-1611.721273
30
0
11
-2051.894227
21
-351.721273
31
0
0
LINE
8
PIPES
10
-2051.894227
20
-351.721273
30
0
11
-3311.904227
21
908.278727
31
0
0
LINE
8
PIPES
10
-3311.904227
20
908.278727
30
0
11
-2051.894227
21
2168.278727
31
0
0
LINE
8
PIPES
10
-2051.894227
20
2168.278727
30
0
11
-3311.904227
21
3428.278727
31
0
0
LINE
8
PIPES
10
-791.904227
20
-2571.720273
30
0
11
-2051.894227
21
-1611.721273
31
0
0
LINE
8
PIPES
10
-2051.894227
20
-1611.721273
30
0
11
-791.904227
21
-351.721273
31
0
0
LINE
8
PIPES
10
-791.904227
20
-351.721273
30
0
11
-2051.894227
21
908.278727
31
0
0
LINE
8
PIPES
10
-2051.894227
20
908.278727
30
0
11
-791.904227
21
2168.278727
31
0
0
LINE
8
PIPES
10
-791.904227
20
2168.278727
30
0
11
-2051.904227
21
3428.278727
31
0
0
LINE
8
PIPES
10
-791.904227
20
-2571.720273
30
0
11
468.105773
21
-2571.720273
31
0
0
LINE
8
PIPES
10
468.105773
20
-2571.720273
30
0
11
1728.105773
21
-2571.720273
31
0
0
LINE
8
PIPES
10
1728.105773
20
-2571.720273
30
0
11
2988.095773
21
-2571.720273
31
0
0
LINE
8
PIPES
10
4248.095773
20
-2571.720273
30
0
11
2988.095773
21
-2571.720273
31
0
0
LINE
8
PIPES
10
4248.095773
20
-2571.720273
30
0
11
5208.095773
21
-2571.720273
31
0
0
LINE
8
PIPES
10
-791.904227
20
-1611.721273
30
0
11
468.105773
21
-1611.721273
31
0
0
LINE
8
PIPES
10
468.105773
20
-1611.721273
30
0
11
1728.105773
21
-1611.721273
31
0
0
LINE
8
PIPES
10
1728.105773
20
-1611.721273
30
0
11
2988.095773
21
-1611.721273
31
0
0
LINE
8
PIPES
10
2988.095773
20
-1611.721273
30
0
11
4248.095773
21
-1611.721273
31
0
0
LINE
8
PIPES
10
5208.095773
20
-1611.721273
30
0
11
4248.095773
21
-1611.721273
31
0
0
LINE
8
PIPES
10
-791.904227
20
-351.721273
30
0
11
468.105773
21
-351.721273
31
0
0
LINE
8
PIPES
10
468.105773
20
-351.721273
30
0
11
1728.105773
21
-351.721273
31
0
0
LINE
8
PIPES
10
1728.105773
20
-351.721273
30
0
11
2988.095773
21
-351.721273
31
0
0
LINE
8
PIPES
10
2988.095773
20
-351.721273
30
0
11
4248.095773
21
-351.721273
31
0
0
LINE
8
PIPES
10
4248.095773
20
-351.721273
30
0
11
5208.095773
21
-351.721273
31
0
0
LINE
8
PIPES
10
-791.904227
20
908.278727
30
0
11
468.105773
21
908.278727
31
0
0
LINE
8
PIPES
10
468.105773
20
908.278727
30
0
11
1728.105773
21
908.278727
31
0
0
LINE
8
PIPES
10
1728.105773
20
908.278727
30
0
11
2988.095773
21
908.278727
31
0
0
LINE
8
PIPES
10
2988.095773
20
908.278727
30
0
11
4248.095773
21
908.278727
31
0
0
LINE
8
PIPES
10
5208.095773
20
908.278727
30
0
11
4248.095773
21
908.278727
31
0
0
LINE
8
PIPES
10
-791.904227
20
2168.278727
30
0
11
468.105773
21
2168.278727
31
0
0
LINE
8
PIPES
10
468.105773
20
2168.278727
30
0
11
1728.105773
21
2168.278727
31
0
0
LINE
8
PIPES
10
1728.105773
20
2168.278727
30
0
11
2988.095773
21
2168.278727
31
0
0
LINE
8
PIPES
10
2988.095773
20
2168.278727
30
0
11
4248.095773
21
2168.278727
31
0
0
LINE
8
PIPES
10
4248.095773
20
2168.278727
30
0
11
5208.095773
21
2168.278727
31
0
0
LINE
8
PIPES
10
-791.904227
20
3428.278727
30
0
11
468.105773
21
3428.278727
31
0
0
LINE
8
PIPES
10
468.105773
20
3428.278727
30
0
11
1728.105773
21
3428.278727
31
0
0
LINE
8
PIPES
10
1728.105773
20
3428.278727
30
0
11
2988.095773
21
3428.278727
31
0
0
LINE
8
PIPES
10
2988.095773
20
3428.278727
30
0
11
4248.095773
21
3428.278727
31
0
0
LINE
8
PIPES
10
4248.095773
20
3428.278727
30
0
11
5208.095773
21
3428.278727
31
0
0
LINE
8
PIPES
10
468.105773
20
-2571.720273
30
0
11
468.105773
21
-1611.721273
31
0
0
LINE
8
PIPES
10
468.105773
20
-1611.721273
30
0
11
468.105773
21
-351.721273
31
0
0
LINE
8
PIPES
10
468.105773
20
-351.721273
30
0
11
468.105773
21
908.278727
31
0
0
LINE
8
PIPES
10
468.105773
20
908.278727
30
0
11
468.105773
21
2168.278727
31
0
0
LINE
8
PIPES
10
468.105773
20
2168.278727
30
0
11
468.105773
21
3428.278727
31
0
0
LINE
8
PIPES
10
1728.105773
20
-2571.720273
30
0
11
1728.105773
21
-1611.721273
31
0
0
LINE
8
PIPES
10
1728.105773
20
-1611.721273
30
0
11
1728.105773
21
-351.721273
31
0
0
LINE
8
PIPES
10
1728.105773
20
-351.721273
30
0
11
1728.105773
21
908.278727
31
0
0
LINE
8
PIPES
10
1728.105773
20
908.278727
30
0
11
1728.105773
21
2168.278727
31
0
0
LINE
8
PIPES
10
1728.105773
20
2168.278727
30
0
11
1728.105773
21
3428.278727
31
0
0
LINE
8
PIPES
10
2988.095773
20
-2571.720273
30
0
11
2988.095773
21
-1611.721273
31
0
0
LINE
8
PIPES
10
2988.095773
20
-1611.721273
30
0
11
2988.095773
21
-351.721273
31
0
0
LINE
8
PIPES
10
2988.095773
20
-351.721273
30
0
11
2988.095773
21
908.278727
31
0
0
LINE
8
PIPES
10
2988.095773
20
908.278727
30
0
11
2988.095773
21
2168.278727
31
0
0
LINE
8
PIPES
10
2988.095773
20
2168.278727
30
0
11
2988.095773
21
3428.278727
31
0
0
LINE
8
PIPES
10
4248.095773
20
-2571.720273
30
0
11
4248.095773
21
-1611.721273
31
0
0
LINE
8
PIPES
10
4248.095773
20
-1611.721273
30
0
11
4248.095773
21
-351.721273
31
0
0
LINE
8
PIPES
10
4248.095773
20
-351.721273
30
0
11
4248.095773
21
908.278727
31
0
0
LINE
8
PIPES
10
4248.095773
20
908.278727
30
0
11
4248.095773
21
2168.278727
31
0
0
LINE
8
PIPES
10
4248.095773
20
2168.278727
30
0
11
4248.095773
21
3428.278727
31
0
0
LINE
8
PIPES
10
5208.095773
20
-2571.720273
30
0
11
5208.095773
21
-1611.721273
31
0
0
LINE
8
PIPES
10
5208.095773
20
-1611.721273
30
0
11
5208.095773
21
-351.721273
31
0
0
LINE
8
PIPES
10
5208.095773
20
-351.721273
30
0
11
5208.095773
21
908.278727
31
0
0
LINE
8
PIPES
10
5208.095773
20
908.278727
30
0
11
5208.095773
21
2168.278727
31
0
0
LINE
8
PIPES
10
5208.095773
20
2168.278727
30
0
11
5208.095773
21
3428.278727
31
0
0
LINE
8
PIPES
10
4248.095773
20
-2571.720273
30
0
11
4708.095773
21
-2571.720273
31
0
0
LINE
8
PIPES
10
4708.095773
20
3428.278727
30
0
11
4248.095773
21
3428.278727
31
0
0
LINE
8
PIPES
10
5208.095773
20
-2571.720273
30
0
11
5208.095773
21
-2071.719273
31
0
0
LINE
8
PIPES
10
5208.095773
20
2168.278727
30
0
11
5208.095773
21
2928.278727
31
0
0
LINE
8
PIPES
10
4248.095773
20
-1611.721273
30
0
11
4708.095773
21
-1611.721273
31
0
0
LINE
8
PIPES
10
5208.095773
20
-1611.721273
30
0
11
4708.095773
21
-1611.721273
31
0
0
LINE
8
PIPES
10
4248.095773
20
-351.721273
30
0
11
4708.095773
21
-351.721273
31
0
0
LINE
8
PIPES
10
5208.095773
20
-351.721273
30
0
11
4708.095773
21
-351.721273
31
0
0
LINE
8
PIPES
10
4248.095773
20
908.278727
30
0
11
4708.095773
21
908.278727
31
0
0
LINE
8
PIPES
10
5208.095773
20
908.278727
30
0
11
4708.095773
21
908.278727
31
0
0
LINE
8
PIPES
10
4248.095773
20
2168.278727
30
0
11
4708.095773
21
2168.278727
31
0
0
LINE
8
PIPES
10
5208.095773
20
2168.278727
30
0
11
4708.095773
21
2168.278727
31
0
0
LINE
8
PIPES
10
1728.105773
20
-2571.720273
30
0
11
1728.105773
21
-2071.719273
31
0
0
LINE
8
PIPES
10
1728.105773
20
3428.278727
30
0
11
1728.105773
21
2928.278727
31
0
0
LINE
8
PIPES
10
1728.105773
20
-2071.719273
30
0
11
1728.105773
21
-1611.721273
31
0
0
LINE
8
PIPES
10
1728.105773
20
2928.278727
30
0
11
1728.105773
21
2168.278727
31
0
0
LINE
8
PIPES
10
2988.095773
20
-2571.720273
30
0
11
2988.095773
21
-2071.719273
31
0
0
LINE
8
PIPES
10
2988.095773
20
3428.278727
30
0
11
2988.095773
21
2928.278727
31
0
0
LINE
8
PIPES
10
2988.095773
20
-2071.719273
30
0
11
2988.095773
21
-1611.721273
31
0
0
LINE
8
PIPES
10
2988.095773
20
2928.278727
30
0
11
2988.095773
21
2168.278727
31
0
0
LINE
8
PIPES
10
468.105773
20
-2571.720273
30
0
11
468.105773
21
-2071.719273
31
0
0
LINE
8
PIPES
10
468.105773
20
3428.278727
30
0
11
468.105773
21
2928.278727
31
0
0
LINE
8
PIPES
10
468.105773
20
-2071.719273
30
0
11
468.105773
21
-1611.721273
31
0
0
LINE
8
PIPES
10
468.105773
20
2928.278727
30
0
11
468.105773
21
2168.278727
31
0
0
LINE
8
PIPES
10
4248.095773
20
-2571.720273
30
0
11
4248.095773
21
-2071.719273
31
0
0
LINE
8
PIPES
10
4248.095773
20
3428.278727
30
0
11
4248.095773
21
2928.278727
31
0
0
LINE
8
PIPES
10
4248.095773
20
-2071.719273
30
0
11
4248.095773
21
-1611.721273
31
0
0
LINE
8
PIPES
10
4248.095773
20
2928.278727
30
0
11
4248.095773
21
2168.278727
31
0
0
LINE
8
PIPES
10
468.105773
20
-2071.719273
30
0
11
1728.105773
21
-2071.719273
31
0
0
LINE
8
PIPES
10
1728.105773
20
-2071.719273
30
0
11
2988.095773
21
-2071.719273
31
0
0
LINE
8
PIPES
10
2988.095773
20
-2071.719273
30
0
11
4248.095773
21
-2071.719273
31
0
0
LINE
8
PIPES
10
4248.095773
20
-2071.719273
30
0
11
4708.095773
21
-2071.719273
31
0
0
LINE
8
PIPES
10
468.105773
20
2928.278727
30
0
11
1728.105773
21
2928.278727
31
0
0
LINE
8
PIPES
10
2988.095773
20
2928.278727
30
0
11
4248.095773
21
2928.278727
31
0
0
LINE
8
PIPES
10
4248.095773
20
2928.278727
30
0
11
4708.095773
21
2928.278727
31
0
0
LINE
8
PIPES
10
4708.095773
20
-2571.720273
30
0
11
5208.095773
21
-2571.720273
31
0
0
LINE
8
PIPES
10
4708.095773
20
3428.278727
30
0
11
5208.095773
21
3428.278727
31
0
0
LINE
8
PIPES
10
4708.095773
20
-2571.720273
30
0
11
4708.095773
21
-2071.719273
31
0
0
LINE
8
PIPES
10
4708.095773
20
-2071.719273
30
0
11
4708.095773
21
-1611.721273
31
0
0
LINE
8
PIPES
10
4708.095773
20
-351.721273
30
0
11
4708.095773
21
908.278727
31
0
0
LINE
8
PIPES
10
4708.095773
20
2928.278727
30
0
11
4708.095773
21
3428.278727
31
0
0
LINE
8
PIPES
10
1728.105773
20
-2571.720273
30
0
11
1728.105773
21
-2525.361273
31
0
0
LINE
8
PIPES
10
1728.105773
20
-2525.361273
30
0
11
1728.105773
21
-2227.679273
31
0
0
LINE
8
PIPES
10
1728.105773
20
-2227.679273
30
0
11
1728.105773
21
-1929.997273
31
0
0
LINE
8
PIPES
10
1728.105773
20
-1929.997273
30
0
11
1728.105773
21
-1632.311273
31
0
0
LINE
8
PIPES
10
1728.105773
20
-1632.311273
30
0
11
1728.105773
21
-1611.721273
31
0
0
LINE
8
PIPES
10
1728.105773
20
-1334.631273
30
0
11
1728.105773
21
-1036.951273
31
0
0
LINE
8
PIPES
10
1728.105773
20
-1036.951273
30
0
11
1728.105773
21
-739.271273
31
0
0
LINE
8
PIPES
10
1728.105773
20
-739.271273
30
0
11
1728.105773
21
-441.591273
31
0
0
LINE
8
PIPES
10
1728.105773
20
-441.591273
30
0
11
1728.105773
21
-351.721273
31
0
0
LINE
8
PIPES
10
1728.105773
20
-143.901273
30
0
11
1728.105773
21
153.778727
31
0
0
LINE
8
PIPES
10
1728.105773
20
153.778727
30
0
11
1728.105773
21
451.458727
31
0
0
LINE
8
PIPES
10
1728.105773
20
451.458727
30
0
11
1728.105773
21
749.138727
31
0
0
LINE
8
PIPES
10
1728.105773
20
749.138727
30
0
11
1728.105773
21
908.278727
31
0
0
LINE
8
PIPES
10
1728.105773
20
1046.818727
30
0
11
1728.105773
21
1344.508727
31
0
0
LINE
8
PIPES
10
1728.105773
20
1344.508727
30
0
11
1728.105773
21
1642.188727
31
0
0
LINE
8
PIPES
10
1728.105773
20
1642.188727
30
0
11
1728.105773
21
1939.868727
31
0
0
LINE
8
PIPES
10
1728.105773
20
1939.868727
30
0
11
1728.105773
21
2168.278727
31
0
0
LINE
8
PIPES
10
1728.105773
20
2237.548727
30
0
11
1728.105773
21
2535.228727
31
0
0
LINE
8
PIPES
10
1728.105773
20
2535.228727
30
0
11
1728.105773
21
2832.918727
31
0
0
LINE
8
PIPES
10
1728.105773
20
2832.918727
30
0
11
1728.105773
21
3130.598727
31
0
0
LINE
8
PIPES
10
1728.105773
20
3130.598727
30
0
11
1728.105773
21
3428.278727
31
0
0
LINE
8
PIPES
10
2988.095773
20
-2571.720273
30
0
11
2988.095773
21
-2525.361273
31
0
0
LINE
8
PIPES
10
2988.095773
20
-2525.361273
30
0
11
2988.095773
21
-2227.679273
31
0
0
LINE
8
PIPES
10
2988.095773
20
-2227.679273
30
0
11
2988.095773
21
-1929.997273
31
0
0
LINE
8
PIPES
10
2988.095773
20
-1929.997273
30
0
11
2988.095773
21
-1632.311273
31
0
0
LINE
8
PIPES
10
2988.095773
20
-1632.311273
30
0
11
2988.095773
21
-1611.721273
31
0
0
LINE
8
PIPES
10
2988.095773
20
-1334.631273
30
0
11
2988.095773
21
-1036.951273
31
0
0
LINE
8
PIPES
10
2988.095773
20
-1036.951273
30
0
11
2988.095773
21
-739.271273
31
0
0
LINE
8
PIPES
10
2988.095773
20
-739.271273
30
0
11
2988.095773
21
-441.591273
31
0
0
LINE
8
PIPES
10
2988.095773
20
-441.591273
30
0
11
2988.095773
21
-351.721273
31
0
0
LINE
8
PIPES
10
2988.095773
20
-143.901273
30
0
11
2988.095773
21
153.778727
31
0
0
LINE
8
PIPES
10
2988.095773
20
153.778727
30
0
11
2988.095773
21
451.458727
31
0
0
LINE
8
PIPES
10
2988.095773
20
451.458727
30
0
11
2988.095773
21
749.138727
31
0
0
LINE
8
PIPES
10
2988.095773
20
749.138727
30
0
11
2988.095773
21
908.278727
31
0
0
LINE
8
PIPES
10
2988.095773
20
1046.818727
30
0
11
2988.095773
21
1344.508727
31
0
0
LINE
8
PIPES
10
2988.095773
20
1344.508727
30
0
11
2988.095773
21
1642.188727
31
0
0
LINE
8
PIPES
10
2988.095773
20
1642.188727
30
0
11
2988.095773
21
1939.868727
31
0
0
LINE
8
PIPES
10
2988.095773
20
1939.868727
30
0
11
2988.095773
21
2168.278727
31
0
0
LINE
8
PIPES
10
2988.095773
20
2237.548727
30
0
11
2988.095773
21
2535.228727
31
0
0
LINE
8
PIPES
10
2988.095773
20
2535.228727
30
0
11
2988.095773
21
2832.918727
31
0
0
LINE
8
PIPES
10
2988.095773
20
2832.918727
30
0
11
2988.095773
21
3130.598727
31
0
0
LINE
8
PIPES
10
2988.095773
20
3130.598727
30
0
11
2988.095773
21
3428.278727
31
0
0
LINE
8
PIPES
10
4708.095773
20
-1611.721273
30
0
11
4708.095773
21
-351.721273
31
0
0
LINE
8
PIPES
10
4708.095773
20
908.278727
30
0
11
4708.095773
21
2168.278727
31
0
0
LINE
8
PIPES
10
4708.095773
20
2168.278727
30
0
11
4708.095773
21
2928.278727
31
0
0
LINE
8
PIPES
10
1728.105773
20
-1611.721273
30
0
11
1728.105773
21
-1334.631273
31
0
0
LINE
8
PIPES
10
1728.105773
20
-351.721273
30
0
11
1728.105773
21
-143.901273
31
0
0
LINE
8
PIPES
10
1728.105773
20
908.278727
30
0
11
1728.105773
21
1046.818727
31
0
0
LINE
8
PIPES
10
1728.105773
20
2168.278727
30
0
11
1728.105773
21
2237.548727
31
0
0
LINE
8
PIPES
10
2988.095773
20
-1611.721273
30
0
11
2988.095773
21
-1334.631273
31
0
0
LINE
8
PIPES
10
2988.095773
20
-351.721273
30
0
11
2988.095773
21
-143.901273
31
0
0
LINE
8
PIPES
10
2988.095773
20
908.278727
30
0
11
2988.095773
21
1046.818727
31
0
0
LINE
8
PIPES
10
2988.095773
20
2168.278727
30
0
11
2988.095773
21
2237.548727
31
0
0
LINE
8
PIPES
10
5208.095773
20
-2071.719273
30
0
11
5208.095773
21
-1611.721273
31
0
0
LINE
8
PIPES
10
5208.095773
20
2928.278727
30
0
11
5208.095773
21
3428.278727
31
0
0
LINE
8
PIPES
10
4708.095773
20
-2071.719273
30
0
11
5208.095773
21
-2071.719273
31
0
0
LINE
8
PIPES
10
4708.095773
20
2928.278727
30
0
11
5208.095773
21
2928.278727
31
0
0
LINE
8
PIPES
10
-791.904227
20
-2571.720273
30
0
11
468.105773
21
-1611.721273
31
0
0
LINE
8
PIPES
10
468.105773
20
-1611.721273
30
0
11
-791.904227
21
-351.721273
31
0
0
LINE
8
PIPES
10
-791.904227
20
-351.721273
30
0
11
468.105773
21
908.278727
31
0
0
LINE
8
PIPES
10
468.105773
20
908.278727
30
0
11
-791.904227
21
2168.278727
31
0
0
LINE
8
PIPES
10
-791.904227
20
2168.278727
30
0
11
468.105773
21
3428.278727
31
0
0
LINE
8
PIPES
10
468.105773
20
-2571.720273
30
0
11
1728.105773
21
-1611.721273
31
0
0
LINE
8
PIPES
10
1728.105773
20
-1611.721273
30
0
11
468.105773
21
-351.721273
31
0
0
LINE
8
PIPES
10
1728.105773
20
-2571.720273
30
0
11
2988.095773
21
-1611.721273
31
0
0
LINE
8
PIPES
10
468.105773
20
-351.721273
30
0
11
1728.105773
21
908.278727
31
0
0
LINE
8
PIPES
10
1728.105773
20
908.278727
30
0
11
468.105773
21
2168.278727
31
0
0
LINE
8
PIPES
10
468.105773
20
2168.278727
30
0
11
1728.105773
21
3428.278727
31
0
0
LINE
8
PIPES
10
2988.095773
20
-1611.721273
30
0
11
1728.105773
21
-351.721273
31
0
0
LINE
8
PIPES
10
1728.105773
20
-351.721273
30
0
11
2988.095773
21
908.278727
31
0
0
LINE
8
PIPES
10
2988.095773
20
908.278727
30
0
11
1728.105773
21
2168.278727
31
0
0
LINE
8
PIPES
10
1728.105773
20
2168.278727
30
0
11
2988.095773
21
3428.278727
31
0
0
LINE
8
PIPES
10
2988.095773
20
-2571.720273
30
0
11
4248.095773
21
-1611.721273
31
0
0
LINE
8
PIPES
10
4248.095773
20
-1611.721273
30
0
11
2988.095773
21
-351.721273
31
0
0
LINE
8
PIPES
10
2988.095773
20
-351.721273
30
0
11
4248.095773
21
908.278727
31
0
0
LINE
8
PIPES
10
4248.095773
20
908.278727
30
0
11
2988.095773
21
2168.278727
31
0
0
LINE
8
PIPES
10
2988.095773
20
2168.278727
30
0
11
4248.095773
21
3428.278727
31
0
0
LINE
8
PIPES
10
4248.095773
20
-2571.720273
30
0
11
5208.095773
21
-1611.721273
31
0
0
LINE
8
PIPES
10
5208.095773
20
-1611.721273
30
0
11
4248.095773
21
-351.721273
31
0
0
LINE
8
PIPES
10
4248.095773
20
-351.721273
30
0
11
5208.095773
21
908.278727
31
0
0
LINE
8
PIPES
10
5208.095773
20
908.278727
30
0
11
4248.095773
21
2168.278727
31
0
0
LINE
8
PIPES
10
4248.095773
20
2168.278727
30
0
11
5208.095773
21
3428.278727
31
0
0
LINE
8
PIPES
10
468.105773
20
-2571.720273
30
0
11
-791.904227
21
-1611.721273
31
0
0
LINE
8
PIPES
10
-791.904227
20
-1611.721273
30
0
11
468.105773
21
-351.721273
31
0
0
LINE
8
PIPES
10
468.105773
20
-351.721273
30
0
11
-791.904227
21
908.278727
31
0
0
LINE
8
PIPES
10
-791.904227
20
908.278727
30
0
11
468.105773
21
2168.278727
31
0
0
LINE
8
PIPES
10
468.105773
20
2168.278727
30
0
11
-791.904227
21
3428.278727
31
0
0
LINE
8
PIPES
10
1728.105773
20
-2571.720273
30
0
11
468.105773
21
-1611.721273
31
0
0
LINE
8
PIPES
10
468.105773
20
-1611.721273
30
0
11
1728.105773
21
-351.721273
31
0
0
LINE
8
PIPES
10
1728.105773
20
-351.721273
30
0
11
468.105773
21
908.278727
31
0
0
LINE
8
PIPES
10
468.105773
20
908.278727
30
0
11
1728.105773
21
2168.278727
31
0
0
LINE
8
PIPES
10
1728.105773
20
2168.278727
30
0
11
468.105773
21
3428.278727
31
0
0
LINE
8
PIPES
10
2988.095773
20
-2571.720273
30
0
11
1728.105773
21
-1611.721273
31
0
0
LINE
8
PIPES
10
1728.105773
20
-1611.721273
30
0
11
2988.095773
21
-351.721273
31
0
0
LINE
8
PIPES
10
2988.095773
20
-351.721273
30
0
11
1728.105773
21
908.278727
31
0
0
LINE
8
PIPES
10
1728.105773
20
908.278727
30
0
11
2988.095773
21
2168.278727
31
0
0
LINE
8
PIPES
10
2988.095773
20
2168.278727
30
0
11
1728.105773
21
3428.278727
31
0
0
LINE
8
PIPES
10
4248.095773
20
-2571.720273
30
0
11
2988.095773
21
-1611.721273
31
0
0
LINE
8
PIPES
10
2988.095773
20
-1611.721273
30
0
11
4248.095773
21
-351.721273
31
0
0
LINE
8
PIPES
10
4248.095773
20
-351.721273
30
0
11
2988.095773
21
908.278727
31
0
0
LINE
8
PIPES
10
2988.095773
20
908.278727
30
0
11
4248.095773
21
2168.278727
31
0
0
LINE
8
PIPES
10
4248.095773
20
2168.278727
30
0
11
2988.095773
21
3428.278727
31
0
0
LINE
8
PIPES
10
5208.095773
20
-2571.720273
30
0
11
4248.095773
21
-1611.721273
31
0
0
LINE
8
PIPES
10
4248.095773
20
-1611.721273
30
0
11
5208.095773
21
-351.721273
31
0
0
LINE
8
PIPES
10
5208.095773
20
-351.721273
30
0
11
4248.095773
21
908.278727
31
0
0
LINE
8
PIPES
10
4248.095773
20
908.278727
30
0
11
5208.095773
21
2168.278727
31
0
0
LINE
8
PIPES
10
5208.095773
20
2168.278727
30
0
11
4248.095773
21
3428.278727
31
0
0
LINE
8
PIPES
10
-791.894227
20
-2071.719273
30
0
11
468.105773
21
-2071.719273
31
0
0
LINE
8
PIPES
10
-791.894227
20
-2071.719273
30
0
11
-791.904227
21
-2571.720273
31
0
0
LINE
8
PIPES
10
-791.894227
20
2928.278727
30
0
11
468.105773
21
2928.278727
31
0
0
LINE
8
PIPES
10
-791.894227
20
2928.278727
30
0
11
-791.904227
21
3428.278727
31
0
0
LINE
8
PIPES
10
-791.904227
20
3428.278727
30
0
11
-791.904227
21
2928.278727
31
0
0
LINE
8
PIPES
10
-791.904227
20
-1611.721273
30
0
11
-791.904227
21
-2071.719273
31
0
0
LINE
8
PIPES
10
-791.904227
20
-2071.719273
30
0
11
-791.904227
21
-2571.720273
31
0
0
LINE
8
PIPES
10
-791.894227
20
-2071.719273
30
0
11
-791.904227
21
-2071.719273
31
0
0
LINE
8
PIPES
10
-791.904227
20
2928.278727
30
0
11
-791.904227
21
2168.278727
31
0
0
LINE
8
PIPES
10
-791.894227
20
2928.278727
30
0
11
-791.904227
21
2928.278727
31
0
0
CIRCLE
8
PIPE_ENDS
10
-6791.904227
20
-2571.721273
30
0
40
32
0
CIRCLE
8
PIPE_ENDS
10
-6791.904227
20
-1611.721273
30
0
40
32
0
CIRCLE
8
PIPE_ENDS
10
-6791.904227
20
-351.721273
30
0
40
32
0
CIRCLE
8
PIPE_ENDS
10
-6791.904227
20
908.278727
30
0
40
32
0
CIRCLE
8
PIPE_ENDS
10
-6791.904227
20
2168.278727
30
0
40
32
0
CIRCLE
8
PIPE_ENDS
10
-6791.904227
20
3428.278727
30
0
40
32
0
CIRCLE
8
PIPE_ENDS
10
-791.904227
20
-2571.721273
30
0
40
32
0
CIRCLE
8
PIPE_ENDS
10
-791.904227
20
3428.278727
30
0
40
32
0
CIRCLE
8
PIPE_ENDS
10
-5831.904227
20
-2571.721273
30
0
40
32
0
CIRCLE
8
PIPE_ENDS
10
-5831.904227
20
3428.278727
30
0
40
32
0
CIRCLE
8
PIPE_ENDS
10
-5831.904227
20
-1611.721273
30
0
40
32
0
CIRCLE
8
PIPE_ENDS
10
-5831.904227
20
-351.721273
30
0
40
32
0
CIRCLE
8
PIPE_ENDS
10
-5831.904227
20
908.278727
30
0
40
32
0
CIRCLE
8
PIPE_ENDS
10
-5831.904227
20
2168.278727
30
0
40
32
0
CIRCLE
8
PIPE_ENDS
10
-2051.904227
20
-2571.721273
30
0
40
32
0
CIRCLE
8
PIPE_ENDS
10
-2051.904227
20
3428.278727
30
0
40
32
0
CIRCLE
8
PIPE_ENDS
10
-2051.904227
20
-1611.721273
30
0
40
32
0
CIRCLE
8
PIPE_ENDS
10
-2051.904227
20
-351.721273
30
0
40
32
0
CIRCLE
8
PIPE_ENDS
10
-2051.904227
20
908.278727
30
0
40
32
0
CIRCLE
8
PIPE_ENDS
10
-2051.904227
20
2168.278727
30
0
40
32
0
CIRCLE
8
PIPE_ENDS
10
-4571.904227
20
-2571.721273
30
0
40
32
0
CIRCLE
8
PIPE_ENDS
10
-4571.904227
20
3428.278727
30
0
40
32
0
CIRCLE
8
PIPE_ENDS
10
-4571.904227
20
-1611.721273
30
0
40
32
0
CIRCLE
8
PIPE_ENDS
10
-4571.904227
20
-351.721273
30
0
40
32
0
CIRCLE
8
PIPE_ENDS
10
-4571.904227
20
908.278727
30
0
40
32
0
CIRCLE
8
PIPE_ENDS
10
-4571.904227
20
2168.278727
30
0
40
32
0
CIRCLE
8
PIPE_ENDS
10
-3311.904227
20
-2571.721273
30
0
40
32
0
CIRCLE
8
PIPE_ENDS
10
-3311.904227
20
3428.278727
30
0
40
32
0
CIRCLE
8
PIPE_ENDS
10
-3311.904227
20
-1611.721273
30
0
40
32
0
CIRCLE
8
PIPE_ENDS
10
-3311.904227
20
-351.721273
30
0
40
32
0
CIRCLE
8
PIPE_ENDS
10
-3311.904227
20
908.278727
30
0
40
32
0
CIRCLE
8
PIPE_ENDS
10
-3311.904227
20
2168.278727
30
0
40
32
0
CIRCLE
8
PIPE_ENDS
10
-6291.904227
20
-2571.721273
30
0
40
25
0
CIRCLE
8
PIPE_ENDS
10
-6291.904227
20
-1611.721273
30
0
40
25
0
CIRCLE
8
PIPE_ENDS
10
-6291.904227
20
-351.721273
30
0
40
25
0
CIRCLE
8
PIPE_ENDS
10
-6291.904227
20
908.278727
30
0
40
25
0
CIRCLE
8
PIPE_ENDS
10
-6291.904227
20
2168.278727
30
0
40
25
0
CIRCLE
8
PIPE_ENDS
10
-6291.904227
20
3428.278727
30
0
40
25
0
CIRCLE
8
PIPE_ENDS
10
-4571.904227
20
-2071.721273
30
0
40
25
0
CIRCLE
8
PIPE_ENDS
10
-4571.904227
20
2928.278727
30
0
40
25
0
CIRCLE
8
PIPE_ENDS
10
-3311.904227
20
-2071.721273
30
0
40
25
0
CIRCLE
8
PIPE_ENDS
10
-3311.904227
20
2928.278727
30
0
40
25
0
CIRCLE
8
PIPE_ENDS
10
-5831.904227
20
-2071.721273
30
0
40
25
0
CIRCLE
8
PIPE_ENDS
10
-5831.904227
20
2928.278727
30
0
40
25
0
CIRCLE
8
PIPE_ENDS
10
-2051.904227
20
-2071.721273
30
0
40
25
0
CIRCLE
8
PIPE_ENDS
10
-2051.904227
20
2928.278727
30
0
40
25
0
CIRCLE
8
PIPE_ENDS
10
-4571.904227
20
-2525.321273
30
0
40
25
0
CIRCLE
8
PIPE_ENDS
10
-4571.904227
20
-2227.721273
30
0
40
25
0
CIRCLE
8
PIPE_ENDS
10
-4571.904227
20
-1930.021273
30
0
40
25
0
CIRCLE
8
PIPE_ENDS
10
-4571.904227
20
-1632.321273
30
0
40
25
0
CIRCLE
8
PIPE_ENDS
10
-4571.904227
20
-1334.621273
30
0
40
25
0
CIRCLE
8
PIPE_ENDS
10
-4571.904227
20
-1036.921273
30
0
40
25
0
CIRCLE
8
PIPE_ENDS
10
-4571.904227
20
-739.321273
30
0
40
25
0
CIRCLE
8
PIPE_ENDS
10
-4571.904227
20
-441.621273
30
0
40
25
0
CIRCLE
8
PIPE_ENDS
10
-4571.904227
20
-143.921273
30
0
40
25
0
CIRCLE
8
PIPE_ENDS
10
-4571.904227
20
153.778727
30
0
40
25
0
CIRCLE
8
PIPE_ENDS
10
-4571.904227
20
451.478727
30
0
40
25
0
CIRCLE
8
PIPE_ENDS
10
-4571.904227
20
749.178727
30
0
40
25
0
CIRCLE
8
PIPE_ENDS
10
-4571.904227
20
1046.778727
30
0
40
25
0
CIRCLE
8
PIPE_ENDS
10
-4571.904227
20
1344.478727
30
0
40
25
0
CIRCLE
8
PIPE_ENDS
10
-4571.904227
20
1642.178727
30
0
40
25
0
CIRCLE
8
PIPE_ENDS
10
-4571.904227
20
1939.878727
30
0
40
25
0
CIRCLE
8
PIPE_ENDS
10
-4571.904227
20
2237.578727
30
0
40
25
0
CIRCLE
8
PIPE_ENDS
10
-4571.904227
20
2535.278727
30
0
40
25
0
CIRCLE
8
PIPE_ENDS
10
-4571.904227
20
2832.878727
30
0
40
25
0
CIRCLE
8
PIPE_ENDS
10
-4571.904227
20
3130.578727
30
0
40
25
0
CIRCLE
8
PIPE_ENDS
10
-3311.904227
20
-2525.321273
30
0
40
25
0
CIRCLE
8
PIPE_ENDS
10
-3311.904227
20
-2227.721273
30
0
40
25
0
CIRCLE
8
PIPE_ENDS
10
-3311.904227
20
-1930.021273
30
0
40
25
0
CIRCLE
8
PIPE_ENDS
10
-3311.904227
20
-1632.321273
30
0
40
25
0
CIRCLE
8
PIPE_ENDS
10
-3311.904227
20
-1334.621273
30
0
40
25
0
CIRCLE
8
PIPE_ENDS
10
-3311.904227
20
-1036.921273
30
0
40
25
0
CIRCLE
8
PIPE_ENDS
10
-3311.904227
20
-739.321273
30
0
40
25
0
CIRCLE
8
PIPE_ENDS
10
-3311.904227
20
-441.621273
30
0
40
25
0
CIRCLE
8
PIPE_ENDS
10
-3311.904227
20
-143.921273
30
0
40
25
0
CIRCLE
8
PIPE_ENDS
10
-3311.904227
20
153.778727
30
0
40
25
0
CIRCLE
8
PIPE_ENDS
10
-3311.904227
20
451.478727
30
0
40
25
0
CIRCLE
8
PIPE_ENDS
10
-3311.904227
20
749.178727
30
0
40
25
0
CIRCLE
8
PIPE_ENDS
10
-3311.904227
20
1046.778727
30
0
40
25
0
CIRCLE
8
PIPE_ENDS
10
-3311.904227
20
1344.478727
30
0
40
25
0
CIRCLE
8
PIPE_ENDS
10
-3311.904227
20
1642.178727
30
0
40
25
0
CIRCLE
8
PIPE_ENDS
10
-3311.904227
20
1939.878727
30
0
40
25
0
CIRCLE
8
PIPE_ENDS
10
-3311.904227
20
2237.578727
30
0
40
25
0
CIRCLE
8
PIPE_ENDS
10
-3311.904227
20
2535.278727
30
0
40
25
0
CIRCLE
8
PIPE_ENDS
10
-3311.904227
20
2832.878727
30
0
40
25
0
CIRCLE
8
PIPE_ENDS
10
-3311.904227
20
3130.578727
30
0
40
25
0
CIRCLE
8
PIPE_ENDS
10
-791.904227
20
-1611.721273
30
0
40
32
0
CIRCLE
8
PIPE_ENDS
10
-791.904227
20
-351.721273
30
0
40
32
0
CIRCLE
8
PIPE_ENDS
10
-791.904227
20
908.278727
30
0
40
32
0
CIRCLE
8
PIPE_ENDS
10
-791.904227
20
2168.278727
30
0
40
32
0
CIRCLE
8
PIPE_ENDS
10
5208.095773
20
-2571.721273
30
0
40
32
0
CIRCLE
8
PIPE_ENDS
10
5208.095773
20
-1611.721273
30
0
40
32
0
CIRCLE
8
PIPE_ENDS
10
5208.095773
20
-351.721273
30
0
40
32
0
CIRCLE
8
PIPE_ENDS
10
5208.095773
20
908.278727
30
0
40
32
0
CIRCLE
8
PIPE_ENDS
10
5208.095773
20
2168.278727
30
0
40
32
0
CIRCLE
8
PIPE_ENDS
10
5208.095773
20
3428.278727
30
0
40
32
0
CIRCLE
8
PIPE_ENDS
10
468.095773
20
-2571.721273
30
0
40
32
0
CIRCLE
8
PIPE_ENDS
10
468.095773
20
3428.278727
30
0
40
32
0
CIRCLE
8
PIPE_ENDS
10
468.095773
20
-1611.721273
30
0
40
32
0
CIRCLE
8
PIPE_ENDS
10
468.095773
20
-351.721273
30
0
40
32
0
CIRCLE
8
PIPE_ENDS
10
468.095773
20
908.278727
30
0
40
32
0
CIRCLE
8
PIPE_ENDS
10
468.095773
20
2168.278727
30
0
40
32
0
CIRCLE
8
PIPE_ENDS
10
4248.095773
20
-2571.721273
30
0
40
32
0
CIRCLE
8
PIPE_ENDS
10
4248.095773
20
3428.278727
30
0
40
32
0
CIRCLE
8
PIPE_ENDS
10
4248.095773
20
-1611.721273
30
0
40
32
0
CIRCLE
8
PIPE_ENDS
10
4248.095773
20
-351.721273
30
0
40
32
0
CIRCLE
8
PIPE_ENDS
10
4248.095773
20
908.278727
30
0
40
32
0
CIRCLE
8
PIPE_ENDS
10
4248.095773
20
2168.278727
30
0
40
32
0
CIRCLE
8
PIPE_ENDS
10
1728.095773
20
-2571.721273
30
0
40
32
0
CIRCLE
8
PIPE_ENDS
10
1728.095773
20
3428.278727
30
0
40
32
0
CIRCLE
8
PIPE_ENDS
10
1728.095773
20
-1611.721273
30
0
40
32
0
CIRCLE
8
PIPE_ENDS
10
1728.095773
20
-351.721273
30
0
40
32
0
CIRCLE
8
PIPE_ENDS
10
1728.095773
20
908.278727
30
0
40
32
0
CIRCLE
8
PIPE_ENDS
10
1728.095773
20
2168.278727
30
0
40
32
0
CIRCLE
8
PIPE_ENDS
10
2988.095773
20
-2571.721273
30
0
40
32
0
CIRCLE
8
PIPE_ENDS
10
2988.095773
20
3428.278727
30
0
40
32
0
CIRCLE
8
PIPE_ENDS
10
2988.095773
20
-1611.721273
30
0
40
32
0
CIRCLE
8
PIPE_ENDS
10
2988.095773
20
-351.721273
30
0
40
32
0
CIRCLE
8
PIPE_ENDS
10
2988.095773
20
908.278727
30
0
40
32
0
CIRCLE
8
PIPE_ENDS
10
2988.095773
20
2168.278727
30
0
40
32
0
CIRCLE
8
PIPE_ENDS
10
4708.095773
20
-2571.721273
30
0
40
25
0
CIRCLE
8
PIPE_ENDS
10
4708.095773
20
-1611.721273
30
0
40
25
0
CIRCLE
8
PIPE_ENDS
10
4708.095773
20
-351.721273
30
0
40
25
0
CIRCLE
8
PIPE_ENDS
10
4708.095773
20
908.278727
30
0
40
25
0
CIRCLE
8
PIPE_ENDS
10
4708.095773
20
2168.278727
30
0
40
25
0
CIRCLE
8
PIPE_ENDS
10
4708.095773
20
3428.278727
30
0
40
25
0
CIRCLE
8
PIPE_ENDS
10
1728.095773
20
-2071.721273
30
0
40
25
0
CIRCLE
8
PIPE_ENDS
10
1728.095773
20
2928.278727
30
0
40
25
0
CIRCLE
8
PIPE_ENDS
10
2988.095773
20
-2071.721273
30
0
40
25
0
CIRCLE
8
PIPE_ENDS
10
2988.095773
20
2928.278727
30
0
40
25
0
CIRCLE
8
PIPE_ENDS
10
468.095773
20
-2071.721273
30
0
40
25
0
CIRCLE
8
PIPE_ENDS
10
468.095773
20
2928.278727
30
0
40
25
0
CIRCLE
8
PIPE_ENDS
10
4248.095773
20
-2071.721273
30
0
40
25
0
CIRCLE
8
PIPE_ENDS
10
4248.095773
20
2928.278727
30
0
40
25
0
CIRCLE
8
PIPE_ENDS
10
4708.095773
20
2928.278727
30
0
40
25
0
CIRCLE
8
PIPE_ENDS
10
1728.095773
20
-2525.321273
30
0
40
25
0
CIRCLE
8
PIPE_ENDS
10
1728.095773
20
-2227.721273
30
0
40
25
0
CIRCLE
8
PIPE_ENDS
10
1728.095773
20
-1930.021273
30
0
40
25
0
CIRCLE
8
PIPE_ENDS
10
1728.095773
20
-1632.321273
30
0
40
25
0
CIRCLE
8
PIPE_ENDS
10
1728.095773
20
-1334.621273
30
0
40
25
0
CIRCLE
8
PIPE_ENDS
10
1728.095773
20
-1036.921273
30
0
40
25
0
CIRCLE
8
PIPE_ENDS
10
1728.095773
20
-739.321273
30
0
40
25
0
CIRCLE
8
PIPE_ENDS
10
1728.095773
20
-441.621273
30
0
40
25
0
CIRCLE
8
PIPE_ENDS
10
1728.095773
20
-143.921273
30
0
40
25
0
CIRCLE
8
PIPE_ENDS
10
1728.095773
20
153.778727
30
0
40
25
0
CIRCLE
8
PIPE_ENDS
10
1728.095773
20
451.478727
30
0
40
25
0
CIRCLE
8
PIPE_ENDS
10
1728.095773
20
749.178727
30
0
40
25
0
CIRCLE
8
PIPE_ENDS
10
1728.095773
20
1046.778727
30
0
40
25
0
CIRCLE
8
PIPE_ENDS
10
1728.095773
20
1344.478727
30
0
40
25
0
CIRCLE
8
PIPE_ENDS
10
1728.095773
20
1642.178727
30
0
40
25
0
CIRCLE
8
PIPE_ENDS
10
1728.095773
20
1939.878727
30
0
40
25
0
CIRCLE
8
PIPE_ENDS
10
1728.095773
20
2237.578727
30
0
40
25
0
CIRCLE
8
PIPE_ENDS
10
1728.095773
20
2535.278727
30
0
40
25
0
CIRCLE
8
PIPE_ENDS
10
1728.095773
20
2832.878727
30
0
40
25
0
CIRCLE
8
PIPE_ENDS
10
1728.095773
20
3130.578727
30
0
40
25
0
CIRCLE
8
PIPE_ENDS
10
2988.095773
20
-2525.321273
30
0
40
25
0
CIRCLE
8
PIPE_ENDS
10
2988.095773
20
-2227.721273
30
0
40
25
0
CIRCLE
8
PIPE_ENDS
10
2988.095773
20
-1930.021273
30
0
40
25
0
CIRCLE
8
PIPE_ENDS
10
2988.095773
20
-1632.321273
30
0
40
25
0
CIRCLE
8
PIPE_ENDS
10
2988.095773
20
-1334.621273
30
0
40
25
0
CIRCLE
8
PIPE_ENDS
10
2988.095773
20
-1036.921273
30
0
40
25
0
CIRCLE
8
PIPE_ENDS
10
2988.095773
20
-739.321273
30
0
40
25
0
CIRCLE
8
PIPE_ENDS
10
2988.095773
20
-441.621273
30
0
40
25
0
CIRCLE
8
PIPE_ENDS
10
2988.095773
20
-143.921273
30
0
40
25
0
CIRCLE
8
PIPE_ENDS
10
2988.095773
20
153.778727
30
0
40
25
0
CIRCLE
8
PIPE_ENDS
10
2988.095773
20
451.478727
30
0
40
25
0
CIRCLE
8
PIPE_ENDS
10
2988.095773
20
749.178727
30
0
40
25
0
CIRCLE
8
PIPE_ENDS
10
2988.095773
20
1046.778727
30
0
40
25
0
CIRCLE
8
PIPE_ENDS
10
2988.095773
20
1344.478727
30
0
40
25
0
CIRCLE
8
PIPE_ENDS
10
2988.095773
20
1642.178727
30
0
40
25
0
CIRCLE
8
PIPE_ENDS
10
2988.095773
20
1939.878727
30
0
40
25
0
CIRCLE
8
PIPE_ENDS
10
2988.095773
20
2237.578727
30
0
40
25
0
CIRCLE
8
PIPE_ENDS
10
2988.095773
20
2535.278727
30
0
40
25
0
CIRCLE
8
PIPE_ENDS
10
2988.095773
20
2832.878727
30
0
40
25
0
CIRCLE
8
PIPE_ENDS
10
2988.095773
20
3130.578727
30
0
40
25
0
LINE
8
DIMENSION
10
-6791.904227
20
-2631.720273
30
0
11
-6791.904227
21
-2951.720273
31
0
0
LINE
8
DIMENSION
10
-5831.904227
20
-2631.720273
30
0
11
-5831.904227
21
-2951.720273
31
0
0
LINE
8
DIMENSION
10
-6791.904227
20
-2951.720273
30
0
11
-5831.904227
21
-2951.720273
31
0
0
LINE
8
DIMENSION
10
-6791.904227
20
-2951.720273
30
0
11
-6855.345773
21
-2922.136994
31
0
0
LINE
8
DIMENSION
10
-6791.904227
20
-2951.720273
30
0
11
-6855.345773
21
-2981.303551
31
0
0
LINE
8
DIMENSION
10
-5831.904227
20
-2951.720273
30
0
11
-5768.462682
21
-2981.303551
31
0
0
LINE
8
DIMENSION
10
-5831.904227
20
-2951.720273
30
0
11
-5768.462682
21
-2922.136994
31
0
0
TEXT
8
DIMENSION
10
-6311.904227
20
-3121.720273
30
0
40
85
1
0.96
50
0
7
STANDARD
72
1
73
2
11
-6311.904227
21
-3121.720273
31
0
0
LINE
8
DIMENSION
10
-5831.904227
20
-2631.720273
30
0
11
-5831.904227
21
-2951.720273
31
0
0
LINE
8
DIMENSION
10
-4571.904227
20
-2631.720273
30
0
11
-4571.904227
21
-2951.720273
31
0
0
LINE
8
DIMENSION
10
-5831.904227
20
-2951.720273
30
0
11
-4571.904227
21
-2951.720273
31
0
0
LINE
8
DIMENSION
10
-5831.904227
20
-2951.720273
30
0
11
-5895.345773
21
-2922.136994
31
0
0
LINE
8
DIMENSION
10
-5831.904227
20
-2951.720273
30
0
11
-5895.345773
21
-2981.303551
31
0
0
LINE
8
DIMENSION
10
-4571.904227
20
-2951.720273
30
0
11
-4508.462682
21
-2981.303551
31
0
0
LINE
8
DIMENSION
10
-4571.904227
20
-2951.720273
30
0
11
-4508.462682
21
-2922.136994
31
0
0
TEXT
8
DIMENSION
10
-5201.904227
20
-3121.720273
30
0
40
85
1
1.26
50
0
7
STANDARD
72
1
73
2
11
-5201.904227
21
-3121.720273
31
0
0
LINE
8
DIMENSION
10
-4571.904227
20
-2631.720273
30
0
11
-4571.904227
21
-2951.720273
31
0
0
LINE
8
DIMENSION
10
-3311.904227
20
-2631.720273
30
0
11
-3311.904227
21
-2951.720273
31
0
0
LINE
8
DIMENSION
10
-4571.904227
20
-2951.720273
30
0
11
-3311.904227
21
-2951.720273
31
0
0
LINE
8
DIMENSION
10
-4571.904227
20
-2951.720273
30
0
11
-4635.345773
21
-2922.136994
31
0
0
LINE
8
DIMENSION
10
-4571.904227
20
-2951.720273
30
0
11
-4635.345773
21
-2981.303551
31
0
0
LINE
8
DIMENSION
10
-3311.904227
20
-2951.720273
30
0
11
-3248.462682
21
-2981.303551
31
0
0
LINE
8
DIMENSION
10
-3311.904227
20
-2951.720273
30
0
11
-3248.462682
21
-2922.136994
31
0
0
TEXT
8
DIMENSION
10
-3941.904227
20
-3121.720273
30
0
40
85
1
1.26
50
0
7
STANDARD
72
1
73
2
11
-3941.904227
21
-3121.720273
31
0
0
LINE
8
DIMENSION
10
-3311.904227
20
-2631.720273
30
0
11
-3311.904227
21
-2951.720273
31
0
0
LINE
8
DIMENSION
10
-791.904227
20
-2631.720273
30
0
11
-791.904227
21
-2951.720273
31
0
0
LINE
8
DIMENSION
10
-3311.904227
20
-2951.720273
30
0
11
-791.904227
21
-2951.720273
31
0
0
LINE
8
DIMENSION
10
-3311.904227
20
-2951.720273
30
0
11
-3375.345773
21
-2922.136994
31
0
0
LINE
8
DIMENSION
10
-3311.904227
20
-2951.720273
30
0
11
-3375.345773
21
-2981.303551
31
0
0
LINE
8
DIMENSION
10
-791.904227
20
-2951.720273
30
0
11
-728.462682
21
-2981.303551
31
0
0
LINE
8
DIMENSION
10
-791.904227
20
-2951.720273
30
0
11
-728.462682
21
-2922.136994
31
0
0
TEXT
8
DIMENSION
10
-2051.904227
20
-3121.720273
30
0
40
85
1
2.52
50
0
7
STANDARD
72
1
73
2
11
-2051.904227
21
-3121.720273
31
0
0
LINE
8
DIMENSION
10
-791.904227
20
-2631.720273
30
0
11
-791.904227
21
-2951.720273
31
0
0
LINE
8
DIMENSION
10
468.105773
20
-2631.720273
30
0
11
468.105773
21
-2951.720273
31
0
0
LINE
8
DIMENSION
10
-791.904227
20
-2951.720273
30
0
11
468.105773
21
-2951.720273
31
0
0
LINE
8
DIMENSION
10
-791.904227
20
-2951.720273
30
0
11
-855.345773
21
-2922.136994
31
0
0
LINE
8
DIMENSION
10
-791.904227
20
-2951.720273
30
0
11
-855.345773
21
-2981.303551
31
0
0
LINE
8
DIMENSION
10
468.105773
20
-2951.720273
30
0
11
531.547318
21
-2981.303551
31
0
0
LINE
8
DIMENSION
10
468.105773
20
-2951.720273
30
0
11
531.547318
21
-2922.136994
31
0
0
TEXT
8
DIMENSION
10
-161.899227
20
-3121.720273
30
0
40
85
1
1.26
50
0
7
STANDARD
72
1
73
2
11
-161.899227
21
-3121.720273
31
0
0
LINE
8
DIMENSION
10
468.105773
20
-2631.720273
30
0
11
468.105773
21
-2951.720273
31
0
0
LINE
8
DIMENSION
10
1728.105773
20
-2631.720273
30
0
11
1728.105773
21
-2951.720273
31
0
0
LINE
8
DIMENSION
10
468.105773
20
-2951.720273
30
0
11
1728.105773
21
-2951.720273
31
0
0
LINE
8
DIMENSION
10
468.105773
20
-2951.720273
30
0
11
404.664227
21
-2922.136994
31
0
0
LINE
8
DIMENSION
10
468.105773
20
-2951.720273
30
0
11
404.664227
21
-2981.303551
31
0
0
LINE
8
DIMENSION
10
1728.105773
20
-2951.720273
30
0
11
1791.547318
21
-2981.303551
31
0
0
LINE
8
DIMENSION
10
1728.105773
20
-2951.720273
30
0
11
1791.547318
21
-2922.136994
31
0
0
TEXT
8
DIMENSION
10
1098.105773
20
-3121.720273
30
0
40
85
1
1.26
50
0
7
STANDARD
72
1
73
2
11
1098.105773
21
-3121.720273
31
0
0
LINE
8
DIMENSION
10
1728.105773
20
-2631.720273
30
0
11
1728.105773
21
-2951.720273
31
0
0
LINE
8
DIMENSION
10
2988.095773
20
-2631.720273
30
0
11
2988.095773
21
-2951.720273
31
0
0
LINE
8
DIMENSION
10
1728.105773
20
-2951.720273
30
0
11
2988.095773
21
-2951.720273
31
0
0
LINE
8
DIMENSION
10
1728.105773
20
-2951.720273
30
0
11
1664.664227
21
-2922.136994
31
0
0
LINE
8
DIMENSION
10
1728.105773
20
-2951.720273
30
0
11
1664.664227
21
-2981.303551
31
0
0
LINE
8
DIMENSION
10
2988.095773
20
-2951.720273
30
0
11
3051.537318
21
-2981.303551
31
0
0
LINE
8
DIMENSION
10
2988.095773
20
-2951.720273
30
0
11
3051.537318
21
-2922.136994
31
0
0
TEXT
8
DIMENSION
10
2358.100773
20
-3121.720273
30
0
40
85
1
1.26
50
0
7
STANDARD
72
1
73
2
11
2358.100773
21
-3121.720273
31
0
0
LINE
8
DIMENSION
10
2988.095773
20
-2631.720273
30
0
11
2988.095773
21
-2951.720273
31
0
0
LINE
8
DIMENSION
10
4248.095773
20
-2631.720273
30
0
11
4248.095773
21
-2951.720273
31
0
0
LINE
8
DIMENSION
10
2988.095773
20
-2951.720273
30
0
11
4248.095773
21
-2951.720273
31
0
0
LINE
8
DIMENSION
10
2988.095773
20
-2951.720273
30
0
11
2924.654227
21
-2922.136994
31
0
0
LINE
8
DIMENSION
10
2988.095773
20
-2951.720273
30
0
11
2924.654227
21
-2981.303551
31
0
0
LINE
8
DIMENSION
10
4248.095773
20
-2951.720273
30
0
11
4311.537318
21
-2981.303551
31
0
0
LINE
8
DIMENSION
10
4248.095773
20
-2951.720273
30
0
11
4311.537318
21
-2922.136994
31
0
0
TEXT
8
DIMENSION
10
3618.095773
20
-3121.720273
30
0
40
85
1
1.26
50
0
7
STANDARD
72
1
73
2
11
3618.095773
21
-3121.720273
31
0
0
LINE
8
DIMENSION
10
4248.095773
20
-2631.720273
30
0
11
4248.095773
21
-2951.720273
31
0
0
LINE
8
DIMENSION
10
5208.095773
20
-2631.720273
30
0
11
5208.095773
21
-2951.720273
31
0
0
LINE
8
DIMENSION
10
4248.095773
20
-2951.720273
30
0
11
5208.095773
21
-2951.720273
31
0
0
LINE
8
DIMENSION
10
4248.095773
20
-2951.720273
30
0
11
4184.654227
21
-2922.136994
31
0
0
LINE
8
DIMENSION
10
4248.095773
20
-2951.720273
30
0
11
4184.654227
21
-2981.303551
31
0
0
LINE
8
DIMENSION
10
5208.095773
20
-2951.720273
30
0
11
5271.537318
21
-2981.303551
31
0
0
LINE
8
DIMENSION
10
5208.095773
20
-2951.720273
30
0
11
5271.537318
21
-2922.136994
31
0
0
TEXT
8
DIMENSION
10
4728.095773
20
-3121.720273
30
0
40
85
1
0.96
50
0
7
STANDARD
72
1
73
2
11
4728.095773
21
-3121.720273
31
0
0
LINE
8
DIMENSION
10
-6791.904227
20
-2631.720273
30
0
11
-6791.904227
21
-3321.720273
31
0
0
LINE
8
DIMENSION
10
5208.095773
20
-2631.720273
30
0
11
5208.095773
21
-3321.720273
31
0
0
LINE
8
DIMENSION
10
-6791.904227
20
-3321.720273
30
0
11
5208.095773
21
-3321.720273
31
0
0
LINE
8
DIMENSION
10
-6791.904227
20
-3321.720273
30
0
11
-6855.345773
21
-3292.136994
31
0
0
LINE
8
DIMENSION
10
-6791.904227
20
-3321.720273
30
0
11
-6855.345773
21
-3351.303551
31
0
0
LINE
8
DIMENSION
10
5208.095773
20
-3321.720273
30
0
11
5271.537318
21
-3351.303551
31
0
0
LINE
8
DIMENSION
10
5208.095773
20
-3321.720273
30
0
11
5271.537318
21
-3292.136994
31
0
0
TEXT
8
DIMENSION
10
-791.904227
20
-3491.720273
30
0
40
85
1
TOTAL 12
50
0
7
STANDARD
72
1
73
2
11
-791.904227
21
-3491.720273
31
0
0
LINE
8
DIMENSION
10
5268.095773
20
-2571.721273
30
0
11
5908.095773
21
-2571.721273
31
0
0
LINE
8
DIMENSION
10
5268.095773
20
-2071.721273
30
0
11
5908.095773
21
-2071.721273
31
0
0
LINE
8
DIMENSION
10
5908.095773
20
-2571.721273
30
0
11
5908.095773
21
-2071.721273
31
0
0
LINE
8
DIMENSION
10
5908.095773
20
-2571.721273
30
0
11
5878.512494
21
-2635.162818
31
0
0
LINE
8
DIMENSION
10
5908.095773
20
-2571.721273
30
0
11
5937.679051
21
-2635.162818
31
0
0
LINE
8
DIMENSION
10
5908.095773
20
-2071.721273
30
0
11
5937.679051
21
-2008.279727
31
0
0
LINE
8
DIMENSION
10
5908.095773
20
-2071.721273
30
0
11
5878.512494
21
-2008.279727
31
0
0
TEXT
8
DIMENSION
10
6078.095773
20
-2321.721273
30
0
40
85
1
0.5
50
90
7
STANDARD
72
1
73
2
11
6078.095773
21
-2321.721273
31
0
0
LINE
8
DIMENSION
10
5268.095773
20
-2071.721273
30
0
11
5908.095773
21
-2071.721273
31
0
0
LINE
8
DIMENSION
10
5268.095773
20
-1611.721273
30
0
11
5908.095773
21
-1611.721273
31
0
0
LINE
8
DIMENSION
10
5908.095773
20
-2071.721273
30
0
11
5908.095773
21
-1611.721273
31
0
0
LINE
8
DIMENSION
10
5908.095773
20
-2071.721273
30
0
11
5878.512494
21
-2135.162818
31
0
0
LINE
8
DIMENSION
10
5908.095773
20
-2071.721273
30
0
11
5937.679051
21
-2135.162818
31
0
0
LINE
8
DIMENSION
10
5908.095773
20
-1611.721273
30
0
11
5937.679051
21
-1548.279727
31
0
0
LINE
8
DIMENSION
10
5908.095773
20
-1611.721273
30
0
11
5878.512494
21
-1548.279727
31
0
0
TEXT
8
DIMENSION
10
6078.095773
20
-1841.721273
30
0
40
85
1
0.46
50
90
7
STANDARD
72
1
73
2
11
6078.095773
21
-1841.721273
31
0
0
LINE
8
DIMENSION
10
5268.095773
20
-1611.721273
30
0
11
5908.095773
21
-1611.721273
31
0
0
LINE
8
DIMENSION
10
5268.095773
20
-351.721273
30
0
11
5908.095773
21
-351.721273
31
0
0
LINE
8
DIMENSION
10
5908.095773
20
-1611.721273
30
0
11
5908.095773
21
-351.721273
31
0
0
LINE
8
DIMENSION
10
5908.095773
20
-1611.721273
30
0
11
5878.512494
21
-1675.162818
31
0
0
LINE
8
DIMENSION
10
5908.095773
20
-1611.721273
30
0
11
5937.679051
21
-1675.162818
31
0
0
LINE
8
DIMENSION
10
5908.095773
20
-351.721273
30
0
11
5937.679051
21
-288.279727
31
0
0
LINE
8
DIMENSION
10
5908.095773
20
-351.721273
30
0
11
5878.512494
21
-288.279727
31
0
0
TEXT
8
DIMENSION
10
6078.095773
20
-981.721273
30
0
40
85
1
1.26
50
90
7
STANDARD
72
1
73
2
11
6078.095773
21
-981.721273
31
0
0
LINE
8
DIMENSION
10
5268.095773
20
-351.721273
30
0
11
5908.095773
21
-351.721273
31
0
0
LINE
8
DIMENSION
10
5268.095773
20
908.278727
30
0
11
5908.095773
21
908.278727
31
0
0
LINE
8
DIMENSION
10
5908.095773
20
-351.721273
30
0
11
5908.095773
21
908.278727
31
0
0
LINE
8
DIMENSION
10
5908.095773
20
-351.721273
30
0
11
5878.512494
21
-415.162818
31
0
0
LINE
8
DIMENSION
10
5908.095773
20
-351.721273
30
0
11
5937.679051
21
-415.162818
31
0
0
LINE
8
DIMENSION
10
5908.095773
20
908.278727
30
0
11
5937.679051
21
971.720273
31
0
0
LINE
8
DIMENSION
10
5908.095773
20
908.278727
30
0
11
5878.512494
21
971.720273
31
0
0
TEXT
8
DIMENSION
10
6078.095773
20
278.278727
30
0
40
85
1
1.26
50
90
7
STANDARD
72
1
73
2
11
6078.095773
21
278.278727
31
0
0
LINE
8
DIMENSION
10
5268.095773
20
908.278727
30
0
11
5908.095773
21
908.278727
31
0
0
LINE
8
DIMENSION
10
5268.095773
20
2168.278727
30
0
11
5908.095773
21
2168.278727
31
0
0
LINE
8
DIMENSION
10
5908.095773
20
908.278727
30
0
11
5908.095773
21
2168.278727
31
0
0
LINE
8
DIMENSION
10
5908.095773
20
908.278727
30
0
11
5878.512494
21
844.837182
31
0
0
LINE
8
DIMENSION
10
5908.095773
20
908.278727
30
0
11
5937.679051
21
844.837182
31
0
0
LINE
8
DIMENSION
10
5908.095773
20
2168.278727
30
0
11
5937.679051
21
2231.720273
31
0
0
LINE
8
DIMENSION
10
5908.095773
20
2168.278727
30
0
11
5878.512494
21
2231.720273
31
0
0
TEXT
8
DIMENSION
10
6078.095773
20
1538.278727
30
0
40
85
1
1.26
50
90
7
STANDARD
72
1
73
2
11
6078.095773
21
1538.278727
31
0
0
LINE
8
DIMENSION
10
5268.095773
20
2168.278727
30
0
11
5908.095773
21
2168.278727
31
0
0
LINE
8
DIMENSION
10
5268.095773
20
2928.278727
30
0
11
5908.095773
21
2928.278727
31
0
0
LINE
8
DIMENSION
10
5908.095773
20
2168.278727
30
0
11
5908.095773
21
2928.278727
31
0
0
LINE
8
DIMENSION
10
5908.095773
20
2168.278727
30
0
11
5878.512494
21
2104.837182
31
0
0
LINE
8
DIMENSION
10
5908.095773
20
2168.278727
30
0
11
5937.679051
21
2104.837182
31
0
0
LINE
8
DIMENSION
10
5908.095773
20
2928.278727
30
0
11
5937.679051
21
2991.720273
31
0
0
LINE
8
DIMENSION
10
5908.095773
20
2928.278727
30
0
11
5878.512494
21
2991.720273
31
0
0
TEXT
8
DIMENSION
10
6078.095773
20
2548.278727
30
0
40
85
1
0.76
50
90
7
STANDARD
72
1
73
2
11
6078.095773
21
2548.278727
31
0
0
LINE
8
DIMENSION
10
5268.095773
20
2928.278727
30
0
11
5908.095773
21
2928.278727
31
0
0
LINE
8
DIMENSION
10
5268.095773
20
3428.278727
30
0
11
5908.095773
21
3428.278727
31
0
0
LINE
8
DIMENSION
10
5908.095773
20
2928.278727
30
0
11
5908.095773
21
3428.278727
31
0
0
LINE
8
DIMENSION
10
5908.095773
20
2928.278727
30
0
11
5878.512494
21
2864.837182
31
0
0
LINE
8
DIMENSION
10
5908.095773
20
2928.278727
30
0
11
5937.679051
21
2864.837182
31
0
0
LINE
8
DIMENSION
10
5908.095773
20
3428.278727
30
0
11
5937.679051
21
3491.720273
31
0
0
LINE
8
DIMENSION
10
5908.095773
20
3428.278727
30
0
11
5878.512494
21
3491.720273
31
0
0
TEXT
8
DIMENSION
10
6078.095773
20
3178.278727
30
0
40
85
1
0.5
50
90
7
STANDARD
72
1
73
2
11
6078.095773
21
3178.278727
31
0
0
LINE
8
DIMENSION
10
5268.095773
20
-2571.721273
30
0
11
6358.095773
21
-2571.721273
31
0
0
LINE
8
DIMENSION
10
5268.095773
20
3428.278727
30
0
11
6358.095773
21
3428.278727
31
0
0
LINE
8
DIMENSION
10
6358.095773
20
-2571.721273
30
0
11
6358.095773
21
3428.278727
31
0
0
LINE
8
DIMENSION
10
6358.095773
20
-2571.721273
30
0
11
6328.512494
21
-2635.162818
31
0
0
LINE
8
DIMENSION
10
6358.095773
20
-2571.721273
30
0
11
6387.679051
21
-2635.162818
31
0
0
LINE
8
DIMENSION
10
6358.095773
20
3428.278727
30
0
11
6387.679051
21
3491.720273
31
0
0
LINE
8
DIMENSION
10
6358.095773
20
3428.278727
30
0
11
6328.512494
21
3491.720273
31
0
0
TEXT
8
DIMENSION
10
6528.095773
20
428.278727
30
0
40
85
1
TOTAL 6
50
90
7
STANDARD
72
1
73
2
11
6528.095773
21
428.278727
31
0
0
ENDSEC
0
EOF
