0
SECTION
2
HEADER
9
$ACADVER
1
AC1009
9
$INSUNITS
70
4
9
$MEASUREMENT
70
1
9
$LUNITS
70
2
9
$LUPREC
70
1
9
$TILEMODE
70
1
9
$EXTMIN
10
-4330.127019
20
-4500.005
30
0
9
$EXTMAX
10
4330.127019
20
4500.005
30
0
9
$PEXTMIN
10
-4330.127019
20
-4500.005
30
0
9
$PEXTMAX
10
4330.127019
20
4500.005
30
0
9
$LIMMIN
10
-4830.127019
20
-5000.005
9
$LIMMAX
10
4830.127019
20
5000.005
9
$PLIMMIN
10
-4830.127019
20
-5000.005
9
$PLIMMAX
10
4830.127019
20
5000.005
0
ENDSEC
0
SECTION
2
TABLES
0
TABLE
2
VPORT
70
1
0
VPORT
2
*ACTIVE
70
0
10
0
20
0
11
1
21
1
12
0
22
0
40
10000.01
41
0.966024
42
50
43
0
44
0
50
0
51
0
71
0
72
100
73
1
74
3
75
0
76
0
77
0
78
0
0
ENDTAB
0
TABLE
2
LTYPE
70
2
0
LTYPE
2
CONTINUOUS
70
0
3
Solid line
72
65
73
0
40
0
0
LTYPE
2
DASHED
70
0
3
Dashed
72
65
73
2
40
240
49
120
74
0
49
-120
74
0
0
ENDTAB
0
TABLE
2
LAYER
70
6
0
LAYER
2
PIPES
70
0
62
5
6
CONTINUOUS
0
LAYER
2
PIPE_ENDS
70
0
62
5
6
CONTINUOUS
0
LAYER
2
DIMENSION
70
0
62
1
6
CONTINUOUS
0
LAYER
2
LEVEL_GUIDE
70
0
62
1
6
DASHED
0
LAYER
2
LEVEL_TEXT
70
0
62
1
6
CONTINUOUS
0
LAYER
2
FRAME
70
0
62
5
6
CONTINUOUS
0
ENDTAB
0
TABLE
2
STYLE
70
1
0
STYLE
2
STANDARD
70
0
40
0
41
1
50
0
71
0
42
100
3
txt
4

0
ENDTAB
0
ENDSEC
0
SECTION
2
BLOCKS
0
BLOCK
8
0
2
$MODEL_SPACE
70
0
10
0
20
0
30
0
3
$MODEL_SPACE
0
ENDBLK
8
0
0
BLOCK
67
1
8
0
2
$PAPER_SPACE
70
0
10
0
20
0
30
0
3
$PAPER_SPACE
0
ENDBLK
67
1
8
0
0
ENDSEC
0
SECTION
2
ENTITIES
0
LINE
8
PIPES
10
-866.025404
20
-4500.005
30
0
11
-866.025404
21
-4200.004
31
0
0
LINE
8
PIPES
10
-866.025404
20
-4200.004
30
0
11
-866.025404
21
-3648.941
31
0
0
LINE
8
PIPES
10
-866.025404
20
-3648.941
30
0
11
-866.025404
21
-3199.325
31
0
0
LINE
8
PIPES
10
-866.025404
20
-3199.325
30
0
11
-866.025404
21
-2664.895
31
0
0
LINE
8
PIPES
10
-866.025404
20
-2664.895
30
0
11
-866.025404
21
-2074.465
31
0
0
LINE
8
PIPES
10
-866.025404
20
-2074.465
30
0
11
-866.025404
21
-1035.785
31
0
0
LINE
8
PIPES
10
-2020.437267
20
-3833.505
30
0
11
-2020.437267
21
-3533.504
31
0
0
LINE
8
PIPES
10
-2020.437267
20
-3533.504
30
0
11
-2020.437267
21
-2982.441
31
0
0
LINE
8
PIPES
10
-2020.437267
20
-2982.441
30
0
11
-2020.437267
21
-2532.825
31
0
0
LINE
8
PIPES
10
-2020.437267
20
-2532.825
30
0
11
-2020.437267
21
-1998.395
31
0
0
LINE
8
PIPES
10
-2020.437267
20
-1998.395
30
0
11
-2020.437267
21
-1407.965
31
0
0
LINE
8
PIPES
10
-2020.437267
20
-1407.965
30
0
11
-2020.437267
21
-290.565
31
0
0
LINE
8
PIPES
10
-3174.84913
20
-3167.005
30
0
11
-3174.84913
21
-2867.004
31
0
0
LINE
8
PIPES
10
-3174.84913
20
-2867.004
30
0
11
-3174.84913
21
-2315.941
31
0
0
LINE
8
PIPES
10
-3174.84913
20
-2315.941
30
0
11
-3174.84913
21
-1866.325
31
0
0
LINE
8
PIPES
10
-3174.84913
20
-1866.325
30
0
11
-3174.84913
21
-1331.895
31
0
0
LINE
8
PIPES
10
-3174.84913
20
-1331.895
30
0
11
-3174.84913
21
-741.465
31
0
0
LINE
8
PIPES
10
-3174.84913
20
-741.465
30
0
11
-3174.84913
21
454.665
31
0
0
LINE
8
PIPES
10
-4330.127019
20
-2500.005
30
0
11
-4330.127019
21
-2200.004
31
0
0
LINE
8
PIPES
10
-4330.127019
20
-2200.004
30
0
11
-4330.127019
21
-1648.941
31
0
0
LINE
8
PIPES
10
-4330.127019
20
-1648.941
30
0
11
-4330.127019
21
-1199.325
31
0
0
LINE
8
PIPES
10
-4330.127019
20
-1199.325
30
0
11
-4330.127019
21
-664.895
31
0
0
LINE
8
PIPES
10
-4330.127019
20
-664.895
30
0
11
-4330.127019
21
-74.465
31
0
0
LINE
8
PIPES
10
-4330.127019
20
-74.465
30
0
11
-4330.127019
21
1200.385
31
0
0
LINE
8
PIPES
10
4330.127019
20
-1500.005
30
0
11
4330.127019
21
-1200.004
31
0
0
LINE
8
PIPES
10
4330.127019
20
-1200.004
30
0
11
4330.127019
21
-648.941
31
0
0
LINE
8
PIPES
10
4330.127019
20
-648.941
30
0
11
4330.127019
21
-199.325
31
0
0
LINE
8
PIPES
10
4330.127019
20
-199.325
30
0
11
4330.127019
21
335.105
31
0
0
LINE
8
PIPES
10
4330.127019
20
335.105
30
0
11
4330.127019
21
925.535
31
0
0
LINE
8
PIPES
10
4330.127019
20
925.535
30
0
11
4330.127019
21
1964.215
31
0
0
LINE
8
PIPES
10
3175.715156
20
-833.505
30
0
11
3175.715156
21
-533.504
31
0
0
LINE
8
PIPES
10
3175.715156
20
-533.504
30
0
11
3175.715156
21
17.559
31
0
0
LINE
8
PIPES
10
3175.715156
20
17.559
30
0
11
3175.715156
21
467.175
31
0
0
LINE
8
PIPES
10
3175.715156
20
467.175
30
0
11
3175.715156
21
1001.605
31
0
0
LINE
8
PIPES
10
3175.715156
20
1001.605
30
0
11
3175.715156
21
1592.035
31
0
0
LINE
8
PIPES
10
3175.715156
20
1592.035
30
0
11
3175.715156
21
2709.435
31
0
0
LINE
8
PIPES
10
2021.303292
20
-167.005
30
0
11
2021.303292
21
132.996
31
0
0
LINE
8
PIPES
10
2021.303292
20
132.996
30
0
11
2021.303292
21
684.059
31
0
0
LINE
8
PIPES
10
2021.303292
20
684.059
30
0
11
2021.303292
21
1133.675
31
0
0
LINE
8
PIPES
10
2021.303292
20
1133.675
30
0
11
2021.303292
21
1668.105
31
0
0
LINE
8
PIPES
10
2021.303292
20
1668.105
30
0
11
2021.303292
21
2258.535
31
0
0
LINE
8
PIPES
10
2021.303292
20
2258.535
30
0
11
2021.303292
21
3454.665
31
0
0
LINE
8
PIPES
10
866.025404
20
499.995
30
0
11
866.025404
21
799.996
31
0
0
LINE
8
PIPES
10
866.025404
20
799.996
30
0
11
866.025404
21
1351.059
31
0
0
LINE
8
PIPES
10
866.025404
20
1351.059
30
0
11
866.025404
21
1800.675
31
0
0
LINE
8
PIPES
10
866.025404
20
1800.675
30
0
11
866.025404
21
2335.105
31
0
0
LINE
8
PIPES
10
866.025404
20
2335.105
30
0
11
866.025404
21
2925.535
31
0
0
LINE
8
PIPES
10
866.025404
20
2925.535
30
0
11
866.025404
21
4200.385
31
0
0
LINE
8
PIPES
10
-3290.896534
20
-1900.005
30
0
11
-3290.896534
21
-1600.004
31
0
0
LINE
8
PIPES
10
-3290.896534
20
-1600.004
30
0
11
-3290.896534
21
-1048.941
31
0
0
LINE
8
PIPES
10
-3290.896534
20
-1048.941
30
0
11
-3290.896534
21
-599.325
31
0
0
LINE
8
PIPES
10
-3290.896534
20
-599.325
30
0
11
-3290.896534
21
-64.895
31
0
0
LINE
8
PIPES
10
-3290.896534
20
-64.895
30
0
11
-3290.896534
21
525.535
31
0
0
LINE
8
PIPES
10
-3290.896534
20
525.535
30
0
11
-3290.896534
21
1800.385
31
0
0
LINE
8
PIPES
10
173.205081
20
-3900.005
30
0
11
173.205081
21
-3600.004
31
0
0
LINE
8
PIPES
10
173.205081
20
-3600.004
30
0
11
173.205081
21
-3048.941
31
0
0
LINE
8
PIPES
10
-981.206782
20
-3233.505
30
0
11
-981.206782
21
-2933.504
31
0
0
LINE
8
PIPES
10
-981.206782
20
-2933.504
30
0
11
-981.206782
21
-2382.441
31
0
0
LINE
8
PIPES
10
-2135.618646
20
-2567.005
30
0
11
-2135.618646
21
-2267.004
31
0
0
LINE
8
PIPES
10
-2135.618646
20
-2267.004
30
0
11
-2135.618646
21
-1715.941
31
0
0
LINE
8
PIPES
10
-173.205081
20
-100.005
30
0
11
-173.205081
21
199.996
31
0
0
LINE
8
PIPES
10
-173.205081
20
199.996
30
0
11
-173.205081
21
751.059
31
0
0
LINE
8
PIPES
10
-173.205081
20
751.059
30
0
11
-173.205081
21
1200.675
31
0
0
LINE
8
PIPES
10
-173.205081
20
1200.675
30
0
11
-173.205081
21
1735.105
31
0
0
LINE
8
PIPES
10
-173.205081
20
1735.105
30
0
11
-173.205081
21
2325.535
31
0
0
LINE
8
PIPES
10
-173.205081
20
2325.535
30
0
11
-173.205081
21
3600.385
31
0
0
LINE
8
PIPES
10
3290.896534
20
-2100.005
30
0
11
3290.896534
21
-1800.004
31
0
0
LINE
8
PIPES
10
3290.896534
20
-1800.004
30
0
11
3290.896534
21
-1248.941
31
0
0
LINE
8
PIPES
10
2136.484671
20
-1433.505
30
0
11
2136.484671
21
-1133.504
31
0
0
LINE
8
PIPES
10
2136.484671
20
-1133.504
30
0
11
2136.484671
21
-582.441
31
0
0
LINE
8
PIPES
10
982.072808
20
-767.005
30
0
11
982.072808
21
-467.004
31
0
0
LINE
8
PIPES
10
982.072808
20
-467.004
30
0
11
982.072808
21
84.059
31
0
0
LINE
8
PIPES
10
-2251.66605
20
-1300.005
30
0
11
-2251.66605
21
-1000.004
31
0
0
LINE
8
PIPES
10
-2251.66605
20
-1000.004
30
0
11
-2251.66605
21
-448.941
31
0
0
LINE
8
PIPES
10
-2251.66605
20
-448.941
30
0
11
-2251.66605
21
0.675
31
0
0
LINE
8
PIPES
10
-2251.66605
20
0.675
30
0
11
-2251.66605
21
535.105
31
0
0
LINE
8
PIPES
10
-2251.66605
20
535.105
30
0
11
-2251.66605
21
1125.535
31
0
0
LINE
8
PIPES
10
-2251.66605
20
1125.535
30
0
11
-2251.66605
21
1519.155
31
0
0
LINE
8
PIPES
10
-2251.66605
20
1519.155
30
0
11
-2251.66605
21
2400.385
31
0
0
LINE
8
PIPES
10
-2251.66605
20
2416.595
30
0
11
-2251.66605
21
2700.005
31
0
0
LINE
8
PIPES
10
1212.435565
20
-3300.005
30
0
11
1212.435565
21
-3000.004
31
0
0
LINE
8
PIPES
10
1212.435565
20
-3000.004
30
0
11
1212.435565
21
-2448.941
31
0
0
LINE
8
PIPES
10
58.023702
20
-2633.505
30
0
11
58.023702
21
-2333.504
31
0
0
LINE
8
PIPES
10
58.023702
20
-2333.504
30
0
11
58.023702
21
-1782.441
31
0
0
LINE
8
PIPES
10
-1096.388161
20
-1967.005
30
0
11
-1096.388161
21
-1667.004
31
0
0
LINE
8
PIPES
10
-1096.388161
20
-1667.004
30
0
11
-1096.388161
21
-1115.941
31
0
0
LINE
8
PIPES
10
-1212.435565
20
-700.005
30
0
11
-1212.435565
21
-400.004
31
0
0
LINE
8
PIPES
10
-1212.435565
20
-400.004
30
0
11
-1212.435565
21
151.059
31
0
0
LINE
8
PIPES
10
-1212.435565
20
151.059
30
0
11
-1212.435565
21
600.675
31
0
0
LINE
8
PIPES
10
-1212.435565
20
600.675
30
0
11
-1212.435565
21
1135.105
31
0
0
LINE
8
PIPES
10
-1212.435565
20
1135.105
30
0
11
-1212.435565
21
1725.535
31
0
0
LINE
8
PIPES
10
-1212.435565
20
1725.535
30
0
11
-1212.435565
21
2119.155
31
0
0
LINE
8
PIPES
10
-1212.435565
20
2119.155
30
0
11
-1212.435565
21
3000.385
31
0
0
LINE
8
PIPES
10
-1212.435565
20
3016.595
30
0
11
-1212.435565
21
3300.005
31
0
0
LINE
8
PIPES
10
2251.66605
20
-2700.005
30
0
11
2251.66605
21
-2400.004
31
0
0
LINE
8
PIPES
10
2251.66605
20
-2400.004
30
0
11
2251.66605
21
-1848.941
31
0
0
LINE
8
PIPES
10
1097.254187
20
-2033.505
30
0
11
1097.254187
21
-1733.504
31
0
0
LINE
8
PIPES
10
1097.254187
20
-1733.504
30
0
11
1097.254187
21
-1182.441
31
0
0
LINE
8
PIPES
10
-57.157677
20
-1367.005
30
0
11
-57.157677
21
-1067.004
31
0
0
LINE
8
PIPES
10
-57.157677
20
-1067.004
30
0
11
-57.157677
21
-515.941
31
0
0
LINE
8
PIPES
10
-433.011836
20
-3398.9405
30
0
11
-433.011836
21
-2949.3245
31
0
0
LINE
8
PIPES
10
3897.114317
20
-898.941
30
0
11
3897.114317
21
-449.325
31
0
0
LINE
8
PIPES
10
-1587.423699
20
-2732.4405
30
0
11
-1587.423699
21
-2282.8245
31
0
0
LINE
8
PIPES
10
2742.702454
20
-232.441
30
0
11
2742.702454
21
217.175
31
0
0
LINE
8
PIPES
10
-2741.835562
20
-2065.9405
30
0
11
-2741.835562
21
-1616.3245
31
0
0
LINE
8
PIPES
10
1588.290591
20
434.059
30
0
11
1588.290591
21
883.675
31
0
0
LINE
8
PIPES
10
-3897.113451
20
-1398.9405
30
0
11
-3897.113451
21
-949.3245
31
0
0
LINE
8
PIPES
10
433.012702
20
1101.059
30
0
11
433.012702
21
1550.675
31
0
0
LINE
8
PIPES
10
-1818.653348
20
-698.941
30
0
11
-1818.653348
21
-249.325
31
0
0
LINE
8
PIPES
10
-779.422863
20
-98.941
30
0
11
-779.422863
21
350.675
31
0
0
LINE
8
PIPES
10
-2857.883832
20
-1298.941
30
0
11
-2857.883832
21
-849.325
31
0
0
LINE
8
PIPES
10
259.807621
20
501.059
30
0
11
259.807621
21
950.675
31
0
0
LINE
8
PIPES
10
-3464.100749
20
-1648.9405
30
0
11
-3464.100749
21
-1199.3245
31
0
0
LINE
8
PIPES
10
866.025404
20
851.059
30
0
11
866.025404
21
1300.675
31
0
0
LINE
8
PIPES
10
-866.025404
20
-4200.004
30
0
11
173.205081
21
-3600.004
31
0
0
LINE
8
PIPES
10
173.205081
20
-3600.004
30
0
11
1212.435565
21
-3000.004
31
0
0
LINE
8
PIPES
10
1212.435565
20
-3000.004
30
0
11
2251.66605
21
-2400.004
31
0
0
LINE
8
PIPES
10
2251.66605
20
-2400.004
30
0
11
3290.896534
21
-1800.004
31
0
0
LINE
8
PIPES
10
3290.896534
20
-1800.004
30
0
11
4330.127019
21
-1200.004
31
0
0
LINE
8
PIPES
10
-2020.437267
20
-3533.504
30
0
11
-981.206782
21
-2933.504
31
0
0
LINE
8
PIPES
10
-981.206782
20
-2933.504
30
0
11
58.023702
21
-2333.504
31
0
0
LINE
8
PIPES
10
58.023702
20
-2333.504
30
0
11
1097.254187
21
-1733.504
31
0
0
LINE
8
PIPES
10
1097.254187
20
-1733.504
30
0
11
2136.484671
21
-1133.504
31
0
0
LINE
8
PIPES
10
2136.484671
20
-1133.504
30
0
11
3175.715156
21
-533.504
31
0
0
LINE
8
PIPES
10
-3174.84913
20
-2867.004
30
0
11
-2135.618646
21
-2267.004
31
0
0
LINE
8
PIPES
10
-2135.618646
20
-2267.004
30
0
11
-1096.388161
21
-1667.004
31
0
0
LINE
8
PIPES
10
-1096.388161
20
-1667.004
30
0
11
-57.157677
21
-1067.004
31
0
0
LINE
8
PIPES
10
-57.157677
20
-1067.004
30
0
11
982.072808
21
-467.004
31
0
0
LINE
8
PIPES
10
982.072808
20
-467.004
30
0
11
2021.303292
21
132.996
31
0
0
LINE
8
PIPES
10
-4330.127019
20
-2200.004
30
0
11
-3290.896534
21
-1600.004
31
0
0
LINE
8
PIPES
10
-3290.896534
20
-1600.004
30
0
11
-2251.66605
21
-1000.004
31
0
0
LINE
8
PIPES
10
-2251.66605
20
-1000.004
30
0
11
-1212.435565
21
-400.004
31
0
0
LINE
8
PIPES
10
-1212.435565
20
-400.004
30
0
11
-173.205081
21
199.996
31
0
0
LINE
8
PIPES
10
-173.205081
20
199.996
30
0
11
866.025404
21
799.996
31
0
0
LINE
8
PIPES
10
-866.025404
20
-4200.004
30
0
11
-2020.437267
21
-3533.504
31
0
0
LINE
8
PIPES
10
-2020.437267
20
-3533.504
30
0
11
-3174.84913
21
-2867.004
31
0
0
LINE
8
PIPES
10
-3174.84913
20
-2867.004
30
0
11
-4330.127019
21
-2200.004
31
0
0
LINE
8
PIPES
10
173.205081
20
-3600.004
30
0
11
-981.206782
21
-2933.504
31
0
0
LINE
8
PIPES
10
-981.206782
20
-2933.504
30
0
11
-2135.618646
21
-2267.004
31
0
0
LINE
8
PIPES
10
-2135.618646
20
-2267.004
30
0
11
-3290.896534
21
-1600.004
31
0
0
LINE
8
PIPES
10
1212.435565
20
-3000.004
30
0
11
58.023702
21
-2333.504
31
0
0
LINE
8
PIPES
10
58.023702
20
-2333.504
30
0
11
-1096.388161
21
-1667.004
31
0
0
LINE
8
PIPES
10
-1096.388161
20
-1667.004
30
0
11
-2251.66605
21
-1000.004
31
0
0
LINE
8
PIPES
10
2251.66605
20
-2400.004
30
0
11
1097.254187
21
-1733.504
31
0
0
LINE
8
PIPES
10
1097.254187
20
-1733.504
30
0
11
-57.157677
21
-1067.004
31
0
0
LINE
8
PIPES
10
-57.157677
20
-1067.004
30
0
11
-1212.435565
21
-400.004
31
0
0
LINE
8
PIPES
10
3290.896534
20
-1800.004
30
0
11
2136.484671
21
-1133.504
31
0
0
LINE
8
PIPES
10
2136.484671
20
-1133.504
30
0
11
982.072808
21
-467.004
31
0
0
LINE
8
PIPES
10
982.072808
20
-467.004
30
0
11
-173.205081
21
199.996
31
0
0
LINE
8
PIPES
10
4330.127019
20
-1200.004
30
0
11
3175.715156
21
-533.504
31
0
0
LINE
8
PIPES
10
3175.715156
20
-533.504
30
0
11
2021.303292
21
132.996
31
0
0
LINE
8
PIPES
10
2021.303292
20
132.996
30
0
11
866.025404
21
799.996
31
0
0
LINE
8
PIPES
10
-4330.127019
20
-1648.941
30
0
11
-3897.113451
21
-1398.9405
31
0
0
LINE
8
PIPES
10
-3290.896534
20
-1048.941
30
0
11
-2251.66605
21
-448.941
31
0
0
LINE
8
PIPES
10
-2251.66605
20
-448.941
30
0
11
-1212.435565
21
151.059
31
0
0
LINE
8
PIPES
10
-1212.435565
20
151.059
30
0
11
-173.205081
21
751.059
31
0
0
LINE
8
PIPES
10
-173.205081
20
751.059
30
0
11
433.012702
21
1101.059
31
0
0
LINE
8
PIPES
10
-866.025404
20
-3648.941
30
0
11
-2020.437267
21
-2982.441
31
0
0
LINE
8
PIPES
10
-2020.437267
20
-2982.441
30
0
11
-3174.84913
21
-2315.941
31
0
0
LINE
8
PIPES
10
-3174.84913
20
-2315.941
30
0
11
-3897.114317
21
-1898.941
31
0
0
LINE
8
PIPES
10
4330.127019
20
-648.941
30
0
11
3175.715156
21
17.559
31
0
0
LINE
8
PIPES
10
3175.715156
20
17.559
30
0
11
2021.303292
21
684.059
31
0
0
LINE
8
PIPES
10
2021.303292
20
684.059
30
0
11
1299.038106
21
1101.059
31
0
0
LINE
8
PIPES
10
-866.025404
20
-3648.941
30
0
11
-433.011836
21
-3398.9405
31
0
0
LINE
8
PIPES
10
-433.011836
20
-3398.9405
30
0
11
173.205081
21
-3048.941
31
0
0
LINE
8
PIPES
10
173.205081
20
-3048.941
30
0
11
1212.435565
21
-2448.941
31
0
0
LINE
8
PIPES
10
1212.435565
20
-2448.941
30
0
11
2251.66605
21
-1848.941
31
0
0
LINE
8
PIPES
10
2251.66605
20
-1848.941
30
0
11
3290.896534
21
-1248.941
31
0
0
LINE
8
PIPES
10
3290.896534
20
-1248.941
30
0
11
3897.114317
21
-898.941
31
0
0
LINE
8
PIPES
10
3897.114317
20
-898.941
30
0
11
4330.127019
21
-648.941
31
0
0
LINE
8
PIPES
10
-2020.437267
20
-2982.441
30
0
11
-1587.423699
21
-2732.4405
31
0
0
LINE
8
PIPES
10
-1587.423699
20
-2732.4405
30
0
11
-981.206782
21
-2382.441
31
0
0
LINE
8
PIPES
10
-981.206782
20
-2382.441
30
0
11
58.023702
21
-1782.441
31
0
0
LINE
8
PIPES
10
58.023702
20
-1782.441
30
0
11
1097.254187
21
-1182.441
31
0
0
LINE
8
PIPES
10
1097.254187
20
-1182.441
30
0
11
2136.484671
21
-582.441
31
0
0
LINE
8
PIPES
10
2136.484671
20
-582.441
30
0
11
2742.702454
21
-232.441
31
0
0
LINE
8
PIPES
10
2742.702454
20
-232.441
30
0
11
3175.715156
21
17.559
31
0
0
LINE
8
PIPES
10
-3174.84913
20
-2315.941
30
0
11
-2741.835562
21
-2065.9405
31
0
0
LINE
8
PIPES
10
-2741.835562
20
-2065.9405
30
0
11
-2135.618646
21
-1715.941
31
0
0
LINE
8
PIPES
10
-2135.618646
20
-1715.941
30
0
11
-1096.388161
21
-1115.941
31
0
0
LINE
8
PIPES
10
-1096.388161
20
-1115.941
30
0
11
-57.157677
21
-515.941
31
0
0
LINE
8
PIPES
10
-57.157677
20
-515.941
30
0
11
982.072808
21
84.059
31
0
0
LINE
8
PIPES
10
982.072808
20
84.059
30
0
11
1588.290591
21
434.059
31
0
0
LINE
8
PIPES
10
1588.290591
20
434.059
30
0
11
2021.303292
21
684.059
31
0
0
LINE
8
PIPES
10
-2251.66605
20
-448.941
30
0
11
-1818.653348
21
-698.941
31
0
0
LINE
8
PIPES
10
-1818.653348
20
-698.941
30
0
11
-1096.388161
21
-1115.941
31
0
0
LINE
8
PIPES
10
-1212.435565
20
151.059
30
0
11
-779.422863
21
-98.941
31
0
0
LINE
8
PIPES
10
-779.422863
20
-98.941
30
0
11
-57.157677
21
-515.941
31
0
0
LINE
8
PIPES
10
-3290.896534
20
-1048.941
30
0
11
-2857.883832
21
-1298.941
31
0
0
LINE
8
PIPES
10
-2857.883832
20
-1298.941
30
0
11
-2135.618646
21
-1715.941
31
0
0
LINE
8
PIPES
10
-173.205081
20
751.059
30
0
11
259.807621
21
501.059
31
0
0
LINE
8
PIPES
10
259.807621
20
501.059
30
0
11
982.072808
21
84.059
31
0
0
LINE
8
PIPES
10
-433.011836
20
-3398.9405
30
0
11
-866.024538
21
-3148.9405
31
0
0
LINE
8
PIPES
10
-3464.100749
20
-1648.9405
30
0
11
-3897.113451
21
-1398.9405
31
0
0
LINE
8
PIPES
10
3897.114317
20
-898.941
30
0
11
3464.101615
21
-648.941
31
0
0
LINE
8
PIPES
10
866.025404
20
851.059
30
0
11
433.012702
21
1101.059
31
0
0
LINE
8
PIPES
10
-3464.100749
20
-1199.3245
30
0
11
-2857.883832
21
-849.325
31
0
0
LINE
8
PIPES
10
-2857.883832
20
-849.325
30
0
11
-1818.653348
21
-249.325
31
0
0
LINE
8
PIPES
10
-779.422863
20
350.675
30
0
11
259.807621
21
950.675
31
0
0
LINE
8
PIPES
10
259.807621
20
950.675
30
0
11
866.025404
21
1300.675
31
0
0
LINE
8
PIPES
10
866.025404
20
1800.675
30
0
11
433.012702
21
1550.675
31
0
0
LINE
8
PIPES
10
433.012702
20
1550.675
30
0
11
-173.205081
21
1200.675
31
0
0
LINE
8
PIPES
10
-173.205081
20
1200.675
30
0
11
-1212.435565
21
600.675
31
0
0
LINE
8
PIPES
10
-2251.66605
20
0.675
30
0
11
-3290.896534
21
-599.325
31
0
0
LINE
8
PIPES
10
-3290.896534
20
-599.325
30
0
11
-3897.113451
21
-949.3245
31
0
0
LINE
8
PIPES
10
-3897.113451
20
-949.3245
30
0
11
-4330.127019
21
-1199.325
31
0
0
LINE
8
PIPES
10
-866.025404
20
-3199.325
30
0
11
-1299.038106
21
-2949.325
31
0
0
LINE
8
PIPES
10
-2020.437267
20
-2532.825
30
0
11
-3174.84913
21
-1866.325
31
0
0
LINE
8
PIPES
10
-3174.84913
20
-1866.325
30
0
11
-3897.114317
21
-1449.325
31
0
0
LINE
8
PIPES
10
4330.127019
20
-199.325
30
0
11
3897.114317
21
50.675
31
0
0
LINE
8
PIPES
10
3175.715156
20
467.175
30
0
11
2021.303292
21
1133.675
31
0
0
LINE
8
PIPES
10
2021.303292
20
1133.675
30
0
11
1299.038106
21
1550.675
31
0
0
LINE
8
PIPES
10
-433.011836
20
-2949.3245
30
0
11
-866.024538
21
-2699.3245
31
0
0
LINE
8
PIPES
10
-3464.100749
20
-1199.3245
30
0
11
-3897.113451
21
-949.3245
31
0
0
LINE
8
PIPES
10
3897.114317
20
-449.325
30
0
11
3464.101615
21
-199.325
31
0
0
LINE
8
PIPES
10
866.025404
20
1300.675
30
0
11
433.012702
21
1550.675
31
0
0
LINE
8
PIPES
10
-2251.66605
20
0.675
30
0
11
-1818.653348
21
-249.325
31
0
0
LINE
8
PIPES
10
-1212.435565
20
600.675
30
0
11
-779.422863
21
350.675
31
0
0
LINE
8
PIPES
10
-3290.896534
20
-599.325
30
0
11
-2857.883832
21
-849.325
31
0
0
LINE
8
PIPES
10
-173.205081
20
1200.675
30
0
11
259.807621
21
950.675
31
0
0
LINE
8
PIPES
10
-866.025404
20
-3199.325
30
0
11
-433.011836
21
-2949.3245
31
0
0
LINE
8
PIPES
10
4330.127019
20
-199.325
30
0
11
3897.114317
21
-449.325
31
0
0
LINE
8
PIPES
10
-2020.437267
20
-2532.825
30
0
11
-1587.423699
21
-2282.8245
31
0
0
LINE
8
PIPES
10
3175.715156
20
467.175
30
0
11
2742.702454
21
217.175
31
0
0
LINE
8
PIPES
10
-3174.84913
20
-1866.325
30
0
11
-2741.835562
21
-1616.3245
31
0
0
LINE
8
PIPES
10
2021.303292
20
1133.675
30
0
11
1588.290591
21
883.675
31
0
0
LINE
8
PIPES
10
-4330.127019
20
-664.895
30
0
11
-3290.896534
21
-64.895
31
0
0
LINE
8
PIPES
10
-3290.896534
20
-64.895
30
0
11
-2251.66605
21
535.105
31
0
0
LINE
8
PIPES
10
-1212.435565
20
1135.105
30
0
11
-173.205081
21
1735.105
31
0
0
LINE
8
PIPES
10
-173.205081
20
1735.105
30
0
11
866.025404
21
2335.105
31
0
0
LINE
8
PIPES
10
-866.025404
20
-2664.895
30
0
11
-2020.437267
21
-1998.395
31
0
0
LINE
8
PIPES
10
-2020.437267
20
-1998.395
30
0
11
-3174.84913
21
-1331.895
31
0
0
LINE
8
PIPES
10
-3174.84913
20
-1331.895
30
0
11
-4330.127019
21
-664.895
31
0
0
LINE
8
PIPES
10
4330.127019
20
335.105
30
0
11
3175.715156
21
1001.605
31
0
0
LINE
8
PIPES
10
3175.715156
20
1001.605
30
0
11
2021.303292
21
1668.105
31
0
0
LINE
8
PIPES
10
2021.303292
20
1668.105
30
0
11
866.025404
21
2335.105
31
0
0
LINE
8
PIPES
10
-4330.127019
20
-74.465
30
0
11
-3290.896534
21
525.535
31
0
0
LINE
8
PIPES
10
-3290.896534
20
525.535
30
0
11
-2251.66605
21
1125.535
31
0
0
LINE
8
PIPES
10
-1212.435565
20
1725.535
30
0
11
-173.205081
21
2325.535
31
0
0
LINE
8
PIPES
10
-173.205081
20
2325.535
30
0
11
866.025404
21
2925.535
31
0
0
LINE
8
PIPES
10
-866.025404
20
-2074.465
30
0
11
-2020.437267
21
-1407.965
31
0
0
LINE
8
PIPES
10
-2020.437267
20
-1407.965
30
0
11
-3174.84913
21
-741.465
31
0
0
LINE
8
PIPES
10
-3174.84913
20
-741.465
30
0
11
-4330.127019
21
-74.465
31
0
0
LINE
8
PIPES
10
4330.127019
20
925.535
30
0
11
3175.715156
21
1592.035
31
0
0
LINE
8
PIPES
10
3175.715156
20
1592.035
30
0
11
2021.303292
21
2258.535
31
0
0
LINE
8
PIPES
10
2021.303292
20
2258.535
30
0
11
866.025404
21
2925.535
31
0
0
LINE
8
PIPES
10
-4330.127019
20
1500.005
30
0
11
-3290.896534
21
2100.005
31
0
0
LINE
8
PIPES
10
-4330.127019
20
1200.385
30
0
11
-3290.896534
21
1800.385
31
0
0
LINE
8
PIPES
10
-3290.896534
20
2100.005
30
0
11
-2251.66605
21
2700.005
31
0
0
LINE
8
PIPES
10
-3290.896534
20
1800.385
30
0
11
-2251.66605
21
2400.385
31
0
0
LINE
8
PIPES
10
-2251.66605
20
2700.005
30
0
11
-1212.435565
21
3300.005
31
0
0
LINE
8
PIPES
10
-2251.66605
20
2400.385
30
0
11
-1212.435565
21
3000.385
31
0
0
LINE
8
PIPES
10
-1212.435565
20
3300.005
30
0
11
-173.205081
21
3900.005
31
0
0
LINE
8
PIPES
10
-1212.435565
20
3000.385
30
0
11
-173.205081
21
3600.385
31
0
0
LINE
8
PIPES
10
-173.205081
20
3900.005
30
0
11
866.025404
21
4500.005
31
0
0
LINE
8
PIPES
10
-173.205081
20
3600.385
30
0
11
866.025404
21
4200.385
31
0
0
LINE
8
PIPES
10
841.932577
20
690.725
30
0
11
584.134135
21
858.165
31
0
0
LINE
8
PIPES
10
584.134135
20
858.165
30
0
11
326.335693
21
1025.605
31
0
0
LINE
8
PIPES
10
326.335693
20
1025.605
30
0
11
68.53725
21
1193.045
31
0
0
LINE
8
PIPES
10
68.53725
20
1193.045
30
0
11
58.023702
21
1209.055
31
0
0
LINE
8
PIPES
10
-189.261192
20
1360.485
30
0
11
-447.068294
21
1527.93
31
0
0
LINE
8
PIPES
10
-447.068294
20
1527.93
30
0
11
-704.866736
21
1695.37
31
0
0
LINE
8
PIPES
10
-704.866736
20
1695.37
30
0
11
-962.665179
21
1862.81
31
0
0
LINE
8
PIPES
10
-962.665179
20
1862.81
30
0
11
-1096.388161
21
1954.285
31
0
0
LINE
8
PIPES
10
-1220.463621
20
2030.24
30
0
11
-1478.262063
21
2197.68
31
0
0
LINE
8
PIPES
10
-1478.262063
20
2197.68
30
0
11
-1736.069165
21
2365.125
31
0
0
LINE
8
PIPES
10
-1736.069165
20
2365.125
30
0
11
-1993.867608
21
2532.565
31
0
0
LINE
8
PIPES
10
-1993.867608
20
2532.565
30
0
11
-2251.66605
21
2700.005
31
0
0
LINE
8
PIPES
10
841.932577
20
391.105
30
0
11
584.134135
21
558.545
31
0
0
LINE
8
PIPES
10
584.134135
20
558.545
30
0
11
326.335693
21
725.985
31
0
0
LINE
8
PIPES
10
326.335693
20
725.985
30
0
11
68.53725
21
893.425
31
0
0
LINE
8
PIPES
10
68.53725
20
893.425
30
0
11
58.023702
21
909.435
31
0
0
LINE
8
PIPES
10
-189.261192
20
1060.865
30
0
11
-447.068294
21
1228.31
31
0
0
LINE
8
PIPES
10
-447.068294
20
1228.31
30
0
11
-704.866736
21
1395.75
31
0
0
LINE
8
PIPES
10
-704.866736
20
1395.75
30
0
11
-962.665179
21
1563.18
31
0
0
LINE
8
PIPES
10
-962.665179
20
1563.18
30
0
11
-1096.388161
21
1654.665
31
0
0
LINE
8
PIPES
10
-1220.463621
20
1730.62
30
0
11
-1478.262063
21
1898.06
31
0
0
LINE
8
PIPES
10
-1478.262063
20
1898.06
30
0
11
-1736.069165
21
2065.505
31
0
0
LINE
8
PIPES
10
-1736.069165
20
2065.505
30
0
11
-1993.867608
21
2232.945
31
0
0
LINE
8
PIPES
10
-1993.867608
20
2232.945
30
0
11
-2251.66605
21
2400.385
31
0
0
LINE
8
PIPES
10
-2251.66605
20
2400.385
30
0
11
-2251.66605
21
2416.595
31
0
0
LINE
8
PIPES
10
841.932577
20
690.725
30
0
11
841.932577
21
391.105
31
0
0
LINE
8
PIPES
10
584.134135
20
858.165
30
0
11
584.134135
21
558.545
31
0
0
LINE
8
PIPES
10
326.335693
20
1025.605
30
0
11
326.335693
21
725.985
31
0
0
LINE
8
PIPES
10
68.53725
20
1193.045
30
0
11
68.53725
21
893.425
31
0
0
LINE
8
PIPES
10
-189.261192
20
1360.485
30
0
11
-189.261192
21
1060.865
31
0
0
LINE
8
PIPES
10
-447.068294
20
1527.93
30
0
11
-447.068294
21
1228.31
31
0
0
LINE
8
PIPES
10
-704.866736
20
1695.37
30
0
11
-704.866736
21
1395.75
31
0
0
LINE
8
PIPES
10
-962.665179
20
1862.81
30
0
11
-962.665179
21
1563.18
31
0
0
LINE
8
PIPES
10
-1220.463621
20
2030.24
30
0
11
-1220.463621
21
1730.62
31
0
0
LINE
8
PIPES
10
-1478.262063
20
2197.68
30
0
11
-1478.262063
21
1898.06
31
0
0
LINE
8
PIPES
10
-1736.069165
20
2365.125
30
0
11
-1736.069165
21
2065.505
31
0
0
LINE
8
PIPES
10
-1993.867608
20
2532.565
30
0
11
-1993.867608
21
2232.945
31
0
0
LINE
8
PIPES
10
1881.163062
20
1290.725
30
0
11
1623.364619
21
1458.165
31
0
0
LINE
8
PIPES
10
1623.364619
20
1458.165
30
0
11
1365.566177
21
1625.605
31
0
0
LINE
8
PIPES
10
1365.566177
20
1625.605
30
0
11
1107.767735
21
1793.045
31
0
0
LINE
8
PIPES
10
1107.767735
20
1793.045
30
0
11
1097.254187
21
1809.055
31
0
0
LINE
8
PIPES
10
849.969293
20
1960.485
30
0
11
592.16219
21
2127.93
31
0
0
LINE
8
PIPES
10
592.16219
20
2127.93
30
0
11
334.363748
21
2295.37
31
0
0
LINE
8
PIPES
10
334.363748
20
2295.37
30
0
11
76.565306
21
2462.81
31
0
0
LINE
8
PIPES
10
76.565306
20
2462.81
30
0
11
-57.157677
21
2554.285
31
0
0
LINE
8
PIPES
10
-181.233136
20
2630.24
30
0
11
-439.031578
21
2797.68
31
0
0
LINE
8
PIPES
10
-439.031578
20
2797.68
30
0
11
-696.838681
21
2965.125
31
0
0
LINE
8
PIPES
10
-696.838681
20
2965.125
30
0
11
-954.637123
21
3132.565
31
0
0
LINE
8
PIPES
10
-954.637123
20
3132.565
30
0
11
-1212.435565
21
3300.005
31
0
0
LINE
8
PIPES
10
1881.163062
20
991.105
30
0
11
1623.364619
21
1158.545
31
0
0
LINE
8
PIPES
10
1623.364619
20
1158.545
30
0
11
1365.566177
21
1325.985
31
0
0
LINE
8
PIPES
10
1365.566177
20
1325.985
30
0
11
1107.767735
21
1493.425
31
0
0
LINE
8
PIPES
10
1107.767735
20
1493.425
30
0
11
1097.254187
21
1509.435
31
0
0
LINE
8
PIPES
10
849.969293
20
1660.865
30
0
11
592.16219
21
1828.31
31
0
0
LINE
8
PIPES
10
592.16219
20
1828.31
30
0
11
334.363748
21
1995.75
31
0
0
LINE
8
PIPES
10
334.363748
20
1995.75
30
0
11
76.565306
21
2163.18
31
0
0
LINE
8
PIPES
10
76.565306
20
2163.18
30
0
11
-57.157677
21
2254.665
31
0
0
LINE
8
PIPES
10
-181.233136
20
2330.62
30
0
11
-439.031578
21
2498.06
31
0
0
LINE
8
PIPES
10
-439.031578
20
2498.06
30
0
11
-696.838681
21
2665.505
31
0
0
LINE
8
PIPES
10
-696.838681
20
2665.505
30
0
11
-954.637123
21
2832.945
31
0
0
LINE
8
PIPES
10
-954.637123
20
2832.945
30
0
11
-1212.435565
21
3000.385
31
0
0
LINE
8
PIPES
10
-1212.435565
20
3000.385
30
0
11
-1212.435565
21
3016.595
31
0
0
LINE
8
PIPES
10
1881.163062
20
1290.725
30
0
11
1881.163062
21
991.105
31
0
0
LINE
8
PIPES
10
1623.364619
20
1458.165
30
0
11
1623.364619
21
1158.545
31
0
0
LINE
8
PIPES
10
1365.566177
20
1625.605
30
0
11
1365.566177
21
1325.985
31
0
0
LINE
8
PIPES
10
1107.767735
20
1793.045
30
0
11
1107.767735
21
1493.425
31
0
0
LINE
8
PIPES
10
849.969293
20
1960.485
30
0
11
849.969293
21
1660.865
31
0
0
LINE
8
PIPES
10
592.16219
20
2127.93
30
0
11
592.16219
21
1828.31
31
0
0
LINE
8
PIPES
10
334.363748
20
2295.37
30
0
11
334.363748
21
1995.75
31
0
0
LINE
8
PIPES
10
76.565306
20
2462.81
30
0
11
76.565306
21
2163.18
31
0
0
LINE
8
PIPES
10
-181.233136
20
2630.24
30
0
11
-181.233136
21
2330.62
31
0
0
LINE
8
PIPES
10
-439.031578
20
2797.68
30
0
11
-439.031578
21
2498.06
31
0
0
LINE
8
PIPES
10
-696.838681
20
2965.125
30
0
11
-696.838681
21
2665.505
31
0
0
LINE
8
PIPES
10
-954.637123
20
3132.565
30
0
11
-954.637123
21
2832.945
31
0
0
LINE
8
PIPES
10
-866.025404
20
-1035.785
30
0
11
-2020.437267
21
-1407.965
31
0
0
LINE
8
PIPES
10
-2020.437267
20
-1407.965
30
0
11
-866.025404
21
-3199.325
31
0
0
LINE
8
PIPES
10
-866.025404
20
-3199.325
30
0
11
-2020.437267
21
-3833.505
31
0
0
LINE
8
PIPES
10
-2020.437267
20
-290.565
30
0
11
-3174.84913
21
-741.465
31
0
0
LINE
8
PIPES
10
-3174.84913
20
-741.465
30
0
11
-2020.437267
21
-2532.825
31
0
0
LINE
8
PIPES
10
-2020.437267
20
-2532.825
30
0
11
-3174.84913
21
-3167.005
31
0
0
LINE
8
PIPES
10
-3174.84913
20
454.665
30
0
11
-4330.127019
21
-74.465
31
0
0
LINE
8
PIPES
10
-4330.127019
20
-74.465
30
0
11
-3174.84913
21
-1866.325
31
0
0
LINE
8
PIPES
10
-3174.84913
20
-1866.325
30
0
11
-4330.127019
21
-2500.005
31
0
0
LINE
8
PIPES
10
-2251.66605
20
1519.155
30
0
11
-1212.435565
21
2119.155
31
0
0
LINE
8
PIPES
10
173.205081
20
-3048.941
30
0
11
-259.807621
21
-2798.941
31
0
0
LINE
8
PIPES
10
-981.206782
20
-2382.441
30
0
11
-2135.618646
21
-1715.941
31
0
0
LINE
8
PIPES
10
1212.435565
20
-2448.941
30
0
11
779.422863
21
-2198.941
31
0
0
LINE
8
PIPES
10
58.023702
20
-1782.441
30
0
11
-1096.388161
21
-1115.941
31
0
0
LINE
8
PIPES
10
2251.66605
20
-1848.941
30
0
11
1818.653348
21
-1598.941
31
0
0
LINE
8
PIPES
10
1097.254187
20
-1182.441
30
0
11
-57.157677
21
-515.941
31
0
0
LINE
8
PIPES
10
3290.896534
20
-1248.941
30
0
11
2857.883832
21
-998.941
31
0
0
LINE
8
PIPES
10
2136.484671
20
-582.441
30
0
11
982.072808
21
84.059
31
0
0
LINE
8
PIPES
10
-866.025404
20
-3648.941
30
0
11
173.205081
21
-3600.004
31
0
0
LINE
8
PIPES
10
173.205081
20
-3600.004
30
0
11
1212.435565
21
-2448.941
31
0
0
LINE
8
PIPES
10
1212.435565
20
-2448.941
30
0
11
2251.66605
21
-2400.004
31
0
0
LINE
8
PIPES
10
2251.66605
20
-2400.004
30
0
11
3290.896534
21
-1248.941
31
0
0
LINE
8
PIPES
10
3290.896534
20
-1248.941
30
0
11
4330.127019
21
-1200.004
31
0
0
LINE
8
PIPES
10
-2020.437267
20
-3533.504
30
0
11
-981.206782
21
-2382.441
31
0
0
LINE
8
PIPES
10
-981.206782
20
-2382.441
30
0
11
58.023702
21
-2333.504
31
0
0
LINE
8
PIPES
10
58.023702
20
-2333.504
30
0
11
1097.254187
21
-1182.441
31
0
0
LINE
8
PIPES
10
1097.254187
20
-1182.441
30
0
11
2136.484671
21
-1133.504
31
0
0
LINE
8
PIPES
10
2136.484671
20
-1133.504
30
0
11
3175.715156
21
17.559
31
0
0
LINE
8
PIPES
10
-3174.84913
20
-2315.941
30
0
11
-2135.618646
21
-2267.004
31
0
0
LINE
8
PIPES
10
-2135.618646
20
-2267.004
30
0
11
-1096.388161
21
-1115.941
31
0
0
LINE
8
PIPES
10
-1096.388161
20
-1115.941
30
0
11
-57.157677
21
-1067.004
31
0
0
LINE
8
PIPES
10
-57.157677
20
-1067.004
30
0
11
982.072808
21
84.059
31
0
0
LINE
8
PIPES
10
982.072808
20
84.059
30
0
11
2021.303292
21
132.996
31
0
0
LINE
8
PIPES
10
-4330.127019
20
-2200.004
30
0
11
-3290.896534
21
-1048.941
31
0
0
LINE
8
PIPES
10
-3290.896534
20
-1048.941
30
0
11
-2251.66605
21
-1000.004
31
0
0
LINE
8
PIPES
10
-2251.66605
20
-1000.004
30
0
11
-1212.435565
21
151.059
31
0
0
LINE
8
PIPES
10
-1212.435565
20
151.059
30
0
11
-173.205081
21
199.996
31
0
0
LINE
8
PIPES
10
-173.205081
20
199.996
30
0
11
866.025404
21
1351.059
31
0
0
LINE
8
PIPES
10
173.205081
20
-3600.004
30
0
11
-981.206782
21
-2382.441
31
0
0
LINE
8
PIPES
10
-981.206782
20
-2382.441
30
0
11
-2135.618646
21
-2267.004
31
0
0
LINE
8
PIPES
10
-2135.618646
20
-2267.004
30
0
11
-3290.896534
21
-1048.941
31
0
0
LINE
8
PIPES
10
1212.435565
20
-2448.941
30
0
11
58.023702
21
-2333.504
31
0
0
LINE
8
PIPES
10
58.023702
20
-2333.504
30
0
11
-1096.388161
21
-1115.941
31
0
0
LINE
8
PIPES
10
-1096.388161
20
-1115.941
30
0
11
-2251.66605
21
-1000.004
31
0
0
LINE
8
PIPES
10
2251.66605
20
-2400.004
30
0
11
1097.254187
21
-1182.441
31
0
0
LINE
8
PIPES
10
1097.254187
20
-1182.441
30
0
11
-57.157677
21
-1067.004
31
0
0
LINE
8
PIPES
10
-57.157677
20
-1067.004
30
0
11
-1212.435565
21
151.059
31
0
0
LINE
8
PIPES
10
3290.896534
20
-1248.941
30
0
11
2136.484671
21
-1133.504
31
0
0
LINE
8
PIPES
10
2136.484671
20
-1133.504
30
0
11
982.072808
21
84.059
31
0
0
LINE
8
PIPES
10
982.072808
20
84.059
30
0
11
-173.205081
21
199.996
31
0
0
LINE
8
PIPES
10
-866.025404
20
-1035.785
30
0
11
-2020.437267
21
-290.565
31
0
0
LINE
8
PIPES
10
-2020.437267
20
-290.565
30
0
11
-3174.84913
21
454.665
31
0
0
LINE
8
PIPES
10
-3174.84913
20
454.665
30
0
11
-4330.127019
21
1200.385
31
0
0
LINE
8
PIPES
10
-866.025404
20
-736.165
30
0
11
-2020.437267
21
9.055
31
0
0
LINE
8
PIPES
10
-2020.437267
20
9.055
30
0
11
-3174.84913
21
754.285
31
0
0
LINE
8
PIPES
10
-3174.84913
20
754.285
30
0
11
-4330.127019
21
1500.005
31
0
0
LINE
8
PIPES
10
4330.127019
20
1964.215
30
0
11
3175.715156
21
2709.435
31
0
0
LINE
8
PIPES
10
3175.715156
20
2709.435
30
0
11
2021.303292
21
3454.665
31
0
0
LINE
8
PIPES
10
2021.303292
20
3454.665
30
0
11
866.025404
21
4200.385
31
0
0
LINE
8
PIPES
10
4330.127019
20
2263.835
30
0
11
3175.715156
21
3009.055
31
0
0
LINE
8
PIPES
10
3175.715156
20
3009.055
30
0
11
2021.303292
21
3754.285
31
0
0
LINE
8
PIPES
10
2021.303292
20
3754.285
30
0
11
866.025404
21
4500.005
31
0
0
LINE
8
PIPES
10
866.025404
20
4200.385
30
0
11
2021.303292
21
2258.535
31
0
0
LINE
8
PIPES
10
2021.303292
20
2258.535
30
0
11
866.025404
21
1800.675
31
0
0
LINE
8
PIPES
10
866.025404
20
1800.675
30
0
11
2021.303292
21
-167.005
31
0
0
LINE
8
PIPES
10
2021.303292
20
3454.665
30
0
11
3175.715156
21
1592.035
31
0
0
LINE
8
PIPES
10
3175.715156
20
1592.035
30
0
11
2021.303292
21
1133.675
31
0
0
LINE
8
PIPES
10
2021.303292
20
1133.675
30
0
11
3175.715156
21
-833.505
31
0
0
LINE
8
PIPES
10
3175.715156
20
2709.435
30
0
11
4330.127019
21
925.535
31
0
0
LINE
8
PIPES
10
4330.127019
20
925.535
30
0
11
3175.715156
21
467.175
31
0
0
LINE
8
PIPES
10
3175.715156
20
467.175
30
0
11
4330.127019
21
-1500.005
31
0
0
LINE
8
PIPES
10
-1212.435565
20
3016.595
30
0
11
-2251.66605
21
1519.155
31
0
0
LINE
8
PIPES
10
-3290.896534
20
1800.385
30
0
11
-4330.127019
21
-74.465
31
0
0
LINE
8
PIPES
10
-4330.127019
20
-74.465
30
0
11
-3290.896534
21
-599.325
31
0
0
LINE
8
PIPES
10
-3290.896534
20
-599.325
30
0
11
-4330.127019
21
-2500.005
31
0
0
LINE
8
PIPES
10
-2251.66605
20
2416.595
30
0
11
-3290.896534
21
525.535
31
0
0
LINE
8
PIPES
10
-3290.896534
20
525.535
30
0
11
-2251.66605
21
0.675
31
0
0
LINE
8
PIPES
10
-2251.66605
20
0.675
30
0
11
-3290.896534
21
-1900.005
31
0
0
LINE
8
PIPES
10
-173.205081
20
3600.385
30
0
11
-1212.435565
21
1725.535
31
0
0
LINE
8
PIPES
10
-1212.435565
20
1725.535
30
0
11
-173.205081
21
1200.675
31
0
0
LINE
8
PIPES
10
-173.205081
20
1200.675
30
0
11
-1212.435565
21
-700.005
31
0
0
LINE
8
PIPES
10
866.025404
20
4200.385
30
0
11
-173.205081
21
2325.535
31
0
0
LINE
8
PIPES
10
-173.205081
20
2325.535
30
0
11
866.025404
21
1800.675
31
0
0
LINE
8
PIPES
10
-173.205081
20
-100.005
30
0
11
866.025404
21
1800.675
31
0
0
LINE
8
PIPES
10
-866.025404
20
-1035.785
30
0
11
-866.025404
21
-736.165
31
0
0
LINE
8
PIPES
10
-2020.437267
20
-290.565
30
0
11
-2020.437267
21
9.055
31
0
0
LINE
8
PIPES
10
-3174.84913
20
454.665
30
0
11
-3174.84913
21
754.285
31
0
0
LINE
8
PIPES
10
-4330.127019
20
1200.385
30
0
11
-4330.127019
21
1500.005
31
0
0
LINE
8
PIPES
10
-1587.423699
20
-2732.4405
30
0
11
-2741.835562
21
-2065.9405
31
0
0
LINE
8
PIPES
10
-1587.423699
20
-2282.8245
30
0
11
-2741.835562
21
-1616.3245
31
0
0
LINE
8
PIPES
10
2742.702454
20
-232.441
30
0
11
1588.290591
21
434.059
31
0
0
LINE
8
PIPES
10
2742.702454
20
217.175
30
0
11
1588.290591
21
883.675
31
0
0
LINE
8
PIPES
10
-2741.835562
20
-2065.9405
30
0
11
-3464.100749
21
-1648.9405
31
0
0
LINE
8
PIPES
10
-2741.835562
20
-1616.3245
30
0
11
-3464.100749
21
-1199.3245
31
0
0
LINE
8
PIPES
10
1588.290591
20
434.059
30
0
11
866.025404
21
851.059
31
0
0
LINE
8
PIPES
10
1588.290591
20
883.675
30
0
11
866.025404
21
1300.675
31
0
0
LINE
8
PIPES
10
-3897.113451
20
-1398.9405
30
0
11
-3290.896534
21
-1048.941
31
0
0
LINE
8
PIPES
10
433.012702
20
1101.059
30
0
11
866.025404
21
1351.059
31
0
0
LINE
8
PIPES
10
4330.127019
20
1964.215
30
0
11
4330.127019
21
2263.835
31
0
0
LINE
8
PIPES
10
3175.715156
20
2709.435
30
0
11
3175.715156
21
3009.055
31
0
0
LINE
8
PIPES
10
2021.303292
20
3454.665
30
0
11
2021.303292
21
3754.285
31
0
0
LINE
8
PIPES
10
866.025404
20
4200.385
30
0
11
866.025404
21
4500.005
31
0
0
LINE
8
PIPES
10
-3290.896534
20
1800.385
30
0
11
-3290.896534
21
2100.005
31
0
0
LINE
8
PIPES
10
-173.205081
20
3600.385
30
0
11
-173.205081
21
3900.005
31
0
0
LINE
8
PIPES
10
-866.025404
20
-736.165
30
0
11
173.205081
21
-136.165
31
0
0
LINE
8
PIPES
10
-866.025404
20
-1035.785
30
0
11
173.205081
21
-435.785
31
0
0
LINE
8
PIPES
10
-2020.437267
20
9.055
30
0
11
-981.206782
21
609.055
31
0
0
LINE
8
PIPES
10
-2020.437267
20
-290.565
30
0
11
-981.206782
21
309.435
31
0
0
LINE
8
PIPES
10
-3174.84913
20
754.285
30
0
11
-2135.618646
21
1354.285
31
0
0
LINE
8
PIPES
10
-3174.84913
20
454.665
30
0
11
-2135.618646
21
1054.665
31
0
0
LINE
8
PIPES
10
173.205081
20
-435.785
30
0
11
173.205081
21
-136.165
31
0
0
LINE
8
PIPES
10
-981.206782
20
309.435
30
0
11
-981.206782
21
609.055
31
0
0
LINE
8
PIPES
10
-2135.618646
20
1054.665
30
0
11
-2135.618646
21
1354.285
31
0
0
LINE
8
PIPES
10
1212.435565
20
463.835
30
0
11
841.932577
21
690.725
31
0
0
LINE
8
PIPES
10
173.205081
20
-136.165
30
0
11
1212.435565
21
463.835
31
0
0
LINE
8
PIPES
10
1212.435565
20
164.215
30
0
11
841.932577
21
391.105
31
0
0
LINE
8
PIPES
10
173.205081
20
-435.785
30
0
11
1212.435565
21
164.215
31
0
0
LINE
8
PIPES
10
58.023702
20
1209.055
30
0
11
-189.261192
21
1360.485
31
0
0
LINE
8
PIPES
10
-981.206782
20
609.055
30
0
11
58.023702
21
1209.055
31
0
0
LINE
8
PIPES
10
58.023702
20
909.435
30
0
11
-189.261192
21
1060.865
31
0
0
LINE
8
PIPES
10
-981.206782
20
309.435
30
0
11
58.023702
21
909.435
31
0
0
LINE
8
PIPES
10
-1096.388161
20
1954.285
30
0
11
-1220.463621
21
2030.24
31
0
0
LINE
8
PIPES
10
-2135.618646
20
1354.285
30
0
11
-1096.388161
21
1954.285
31
0
0
LINE
8
PIPES
10
-1096.388161
20
1654.665
30
0
11
-1220.463621
21
1730.62
31
0
0
LINE
8
PIPES
10
-2135.618646
20
1054.665
30
0
11
-1096.388161
21
1654.665
31
0
0
LINE
8
PIPES
10
1212.435565
20
164.215
30
0
11
1212.435565
21
463.835
31
0
0
LINE
8
PIPES
10
58.023702
20
909.435
30
0
11
58.023702
21
1209.055
31
0
0
LINE
8
PIPES
10
-1096.388161
20
1654.665
30
0
11
-1096.388161
21
1954.285
31
0
0
LINE
8
PIPES
10
2251.66605
20
1063.835
30
0
11
1881.163062
21
1290.725
31
0
0
LINE
8
PIPES
10
1212.435565
20
463.835
30
0
11
2251.66605
21
1063.835
31
0
0
LINE
8
PIPES
10
2251.66605
20
764.215
30
0
11
1881.163062
21
991.105
31
0
0
LINE
8
PIPES
10
1212.435565
20
164.215
30
0
11
2251.66605
21
764.215
31
0
0
LINE
8
PIPES
10
1097.254187
20
1809.055
30
0
11
849.969293
21
1960.485
31
0
0
LINE
8
PIPES
10
58.023702
20
1209.055
30
0
11
1097.254187
21
1809.055
31
0
0
LINE
8
PIPES
10
1097.254187
20
1509.435
30
0
11
849.969293
21
1660.865
31
0
0
LINE
8
PIPES
10
58.023702
20
909.435
30
0
11
1097.254187
21
1509.435
31
0
0
LINE
8
PIPES
10
-57.157677
20
2554.285
30
0
11
-181.233136
21
2630.24
31
0
0
LINE
8
PIPES
10
-1096.388161
20
1954.285
30
0
11
-57.157677
21
2554.285
31
0
0
LINE
8
PIPES
10
-57.157677
20
2254.665
30
0
11
-181.233136
21
2330.62
31
0
0
LINE
8
PIPES
10
-1096.388161
20
1654.665
30
0
11
-57.157677
21
2254.665
31
0
0
LINE
8
PIPES
10
2251.66605
20
764.215
30
0
11
2251.66605
21
1063.835
31
0
0
LINE
8
PIPES
10
1097.254187
20
1509.435
30
0
11
1097.254187
21
1809.055
31
0
0
LINE
8
PIPES
10
-57.157677
20
2254.665
30
0
11
-57.157677
21
2554.285
31
0
0
LINE
8
PIPES
10
2251.66605
20
1063.835
30
0
11
3290.905195
21
1663.84
31
0
0
LINE
8
PIPES
10
2251.66605
20
764.215
30
0
11
3290.905195
21
1364.22
31
0
0
LINE
8
PIPES
10
1097.254187
20
1809.055
30
0
11
2136.493331
21
2409.06
31
0
0
LINE
8
PIPES
10
1097.254187
20
1509.435
30
0
11
2136.493331
21
2109.44
31
0
0
LINE
8
PIPES
10
-57.157677
20
2554.285
30
0
11
982.081468
21
3154.29
31
0
0
LINE
8
PIPES
10
-57.157677
20
2254.665
30
0
11
982.081468
21
2854.67
31
0
0
LINE
8
PIPES
10
3290.905195
20
1364.22
30
0
11
3290.905195
21
1663.84
31
0
0
LINE
8
PIPES
10
2136.493331
20
2109.44
30
0
11
2136.493331
21
2409.06
31
0
0
LINE
8
PIPES
10
982.081468
20
2854.67
30
0
11
982.081468
21
3154.29
31
0
0
LINE
8
PIPES
10
3290.905195
20
1663.84
30
0
11
4330.127019
21
2263.835
31
0
0
LINE
8
PIPES
10
3290.905195
20
1364.22
30
0
11
4330.127019
21
1964.215
31
0
0
LINE
8
PIPES
10
2136.493331
20
2409.06
30
0
11
3175.715156
21
3009.055
31
0
0
LINE
8
PIPES
10
2136.493331
20
2109.44
30
0
11
3175.715156
21
2709.435
31
0
0
LINE
8
PIPES
10
982.081468
20
3154.29
30
0
11
2021.303292
21
3754.285
31
0
0
LINE
8
PIPES
10
982.081468
20
2854.67
30
0
11
2021.303292
21
3454.665
31
0
0
LINE
8
PIPES
10
-981.206782
20
609.055
30
0
11
173.205081
21
-136.165
31
0
0
LINE
8
PIPES
10
-981.206782
20
609.055
30
0
11
-2135.618646
21
1354.285
31
0
0
LINE
8
PIPES
10
-2135.618646
20
1354.285
30
0
11
-3290.896534
21
2100.005
31
0
0
LINE
8
PIPES
10
173.205081
20
-435.785
30
0
11
-981.206782
21
309.435
31
0
0
LINE
8
PIPES
10
-981.206782
20
309.435
30
0
11
-2135.618646
21
1054.665
31
0
0
LINE
8
PIPES
10
-2135.618646
20
1054.665
30
0
11
-3290.896534
21
1800.385
31
0
0
LINE
8
PIPES
10
3290.905195
20
1364.22
30
0
11
2136.493331
21
2109.44
31
0
0
LINE
8
PIPES
10
2136.493331
20
2109.44
30
0
11
982.081468
21
2854.67
31
0
0
LINE
8
PIPES
10
982.081468
20
2854.67
30
0
11
-173.205081
21
3600.385
31
0
0
LINE
8
PIPES
10
3290.905195
20
1663.84
30
0
11
2136.493331
21
2409.06
31
0
0
LINE
8
PIPES
10
2136.493331
20
2409.06
30
0
11
982.081468
21
3154.29
31
0
0
LINE
8
PIPES
10
982.081468
20
3154.29
30
0
11
-173.205081
21
3900.005
31
0
0
LINE
8
PIPES
10
-866.025404
20
-736.165
30
0
11
173.205081
21
-435.785
31
0
0
LINE
8
PIPES
10
173.205081
20
-435.785
30
0
11
1212.435565
21
463.835
31
0
0
LINE
8
PIPES
10
1212.435565
20
463.835
30
0
11
2251.66605
21
764.215
31
0
0
LINE
8
PIPES
10
2251.66605
20
764.215
30
0
11
3290.905195
21
1663.84
31
0
0
LINE
8
PIPES
10
3290.905195
20
1663.84
30
0
11
4330.127019
21
1964.215
31
0
0
LINE
8
PIPES
10
-2020.437267
20
-290.565
30
0
11
-981.206782
21
609.055
31
0
0
LINE
8
PIPES
10
-981.206782
20
609.055
30
0
11
58.023702
21
909.435
31
0
0
LINE
8
PIPES
10
58.023702
20
909.435
30
0
11
1097.254187
21
1809.055
31
0
0
LINE
8
PIPES
10
1097.254187
20
1809.055
30
0
11
2136.493331
21
2109.44
31
0
0
LINE
8
PIPES
10
3175.715156
20
3009.055
30
0
11
2136.493331
21
2109.44
31
0
0
LINE
8
PIPES
10
-3174.84913
20
754.285
30
0
11
-2135.618646
21
1054.665
31
0
0
LINE
8
PIPES
10
-2135.618646
20
1054.665
30
0
11
-1096.388161
21
1954.285
31
0
0
LINE
8
PIPES
10
-1096.388161
20
1954.285
30
0
11
-57.157677
21
2254.665
31
0
0
LINE
8
PIPES
10
-57.157677
20
2254.665
30
0
11
982.081468
21
3154.29
31
0
0
LINE
8
PIPES
10
982.081468
20
3154.29
30
0
11
2021.303292
21
3454.665
31
0
0
LINE
8
PIPES
10
-4330.127019
20
1200.385
30
0
11
-3290.896534
21
2100.005
31
0
0
LINE
8
PIPES
10
-3290.896534
20
2100.005
30
0
11
-2251.66605
21
2416.595
31
0
0
LINE
8
PIPES
10
-2251.66605
20
2400.385
30
0
11
-1212.435565
21
3300.005
31
0
0
LINE
8
PIPES
10
-1212.435565
20
3300.005
30
0
11
-173.205081
21
3600.385
31
0
0
LINE
8
PIPES
10
-173.205081
20
3600.385
30
0
11
866.025404
21
4500.005
31
0
0
LINE
8
PIPES
10
-866.025404
20
-736.165
30
0
11
-2020.437267
21
-290.565
31
0
0
LINE
8
PIPES
10
-2020.437267
20
-290.565
30
0
11
-3174.84913
21
754.285
31
0
0
LINE
8
PIPES
10
-3174.84913
20
754.285
30
0
11
-4330.127019
21
1200.385
31
0
0
LINE
8
PIPES
10
173.205081
20
-435.785
30
0
11
-981.206782
21
609.055
31
0
0
LINE
8
PIPES
10
-981.206782
20
609.055
30
0
11
-2135.618646
21
1054.665
31
0
0
LINE
8
PIPES
10
-2135.618646
20
1054.665
30
0
11
-3290.896534
21
2100.005
31
0
0
LINE
8
PIPES
10
3290.905195
20
1663.84
30
0
11
2136.493331
21
2109.44
31
0
0
LINE
8
PIPES
10
2136.493331
20
2109.44
30
0
11
982.081468
21
3154.29
31
0
0
LINE
8
PIPES
10
982.081468
20
3154.29
30
0
11
-173.205081
21
3600.385
31
0
0
LINE
8
PIPES
10
4330.127019
20
1964.215
30
0
11
3175.715156
21
3009.055
31
0
0
LINE
8
PIPES
10
3175.715156
20
3009.055
30
0
11
2021.303292
21
3454.665
31
0
0
LINE
8
PIPES
10
2021.303292
20
3454.665
30
0
11
866.025404
21
4500.005
31
0
0
LINE
8
PIPES
10
-3897.114317
20
-1898.941
30
0
11
-4330.127019
21
-1648.941
31
0
0
LINE
8
PIPES
10
1299.038106
20
1101.059
30
0
11
866.025404
21
1351.059
31
0
0
LINE
8
PIPES
10
-3897.114317
20
-1449.325
30
0
11
-4330.127019
21
-1199.325
31
0
0
LINE
8
PIPES
10
-3464.100749
20
-1199.3245
30
0
11
-3897.114317
21
-1449.325
31
0
0
LINE
8
PIPES
10
1299.038106
20
1550.675
30
0
11
866.025404
21
1800.675
31
0
0
LINE
8
PIPES
10
866.025404
20
1300.675
30
0
11
1299.038106
21
1550.675
31
0
0
LINE
8
PIPES
10
-866.025404
20
-736.165
30
0
11
-981.206782
21
609.055
31
0
0
LINE
8
PIPES
10
-981.206782
20
609.055
30
0
11
-3174.84913
21
754.285
31
0
0
LINE
8
PIPES
10
-3174.84913
20
754.285
30
0
11
-3290.896534
21
2100.005
31
0
0
LINE
8
PIPES
10
173.205081
20
-136.165
30
0
11
58.023702
21
1209.055
31
0
0
LINE
8
PIPES
10
58.023702
20
1209.055
30
0
11
-2135.618646
21
1354.285
31
0
0
LINE
8
PIPES
10
-2135.618646
20
1354.285
30
0
11
-2251.66605
21
2700.005
31
0
0
LINE
8
PIPES
10
1212.435565
20
463.835
30
0
11
1097.254187
21
1809.055
31
0
0
LINE
8
PIPES
10
1097.254187
20
1809.055
30
0
11
-1096.388161
21
1954.285
31
0
0
LINE
8
PIPES
10
-1096.388161
20
1954.285
30
0
11
-1212.435565
21
3300.005
31
0
0
LINE
8
PIPES
10
2251.66605
20
1063.835
30
0
11
2136.493331
21
2409.06
31
0
0
LINE
8
PIPES
10
2136.493331
20
2409.06
30
0
11
-57.157677
21
2554.285
31
0
0
LINE
8
PIPES
10
-57.157677
20
2554.285
30
0
11
-173.205081
21
3900.005
31
0
0
LINE
8
PIPES
10
3290.905195
20
1663.84
30
0
11
3175.715156
21
3009.055
31
0
0
LINE
8
PIPES
10
3175.715156
20
3009.055
30
0
11
982.081468
21
3154.29
31
0
0
LINE
8
PIPES
10
982.081468
20
3154.29
30
0
11
866.025404
21
4500.005
31
0
0
LINE
8
PIPES
10
173.205081
20
-435.785
30
0
11
-2020.437267
21
-290.565
31
0
0
LINE
8
PIPES
10
-2020.437267
20
-290.565
30
0
11
-2135.618646
21
1054.665
31
0
0
LINE
8
PIPES
10
-2135.618646
20
1054.665
30
0
11
-4330.127019
21
1200.385
31
0
0
LINE
8
PIPES
10
1212.435565
20
164.215
30
0
11
-981.206782
21
309.435
31
0
0
LINE
8
PIPES
10
-981.206782
20
309.435
30
0
11
-1096.388161
21
1654.665
31
0
0
LINE
8
PIPES
10
-1096.388161
20
1654.665
30
0
11
-3290.896534
21
1800.385
31
0
0
LINE
8
PIPES
10
2251.66605
20
764.215
30
0
11
58.023702
21
909.435
31
0
0
LINE
8
PIPES
10
58.023702
20
909.435
30
0
11
-57.157677
21
2254.665
31
0
0
LINE
8
PIPES
10
-57.157677
20
2254.665
30
0
11
-2251.66605
21
2400.385
31
0
0
LINE
8
PIPES
10
3290.905195
20
1364.22
30
0
11
1097.254187
21
1509.435
31
0
0
LINE
8
PIPES
10
1097.254187
20
1509.435
30
0
11
982.081468
21
2854.67
31
0
0
LINE
8
PIPES
10
982.081468
20
2854.67
30
0
11
-1212.435565
21
3000.385
31
0
0
LINE
8
PIPES
10
4330.127019
20
1964.215
30
0
11
2136.493331
21
2109.44
31
0
0
LINE
8
PIPES
10
2136.493331
20
2109.44
30
0
11
2021.303292
21
3454.665
31
0
0
LINE
8
PIPES
10
2021.303292
20
3454.665
30
0
11
-173.205081
21
3600.385
31
0
0
LINE
8
PIPES
10
173.205081
20
-435.785
30
0
11
173.205081
21
-1474.465
31
0
0
LINE
8
PIPES
10
1212.435565
20
164.215
30
0
11
1212.435565
21
-874.465
31
0
0
LINE
8
PIPES
10
2251.66605
20
764.215
30
0
11
2251.66605
21
-274.465
31
0
0
LINE
8
PIPES
10
3290.905195
20
1364.22
30
0
11
3290.905195
21
325.54
31
0
0
LINE
8
PIPES
10
173.205081
20
-2064.895
30
0
11
173.205081
21
-2599.325
31
0
0
LINE
8
PIPES
10
-866.025404
20
-2664.895
30
0
11
173.205081
21
-2064.895
31
0
0
LINE
8
PIPES
10
173.205081
20
-1474.465
30
0
11
173.205081
21
-2064.895
31
0
0
LINE
8
PIPES
10
-866.025404
20
-2074.465
30
0
11
173.205081
21
-1474.465
31
0
0
LINE
8
PIPES
10
1212.435565
20
-1464.895
30
0
11
1212.435565
21
-1999.325
31
0
0
LINE
8
PIPES
10
173.205081
20
-2064.895
30
0
11
1212.435565
21
-1464.895
31
0
0
LINE
8
PIPES
10
1212.435565
20
-874.465
30
0
11
1212.435565
21
-1464.895
31
0
0
LINE
8
PIPES
10
173.205081
20
-1474.465
30
0
11
1212.435565
21
-874.465
31
0
0
LINE
8
PIPES
10
2251.66605
20
-864.895
30
0
11
2251.66605
21
-1399.325
31
0
0
LINE
8
PIPES
10
1212.435565
20
-1464.895
30
0
11
2251.66605
21
-864.895
31
0
0
LINE
8
PIPES
10
2251.66605
20
-274.465
30
0
11
2251.66605
21
-864.895
31
0
0
LINE
8
PIPES
10
1212.435565
20
-874.465
30
0
11
2251.66605
21
-274.465
31
0
0
LINE
8
PIPES
10
3290.896534
20
-264.895
30
0
11
3290.896534
21
-799.325
31
0
0
LINE
8
PIPES
10
2251.66605
20
-864.895
30
0
11
3290.896534
21
-264.895
31
0
0
LINE
8
PIPES
10
3290.905195
20
325.54
30
0
11
3290.896534
21
-264.895
31
0
0
LINE
8
PIPES
10
2251.66605
20
-274.465
30
0
11
3290.905195
21
325.54
31
0
0
LINE
8
PIPES
10
3290.896534
20
-264.895
30
0
11
4330.127019
21
335.105
31
0
0
LINE
8
PIPES
10
3290.905195
20
325.54
30
0
11
4330.127019
21
925.535
31
0
0
LINE
8
PIPES
10
173.205081
20
-2599.325
30
0
11
173.205081
21
-3048.941
31
0
0
LINE
8
PIPES
10
-433.011836
20
-2949.3245
30
0
11
173.205081
21
-2599.325
31
0
0
LINE
8
PIPES
10
1212.435565
20
-1999.325
30
0
11
1212.435565
21
-2448.941
31
0
0
LINE
8
PIPES
10
173.205081
20
-2599.325
30
0
11
1212.435565
21
-1999.325
31
0
0
LINE
8
PIPES
10
2251.66605
20
-1399.325
30
0
11
2251.66605
21
-1848.941
31
0
0
LINE
8
PIPES
10
1212.435565
20
-1999.325
30
0
11
2251.66605
21
-1399.325
31
0
0
LINE
8
PIPES
10
3290.896534
20
-799.325
30
0
11
3290.896534
21
-1248.941
31
0
0
LINE
8
PIPES
10
2251.66605
20
-1399.325
30
0
11
3290.896534
21
-799.325
31
0
0
LINE
8
PIPES
10
3290.896534
20
-799.325
30
0
11
3897.114317
21
-449.325
31
0
0
LINE
8
PIPES
10
-1299.038106
20
-2949.325
30
0
11
-2020.437267
21
-2532.825
31
0
0
LINE
8
PIPES
10
-866.024538
20
-3148.9405
30
0
11
-1587.423699
21
-2732.4405
31
0
0
LINE
8
PIPES
10
-866.024538
20
-2699.3245
30
0
11
-1587.423699
21
-2282.8245
31
0
0
LINE
8
PIPES
10
3464.101615
20
-648.941
30
0
11
2742.702454
21
-232.441
31
0
0
LINE
8
PIPES
10
3464.101615
20
-199.325
30
0
11
2742.702454
21
217.175
31
0
0
LINE
8
PIPES
10
3897.114317
20
50.675
30
0
11
3175.715156
21
467.175
31
0
0
LINE
8
PIPES
10
779.422863
20
-2198.941
30
0
11
58.023702
21
-1782.441
31
0
0
LINE
8
PIPES
10
1818.653348
20
-1598.941
30
0
11
1097.254187
21
-1182.441
31
0
0
LINE
8
PIPES
10
173.205081
20
-2599.325
30
0
11
-259.807621
21
-2349.325
31
0
0
LINE
8
PIPES
10
1212.435565
20
-1999.325
30
0
11
779.422863
21
-1749.325
31
0
0
LINE
8
PIPES
10
2251.66605
20
-1399.325
30
0
11
1818.653348
21
-1149.325
31
0
0
LINE
8
PIPES
10
3290.896534
20
-799.325
30
0
11
2857.883832
21
-549.325
31
0
0
LINE
8
PIPES
10
-866.024538
20
-3148.9405
30
0
11
-866.024538
21
-2699.3245
31
0
0
LINE
8
PIPES
10
3464.101615
20
-648.941
30
0
11
3464.101615
21
-199.325
31
0
0
LINE
8
PIPES
10
-1299.038106
20
-2949.325
30
0
11
-866.024538
21
-2699.3245
31
0
0
LINE
8
PIPES
10
3897.114317
20
50.675
30
0
11
3464.101615
21
-199.325
31
0
0
LINE
8
PIPES
10
-866.024538
20
-2699.3245
30
0
11
-259.807621
21
-2349.325
31
0
0
LINE
8
PIPES
10
779.422863
20
-1749.325
30
0
11
779.422863
21
-2198.941
31
0
0
LINE
8
PIPES
10
-259.807621
20
-2349.325
30
0
11
779.422863
21
-1749.325
31
0
0
LINE
8
PIPES
10
1818.653348
20
-1149.325
30
0
11
1818.653348
21
-1598.941
31
0
0
LINE
8
PIPES
10
779.422863
20
-1749.325
30
0
11
1818.653348
21
-1149.325
31
0
0
LINE
8
PIPES
10
1818.653348
20
-1149.325
30
0
11
2857.883832
21
-549.325
31
0
0
LINE
8
PIPES
10
2857.883832
20
-549.325
30
0
11
3464.101615
21
-199.325
31
0
0
LINE
8
PIPES
10
-259.807621
20
-2798.941
30
0
11
-981.206782
21
-2382.441
31
0
0
LINE
8
PIPES
10
-259.807621
20
-2349.325
30
0
11
-259.807621
21
-2798.941
31
0
0
LINE
8
PIPES
10
2857.883832
20
-998.941
30
0
11
2136.484671
21
-582.441
31
0
0
LINE
8
PIPES
10
2857.883832
20
-549.325
30
0
11
2857.883832
21
-998.941
31
0
0
LINE
8
PIPES
10
-866.025404
20
-1035.785
30
0
11
173.205081
21
-1474.465
31
0
0
LINE
8
PIPES
10
173.205081
20
-1474.465
30
0
11
-866.025404
21
-3199.325
31
0
0
LINE
8
PIPES
10
-866.025404
20
-3199.325
30
0
11
173.205081
21
-3900.005
31
0
0
LINE
8
PIPES
10
173.205081
20
-435.785
30
0
11
1212.435565
21
-874.465
31
0
0
LINE
8
PIPES
10
1212.435565
20
-874.465
30
0
11
173.205081
21
-2599.325
31
0
0
LINE
8
PIPES
10
173.205081
20
-2599.325
30
0
11
1212.435565
21
-3300.005
31
0
0
LINE
8
PIPES
10
1212.435565
20
164.215
30
0
11
2251.66605
21
-274.465
31
0
0
LINE
8
PIPES
10
2251.66605
20
-274.465
30
0
11
1212.435565
21
-1999.325
31
0
0
LINE
8
PIPES
10
1212.435565
20
-1999.325
30
0
11
2251.66605
21
-2700.005
31
0
0
LINE
8
PIPES
10
2251.66605
20
764.215
30
0
11
3290.905195
21
325.54
31
0
0
LINE
8
PIPES
10
3290.905195
20
325.54
30
0
11
2251.66605
21
-1399.325
31
0
0
LINE
8
PIPES
10
2251.66605
20
-1399.325
30
0
11
3290.896534
21
-2100.005
31
0
0
LINE
8
PIPES
10
3290.905195
20
1364.22
30
0
11
4330.127019
21
925.535
31
0
0
LINE
8
PIPES
10
4330.127019
20
925.535
30
0
11
3290.896534
21
-799.325
31
0
0
LINE
8
PIPES
10
3290.896534
20
-799.325
30
0
11
4330.127019
21
-1500.005
31
0
0
ENDSEC
0
EOF
