0
SECTION
2
HEADER
9
$ACADVER
1
AC1009
9
$INSUNITS
70
4
9
$MEASUREMENT
70
1
9
$LUNITS
70
2
9
$LUPREC
70
1
9
$TILEMODE
70
1
9
$EXTMIN
10
-4052.095773
20
-3641.720773
30
0
9
$EXTMAX
10
4052.095773
20
3641.720773
30
0
9
$PEXTMIN
10
-4052.095773
20
-3641.720773
30
0
9
$PEXTMAX
10
4052.095773
20
3641.720773
30
0
9
$LIMMIN
10
-4552.095773
20
-4141.720773
9
$LIMMAX
10
4552.095773
20
4141.720773
9
$PLIMMIN
10
-4552.095773
20
-4141.720773
9
$PLIMMAX
10
4552.095773
20
4141.720773
0
ENDSEC
0
SECTION
2
TABLES
0
TABLE
2
VPORT
70
1
0
VPORT
2
*ACTIVE
70
0
10
0
20
0
11
1
21
1
12
0
22
0
40
8283.441545
41
1.099083
42
50
43
0
44
0
50
0
51
0
71
0
72
100
73
1
74
3
75
0
76
0
77
0
78
0
0
ENDTAB
0
TABLE
2
LTYPE
70
2
0
LTYPE
2
CONTINUOUS
70
0
3
Solid line
72
65
73
0
40
0
0
LTYPE
2
DASHED
70
0
3
Dashed
72
65
73
2
40
240
49
120
74
0
49
-120
74
0
0
ENDTAB
0
TABLE
2
LAYER
70
6
0
LAYER
2
PIPES
70
0
62
5
6
CONTINUOUS
0
LAYER
2
PIPE_ENDS
70
0
62
5
6
CONTINUOUS
0
LAYER
2
DIMENSION
70
0
62
1
6
CONTINUOUS
0
LAYER
2
LEVEL_GUIDE
70
0
62
1
6
DASHED
0
LAYER
2
LEVEL_TEXT
70
0
62
1
6
CONTINUOUS
0
LAYER
2
FRAME
70
0
62
5
6
CONTINUOUS
0
ENDTAB
0
TABLE
2
STYLE
70
1
0
STYLE
2
STANDARD
70
0
40
0
41
1
50
0
71
0
42
100
3
txt
4

0
ENDTAB
0
ENDSEC
0
SECTION
2
BLOCKS
0
BLOCK
8
0
2
$MODEL_SPACE
70
0
10
0
20
0
30
0
3
$MODEL_SPACE
0
ENDBLK
8
0
0
BLOCK
67
1
8
0
2
$PAPER_SPACE
70
0
10
0
20
0
30
0
3
$PAPER_SPACE
0
ENDBLK
67
1
8
0
0
ENDSEC
0
SECTION
2
ENTITIES
0
LINE
8
PIPES
10
-3988.654227
20
-2721.720773
30
0
11
-2728.654227
21
-2721.720773
31
0
0
LINE
8
PIPES
10
-2728.654227
20
-2721.720773
30
0
11
-1468.654227
21
-2721.720773
31
0
0
LINE
8
PIPES
10
-1468.654227
20
-2721.720773
30
0
11
-208.654227
21
-2721.720773
31
0
0
LINE
8
PIPES
10
1051.345773
20
-2721.720773
30
0
11
-208.654227
21
-2721.720773
31
0
0
LINE
8
PIPES
10
1051.345773
20
-2721.720773
30
0
11
2311.345773
21
-2721.720773
31
0
0
LINE
8
PIPES
10
-3988.654227
20
-1461.720773
30
0
11
-2728.654227
21
-1461.720773
31
0
0
LINE
8
PIPES
10
-2728.654227
20
-1461.720773
30
0
11
-1468.654227
21
-1461.720773
31
0
0
LINE
8
PIPES
10
-1468.654227
20
-1461.720773
30
0
11
-208.654227
21
-1461.720773
31
0
0
LINE
8
PIPES
10
-208.654227
20
-1461.720773
30
0
11
1051.345773
21
-1461.720773
31
0
0
LINE
8
PIPES
10
1051.345773
20
-1461.720773
30
0
11
2311.345773
21
-1461.720773
31
0
0
LINE
8
PIPES
10
-3988.654227
20
-201.720773
30
0
11
-2728.654227
21
-201.720773
31
0
0
LINE
8
PIPES
10
-2728.654227
20
-201.720773
30
0
11
-1468.654227
21
-201.720773
31
0
0
LINE
8
PIPES
10
-1468.654227
20
-201.720773
30
0
11
-208.654227
21
-201.720773
31
0
0
LINE
8
PIPES
10
-208.654227
20
-201.720773
30
0
11
1051.345773
21
-201.720773
31
0
0
LINE
8
PIPES
10
1051.345773
20
-201.720773
30
0
11
2311.345773
21
-201.720773
31
0
0
LINE
8
PIPES
10
-3988.654227
20
1058.279227
30
0
11
-2728.654227
21
1058.279227
31
0
0
LINE
8
PIPES
10
-2728.654227
20
1058.279227
30
0
11
-1468.654227
21
1058.279227
31
0
0
LINE
8
PIPES
10
-1468.654227
20
1058.279227
30
0
11
-208.654227
21
1058.279227
31
0
0
LINE
8
PIPES
10
-208.654227
20
1058.279227
30
0
11
1051.345773
21
1058.279227
31
0
0
LINE
8
PIPES
10
1051.345773
20
1058.279227
30
0
11
2311.345773
21
1058.279227
31
0
0
LINE
8
PIPES
10
-3988.654227
20
2318.279227
30
0
11
-2728.654227
21
2318.279227
31
0
0
LINE
8
PIPES
10
-2728.654227
20
2318.279227
30
0
11
-1468.654227
21
2318.279227
31
0
0
LINE
8
PIPES
10
-1468.654227
20
2318.279227
30
0
11
-208.654227
21
2318.279227
31
0
0
LINE
8
PIPES
10
-208.654227
20
2318.279227
30
0
11
1051.345773
21
2318.279227
31
0
0
LINE
8
PIPES
10
1051.345773
20
2318.279227
30
0
11
2311.345773
21
2318.279227
31
0
0
LINE
8
PIPES
10
-3988.654227
20
3578.279227
30
0
11
-2728.654227
21
3578.279227
31
0
0
LINE
8
PIPES
10
-2728.654227
20
3578.279227
30
0
11
-1468.654227
21
3578.279227
31
0
0
LINE
8
PIPES
10
-1468.654227
20
3578.279227
30
0
11
-208.654227
21
3578.279227
31
0
0
LINE
8
PIPES
10
-208.654227
20
3578.279227
30
0
11
1051.345773
21
3578.279227
31
0
0
LINE
8
PIPES
10
1051.345773
20
3578.279227
30
0
11
2311.345773
21
3578.279227
31
0
0
LINE
8
PIPES
10
-3988.654227
20
-2721.720773
30
0
11
-3988.654227
21
-1461.720773
31
0
0
LINE
8
PIPES
10
-3988.654227
20
-1461.720773
30
0
11
-3988.654227
21
-201.720773
31
0
0
LINE
8
PIPES
10
-3988.654227
20
-201.720773
30
0
11
-3988.654227
21
1058.279227
31
0
0
LINE
8
PIPES
10
-3988.654227
20
1058.279227
30
0
11
-3988.654227
21
2318.279227
31
0
0
LINE
8
PIPES
10
-3988.654227
20
2318.279227
30
0
11
-3988.654227
21
3578.279227
31
0
0
LINE
8
PIPES
10
-2728.654227
20
-2721.720773
30
0
11
-2728.654227
21
-1461.720773
31
0
0
LINE
8
PIPES
10
-2728.654227
20
-1461.720773
30
0
11
-2728.654227
21
-201.720773
31
0
0
LINE
8
PIPES
10
-2728.654227
20
-201.720773
30
0
11
-2728.654227
21
1058.279227
31
0
0
LINE
8
PIPES
10
-2728.654227
20
1058.279227
30
0
11
-2728.654227
21
2318.279227
31
0
0
LINE
8
PIPES
10
-2728.654227
20
2318.279227
30
0
11
-2728.654227
21
3578.279227
31
0
0
LINE
8
PIPES
10
-1468.654227
20
-2721.720773
30
0
11
-1468.654227
21
-1461.720773
31
0
0
LINE
8
PIPES
10
-1468.654227
20
-1461.720773
30
0
11
-1468.654227
21
-201.720773
31
0
0
LINE
8
PIPES
10
-1468.654227
20
-201.720773
30
0
11
-1468.654227
21
1058.279227
31
0
0
LINE
8
PIPES
10
-1468.654227
20
1058.279227
30
0
11
-1468.654227
21
2318.279227
31
0
0
LINE
8
PIPES
10
-1468.654227
20
2318.279227
30
0
11
-1468.654227
21
3578.279227
31
0
0
LINE
8
PIPES
10
-208.654227
20
-2721.720773
30
0
11
-208.654227
21
-1461.720773
31
0
0
LINE
8
PIPES
10
-208.654227
20
-1461.720773
30
0
11
-208.654227
21
-201.720773
31
0
0
LINE
8
PIPES
10
-208.654227
20
-201.720773
30
0
11
-208.654227
21
1058.279227
31
0
0
LINE
8
PIPES
10
-208.654227
20
1058.279227
30
0
11
-208.654227
21
2318.279227
31
0
0
LINE
8
PIPES
10
-208.654227
20
2318.279227
30
0
11
-208.654227
21
3578.279227
31
0
0
LINE
8
PIPES
10
1051.345773
20
-2721.720773
30
0
11
1051.345773
21
-1461.720773
31
0
0
LINE
8
PIPES
10
1051.345773
20
-1461.720773
30
0
11
1051.345773
21
-201.720773
31
0
0
LINE
8
PIPES
10
1051.345773
20
-201.720773
30
0
11
1051.345773
21
1058.279227
31
0
0
LINE
8
PIPES
10
1051.345773
20
1058.279227
30
0
11
1051.345773
21
2318.279227
31
0
0
LINE
8
PIPES
10
1051.345773
20
2318.279227
30
0
11
1051.345773
21
3578.279227
31
0
0
LINE
8
PIPES
10
2311.345773
20
-2721.720773
30
0
11
2311.345773
21
-1461.720773
31
0
0
LINE
8
PIPES
10
2311.345773
20
-1461.720773
30
0
11
2311.345773
21
-201.720773
31
0
0
LINE
8
PIPES
10
2311.345773
20
-201.720773
30
0
11
2311.345773
21
1058.279227
31
0
0
LINE
8
PIPES
10
2311.345773
20
1058.279227
30
0
11
2311.345773
21
2318.279227
31
0
0
LINE
8
PIPES
10
2311.345773
20
2318.279227
30
0
11
2311.345773
21
3578.279227
31
0
0
LINE
8
PIPES
10
-3988.654227
20
-2721.720773
30
0
11
-3488.653227
21
-2721.720773
31
0
0
LINE
8
PIPES
10
1051.345773
20
-2721.720773
30
0
11
1811.345773
21
-2721.720773
31
0
0
LINE
8
PIPES
10
-3488.653227
20
3578.279227
30
0
11
-3988.654227
21
3578.279227
31
0
0
LINE
8
PIPES
10
1811.345773
20
3578.279227
30
0
11
1051.345773
21
3578.279227
31
0
0
LINE
8
PIPES
10
-3988.654227
20
-2721.720773
30
0
11
-3988.654227
21
-2221.719773
31
0
0
LINE
8
PIPES
10
-3988.654227
20
2318.279227
30
0
11
-3988.654227
21
3078.279227
31
0
0
LINE
8
PIPES
10
2311.345773
20
-2721.720773
30
0
11
2311.345773
21
-2221.719773
31
0
0
LINE
8
PIPES
10
2311.345773
20
2318.279227
30
0
11
2311.345773
21
3078.279227
31
0
0
LINE
8
PIPES
10
-3988.654227
20
-1461.720773
30
0
11
-3488.653227
21
-1461.720773
31
0
0
LINE
8
PIPES
10
-3488.653227
20
-1461.720773
30
0
11
-2728.654227
21
-1461.720773
31
0
0
LINE
8
PIPES
10
1051.345773
20
-1461.720773
30
0
11
1811.345773
21
-1461.720773
31
0
0
LINE
8
PIPES
10
2311.345773
20
-1461.720773
30
0
11
1811.345773
21
-1461.720773
31
0
0
LINE
8
PIPES
10
-3988.654227
20
-201.720773
30
0
11
-3488.653227
21
-201.720773
31
0
0
LINE
8
PIPES
10
-3488.653227
20
-201.720773
30
0
11
-2728.654227
21
-201.720773
31
0
0
LINE
8
PIPES
10
1051.345773
20
-201.720773
30
0
11
1811.345773
21
-201.720773
31
0
0
LINE
8
PIPES
10
2311.345773
20
-201.720773
30
0
11
1811.345773
21
-201.720773
31
0
0
LINE
8
PIPES
10
-3988.654227
20
1058.279227
30
0
11
-3488.653227
21
1058.279227
31
0
0
LINE
8
PIPES
10
-3488.653227
20
1058.279227
30
0
11
-2728.654227
21
1058.279227
31
0
0
LINE
8
PIPES
10
1051.345773
20
1058.279227
30
0
11
1811.345773
21
1058.279227
31
0
0
LINE
8
PIPES
10
2311.345773
20
1058.279227
30
0
11
1811.345773
21
1058.279227
31
0
0
LINE
8
PIPES
10
-3988.654227
20
2318.279227
30
0
11
-3488.653227
21
2318.279227
31
0
0
LINE
8
PIPES
10
-3488.653227
20
2318.279227
30
0
11
-2728.654227
21
2318.279227
31
0
0
LINE
8
PIPES
10
1051.345773
20
2318.279227
30
0
11
1811.345773
21
2318.279227
31
0
0
LINE
8
PIPES
10
2311.345773
20
2318.279227
30
0
11
1811.345773
21
2318.279227
31
0
0
LINE
8
PIPES
10
-1468.654227
20
-2721.720773
30
0
11
-1468.654227
21
-2221.719773
31
0
0
LINE
8
PIPES
10
-1468.654227
20
3578.279227
30
0
11
-1468.654227
21
3078.279227
31
0
0
LINE
8
PIPES
10
-1468.654227
20
-2221.719773
30
0
11
-1468.654227
21
-1461.720773
31
0
0
LINE
8
PIPES
10
-1468.654227
20
3078.279227
30
0
11
-1468.654227
21
2318.279227
31
0
0
LINE
8
PIPES
10
-208.654227
20
-2721.720773
30
0
11
-208.654227
21
-2221.719773
31
0
0
LINE
8
PIPES
10
-208.654227
20
3578.279227
30
0
11
-208.654227
21
3078.279227
31
0
0
LINE
8
PIPES
10
-208.654227
20
-2221.719773
30
0
11
-208.654227
21
-1461.720773
31
0
0
LINE
8
PIPES
10
-208.654227
20
3078.279227
30
0
11
-208.654227
21
2318.279227
31
0
0
LINE
8
PIPES
10
-2728.654227
20
-2721.720773
30
0
11
-2728.654227
21
-2221.719773
31
0
0
LINE
8
PIPES
10
-2728.654227
20
3578.279227
30
0
11
-2728.654227
21
3078.279227
31
0
0
LINE
8
PIPES
10
-2728.654227
20
-2221.719773
30
0
11
-2728.654227
21
-1461.720773
31
0
0
LINE
8
PIPES
10
-2728.654227
20
3078.279227
30
0
11
-2728.654227
21
2318.279227
31
0
0
LINE
8
PIPES
10
1051.345773
20
-2721.720773
30
0
11
1051.345773
21
-2221.719773
31
0
0
LINE
8
PIPES
10
1051.345773
20
3578.279227
30
0
11
1051.345773
21
3078.279227
31
0
0
LINE
8
PIPES
10
1051.345773
20
-2221.719773
30
0
11
1051.345773
21
-1461.720773
31
0
0
LINE
8
PIPES
10
1051.345773
20
3078.279227
30
0
11
1051.345773
21
2318.279227
31
0
0
LINE
8
PIPES
10
-3488.653227
20
-2221.719773
30
0
11
-2728.654227
21
-2221.719773
31
0
0
LINE
8
PIPES
10
-2728.654227
20
-2221.719773
30
0
11
-1468.654227
21
-2221.719773
31
0
0
LINE
8
PIPES
10
-1468.654227
20
-2221.719773
30
0
11
-208.654227
21
-2221.719773
31
0
0
LINE
8
PIPES
10
-208.654227
20
-2221.719773
30
0
11
1051.345773
21
-2221.719773
31
0
0
LINE
8
PIPES
10
1051.345773
20
-2221.719773
30
0
11
1811.345773
21
-2221.719773
31
0
0
LINE
8
PIPES
10
-3488.653227
20
3078.279227
30
0
11
-2728.654227
21
3078.279227
31
0
0
LINE
8
PIPES
10
-2728.654227
20
3078.279227
30
0
11
-1468.654227
21
3078.279227
31
0
0
LINE
8
PIPES
10
-208.654227
20
3078.279227
30
0
11
1051.345773
21
3078.279227
31
0
0
LINE
8
PIPES
10
1051.345773
20
3078.279227
30
0
11
1811.345773
21
3078.279227
31
0
0
LINE
8
PIPES
10
-3488.653227
20
-2721.720773
30
0
11
-2728.654227
21
-2721.720773
31
0
0
LINE
8
PIPES
10
1811.345773
20
-2721.720773
30
0
11
2311.345773
21
-2721.720773
31
0
0
LINE
8
PIPES
10
1811.345773
20
3578.279227
30
0
11
2311.345773
21
3578.279227
31
0
0
LINE
8
PIPES
10
-3488.653227
20
3578.279227
30
0
11
-2728.654227
21
3578.279227
31
0
0
LINE
8
PIPES
10
-3488.653227
20
-2721.720773
30
0
11
-3488.653227
21
-2221.719773
31
0
0
LINE
8
PIPES
10
-3488.653227
20
-2221.719773
30
0
11
-3488.653227
21
-1461.720773
31
0
0
LINE
8
PIPES
10
-3488.653227
20
-201.720773
30
0
11
-3488.653227
21
1058.279227
31
0
0
LINE
8
PIPES
10
-3488.653227
20
3078.279227
30
0
11
-3488.653227
21
3578.279227
31
0
0
LINE
8
PIPES
10
1811.345773
20
-2721.720773
30
0
11
1811.345773
21
-2221.719773
31
0
0
LINE
8
PIPES
10
1811.345773
20
-2221.719773
30
0
11
1811.345773
21
-1461.720773
31
0
0
LINE
8
PIPES
10
1811.345773
20
-201.720773
30
0
11
1811.345773
21
1058.279227
31
0
0
LINE
8
PIPES
10
1811.345773
20
3078.279227
30
0
11
1811.345773
21
3578.279227
31
0
0
LINE
8
PIPES
10
-1468.654227
20
-2721.720773
30
0
11
-1468.654227
21
-2375.360773
31
0
0
LINE
8
PIPES
10
-1468.654227
20
-2375.360773
30
0
11
-1468.654227
21
-2077.678773
31
0
0
LINE
8
PIPES
10
-1468.654227
20
-2077.678773
30
0
11
-1468.654227
21
-1779.996773
31
0
0
LINE
8
PIPES
10
-1468.654227
20
-1779.996773
30
0
11
-1468.654227
21
-1482.310773
31
0
0
LINE
8
PIPES
10
-1468.654227
20
-1482.310773
30
0
11
-1468.654227
21
-1461.720773
31
0
0
LINE
8
PIPES
10
-1468.654227
20
-1184.630773
30
0
11
-1468.654227
21
-886.950773
31
0
0
LINE
8
PIPES
10
-1468.654227
20
-886.950773
30
0
11
-1468.654227
21
-589.270773
31
0
0
LINE
8
PIPES
10
-1468.654227
20
-589.270773
30
0
11
-1468.654227
21
-291.590773
31
0
0
LINE
8
PIPES
10
-1468.654227
20
-291.590773
30
0
11
-1468.654227
21
-201.720773
31
0
0
LINE
8
PIPES
10
-1468.654227
20
6.099227
30
0
11
-1468.654227
21
303.779227
31
0
0
LINE
8
PIPES
10
-1468.654227
20
303.779227
30
0
11
-1468.654227
21
601.459227
31
0
0
LINE
8
PIPES
10
-1468.654227
20
601.459227
30
0
11
-1468.654227
21
899.139227
31
0
0
LINE
8
PIPES
10
-1468.654227
20
899.139227
30
0
11
-1468.654227
21
1058.279227
31
0
0
LINE
8
PIPES
10
-1468.654227
20
1196.819227
30
0
11
-1468.654227
21
1494.509227
31
0
0
LINE
8
PIPES
10
-1468.654227
20
1494.509227
30
0
11
-1468.654227
21
1792.189227
31
0
0
LINE
8
PIPES
10
-1468.654227
20
1792.189227
30
0
11
-1468.654227
21
2089.869227
31
0
0
LINE
8
PIPES
10
-1468.654227
20
2089.869227
30
0
11
-1468.654227
21
2318.279227
31
0
0
LINE
8
PIPES
10
-1468.654227
20
2387.549227
30
0
11
-1468.654227
21
2685.229227
31
0
0
LINE
8
PIPES
10
-1468.654227
20
2685.229227
30
0
11
-1468.654227
21
2982.919227
31
0
0
LINE
8
PIPES
10
-1468.654227
20
2982.919227
30
0
11
-1468.654227
21
3280.599227
31
0
0
LINE
8
PIPES
10
-1468.654227
20
3280.599227
30
0
11
-1468.654227
21
3578.279227
31
0
0
LINE
8
PIPES
10
-208.654227
20
-2721.720773
30
0
11
-208.654227
21
-2375.360773
31
0
0
LINE
8
PIPES
10
-208.654227
20
-2375.360773
30
0
11
-208.654227
21
-2077.678773
31
0
0
LINE
8
PIPES
10
-208.654227
20
-2077.678773
30
0
11
-208.654227
21
-1779.996773
31
0
0
LINE
8
PIPES
10
-208.654227
20
-1779.996773
30
0
11
-208.654227
21
-1482.310773
31
0
0
LINE
8
PIPES
10
-208.654227
20
-1482.310773
30
0
11
-208.654227
21
-1461.720773
31
0
0
LINE
8
PIPES
10
-208.654227
20
-1184.630773
30
0
11
-208.654227
21
-886.950773
31
0
0
LINE
8
PIPES
10
-208.654227
20
-886.950773
30
0
11
-208.654227
21
-589.270773
31
0
0
LINE
8
PIPES
10
-208.654227
20
-589.270773
30
0
11
-208.654227
21
-291.590773
31
0
0
LINE
8
PIPES
10
-208.654227
20
-291.590773
30
0
11
-208.654227
21
-201.720773
31
0
0
LINE
8
PIPES
10
-208.654227
20
6.099227
30
0
11
-208.654227
21
303.779227
31
0
0
LINE
8
PIPES
10
-208.654227
20
303.779227
30
0
11
-208.654227
21
601.459227
31
0
0
LINE
8
PIPES
10
-208.654227
20
601.459227
30
0
11
-208.654227
21
899.139227
31
0
0
LINE
8
PIPES
10
-208.654227
20
899.139227
30
0
11
-208.654227
21
1058.279227
31
0
0
LINE
8
PIPES
10
-208.654227
20
1196.819227
30
0
11
-208.654227
21
1494.509227
31
0
0
LINE
8
PIPES
10
-208.654227
20
1494.509227
30
0
11
-208.654227
21
1792.189227
31
0
0
LINE
8
PIPES
10
-208.654227
20
1792.189227
30
0
11
-208.654227
21
2089.869227
31
0
0
LINE
8
PIPES
10
-208.654227
20
2089.869227
30
0
11
-208.654227
21
2318.279227
31
0
0
LINE
8
PIPES
10
-208.654227
20
2387.549227
30
0
11
-208.654227
21
2685.229227
31
0
0
LINE
8
PIPES
10
-208.654227
20
2685.229227
30
0
11
-208.654227
21
2982.919227
31
0
0
LINE
8
PIPES
10
-208.654227
20
2982.919227
30
0
11
-208.654227
21
3280.599227
31
0
0
LINE
8
PIPES
10
-208.654227
20
3280.599227
30
0
11
-208.654227
21
3578.279227
31
0
0
LINE
8
PIPES
10
-3488.653227
20
-1461.720773
30
0
11
-3488.653227
21
-201.720773
31
0
0
LINE
8
PIPES
10
1811.345773
20
-1461.720773
30
0
11
1811.345773
21
-201.720773
31
0
0
LINE
8
PIPES
10
-3488.653227
20
1058.279227
30
0
11
-3488.653227
21
2318.279227
31
0
0
LINE
8
PIPES
10
1811.345773
20
1058.279227
30
0
11
1811.345773
21
2318.279227
31
0
0
LINE
8
PIPES
10
-3488.653227
20
2318.279227
30
0
11
-3488.653227
21
3078.279227
31
0
0
LINE
8
PIPES
10
1811.345773
20
2318.279227
30
0
11
1811.345773
21
3078.279227
31
0
0
LINE
8
PIPES
10
-1468.654227
20
-1461.720773
30
0
11
-1468.654227
21
-1184.630773
31
0
0
LINE
8
PIPES
10
-1468.654227
20
-201.720773
30
0
11
-1468.654227
21
6.099227
31
0
0
LINE
8
PIPES
10
-1468.654227
20
1058.279227
30
0
11
-1468.654227
21
1196.819227
31
0
0
LINE
8
PIPES
10
-1468.654227
20
2318.279227
30
0
11
-1468.654227
21
2387.549227
31
0
0
LINE
8
PIPES
10
-208.654227
20
-1461.720773
30
0
11
-208.654227
21
-1184.630773
31
0
0
LINE
8
PIPES
10
-208.654227
20
-201.720773
30
0
11
-208.654227
21
6.099227
31
0
0
LINE
8
PIPES
10
-208.654227
20
1058.279227
30
0
11
-208.654227
21
1196.819227
31
0
0
LINE
8
PIPES
10
-208.654227
20
2318.279227
30
0
11
-208.654227
21
2387.549227
31
0
0
LINE
8
PIPES
10
-208.654227
20
-1461.720773
30
0
11
1051.355773
21
-1461.720773
31
0
0
LINE
8
PIPES
10
-208.654227
20
-201.720773
30
0
11
1051.355773
21
-201.720773
31
0
0
LINE
8
PIPES
10
-208.654227
20
1058.279227
30
0
11
1051.355773
21
1058.279227
31
0
0
LINE
8
PIPES
10
-208.654227
20
2318.279227
30
0
11
1051.355773
21
2318.279227
31
0
0
LINE
8
PIPES
10
2311.345773
20
-1461.720773
30
0
11
1051.355773
21
-1461.720773
31
0
0
LINE
8
PIPES
10
1051.355773
20
-201.720773
30
0
11
2311.345773
21
-201.720773
31
0
0
LINE
8
PIPES
10
2311.345773
20
1058.279227
30
0
11
1051.355773
21
1058.279227
31
0
0
LINE
8
PIPES
10
1051.355773
20
2318.279227
30
0
11
2311.345773
21
2318.279227
31
0
0
LINE
8
PIPES
10
1051.345773
20
-2721.720773
30
0
11
1051.355773
21
-1461.720773
31
0
0
LINE
8
PIPES
10
1051.355773
20
-1461.720773
30
0
11
1051.355773
21
-201.720773
31
0
0
LINE
8
PIPES
10
1051.355773
20
-201.720773
30
0
11
1051.355773
21
1058.279227
31
0
0
LINE
8
PIPES
10
1051.355773
20
1058.279227
30
0
11
1051.355773
21
2318.279227
31
0
0
LINE
8
PIPES
10
1051.355773
20
2318.279227
30
0
11
1051.345773
21
3578.279227
31
0
0
LINE
8
PIPES
10
-3988.654227
20
-2221.719773
30
0
11
-3988.654227
21
-1461.720773
31
0
0
LINE
8
PIPES
10
-3988.654227
20
3078.279227
30
0
11
-3988.654227
21
3578.279227
31
0
0
LINE
8
PIPES
10
2311.345773
20
-2221.719773
30
0
11
2311.345773
21
-1461.720773
31
0
0
LINE
8
PIPES
10
2311.345773
20
3078.279227
30
0
11
2311.345773
21
3578.279227
31
0
0
LINE
8
PIPES
10
-3488.653227
20
-2221.719773
30
0
11
-3988.654227
21
-2221.719773
31
0
0
LINE
8
PIPES
10
-3488.653227
20
3078.279227
30
0
11
-3988.654227
21
3078.279227
31
0
0
LINE
8
PIPES
10
1811.345773
20
-2221.719773
30
0
11
2311.345773
21
-2221.719773
31
0
0
LINE
8
PIPES
10
1811.345773
20
3078.279227
30
0
11
2311.345773
21
3078.279227
31
0
0
LINE
8
PIPES
10
-3988.654227
20
-2721.720773
30
0
11
-2728.654227
21
-1461.720773
31
0
0
LINE
8
PIPES
10
-2728.654227
20
-1461.720773
30
0
11
-3988.654227
21
-201.720773
31
0
0
LINE
8
PIPES
10
-3988.654227
20
-201.720773
30
0
11
-2728.654227
21
1058.279227
31
0
0
LINE
8
PIPES
10
-2728.654227
20
1058.279227
30
0
11
-3988.654227
21
2318.279227
31
0
0
LINE
8
PIPES
10
-3988.654227
20
2318.279227
30
0
11
-2728.654227
21
3578.279227
31
0
0
LINE
8
PIPES
10
-2728.654227
20
-2721.720773
30
0
11
-1468.654227
21
-1461.720773
31
0
0
LINE
8
PIPES
10
-1468.654227
20
-1461.720773
30
0
11
-2728.654227
21
-201.720773
31
0
0
LINE
8
PIPES
10
-1468.654227
20
-2721.720773
30
0
11
-208.654227
21
-1461.720773
31
0
0
LINE
8
PIPES
10
-2728.654227
20
-201.720773
30
0
11
-1468.654227
21
1058.279227
31
0
0
LINE
8
PIPES
10
-1468.654227
20
1058.279227
30
0
11
-2728.654227
21
2318.279227
31
0
0
LINE
8
PIPES
10
-2728.654227
20
2318.279227
30
0
11
-1468.654227
21
3578.279227
31
0
0
LINE
8
PIPES
10
-208.654227
20
-1461.720773
30
0
11
-1468.654227
21
-201.720773
31
0
0
LINE
8
PIPES
10
-1468.654227
20
-201.720773
30
0
11
-208.654227
21
1058.279227
31
0
0
LINE
8
PIPES
10
-208.654227
20
1058.279227
30
0
11
-1468.654227
21
2318.279227
31
0
0
LINE
8
PIPES
10
-1468.654227
20
2318.279227
30
0
11
-208.654227
21
3578.279227
31
0
0
LINE
8
PIPES
10
-208.654227
20
-2721.720773
30
0
11
1051.355773
21
-1461.720773
31
0
0
LINE
8
PIPES
10
1051.355773
20
-1461.720773
30
0
11
-208.654227
21
-201.720773
31
0
0
LINE
8
PIPES
10
-208.654227
20
-201.720773
30
0
11
1051.355773
21
1058.279227
31
0
0
LINE
8
PIPES
10
1051.355773
20
1058.279227
30
0
11
-208.654227
21
2318.279227
31
0
0
LINE
8
PIPES
10
-208.654227
20
2318.279227
30
0
11
1051.345773
21
3578.279227
31
0
0
LINE
8
PIPES
10
1051.345773
20
-2721.720773
30
0
11
2311.345773
21
-1461.720773
31
0
0
LINE
8
PIPES
10
2311.345773
20
-1461.720773
30
0
11
1051.355773
21
-201.720773
31
0
0
LINE
8
PIPES
10
1051.355773
20
-201.720773
30
0
11
2311.345773
21
1058.279227
31
0
0
LINE
8
PIPES
10
2311.345773
20
1058.279227
30
0
11
1051.355773
21
2318.279227
31
0
0
LINE
8
PIPES
10
1051.355773
20
2318.279227
30
0
11
2311.345773
21
3578.279227
31
0
0
LINE
8
PIPES
10
-2728.654227
20
-2721.720773
30
0
11
-3988.654227
21
-1461.720773
31
0
0
LINE
8
PIPES
10
-3988.654227
20
-1461.720773
30
0
11
-2728.654227
21
-201.720773
31
0
0
LINE
8
PIPES
10
-2728.654227
20
-201.720773
30
0
11
-3988.654227
21
1058.279227
31
0
0
LINE
8
PIPES
10
-3988.654227
20
1058.279227
30
0
11
-2728.654227
21
2318.279227
31
0
0
LINE
8
PIPES
10
-2728.654227
20
2318.279227
30
0
11
-3988.654227
21
3578.279227
31
0
0
LINE
8
PIPES
10
-1468.654227
20
-2721.720773
30
0
11
-2728.654227
21
-1461.720773
31
0
0
LINE
8
PIPES
10
-2728.654227
20
-1461.720773
30
0
11
-1468.654227
21
-201.720773
31
0
0
LINE
8
PIPES
10
-1468.654227
20
-201.720773
30
0
11
-2728.654227
21
1058.279227
31
0
0
LINE
8
PIPES
10
-2728.654227
20
1058.279227
30
0
11
-1468.654227
21
2318.279227
31
0
0
LINE
8
PIPES
10
-1468.654227
20
2318.279227
30
0
11
-2728.654227
21
3578.279227
31
0
0
LINE
8
PIPES
10
-208.654227
20
-2721.720773
30
0
11
-1468.654227
21
-1461.720773
31
0
0
LINE
8
PIPES
10
-1468.654227
20
-1461.720773
30
0
11
-208.654227
21
-201.720773
31
0
0
LINE
8
PIPES
10
-208.654227
20
-201.720773
30
0
11
-1468.654227
21
1058.279227
31
0
0
LINE
8
PIPES
10
-1468.654227
20
1058.279227
30
0
11
-208.654227
21
2318.279227
31
0
0
LINE
8
PIPES
10
-208.654227
20
2318.279227
30
0
11
-1468.654227
21
3578.279227
31
0
0
LINE
8
PIPES
10
1051.345773
20
-2721.720773
30
0
11
-208.654227
21
-1461.720773
31
0
0
LINE
8
PIPES
10
-208.654227
20
-1461.720773
30
0
11
1051.355773
21
-201.720773
31
0
0
LINE
8
PIPES
10
1051.355773
20
-201.720773
30
0
11
-208.654227
21
1058.279227
31
0
0
LINE
8
PIPES
10
-208.654227
20
1058.279227
30
0
11
1051.355773
21
2318.279227
31
0
0
LINE
8
PIPES
10
1051.355773
20
2318.279227
30
0
11
-208.654227
21
3578.279227
31
0
0
LINE
8
PIPES
10
2311.345773
20
-2721.720773
30
0
11
1051.355773
21
-1461.720773
31
0
0
LINE
8
PIPES
10
1051.355773
20
-1461.720773
30
0
11
2311.345773
21
-201.720773
31
0
0
LINE
8
PIPES
10
2311.345773
20
-201.720773
30
0
11
1051.355773
21
1058.279227
31
0
0
LINE
8
PIPES
10
1051.355773
20
1058.279227
30
0
11
2311.345773
21
2318.279227
31
0
0
LINE
8
PIPES
10
2311.345773
20
2318.279227
30
0
11
1051.345773
21
3578.279227
31
0
0
CIRCLE
8
PIPE_ENDS
10
-3988.654227
20
-2721.720773
30
0
40
32
0
CIRCLE
8
PIPE_ENDS
10
-3988.654227
20
-1461.720773
30
0
40
32
0
CIRCLE
8
PIPE_ENDS
10
-3988.654227
20
-201.720773
30
0
40
32
0
CIRCLE
8
PIPE_ENDS
10
-3988.654227
20
1058.279227
30
0
40
32
0
CIRCLE
8
PIPE_ENDS
10
-3988.654227
20
2318.279227
30
0
40
32
0
CIRCLE
8
PIPE_ENDS
10
-3988.654227
20
3578.279227
30
0
40
32
0
CIRCLE
8
PIPE_ENDS
10
2311.345773
20
-2721.720773
30
0
40
32
0
CIRCLE
8
PIPE_ENDS
10
2311.345773
20
-1461.720773
30
0
40
32
0
CIRCLE
8
PIPE_ENDS
10
2311.345773
20
-201.720773
30
0
40
32
0
CIRCLE
8
PIPE_ENDS
10
2311.345773
20
1058.279227
30
0
40
32
0
CIRCLE
8
PIPE_ENDS
10
2311.345773
20
2318.279227
30
0
40
32
0
CIRCLE
8
PIPE_ENDS
10
2311.345773
20
3578.279227
30
0
40
32
0
CIRCLE
8
PIPE_ENDS
10
-2728.654227
20
-2721.720773
30
0
40
32
0
CIRCLE
8
PIPE_ENDS
10
-2728.654227
20
3578.279227
30
0
40
32
0
CIRCLE
8
PIPE_ENDS
10
-2728.654227
20
-1461.720773
30
0
40
32
0
CIRCLE
8
PIPE_ENDS
10
-2728.654227
20
-201.720773
30
0
40
32
0
CIRCLE
8
PIPE_ENDS
10
-2728.654227
20
1058.279227
30
0
40
32
0
CIRCLE
8
PIPE_ENDS
10
-2728.654227
20
2318.279227
30
0
40
32
0
CIRCLE
8
PIPE_ENDS
10
1051.345773
20
-2721.720773
30
0
40
32
0
CIRCLE
8
PIPE_ENDS
10
1051.345773
20
3578.279227
30
0
40
32
0
CIRCLE
8
PIPE_ENDS
10
1051.345773
20
-1461.720773
30
0
40
32
0
CIRCLE
8
PIPE_ENDS
10
1051.345773
20
-201.720773
30
0
40
32
0
CIRCLE
8
PIPE_ENDS
10
1051.345773
20
1058.279227
30
0
40
32
0
CIRCLE
8
PIPE_ENDS
10
1051.345773
20
2318.279227
30
0
40
32
0
CIRCLE
8
PIPE_ENDS
10
-1468.654227
20
-2721.720773
30
0
40
32
0
CIRCLE
8
PIPE_ENDS
10
-1468.654227
20
3578.279227
30
0
40
32
0
CIRCLE
8
PIPE_ENDS
10
-1468.654227
20
-1461.720773
30
0
40
32
0
CIRCLE
8
PIPE_ENDS
10
-1468.654227
20
-201.720773
30
0
40
32
0
CIRCLE
8
PIPE_ENDS
10
-1468.654227
20
1058.279227
30
0
40
32
0
CIRCLE
8
PIPE_ENDS
10
-1468.654227
20
2318.279227
30
0
40
32
0
CIRCLE
8
PIPE_ENDS
10
-208.654227
20
-2721.720773
30
0
40
32
0
CIRCLE
8
PIPE_ENDS
10
-208.654227
20
3578.279227
30
0
40
32
0
CIRCLE
8
PIPE_ENDS
10
-208.654227
20
-1461.720773
30
0
40
32
0
CIRCLE
8
PIPE_ENDS
10
-208.654227
20
-201.720773
30
0
40
32
0
CIRCLE
8
PIPE_ENDS
10
-208.654227
20
1058.279227
30
0
40
32
0
CIRCLE
8
PIPE_ENDS
10
-208.654227
20
2318.279227
30
0
40
32
0
CIRCLE
8
PIPE_ENDS
10
-3488.654227
20
-2721.720773
30
0
40
25
0
CIRCLE
8
PIPE_ENDS
10
1811.345773
20
-2721.720773
30
0
40
25
0
CIRCLE
8
PIPE_ENDS
10
-3488.654227
20
-1461.720773
30
0
40
25
0
CIRCLE
8
PIPE_ENDS
10
1811.345773
20
-1461.720773
30
0
40
25
0
CIRCLE
8
PIPE_ENDS
10
-3488.654227
20
-201.720773
30
0
40
25
0
CIRCLE
8
PIPE_ENDS
10
1811.345773
20
-201.720773
30
0
40
25
0
CIRCLE
8
PIPE_ENDS
10
-3488.654227
20
1058.279227
30
0
40
25
0
CIRCLE
8
PIPE_ENDS
10
1811.345773
20
1058.279227
30
0
40
25
0
CIRCLE
8
PIPE_ENDS
10
-3488.654227
20
2318.279227
30
0
40
25
0
CIRCLE
8
PIPE_ENDS
10
1811.345773
20
2318.279227
30
0
40
25
0
CIRCLE
8
PIPE_ENDS
10
-3488.654227
20
3578.279227
30
0
40
25
0
CIRCLE
8
PIPE_ENDS
10
1811.345773
20
3578.279227
30
0
40
25
0
CIRCLE
8
PIPE_ENDS
10
-1468.654227
20
-2221.720773
30
0
40
25
0
CIRCLE
8
PIPE_ENDS
10
-1468.654227
20
3078.279227
30
0
40
25
0
CIRCLE
8
PIPE_ENDS
10
-208.654227
20
-2221.720773
30
0
40
25
0
CIRCLE
8
PIPE_ENDS
10
-208.654227
20
3078.279227
30
0
40
25
0
CIRCLE
8
PIPE_ENDS
10
-2728.654227
20
-2221.720773
30
0
40
25
0
CIRCLE
8
PIPE_ENDS
10
-2728.654227
20
3078.279227
30
0
40
25
0
CIRCLE
8
PIPE_ENDS
10
1051.345773
20
-2221.720773
30
0
40
25
0
CIRCLE
8
PIPE_ENDS
10
1051.345773
20
3078.279227
30
0
40
25
0
CIRCLE
8
PIPE_ENDS
10
1811.345773
20
3078.279227
30
0
40
25
0
CIRCLE
8
PIPE_ENDS
10
-1468.654227
20
-2375.320773
30
0
40
25
0
CIRCLE
8
PIPE_ENDS
10
-1468.654227
20
-2077.720773
30
0
40
25
0
CIRCLE
8
PIPE_ENDS
10
-1468.654227
20
-1780.020773
30
0
40
25
0
CIRCLE
8
PIPE_ENDS
10
-1468.654227
20
-1482.320773
30
0
40
25
0
CIRCLE
8
PIPE_ENDS
10
-1468.654227
20
-1184.620773
30
0
40
25
0
CIRCLE
8
PIPE_ENDS
10
-1468.654227
20
-886.920773
30
0
40
25
0
CIRCLE
8
PIPE_ENDS
10
-1468.654227
20
-589.320773
30
0
40
25
0
CIRCLE
8
PIPE_ENDS
10
-1468.654227
20
-291.620773
30
0
40
25
0
CIRCLE
8
PIPE_ENDS
10
-1468.654227
20
6.079227
30
0
40
25
0
CIRCLE
8
PIPE_ENDS
10
-1468.654227
20
303.779227
30
0
40
25
0
CIRCLE
8
PIPE_ENDS
10
-1468.654227
20
601.479227
30
0
40
25
0
CIRCLE
8
PIPE_ENDS
10
-1468.654227
20
899.179227
30
0
40
25
0
CIRCLE
8
PIPE_ENDS
10
-1468.654227
20
1196.779227
30
0
40
25
0
CIRCLE
8
PIPE_ENDS
10
-1468.654227
20
1494.479227
30
0
40
25
0
CIRCLE
8
PIPE_ENDS
10
-1468.654227
20
1792.179227
30
0
40
25
0
CIRCLE
8
PIPE_ENDS
10
-1468.654227
20
2089.879227
30
0
40
25
0
CIRCLE
8
PIPE_ENDS
10
-1468.654227
20
2387.579227
30
0
40
25
0
CIRCLE
8
PIPE_ENDS
10
-1468.654227
20
2685.279227
30
0
40
25
0
CIRCLE
8
PIPE_ENDS
10
-1468.654227
20
2982.879227
30
0
40
25
0
CIRCLE
8
PIPE_ENDS
10
-1468.654227
20
3280.579227
30
0
40
25
0
CIRCLE
8
PIPE_ENDS
10
-208.654227
20
-2375.320773
30
0
40
25
0
CIRCLE
8
PIPE_ENDS
10
-208.654227
20
-2077.720773
30
0
40
25
0
CIRCLE
8
PIPE_ENDS
10
-208.654227
20
-1780.020773
30
0
40
25
0
CIRCLE
8
PIPE_ENDS
10
-208.654227
20
-1482.320773
30
0
40
25
0
CIRCLE
8
PIPE_ENDS
10
-208.654227
20
-1184.620773
30
0
40
25
0
CIRCLE
8
PIPE_ENDS
10
-208.654227
20
-886.920773
30
0
40
25
0
CIRCLE
8
PIPE_ENDS
10
-208.654227
20
-589.320773
30
0
40
25
0
CIRCLE
8
PIPE_ENDS
10
-208.654227
20
-291.620773
30
0
40
25
0
CIRCLE
8
PIPE_ENDS
10
-208.654227
20
6.079227
30
0
40
25
0
CIRCLE
8
PIPE_ENDS
10
-208.654227
20
303.779227
30
0
40
25
0
CIRCLE
8
PIPE_ENDS
10
-208.654227
20
601.479227
30
0
40
25
0
CIRCLE
8
PIPE_ENDS
10
-208.654227
20
899.179227
30
0
40
25
0
CIRCLE
8
PIPE_ENDS
10
-208.654227
20
1196.779227
30
0
40
25
0
CIRCLE
8
PIPE_ENDS
10
-208.654227
20
1494.479227
30
0
40
25
0
CIRCLE
8
PIPE_ENDS
10
-208.654227
20
1792.179227
30
0
40
25
0
CIRCLE
8
PIPE_ENDS
10
-208.654227
20
2089.879227
30
0
40
25
0
CIRCLE
8
PIPE_ENDS
10
-208.654227
20
2387.579227
30
0
40
25
0
CIRCLE
8
PIPE_ENDS
10
-208.654227
20
2685.279227
30
0
40
25
0
CIRCLE
8
PIPE_ENDS
10
-208.654227
20
2982.879227
30
0
40
25
0
CIRCLE
8
PIPE_ENDS
10
-208.654227
20
3280.579227
30
0
40
25
0
LINE
8
DIMENSION
10
-3988.654227
20
-2781.720773
30
0
11
-3988.654227
21
-3101.720773
31
0
0
LINE
8
DIMENSION
10
-3488.654227
20
-2781.720773
30
0
11
-3488.654227
21
-3101.720773
31
0
0
LINE
8
DIMENSION
10
-3988.654227
20
-3101.720773
30
0
11
-3488.654227
21
-3101.720773
31
0
0
LINE
8
DIMENSION
10
-3988.654227
20
-3101.720773
30
0
11
-4052.095773
21
-3072.137494
31
0
0
LINE
8
DIMENSION
10
-3988.654227
20
-3101.720773
30
0
11
-4052.095773
21
-3131.304051
31
0
0
LINE
8
DIMENSION
10
-3488.654227
20
-3101.720773
30
0
11
-3425.212682
21
-3131.304051
31
0
0
LINE
8
DIMENSION
10
-3488.654227
20
-3101.720773
30
0
11
-3425.212682
21
-3072.137494
31
0
0
TEXT
8
DIMENSION
10
-3738.654227
20
-3271.720773
30
0
40
85
1
0.5
50
0
7
STANDARD
72
1
73
2
11
-3738.654227
21
-3271.720773
31
0
0
LINE
8
DIMENSION
10
-3488.654227
20
-2781.720773
30
0
11
-3488.654227
21
-3101.720773
31
0
0
LINE
8
DIMENSION
10
-2728.654227
20
-2781.720773
30
0
11
-2728.654227
21
-3101.720773
31
0
0
LINE
8
DIMENSION
10
-3488.654227
20
-3101.720773
30
0
11
-2728.654227
21
-3101.720773
31
0
0
LINE
8
DIMENSION
10
-3488.654227
20
-3101.720773
30
0
11
-3552.095773
21
-3072.137494
31
0
0
LINE
8
DIMENSION
10
-3488.654227
20
-3101.720773
30
0
11
-3552.095773
21
-3131.304051
31
0
0
LINE
8
DIMENSION
10
-2728.654227
20
-3101.720773
30
0
11
-2665.212682
21
-3131.304051
31
0
0
LINE
8
DIMENSION
10
-2728.654227
20
-3101.720773
30
0
11
-2665.212682
21
-3072.137494
31
0
0
TEXT
8
DIMENSION
10
-3108.654227
20
-3271.720773
30
0
40
85
1
0.76
50
0
7
STANDARD
72
1
73
2
11
-3108.654227
21
-3271.720773
31
0
0
LINE
8
DIMENSION
10
-2728.654227
20
-2781.720773
30
0
11
-2728.654227
21
-3101.720773
31
0
0
LINE
8
DIMENSION
10
-1468.654227
20
-2781.720773
30
0
11
-1468.654227
21
-3101.720773
31
0
0
LINE
8
DIMENSION
10
-2728.654227
20
-3101.720773
30
0
11
-1468.654227
21
-3101.720773
31
0
0
LINE
8
DIMENSION
10
-2728.654227
20
-3101.720773
30
0
11
-2792.095773
21
-3072.137494
31
0
0
LINE
8
DIMENSION
10
-2728.654227
20
-3101.720773
30
0
11
-2792.095773
21
-3131.304051
31
0
0
LINE
8
DIMENSION
10
-1468.654227
20
-3101.720773
30
0
11
-1405.212682
21
-3131.304051
31
0
0
LINE
8
DIMENSION
10
-1468.654227
20
-3101.720773
30
0
11
-1405.212682
21
-3072.137494
31
0
0
TEXT
8
DIMENSION
10
-2098.654227
20
-3271.720773
30
0
40
85
1
1.26
50
0
7
STANDARD
72
1
73
2
11
-2098.654227
21
-3271.720773
31
0
0
LINE
8
DIMENSION
10
-1468.654227
20
-2781.720773
30
0
11
-1468.654227
21
-3101.720773
31
0
0
LINE
8
DIMENSION
10
-208.654227
20
-2781.720773
30
0
11
-208.654227
21
-3101.720773
31
0
0
LINE
8
DIMENSION
10
-1468.654227
20
-3101.720773
30
0
11
-208.654227
21
-3101.720773
31
0
0
LINE
8
DIMENSION
10
-1468.654227
20
-3101.720773
30
0
11
-1532.095773
21
-3072.137494
31
0
0
LINE
8
DIMENSION
10
-1468.654227
20
-3101.720773
30
0
11
-1532.095773
21
-3131.304051
31
0
0
LINE
8
DIMENSION
10
-208.654227
20
-3101.720773
30
0
11
-145.212682
21
-3131.304051
31
0
0
LINE
8
DIMENSION
10
-208.654227
20
-3101.720773
30
0
11
-145.212682
21
-3072.137494
31
0
0
TEXT
8
DIMENSION
10
-838.654227
20
-3271.720773
30
0
40
85
1
1.26
50
0
7
STANDARD
72
1
73
2
11
-838.654227
21
-3271.720773
31
0
0
LINE
8
DIMENSION
10
-208.654227
20
-2781.720773
30
0
11
-208.654227
21
-3101.720773
31
0
0
LINE
8
DIMENSION
10
1051.345773
20
-2781.720773
30
0
11
1051.345773
21
-3101.720773
31
0
0
LINE
8
DIMENSION
10
-208.654227
20
-3101.720773
30
0
11
1051.345773
21
-3101.720773
31
0
0
LINE
8
DIMENSION
10
-208.654227
20
-3101.720773
30
0
11
-272.095773
21
-3072.137494
31
0
0
LINE
8
DIMENSION
10
-208.654227
20
-3101.720773
30
0
11
-272.095773
21
-3131.304051
31
0
0
LINE
8
DIMENSION
10
1051.345773
20
-3101.720773
30
0
11
1114.787318
21
-3131.304051
31
0
0
LINE
8
DIMENSION
10
1051.345773
20
-3101.720773
30
0
11
1114.787318
21
-3072.137494
31
0
0
TEXT
8
DIMENSION
10
421.345773
20
-3271.720773
30
0
40
85
1
1.26
50
0
7
STANDARD
72
1
73
2
11
421.345773
21
-3271.720773
31
0
0
LINE
8
DIMENSION
10
1051.345773
20
-2781.720773
30
0
11
1051.345773
21
-3101.720773
31
0
0
LINE
8
DIMENSION
10
1051.355773
20
-2781.720773
30
0
11
1051.355773
21
-3101.720773
31
0
0
LINE
8
DIMENSION
10
1051.345773
20
-3101.720773
30
0
11
1051.355773
21
-3101.720773
31
0
0
LINE
8
DIMENSION
10
1051.345773
20
-3101.720773
30
0
11
987.904227
21
-3072.137494
31
0
0
LINE
8
DIMENSION
10
1051.345773
20
-3101.720773
30
0
11
987.904227
21
-3131.304051
31
0
0
LINE
8
DIMENSION
10
1051.355773
20
-3101.720773
30
0
11
1114.797318
21
-3131.304051
31
0
0
LINE
8
DIMENSION
10
1051.355773
20
-3101.720773
30
0
11
1114.797318
21
-3072.137494
31
0
0
TEXT
8
DIMENSION
10
1051.350773
20
-3271.720773
30
0
40
85
1
0
50
0
7
STANDARD
72
1
73
2
11
1051.350773
21
-3271.720773
31
0
0
LINE
8
DIMENSION
10
1051.355773
20
-2781.720773
30
0
11
1051.355773
21
-3101.720773
31
0
0
LINE
8
DIMENSION
10
1811.345773
20
-2781.720773
30
0
11
1811.345773
21
-3101.720773
31
0
0
LINE
8
DIMENSION
10
1051.355773
20
-3101.720773
30
0
11
1811.345773
21
-3101.720773
31
0
0
LINE
8
DIMENSION
10
1051.355773
20
-3101.720773
30
0
11
987.914227
21
-3072.137494
31
0
0
LINE
8
DIMENSION
10
1051.355773
20
-3101.720773
30
0
11
987.914227
21
-3131.304051
31
0
0
LINE
8
DIMENSION
10
1811.345773
20
-3101.720773
30
0
11
1874.787318
21
-3131.304051
31
0
0
LINE
8
DIMENSION
10
1811.345773
20
-3101.720773
30
0
11
1874.787318
21
-3072.137494
31
0
0
TEXT
8
DIMENSION
10
1431.350773
20
-3271.720773
30
0
40
85
1
0.76
50
0
7
STANDARD
72
1
73
2
11
1431.350773
21
-3271.720773
31
0
0
LINE
8
DIMENSION
10
1811.345773
20
-2781.720773
30
0
11
1811.345773
21
-3101.720773
31
0
0
LINE
8
DIMENSION
10
2311.345773
20
-2781.720773
30
0
11
2311.345773
21
-3101.720773
31
0
0
LINE
8
DIMENSION
10
1811.345773
20
-3101.720773
30
0
11
2311.345773
21
-3101.720773
31
0
0
LINE
8
DIMENSION
10
1811.345773
20
-3101.720773
30
0
11
1747.904227
21
-3072.137494
31
0
0
LINE
8
DIMENSION
10
1811.345773
20
-3101.720773
30
0
11
1747.904227
21
-3131.304051
31
0
0
LINE
8
DIMENSION
10
2311.345773
20
-3101.720773
30
0
11
2374.787318
21
-3131.304051
31
0
0
LINE
8
DIMENSION
10
2311.345773
20
-3101.720773
30
0
11
2374.787318
21
-3072.137494
31
0
0
TEXT
8
DIMENSION
10
2061.345773
20
-3271.720773
30
0
40
85
1
0.5
50
0
7
STANDARD
72
1
73
2
11
2061.345773
21
-3271.720773
31
0
0
LINE
8
DIMENSION
10
-3988.654227
20
-2781.720773
30
0
11
-3988.654227
21
-3471.720773
31
0
0
LINE
8
DIMENSION
10
2311.345773
20
-2781.720773
30
0
11
2311.345773
21
-3471.720773
31
0
0
LINE
8
DIMENSION
10
-3988.654227
20
-3471.720773
30
0
11
2311.345773
21
-3471.720773
31
0
0
LINE
8
DIMENSION
10
-3988.654227
20
-3471.720773
30
0
11
-4052.095773
21
-3442.137494
31
0
0
LINE
8
DIMENSION
10
-3988.654227
20
-3471.720773
30
0
11
-4052.095773
21
-3501.304051
31
0
0
LINE
8
DIMENSION
10
2311.345773
20
-3471.720773
30
0
11
2374.787318
21
-3501.304051
31
0
0
LINE
8
DIMENSION
10
2311.345773
20
-3471.720773
30
0
11
2374.787318
21
-3442.137494
31
0
0
TEXT
8
DIMENSION
10
-838.654227
20
-3641.720773
30
0
40
85
1
TOTAL 6.3
50
0
7
STANDARD
72
1
73
2
11
-838.654227
21
-3641.720773
31
0
0
LINE
8
DIMENSION
10
2371.345773
20
-2721.720773
30
0
11
3011.345773
21
-2721.720773
31
0
0
LINE
8
DIMENSION
10
2371.345773
20
-2221.720773
30
0
11
3011.345773
21
-2221.720773
31
0
0
LINE
8
DIMENSION
10
3011.345773
20
-2721.720773
30
0
11
3011.345773
21
-2221.720773
31
0
0
LINE
8
DIMENSION
10
3011.345773
20
-2721.720773
30
0
11
2981.762494
21
-2785.162318
31
0
0
LINE
8
DIMENSION
10
3011.345773
20
-2721.720773
30
0
11
3040.929051
21
-2785.162318
31
0
0
LINE
8
DIMENSION
10
3011.345773
20
-2221.720773
30
0
11
3040.929051
21
-2158.279227
31
0
0
LINE
8
DIMENSION
10
3011.345773
20
-2221.720773
30
0
11
2981.762494
21
-2158.279227
31
0
0
TEXT
8
DIMENSION
10
3181.345773
20
-2471.720773
30
0
40
85
1
0.5
50
90
7
STANDARD
72
1
73
2
11
3181.345773
21
-2471.720773
31
0
0
LINE
8
DIMENSION
10
2371.345773
20
-2221.720773
30
0
11
3011.345773
21
-2221.720773
31
0
0
LINE
8
DIMENSION
10
2371.345773
20
-1461.720773
30
0
11
3011.345773
21
-1461.720773
31
0
0
LINE
8
DIMENSION
10
3011.345773
20
-2221.720773
30
0
11
3011.345773
21
-1461.720773
31
0
0
LINE
8
DIMENSION
10
3011.345773
20
-2221.720773
30
0
11
2981.762494
21
-2285.162318
31
0
0
LINE
8
DIMENSION
10
3011.345773
20
-2221.720773
30
0
11
3040.929051
21
-2285.162318
31
0
0
LINE
8
DIMENSION
10
3011.345773
20
-1461.720773
30
0
11
3040.929051
21
-1398.279227
31
0
0
LINE
8
DIMENSION
10
3011.345773
20
-1461.720773
30
0
11
2981.762494
21
-1398.279227
31
0
0
TEXT
8
DIMENSION
10
3181.345773
20
-1841.720773
30
0
40
85
1
0.76
50
90
7
STANDARD
72
1
73
2
11
3181.345773
21
-1841.720773
31
0
0
LINE
8
DIMENSION
10
2371.345773
20
-1461.720773
30
0
11
3011.345773
21
-1461.720773
31
0
0
LINE
8
DIMENSION
10
2371.345773
20
-201.720773
30
0
11
3011.345773
21
-201.720773
31
0
0
LINE
8
DIMENSION
10
3011.345773
20
-1461.720773
30
0
11
3011.345773
21
-201.720773
31
0
0
LINE
8
DIMENSION
10
3011.345773
20
-1461.720773
30
0
11
2981.762494
21
-1525.162318
31
0
0
LINE
8
DIMENSION
10
3011.345773
20
-1461.720773
30
0
11
3040.929051
21
-1525.162318
31
0
0
LINE
8
DIMENSION
10
3011.345773
20
-201.720773
30
0
11
3040.929051
21
-138.279227
31
0
0
LINE
8
DIMENSION
10
3011.345773
20
-201.720773
30
0
11
2981.762494
21
-138.279227
31
0
0
TEXT
8
DIMENSION
10
3181.345773
20
-831.720773
30
0
40
85
1
1.26
50
90
7
STANDARD
72
1
73
2
11
3181.345773
21
-831.720773
31
0
0
LINE
8
DIMENSION
10
2371.345773
20
-201.720773
30
0
11
3011.345773
21
-201.720773
31
0
0
LINE
8
DIMENSION
10
2371.345773
20
1058.279227
30
0
11
3011.345773
21
1058.279227
31
0
0
LINE
8
DIMENSION
10
3011.345773
20
-201.720773
30
0
11
3011.345773
21
1058.279227
31
0
0
LINE
8
DIMENSION
10
3011.345773
20
-201.720773
30
0
11
2981.762494
21
-265.162318
31
0
0
LINE
8
DIMENSION
10
3011.345773
20
-201.720773
30
0
11
3040.929051
21
-265.162318
31
0
0
LINE
8
DIMENSION
10
3011.345773
20
1058.279227
30
0
11
3040.929051
21
1121.720773
31
0
0
LINE
8
DIMENSION
10
3011.345773
20
1058.279227
30
0
11
2981.762494
21
1121.720773
31
0
0
TEXT
8
DIMENSION
10
3181.345773
20
428.279227
30
0
40
85
1
1.26
50
90
7
STANDARD
72
1
73
2
11
3181.345773
21
428.279227
31
0
0
LINE
8
DIMENSION
10
2371.345773
20
1058.279227
30
0
11
3011.345773
21
1058.279227
31
0
0
LINE
8
DIMENSION
10
2371.345773
20
2318.279227
30
0
11
3011.345773
21
2318.279227
31
0
0
LINE
8
DIMENSION
10
3011.345773
20
1058.279227
30
0
11
3011.345773
21
2318.279227
31
0
0
LINE
8
DIMENSION
10
3011.345773
20
1058.279227
30
0
11
2981.762494
21
994.837682
31
0
0
LINE
8
DIMENSION
10
3011.345773
20
1058.279227
30
0
11
3040.929051
21
994.837682
31
0
0
LINE
8
DIMENSION
10
3011.345773
20
2318.279227
30
0
11
3040.929051
21
2381.720773
31
0
0
LINE
8
DIMENSION
10
3011.345773
20
2318.279227
30
0
11
2981.762494
21
2381.720773
31
0
0
TEXT
8
DIMENSION
10
3181.345773
20
1688.279227
30
0
40
85
1
1.26
50
90
7
STANDARD
72
1
73
2
11
3181.345773
21
1688.279227
31
0
0
LINE
8
DIMENSION
10
2371.345773
20
2318.279227
30
0
11
3011.345773
21
2318.279227
31
0
0
LINE
8
DIMENSION
10
2371.345773
20
3078.279227
30
0
11
3011.345773
21
3078.279227
31
0
0
LINE
8
DIMENSION
10
3011.345773
20
2318.279227
30
0
11
3011.345773
21
3078.279227
31
0
0
LINE
8
DIMENSION
10
3011.345773
20
2318.279227
30
0
11
2981.762494
21
2254.837682
31
0
0
LINE
8
DIMENSION
10
3011.345773
20
2318.279227
30
0
11
3040.929051
21
2254.837682
31
0
0
LINE
8
DIMENSION
10
3011.345773
20
3078.279227
30
0
11
3040.929051
21
3141.720773
31
0
0
LINE
8
DIMENSION
10
3011.345773
20
3078.279227
30
0
11
2981.762494
21
3141.720773
31
0
0
TEXT
8
DIMENSION
10
3181.345773
20
2698.279227
30
0
40
85
1
0.76
50
90
7
STANDARD
72
1
73
2
11
3181.345773
21
2698.279227
31
0
0
LINE
8
DIMENSION
10
2371.345773
20
3078.279227
30
0
11
3011.345773
21
3078.279227
31
0
0
LINE
8
DIMENSION
10
2371.345773
20
3578.279227
30
0
11
3011.345773
21
3578.279227
31
0
0
LINE
8
DIMENSION
10
3011.345773
20
3078.279227
30
0
11
3011.345773
21
3578.279227
31
0
0
LINE
8
DIMENSION
10
3011.345773
20
3078.279227
30
0
11
2981.762494
21
3014.837682
31
0
0
LINE
8
DIMENSION
10
3011.345773
20
3078.279227
30
0
11
3040.929051
21
3014.837682
31
0
0
LINE
8
DIMENSION
10
3011.345773
20
3578.279227
30
0
11
3040.929051
21
3641.720773
31
0
0
LINE
8
DIMENSION
10
3011.345773
20
3578.279227
30
0
11
2981.762494
21
3641.720773
31
0
0
TEXT
8
DIMENSION
10
3181.345773
20
3328.279227
30
0
40
85
1
0.5
50
90
7
STANDARD
72
1
73
2
11
3181.345773
21
3328.279227
31
0
0
LINE
8
DIMENSION
10
2371.345773
20
-2721.720773
30
0
11
3461.345773
21
-2721.720773
31
0
0
LINE
8
DIMENSION
10
2371.345773
20
3578.279227
30
0
11
3461.345773
21
3578.279227
31
0
0
LINE
8
DIMENSION
10
3461.345773
20
-2721.720773
30
0
11
3461.345773
21
3578.279227
31
0
0
LINE
8
DIMENSION
10
3461.345773
20
-2721.720773
30
0
11
3431.762494
21
-2785.162318
31
0
0
LINE
8
DIMENSION
10
3461.345773
20
-2721.720773
30
0
11
3490.929051
21
-2785.162318
31
0
0
LINE
8
DIMENSION
10
3461.345773
20
3578.279227
30
0
11
3490.929051
21
3641.720773
31
0
0
LINE
8
DIMENSION
10
3461.345773
20
3578.279227
30
0
11
3431.762494
21
3641.720773
31
0
0
TEXT
8
DIMENSION
10
3631.345773
20
428.279227
30
0
40
85
1
TOTAL 6.3
50
90
7
STANDARD
72
1
73
2
11
3631.345773
21
428.279227
31
0
0
ENDSEC
0
EOF
