0
SECTION
2
HEADER
9
$ACADVER
1
AC1009
9
$INSUNITS
70
4
9
$MEASUREMENT
70
1
9
$LUNITS
70
2
9
$LUPREC
70
1
9
$TILEMODE
70
1
9
$EXTMIN
10
-6913.6245
20
-2491.725773
30
0
9
$EXTMAX
10
6913.6245
20
2491.725773
30
0
9
$PEXTMIN
10
-6913.6245
20
-2491.725773
30
0
9
$PEXTMAX
10
6913.6245
20
2491.725773
30
0
9
$LIMMIN
10
-7413.6245
20
-2991.725773
9
$LIMMAX
10
7413.6245
20
2991.725773
9
$PLIMMIN
10
-7413.6245
20
-2991.725773
9
$PLIMMAX
10
7413.6245
20
2991.725773
0
ENDSEC
0
SECTION
2
TABLES
0
TABLE
2
VPORT
70
1
0
VPORT
2
*ACTIVE
70
0
10
0
20
0
11
1
21
1
12
0
22
0
40
5983.451545
41
2.478043
42
50
43
0
44
0
50
0
51
0
71
0
72
100
73
1
74
3
75
0
76
0
77
0
78
0
0
ENDTAB
0
TABLE
2
LTYPE
70
2
0
LTYPE
2
CONTINUOUS
70
0
3
Solid line
72
65
73
0
40
0
0
LTYPE
2
DASHED
70
0
3
Dashed
72
65
73
2
40
240
49
120
74
0
49
-120
74
0
0
ENDTAB
0
TABLE
2
LAYER
70
6
0
LAYER
2
PIPES
70
0
62
5
6
CONTINUOUS
0
LAYER
2
PIPE_ENDS
70
0
62
5
6
CONTINUOUS
0
LAYER
2
DIMENSION
70
0
62
1
6
CONTINUOUS
0
LAYER
2
LEVEL_GUIDE
70
0
62
1
6
DASHED
0
LAYER
2
LEVEL_TEXT
70
0
62
1
6
CONTINUOUS
0
LAYER
2
FRAME
70
0
62
5
6
CONTINUOUS
0
ENDTAB
0
TABLE
2
STYLE
70
1
0
STYLE
2
STANDARD
70
0
40
0
41
1
50
0
71
0
42
100
3
txt
4

0
ENDTAB
0
ENDSEC
0
SECTION
2
BLOCKS
0
BLOCK
8
0
2
$MODEL_SPACE
70
0
10
0
20
0
30
0
3
$MODEL_SPACE
0
ENDBLK
8
0
0
BLOCK
67
1
8
0
2
$PAPER_SPACE
70
0
10
0
20
0
30
0
3
$PAPER_SPACE
0
ENDBLK
67
1
8
0
0
ENDSEC
0
SECTION
2
ENTITIES
0
LINE
8
PIPES
10
-6733.6245
20
-1571.725773
30
0
11
-6733.6245
21
-1271.724773
31
0
0
LINE
8
PIPES
10
-6733.6245
20
-1271.724773
30
0
11
-6733.6245
21
-720.661773
31
0
0
LINE
8
PIPES
10
-6733.6245
20
-720.661773
30
0
11
-6733.6245
21
-271.045773
31
0
0
LINE
8
PIPES
10
-6733.6245
20
-271.045773
30
0
11
-6733.6245
21
263.384227
31
0
0
LINE
8
PIPES
10
-6733.6245
20
263.384227
30
0
11
-6733.6245
21
853.814227
31
0
0
LINE
8
PIPES
10
-6733.6245
20
1735.044227
30
0
11
-6733.6245
21
853.814227
31
0
0
LINE
8
PIPES
10
-6733.6245
20
1813.764227
30
0
11
-6733.6245
21
853.814227
31
0
0
LINE
8
PIPES
10
-6733.6245
20
1892.494227
30
0
11
-6733.6245
21
853.814227
31
0
0
LINE
8
PIPES
10
-6733.6245
20
1971.214227
30
0
11
-6733.6245
21
853.814227
31
0
0
LINE
8
PIPES
10
-6733.6245
20
2049.944227
30
0
11
-6733.6245
21
853.814227
31
0
0
LINE
8
PIPES
10
-6733.6245
20
853.814227
30
0
11
-6733.6245
21
2128.664227
31
0
0
LINE
8
PIPES
10
-733.6255
20
-1571.725773
30
0
11
-733.6255
21
-1271.724773
31
0
0
LINE
8
PIPES
10
-733.6255
20
-720.661773
30
0
11
-733.6255
21
-1271.724773
31
0
0
LINE
8
PIPES
10
-733.6255
20
-720.661773
30
0
11
-733.6255
21
-271.045773
31
0
0
LINE
8
PIPES
10
-733.6255
20
-271.045773
30
0
11
-733.6255
21
263.384227
31
0
0
LINE
8
PIPES
10
-733.6255
20
263.384227
30
0
11
-733.6255
21
853.814227
31
0
0
LINE
8
PIPES
10
-733.6255
20
853.814227
30
0
11
-733.6255
21
1735.044227
31
0
0
LINE
8
PIPES
10
-733.6255
20
853.814227
30
0
11
-733.6255
21
2128.664227
31
0
0
LINE
8
PIPES
10
-5773.6255
20
-1571.725773
30
0
11
-5773.6255
21
-1271.724773
31
0
0
LINE
8
PIPES
10
-5773.6255
20
-1271.724773
30
0
11
-5773.6255
21
-720.661773
31
0
0
LINE
8
PIPES
10
-5773.6255
20
-720.661773
30
0
11
-5773.6255
21
-271.045773
31
0
0
LINE
8
PIPES
10
-5773.6255
20
-271.045773
30
0
11
-5773.6255
21
263.384227
31
0
0
LINE
8
PIPES
10
-5773.6255
20
263.384227
30
0
11
-5773.6255
21
853.814227
31
0
0
LINE
8
PIPES
10
-5773.6255
20
853.814227
30
0
11
-5773.6255
21
1735.044227
31
0
0
LINE
8
PIPES
10
-5773.6255
20
853.814227
30
0
11
-5773.6255
21
2128.664227
31
0
0
LINE
8
PIPES
10
-1993.6255
20
-1571.725773
30
0
11
-1993.6255
21
-1271.724773
31
0
0
LINE
8
PIPES
10
-1993.6255
20
-720.661773
30
0
11
-1993.6255
21
-1271.724773
31
0
0
LINE
8
PIPES
10
-1993.6255
20
-720.661773
30
0
11
-1993.6255
21
-271.045773
31
0
0
LINE
8
PIPES
10
-1993.6255
20
-271.045773
30
0
11
-1993.6255
21
263.384227
31
0
0
LINE
8
PIPES
10
-1993.6255
20
263.384227
30
0
11
-1993.6255
21
853.814227
31
0
0
LINE
8
PIPES
10
-1993.6255
20
853.814227
30
0
11
-1993.6255
21
1735.044227
31
0
0
LINE
8
PIPES
10
-1993.6255
20
853.814227
30
0
11
-1993.6255
21
2128.664227
31
0
0
LINE
8
PIPES
10
-4513.6255
20
-1571.725773
30
0
11
-4513.6255
21
-1271.724773
31
0
0
LINE
8
PIPES
10
-4513.6255
20
-720.661773
30
0
11
-4513.6255
21
-1271.724773
31
0
0
LINE
8
PIPES
10
-4513.6255
20
-720.661773
30
0
11
-4513.6255
21
-271.045773
31
0
0
LINE
8
PIPES
10
-4513.6255
20
-271.045773
30
0
11
-4513.6255
21
263.384227
31
0
0
LINE
8
PIPES
10
-4513.6255
20
263.384227
30
0
11
-4513.6255
21
853.814227
31
0
0
LINE
8
PIPES
10
-4513.6255
20
853.814227
30
0
11
-4513.6255
21
1735.044227
31
0
0
LINE
8
PIPES
10
-4513.6255
20
853.814227
30
0
11
-4513.6255
21
1247.434227
31
0
0
LINE
8
PIPES
10
-4513.6255
20
1247.434227
30
0
11
-4513.6255
21
2128.664227
31
0
0
LINE
8
PIPES
10
-4513.6255
20
2144.874227
30
0
11
-4513.6255
21
2428.284227
31
0
0
LINE
8
PIPES
10
-3253.6255
20
-1571.725773
30
0
11
-3253.6255
21
-1271.724773
31
0
0
LINE
8
PIPES
10
-3253.6255
20
-1271.724773
30
0
11
-3253.6255
21
-720.661773
31
0
0
LINE
8
PIPES
10
-3253.6255
20
-720.661773
30
0
11
-3253.6255
21
-271.045773
31
0
0
LINE
8
PIPES
10
-3253.6255
20
-271.045773
30
0
11
-3253.6255
21
263.384227
31
0
0
LINE
8
PIPES
10
-3253.6255
20
263.384227
30
0
11
-3253.6255
21
853.814227
31
0
0
LINE
8
PIPES
10
-3253.6255
20
853.814227
30
0
11
-3253.6255
21
1735.044227
31
0
0
LINE
8
PIPES
10
-3253.6255
20
853.814227
30
0
11
-3253.6255
21
1247.434227
31
0
0
LINE
8
PIPES
10
-3253.6255
20
1247.434227
30
0
11
-3253.6255
21
2128.664227
31
0
0
LINE
8
PIPES
10
-3253.6255
20
2144.874227
30
0
11
-3253.6255
21
2428.284227
31
0
0
LINE
8
PIPES
10
-6233.6235
20
-720.661773
30
0
11
-6233.6235
21
-271.045773
31
0
0
LINE
8
PIPES
10
-6733.6245
20
-1271.724773
30
0
11
-5773.6255
21
-1271.724773
31
0
0
LINE
8
PIPES
10
-5773.6255
20
-1271.724773
30
0
11
-4513.6255
21
-1271.724773
31
0
0
LINE
8
PIPES
10
-4513.6255
20
-1271.724773
30
0
11
-3253.6255
21
-1271.724773
31
0
0
LINE
8
PIPES
10
-3253.6255
20
-1271.724773
30
0
11
-1993.6255
21
-1271.724773
31
0
0
LINE
8
PIPES
10
-1993.6255
20
-1271.724773
30
0
11
-733.6255
21
-1271.724773
31
0
0
LINE
8
PIPES
10
-6733.6245
20
-720.661773
30
0
11
-6233.6235
21
-720.661773
31
0
0
LINE
8
PIPES
10
-5773.6255
20
-720.661773
30
0
11
-4513.6255
21
-720.661773
31
0
0
LINE
8
PIPES
10
-4513.6255
20
-720.661773
30
0
11
-3253.6255
21
-720.661773
31
0
0
LINE
8
PIPES
10
-3253.6255
20
-720.661773
30
0
11
-1993.6255
21
-720.661773
31
0
0
LINE
8
PIPES
10
-6233.6235
20
-720.661773
30
0
11
-5773.6255
21
-720.661773
31
0
0
LINE
8
PIPES
10
-5773.6255
20
-271.045773
30
0
11
-6233.6235
21
-271.045773
31
0
0
LINE
8
PIPES
10
-4513.6255
20
-271.045773
30
0
11
-5773.6255
21
-271.045773
31
0
0
LINE
8
PIPES
10
-4513.6255
20
-271.045773
30
0
11
-3253.6255
21
-271.045773
31
0
0
LINE
8
PIPES
10
-1993.6255
20
-271.045773
30
0
11
-3253.6255
21
-271.045773
31
0
0
LINE
8
PIPES
10
-1993.6255
20
-271.045773
30
0
11
-733.6155
21
-271.045773
31
0
0
LINE
8
PIPES
10
-6233.6235
20
-271.045773
30
0
11
-6733.6245
21
-271.045773
31
0
0
LINE
8
PIPES
10
-733.6255
20
-271.045773
30
0
11
-1993.6255
21
-271.045773
31
0
0
LINE
8
PIPES
10
-6733.6245
20
263.384227
30
0
11
-5773.6255
21
263.384227
31
0
0
LINE
8
PIPES
10
-5773.6255
20
263.384227
30
0
11
-4513.6255
21
263.384227
31
0
0
LINE
8
PIPES
10
-4513.6255
20
263.384227
30
0
11
-3253.6255
21
263.384227
31
0
0
LINE
8
PIPES
10
-3253.6255
20
263.384227
30
0
11
-1993.6255
21
263.384227
31
0
0
LINE
8
PIPES
10
-1993.6255
20
263.384227
30
0
11
-733.6255
21
263.384227
31
0
0
LINE
8
PIPES
10
-6733.6245
20
853.814227
30
0
11
-5773.6255
21
853.814227
31
0
0
LINE
8
PIPES
10
-5773.6255
20
853.814227
30
0
11
-4513.6255
21
853.814227
31
0
0
LINE
8
PIPES
10
-4513.6255
20
853.814227
30
0
11
-3253.6255
21
853.814227
31
0
0
LINE
8
PIPES
10
-3253.6255
20
853.814227
30
0
11
-1993.6255
21
853.814227
31
0
0
LINE
8
PIPES
10
-1993.6255
20
853.814227
30
0
11
-733.6255
21
853.814227
31
0
0
LINE
8
PIPES
10
-6733.6245
20
2034.664227
30
0
11
-5773.6255
21
2034.664227
31
0
0
LINE
8
PIPES
10
-6733.6245
20
1735.044227
30
0
11
-5773.6255
21
1735.044227
31
0
0
LINE
8
PIPES
10
-5773.6255
20
2034.664227
30
0
11
-4513.6255
21
2034.664227
31
0
0
LINE
8
PIPES
10
-5773.6255
20
1735.044227
30
0
11
-4513.6255
21
1735.044227
31
0
0
LINE
8
PIPES
10
-4513.6255
20
2034.664227
30
0
11
-3253.6255
21
2034.664227
31
0
0
LINE
8
PIPES
10
-4513.6255
20
1735.044227
30
0
11
-3253.6255
21
1735.044227
31
0
0
LINE
8
PIPES
10
-3253.6255
20
2034.664227
30
0
11
-1993.6255
21
2034.664227
31
0
0
LINE
8
PIPES
10
-3253.6255
20
1735.044227
30
0
11
-1993.6255
21
1735.044227
31
0
0
LINE
8
PIPES
10
-1993.6255
20
2034.664227
30
0
11
-733.6255
21
2034.664227
31
0
0
LINE
8
PIPES
10
-1993.6255
20
1735.044227
30
0
11
-733.6255
21
1735.044227
31
0
0
LINE
8
PIPES
10
-6733.6245
20
2428.284227
30
0
11
-5773.6255
21
2428.284227
31
0
0
LINE
8
PIPES
10
-6733.6245
20
2128.664227
30
0
11
-5773.6255
21
2128.664227
31
0
0
LINE
8
PIPES
10
-5773.6255
20
2428.284227
30
0
11
-4513.6255
21
2428.284227
31
0
0
LINE
8
PIPES
10
-5773.6255
20
2128.664227
30
0
11
-4513.6255
21
2128.664227
31
0
0
LINE
8
PIPES
10
-4513.6255
20
2428.284227
30
0
11
-3253.6255
21
2428.284227
31
0
0
LINE
8
PIPES
10
-4513.6255
20
2128.664227
30
0
11
-3253.6255
21
2128.664227
31
0
0
LINE
8
PIPES
10
-3253.6255
20
2428.284227
30
0
11
-1993.6255
21
2428.284227
31
0
0
LINE
8
PIPES
10
-3253.6255
20
2128.664227
30
0
11
-1993.6255
21
2128.664227
31
0
0
LINE
8
PIPES
10
-1993.6255
20
2428.284227
30
0
11
-733.6255
21
2428.284227
31
0
0
LINE
8
PIPES
10
-1993.6255
20
2128.664227
30
0
11
-733.6255
21
2128.664227
31
0
0
LINE
8
PIPES
10
-4513.6255
20
2034.664227
30
0
11
-4513.6255
21
2056.304227
31
0
0
LINE
8
PIPES
10
-4513.6255
20
2056.304227
30
0
11
-4513.6255
21
2074.904227
31
0
0
LINE
8
PIPES
10
-4513.6255
20
2074.904227
30
0
11
-4513.6255
21
2093.504227
31
0
0
LINE
8
PIPES
10
-4513.6255
20
2093.504227
30
0
11
-4513.6255
21
2112.104227
31
0
0
LINE
8
PIPES
10
-4513.6255
20
2112.104227
30
0
11
-4513.6255
21
2113.384227
31
0
0
LINE
8
PIPES
10
-4513.6255
20
2130.704227
30
0
11
-4513.6255
21
2149.294227
31
0
0
LINE
8
PIPES
10
-4513.6255
20
2149.294227
30
0
11
-4513.6255
21
2167.894227
31
0
0
LINE
8
PIPES
10
-4513.6255
20
2167.894227
30
0
11
-4513.6255
21
2186.494227
31
0
0
LINE
8
PIPES
10
-4513.6255
20
2186.494227
30
0
11
-4513.6255
21
2192.114227
31
0
0
LINE
8
PIPES
10
-4513.6255
20
2205.094227
30
0
11
-4513.6255
21
2223.694227
31
0
0
LINE
8
PIPES
10
-4513.6255
20
2223.694227
30
0
11
-4513.6255
21
2242.294227
31
0
0
LINE
8
PIPES
10
-4513.6255
20
2242.294227
30
0
11
-4513.6255
21
2260.894227
31
0
0
LINE
8
PIPES
10
-4513.6255
20
2260.894227
30
0
11
-4513.6255
21
2270.834227
31
0
0
LINE
8
PIPES
10
-4513.6255
20
2279.494227
30
0
11
-4513.6255
21
2298.094227
31
0
0
LINE
8
PIPES
10
-4513.6255
20
2298.094227
30
0
11
-4513.6255
21
2316.694227
31
0
0
LINE
8
PIPES
10
-4513.6255
20
2316.694227
30
0
11
-4513.6255
21
2335.294227
31
0
0
LINE
8
PIPES
10
-4513.6255
20
2335.294227
30
0
11
-4513.6255
21
2349.564227
31
0
0
LINE
8
PIPES
10
-4513.6255
20
2353.884227
30
0
11
-4513.6255
21
2372.484227
31
0
0
LINE
8
PIPES
10
-4513.6255
20
2372.484227
30
0
11
-4513.6255
21
2391.084227
31
0
0
LINE
8
PIPES
10
-4513.6255
20
2391.084227
30
0
11
-4513.6255
21
2409.684227
31
0
0
LINE
8
PIPES
10
-4513.6255
20
2409.684227
30
0
11
-4513.6255
21
2428.284227
31
0
0
LINE
8
PIPES
10
-4513.6255
20
1735.044227
30
0
11
-4513.6255
21
1756.684227
31
0
0
LINE
8
PIPES
10
-4513.6255
20
1756.684227
30
0
11
-4513.6255
21
1775.284227
31
0
0
LINE
8
PIPES
10
-4513.6255
20
1775.284227
30
0
11
-4513.6255
21
1793.884227
31
0
0
LINE
8
PIPES
10
-4513.6255
20
1793.884227
30
0
11
-4513.6255
21
1812.484227
31
0
0
LINE
8
PIPES
10
-4513.6255
20
1812.484227
30
0
11
-4513.6255
21
1813.764227
31
0
0
LINE
8
PIPES
10
-4513.6255
20
1831.084227
30
0
11
-4513.6255
21
1849.674227
31
0
0
LINE
8
PIPES
10
-4513.6255
20
1849.674227
30
0
11
-4513.6255
21
1868.274227
31
0
0
LINE
8
PIPES
10
-4513.6255
20
1868.274227
30
0
11
-4513.6255
21
1886.874227
31
0
0
LINE
8
PIPES
10
-4513.6255
20
1886.874227
30
0
11
-4513.6255
21
1892.494227
31
0
0
LINE
8
PIPES
10
-4513.6255
20
1905.474227
30
0
11
-4513.6255
21
1924.074227
31
0
0
LINE
8
PIPES
10
-4513.6255
20
1924.074227
30
0
11
-4513.6255
21
1942.674227
31
0
0
LINE
8
PIPES
10
-4513.6255
20
1942.674227
30
0
11
-4513.6255
21
1961.274227
31
0
0
LINE
8
PIPES
10
-4513.6255
20
1961.274227
30
0
11
-4513.6255
21
1971.214227
31
0
0
LINE
8
PIPES
10
-4513.6255
20
1979.874227
30
0
11
-4513.6255
21
1998.474227
31
0
0
LINE
8
PIPES
10
-4513.6255
20
1998.474227
30
0
11
-4513.6255
21
2017.074227
31
0
0
LINE
8
PIPES
10
-4513.6255
20
2017.074227
30
0
11
-4513.6255
21
2035.664227
31
0
0
LINE
8
PIPES
10
-4513.6255
20
2035.664227
30
0
11
-4513.6255
21
2049.944227
31
0
0
LINE
8
PIPES
10
-4513.6255
20
2054.264227
30
0
11
-4513.6255
21
2072.864227
31
0
0
LINE
8
PIPES
10
-4513.6255
20
2072.864227
30
0
11
-4513.6255
21
2091.464227
31
0
0
LINE
8
PIPES
10
-4513.6255
20
2091.464227
30
0
11
-4513.6255
21
2110.064227
31
0
0
LINE
8
PIPES
10
-4513.6255
20
2110.064227
30
0
11
-4513.6255
21
2128.664227
31
0
0
LINE
8
PIPES
10
-4513.6255
20
2128.664227
30
0
11
-4513.6255
21
2144.874227
31
0
0
LINE
8
PIPES
10
-4513.6255
20
2034.664227
30
0
11
-4513.6255
21
1735.044227
31
0
0
LINE
8
PIPES
10
-4513.6255
20
2056.304227
30
0
11
-4513.6255
21
1756.684227
31
0
0
LINE
8
PIPES
10
-4513.6255
20
2074.904227
30
0
11
-4513.6255
21
1775.284227
31
0
0
LINE
8
PIPES
10
-4513.6255
20
2093.504227
30
0
11
-4513.6255
21
1793.884227
31
0
0
LINE
8
PIPES
10
-4513.6255
20
2112.104227
30
0
11
-4513.6255
21
1812.484227
31
0
0
LINE
8
PIPES
10
-4513.6255
20
2130.704227
30
0
11
-4513.6255
21
1831.084227
31
0
0
LINE
8
PIPES
10
-4513.6255
20
2149.294227
30
0
11
-4513.6255
21
1849.674227
31
0
0
LINE
8
PIPES
10
-4513.6255
20
2167.894227
30
0
11
-4513.6255
21
1868.274227
31
0
0
LINE
8
PIPES
10
-4513.6255
20
2186.494227
30
0
11
-4513.6255
21
1886.874227
31
0
0
LINE
8
PIPES
10
-4513.6255
20
2205.094227
30
0
11
-4513.6255
21
1905.474227
31
0
0
LINE
8
PIPES
10
-4513.6255
20
2223.694227
30
0
11
-4513.6255
21
1924.074227
31
0
0
LINE
8
PIPES
10
-4513.6255
20
2242.294227
30
0
11
-4513.6255
21
1942.674227
31
0
0
LINE
8
PIPES
10
-4513.6255
20
2260.894227
30
0
11
-4513.6255
21
1961.274227
31
0
0
LINE
8
PIPES
10
-4513.6255
20
2279.494227
30
0
11
-4513.6255
21
1979.874227
31
0
0
LINE
8
PIPES
10
-4513.6255
20
2298.094227
30
0
11
-4513.6255
21
1998.474227
31
0
0
LINE
8
PIPES
10
-4513.6255
20
2316.694227
30
0
11
-4513.6255
21
2017.074227
31
0
0
LINE
8
PIPES
10
-4513.6255
20
2335.294227
30
0
11
-4513.6255
21
2035.664227
31
0
0
LINE
8
PIPES
10
-4513.6255
20
2353.884227
30
0
11
-4513.6255
21
2054.264227
31
0
0
LINE
8
PIPES
10
-4513.6255
20
2372.484227
30
0
11
-4513.6255
21
2072.864227
31
0
0
LINE
8
PIPES
10
-4513.6255
20
2391.084227
30
0
11
-4513.6255
21
2091.464227
31
0
0
LINE
8
PIPES
10
-4513.6255
20
2409.684227
30
0
11
-4513.6255
21
2110.064227
31
0
0
LINE
8
PIPES
10
-3253.6255
20
2034.664227
30
0
11
-3253.6255
21
2056.304227
31
0
0
LINE
8
PIPES
10
-3253.6255
20
2056.304227
30
0
11
-3253.6255
21
2074.904227
31
0
0
LINE
8
PIPES
10
-3253.6255
20
2074.904227
30
0
11
-3253.6255
21
2093.504227
31
0
0
LINE
8
PIPES
10
-3253.6255
20
2093.504227
30
0
11
-3253.6255
21
2112.104227
31
0
0
LINE
8
PIPES
10
-3253.6255
20
2112.104227
30
0
11
-3253.6255
21
2113.384227
31
0
0
LINE
8
PIPES
10
-3253.6255
20
2130.704227
30
0
11
-3253.6255
21
2149.294227
31
0
0
LINE
8
PIPES
10
-3253.6255
20
2149.294227
30
0
11
-3253.6255
21
2167.894227
31
0
0
LINE
8
PIPES
10
-3253.6255
20
2167.894227
30
0
11
-3253.6255
21
2186.494227
31
0
0
LINE
8
PIPES
10
-3253.6255
20
2186.494227
30
0
11
-3253.6255
21
2192.114227
31
0
0
LINE
8
PIPES
10
-3253.6255
20
2205.094227
30
0
11
-3253.6255
21
2223.694227
31
0
0
LINE
8
PIPES
10
-3253.6255
20
2223.694227
30
0
11
-3253.6255
21
2242.294227
31
0
0
LINE
8
PIPES
10
-3253.6255
20
2242.294227
30
0
11
-3253.6255
21
2260.894227
31
0
0
LINE
8
PIPES
10
-3253.6255
20
2260.894227
30
0
11
-3253.6255
21
2270.834227
31
0
0
LINE
8
PIPES
10
-3253.6255
20
2279.494227
30
0
11
-3253.6255
21
2298.094227
31
0
0
LINE
8
PIPES
10
-3253.6255
20
2298.094227
30
0
11
-3253.6255
21
2316.694227
31
0
0
LINE
8
PIPES
10
-3253.6255
20
2316.694227
30
0
11
-3253.6255
21
2335.294227
31
0
0
LINE
8
PIPES
10
-3253.6255
20
2335.294227
30
0
11
-3253.6255
21
2349.564227
31
0
0
LINE
8
PIPES
10
-3253.6255
20
2353.884227
30
0
11
-3253.6255
21
2372.484227
31
0
0
LINE
8
PIPES
10
-3253.6255
20
2372.484227
30
0
11
-3253.6255
21
2391.084227
31
0
0
LINE
8
PIPES
10
-3253.6255
20
2391.084227
30
0
11
-3253.6255
21
2409.684227
31
0
0
LINE
8
PIPES
10
-3253.6255
20
2409.684227
30
0
11
-3253.6255
21
2428.284227
31
0
0
LINE
8
PIPES
10
-3253.6255
20
1735.044227
30
0
11
-3253.6255
21
1756.684227
31
0
0
LINE
8
PIPES
10
-3253.6255
20
1756.684227
30
0
11
-3253.6255
21
1775.284227
31
0
0
LINE
8
PIPES
10
-3253.6255
20
1775.284227
30
0
11
-3253.6255
21
1793.884227
31
0
0
LINE
8
PIPES
10
-3253.6255
20
1793.884227
30
0
11
-3253.6255
21
1812.484227
31
0
0
LINE
8
PIPES
10
-3253.6255
20
1812.484227
30
0
11
-3253.6255
21
1813.764227
31
0
0
LINE
8
PIPES
10
-3253.6255
20
1831.084227
30
0
11
-3253.6255
21
1849.674227
31
0
0
LINE
8
PIPES
10
-3253.6255
20
1849.674227
30
0
11
-3253.6255
21
1868.274227
31
0
0
LINE
8
PIPES
10
-3253.6255
20
1868.274227
30
0
11
-3253.6255
21
1886.874227
31
0
0
LINE
8
PIPES
10
-3253.6255
20
1886.874227
30
0
11
-3253.6255
21
1892.494227
31
0
0
LINE
8
PIPES
10
-3253.6255
20
1905.474227
30
0
11
-3253.6255
21
1924.074227
31
0
0
LINE
8
PIPES
10
-3253.6255
20
1924.074227
30
0
11
-3253.6255
21
1942.674227
31
0
0
LINE
8
PIPES
10
-3253.6255
20
1942.674227
30
0
11
-3253.6255
21
1961.274227
31
0
0
LINE
8
PIPES
10
-3253.6255
20
1961.274227
30
0
11
-3253.6255
21
1971.214227
31
0
0
LINE
8
PIPES
10
-3253.6255
20
1979.874227
30
0
11
-3253.6255
21
1998.474227
31
0
0
LINE
8
PIPES
10
-3253.6255
20
1998.474227
30
0
11
-3253.6255
21
2017.074227
31
0
0
LINE
8
PIPES
10
-3253.6255
20
2017.074227
30
0
11
-3253.6255
21
2035.664227
31
0
0
LINE
8
PIPES
10
-3253.6255
20
2035.664227
30
0
11
-3253.6255
21
2049.944227
31
0
0
LINE
8
PIPES
10
-3253.6255
20
2054.264227
30
0
11
-3253.6255
21
2072.864227
31
0
0
LINE
8
PIPES
10
-3253.6255
20
2072.864227
30
0
11
-3253.6255
21
2091.464227
31
0
0
LINE
8
PIPES
10
-3253.6255
20
2091.464227
30
0
11
-3253.6255
21
2110.064227
31
0
0
LINE
8
PIPES
10
-3253.6255
20
2110.064227
30
0
11
-3253.6255
21
2128.664227
31
0
0
LINE
8
PIPES
10
-3253.6255
20
2128.664227
30
0
11
-3253.6255
21
2144.874227
31
0
0
LINE
8
PIPES
10
-3253.6255
20
2034.664227
30
0
11
-3253.6255
21
1735.044227
31
0
0
LINE
8
PIPES
10
-3253.6255
20
2056.304227
30
0
11
-3253.6255
21
1756.684227
31
0
0
LINE
8
PIPES
10
-3253.6255
20
2074.904227
30
0
11
-3253.6255
21
1775.284227
31
0
0
LINE
8
PIPES
10
-3253.6255
20
2093.504227
30
0
11
-3253.6255
21
1793.884227
31
0
0
LINE
8
PIPES
10
-3253.6255
20
2112.104227
30
0
11
-3253.6255
21
1812.484227
31
0
0
LINE
8
PIPES
10
-3253.6255
20
2130.704227
30
0
11
-3253.6255
21
1831.084227
31
0
0
LINE
8
PIPES
10
-3253.6255
20
2149.294227
30
0
11
-3253.6255
21
1849.674227
31
0
0
LINE
8
PIPES
10
-3253.6255
20
2167.894227
30
0
11
-3253.6255
21
1868.274227
31
0
0
LINE
8
PIPES
10
-3253.6255
20
2186.494227
30
0
11
-3253.6255
21
1886.874227
31
0
0
LINE
8
PIPES
10
-3253.6255
20
2205.094227
30
0
11
-3253.6255
21
1905.474227
31
0
0
LINE
8
PIPES
10
-3253.6255
20
2223.694227
30
0
11
-3253.6255
21
1924.074227
31
0
0
LINE
8
PIPES
10
-3253.6255
20
2242.294227
30
0
11
-3253.6255
21
1942.674227
31
0
0
LINE
8
PIPES
10
-3253.6255
20
2260.894227
30
0
11
-3253.6255
21
1961.274227
31
0
0
LINE
8
PIPES
10
-3253.6255
20
2279.494227
30
0
11
-3253.6255
21
1979.874227
31
0
0
LINE
8
PIPES
10
-3253.6255
20
2298.094227
30
0
11
-3253.6255
21
1998.474227
31
0
0
LINE
8
PIPES
10
-3253.6255
20
2316.694227
30
0
11
-3253.6255
21
2017.074227
31
0
0
LINE
8
PIPES
10
-3253.6255
20
2335.294227
30
0
11
-3253.6255
21
2035.664227
31
0
0
LINE
8
PIPES
10
-3253.6255
20
2353.884227
30
0
11
-3253.6255
21
2054.264227
31
0
0
LINE
8
PIPES
10
-3253.6255
20
2372.484227
30
0
11
-3253.6255
21
2072.864227
31
0
0
LINE
8
PIPES
10
-3253.6255
20
2391.084227
30
0
11
-3253.6255
21
2091.464227
31
0
0
LINE
8
PIPES
10
-3253.6255
20
2409.684227
30
0
11
-3253.6255
21
2110.064227
31
0
0
LINE
8
PIPES
10
-6733.6245
20
853.814227
30
0
11
-6733.6245
21
-271.045773
31
0
0
LINE
8
PIPES
10
-6733.6245
20
-271.045773
30
0
11
-6733.6245
21
-1571.725773
31
0
0
LINE
8
PIPES
10
-4513.6255
20
1247.434227
30
0
11
-3253.6255
21
1247.434227
31
0
0
LINE
8
PIPES
10
-6733.6245
20
-720.661773
30
0
11
-5773.6255
21
-1271.724773
31
0
0
LINE
8
PIPES
10
-5773.6255
20
-1271.724773
30
0
11
-4513.6255
21
-720.661773
31
0
0
LINE
8
PIPES
10
-4513.6255
20
-720.661773
30
0
11
-3253.6255
21
-1271.724773
31
0
0
LINE
8
PIPES
10
-3253.6255
20
-1271.724773
30
0
11
-1993.6255
21
-720.661773
31
0
0
LINE
8
PIPES
10
-1993.6255
20
-720.661773
30
0
11
-733.6255
21
-1271.724773
31
0
0
LINE
8
PIPES
10
-6733.6245
20
-1271.724773
30
0
11
-5773.6255
21
-720.661773
31
0
0
LINE
8
PIPES
10
-5773.6255
20
-720.661773
30
0
11
-4513.6255
21
-1271.724773
31
0
0
LINE
8
PIPES
10
-4513.6255
20
-1271.724773
30
0
11
-3253.6255
21
-720.661773
31
0
0
LINE
8
PIPES
10
-3253.6255
20
-720.661773
30
0
11
-1993.6255
21
-1271.724773
31
0
0
LINE
8
PIPES
10
-1993.6255
20
-1271.724773
30
0
11
-733.6255
21
-720.661773
31
0
0
LINE
8
PIPES
10
-6733.6245
20
1735.044227
30
0
11
-6733.6245
21
1813.764227
31
0
0
LINE
8
PIPES
10
-6733.6245
20
1813.764227
30
0
11
-6733.6245
21
1892.494227
31
0
0
LINE
8
PIPES
10
-6733.6245
20
1892.494227
30
0
11
-6733.6245
21
1971.214227
31
0
0
LINE
8
PIPES
10
-6733.6245
20
1971.214227
30
0
11
-6733.6245
21
2049.944227
31
0
0
LINE
8
PIPES
10
-6733.6245
20
2049.944227
30
0
11
-6733.6245
21
2128.664227
31
0
0
LINE
8
PIPES
10
-6733.6245
20
2034.664227
30
0
11
-6733.6245
21
2113.384227
31
0
0
LINE
8
PIPES
10
-6733.6245
20
2113.384227
30
0
11
-6733.6245
21
2192.114227
31
0
0
LINE
8
PIPES
10
-6733.6245
20
2192.114227
30
0
11
-6733.6245
21
2270.834227
31
0
0
LINE
8
PIPES
10
-6733.6245
20
2270.834227
30
0
11
-6733.6245
21
2349.564227
31
0
0
LINE
8
PIPES
10
-6733.6245
20
2349.564227
30
0
11
-6733.6245
21
2428.284227
31
0
0
LINE
8
PIPES
10
-733.6255
20
1735.044227
30
0
11
-733.6255
21
1813.764227
31
0
0
LINE
8
PIPES
10
-733.6255
20
1813.764227
30
0
11
-733.6255
21
1892.494227
31
0
0
LINE
8
PIPES
10
-733.6255
20
1892.494227
30
0
11
-733.6255
21
1971.214227
31
0
0
LINE
8
PIPES
10
-733.6255
20
1971.214227
30
0
11
-733.6255
21
2049.944227
31
0
0
LINE
8
PIPES
10
-733.6255
20
2049.944227
30
0
11
-733.6255
21
2128.664227
31
0
0
LINE
8
PIPES
10
-733.6255
20
2034.664227
30
0
11
-733.6255
21
2113.384227
31
0
0
LINE
8
PIPES
10
-733.6255
20
2113.384227
30
0
11
-733.6255
21
2192.114227
31
0
0
LINE
8
PIPES
10
-733.6255
20
2192.114227
30
0
11
-733.6255
21
2270.834227
31
0
0
LINE
8
PIPES
10
-733.6255
20
2270.834227
30
0
11
-733.6255
21
2349.564227
31
0
0
LINE
8
PIPES
10
-733.6255
20
2349.564227
30
0
11
-733.6255
21
2428.284227
31
0
0
LINE
8
PIPES
10
-6733.6245
20
1735.044227
30
0
11
-5773.6255
21
853.814227
31
0
0
LINE
8
PIPES
10
-5773.6255
20
853.814227
30
0
11
-6733.6245
21
-271.045773
31
0
0
LINE
8
PIPES
10
-6733.6245
20
-271.045773
30
0
11
-5773.6255
21
-1571.725773
31
0
0
LINE
8
PIPES
10
-5773.6255
20
1735.044227
30
0
11
-4513.6255
21
853.814227
31
0
0
LINE
8
PIPES
10
-4513.6255
20
853.814227
30
0
11
-5773.6255
21
-271.045773
31
0
0
LINE
8
PIPES
10
-5773.6255
20
-271.045773
30
0
11
-4513.6255
21
-1571.725773
31
0
0
LINE
8
PIPES
10
-4513.6255
20
1735.044227
30
0
11
-3253.6255
21
853.814227
31
0
0
LINE
8
PIPES
10
-3253.6255
20
853.814227
30
0
11
-4513.6255
21
-271.045773
31
0
0
LINE
8
PIPES
10
-4513.6255
20
-271.045773
30
0
11
-3253.6255
21
-1571.725773
31
0
0
LINE
8
PIPES
10
-3253.6255
20
1735.044227
30
0
11
-1993.6255
21
853.814227
31
0
0
LINE
8
PIPES
10
-1993.6255
20
853.814227
30
0
11
-3253.6255
21
-271.045773
31
0
0
LINE
8
PIPES
10
-3253.6255
20
-271.045773
30
0
11
-1993.6255
21
-1571.725773
31
0
0
LINE
8
PIPES
10
-1993.6255
20
1735.044227
30
0
11
-733.6255
21
853.814227
31
0
0
LINE
8
PIPES
10
-733.6255
20
853.814227
30
0
11
-1993.6255
21
-271.045773
31
0
0
LINE
8
PIPES
10
-1993.6255
20
-271.045773
30
0
11
-733.6255
21
-1571.725773
31
0
0
LINE
8
PIPES
10
-3253.6255
20
2144.874227
30
0
11
-4513.6255
21
1247.434227
31
0
0
LINE
8
PIPES
10
-5773.6255
20
2128.664227
30
0
11
-6733.6245
21
853.814227
31
0
0
LINE
8
PIPES
10
-6733.6245
20
853.814227
30
0
11
-5773.6255
21
-271.045773
31
0
0
LINE
8
PIPES
10
-5773.6255
20
-271.045773
30
0
11
-6733.6245
21
-1571.725773
31
0
0
LINE
8
PIPES
10
-4513.6255
20
2144.874227
30
0
11
-5773.6255
21
853.814227
31
0
0
LINE
8
PIPES
10
-5773.6255
20
853.814227
30
0
11
-4513.6255
21
-271.045773
31
0
0
LINE
8
PIPES
10
-4513.6255
20
-271.045773
30
0
11
-5773.6255
21
-1571.725773
31
0
0
LINE
8
PIPES
10
-1993.6255
20
2128.664227
30
0
11
-3253.6255
21
853.814227
31
0
0
LINE
8
PIPES
10
-3253.6255
20
853.814227
30
0
11
-1993.6255
21
-271.045773
31
0
0
LINE
8
PIPES
10
-1993.6255
20
-271.045773
30
0
11
-3253.6255
21
-1571.725773
31
0
0
LINE
8
PIPES
10
-733.6255
20
2128.664227
30
0
11
-1993.6255
21
853.814227
31
0
0
LINE
8
PIPES
10
-1993.6255
20
853.814227
30
0
11
-733.6255
21
-271.045773
31
0
0
LINE
8
PIPES
10
-1993.6255
20
-1571.725773
30
0
11
-733.6255
21
-271.045773
31
0
0
LINE
8
PIPES
10
-6733.6245
20
1735.044227
30
0
11
-6733.6245
21
2034.664227
31
0
0
LINE
8
PIPES
10
-6733.6245
20
1813.764227
30
0
11
-6733.6245
21
2113.384227
31
0
0
LINE
8
PIPES
10
-6733.6245
20
1892.494227
30
0
11
-6733.6245
21
2192.114227
31
0
0
LINE
8
PIPES
10
-6733.6245
20
1971.214227
30
0
11
-6733.6245
21
2270.834227
31
0
0
LINE
8
PIPES
10
-6733.6245
20
2049.944227
30
0
11
-6733.6245
21
2349.564227
31
0
0
LINE
8
PIPES
10
-6733.6245
20
2128.664227
30
0
11
-6733.6245
21
2428.284227
31
0
0
LINE
8
PIPES
10
-733.6255
20
1735.044227
30
0
11
-733.6255
21
2034.664227
31
0
0
LINE
8
PIPES
10
-733.6255
20
1813.764227
30
0
11
-733.6255
21
2113.384227
31
0
0
LINE
8
PIPES
10
-733.6255
20
1892.494227
30
0
11
-733.6255
21
2192.114227
31
0
0
LINE
8
PIPES
10
-733.6255
20
1971.214227
30
0
11
-733.6255
21
2270.834227
31
0
0
LINE
8
PIPES
10
-733.6255
20
2049.944227
30
0
11
-733.6255
21
2349.564227
31
0
0
LINE
8
PIPES
10
-733.6255
20
2128.664227
30
0
11
-733.6255
21
2428.284227
31
0
0
LINE
8
PIPES
10
-5773.6255
20
1735.044227
30
0
11
-5773.6255
21
2034.664227
31
0
0
LINE
8
PIPES
10
-5773.6255
20
2128.664227
30
0
11
-5773.6255
21
2428.284227
31
0
0
LINE
8
PIPES
10
-1993.6255
20
1735.044227
30
0
11
-1993.6255
21
2034.664227
31
0
0
LINE
8
PIPES
10
-1993.6255
20
2128.664227
30
0
11
-1993.6255
21
2428.284227
31
0
0
LINE
8
PIPES
10
-6733.6245
20
2113.384227
30
0
11
-5773.6255
21
2113.384227
31
0
0
LINE
8
PIPES
10
-6733.6245
20
1813.764227
30
0
11
-5773.6255
21
1813.764227
31
0
0
LINE
8
PIPES
10
-6733.6245
20
2192.114227
30
0
11
-5773.6255
21
2192.114227
31
0
0
LINE
8
PIPES
10
-6733.6245
20
1892.494227
30
0
11
-5773.6255
21
1892.494227
31
0
0
LINE
8
PIPES
10
-6733.6245
20
2270.834227
30
0
11
-5773.6255
21
2270.834227
31
0
0
LINE
8
PIPES
10
-6733.6245
20
1971.214227
30
0
11
-5773.6255
21
1971.214227
31
0
0
LINE
8
PIPES
10
-6733.6245
20
2349.564227
30
0
11
-5773.6255
21
2349.564227
31
0
0
LINE
8
PIPES
10
-6733.6245
20
2049.944227
30
0
11
-5773.6255
21
2049.944227
31
0
0
LINE
8
PIPES
10
-5773.6255
20
1813.764227
30
0
11
-5773.6255
21
2113.384227
31
0
0
LINE
8
PIPES
10
-5773.6255
20
1892.494227
30
0
11
-5773.6255
21
2192.114227
31
0
0
LINE
8
PIPES
10
-5773.6255
20
1971.214227
30
0
11
-5773.6255
21
2270.834227
31
0
0
LINE
8
PIPES
10
-5773.6255
20
2049.944227
30
0
11
-5773.6255
21
2349.564227
31
0
0
LINE
8
PIPES
10
-4513.6255
20
2113.384227
30
0
11
-4513.6255
21
2130.704227
31
0
0
LINE
8
PIPES
10
-5773.6255
20
2113.384227
30
0
11
-4513.6255
21
2113.384227
31
0
0
LINE
8
PIPES
10
-4513.6255
20
1813.764227
30
0
11
-4513.6255
21
1831.084227
31
0
0
LINE
8
PIPES
10
-5773.6255
20
1813.764227
30
0
11
-4513.6255
21
1813.764227
31
0
0
LINE
8
PIPES
10
-4513.6255
20
2192.114227
30
0
11
-4513.6255
21
2205.094227
31
0
0
LINE
8
PIPES
10
-5773.6255
20
2192.114227
30
0
11
-4513.6255
21
2192.114227
31
0
0
LINE
8
PIPES
10
-4513.6255
20
1892.494227
30
0
11
-4513.6255
21
1905.474227
31
0
0
LINE
8
PIPES
10
-5773.6255
20
1892.494227
30
0
11
-4513.6255
21
1892.494227
31
0
0
LINE
8
PIPES
10
-4513.6255
20
2270.834227
30
0
11
-4513.6255
21
2279.494227
31
0
0
LINE
8
PIPES
10
-5773.6255
20
2270.834227
30
0
11
-4513.6255
21
2270.834227
31
0
0
LINE
8
PIPES
10
-4513.6255
20
1971.214227
30
0
11
-4513.6255
21
1979.874227
31
0
0
LINE
8
PIPES
10
-5773.6255
20
1971.214227
30
0
11
-4513.6255
21
1971.214227
31
0
0
LINE
8
PIPES
10
-4513.6255
20
2349.564227
30
0
11
-4513.6255
21
2353.884227
31
0
0
LINE
8
PIPES
10
-5773.6255
20
2349.564227
30
0
11
-4513.6255
21
2349.564227
31
0
0
LINE
8
PIPES
10
-4513.6255
20
2049.944227
30
0
11
-4513.6255
21
2054.264227
31
0
0
LINE
8
PIPES
10
-5773.6255
20
2049.944227
30
0
11
-4513.6255
21
2049.944227
31
0
0
LINE
8
PIPES
10
-4513.6255
20
1813.764227
30
0
11
-4513.6255
21
2113.384227
31
0
0
LINE
8
PIPES
10
-4513.6255
20
1892.494227
30
0
11
-4513.6255
21
2192.114227
31
0
0
LINE
8
PIPES
10
-4513.6255
20
1971.214227
30
0
11
-4513.6255
21
2270.834227
31
0
0
LINE
8
PIPES
10
-4513.6255
20
2049.944227
30
0
11
-4513.6255
21
2349.564227
31
0
0
LINE
8
PIPES
10
-3253.6255
20
2113.384227
30
0
11
-3253.6255
21
2130.704227
31
0
0
LINE
8
PIPES
10
-4513.6255
20
2113.384227
30
0
11
-3253.6255
21
2113.384227
31
0
0
LINE
8
PIPES
10
-3253.6255
20
1813.764227
30
0
11
-3253.6255
21
1831.084227
31
0
0
LINE
8
PIPES
10
-4513.6255
20
1813.764227
30
0
11
-3253.6255
21
1813.764227
31
0
0
LINE
8
PIPES
10
-3253.6255
20
2192.114227
30
0
11
-3253.6255
21
2205.094227
31
0
0
LINE
8
PIPES
10
-4513.6255
20
2192.114227
30
0
11
-3253.6255
21
2192.114227
31
0
0
LINE
8
PIPES
10
-3253.6255
20
1892.494227
30
0
11
-3253.6255
21
1905.474227
31
0
0
LINE
8
PIPES
10
-4513.6255
20
1892.494227
30
0
11
-3253.6255
21
1892.494227
31
0
0
LINE
8
PIPES
10
-3253.6255
20
2270.834227
30
0
11
-3253.6255
21
2279.494227
31
0
0
LINE
8
PIPES
10
-4513.6255
20
2270.834227
30
0
11
-3253.6255
21
2270.834227
31
0
0
LINE
8
PIPES
10
-3253.6255
20
1971.214227
30
0
11
-3253.6255
21
1979.874227
31
0
0
LINE
8
PIPES
10
-4513.6255
20
1971.214227
30
0
11
-3253.6255
21
1971.214227
31
0
0
LINE
8
PIPES
10
-3253.6255
20
2349.564227
30
0
11
-3253.6255
21
2353.884227
31
0
0
LINE
8
PIPES
10
-4513.6255
20
2349.564227
30
0
11
-3253.6255
21
2349.564227
31
0
0
LINE
8
PIPES
10
-3253.6255
20
2049.944227
30
0
11
-3253.6255
21
2054.264227
31
0
0
LINE
8
PIPES
10
-4513.6255
20
2049.944227
30
0
11
-3253.6255
21
2049.944227
31
0
0
LINE
8
PIPES
10
-3253.6255
20
1813.764227
30
0
11
-3253.6255
21
2113.384227
31
0
0
LINE
8
PIPES
10
-3253.6255
20
1892.494227
30
0
11
-3253.6255
21
2192.114227
31
0
0
LINE
8
PIPES
10
-3253.6255
20
1971.214227
30
0
11
-3253.6255
21
2270.834227
31
0
0
LINE
8
PIPES
10
-3253.6255
20
2049.944227
30
0
11
-3253.6255
21
2349.564227
31
0
0
LINE
8
PIPES
10
-3253.6255
20
2113.384227
30
0
11
-1993.6155
21
2113.384227
31
0
0
LINE
8
PIPES
10
-3253.6255
20
1813.764227
30
0
11
-1993.6155
21
1813.764227
31
0
0
LINE
8
PIPES
10
-3253.6255
20
2192.114227
30
0
11
-1993.6155
21
2192.114227
31
0
0
LINE
8
PIPES
10
-3253.6255
20
1892.494227
30
0
11
-1993.6155
21
1892.494227
31
0
0
LINE
8
PIPES
10
-3253.6255
20
2270.834227
30
0
11
-1993.6155
21
2270.834227
31
0
0
LINE
8
PIPES
10
-3253.6255
20
1971.214227
30
0
11
-1993.6155
21
1971.214227
31
0
0
LINE
8
PIPES
10
-3253.6255
20
2349.564227
30
0
11
-1993.6155
21
2349.564227
31
0
0
LINE
8
PIPES
10
-3253.6255
20
2049.944227
30
0
11
-1993.6155
21
2049.944227
31
0
0
LINE
8
PIPES
10
-1993.6155
20
1813.764227
30
0
11
-1993.6155
21
2113.384227
31
0
0
LINE
8
PIPES
10
-1993.6155
20
1892.494227
30
0
11
-1993.6155
21
2192.114227
31
0
0
LINE
8
PIPES
10
-1993.6155
20
1971.214227
30
0
11
-1993.6155
21
2270.834227
31
0
0
LINE
8
PIPES
10
-1993.6155
20
2049.944227
30
0
11
-1993.6155
21
2349.564227
31
0
0
LINE
8
PIPES
10
-1993.6155
20
2113.384227
30
0
11
-733.6255
21
2113.384227
31
0
0
LINE
8
PIPES
10
-1993.6155
20
1813.764227
30
0
11
-733.6255
21
1813.764227
31
0
0
LINE
8
PIPES
10
-1993.6155
20
2192.114227
30
0
11
-733.6255
21
2192.114227
31
0
0
LINE
8
PIPES
10
-1993.6155
20
1892.494227
30
0
11
-733.6255
21
1892.494227
31
0
0
LINE
8
PIPES
10
-1993.6155
20
2270.834227
30
0
11
-733.6255
21
2270.834227
31
0
0
LINE
8
PIPES
10
-1993.6155
20
1971.214227
30
0
11
-733.6255
21
1971.214227
31
0
0
LINE
8
PIPES
10
-1993.6155
20
2349.564227
30
0
11
-733.6255
21
2349.564227
31
0
0
LINE
8
PIPES
10
-1993.6155
20
2049.944227
30
0
11
-733.6255
21
2049.944227
31
0
0
LINE
8
PIPES
10
-5773.6255
20
2034.664227
30
0
11
-5773.6255
21
2113.384227
31
0
0
LINE
8
PIPES
10
-5773.6255
20
2113.384227
30
0
11
-5773.6255
21
2192.114227
31
0
0
LINE
8
PIPES
10
-5773.6255
20
2270.834227
30
0
11
-5773.6255
21
2192.114227
31
0
0
LINE
8
PIPES
10
-5773.6255
20
2270.834227
30
0
11
-5773.6255
21
2349.564227
31
0
0
LINE
8
PIPES
10
-5773.6255
20
2349.564227
30
0
11
-5773.6255
21
2428.284227
31
0
0
LINE
8
PIPES
10
-5773.6255
20
1735.044227
30
0
11
-5773.6255
21
1813.764227
31
0
0
LINE
8
PIPES
10
-5773.6255
20
1813.764227
30
0
11
-5773.6255
21
1892.494227
31
0
0
LINE
8
PIPES
10
-5773.6255
20
1892.494227
30
0
11
-5773.6255
21
1971.214227
31
0
0
LINE
8
PIPES
10
-5773.6255
20
1971.214227
30
0
11
-5773.6255
21
2049.944227
31
0
0
LINE
8
PIPES
10
-5773.6255
20
2049.944227
30
0
11
-5773.6255
21
2128.664227
31
0
0
LINE
8
PIPES
10
-1993.6255
20
1735.044227
30
0
11
-1993.6155
21
1813.764227
31
0
0
LINE
8
PIPES
10
-1993.6155
20
1813.764227
30
0
11
-1993.6155
21
1892.494227
31
0
0
LINE
8
PIPES
10
-1993.6155
20
1892.494227
30
0
11
-1993.6155
21
1971.214227
31
0
0
LINE
8
PIPES
10
-1993.6155
20
1971.214227
30
0
11
-1993.6155
21
2049.944227
31
0
0
LINE
8
PIPES
10
-1993.6155
20
2049.944227
30
0
11
-1993.6255
21
2128.664227
31
0
0
LINE
8
PIPES
10
-1993.6255
20
2034.664227
30
0
11
-1993.6155
21
2113.384227
31
0
0
LINE
8
PIPES
10
-1993.6155
20
2113.384227
30
0
11
-1993.6155
21
2192.114227
31
0
0
LINE
8
PIPES
10
-1993.6155
20
2192.114227
30
0
11
-1993.6155
21
2270.834227
31
0
0
LINE
8
PIPES
10
-1993.6155
20
2270.834227
30
0
11
-1993.6155
21
2349.564227
31
0
0
LINE
8
PIPES
10
-1993.6155
20
2349.564227
30
0
11
-1993.6255
21
2428.284227
31
0
0
LINE
8
PIPES
10
-6733.6245
20
2034.664227
30
0
11
-5773.6255
21
1735.044227
31
0
0
LINE
8
PIPES
10
-5773.6255
20
1735.044227
30
0
11
-4513.6255
21
2034.664227
31
0
0
LINE
8
PIPES
10
-4513.6255
20
2034.664227
30
0
11
-3253.6255
21
1735.044227
31
0
0
LINE
8
PIPES
10
-1993.6255
20
2034.664227
30
0
11
-3253.6255
21
1735.044227
31
0
0
LINE
8
PIPES
10
-1993.6255
20
2034.664227
30
0
11
-733.6255
21
1735.044227
31
0
0
LINE
8
PIPES
10
-6733.6245
20
1813.764227
30
0
11
-5773.6255
21
2113.384227
31
0
0
LINE
8
PIPES
10
-733.6255
20
2113.384227
30
0
11
-1993.6155
21
1813.764227
31
0
0
LINE
8
PIPES
10
-6733.6245
20
2192.114227
30
0
11
-5773.6255
21
1892.494227
31
0
0
LINE
8
PIPES
10
-5773.6255
20
1892.494227
30
0
11
-4513.6255
21
2192.114227
31
0
0
LINE
8
PIPES
10
-4513.6255
20
2192.114227
30
0
11
-3253.6255
21
1892.494227
31
0
0
LINE
8
PIPES
10
-3253.6255
20
1892.494227
30
0
11
-1993.6155
21
2192.114227
31
0
0
LINE
8
PIPES
10
-1993.6155
20
2192.114227
30
0
11
-733.6255
21
1892.494227
31
0
0
LINE
8
PIPES
10
-6733.6245
20
1971.214227
30
0
11
-5773.6255
21
2270.834227
31
0
0
LINE
8
PIPES
10
-5773.6255
20
2270.834227
30
0
11
-4513.6255
21
1971.214227
31
0
0
LINE
8
PIPES
10
-4513.6255
20
1971.214227
30
0
11
-3253.6255
21
2270.834227
31
0
0
LINE
8
PIPES
10
-3253.6255
20
2270.834227
30
0
11
-1993.6155
21
1971.214227
31
0
0
LINE
8
PIPES
10
-733.6255
20
2270.834227
30
0
11
-1993.6155
21
1971.214227
31
0
0
LINE
8
PIPES
10
-6733.6245
20
2349.564227
30
0
11
-5773.6255
21
2049.944227
31
0
0
LINE
8
PIPES
10
-5773.6255
20
2049.944227
30
0
11
-4513.6255
21
2349.564227
31
0
0
LINE
8
PIPES
10
-4513.6255
20
2349.564227
30
0
11
-3253.6255
21
2049.944227
31
0
0
LINE
8
PIPES
10
-3253.6255
20
2049.944227
30
0
11
-1993.6155
21
2349.564227
31
0
0
LINE
8
PIPES
10
-1993.6155
20
2349.564227
30
0
11
-733.6255
21
2049.944227
31
0
0
LINE
8
PIPES
10
-6733.6245
20
2128.664227
30
0
11
-5773.6255
21
2428.284227
31
0
0
LINE
8
PIPES
10
-5773.6255
20
2428.284227
30
0
11
-4513.6255
21
2144.874227
31
0
0
LINE
8
PIPES
10
-4513.6255
20
2128.664227
30
0
11
-3253.6255
21
2428.284227
31
0
0
LINE
8
PIPES
10
-3253.6255
20
2428.284227
30
0
11
-1993.6255
21
2128.664227
31
0
0
LINE
8
PIPES
10
-1993.6255
20
2128.664227
30
0
11
-733.6255
21
2428.284227
31
0
0
LINE
8
PIPES
10
-6733.6245
20
2034.664227
30
0
11
-6733.6245
21
1813.764227
31
0
0
LINE
8
PIPES
10
-6733.6245
20
1813.764227
30
0
11
-6733.6245
21
2192.114227
31
0
0
LINE
8
PIPES
10
-6733.6245
20
2192.114227
30
0
11
-6733.6245
21
1971.214227
31
0
0
LINE
8
PIPES
10
-6733.6245
20
1971.214227
30
0
11
-6733.6245
21
2349.564227
31
0
0
LINE
8
PIPES
10
-6733.6245
20
2349.564227
30
0
11
-6733.6245
21
2128.664227
31
0
0
LINE
8
PIPES
10
-5773.6255
20
1735.044227
30
0
11
-5773.6255
21
2113.384227
31
0
0
LINE
8
PIPES
10
-5773.6255
20
2113.384227
30
0
11
-5773.6255
21
1892.494227
31
0
0
LINE
8
PIPES
10
-5773.6255
20
1892.494227
30
0
11
-5773.6255
21
2270.834227
31
0
0
LINE
8
PIPES
10
-5773.6255
20
2270.834227
30
0
11
-5773.6255
21
2049.944227
31
0
0
LINE
8
PIPES
10
-5773.6255
20
2049.944227
30
0
11
-5773.6255
21
2428.284227
31
0
0
LINE
8
PIPES
10
-1993.6255
20
2034.664227
30
0
11
-1993.6155
21
1813.764227
31
0
0
LINE
8
PIPES
10
-1993.6155
20
1813.764227
30
0
11
-1993.6155
21
2192.114227
31
0
0
LINE
8
PIPES
10
-1993.6155
20
2192.114227
30
0
11
-1993.6155
21
1971.214227
31
0
0
LINE
8
PIPES
10
-1993.6155
20
1971.214227
30
0
11
-1993.6155
21
2349.564227
31
0
0
LINE
8
PIPES
10
-1993.6155
20
2349.564227
30
0
11
-1993.6255
21
2128.664227
31
0
0
LINE
8
PIPES
10
-733.6255
20
1735.044227
30
0
11
-733.6255
21
2113.384227
31
0
0
LINE
8
PIPES
10
-733.6255
20
2113.384227
30
0
11
-733.6255
21
1892.494227
31
0
0
LINE
8
PIPES
10
-733.6255
20
1892.494227
30
0
11
-733.6255
21
2270.834227
31
0
0
LINE
8
PIPES
10
-733.6255
20
2270.834227
30
0
11
-733.6255
21
2049.944227
31
0
0
LINE
8
PIPES
10
-733.6255
20
2049.944227
30
0
11
-733.6255
21
2428.284227
31
0
0
LINE
8
PIPES
10
-5773.6255
20
2113.384227
30
0
11
-4513.6255
21
1813.764227
31
0
0
LINE
8
PIPES
10
-4513.6255
20
1813.764227
30
0
11
-3253.6255
21
2113.384227
31
0
0
LINE
8
PIPES
10
-3253.6255
20
2113.384227
30
0
11
-1993.6155
21
1813.764227
31
0
0
LINE
8
PIPES
10
-6733.6245
20
2034.664227
30
0
11
-5773.6255
21
2113.384227
31
0
0
LINE
8
PIPES
10
-5773.6255
20
2113.384227
30
0
11
-6733.6245
21
2192.114227
31
0
0
LINE
8
PIPES
10
-6733.6245
20
2192.114227
30
0
11
-5773.6255
21
2270.834227
31
0
0
LINE
8
PIPES
10
-5773.6255
20
2270.834227
30
0
11
-6733.6245
21
2349.564227
31
0
0
LINE
8
PIPES
10
-6733.6245
20
2349.564227
30
0
11
-5773.6255
21
2428.284227
31
0
0
LINE
8
PIPES
10
-5773.6255
20
2034.664227
30
0
11
-4513.6255
21
2113.384227
31
0
0
LINE
8
PIPES
10
-4513.6255
20
2113.384227
30
0
11
-5773.6255
21
2192.114227
31
0
0
LINE
8
PIPES
10
-4513.6255
20
2034.664227
30
0
11
-3253.6255
21
2113.384227
31
0
0
LINE
8
PIPES
10
-5773.6255
20
2192.114227
30
0
11
-4513.6255
21
2270.834227
31
0
0
LINE
8
PIPES
10
-4513.6255
20
2270.834227
30
0
11
-5773.6255
21
2349.564227
31
0
0
LINE
8
PIPES
10
-5773.6255
20
2349.564227
30
0
11
-4513.6255
21
2428.284227
31
0
0
LINE
8
PIPES
10
-3253.6255
20
2113.384227
30
0
11
-4513.6255
21
2192.114227
31
0
0
LINE
8
PIPES
10
-4513.6255
20
2192.114227
30
0
11
-3253.6255
21
2270.834227
31
0
0
LINE
8
PIPES
10
-3253.6255
20
2270.834227
30
0
11
-4513.6255
21
2349.564227
31
0
0
LINE
8
PIPES
10
-4513.6255
20
2349.564227
30
0
11
-3253.6255
21
2428.284227
31
0
0
LINE
8
PIPES
10
-3253.6255
20
2034.664227
30
0
11
-1993.6155
21
2113.384227
31
0
0
LINE
8
PIPES
10
-1993.6155
20
2113.384227
30
0
11
-3253.6255
21
2192.114227
31
0
0
LINE
8
PIPES
10
-3253.6255
20
2192.114227
30
0
11
-1993.6155
21
2270.834227
31
0
0
LINE
8
PIPES
10
-1993.6155
20
2270.834227
30
0
11
-3253.6255
21
2349.564227
31
0
0
LINE
8
PIPES
10
-3253.6255
20
2349.564227
30
0
11
-1993.6255
21
2428.284227
31
0
0
LINE
8
PIPES
10
-1993.6255
20
2034.664227
30
0
11
-733.6255
21
2113.384227
31
0
0
LINE
8
PIPES
10
-733.6255
20
2113.384227
30
0
11
-1993.6155
21
2192.114227
31
0
0
LINE
8
PIPES
10
-1993.6155
20
2192.114227
30
0
11
-733.6255
21
2270.834227
31
0
0
LINE
8
PIPES
10
-733.6255
20
2270.834227
30
0
11
-1993.6155
21
2349.564227
31
0
0
LINE
8
PIPES
10
-1993.6155
20
2349.564227
30
0
11
-733.6255
21
2428.284227
31
0
0
LINE
8
PIPES
10
-5773.6255
20
1735.044227
30
0
11
-6733.6245
21
1813.764227
31
0
0
LINE
8
PIPES
10
-6733.6245
20
1813.764227
30
0
11
-5773.6255
21
1892.494227
31
0
0
LINE
8
PIPES
10
-5773.6255
20
1892.494227
30
0
11
-6733.6245
21
1971.214227
31
0
0
LINE
8
PIPES
10
-6733.6245
20
1971.214227
30
0
11
-5773.6255
21
2049.944227
31
0
0
LINE
8
PIPES
10
-5773.6255
20
2049.944227
30
0
11
-6733.6245
21
2128.664227
31
0
0
LINE
8
PIPES
10
-4513.6255
20
1735.044227
30
0
11
-5773.6255
21
1813.764227
31
0
0
LINE
8
PIPES
10
-5773.6255
20
1813.764227
30
0
11
-4513.6255
21
1892.494227
31
0
0
LINE
8
PIPES
10
-4513.6255
20
1892.494227
30
0
11
-5773.6255
21
1971.214227
31
0
0
LINE
8
PIPES
10
-5773.6255
20
1971.214227
30
0
11
-4513.6255
21
2049.944227
31
0
0
LINE
8
PIPES
10
-4513.6255
20
2049.944227
30
0
11
-5773.6255
21
2128.664227
31
0
0
LINE
8
PIPES
10
-3253.6255
20
1735.044227
30
0
11
-4513.6255
21
1813.764227
31
0
0
LINE
8
PIPES
10
-4513.6255
20
1813.764227
30
0
11
-3253.6255
21
1892.494227
31
0
0
LINE
8
PIPES
10
-3253.6255
20
1892.494227
30
0
11
-4513.6255
21
1971.214227
31
0
0
LINE
8
PIPES
10
-4513.6255
20
1971.214227
30
0
11
-3253.6255
21
2049.944227
31
0
0
LINE
8
PIPES
10
-3253.6255
20
2049.944227
30
0
11
-4513.6255
21
2128.664227
31
0
0
LINE
8
PIPES
10
-1993.6255
20
1735.044227
30
0
11
-3253.6255
21
1813.764227
31
0
0
LINE
8
PIPES
10
-3253.6255
20
1813.764227
30
0
11
-1993.6155
21
1892.494227
31
0
0
LINE
8
PIPES
10
-1993.6155
20
1892.494227
30
0
11
-3253.6255
21
1971.214227
31
0
0
LINE
8
PIPES
10
-3253.6255
20
1971.214227
30
0
11
-1993.6155
21
2049.944227
31
0
0
LINE
8
PIPES
10
-1993.6155
20
2049.944227
30
0
11
-3253.6255
21
2128.664227
31
0
0
LINE
8
PIPES
10
-733.6255
20
1735.044227
30
0
11
-1993.6155
21
1813.764227
31
0
0
LINE
8
PIPES
10
-1993.6155
20
1813.764227
30
0
11
-733.6255
21
1892.494227
31
0
0
LINE
8
PIPES
10
-733.6255
20
1892.494227
30
0
11
-1993.6155
21
1971.214227
31
0
0
LINE
8
PIPES
10
-1993.6155
20
1971.214227
30
0
11
-733.6255
21
2049.944227
31
0
0
LINE
8
PIPES
10
-733.6255
20
2049.944227
30
0
11
-1993.6255
21
2128.664227
31
0
0
LINE
8
PIPES
10
5266.3745
20
-1571.725773
30
0
11
5266.3745
21
-1271.724773
31
0
0
LINE
8
PIPES
10
5266.3745
20
-1271.724773
30
0
11
5266.3745
21
-720.661773
31
0
0
LINE
8
PIPES
10
5266.3745
20
-720.661773
30
0
11
5266.3745
21
-271.045773
31
0
0
LINE
8
PIPES
10
5266.3745
20
-271.045773
30
0
11
5266.3745
21
263.384227
31
0
0
LINE
8
PIPES
10
5266.3745
20
263.384227
30
0
11
5266.3745
21
853.814227
31
0
0
LINE
8
PIPES
10
5266.3745
20
853.814227
30
0
11
5266.3745
21
1735.044227
31
0
0
LINE
8
PIPES
10
5266.3745
20
1813.764227
30
0
11
5266.3745
21
853.814227
31
0
0
LINE
8
PIPES
10
5266.3745
20
1892.494227
30
0
11
5266.3745
21
853.814227
31
0
0
LINE
8
PIPES
10
5266.3745
20
1971.214227
30
0
11
5266.3745
21
853.814227
31
0
0
LINE
8
PIPES
10
5266.3745
20
2049.944227
30
0
11
5266.3745
21
853.814227
31
0
0
LINE
8
PIPES
10
5266.3745
20
2128.664227
30
0
11
5266.3745
21
853.814227
31
0
0
LINE
8
PIPES
10
526.3845
20
-1571.725773
30
0
11
526.3845
21
-1271.724773
31
0
0
LINE
8
PIPES
10
526.3845
20
-1271.724773
30
0
11
526.3845
21
-720.661773
31
0
0
LINE
8
PIPES
10
526.3845
20
-720.661773
30
0
11
526.3845
21
-271.045773
31
0
0
LINE
8
PIPES
10
526.3845
20
-271.045773
30
0
11
526.3845
21
263.384227
31
0
0
LINE
8
PIPES
10
526.3845
20
263.384227
30
0
11
526.3845
21
853.814227
31
0
0
LINE
8
PIPES
10
526.3845
20
853.814227
30
0
11
526.3845
21
1735.044227
31
0
0
LINE
8
PIPES
10
526.3845
20
853.814227
30
0
11
526.3845
21
2128.664227
31
0
0
LINE
8
PIPES
10
4306.3745
20
-1571.725773
30
0
11
4306.3745
21
-1271.724773
31
0
0
LINE
8
PIPES
10
4306.3745
20
-720.661773
30
0
11
4306.3745
21
-1271.724773
31
0
0
LINE
8
PIPES
10
4306.3745
20
-720.661773
30
0
11
4306.3745
21
-271.045773
31
0
0
LINE
8
PIPES
10
4306.3745
20
-271.045773
30
0
11
4306.3745
21
263.384227
31
0
0
LINE
8
PIPES
10
4306.3745
20
263.384227
30
0
11
4306.3745
21
853.814227
31
0
0
LINE
8
PIPES
10
4306.3745
20
853.814227
30
0
11
4306.3745
21
1735.044227
31
0
0
LINE
8
PIPES
10
4306.3745
20
853.814227
30
0
11
4306.3745
21
2128.664227
31
0
0
LINE
8
PIPES
10
1786.3845
20
-1571.725773
30
0
11
1786.3845
21
-1271.724773
31
0
0
LINE
8
PIPES
10
1786.3845
20
-720.661773
30
0
11
1786.3845
21
-1271.724773
31
0
0
LINE
8
PIPES
10
1786.3845
20
-720.661773
30
0
11
1786.3845
21
-271.045773
31
0
0
LINE
8
PIPES
10
1786.3845
20
-271.045773
30
0
11
1786.3845
21
263.384227
31
0
0
LINE
8
PIPES
10
1786.3845
20
263.384227
30
0
11
1786.3845
21
853.814227
31
0
0
LINE
8
PIPES
10
1786.3845
20
853.814227
30
0
11
1786.3845
21
1735.044227
31
0
0
LINE
8
PIPES
10
1786.3845
20
853.814227
30
0
11
1786.3845
21
1247.434227
31
0
0
LINE
8
PIPES
10
1786.3845
20
1247.434227
30
0
11
1786.3845
21
2128.664227
31
0
0
LINE
8
PIPES
10
1786.3845
20
2144.874227
30
0
11
1786.3845
21
2428.284227
31
0
0
LINE
8
PIPES
10
3046.3745
20
-1571.725773
30
0
11
3046.3745
21
-1271.724773
31
0
0
LINE
8
PIPES
10
3046.3745
20
-1271.724773
30
0
11
3046.3745
21
-720.661773
31
0
0
LINE
8
PIPES
10
3046.3745
20
-720.661773
30
0
11
3046.3745
21
-271.045773
31
0
0
LINE
8
PIPES
10
3046.3745
20
-271.045773
30
0
11
3046.3745
21
263.384227
31
0
0
LINE
8
PIPES
10
3046.3745
20
263.384227
30
0
11
3046.3745
21
853.814227
31
0
0
LINE
8
PIPES
10
3046.3745
20
853.814227
30
0
11
3046.3745
21
1735.044227
31
0
0
LINE
8
PIPES
10
3046.3745
20
853.814227
30
0
11
3046.3745
21
1247.434227
31
0
0
LINE
8
PIPES
10
3046.3745
20
1247.434227
30
0
11
3046.3745
21
2128.664227
31
0
0
LINE
8
PIPES
10
3046.3745
20
2144.874227
30
0
11
3046.3745
21
2428.284227
31
0
0
LINE
8
PIPES
10
4766.3745
20
-720.661773
30
0
11
4766.3745
21
-271.045773
31
0
0
LINE
8
PIPES
10
-733.6255
20
-1271.724773
30
0
11
526.3845
21
-1271.724773
31
0
0
LINE
8
PIPES
10
526.3845
20
-1271.724773
30
0
11
1786.3845
21
-1271.724773
31
0
0
LINE
8
PIPES
10
1786.3845
20
-1271.724773
30
0
11
3046.3745
21
-1271.724773
31
0
0
LINE
8
PIPES
10
3046.3745
20
-1271.724773
30
0
11
4306.3745
21
-1271.724773
31
0
0
LINE
8
PIPES
10
4306.3745
20
-1271.724773
30
0
11
5266.3745
21
-1271.724773
31
0
0
LINE
8
PIPES
10
526.3845
20
-720.661773
30
0
11
1786.3845
21
-720.661773
31
0
0
LINE
8
PIPES
10
1786.3845
20
-720.661773
30
0
11
3046.3745
21
-720.661773
31
0
0
LINE
8
PIPES
10
3046.3745
20
-720.661773
30
0
11
4306.3745
21
-720.661773
31
0
0
LINE
8
PIPES
10
4306.3745
20
-720.661773
30
0
11
4766.3745
21
-720.661773
31
0
0
LINE
8
PIPES
10
4766.3745
20
-720.661773
30
0
11
5266.3745
21
-720.661773
31
0
0
LINE
8
PIPES
10
1786.3845
20
-271.045773
30
0
11
526.3845
21
-271.045773
31
0
0
LINE
8
PIPES
10
1786.3845
20
-271.045773
30
0
11
3046.3745
21
-271.045773
31
0
0
LINE
8
PIPES
10
4306.3745
20
-271.045773
30
0
11
3046.3745
21
-271.045773
31
0
0
LINE
8
PIPES
10
4766.3745
20
-271.045773
30
0
11
4306.3745
21
-271.045773
31
0
0
LINE
8
PIPES
10
526.3845
20
-271.045773
30
0
11
-733.6255
21
-271.045773
31
0
0
LINE
8
PIPES
10
4766.3745
20
-271.045773
30
0
11
5266.3745
21
-271.045773
31
0
0
LINE
8
PIPES
10
-733.6255
20
263.384227
30
0
11
526.3845
21
263.384227
31
0
0
LINE
8
PIPES
10
526.3845
20
263.384227
30
0
11
1786.3845
21
263.384227
31
0
0
LINE
8
PIPES
10
1786.3845
20
263.384227
30
0
11
3046.3745
21
263.384227
31
0
0
LINE
8
PIPES
10
3046.3745
20
263.384227
30
0
11
4306.3745
21
263.384227
31
0
0
LINE
8
PIPES
10
4306.3745
20
263.384227
30
0
11
5266.3745
21
263.384227
31
0
0
LINE
8
PIPES
10
-733.6255
20
853.814227
30
0
11
526.3845
21
853.814227
31
0
0
LINE
8
PIPES
10
526.3845
20
853.814227
30
0
11
1786.3845
21
853.814227
31
0
0
LINE
8
PIPES
10
1786.3845
20
853.814227
30
0
11
3046.3745
21
853.814227
31
0
0
LINE
8
PIPES
10
3046.3745
20
853.814227
30
0
11
4306.3745
21
853.814227
31
0
0
LINE
8
PIPES
10
4306.3745
20
853.814227
30
0
11
5266.3745
21
853.814227
31
0
0
LINE
8
PIPES
10
-733.6255
20
2034.664227
30
0
11
526.3845
21
2034.664227
31
0
0
LINE
8
PIPES
10
-733.6255
20
1735.044227
30
0
11
526.3845
21
1735.044227
31
0
0
LINE
8
PIPES
10
526.3845
20
2034.664227
30
0
11
1786.3845
21
2034.664227
31
0
0
LINE
8
PIPES
10
526.3845
20
1735.044227
30
0
11
1786.3845
21
1735.044227
31
0
0
LINE
8
PIPES
10
1786.3845
20
2034.664227
30
0
11
3046.3745
21
2034.664227
31
0
0
LINE
8
PIPES
10
1786.3845
20
1735.044227
30
0
11
3046.3745
21
1735.044227
31
0
0
LINE
8
PIPES
10
3046.3745
20
2034.664227
30
0
11
4306.3745
21
2034.664227
31
0
0
LINE
8
PIPES
10
3046.3745
20
1735.044227
30
0
11
4306.3745
21
1735.044227
31
0
0
LINE
8
PIPES
10
4306.3745
20
2034.664227
30
0
11
5266.3745
21
2034.664227
31
0
0
LINE
8
PIPES
10
4306.3745
20
1735.044227
30
0
11
5266.3745
21
1735.044227
31
0
0
LINE
8
PIPES
10
-733.6255
20
2428.284227
30
0
11
526.3845
21
2428.284227
31
0
0
LINE
8
PIPES
10
-733.6255
20
2128.664227
30
0
11
526.3845
21
2128.664227
31
0
0
LINE
8
PIPES
10
526.3845
20
2428.284227
30
0
11
1786.3845
21
2428.284227
31
0
0
LINE
8
PIPES
10
526.3845
20
2128.664227
30
0
11
1786.3845
21
2128.664227
31
0
0
LINE
8
PIPES
10
1786.3845
20
2428.284227
30
0
11
3046.3745
21
2428.284227
31
0
0
LINE
8
PIPES
10
1786.3845
20
2128.664227
30
0
11
3046.3745
21
2128.664227
31
0
0
LINE
8
PIPES
10
3046.3745
20
2428.284227
30
0
11
4306.3745
21
2428.284227
31
0
0
LINE
8
PIPES
10
3046.3745
20
2128.664227
30
0
11
4306.3745
21
2128.664227
31
0
0
LINE
8
PIPES
10
4306.3745
20
2428.284227
30
0
11
5266.3745
21
2428.284227
31
0
0
LINE
8
PIPES
10
4306.3745
20
2128.664227
30
0
11
5266.3745
21
2128.664227
31
0
0
LINE
8
PIPES
10
1786.3845
20
2034.664227
30
0
11
1786.3845
21
2056.304227
31
0
0
LINE
8
PIPES
10
1786.3845
20
2056.304227
30
0
11
1786.3845
21
2074.904227
31
0
0
LINE
8
PIPES
10
1786.3845
20
2074.904227
30
0
11
1786.3845
21
2093.504227
31
0
0
LINE
8
PIPES
10
1786.3845
20
2093.504227
30
0
11
1786.3845
21
2112.104227
31
0
0
LINE
8
PIPES
10
1786.3845
20
2112.104227
30
0
11
1786.3845
21
2113.384227
31
0
0
LINE
8
PIPES
10
1786.3845
20
2130.704227
30
0
11
1786.3845
21
2149.294227
31
0
0
LINE
8
PIPES
10
1786.3845
20
2149.294227
30
0
11
1786.3845
21
2167.894227
31
0
0
LINE
8
PIPES
10
1786.3845
20
2167.894227
30
0
11
1786.3845
21
2186.494227
31
0
0
LINE
8
PIPES
10
1786.3845
20
2186.494227
30
0
11
1786.3845
21
2192.114227
31
0
0
LINE
8
PIPES
10
1786.3845
20
2205.094227
30
0
11
1786.3845
21
2223.694227
31
0
0
LINE
8
PIPES
10
1786.3845
20
2223.694227
30
0
11
1786.3845
21
2242.294227
31
0
0
LINE
8
PIPES
10
1786.3845
20
2242.294227
30
0
11
1786.3845
21
2260.894227
31
0
0
LINE
8
PIPES
10
1786.3845
20
2260.894227
30
0
11
1786.3845
21
2270.834227
31
0
0
LINE
8
PIPES
10
1786.3845
20
2279.494227
30
0
11
1786.3845
21
2298.094227
31
0
0
LINE
8
PIPES
10
1786.3845
20
2298.094227
30
0
11
1786.3845
21
2316.694227
31
0
0
LINE
8
PIPES
10
1786.3845
20
2316.694227
30
0
11
1786.3845
21
2335.294227
31
0
0
LINE
8
PIPES
10
1786.3845
20
2335.294227
30
0
11
1786.3845
21
2349.564227
31
0
0
LINE
8
PIPES
10
1786.3845
20
2353.884227
30
0
11
1786.3845
21
2372.484227
31
0
0
LINE
8
PIPES
10
1786.3845
20
2372.484227
30
0
11
1786.3845
21
2391.084227
31
0
0
LINE
8
PIPES
10
1786.3845
20
2391.084227
30
0
11
1786.3845
21
2409.684227
31
0
0
LINE
8
PIPES
10
1786.3845
20
2409.684227
30
0
11
1786.3845
21
2428.284227
31
0
0
LINE
8
PIPES
10
1786.3845
20
1735.044227
30
0
11
1786.3845
21
1756.684227
31
0
0
LINE
8
PIPES
10
1786.3845
20
1756.684227
30
0
11
1786.3845
21
1775.284227
31
0
0
LINE
8
PIPES
10
1786.3845
20
1775.284227
30
0
11
1786.3845
21
1793.884227
31
0
0
LINE
8
PIPES
10
1786.3845
20
1793.884227
30
0
11
1786.3845
21
1812.484227
31
0
0
LINE
8
PIPES
10
1786.3845
20
1812.484227
30
0
11
1786.3845
21
1813.764227
31
0
0
LINE
8
PIPES
10
1786.3845
20
1831.084227
30
0
11
1786.3845
21
1849.674227
31
0
0
LINE
8
PIPES
10
1786.3845
20
1849.674227
30
0
11
1786.3845
21
1868.274227
31
0
0
LINE
8
PIPES
10
1786.3845
20
1868.274227
30
0
11
1786.3845
21
1886.874227
31
0
0
LINE
8
PIPES
10
1786.3845
20
1886.874227
30
0
11
1786.3845
21
1892.494227
31
0
0
LINE
8
PIPES
10
1786.3845
20
1905.474227
30
0
11
1786.3845
21
1924.074227
31
0
0
LINE
8
PIPES
10
1786.3845
20
1924.074227
30
0
11
1786.3845
21
1942.674227
31
0
0
LINE
8
PIPES
10
1786.3845
20
1942.674227
30
0
11
1786.3845
21
1961.274227
31
0
0
LINE
8
PIPES
10
1786.3845
20
1961.274227
30
0
11
1786.3845
21
1971.214227
31
0
0
LINE
8
PIPES
10
1786.3845
20
1979.874227
30
0
11
1786.3845
21
1998.474227
31
0
0
LINE
8
PIPES
10
1786.3845
20
1998.474227
30
0
11
1786.3845
21
2017.074227
31
0
0
LINE
8
PIPES
10
1786.3845
20
2017.074227
30
0
11
1786.3845
21
2035.664227
31
0
0
LINE
8
PIPES
10
1786.3845
20
2035.664227
30
0
11
1786.3845
21
2049.944227
31
0
0
LINE
8
PIPES
10
1786.3845
20
2054.264227
30
0
11
1786.3845
21
2072.864227
31
0
0
LINE
8
PIPES
10
1786.3845
20
2072.864227
30
0
11
1786.3845
21
2091.464227
31
0
0
LINE
8
PIPES
10
1786.3845
20
2091.464227
30
0
11
1786.3845
21
2110.064227
31
0
0
LINE
8
PIPES
10
1786.3845
20
2110.064227
30
0
11
1786.3845
21
2128.664227
31
0
0
LINE
8
PIPES
10
1786.3845
20
2128.664227
30
0
11
1786.3845
21
2144.874227
31
0
0
LINE
8
PIPES
10
1786.3845
20
2034.664227
30
0
11
1786.3845
21
1735.044227
31
0
0
LINE
8
PIPES
10
1786.3845
20
2056.304227
30
0
11
1786.3845
21
1756.684227
31
0
0
LINE
8
PIPES
10
1786.3845
20
2074.904227
30
0
11
1786.3845
21
1775.284227
31
0
0
LINE
8
PIPES
10
1786.3845
20
2093.504227
30
0
11
1786.3845
21
1793.884227
31
0
0
LINE
8
PIPES
10
1786.3845
20
2112.104227
30
0
11
1786.3845
21
1812.484227
31
0
0
LINE
8
PIPES
10
1786.3845
20
2130.704227
30
0
11
1786.3845
21
1831.084227
31
0
0
LINE
8
PIPES
10
1786.3845
20
2149.294227
30
0
11
1786.3845
21
1849.674227
31
0
0
LINE
8
PIPES
10
1786.3845
20
2167.894227
30
0
11
1786.3845
21
1868.274227
31
0
0
LINE
8
PIPES
10
1786.3845
20
2186.494227
30
0
11
1786.3845
21
1886.874227
31
0
0
LINE
8
PIPES
10
1786.3845
20
2205.094227
30
0
11
1786.3845
21
1905.474227
31
0
0
LINE
8
PIPES
10
1786.3845
20
2223.694227
30
0
11
1786.3845
21
1924.074227
31
0
0
LINE
8
PIPES
10
1786.3845
20
2242.294227
30
0
11
1786.3845
21
1942.674227
31
0
0
LINE
8
PIPES
10
1786.3845
20
2260.894227
30
0
11
1786.3845
21
1961.274227
31
0
0
LINE
8
PIPES
10
1786.3845
20
2279.494227
30
0
11
1786.3845
21
1979.874227
31
0
0
LINE
8
PIPES
10
1786.3845
20
2298.094227
30
0
11
1786.3845
21
1998.474227
31
0
0
LINE
8
PIPES
10
1786.3845
20
2316.694227
30
0
11
1786.3845
21
2017.074227
31
0
0
LINE
8
PIPES
10
1786.3845
20
2335.294227
30
0
11
1786.3845
21
2035.664227
31
0
0
LINE
8
PIPES
10
1786.3845
20
2353.884227
30
0
11
1786.3845
21
2054.264227
31
0
0
LINE
8
PIPES
10
1786.3845
20
2372.484227
30
0
11
1786.3845
21
2072.864227
31
0
0
LINE
8
PIPES
10
1786.3845
20
2391.084227
30
0
11
1786.3845
21
2091.464227
31
0
0
LINE
8
PIPES
10
1786.3845
20
2409.684227
30
0
11
1786.3845
21
2110.064227
31
0
0
LINE
8
PIPES
10
3046.3745
20
2034.664227
30
0
11
3046.3745
21
2056.304227
31
0
0
LINE
8
PIPES
10
3046.3745
20
2056.304227
30
0
11
3046.3745
21
2074.904227
31
0
0
LINE
8
PIPES
10
3046.3745
20
2074.904227
30
0
11
3046.3745
21
2093.504227
31
0
0
LINE
8
PIPES
10
3046.3745
20
2093.504227
30
0
11
3046.3745
21
2112.104227
31
0
0
LINE
8
PIPES
10
3046.3745
20
2112.104227
30
0
11
3046.3745
21
2113.384227
31
0
0
LINE
8
PIPES
10
3046.3745
20
2130.704227
30
0
11
3046.3745
21
2149.294227
31
0
0
LINE
8
PIPES
10
3046.3745
20
2149.294227
30
0
11
3046.3745
21
2167.894227
31
0
0
LINE
8
PIPES
10
3046.3745
20
2167.894227
30
0
11
3046.3745
21
2186.494227
31
0
0
LINE
8
PIPES
10
3046.3745
20
2186.494227
30
0
11
3046.3745
21
2192.114227
31
0
0
LINE
8
PIPES
10
3046.3745
20
2205.094227
30
0
11
3046.3745
21
2223.694227
31
0
0
LINE
8
PIPES
10
3046.3745
20
2223.694227
30
0
11
3046.3745
21
2242.294227
31
0
0
LINE
8
PIPES
10
3046.3745
20
2242.294227
30
0
11
3046.3745
21
2260.894227
31
0
0
LINE
8
PIPES
10
3046.3745
20
2260.894227
30
0
11
3046.3745
21
2270.834227
31
0
0
LINE
8
PIPES
10
3046.3745
20
2279.494227
30
0
11
3046.3745
21
2298.094227
31
0
0
LINE
8
PIPES
10
3046.3745
20
2298.094227
30
0
11
3046.3745
21
2316.694227
31
0
0
LINE
8
PIPES
10
3046.3745
20
2316.694227
30
0
11
3046.3745
21
2335.294227
31
0
0
LINE
8
PIPES
10
3046.3745
20
2335.294227
30
0
11
3046.3745
21
2349.564227
31
0
0
LINE
8
PIPES
10
3046.3745
20
2353.884227
30
0
11
3046.3745
21
2372.484227
31
0
0
LINE
8
PIPES
10
3046.3745
20
2372.484227
30
0
11
3046.3745
21
2391.084227
31
0
0
LINE
8
PIPES
10
3046.3745
20
2391.084227
30
0
11
3046.3745
21
2409.684227
31
0
0
LINE
8
PIPES
10
3046.3745
20
2409.684227
30
0
11
3046.3745
21
2428.284227
31
0
0
LINE
8
PIPES
10
3046.3745
20
1735.044227
30
0
11
3046.3745
21
1756.684227
31
0
0
LINE
8
PIPES
10
3046.3745
20
1756.684227
30
0
11
3046.3745
21
1775.284227
31
0
0
LINE
8
PIPES
10
3046.3745
20
1775.284227
30
0
11
3046.3745
21
1793.884227
31
0
0
LINE
8
PIPES
10
3046.3745
20
1793.884227
30
0
11
3046.3745
21
1812.484227
31
0
0
LINE
8
PIPES
10
3046.3745
20
1812.484227
30
0
11
3046.3745
21
1813.764227
31
0
0
LINE
8
PIPES
10
3046.3745
20
1831.084227
30
0
11
3046.3745
21
1849.674227
31
0
0
LINE
8
PIPES
10
3046.3745
20
1849.674227
30
0
11
3046.3745
21
1868.274227
31
0
0
LINE
8
PIPES
10
3046.3745
20
1868.274227
30
0
11
3046.3745
21
1886.874227
31
0
0
LINE
8
PIPES
10
3046.3745
20
1886.874227
30
0
11
3046.3745
21
1892.494227
31
0
0
LINE
8
PIPES
10
3046.3745
20
1905.474227
30
0
11
3046.3745
21
1924.074227
31
0
0
LINE
8
PIPES
10
3046.3745
20
1924.074227
30
0
11
3046.3745
21
1942.674227
31
0
0
LINE
8
PIPES
10
3046.3745
20
1942.674227
30
0
11
3046.3745
21
1961.274227
31
0
0
LINE
8
PIPES
10
3046.3745
20
1961.274227
30
0
11
3046.3745
21
1971.214227
31
0
0
LINE
8
PIPES
10
3046.3745
20
1979.874227
30
0
11
3046.3745
21
1998.474227
31
0
0
LINE
8
PIPES
10
3046.3745
20
1998.474227
30
0
11
3046.3745
21
2017.074227
31
0
0
LINE
8
PIPES
10
3046.3745
20
2017.074227
30
0
11
3046.3745
21
2035.664227
31
0
0
LINE
8
PIPES
10
3046.3745
20
2035.664227
30
0
11
3046.3745
21
2049.944227
31
0
0
LINE
8
PIPES
10
3046.3745
20
2054.264227
30
0
11
3046.3745
21
2072.864227
31
0
0
LINE
8
PIPES
10
3046.3745
20
2072.864227
30
0
11
3046.3745
21
2091.464227
31
0
0
LINE
8
PIPES
10
3046.3745
20
2091.464227
30
0
11
3046.3745
21
2110.064227
31
0
0
LINE
8
PIPES
10
3046.3745
20
2110.064227
30
0
11
3046.3745
21
2128.664227
31
0
0
LINE
8
PIPES
10
3046.3745
20
2128.664227
30
0
11
3046.3745
21
2144.874227
31
0
0
LINE
8
PIPES
10
3046.3745
20
2034.664227
30
0
11
3046.3745
21
1735.044227
31
0
0
LINE
8
PIPES
10
3046.3745
20
2056.304227
30
0
11
3046.3745
21
1756.684227
31
0
0
LINE
8
PIPES
10
3046.3745
20
2074.904227
30
0
11
3046.3745
21
1775.284227
31
0
0
LINE
8
PIPES
10
3046.3745
20
2093.504227
30
0
11
3046.3745
21
1793.884227
31
0
0
LINE
8
PIPES
10
3046.3745
20
2112.104227
30
0
11
3046.3745
21
1812.484227
31
0
0
LINE
8
PIPES
10
3046.3745
20
2130.704227
30
0
11
3046.3745
21
1831.084227
31
0
0
LINE
8
PIPES
10
3046.3745
20
2149.294227
30
0
11
3046.3745
21
1849.674227
31
0
0
LINE
8
PIPES
10
3046.3745
20
2167.894227
30
0
11
3046.3745
21
1868.274227
31
0
0
LINE
8
PIPES
10
3046.3745
20
2186.494227
30
0
11
3046.3745
21
1886.874227
31
0
0
LINE
8
PIPES
10
3046.3745
20
2205.094227
30
0
11
3046.3745
21
1905.474227
31
0
0
LINE
8
PIPES
10
3046.3745
20
2223.694227
30
0
11
3046.3745
21
1924.074227
31
0
0
LINE
8
PIPES
10
3046.3745
20
2242.294227
30
0
11
3046.3745
21
1942.674227
31
0
0
LINE
8
PIPES
10
3046.3745
20
2260.894227
30
0
11
3046.3745
21
1961.274227
31
0
0
LINE
8
PIPES
10
3046.3745
20
2279.494227
30
0
11
3046.3745
21
1979.874227
31
0
0
LINE
8
PIPES
10
3046.3745
20
2298.094227
30
0
11
3046.3745
21
1998.474227
31
0
0
LINE
8
PIPES
10
3046.3745
20
2316.694227
30
0
11
3046.3745
21
2017.074227
31
0
0
LINE
8
PIPES
10
3046.3745
20
2335.294227
30
0
11
3046.3745
21
2035.664227
31
0
0
LINE
8
PIPES
10
3046.3745
20
2353.884227
30
0
11
3046.3745
21
2054.264227
31
0
0
LINE
8
PIPES
10
3046.3745
20
2372.484227
30
0
11
3046.3745
21
2072.864227
31
0
0
LINE
8
PIPES
10
3046.3745
20
2391.084227
30
0
11
3046.3745
21
2091.464227
31
0
0
LINE
8
PIPES
10
3046.3745
20
2409.684227
30
0
11
3046.3745
21
2110.064227
31
0
0
LINE
8
PIPES
10
1786.3845
20
1247.434227
30
0
11
3046.3745
21
1247.434227
31
0
0
LINE
8
PIPES
10
-733.6255
20
-720.661773
30
0
11
526.3845
21
-1271.724773
31
0
0
LINE
8
PIPES
10
526.3845
20
-1271.724773
30
0
11
1786.3845
21
-720.661773
31
0
0
LINE
8
PIPES
10
1786.3845
20
-720.661773
30
0
11
3046.3745
21
-1271.724773
31
0
0
LINE
8
PIPES
10
3046.3745
20
-1271.724773
30
0
11
4306.3745
21
-720.661773
31
0
0
LINE
8
PIPES
10
4306.3745
20
-720.661773
30
0
11
5266.3745
21
-1271.724773
31
0
0
LINE
8
PIPES
10
-733.6255
20
-1271.724773
30
0
11
526.3845
21
-720.661773
31
0
0
LINE
8
PIPES
10
526.3845
20
-720.661773
30
0
11
1786.3845
21
-1271.724773
31
0
0
LINE
8
PIPES
10
1786.3845
20
-1271.724773
30
0
11
3046.3745
21
-720.661773
31
0
0
LINE
8
PIPES
10
3046.3745
20
-720.661773
30
0
11
4306.3745
21
-1271.724773
31
0
0
LINE
8
PIPES
10
4306.3745
20
-1271.724773
30
0
11
5266.3745
21
-720.661773
31
0
0
LINE
8
PIPES
10
5266.3745
20
1735.044227
30
0
11
5266.3745
21
1813.764227
31
0
0
LINE
8
PIPES
10
5266.3745
20
1813.764227
30
0
11
5266.3745
21
1892.494227
31
0
0
LINE
8
PIPES
10
5266.3745
20
1892.494227
30
0
11
5266.3745
21
1971.214227
31
0
0
LINE
8
PIPES
10
5266.3745
20
1971.214227
30
0
11
5266.3745
21
2049.944227
31
0
0
LINE
8
PIPES
10
5266.3745
20
2049.944227
30
0
11
5266.3745
21
2128.664227
31
0
0
LINE
8
PIPES
10
5266.3745
20
2034.664227
30
0
11
5266.3745
21
2113.384227
31
0
0
LINE
8
PIPES
10
5266.3745
20
2113.384227
30
0
11
5266.3745
21
2192.114227
31
0
0
LINE
8
PIPES
10
5266.3745
20
2192.114227
30
0
11
5266.3745
21
2270.834227
31
0
0
LINE
8
PIPES
10
5266.3745
20
2270.834227
30
0
11
5266.3745
21
2349.564227
31
0
0
LINE
8
PIPES
10
5266.3745
20
2349.564227
30
0
11
5266.3745
21
2428.284227
31
0
0
LINE
8
PIPES
10
5266.3745
20
853.814227
30
0
11
5266.3745
21
-271.045773
31
0
0
LINE
8
PIPES
10
5266.3745
20
-271.045773
30
0
11
5266.3745
21
-1571.725773
31
0
0
LINE
8
PIPES
10
-733.6255
20
1735.044227
30
0
11
526.3845
21
853.814227
31
0
0
LINE
8
PIPES
10
526.3845
20
853.814227
30
0
11
-733.6255
21
-271.045773
31
0
0
LINE
8
PIPES
10
-733.6255
20
-271.045773
30
0
11
526.3845
21
-1571.725773
31
0
0
LINE
8
PIPES
10
526.3845
20
1735.044227
30
0
11
1786.3845
21
853.814227
31
0
0
LINE
8
PIPES
10
1786.3845
20
853.814227
30
0
11
526.3845
21
-271.045773
31
0
0
LINE
8
PIPES
10
526.3845
20
-271.045773
30
0
11
1786.3845
21
-1571.725773
31
0
0
LINE
8
PIPES
10
1786.3845
20
1735.044227
30
0
11
3046.3745
21
853.814227
31
0
0
LINE
8
PIPES
10
3046.3745
20
853.814227
30
0
11
1786.3845
21
-271.045773
31
0
0
LINE
8
PIPES
10
1786.3845
20
-271.045773
30
0
11
3046.3745
21
-1571.725773
31
0
0
LINE
8
PIPES
10
3046.3745
20
1735.044227
30
0
11
4306.3745
21
853.814227
31
0
0
LINE
8
PIPES
10
4306.3745
20
853.814227
30
0
11
3046.3745
21
-271.045773
31
0
0
LINE
8
PIPES
10
3046.3745
20
-271.045773
30
0
11
4306.3745
21
-1571.725773
31
0
0
LINE
8
PIPES
10
4306.3745
20
1735.044227
30
0
11
5266.3745
21
853.814227
31
0
0
LINE
8
PIPES
10
5266.3745
20
853.814227
30
0
11
4306.3745
21
-271.045773
31
0
0
LINE
8
PIPES
10
4306.3745
20
-271.045773
30
0
11
5266.3745
21
-1571.725773
31
0
0
LINE
8
PIPES
10
3046.3745
20
2144.874227
30
0
11
1786.3845
21
1247.434227
31
0
0
LINE
8
PIPES
10
526.3845
20
2128.664227
30
0
11
-733.6255
21
853.814227
31
0
0
LINE
8
PIPES
10
-733.6255
20
853.814227
30
0
11
526.3845
21
-271.045773
31
0
0
LINE
8
PIPES
10
526.3845
20
-271.045773
30
0
11
-733.6255
21
-1571.725773
31
0
0
LINE
8
PIPES
10
1786.3845
20
2144.874227
30
0
11
526.3845
21
853.814227
31
0
0
LINE
8
PIPES
10
526.3845
20
853.814227
30
0
11
1786.3845
21
-271.045773
31
0
0
LINE
8
PIPES
10
1786.3845
20
-271.045773
30
0
11
526.3845
21
-1571.725773
31
0
0
LINE
8
PIPES
10
4306.3745
20
2128.664227
30
0
11
3046.3745
21
853.814227
31
0
0
LINE
8
PIPES
10
3046.3745
20
853.814227
30
0
11
4306.3745
21
-271.045773
31
0
0
LINE
8
PIPES
10
4306.3745
20
-271.045773
30
0
11
3046.3745
21
-1571.725773
31
0
0
LINE
8
PIPES
10
5266.3745
20
2128.664227
30
0
11
4306.3745
21
853.814227
31
0
0
LINE
8
PIPES
10
4306.3745
20
853.814227
30
0
11
5266.3745
21
-271.045773
31
0
0
LINE
8
PIPES
10
4306.3745
20
-1571.725773
30
0
11
5266.3745
21
-271.045773
31
0
0
LINE
8
PIPES
10
5266.3745
20
1735.044227
30
0
11
5266.3745
21
2034.664227
31
0
0
LINE
8
PIPES
10
5266.3745
20
1813.764227
30
0
11
5266.3745
21
2113.384227
31
0
0
LINE
8
PIPES
10
5266.3745
20
1892.494227
30
0
11
5266.3745
21
2192.114227
31
0
0
LINE
8
PIPES
10
5266.3745
20
1971.214227
30
0
11
5266.3745
21
2270.834227
31
0
0
LINE
8
PIPES
10
5266.3745
20
2049.944227
30
0
11
5266.3745
21
2349.564227
31
0
0
LINE
8
PIPES
10
5266.3745
20
2128.664227
30
0
11
5266.3745
21
2428.284227
31
0
0
LINE
8
PIPES
10
526.3845
20
1735.044227
30
0
11
526.3845
21
2034.664227
31
0
0
LINE
8
PIPES
10
526.3845
20
2128.664227
30
0
11
526.3845
21
2428.284227
31
0
0
LINE
8
PIPES
10
4306.3745
20
1735.044227
30
0
11
4306.3745
21
2034.664227
31
0
0
LINE
8
PIPES
10
4306.3745
20
2128.664227
30
0
11
4306.3745
21
2428.284227
31
0
0
LINE
8
PIPES
10
-733.6255
20
2113.384227
30
0
11
526.3845
21
2113.384227
31
0
0
LINE
8
PIPES
10
-733.6255
20
1813.764227
30
0
11
526.3845
21
1813.764227
31
0
0
LINE
8
PIPES
10
-733.6255
20
2192.114227
30
0
11
526.3845
21
2192.114227
31
0
0
LINE
8
PIPES
10
-733.6255
20
1892.494227
30
0
11
526.3845
21
1892.494227
31
0
0
LINE
8
PIPES
10
-733.6255
20
2270.834227
30
0
11
526.3845
21
2270.834227
31
0
0
LINE
8
PIPES
10
-733.6255
20
1971.214227
30
0
11
526.3845
21
1971.214227
31
0
0
LINE
8
PIPES
10
-733.6255
20
2349.564227
30
0
11
526.3845
21
2349.564227
31
0
0
LINE
8
PIPES
10
-733.6255
20
2049.944227
30
0
11
526.3845
21
2049.944227
31
0
0
LINE
8
PIPES
10
526.3845
20
1813.764227
30
0
11
526.3845
21
2113.384227
31
0
0
LINE
8
PIPES
10
526.3845
20
1892.494227
30
0
11
526.3845
21
2192.114227
31
0
0
LINE
8
PIPES
10
526.3845
20
1971.214227
30
0
11
526.3845
21
2270.834227
31
0
0
LINE
8
PIPES
10
526.3845
20
2049.944227
30
0
11
526.3845
21
2349.564227
31
0
0
LINE
8
PIPES
10
1786.3845
20
2113.384227
30
0
11
1786.3845
21
2130.704227
31
0
0
LINE
8
PIPES
10
526.3845
20
2113.384227
30
0
11
1786.3845
21
2113.384227
31
0
0
LINE
8
PIPES
10
1786.3845
20
1813.764227
30
0
11
1786.3845
21
1831.084227
31
0
0
LINE
8
PIPES
10
526.3845
20
1813.764227
30
0
11
1786.3845
21
1813.764227
31
0
0
LINE
8
PIPES
10
1786.3845
20
2192.114227
30
0
11
1786.3845
21
2205.094227
31
0
0
LINE
8
PIPES
10
526.3845
20
2192.114227
30
0
11
1786.3845
21
2192.114227
31
0
0
LINE
8
PIPES
10
1786.3845
20
1892.494227
30
0
11
1786.3845
21
1905.474227
31
0
0
LINE
8
PIPES
10
526.3845
20
1892.494227
30
0
11
1786.3845
21
1892.494227
31
0
0
LINE
8
PIPES
10
1786.3845
20
2270.834227
30
0
11
1786.3845
21
2279.494227
31
0
0
LINE
8
PIPES
10
526.3845
20
2270.834227
30
0
11
1786.3845
21
2270.834227
31
0
0
LINE
8
PIPES
10
1786.3845
20
1971.214227
30
0
11
1786.3845
21
1979.874227
31
0
0
LINE
8
PIPES
10
526.3845
20
1971.214227
30
0
11
1786.3845
21
1971.214227
31
0
0
LINE
8
PIPES
10
1786.3845
20
2349.564227
30
0
11
1786.3845
21
2353.884227
31
0
0
LINE
8
PIPES
10
526.3845
20
2349.564227
30
0
11
1786.3845
21
2349.564227
31
0
0
LINE
8
PIPES
10
1786.3845
20
2049.944227
30
0
11
1786.3845
21
2054.264227
31
0
0
LINE
8
PIPES
10
526.3845
20
2049.944227
30
0
11
1786.3845
21
2049.944227
31
0
0
LINE
8
PIPES
10
1786.3845
20
1813.764227
30
0
11
1786.3845
21
2113.384227
31
0
0
LINE
8
PIPES
10
1786.3845
20
1892.494227
30
0
11
1786.3845
21
2192.114227
31
0
0
LINE
8
PIPES
10
1786.3845
20
1971.214227
30
0
11
1786.3845
21
2270.834227
31
0
0
LINE
8
PIPES
10
1786.3845
20
2049.944227
30
0
11
1786.3845
21
2349.564227
31
0
0
LINE
8
PIPES
10
3046.3745
20
2113.384227
30
0
11
3046.3745
21
2130.704227
31
0
0
LINE
8
PIPES
10
1786.3845
20
2113.384227
30
0
11
3046.3745
21
2113.384227
31
0
0
LINE
8
PIPES
10
3046.3745
20
1813.764227
30
0
11
3046.3745
21
1831.084227
31
0
0
LINE
8
PIPES
10
1786.3845
20
1813.764227
30
0
11
3046.3745
21
1813.764227
31
0
0
LINE
8
PIPES
10
3046.3745
20
2192.114227
30
0
11
3046.3745
21
2205.094227
31
0
0
LINE
8
PIPES
10
1786.3845
20
2192.114227
30
0
11
3046.3745
21
2192.114227
31
0
0
LINE
8
PIPES
10
3046.3745
20
1892.494227
30
0
11
3046.3745
21
1905.474227
31
0
0
LINE
8
PIPES
10
1786.3845
20
1892.494227
30
0
11
3046.3745
21
1892.494227
31
0
0
LINE
8
PIPES
10
3046.3745
20
2270.834227
30
0
11
3046.3745
21
2279.494227
31
0
0
LINE
8
PIPES
10
1786.3845
20
2270.834227
30
0
11
3046.3745
21
2270.834227
31
0
0
LINE
8
PIPES
10
3046.3745
20
1971.214227
30
0
11
3046.3745
21
1979.874227
31
0
0
LINE
8
PIPES
10
1786.3845
20
1971.214227
30
0
11
3046.3745
21
1971.214227
31
0
0
LINE
8
PIPES
10
3046.3745
20
2349.564227
30
0
11
3046.3745
21
2353.884227
31
0
0
LINE
8
PIPES
10
1786.3845
20
2349.564227
30
0
11
3046.3745
21
2349.564227
31
0
0
LINE
8
PIPES
10
3046.3745
20
2049.944227
30
0
11
3046.3745
21
2054.264227
31
0
0
LINE
8
PIPES
10
1786.3845
20
2049.944227
30
0
11
3046.3745
21
2049.944227
31
0
0
LINE
8
PIPES
10
3046.3745
20
1813.764227
30
0
11
3046.3745
21
2113.384227
31
0
0
LINE
8
PIPES
10
3046.3745
20
1892.494227
30
0
11
3046.3745
21
2192.114227
31
0
0
LINE
8
PIPES
10
3046.3745
20
1971.214227
30
0
11
3046.3745
21
2270.834227
31
0
0
LINE
8
PIPES
10
3046.3745
20
2049.944227
30
0
11
3046.3745
21
2349.564227
31
0
0
LINE
8
PIPES
10
3046.3745
20
2113.384227
30
0
11
4306.3745
21
2113.384227
31
0
0
LINE
8
PIPES
10
3046.3745
20
1813.764227
30
0
11
4306.3745
21
1813.764227
31
0
0
LINE
8
PIPES
10
3046.3745
20
2192.114227
30
0
11
4306.3745
21
2192.114227
31
0
0
LINE
8
PIPES
10
3046.3745
20
1892.494227
30
0
11
4306.3745
21
1892.494227
31
0
0
LINE
8
PIPES
10
3046.3745
20
2270.834227
30
0
11
4306.3745
21
2270.834227
31
0
0
LINE
8
PIPES
10
3046.3745
20
1971.214227
30
0
11
4306.3745
21
1971.214227
31
0
0
LINE
8
PIPES
10
3046.3745
20
2349.564227
30
0
11
4306.3745
21
2349.564227
31
0
0
LINE
8
PIPES
10
3046.3745
20
2049.944227
30
0
11
4306.3745
21
2049.944227
31
0
0
LINE
8
PIPES
10
4306.3745
20
1813.764227
30
0
11
4306.3745
21
2113.384227
31
0
0
LINE
8
PIPES
10
4306.3745
20
1892.494227
30
0
11
4306.3745
21
2192.114227
31
0
0
LINE
8
PIPES
10
4306.3745
20
1971.214227
30
0
11
4306.3745
21
2270.834227
31
0
0
LINE
8
PIPES
10
4306.3745
20
2049.944227
30
0
11
4306.3745
21
2349.564227
31
0
0
LINE
8
PIPES
10
4306.3745
20
2113.384227
30
0
11
5266.3745
21
2113.384227
31
0
0
LINE
8
PIPES
10
4306.3745
20
1813.764227
30
0
11
5266.3745
21
1813.764227
31
0
0
LINE
8
PIPES
10
4306.3745
20
2192.114227
30
0
11
5266.3745
21
2192.114227
31
0
0
LINE
8
PIPES
10
4306.3745
20
1892.494227
30
0
11
5266.3745
21
1892.494227
31
0
0
LINE
8
PIPES
10
4306.3745
20
2270.834227
30
0
11
5266.3745
21
2270.834227
31
0
0
LINE
8
PIPES
10
4306.3745
20
1971.214227
30
0
11
5266.3745
21
1971.214227
31
0
0
LINE
8
PIPES
10
4306.3745
20
2349.564227
30
0
11
5266.3745
21
2349.564227
31
0
0
LINE
8
PIPES
10
4306.3745
20
2049.944227
30
0
11
5266.3745
21
2049.944227
31
0
0
LINE
8
PIPES
10
526.3845
20
2034.664227
30
0
11
526.3845
21
2113.384227
31
0
0
LINE
8
PIPES
10
526.3845
20
2113.384227
30
0
11
526.3845
21
2192.114227
31
0
0
LINE
8
PIPES
10
526.3845
20
2270.834227
30
0
11
526.3845
21
2192.114227
31
0
0
LINE
8
PIPES
10
526.3845
20
2270.834227
30
0
11
526.3845
21
2349.564227
31
0
0
LINE
8
PIPES
10
526.3845
20
2349.564227
30
0
11
526.3845
21
2428.284227
31
0
0
LINE
8
PIPES
10
526.3845
20
1735.044227
30
0
11
526.3845
21
1813.764227
31
0
0
LINE
8
PIPES
10
526.3845
20
1813.764227
30
0
11
526.3845
21
1892.494227
31
0
0
LINE
8
PIPES
10
526.3845
20
1892.494227
30
0
11
526.3845
21
1971.214227
31
0
0
LINE
8
PIPES
10
526.3845
20
1971.214227
30
0
11
526.3845
21
2049.944227
31
0
0
LINE
8
PIPES
10
526.3845
20
2049.944227
30
0
11
526.3845
21
2128.664227
31
0
0
LINE
8
PIPES
10
4306.3745
20
1735.044227
30
0
11
4306.3745
21
1813.764227
31
0
0
LINE
8
PIPES
10
4306.3745
20
1813.764227
30
0
11
4306.3745
21
1892.494227
31
0
0
LINE
8
PIPES
10
4306.3745
20
1892.494227
30
0
11
4306.3745
21
1971.214227
31
0
0
LINE
8
PIPES
10
4306.3745
20
1971.214227
30
0
11
4306.3745
21
2049.944227
31
0
0
LINE
8
PIPES
10
4306.3745
20
2049.944227
30
0
11
4306.3745
21
2128.664227
31
0
0
LINE
8
PIPES
10
4306.3745
20
2034.664227
30
0
11
4306.3745
21
2113.384227
31
0
0
LINE
8
PIPES
10
4306.3745
20
2113.384227
30
0
11
4306.3745
21
2192.114227
31
0
0
LINE
8
PIPES
10
4306.3745
20
2192.114227
30
0
11
4306.3745
21
2270.834227
31
0
0
LINE
8
PIPES
10
4306.3745
20
2270.834227
30
0
11
4306.3745
21
2349.564227
31
0
0
LINE
8
PIPES
10
4306.3745
20
2349.564227
30
0
11
4306.3745
21
2428.284227
31
0
0
LINE
8
PIPES
10
-733.6255
20
2034.664227
30
0
11
526.3845
21
1735.044227
31
0
0
LINE
8
PIPES
10
526.3845
20
1735.044227
30
0
11
1786.3845
21
2034.664227
31
0
0
LINE
8
PIPES
10
1786.3845
20
2034.664227
30
0
11
3046.3745
21
1735.044227
31
0
0
LINE
8
PIPES
10
4306.3745
20
2034.664227
30
0
11
3046.3745
21
1735.044227
31
0
0
LINE
8
PIPES
10
4306.3745
20
2034.664227
30
0
11
5266.3745
21
1735.044227
31
0
0
LINE
8
PIPES
10
-733.6255
20
1813.764227
30
0
11
526.3845
21
2113.384227
31
0
0
LINE
8
PIPES
10
5266.3745
20
2113.384227
30
0
11
4306.3745
21
1813.764227
31
0
0
LINE
8
PIPES
10
-733.6255
20
2192.114227
30
0
11
526.3845
21
1892.494227
31
0
0
LINE
8
PIPES
10
526.3845
20
1892.494227
30
0
11
1786.3845
21
2192.114227
31
0
0
LINE
8
PIPES
10
1786.3845
20
2192.114227
30
0
11
3046.3745
21
1892.494227
31
0
0
LINE
8
PIPES
10
3046.3745
20
1892.494227
30
0
11
4306.3745
21
2192.114227
31
0
0
LINE
8
PIPES
10
4306.3745
20
2192.114227
30
0
11
5266.3745
21
1892.494227
31
0
0
LINE
8
PIPES
10
-733.6255
20
1971.214227
30
0
11
526.3845
21
2270.834227
31
0
0
LINE
8
PIPES
10
526.3845
20
2270.834227
30
0
11
1786.3845
21
1971.214227
31
0
0
LINE
8
PIPES
10
1786.3845
20
1971.214227
30
0
11
3046.3745
21
2270.834227
31
0
0
LINE
8
PIPES
10
3046.3745
20
2270.834227
30
0
11
4306.3745
21
1971.214227
31
0
0
LINE
8
PIPES
10
5266.3745
20
2270.834227
30
0
11
4306.3745
21
1971.214227
31
0
0
LINE
8
PIPES
10
-733.6255
20
2349.564227
30
0
11
526.3845
21
2049.944227
31
0
0
LINE
8
PIPES
10
526.3845
20
2049.944227
30
0
11
1786.3845
21
2349.564227
31
0
0
LINE
8
PIPES
10
1786.3845
20
2349.564227
30
0
11
3046.3745
21
2049.944227
31
0
0
LINE
8
PIPES
10
3046.3745
20
2049.944227
30
0
11
4306.3745
21
2349.564227
31
0
0
LINE
8
PIPES
10
4306.3745
20
2349.564227
30
0
11
5266.3745
21
2049.944227
31
0
0
LINE
8
PIPES
10
-733.6255
20
2128.664227
30
0
11
526.3845
21
2428.284227
31
0
0
LINE
8
PIPES
10
526.3845
20
2428.284227
30
0
11
1786.3845
21
2144.874227
31
0
0
LINE
8
PIPES
10
1786.3845
20
2128.664227
30
0
11
3046.3745
21
2428.284227
31
0
0
LINE
8
PIPES
10
3046.3745
20
2428.284227
30
0
11
4306.3745
21
2128.664227
31
0
0
LINE
8
PIPES
10
4306.3745
20
2128.664227
30
0
11
5266.3745
21
2428.284227
31
0
0
LINE
8
PIPES
10
526.3845
20
1735.044227
30
0
11
526.3845
21
2113.384227
31
0
0
LINE
8
PIPES
10
526.3845
20
2113.384227
30
0
11
526.3845
21
1892.494227
31
0
0
LINE
8
PIPES
10
526.3845
20
1892.494227
30
0
11
526.3845
21
2270.834227
31
0
0
LINE
8
PIPES
10
526.3845
20
2270.834227
30
0
11
526.3845
21
2049.944227
31
0
0
LINE
8
PIPES
10
526.3845
20
2049.944227
30
0
11
526.3845
21
2428.284227
31
0
0
LINE
8
PIPES
10
4306.3745
20
2034.664227
30
0
11
4306.3745
21
1813.764227
31
0
0
LINE
8
PIPES
10
4306.3745
20
1813.764227
30
0
11
4306.3745
21
2192.114227
31
0
0
LINE
8
PIPES
10
4306.3745
20
2192.114227
30
0
11
4306.3745
21
1971.214227
31
0
0
LINE
8
PIPES
10
4306.3745
20
1971.214227
30
0
11
4306.3745
21
2349.564227
31
0
0
LINE
8
PIPES
10
4306.3745
20
2349.564227
30
0
11
4306.3745
21
2128.664227
31
0
0
LINE
8
PIPES
10
5266.3745
20
1735.044227
30
0
11
5266.3745
21
2113.384227
31
0
0
LINE
8
PIPES
10
5266.3745
20
2113.384227
30
0
11
5266.3745
21
1892.494227
31
0
0
LINE
8
PIPES
10
5266.3745
20
1892.494227
30
0
11
5266.3745
21
2270.834227
31
0
0
LINE
8
PIPES
10
5266.3745
20
2270.834227
30
0
11
5266.3745
21
2049.944227
31
0
0
LINE
8
PIPES
10
5266.3745
20
2049.944227
30
0
11
5266.3745
21
2428.284227
31
0
0
LINE
8
PIPES
10
526.3845
20
2113.384227
30
0
11
1786.3845
21
1813.764227
31
0
0
LINE
8
PIPES
10
1786.3845
20
1813.764227
30
0
11
3046.3745
21
2113.384227
31
0
0
LINE
8
PIPES
10
3046.3745
20
2113.384227
30
0
11
4306.3745
21
1813.764227
31
0
0
LINE
8
PIPES
10
-733.6255
20
2034.664227
30
0
11
526.3845
21
2113.384227
31
0
0
LINE
8
PIPES
10
526.3845
20
2113.384227
30
0
11
-733.6255
21
2192.114227
31
0
0
LINE
8
PIPES
10
-733.6255
20
2192.114227
30
0
11
526.3845
21
2270.834227
31
0
0
LINE
8
PIPES
10
526.3845
20
2270.834227
30
0
11
-733.6255
21
2349.564227
31
0
0
LINE
8
PIPES
10
-733.6255
20
2349.564227
30
0
11
526.3845
21
2428.284227
31
0
0
LINE
8
PIPES
10
526.3845
20
2034.664227
30
0
11
1786.3845
21
2113.384227
31
0
0
LINE
8
PIPES
10
1786.3845
20
2113.384227
30
0
11
526.3845
21
2192.114227
31
0
0
LINE
8
PIPES
10
1786.3845
20
2034.664227
30
0
11
3046.3745
21
2113.384227
31
0
0
LINE
8
PIPES
10
526.3845
20
2192.114227
30
0
11
1786.3845
21
2270.834227
31
0
0
LINE
8
PIPES
10
1786.3845
20
2270.834227
30
0
11
526.3845
21
2349.564227
31
0
0
LINE
8
PIPES
10
526.3845
20
2349.564227
30
0
11
1786.3845
21
2428.284227
31
0
0
LINE
8
PIPES
10
3046.3745
20
2113.384227
30
0
11
1786.3845
21
2192.114227
31
0
0
LINE
8
PIPES
10
1786.3845
20
2192.114227
30
0
11
3046.3745
21
2270.834227
31
0
0
LINE
8
PIPES
10
3046.3745
20
2270.834227
30
0
11
1786.3845
21
2349.564227
31
0
0
LINE
8
PIPES
10
1786.3845
20
2349.564227
30
0
11
3046.3745
21
2428.284227
31
0
0
LINE
8
PIPES
10
3046.3745
20
2034.664227
30
0
11
4306.3745
21
2113.384227
31
0
0
LINE
8
PIPES
10
4306.3745
20
2113.384227
30
0
11
3046.3745
21
2192.114227
31
0
0
LINE
8
PIPES
10
3046.3745
20
2192.114227
30
0
11
4306.3745
21
2270.834227
31
0
0
LINE
8
PIPES
10
4306.3745
20
2270.834227
30
0
11
3046.3745
21
2349.564227
31
0
0
LINE
8
PIPES
10
3046.3745
20
2349.564227
30
0
11
4306.3745
21
2428.284227
31
0
0
LINE
8
PIPES
10
4306.3745
20
2034.664227
30
0
11
5266.3745
21
2113.384227
31
0
0
LINE
8
PIPES
10
5266.3745
20
2113.384227
30
0
11
4306.3745
21
2192.114227
31
0
0
LINE
8
PIPES
10
4306.3745
20
2192.114227
30
0
11
5266.3745
21
2270.834227
31
0
0
LINE
8
PIPES
10
5266.3745
20
2270.834227
30
0
11
4306.3745
21
2349.564227
31
0
0
LINE
8
PIPES
10
4306.3745
20
2349.564227
30
0
11
5266.3745
21
2428.284227
31
0
0
LINE
8
PIPES
10
526.3845
20
1735.044227
30
0
11
-733.6255
21
1813.764227
31
0
0
LINE
8
PIPES
10
-733.6255
20
1813.764227
30
0
11
526.3845
21
1892.494227
31
0
0
LINE
8
PIPES
10
526.3845
20
1892.494227
30
0
11
-733.6255
21
1971.214227
31
0
0
LINE
8
PIPES
10
-733.6255
20
1971.214227
30
0
11
526.3845
21
2049.944227
31
0
0
LINE
8
PIPES
10
526.3845
20
2049.944227
30
0
11
-733.6255
21
2128.664227
31
0
0
LINE
8
PIPES
10
1786.3845
20
1735.044227
30
0
11
526.3845
21
1813.764227
31
0
0
LINE
8
PIPES
10
526.3845
20
1813.764227
30
0
11
1786.3845
21
1892.494227
31
0
0
LINE
8
PIPES
10
1786.3845
20
1892.494227
30
0
11
526.3845
21
1971.214227
31
0
0
LINE
8
PIPES
10
526.3845
20
1971.214227
30
0
11
1786.3845
21
2049.944227
31
0
0
LINE
8
PIPES
10
1786.3845
20
2049.944227
30
0
11
526.3845
21
2128.664227
31
0
0
LINE
8
PIPES
10
3046.3745
20
1735.044227
30
0
11
1786.3845
21
1813.764227
31
0
0
LINE
8
PIPES
10
1786.3845
20
1813.764227
30
0
11
3046.3745
21
1892.494227
31
0
0
LINE
8
PIPES
10
3046.3745
20
1892.494227
30
0
11
1786.3845
21
1971.214227
31
0
0
LINE
8
PIPES
10
1786.3845
20
1971.214227
30
0
11
3046.3745
21
2049.944227
31
0
0
LINE
8
PIPES
10
3046.3745
20
2049.944227
30
0
11
1786.3845
21
2128.664227
31
0
0
LINE
8
PIPES
10
4306.3745
20
1735.044227
30
0
11
3046.3745
21
1813.764227
31
0
0
LINE
8
PIPES
10
3046.3745
20
1813.764227
30
0
11
4306.3745
21
1892.494227
31
0
0
LINE
8
PIPES
10
4306.3745
20
1892.494227
30
0
11
3046.3745
21
1971.214227
31
0
0
LINE
8
PIPES
10
3046.3745
20
1971.214227
30
0
11
4306.3745
21
2049.944227
31
0
0
LINE
8
PIPES
10
4306.3745
20
2049.944227
30
0
11
3046.3745
21
2128.664227
31
0
0
LINE
8
PIPES
10
5266.3745
20
1735.044227
30
0
11
4306.3745
21
1813.764227
31
0
0
LINE
8
PIPES
10
4306.3745
20
1813.764227
30
0
11
5266.3745
21
1892.494227
31
0
0
LINE
8
PIPES
10
5266.3745
20
1892.494227
30
0
11
4306.3745
21
1971.214227
31
0
0
LINE
8
PIPES
10
4306.3745
20
1971.214227
30
0
11
5266.3745
21
2049.944227
31
0
0
LINE
8
PIPES
10
5266.3745
20
2049.944227
30
0
11
4306.3745
21
2128.664227
31
0
0
LINE
8
PIPES
10
-733.6155
20
-271.045773
30
0
11
526.3845
21
-271.045773
31
0
0
LINE
8
PIPES
10
-733.6155
20
-271.045773
30
0
11
-733.6255
21
-271.045773
31
0
0
LINE
8
PIPES
10
-1993.6255
20
-720.661773
30
0
11
-733.6255
21
-720.661773
31
0
0
LINE
8
PIPES
10
-733.6255
20
-720.661773
30
0
11
526.3845
21
-720.661773
31
0
0
LINE
8
PIPES
10
-733.6155
20
-271.045773
30
0
11
-733.6255
21
-720.661773
31
0
0
CIRCLE
8
PIPE_ENDS
10
-6733.6255
20
-1271.725773
30
0
40
32
0
CIRCLE
8
PIPE_ENDS
10
-5773.6255
20
-1271.725773
30
0
40
32
0
CIRCLE
8
PIPE_ENDS
10
-4513.6255
20
-1271.725773
30
0
40
32
0
CIRCLE
8
PIPE_ENDS
10
-3253.6255
20
-1271.725773
30
0
40
32
0
CIRCLE
8
PIPE_ENDS
10
-1993.6255
20
-1271.725773
30
0
40
32
0
CIRCLE
8
PIPE_ENDS
10
-6733.6255
20
-720.625773
30
0
40
32
0
CIRCLE
8
PIPE_ENDS
10
-4513.6255
20
-720.625773
30
0
40
32
0
CIRCLE
8
PIPE_ENDS
10
-3253.6255
20
-720.625773
30
0
40
32
0
CIRCLE
8
PIPE_ENDS
10
-5773.6255
20
-720.625773
30
0
40
32
0
CIRCLE
8
PIPE_ENDS
10
-1993.6255
20
-720.625773
30
0
40
32
0
CIRCLE
8
PIPE_ENDS
10
-6733.6255
20
-271.025773
30
0
40
32
0
CIRCLE
8
PIPE_ENDS
10
-6233.6255
20
-271.025773
30
0
40
32
0
CIRCLE
8
PIPE_ENDS
10
-4513.6255
20
-271.025773
30
0
40
32
0
CIRCLE
8
PIPE_ENDS
10
-3253.6255
20
-271.025773
30
0
40
32
0
CIRCLE
8
PIPE_ENDS
10
-5773.6255
20
-271.025773
30
0
40
32
0
CIRCLE
8
PIPE_ENDS
10
-1993.6255
20
-271.025773
30
0
40
32
0
CIRCLE
8
PIPE_ENDS
10
-6733.6255
20
263.374227
30
0
40
32
0
CIRCLE
8
PIPE_ENDS
10
-6733.6255
20
853.774227
30
0
40
32
0
CIRCLE
8
PIPE_ENDS
10
526.3745
20
-1271.725773
30
0
40
32
0
CIRCLE
8
PIPE_ENDS
10
1786.3745
20
-1271.725773
30
0
40
32
0
CIRCLE
8
PIPE_ENDS
10
3046.3745
20
-1271.725773
30
0
40
32
0
CIRCLE
8
PIPE_ENDS
10
4306.3745
20
-1271.725773
30
0
40
32
0
CIRCLE
8
PIPE_ENDS
10
5266.3745
20
-1271.725773
30
0
40
32
0
CIRCLE
8
PIPE_ENDS
10
5266.3745
20
-720.625773
30
0
40
32
0
CIRCLE
8
PIPE_ENDS
10
1786.3745
20
-720.625773
30
0
40
32
0
CIRCLE
8
PIPE_ENDS
10
3046.3745
20
-720.625773
30
0
40
32
0
CIRCLE
8
PIPE_ENDS
10
526.3745
20
-720.625773
30
0
40
32
0
CIRCLE
8
PIPE_ENDS
10
4306.3745
20
-720.625773
30
0
40
32
0
CIRCLE
8
PIPE_ENDS
10
5266.3745
20
-271.025773
30
0
40
32
0
CIRCLE
8
PIPE_ENDS
10
4766.3745
20
-271.025773
30
0
40
32
0
CIRCLE
8
PIPE_ENDS
10
1786.3745
20
-271.025773
30
0
40
32
0
CIRCLE
8
PIPE_ENDS
10
3046.3745
20
-271.025773
30
0
40
32
0
CIRCLE
8
PIPE_ENDS
10
526.3745
20
-271.025773
30
0
40
32
0
CIRCLE
8
PIPE_ENDS
10
4306.3745
20
-271.025773
30
0
40
32
0
CIRCLE
8
PIPE_ENDS
10
5266.3745
20
263.374227
30
0
40
32
0
CIRCLE
8
PIPE_ENDS
10
5266.3745
20
853.774227
30
0
40
32
0
CIRCLE
8
PIPE_ENDS
10
-733.6255
20
-720.625773
30
0
40
32
0
CIRCLE
8
PIPE_ENDS
10
-733.6255
20
-1271.725773
30
0
40
32
0
LINE
8
LEVEL_GUIDE
6
DASHED
10
-6913.6245
20
-1571.725773
30
0
11
5446.3745
21
-1571.725773
31
0
0
LINE
8
LEVEL_GUIDE
6
DASHED
10
-6913.6245
20
-1271.725773
30
0
11
5446.3745
21
-1271.725773
31
0
0
LINE
8
LEVEL_GUIDE
6
DASHED
10
-6913.6245
20
-720.665773
30
0
11
5446.3745
21
-720.665773
31
0
0
LINE
8
LEVEL_GUIDE
6
DASHED
10
-6913.6245
20
-271.045773
30
0
11
5446.3745
21
-271.045773
31
0
0
LINE
8
LEVEL_GUIDE
6
DASHED
10
-6913.6245
20
263.384227
30
0
11
5446.3745
21
263.384227
31
0
0
LINE
8
LEVEL_GUIDE
6
DASHED
10
-6913.6245
20
853.814227
30
0
11
5446.3745
21
853.814227
31
0
0
LINE
8
LEVEL_GUIDE
6
DASHED
10
-6913.6245
20
1735.044227
30
0
11
5446.3745
21
1735.044227
31
0
0
LINE
8
LEVEL_GUIDE
6
DASHED
10
-6913.6245
20
2112.104227
30
0
11
5446.3745
21
2112.104227
31
0
0
LINE
8
LEVEL_GUIDE
6
DASHED
10
-6913.6245
20
2113.384227
30
0
11
5446.3745
21
2113.384227
31
0
0
LINE
8
LEVEL_GUIDE
6
DASHED
10
-6913.6245
20
2428.284227
30
0
11
5446.3745
21
2428.284227
31
0
0
LINE
8
DIMENSION
10
-6733.6255
20
-1631.725773
30
0
11
-6733.6255
21
-1951.725773
31
0
0
LINE
8
DIMENSION
10
-5773.6255
20
-1631.725773
30
0
11
-5773.6255
21
-1951.725773
31
0
0
LINE
8
DIMENSION
10
-6733.6255
20
-1951.725773
30
0
11
-5773.6255
21
-1951.725773
31
0
0
LINE
8
DIMENSION
10
-6733.6255
20
-1951.725773
30
0
11
-6797.067045
21
-1922.142494
31
0
0
LINE
8
DIMENSION
10
-6733.6255
20
-1951.725773
30
0
11
-6797.067045
21
-1981.309051
31
0
0
LINE
8
DIMENSION
10
-5773.6255
20
-1951.725773
30
0
11
-5710.183955
21
-1981.309051
31
0
0
LINE
8
DIMENSION
10
-5773.6255
20
-1951.725773
30
0
11
-5710.183955
21
-1922.142494
31
0
0
TEXT
8
DIMENSION
10
-6253.6255
20
-2121.725773
30
0
40
85
1
0.96
50
0
7
STANDARD
72
1
73
2
11
-6253.6255
21
-2121.725773
31
0
0
LINE
8
DIMENSION
10
-5773.6255
20
-1631.725773
30
0
11
-5773.6255
21
-1951.725773
31
0
0
LINE
8
DIMENSION
10
-4513.6255
20
-1631.725773
30
0
11
-4513.6255
21
-1951.725773
31
0
0
LINE
8
DIMENSION
10
-5773.6255
20
-1951.725773
30
0
11
-4513.6255
21
-1951.725773
31
0
0
LINE
8
DIMENSION
10
-5773.6255
20
-1951.725773
30
0
11
-5837.067045
21
-1922.142494
31
0
0
LINE
8
DIMENSION
10
-5773.6255
20
-1951.725773
30
0
11
-5837.067045
21
-1981.309051
31
0
0
LINE
8
DIMENSION
10
-4513.6255
20
-1951.725773
30
0
11
-4450.183955
21
-1981.309051
31
0
0
LINE
8
DIMENSION
10
-4513.6255
20
-1951.725773
30
0
11
-4450.183955
21
-1922.142494
31
0
0
TEXT
8
DIMENSION
10
-5143.6255
20
-2121.725773
30
0
40
85
1
1.26
50
0
7
STANDARD
72
1
73
2
11
-5143.6255
21
-2121.725773
31
0
0
LINE
8
DIMENSION
10
-4513.6255
20
-1631.725773
30
0
11
-4513.6255
21
-1951.725773
31
0
0
LINE
8
DIMENSION
10
-3253.6255
20
-1631.725773
30
0
11
-3253.6255
21
-1951.725773
31
0
0
LINE
8
DIMENSION
10
-4513.6255
20
-1951.725773
30
0
11
-3253.6255
21
-1951.725773
31
0
0
LINE
8
DIMENSION
10
-4513.6255
20
-1951.725773
30
0
11
-4577.067045
21
-1922.142494
31
0
0
LINE
8
DIMENSION
10
-4513.6255
20
-1951.725773
30
0
11
-4577.067045
21
-1981.309051
31
0
0
LINE
8
DIMENSION
10
-3253.6255
20
-1951.725773
30
0
11
-3190.183955
21
-1981.309051
31
0
0
LINE
8
DIMENSION
10
-3253.6255
20
-1951.725773
30
0
11
-3190.183955
21
-1922.142494
31
0
0
TEXT
8
DIMENSION
10
-3883.6255
20
-2121.725773
30
0
40
85
1
1.26
50
0
7
STANDARD
72
1
73
2
11
-3883.6255
21
-2121.725773
31
0
0
LINE
8
DIMENSION
10
-3253.6255
20
-1631.725773
30
0
11
-3253.6255
21
-1951.725773
31
0
0
LINE
8
DIMENSION
10
-733.6255
20
-1631.725773
30
0
11
-733.6255
21
-1951.725773
31
0
0
LINE
8
DIMENSION
10
-3253.6255
20
-1951.725773
30
0
11
-733.6255
21
-1951.725773
31
0
0
LINE
8
DIMENSION
10
-3253.6255
20
-1951.725773
30
0
11
-3317.067045
21
-1922.142494
31
0
0
LINE
8
DIMENSION
10
-3253.6255
20
-1951.725773
30
0
11
-3317.067045
21
-1981.309051
31
0
0
LINE
8
DIMENSION
10
-733.6255
20
-1951.725773
30
0
11
-670.183955
21
-1981.309051
31
0
0
LINE
8
DIMENSION
10
-733.6255
20
-1951.725773
30
0
11
-670.183955
21
-1922.142494
31
0
0
TEXT
8
DIMENSION
10
-1993.6255
20
-2121.725773
30
0
40
85
1
2.52
50
0
7
STANDARD
72
1
73
2
11
-1993.6255
21
-2121.725773
31
0
0
LINE
8
DIMENSION
10
-733.6255
20
-1631.725773
30
0
11
-733.6255
21
-1951.725773
31
0
0
LINE
8
DIMENSION
10
526.3845
20
-1631.725773
30
0
11
526.3845
21
-1951.725773
31
0
0
LINE
8
DIMENSION
10
-733.6255
20
-1951.725773
30
0
11
526.3845
21
-1951.725773
31
0
0
LINE
8
DIMENSION
10
-733.6255
20
-1951.725773
30
0
11
-797.067045
21
-1922.142494
31
0
0
LINE
8
DIMENSION
10
-733.6255
20
-1951.725773
30
0
11
-797.067045
21
-1981.309051
31
0
0
LINE
8
DIMENSION
10
526.3845
20
-1951.725773
30
0
11
589.826045
21
-1981.309051
31
0
0
LINE
8
DIMENSION
10
526.3845
20
-1951.725773
30
0
11
589.826045
21
-1922.142494
31
0
0
TEXT
8
DIMENSION
10
-103.6205
20
-2121.725773
30
0
40
85
1
1.26
50
0
7
STANDARD
72
1
73
2
11
-103.6205
21
-2121.725773
31
0
0
LINE
8
DIMENSION
10
526.3845
20
-1631.725773
30
0
11
526.3845
21
-1951.725773
31
0
0
LINE
8
DIMENSION
10
1786.3845
20
-1631.725773
30
0
11
1786.3845
21
-1951.725773
31
0
0
LINE
8
DIMENSION
10
526.3845
20
-1951.725773
30
0
11
1786.3845
21
-1951.725773
31
0
0
LINE
8
DIMENSION
10
526.3845
20
-1951.725773
30
0
11
462.942955
21
-1922.142494
31
0
0
LINE
8
DIMENSION
10
526.3845
20
-1951.725773
30
0
11
462.942955
21
-1981.309051
31
0
0
LINE
8
DIMENSION
10
1786.3845
20
-1951.725773
30
0
11
1849.826045
21
-1981.309051
31
0
0
LINE
8
DIMENSION
10
1786.3845
20
-1951.725773
30
0
11
1849.826045
21
-1922.142494
31
0
0
TEXT
8
DIMENSION
10
1156.3845
20
-2121.725773
30
0
40
85
1
1.26
50
0
7
STANDARD
72
1
73
2
11
1156.3845
21
-2121.725773
31
0
0
LINE
8
DIMENSION
10
1786.3845
20
-1631.725773
30
0
11
1786.3845
21
-1951.725773
31
0
0
LINE
8
DIMENSION
10
3046.3745
20
-1631.725773
30
0
11
3046.3745
21
-1951.725773
31
0
0
LINE
8
DIMENSION
10
1786.3845
20
-1951.725773
30
0
11
3046.3745
21
-1951.725773
31
0
0
LINE
8
DIMENSION
10
1786.3845
20
-1951.725773
30
0
11
1722.942955
21
-1922.142494
31
0
0
LINE
8
DIMENSION
10
1786.3845
20
-1951.725773
30
0
11
1722.942955
21
-1981.309051
31
0
0
LINE
8
DIMENSION
10
3046.3745
20
-1951.725773
30
0
11
3109.816045
21
-1981.309051
31
0
0
LINE
8
DIMENSION
10
3046.3745
20
-1951.725773
30
0
11
3109.816045
21
-1922.142494
31
0
0
TEXT
8
DIMENSION
10
2416.3795
20
-2121.725773
30
0
40
85
1
1.26
50
0
7
STANDARD
72
1
73
2
11
2416.3795
21
-2121.725773
31
0
0
LINE
8
DIMENSION
10
3046.3745
20
-1631.725773
30
0
11
3046.3745
21
-1951.725773
31
0
0
LINE
8
DIMENSION
10
4306.3745
20
-1631.725773
30
0
11
4306.3745
21
-1951.725773
31
0
0
LINE
8
DIMENSION
10
3046.3745
20
-1951.725773
30
0
11
4306.3745
21
-1951.725773
31
0
0
LINE
8
DIMENSION
10
3046.3745
20
-1951.725773
30
0
11
2982.932955
21
-1922.142494
31
0
0
LINE
8
DIMENSION
10
3046.3745
20
-1951.725773
30
0
11
2982.932955
21
-1981.309051
31
0
0
LINE
8
DIMENSION
10
4306.3745
20
-1951.725773
30
0
11
4369.816045
21
-1981.309051
31
0
0
LINE
8
DIMENSION
10
4306.3745
20
-1951.725773
30
0
11
4369.816045
21
-1922.142494
31
0
0
TEXT
8
DIMENSION
10
3676.3745
20
-2121.725773
30
0
40
85
1
1.26
50
0
7
STANDARD
72
1
73
2
11
3676.3745
21
-2121.725773
31
0
0
LINE
8
DIMENSION
10
4306.3745
20
-1631.725773
30
0
11
4306.3745
21
-1951.725773
31
0
0
LINE
8
DIMENSION
10
5266.3745
20
-1631.725773
30
0
11
5266.3745
21
-1951.725773
31
0
0
LINE
8
DIMENSION
10
4306.3745
20
-1951.725773
30
0
11
5266.3745
21
-1951.725773
31
0
0
LINE
8
DIMENSION
10
4306.3745
20
-1951.725773
30
0
11
4242.932955
21
-1922.142494
31
0
0
LINE
8
DIMENSION
10
4306.3745
20
-1951.725773
30
0
11
4242.932955
21
-1981.309051
31
0
0
LINE
8
DIMENSION
10
5266.3745
20
-1951.725773
30
0
11
5329.816045
21
-1981.309051
31
0
0
LINE
8
DIMENSION
10
5266.3745
20
-1951.725773
30
0
11
5329.816045
21
-1922.142494
31
0
0
TEXT
8
DIMENSION
10
4786.3745
20
-2121.725773
30
0
40
85
1
0.96
50
0
7
STANDARD
72
1
73
2
11
4786.3745
21
-2121.725773
31
0
0
LINE
8
DIMENSION
10
-6733.6255
20
-1631.725773
30
0
11
-6733.6255
21
-2321.725773
31
0
0
LINE
8
DIMENSION
10
5266.3745
20
-1631.725773
30
0
11
5266.3745
21
-2321.725773
31
0
0
LINE
8
DIMENSION
10
-6733.6255
20
-2321.725773
30
0
11
5266.3745
21
-2321.725773
31
0
0
LINE
8
DIMENSION
10
-6733.6255
20
-2321.725773
30
0
11
-6797.067045
21
-2292.142494
31
0
0
LINE
8
DIMENSION
10
-6733.6255
20
-2321.725773
30
0
11
-6797.067045
21
-2351.309051
31
0
0
LINE
8
DIMENSION
10
5266.3745
20
-2321.725773
30
0
11
5329.816045
21
-2351.309051
31
0
0
LINE
8
DIMENSION
10
5266.3745
20
-2321.725773
30
0
11
5329.816045
21
-2292.142494
31
0
0
TEXT
8
DIMENSION
10
-733.6255
20
-2491.725773
30
0
40
85
1
TOTAL 12
50
0
7
STANDARD
72
1
73
2
11
-733.6255
21
-2491.725773
31
0
0
LINE
8
DIMENSION
10
5326.3745
20
-1571.725773
30
0
11
5966.3745
21
-1571.725773
31
0
0
LINE
8
DIMENSION
10
5326.3745
20
-1271.725773
30
0
11
5966.3745
21
-1271.725773
31
0
0
LINE
8
DIMENSION
10
5966.3745
20
-1571.725773
30
0
11
5966.3745
21
-1271.725773
31
0
0
LINE
8
DIMENSION
10
5966.3745
20
-1571.725773
30
0
11
5936.791222
21
-1635.167318
31
0
0
LINE
8
DIMENSION
10
5966.3745
20
-1571.725773
30
0
11
5995.957778
21
-1635.167318
31
0
0
LINE
8
DIMENSION
10
5966.3745
20
-1271.725773
30
0
11
5995.957778
21
-1208.284227
31
0
0
LINE
8
DIMENSION
10
5966.3745
20
-1271.725773
30
0
11
5936.791222
21
-1208.284227
31
0
0
TEXT
8
DIMENSION
10
6136.3745
20
-1421.725773
30
0
40
85
1
0.3
50
90
7
STANDARD
72
1
73
2
11
6136.3745
21
-1421.725773
31
0
0
LINE
8
DIMENSION
10
5326.3745
20
-1271.725773
30
0
11
5966.3745
21
-1271.725773
31
0
0
LINE
8
DIMENSION
10
5326.3745
20
-720.665773
30
0
11
5966.3745
21
-720.665773
31
0
0
LINE
8
DIMENSION
10
5966.3745
20
-1271.725773
30
0
11
5966.3745
21
-720.665773
31
0
0
LINE
8
DIMENSION
10
5966.3745
20
-1271.725773
30
0
11
5936.791222
21
-1335.167318
31
0
0
LINE
8
DIMENSION
10
5966.3745
20
-1271.725773
30
0
11
5995.957778
21
-1335.167318
31
0
0
LINE
8
DIMENSION
10
5966.3745
20
-720.665773
30
0
11
5995.957778
21
-657.224227
31
0
0
LINE
8
DIMENSION
10
5966.3745
20
-720.665773
30
0
11
5936.791222
21
-657.224227
31
0
0
TEXT
8
DIMENSION
10
6136.3745
20
-996.195773
30
0
40
85
1
0.551
50
90
7
STANDARD
72
1
73
2
11
6136.3745
21
-996.195773
31
0
0
LINE
8
DIMENSION
10
5326.3745
20
-720.665773
30
0
11
5966.3745
21
-720.665773
31
0
0
LINE
8
DIMENSION
10
5326.3745
20
-271.045773
30
0
11
5966.3745
21
-271.045773
31
0
0
LINE
8
DIMENSION
10
5966.3745
20
-720.665773
30
0
11
5966.3745
21
-271.045773
31
0
0
LINE
8
DIMENSION
10
5966.3745
20
-720.665773
30
0
11
5936.791222
21
-784.107318
31
0
0
LINE
8
DIMENSION
10
5966.3745
20
-720.665773
30
0
11
5995.957778
21
-784.107318
31
0
0
LINE
8
DIMENSION
10
5966.3745
20
-271.045773
30
0
11
5995.957778
21
-207.604227
31
0
0
LINE
8
DIMENSION
10
5966.3745
20
-271.045773
30
0
11
5936.791222
21
-207.604227
31
0
0
TEXT
8
DIMENSION
10
6136.3745
20
-495.855773
30
0
40
85
1
0.45
50
90
7
STANDARD
72
1
73
2
11
6136.3745
21
-495.855773
31
0
0
LINE
8
DIMENSION
10
5326.3745
20
-271.045773
30
0
11
5966.3745
21
-271.045773
31
0
0
LINE
8
DIMENSION
10
5326.3745
20
263.384227
30
0
11
5966.3745
21
263.384227
31
0
0
LINE
8
DIMENSION
10
5966.3745
20
-271.045773
30
0
11
5966.3745
21
263.384227
31
0
0
LINE
8
DIMENSION
10
5966.3745
20
-271.045773
30
0
11
5936.791222
21
-334.487318
31
0
0
LINE
8
DIMENSION
10
5966.3745
20
-271.045773
30
0
11
5995.957778
21
-334.487318
31
0
0
LINE
8
DIMENSION
10
5966.3745
20
263.384227
30
0
11
5995.957778
21
326.825773
31
0
0
LINE
8
DIMENSION
10
5966.3745
20
263.384227
30
0
11
5936.791222
21
326.825773
31
0
0
TEXT
8
DIMENSION
10
6136.3745
20
-3.830773
30
0
40
85
1
0.534
50
90
7
STANDARD
72
1
73
2
11
6136.3745
21
-3.830773
31
0
0
LINE
8
DIMENSION
10
5326.3745
20
263.384227
30
0
11
5966.3745
21
263.384227
31
0
0
LINE
8
DIMENSION
10
5326.3745
20
853.814227
30
0
11
5966.3745
21
853.814227
31
0
0
LINE
8
DIMENSION
10
5966.3745
20
263.384227
30
0
11
5966.3745
21
853.814227
31
0
0
LINE
8
DIMENSION
10
5966.3745
20
263.384227
30
0
11
5936.791222
21
199.942682
31
0
0
LINE
8
DIMENSION
10
5966.3745
20
263.384227
30
0
11
5995.957778
21
199.942682
31
0
0
LINE
8
DIMENSION
10
5966.3745
20
853.814227
30
0
11
5995.957778
21
917.255773
31
0
0
LINE
8
DIMENSION
10
5966.3745
20
853.814227
30
0
11
5936.791222
21
917.255773
31
0
0
TEXT
8
DIMENSION
10
6136.3745
20
558.599227
30
0
40
85
1
0.59
50
90
7
STANDARD
72
1
73
2
11
6136.3745
21
558.599227
31
0
0
LINE
8
DIMENSION
10
5326.3745
20
853.814227
30
0
11
5966.3745
21
853.814227
31
0
0
LINE
8
DIMENSION
10
5326.3745
20
1735.044227
30
0
11
5966.3745
21
1735.044227
31
0
0
LINE
8
DIMENSION
10
5966.3745
20
853.814227
30
0
11
5966.3745
21
1735.044227
31
0
0
LINE
8
DIMENSION
10
5966.3745
20
853.814227
30
0
11
5936.791222
21
790.372682
31
0
0
LINE
8
DIMENSION
10
5966.3745
20
853.814227
30
0
11
5995.957778
21
790.372682
31
0
0
LINE
8
DIMENSION
10
5966.3745
20
1735.044227
30
0
11
5995.957778
21
1798.485773
31
0
0
LINE
8
DIMENSION
10
5966.3745
20
1735.044227
30
0
11
5936.791222
21
1798.485773
31
0
0
TEXT
8
DIMENSION
10
6136.3745
20
1294.429227
30
0
40
85
1
0.881
50
90
7
STANDARD
72
1
73
2
11
6136.3745
21
1294.429227
31
0
0
LINE
8
DIMENSION
10
5326.3745
20
1735.044227
30
0
11
5966.3745
21
1735.044227
31
0
0
LINE
8
DIMENSION
10
5326.3745
20
2113.384227
30
0
11
5966.3745
21
2113.384227
31
0
0
LINE
8
DIMENSION
10
5966.3745
20
1735.044227
30
0
11
5966.3745
21
2113.384227
31
0
0
LINE
8
DIMENSION
10
5966.3745
20
1735.044227
30
0
11
5936.791222
21
1671.602682
31
0
0
LINE
8
DIMENSION
10
5966.3745
20
1735.044227
30
0
11
5995.957778
21
1671.602682
31
0
0
LINE
8
DIMENSION
10
5966.3745
20
2113.384227
30
0
11
5995.957778
21
2176.825773
31
0
0
LINE
8
DIMENSION
10
5966.3745
20
2113.384227
30
0
11
5936.791222
21
2176.825773
31
0
0
TEXT
8
DIMENSION
10
6136.3745
20
1924.214227
30
0
40
85
1
0.378
50
90
7
STANDARD
72
1
73
2
11
6136.3745
21
1924.214227
31
0
0
LINE
8
DIMENSION
10
5326.3745
20
2113.384227
30
0
11
5966.3745
21
2113.384227
31
0
0
LINE
8
DIMENSION
10
5326.3745
20
2428.284227
30
0
11
5966.3745
21
2428.284227
31
0
0
LINE
8
DIMENSION
10
5966.3745
20
2113.384227
30
0
11
5966.3745
21
2428.284227
31
0
0
LINE
8
DIMENSION
10
5966.3745
20
2113.384227
30
0
11
5936.791222
21
2049.942682
31
0
0
LINE
8
DIMENSION
10
5966.3745
20
2113.384227
30
0
11
5995.957778
21
2049.942682
31
0
0
LINE
8
DIMENSION
10
5966.3745
20
2428.284227
30
0
11
5995.957778
21
2491.725773
31
0
0
LINE
8
DIMENSION
10
5966.3745
20
2428.284227
30
0
11
5936.791222
21
2491.725773
31
0
0
TEXT
8
DIMENSION
10
6136.3745
20
2270.834227
30
0
40
85
1
0.315
50
90
7
STANDARD
72
1
73
2
11
6136.3745
21
2270.834227
31
0
0
LINE
8
DIMENSION
10
5326.3745
20
-1571.725773
30
0
11
6416.3745
21
-1571.725773
31
0
0
LINE
8
DIMENSION
10
5326.3745
20
2428.284227
30
0
11
6416.3745
21
2428.284227
31
0
0
LINE
8
DIMENSION
10
6416.3745
20
-1571.725773
30
0
11
6416.3745
21
2428.284227
31
0
0
LINE
8
DIMENSION
10
6416.3745
20
-1571.725773
30
0
11
6386.791222
21
-1635.167318
31
0
0
LINE
8
DIMENSION
10
6416.3745
20
-1571.725773
30
0
11
6445.957778
21
-1635.167318
31
0
0
LINE
8
DIMENSION
10
6416.3745
20
2428.284227
30
0
11
6445.957778
21
2491.725773
31
0
0
LINE
8
DIMENSION
10
6416.3745
20
2428.284227
30
0
11
6386.791222
21
2491.725773
31
0
0
TEXT
8
DIMENSION
10
6586.3745
20
428.279227
30
0
40
85
1
TOTAL 4
50
90
7
STANDARD
72
1
73
2
11
6586.3745
21
428.279227
31
0
0
ENDSEC
0
EOF
