0
SECTION
2
HEADER
9
$ACADVER
1
AC1009
9
$INSUNITS
70
4
9
$MEASUREMENT
70
1
9
$LUNITS
70
2
9
$LUPREC
70
1
9
$TILEMODE
70
1
9
$EXTMIN
10
-3913.625
20
-2491.725773
30
0
9
$EXTMAX
10
3913.625
20
2491.725773
30
0
9
$PEXTMIN
10
-3913.625
20
-2491.725773
30
0
9
$PEXTMAX
10
3913.625
20
2491.725773
30
0
9
$LIMMIN
10
-4413.625
20
-2991.725773
9
$LIMMAX
10
4413.625
20
2991.725773
9
$PLIMMIN
10
-4413.625
20
-2991.725773
9
$PLIMMAX
10
4413.625
20
2991.725773
0
ENDSEC
0
SECTION
2
TABLES
0
TABLE
2
VPORT
70
1
0
VPORT
2
*ACTIVE
70
0
10
0
20
0
11
1
21
1
12
0
22
0
40
5983.451545
41
1.475277
42
50
43
0
44
0
50
0
51
0
71
0
72
100
73
1
74
3
75
0
76
0
77
0
78
0
0
ENDTAB
0
TABLE
2
LTYPE
70
2
0
LTYPE
2
CONTINUOUS
70
0
3
Solid line
72
65
73
0
40
0
0
LTYPE
2
DASHED
70
0
3
Dashed
72
65
73
2
40
240
49
120
74
0
49
-120
74
0
0
ENDTAB
0
TABLE
2
LAYER
70
6
0
LAYER
2
PIPES
70
0
62
5
6
CONTINUOUS
0
LAYER
2
PIPE_ENDS
70
0
62
5
6
CONTINUOUS
0
LAYER
2
DIMENSION
70
0
62
1
6
CONTINUOUS
0
LAYER
2
LEVEL_GUIDE
70
0
62
1
6
DASHED
0
LAYER
2
LEVEL_TEXT
70
0
62
1
6
CONTINUOUS
0
LAYER
2
FRAME
70
0
62
5
6
CONTINUOUS
0
ENDTAB
0
TABLE
2
STYLE
70
1
0
STYLE
2
STANDARD
70
0
40
0
41
1
50
0
71
0
42
100
3
txt
4

0
ENDTAB
0
ENDSEC
0
SECTION
2
BLOCKS
0
BLOCK
8
0
2
$MODEL_SPACE
70
0
10
0
20
0
30
0
3
$MODEL_SPACE
0
ENDBLK
8
0
0
BLOCK
67
1
8
0
2
$PAPER_SPACE
70
0
10
0
20
0
30
0
3
$PAPER_SPACE
0
ENDBLK
67
1
8
0
0
ENDSEC
0
SECTION
2
ENTITIES
0
LINE
8
PIPES
10
-3733.625
20
-1571.725773
30
0
11
-3733.625
21
-1271.724773
31
0
0
LINE
8
PIPES
10
-3733.625
20
-1271.724773
30
0
11
-3733.625
21
-720.661773
31
0
0
LINE
8
PIPES
10
-3733.625
20
-720.661773
30
0
11
-3733.625
21
-271.045773
31
0
0
LINE
8
PIPES
10
-3733.625
20
-271.045773
30
0
11
-3733.625
21
263.384227
31
0
0
LINE
8
PIPES
10
-3733.625
20
263.384227
30
0
11
-3733.625
21
853.814227
31
0
0
LINE
8
PIPES
10
-3733.625
20
1892.494227
30
0
11
-3733.625
21
853.814227
31
0
0
LINE
8
PIPES
10
-3733.625
20
1971.214227
30
0
11
-3733.625
21
853.814227
31
0
0
LINE
8
PIPES
10
-3733.625
20
2049.944227
30
0
11
-3733.625
21
853.814227
31
0
0
LINE
8
PIPES
10
-3733.625
20
853.814227
30
0
11
-3733.625
21
2128.664227
31
0
0
LINE
8
PIPES
10
2266.375
20
-1571.725773
30
0
11
2266.375
21
-1271.724773
31
0
0
LINE
8
PIPES
10
2266.375
20
-1271.724773
30
0
11
2266.375
21
-720.661773
31
0
0
LINE
8
PIPES
10
2266.375
20
-720.661773
30
0
11
2266.375
21
-271.045773
31
0
0
LINE
8
PIPES
10
2266.375
20
-271.045773
30
0
11
2266.375
21
263.384227
31
0
0
LINE
8
PIPES
10
2266.375
20
263.384227
30
0
11
2266.375
21
853.814227
31
0
0
LINE
8
PIPES
10
2266.375
20
853.814227
30
0
11
2266.375
21
1892.494227
31
0
0
LINE
8
PIPES
10
2266.375
20
1971.214227
30
0
11
2266.375
21
853.814227
31
0
0
LINE
8
PIPES
10
2266.375
20
2049.944227
30
0
11
2266.375
21
853.814227
31
0
0
LINE
8
PIPES
10
2266.375
20
2128.664227
30
0
11
2266.375
21
853.814227
31
0
0
LINE
8
PIPES
10
-2533.625
20
-1571.725773
30
0
11
-2533.625
21
-1271.724773
31
0
0
LINE
8
PIPES
10
-2533.625
20
-1271.724773
30
0
11
-2533.625
21
-720.661773
31
0
0
LINE
8
PIPES
10
-2533.625
20
-271.045773
30
0
11
-2533.625
21
-720.661773
31
0
0
LINE
8
PIPES
10
-2533.625
20
263.384227
30
0
11
-2533.625
21
-271.045773
31
0
0
LINE
8
PIPES
10
-2533.625
20
853.814227
30
0
11
-2533.625
21
263.384227
31
0
0
LINE
8
PIPES
10
-2533.625
20
853.814227
30
0
11
-2533.625
21
2128.664227
31
0
0
LINE
8
PIPES
10
1066.375
20
-1571.725773
30
0
11
1066.375
21
-1271.724773
31
0
0
LINE
8
PIPES
10
1066.375
20
-720.661773
30
0
11
1066.375
21
-1271.724773
31
0
0
LINE
8
PIPES
10
1066.375
20
-271.045773
30
0
11
1066.375
21
-720.661773
31
0
0
LINE
8
PIPES
10
1066.375
20
263.384227
30
0
11
1066.375
21
-271.045773
31
0
0
LINE
8
PIPES
10
1066.375
20
263.384227
30
0
11
1066.375
21
853.814227
31
0
0
LINE
8
PIPES
10
1066.375
20
853.814227
30
0
11
1066.375
21
2128.664227
31
0
0
LINE
8
PIPES
10
-1333.625
20
-1571.725773
30
0
11
-1333.625
21
-1271.724773
31
0
0
LINE
8
PIPES
10
-1333.625
20
-720.661773
30
0
11
-1333.625
21
-1271.724773
31
0
0
LINE
8
PIPES
10
-1333.625
20
-271.045773
30
0
11
-1333.625
21
-720.661773
31
0
0
LINE
8
PIPES
10
-1333.625
20
263.384227
30
0
11
-1333.625
21
-271.045773
31
0
0
LINE
8
PIPES
10
-1333.625
20
853.814227
30
0
11
-1333.625
21
263.384227
31
0
0
LINE
8
PIPES
10
-1333.625
20
853.814227
30
0
11
-1333.625
21
1247.434227
31
0
0
LINE
8
PIPES
10
-1333.625
20
1247.434227
30
0
11
-1333.625
21
2128.664227
31
0
0
LINE
8
PIPES
10
-1333.625
20
2144.874227
30
0
11
-1333.625
21
2428.284227
31
0
0
LINE
8
PIPES
10
-133.625
20
-1571.725773
30
0
11
-133.625
21
-1271.724773
31
0
0
LINE
8
PIPES
10
-133.625
20
-1271.724773
30
0
11
-133.625
21
-720.661773
31
0
0
LINE
8
PIPES
10
-133.625
20
-271.045773
30
0
11
-133.625
21
-720.661773
31
0
0
LINE
8
PIPES
10
-133.625
20
263.384227
30
0
11
-133.625
21
-271.045773
31
0
0
LINE
8
PIPES
10
-133.625
20
853.814227
30
0
11
-133.625
21
263.384227
31
0
0
LINE
8
PIPES
10
-133.625
20
853.814227
30
0
11
-133.625
21
1247.434227
31
0
0
LINE
8
PIPES
10
-133.625
20
1247.434227
30
0
11
-133.625
21
2128.664227
31
0
0
LINE
8
PIPES
10
-133.625
20
2144.874227
30
0
11
-133.625
21
2428.284227
31
0
0
LINE
8
PIPES
10
-3233.624
20
-720.661773
30
0
11
-3233.624
21
-271.045773
31
0
0
LINE
8
PIPES
10
1766.375
20
-720.661773
30
0
11
1766.375
21
-271.045773
31
0
0
LINE
8
PIPES
10
-3733.625
20
-1271.724773
30
0
11
-2533.625
21
-1271.724773
31
0
0
LINE
8
PIPES
10
-2533.625
20
-1271.724773
30
0
11
-1333.625
21
-1271.724773
31
0
0
LINE
8
PIPES
10
-1333.625
20
-1271.724773
30
0
11
-133.625
21
-1271.724773
31
0
0
LINE
8
PIPES
10
-133.625
20
-1271.724773
30
0
11
1066.375
21
-1271.724773
31
0
0
LINE
8
PIPES
10
1066.375
20
-1271.724773
30
0
11
2266.375
21
-1271.724773
31
0
0
LINE
8
PIPES
10
-3733.625
20
-720.661773
30
0
11
-3233.624
21
-720.661773
31
0
0
LINE
8
PIPES
10
-2533.625
20
-720.661773
30
0
11
-1333.625
21
-720.661773
31
0
0
LINE
8
PIPES
10
-1333.625
20
-720.661773
30
0
11
-133.625
21
-720.661773
31
0
0
LINE
8
PIPES
10
-133.625
20
-720.661773
30
0
11
1066.375
21
-720.661773
31
0
0
LINE
8
PIPES
10
1066.375
20
-720.661773
30
0
11
1766.375
21
-720.661773
31
0
0
LINE
8
PIPES
10
-3233.624
20
-720.661773
30
0
11
-2533.625
21
-720.661773
31
0
0
LINE
8
PIPES
10
1766.375
20
-720.661773
30
0
11
2266.375
21
-720.661773
31
0
0
LINE
8
PIPES
10
-3233.624
20
-271.045773
30
0
11
-2533.625
21
-271.045773
31
0
0
LINE
8
PIPES
10
-2533.625
20
-271.045773
30
0
11
-1333.625
21
-271.045773
31
0
0
LINE
8
PIPES
10
-133.625
20
-271.045773
30
0
11
1066.375
21
-271.045773
31
0
0
LINE
8
PIPES
10
1066.375
20
-271.045773
30
0
11
1766.375
21
-271.045773
31
0
0
LINE
8
PIPES
10
2266.375
20
-271.045773
30
0
11
1766.375
21
-271.045773
31
0
0
LINE
8
PIPES
10
-3733.625
20
-271.045773
30
0
11
-3233.624
21
-271.045773
31
0
0
LINE
8
PIPES
10
-3733.625
20
263.384227
30
0
11
-2533.625
21
263.384227
31
0
0
LINE
8
PIPES
10
-2533.625
20
263.384227
30
0
11
-1333.625
21
263.384227
31
0
0
LINE
8
PIPES
10
-133.625
20
263.384227
30
0
11
1066.375
21
263.384227
31
0
0
LINE
8
PIPES
10
1066.375
20
263.384227
30
0
11
2266.375
21
263.384227
31
0
0
LINE
8
PIPES
10
-3733.625
20
853.814227
30
0
11
-2533.625
21
853.814227
31
0
0
LINE
8
PIPES
10
-2533.625
20
853.814227
30
0
11
-1333.625
21
853.814227
31
0
0
LINE
8
PIPES
10
-133.625
20
853.814227
30
0
11
1066.375
21
853.814227
31
0
0
LINE
8
PIPES
10
1066.375
20
853.814227
30
0
11
2266.375
21
853.814227
31
0
0
LINE
8
PIPES
10
-3733.625
20
2428.284227
30
0
11
-2533.625
21
2428.284227
31
0
0
LINE
8
PIPES
10
-3733.625
20
2128.664227
30
0
11
-2533.625
21
2128.664227
31
0
0
LINE
8
PIPES
10
-2533.625
20
2428.284227
30
0
11
-1333.625
21
2428.284227
31
0
0
LINE
8
PIPES
10
-2533.625
20
2128.664227
30
0
11
-1333.625
21
2128.664227
31
0
0
LINE
8
PIPES
10
-1333.625
20
2428.284227
30
0
11
-133.625
21
2428.284227
31
0
0
LINE
8
PIPES
10
-1333.625
20
2128.664227
30
0
11
-133.625
21
2128.664227
31
0
0
LINE
8
PIPES
10
-133.625
20
2428.284227
30
0
11
1066.375
21
2428.284227
31
0
0
LINE
8
PIPES
10
-133.625
20
2128.664227
30
0
11
1066.375
21
2128.664227
31
0
0
LINE
8
PIPES
10
1066.375
20
2428.284227
30
0
11
2266.375
21
2428.284227
31
0
0
LINE
8
PIPES
10
1066.375
20
2128.664227
30
0
11
2266.375
21
2128.664227
31
0
0
LINE
8
PIPES
10
-1333.625
20
2205.094227
30
0
11
-1333.625
21
2223.694227
31
0
0
LINE
8
PIPES
10
-1333.625
20
2223.694227
30
0
11
-1333.625
21
2242.294227
31
0
0
LINE
8
PIPES
10
-1333.625
20
2242.294227
30
0
11
-1333.625
21
2260.894227
31
0
0
LINE
8
PIPES
10
-1333.625
20
2260.894227
30
0
11
-1333.625
21
2270.834227
31
0
0
LINE
8
PIPES
10
-1333.625
20
2279.494227
30
0
11
-1333.625
21
2298.094227
31
0
0
LINE
8
PIPES
10
-1333.625
20
2298.094227
30
0
11
-1333.625
21
2316.694227
31
0
0
LINE
8
PIPES
10
-1333.625
20
2316.694227
30
0
11
-1333.625
21
2335.294227
31
0
0
LINE
8
PIPES
10
-1333.625
20
2335.294227
30
0
11
-1333.625
21
2349.564227
31
0
0
LINE
8
PIPES
10
-1333.625
20
2353.884227
30
0
11
-1333.625
21
2372.484227
31
0
0
LINE
8
PIPES
10
-1333.625
20
2372.484227
30
0
11
-1333.625
21
2391.084227
31
0
0
LINE
8
PIPES
10
-1333.625
20
2391.084227
30
0
11
-1333.625
21
2409.684227
31
0
0
LINE
8
PIPES
10
-1333.625
20
2409.684227
30
0
11
-1333.625
21
2428.284227
31
0
0
LINE
8
PIPES
10
-1333.625
20
1905.474227
30
0
11
-1333.625
21
1924.074227
31
0
0
LINE
8
PIPES
10
-1333.625
20
1924.074227
30
0
11
-1333.625
21
1942.674227
31
0
0
LINE
8
PIPES
10
-1333.625
20
1942.674227
30
0
11
-1333.625
21
1961.274227
31
0
0
LINE
8
PIPES
10
-1333.625
20
1961.274227
30
0
11
-1333.625
21
1971.214227
31
0
0
LINE
8
PIPES
10
-1333.625
20
1979.874227
30
0
11
-1333.625
21
1998.474227
31
0
0
LINE
8
PIPES
10
-1333.625
20
1998.474227
30
0
11
-1333.625
21
2017.074227
31
0
0
LINE
8
PIPES
10
-1333.625
20
2017.074227
30
0
11
-1333.625
21
2035.664227
31
0
0
LINE
8
PIPES
10
-1333.625
20
2035.664227
30
0
11
-1333.625
21
2049.944227
31
0
0
LINE
8
PIPES
10
-1333.625
20
2054.264227
30
0
11
-1333.625
21
2072.864227
31
0
0
LINE
8
PIPES
10
-1333.625
20
2072.864227
30
0
11
-1333.625
21
2091.464227
31
0
0
LINE
8
PIPES
10
-1333.625
20
2091.464227
30
0
11
-1333.625
21
2110.064227
31
0
0
LINE
8
PIPES
10
-1333.625
20
2110.064227
30
0
11
-1333.625
21
2128.664227
31
0
0
LINE
8
PIPES
10
-1333.625
20
2128.664227
30
0
11
-1333.625
21
2144.874227
31
0
0
LINE
8
PIPES
10
-1333.625
20
2205.094227
30
0
11
-1333.625
21
1905.474227
31
0
0
LINE
8
PIPES
10
-1333.625
20
2223.694227
30
0
11
-1333.625
21
1924.074227
31
0
0
LINE
8
PIPES
10
-1333.625
20
2242.294227
30
0
11
-1333.625
21
1942.674227
31
0
0
LINE
8
PIPES
10
-1333.625
20
2260.894227
30
0
11
-1333.625
21
1961.274227
31
0
0
LINE
8
PIPES
10
-1333.625
20
2279.494227
30
0
11
-1333.625
21
1979.874227
31
0
0
LINE
8
PIPES
10
-1333.625
20
2298.094227
30
0
11
-1333.625
21
1998.474227
31
0
0
LINE
8
PIPES
10
-1333.625
20
2316.694227
30
0
11
-1333.625
21
2017.074227
31
0
0
LINE
8
PIPES
10
-1333.625
20
2335.294227
30
0
11
-1333.625
21
2035.664227
31
0
0
LINE
8
PIPES
10
-1333.625
20
2353.884227
30
0
11
-1333.625
21
2054.264227
31
0
0
LINE
8
PIPES
10
-1333.625
20
2372.484227
30
0
11
-1333.625
21
2072.864227
31
0
0
LINE
8
PIPES
10
-1333.625
20
2391.084227
30
0
11
-1333.625
21
2091.464227
31
0
0
LINE
8
PIPES
10
-1333.625
20
2409.684227
30
0
11
-1333.625
21
2110.064227
31
0
0
LINE
8
PIPES
10
-133.625
20
2205.094227
30
0
11
-133.625
21
2223.694227
31
0
0
LINE
8
PIPES
10
-133.625
20
2223.694227
30
0
11
-133.625
21
2242.294227
31
0
0
LINE
8
PIPES
10
-133.625
20
2242.294227
30
0
11
-133.625
21
2260.894227
31
0
0
LINE
8
PIPES
10
-133.625
20
2260.894227
30
0
11
-133.625
21
2270.834227
31
0
0
LINE
8
PIPES
10
-133.625
20
2279.494227
30
0
11
-133.625
21
2298.094227
31
0
0
LINE
8
PIPES
10
-133.625
20
2298.094227
30
0
11
-133.625
21
2316.694227
31
0
0
LINE
8
PIPES
10
-133.625
20
2316.694227
30
0
11
-133.625
21
2335.294227
31
0
0
LINE
8
PIPES
10
-133.625
20
2335.294227
30
0
11
-133.625
21
2349.564227
31
0
0
LINE
8
PIPES
10
-133.625
20
2353.884227
30
0
11
-133.625
21
2372.484227
31
0
0
LINE
8
PIPES
10
-133.625
20
2372.484227
30
0
11
-133.625
21
2391.084227
31
0
0
LINE
8
PIPES
10
-133.625
20
2391.084227
30
0
11
-133.625
21
2409.684227
31
0
0
LINE
8
PIPES
10
-133.625
20
2409.684227
30
0
11
-133.625
21
2428.284227
31
0
0
LINE
8
PIPES
10
-133.625
20
1905.474227
30
0
11
-133.625
21
1924.074227
31
0
0
LINE
8
PIPES
10
-133.625
20
1924.074227
30
0
11
-133.625
21
1942.674227
31
0
0
LINE
8
PIPES
10
-133.625
20
1942.674227
30
0
11
-133.625
21
1961.274227
31
0
0
LINE
8
PIPES
10
-133.625
20
1961.274227
30
0
11
-133.625
21
1971.214227
31
0
0
LINE
8
PIPES
10
-133.625
20
1979.874227
30
0
11
-133.625
21
1998.474227
31
0
0
LINE
8
PIPES
10
-133.625
20
1998.474227
30
0
11
-133.625
21
2017.074227
31
0
0
LINE
8
PIPES
10
-133.625
20
2017.074227
30
0
11
-133.625
21
2035.664227
31
0
0
LINE
8
PIPES
10
-133.625
20
2035.664227
30
0
11
-133.625
21
2049.944227
31
0
0
LINE
8
PIPES
10
-133.625
20
2054.264227
30
0
11
-133.625
21
2072.864227
31
0
0
LINE
8
PIPES
10
-133.625
20
2072.864227
30
0
11
-133.625
21
2091.464227
31
0
0
LINE
8
PIPES
10
-133.625
20
2091.464227
30
0
11
-133.625
21
2110.064227
31
0
0
LINE
8
PIPES
10
-133.625
20
2110.064227
30
0
11
-133.625
21
2128.664227
31
0
0
LINE
8
PIPES
10
-133.625
20
2128.664227
30
0
11
-133.625
21
2144.874227
31
0
0
LINE
8
PIPES
10
-133.625
20
2205.094227
30
0
11
-133.625
21
1905.474227
31
0
0
LINE
8
PIPES
10
-133.625
20
2223.694227
30
0
11
-133.625
21
1924.074227
31
0
0
LINE
8
PIPES
10
-133.625
20
2242.294227
30
0
11
-133.625
21
1942.674227
31
0
0
LINE
8
PIPES
10
-133.625
20
2260.894227
30
0
11
-133.625
21
1961.274227
31
0
0
LINE
8
PIPES
10
-133.625
20
2279.494227
30
0
11
-133.625
21
1979.874227
31
0
0
LINE
8
PIPES
10
-133.625
20
2298.094227
30
0
11
-133.625
21
1998.474227
31
0
0
LINE
8
PIPES
10
-133.625
20
2316.694227
30
0
11
-133.625
21
2017.074227
31
0
0
LINE
8
PIPES
10
-133.625
20
2335.294227
30
0
11
-133.625
21
2035.664227
31
0
0
LINE
8
PIPES
10
-133.625
20
2353.884227
30
0
11
-133.625
21
2054.264227
31
0
0
LINE
8
PIPES
10
-133.625
20
2372.484227
30
0
11
-133.625
21
2072.864227
31
0
0
LINE
8
PIPES
10
-133.625
20
2391.084227
30
0
11
-133.625
21
2091.464227
31
0
0
LINE
8
PIPES
10
-133.625
20
2409.684227
30
0
11
-133.625
21
2110.064227
31
0
0
LINE
8
PIPES
10
-3733.625
20
853.814227
30
0
11
-3733.625
21
-271.045773
31
0
0
LINE
8
PIPES
10
-3733.625
20
-271.045773
30
0
11
-3733.625
21
-1571.725773
31
0
0
LINE
8
PIPES
10
-1333.625
20
1247.434227
30
0
11
-133.625
21
1247.434227
31
0
0
LINE
8
PIPES
10
-3733.625
20
-720.661773
30
0
11
-2533.625
21
-1271.724773
31
0
0
LINE
8
PIPES
10
-2533.625
20
-1271.724773
30
0
11
-1333.625
21
-720.661773
31
0
0
LINE
8
PIPES
10
-1333.625
20
-720.661773
30
0
11
-133.625
21
-1271.724773
31
0
0
LINE
8
PIPES
10
-133.625
20
-1271.724773
30
0
11
1066.375
21
-720.661773
31
0
0
LINE
8
PIPES
10
1066.375
20
-720.661773
30
0
11
2266.375
21
-1271.724773
31
0
0
LINE
8
PIPES
10
-3733.625
20
-1271.724773
30
0
11
-2533.625
21
-720.661773
31
0
0
LINE
8
PIPES
10
-2533.625
20
-720.661773
30
0
11
-1333.625
21
-1271.724773
31
0
0
LINE
8
PIPES
10
-1333.625
20
-1271.724773
30
0
11
-133.625
21
-720.661773
31
0
0
LINE
8
PIPES
10
-133.625
20
-720.661773
30
0
11
1066.375
21
-1271.724773
31
0
0
LINE
8
PIPES
10
1066.375
20
-1271.724773
30
0
11
2266.375
21
-720.661773
31
0
0
LINE
8
PIPES
10
-3733.625
20
1892.494227
30
0
11
-3733.625
21
1971.214227
31
0
0
LINE
8
PIPES
10
-3733.625
20
1971.214227
30
0
11
-3733.625
21
2049.944227
31
0
0
LINE
8
PIPES
10
-3733.625
20
2049.944227
30
0
11
-3733.625
21
2128.664227
31
0
0
LINE
8
PIPES
10
-3733.625
20
2192.114227
30
0
11
-3733.625
21
2270.834227
31
0
0
LINE
8
PIPES
10
-3733.625
20
2270.834227
30
0
11
-3733.625
21
2349.564227
31
0
0
LINE
8
PIPES
10
-3733.625
20
2349.564227
30
0
11
-3733.625
21
2428.284227
31
0
0
LINE
8
PIPES
10
2266.375
20
1892.494227
30
0
11
2266.375
21
1971.214227
31
0
0
LINE
8
PIPES
10
2266.375
20
1971.214227
30
0
11
2266.375
21
2049.944227
31
0
0
LINE
8
PIPES
10
2266.375
20
2049.944227
30
0
11
2266.375
21
2128.664227
31
0
0
LINE
8
PIPES
10
2266.375
20
2192.114227
30
0
11
2266.375
21
2270.834227
31
0
0
LINE
8
PIPES
10
2266.375
20
2270.834227
30
0
11
2266.375
21
2349.564227
31
0
0
LINE
8
PIPES
10
2266.375
20
2349.564227
30
0
11
2266.375
21
2428.284227
31
0
0
LINE
8
PIPES
10
2266.375
20
853.814227
30
0
11
2266.375
21
-271.045773
31
0
0
LINE
8
PIPES
10
2266.375
20
-271.045773
30
0
11
2266.375
21
-1571.725773
31
0
0
LINE
8
PIPES
10
-133.625
20
2144.874227
30
0
11
-1333.625
21
1247.434227
31
0
0
LINE
8
PIPES
10
-2533.625
20
2128.664227
30
0
11
-3733.625
21
853.814227
31
0
0
LINE
8
PIPES
10
-3733.625
20
853.814227
30
0
11
-2533.625
21
-271.045773
31
0
0
LINE
8
PIPES
10
-2533.625
20
-271.045773
30
0
11
-3733.625
21
-1571.725773
31
0
0
LINE
8
PIPES
10
-1333.625
20
2144.874227
30
0
11
-2533.625
21
853.814227
31
0
0
LINE
8
PIPES
10
-2533.625
20
853.814227
30
0
11
-1333.625
21
-271.045773
31
0
0
LINE
8
PIPES
10
-1333.625
20
-271.045773
30
0
11
-2533.625
21
-1571.725773
31
0
0
LINE
8
PIPES
10
1066.375
20
2128.664227
30
0
11
-133.625
21
853.814227
31
0
0
LINE
8
PIPES
10
-133.625
20
853.814227
30
0
11
1066.375
21
-271.045773
31
0
0
LINE
8
PIPES
10
1066.375
20
-271.045773
30
0
11
-133.625
21
-1571.725773
31
0
0
LINE
8
PIPES
10
2266.375
20
2128.664227
30
0
11
1066.375
21
853.814227
31
0
0
LINE
8
PIPES
10
1066.375
20
853.814227
30
0
11
2266.375
21
-271.045773
31
0
0
LINE
8
PIPES
10
1066.375
20
-1571.725773
30
0
11
2266.375
21
-271.045773
31
0
0
LINE
8
PIPES
10
-3733.625
20
1892.494227
30
0
11
-3733.625
21
2192.114227
31
0
0
LINE
8
PIPES
10
-3733.625
20
1971.214227
30
0
11
-3733.625
21
2270.834227
31
0
0
LINE
8
PIPES
10
-3733.625
20
2049.944227
30
0
11
-3733.625
21
2349.564227
31
0
0
LINE
8
PIPES
10
-3733.625
20
2128.664227
30
0
11
-3733.625
21
2428.284227
31
0
0
LINE
8
PIPES
10
2266.375
20
1892.494227
30
0
11
2266.375
21
2192.114227
31
0
0
LINE
8
PIPES
10
2266.375
20
1971.214227
30
0
11
2266.375
21
2270.834227
31
0
0
LINE
8
PIPES
10
2266.375
20
2049.944227
30
0
11
2266.375
21
2349.564227
31
0
0
LINE
8
PIPES
10
2266.375
20
2128.664227
30
0
11
2266.375
21
2428.284227
31
0
0
LINE
8
PIPES
10
-2533.625
20
2128.664227
30
0
11
-2533.625
21
2428.284227
31
0
0
LINE
8
PIPES
10
1066.375
20
2128.664227
30
0
11
1066.375
21
2428.284227
31
0
0
LINE
8
PIPES
10
-3733.625
20
2192.114227
30
0
11
-2533.625
21
2192.114227
31
0
0
LINE
8
PIPES
10
-3733.625
20
1892.494227
30
0
11
-2533.625
21
1892.494227
31
0
0
LINE
8
PIPES
10
-3733.625
20
2270.834227
30
0
11
-2533.625
21
2270.834227
31
0
0
LINE
8
PIPES
10
-3733.625
20
1971.214227
30
0
11
-2533.625
21
1971.214227
31
0
0
LINE
8
PIPES
10
-3733.625
20
2349.564227
30
0
11
-2533.625
21
2349.564227
31
0
0
LINE
8
PIPES
10
-3733.625
20
2049.944227
30
0
11
-2533.625
21
2049.944227
31
0
0
LINE
8
PIPES
10
-2533.625
20
1892.494227
30
0
11
-2533.625
21
2192.114227
31
0
0
LINE
8
PIPES
10
-2533.625
20
1971.214227
30
0
11
-2533.625
21
2270.834227
31
0
0
LINE
8
PIPES
10
-2533.625
20
2049.944227
30
0
11
-2533.625
21
2349.564227
31
0
0
LINE
8
PIPES
10
-1333.625
20
2192.114227
30
0
11
-1333.625
21
2205.094227
31
0
0
LINE
8
PIPES
10
-2533.625
20
2192.114227
30
0
11
-1333.625
21
2192.114227
31
0
0
LINE
8
PIPES
10
-1333.625
20
1892.494227
30
0
11
-1333.625
21
1905.474227
31
0
0
LINE
8
PIPES
10
-2533.625
20
1892.494227
30
0
11
-1333.625
21
1892.494227
31
0
0
LINE
8
PIPES
10
-1333.625
20
2270.834227
30
0
11
-1333.625
21
2279.494227
31
0
0
LINE
8
PIPES
10
-2533.625
20
2270.834227
30
0
11
-1333.625
21
2270.834227
31
0
0
LINE
8
PIPES
10
-1333.625
20
1971.214227
30
0
11
-1333.625
21
1979.874227
31
0
0
LINE
8
PIPES
10
-2533.625
20
1971.214227
30
0
11
-1333.625
21
1971.214227
31
0
0
LINE
8
PIPES
10
-1333.625
20
2349.564227
30
0
11
-1333.625
21
2353.884227
31
0
0
LINE
8
PIPES
10
-2533.625
20
2349.564227
30
0
11
-1333.625
21
2349.564227
31
0
0
LINE
8
PIPES
10
-1333.625
20
2049.944227
30
0
11
-1333.625
21
2054.264227
31
0
0
LINE
8
PIPES
10
-2533.625
20
2049.944227
30
0
11
-1333.625
21
2049.944227
31
0
0
LINE
8
PIPES
10
-1333.625
20
1892.494227
30
0
11
-1333.625
21
2192.114227
31
0
0
LINE
8
PIPES
10
-1333.625
20
1971.214227
30
0
11
-1333.625
21
2270.834227
31
0
0
LINE
8
PIPES
10
-1333.625
20
2049.944227
30
0
11
-1333.625
21
2349.564227
31
0
0
LINE
8
PIPES
10
-133.625
20
2192.114227
30
0
11
-133.625
21
2205.094227
31
0
0
LINE
8
PIPES
10
-1333.625
20
2192.114227
30
0
11
-133.625
21
2192.114227
31
0
0
LINE
8
PIPES
10
-133.625
20
1892.494227
30
0
11
-133.625
21
1905.474227
31
0
0
LINE
8
PIPES
10
-1333.625
20
1892.494227
30
0
11
-133.625
21
1892.494227
31
0
0
LINE
8
PIPES
10
-133.625
20
2270.834227
30
0
11
-133.625
21
2279.494227
31
0
0
LINE
8
PIPES
10
-1333.625
20
2270.834227
30
0
11
-133.625
21
2270.834227
31
0
0
LINE
8
PIPES
10
-133.625
20
1971.214227
30
0
11
-133.625
21
1979.874227
31
0
0
LINE
8
PIPES
10
-1333.625
20
1971.214227
30
0
11
-133.625
21
1971.214227
31
0
0
LINE
8
PIPES
10
-133.625
20
2349.564227
30
0
11
-133.625
21
2353.884227
31
0
0
LINE
8
PIPES
10
-1333.625
20
2349.564227
30
0
11
-133.625
21
2349.564227
31
0
0
LINE
8
PIPES
10
-133.625
20
2049.944227
30
0
11
-133.625
21
2054.264227
31
0
0
LINE
8
PIPES
10
-1333.625
20
2049.944227
30
0
11
-133.625
21
2049.944227
31
0
0
LINE
8
PIPES
10
-133.625
20
1892.494227
30
0
11
-133.625
21
2192.114227
31
0
0
LINE
8
PIPES
10
-133.625
20
1971.214227
30
0
11
-133.625
21
2270.834227
31
0
0
LINE
8
PIPES
10
-133.625
20
2049.944227
30
0
11
-133.625
21
2349.564227
31
0
0
LINE
8
PIPES
10
-133.625
20
2192.114227
30
0
11
1066.385
21
2192.114227
31
0
0
LINE
8
PIPES
10
-133.625
20
1892.494227
30
0
11
1066.385
21
1892.494227
31
0
0
LINE
8
PIPES
10
-133.625
20
2270.834227
30
0
11
1066.385
21
2270.834227
31
0
0
LINE
8
PIPES
10
-133.625
20
1971.214227
30
0
11
1066.385
21
1971.214227
31
0
0
LINE
8
PIPES
10
-133.625
20
2349.564227
30
0
11
1066.385
21
2349.564227
31
0
0
LINE
8
PIPES
10
-133.625
20
2049.944227
30
0
11
1066.385
21
2049.944227
31
0
0
LINE
8
PIPES
10
1066.385
20
1892.494227
30
0
11
1066.385
21
2192.114227
31
0
0
LINE
8
PIPES
10
1066.385
20
1971.214227
30
0
11
1066.385
21
2270.834227
31
0
0
LINE
8
PIPES
10
1066.385
20
2049.944227
30
0
11
1066.385
21
2349.564227
31
0
0
LINE
8
PIPES
10
1066.385
20
2192.114227
30
0
11
2266.375
21
2192.114227
31
0
0
LINE
8
PIPES
10
1066.385
20
1892.494227
30
0
11
2266.375
21
1892.494227
31
0
0
LINE
8
PIPES
10
1066.385
20
2270.834227
30
0
11
2266.375
21
2270.834227
31
0
0
LINE
8
PIPES
10
1066.385
20
1971.214227
30
0
11
2266.375
21
1971.214227
31
0
0
LINE
8
PIPES
10
1066.385
20
2349.564227
30
0
11
2266.375
21
2349.564227
31
0
0
LINE
8
PIPES
10
1066.385
20
2049.944227
30
0
11
2266.375
21
2049.944227
31
0
0
LINE
8
PIPES
10
-2533.625
20
2270.834227
30
0
11
-2533.625
21
2192.114227
31
0
0
LINE
8
PIPES
10
-2533.625
20
2270.834227
30
0
11
-2533.625
21
2349.564227
31
0
0
LINE
8
PIPES
10
-2533.625
20
2349.564227
30
0
11
-2533.625
21
2428.284227
31
0
0
LINE
8
PIPES
10
-2533.625
20
1892.494227
30
0
11
-2533.625
21
1971.214227
31
0
0
LINE
8
PIPES
10
-2533.625
20
1971.214227
30
0
11
-2533.625
21
2049.944227
31
0
0
LINE
8
PIPES
10
-2533.625
20
2049.944227
30
0
11
-2533.625
21
2128.664227
31
0
0
LINE
8
PIPES
10
1066.385
20
1892.494227
30
0
11
1066.385
21
1971.214227
31
0
0
LINE
8
PIPES
10
1066.385
20
1971.214227
30
0
11
1066.385
21
2049.944227
31
0
0
LINE
8
PIPES
10
1066.385
20
2049.944227
30
0
11
1066.375
21
2128.664227
31
0
0
LINE
8
PIPES
10
1066.385
20
2192.114227
30
0
11
1066.385
21
2270.834227
31
0
0
LINE
8
PIPES
10
1066.385
20
2270.834227
30
0
11
1066.385
21
2349.564227
31
0
0
LINE
8
PIPES
10
1066.385
20
2349.564227
30
0
11
1066.375
21
2428.284227
31
0
0
LINE
8
PIPES
10
-3733.625
20
2192.114227
30
0
11
-2533.625
21
1892.494227
31
0
0
LINE
8
PIPES
10
-2533.625
20
1892.494227
30
0
11
-1333.625
21
2192.114227
31
0
0
LINE
8
PIPES
10
-1333.625
20
2192.114227
30
0
11
-133.625
21
1892.494227
31
0
0
LINE
8
PIPES
10
-133.625
20
1892.494227
30
0
11
1066.385
21
2192.114227
31
0
0
LINE
8
PIPES
10
1066.385
20
2192.114227
30
0
11
2266.375
21
1892.494227
31
0
0
LINE
8
PIPES
10
-3733.625
20
1971.214227
30
0
11
-2533.625
21
2270.834227
31
0
0
LINE
8
PIPES
10
-2533.625
20
2270.834227
30
0
11
-1333.625
21
1971.214227
31
0
0
LINE
8
PIPES
10
-1333.625
20
1971.214227
30
0
11
-133.625
21
2270.834227
31
0
0
LINE
8
PIPES
10
-133.625
20
2270.834227
30
0
11
1066.385
21
1971.214227
31
0
0
LINE
8
PIPES
10
2266.375
20
2270.834227
30
0
11
1066.385
21
1971.214227
31
0
0
LINE
8
PIPES
10
-3733.625
20
2349.564227
30
0
11
-2533.625
21
2049.944227
31
0
0
LINE
8
PIPES
10
-2533.625
20
2049.944227
30
0
11
-1333.625
21
2349.564227
31
0
0
LINE
8
PIPES
10
-1333.625
20
2349.564227
30
0
11
-133.625
21
2049.944227
31
0
0
LINE
8
PIPES
10
-133.625
20
2049.944227
30
0
11
1066.385
21
2349.564227
31
0
0
LINE
8
PIPES
10
1066.385
20
2349.564227
30
0
11
2266.375
21
2049.944227
31
0
0
LINE
8
PIPES
10
-3733.625
20
2128.664227
30
0
11
-2533.625
21
2428.284227
31
0
0
LINE
8
PIPES
10
-2533.625
20
2428.284227
30
0
11
-1333.625
21
2144.874227
31
0
0
LINE
8
PIPES
10
-1333.625
20
2128.664227
30
0
11
-133.625
21
2428.284227
31
0
0
LINE
8
PIPES
10
-133.625
20
2428.284227
30
0
11
1066.375
21
2128.664227
31
0
0
LINE
8
PIPES
10
1066.375
20
2128.664227
30
0
11
2266.375
21
2428.284227
31
0
0
LINE
8
PIPES
10
-3733.625
20
2192.114227
30
0
11
-3733.625
21
1971.214227
31
0
0
LINE
8
PIPES
10
-3733.625
20
1971.214227
30
0
11
-3733.625
21
2349.564227
31
0
0
LINE
8
PIPES
10
-3733.625
20
2349.564227
30
0
11
-3733.625
21
2128.664227
31
0
0
LINE
8
PIPES
10
-2533.625
20
1892.494227
30
0
11
-2533.625
21
2270.834227
31
0
0
LINE
8
PIPES
10
-2533.625
20
2270.834227
30
0
11
-2533.625
21
2049.944227
31
0
0
LINE
8
PIPES
10
-2533.625
20
2049.944227
30
0
11
-2533.625
21
2428.284227
31
0
0
LINE
8
PIPES
10
1066.385
20
2192.114227
30
0
11
1066.385
21
1971.214227
31
0
0
LINE
8
PIPES
10
1066.385
20
1971.214227
30
0
11
1066.385
21
2349.564227
31
0
0
LINE
8
PIPES
10
1066.385
20
2349.564227
30
0
11
1066.375
21
2128.664227
31
0
0
LINE
8
PIPES
10
2266.375
20
1892.494227
30
0
11
2266.375
21
2270.834227
31
0
0
LINE
8
PIPES
10
2266.375
20
2270.834227
30
0
11
2266.375
21
2049.944227
31
0
0
LINE
8
PIPES
10
2266.375
20
2049.944227
30
0
11
2266.375
21
2428.284227
31
0
0
LINE
8
PIPES
10
-3733.625
20
2192.114227
30
0
11
-2533.625
21
2270.834227
31
0
0
LINE
8
PIPES
10
-2533.625
20
2270.834227
30
0
11
-3733.625
21
2349.564227
31
0
0
LINE
8
PIPES
10
-3733.625
20
2349.564227
30
0
11
-2533.625
21
2428.284227
31
0
0
LINE
8
PIPES
10
-2533.625
20
2192.114227
30
0
11
-1333.625
21
2270.834227
31
0
0
LINE
8
PIPES
10
-1333.625
20
2270.834227
30
0
11
-2533.625
21
2349.564227
31
0
0
LINE
8
PIPES
10
-2533.625
20
2349.564227
30
0
11
-1333.625
21
2428.284227
31
0
0
LINE
8
PIPES
10
-1333.625
20
2192.114227
30
0
11
-133.625
21
2270.834227
31
0
0
LINE
8
PIPES
10
-133.625
20
2270.834227
30
0
11
-1333.625
21
2349.564227
31
0
0
LINE
8
PIPES
10
-1333.625
20
2349.564227
30
0
11
-133.625
21
2428.284227
31
0
0
LINE
8
PIPES
10
-133.625
20
2192.114227
30
0
11
1066.385
21
2270.834227
31
0
0
LINE
8
PIPES
10
1066.385
20
2270.834227
30
0
11
-133.625
21
2349.564227
31
0
0
LINE
8
PIPES
10
-133.625
20
2349.564227
30
0
11
1066.375
21
2428.284227
31
0
0
LINE
8
PIPES
10
1066.385
20
2192.114227
30
0
11
2266.375
21
2270.834227
31
0
0
LINE
8
PIPES
10
2266.375
20
2270.834227
30
0
11
1066.385
21
2349.564227
31
0
0
LINE
8
PIPES
10
1066.385
20
2349.564227
30
0
11
2266.375
21
2428.284227
31
0
0
LINE
8
PIPES
10
-2533.625
20
1892.494227
30
0
11
-3733.625
21
1971.214227
31
0
0
LINE
8
PIPES
10
-3733.625
20
1971.214227
30
0
11
-2533.625
21
2049.944227
31
0
0
LINE
8
PIPES
10
-2533.625
20
2049.944227
30
0
11
-3733.625
21
2128.664227
31
0
0
LINE
8
PIPES
10
-1333.625
20
1892.494227
30
0
11
-2533.625
21
1971.214227
31
0
0
LINE
8
PIPES
10
-2533.625
20
1971.214227
30
0
11
-1333.625
21
2049.944227
31
0
0
LINE
8
PIPES
10
-1333.625
20
2049.944227
30
0
11
-2533.625
21
2128.664227
31
0
0
LINE
8
PIPES
10
-133.625
20
1892.494227
30
0
11
-1333.625
21
1971.214227
31
0
0
LINE
8
PIPES
10
-1333.625
20
1971.214227
30
0
11
-133.625
21
2049.944227
31
0
0
LINE
8
PIPES
10
-133.625
20
2049.944227
30
0
11
-1333.625
21
2128.664227
31
0
0
LINE
8
PIPES
10
1066.385
20
1892.494227
30
0
11
-133.625
21
1971.214227
31
0
0
LINE
8
PIPES
10
-133.625
20
1971.214227
30
0
11
1066.385
21
2049.944227
31
0
0
LINE
8
PIPES
10
1066.385
20
2049.944227
30
0
11
-133.625
21
2128.664227
31
0
0
LINE
8
PIPES
10
2266.375
20
1892.494227
30
0
11
1066.385
21
1971.214227
31
0
0
LINE
8
PIPES
10
1066.385
20
1971.214227
30
0
11
2266.375
21
2049.944227
31
0
0
LINE
8
PIPES
10
2266.375
20
2049.944227
30
0
11
1066.375
21
2128.664227
31
0
0
LINE
8
PIPES
10
-2533.625
20
1892.494227
30
0
11
-2533.625
21
853.814227
31
0
0
LINE
8
PIPES
10
-1333.625
20
1892.494227
30
0
11
-1333.625
21
853.814227
31
0
0
LINE
8
PIPES
10
-133.625
20
1892.494227
30
0
11
-133.625
21
853.814227
31
0
0
LINE
8
PIPES
10
1066.385
20
1892.494227
30
0
11
1066.385
21
853.814227
31
0
0
LINE
8
PIPES
10
-1333.625
20
263.384227
30
0
11
-133.625
21
263.384227
31
0
0
LINE
8
PIPES
10
-1333.625
20
853.814227
30
0
11
-133.625
21
853.814227
31
0
0
LINE
8
PIPES
10
1066.385
20
853.814227
30
0
11
1066.375
21
263.384227
31
0
0
LINE
8
PIPES
10
-133.625
20
853.814227
30
0
11
1066.385
21
853.814227
31
0
0
LINE
8
PIPES
10
1066.385
20
853.814227
30
0
11
2266.375
21
853.814227
31
0
0
LINE
8
PIPES
10
-1333.625
20
-271.045773
30
0
11
-133.625
21
-271.045773
31
0
0
LINE
8
PIPES
10
-3733.625
20
1892.494227
30
0
11
-2533.625
21
853.814227
31
0
0
LINE
8
PIPES
10
-2533.625
20
853.814227
30
0
11
-3733.625
21
-271.045773
31
0
0
LINE
8
PIPES
10
-3733.625
20
-271.045773
30
0
11
-2533.625
21
-1571.725773
31
0
0
LINE
8
PIPES
10
-2533.625
20
1892.494227
30
0
11
-1333.625
21
853.814227
31
0
0
LINE
8
PIPES
10
-1333.625
20
853.814227
30
0
11
-2533.625
21
-271.045773
31
0
0
LINE
8
PIPES
10
-2533.625
20
-271.045773
30
0
11
-1333.625
21
-1571.725773
31
0
0
LINE
8
PIPES
10
-1333.625
20
1892.494227
30
0
11
-133.625
21
853.814227
31
0
0
LINE
8
PIPES
10
-133.625
20
853.814227
30
0
11
-1333.625
21
-271.045773
31
0
0
LINE
8
PIPES
10
-1333.625
20
-271.045773
30
0
11
-133.625
21
-1571.725773
31
0
0
LINE
8
PIPES
10
-133.625
20
1892.494227
30
0
11
1066.385
21
853.814227
31
0
0
LINE
8
PIPES
10
1066.385
20
853.814227
30
0
11
-133.625
21
-271.045773
31
0
0
LINE
8
PIPES
10
-133.625
20
-271.045773
30
0
11
1066.375
21
-1571.725773
31
0
0
LINE
8
PIPES
10
1066.385
20
1892.494227
30
0
11
2266.375
21
853.814227
31
0
0
LINE
8
PIPES
10
2266.375
20
853.814227
30
0
11
1066.375
21
-271.045773
31
0
0
LINE
8
PIPES
10
1066.375
20
-271.045773
30
0
11
2266.375
21
-1571.725773
31
0
0
CIRCLE
8
PIPE_ENDS
10
-3733.625
20
-1271.725773
30
0
40
32
0
CIRCLE
8
PIPE_ENDS
10
-2533.625
20
-1271.725773
30
0
40
32
0
CIRCLE
8
PIPE_ENDS
10
-1333.625
20
-1271.725773
30
0
40
32
0
CIRCLE
8
PIPE_ENDS
10
-133.625
20
-1271.725773
30
0
40
32
0
CIRCLE
8
PIPE_ENDS
10
1066.375
20
-1271.725773
30
0
40
32
0
CIRCLE
8
PIPE_ENDS
10
2266.375
20
-1271.725773
30
0
40
32
0
CIRCLE
8
PIPE_ENDS
10
-3733.625
20
-720.625773
30
0
40
32
0
CIRCLE
8
PIPE_ENDS
10
2266.375
20
-720.625773
30
0
40
32
0
CIRCLE
8
PIPE_ENDS
10
-1333.625
20
-720.625773
30
0
40
32
0
CIRCLE
8
PIPE_ENDS
10
-133.625
20
-720.625773
30
0
40
32
0
CIRCLE
8
PIPE_ENDS
10
-2533.625
20
-720.625773
30
0
40
32
0
CIRCLE
8
PIPE_ENDS
10
1066.375
20
-720.625773
30
0
40
32
0
CIRCLE
8
PIPE_ENDS
10
-3233.625
20
-720.625773
30
0
40
32
0
CIRCLE
8
PIPE_ENDS
10
1766.375
20
-720.625773
30
0
40
32
0
CIRCLE
8
PIPE_ENDS
10
-3733.625
20
-271.025773
30
0
40
32
0
CIRCLE
8
PIPE_ENDS
10
2266.375
20
-271.025773
30
0
40
32
0
CIRCLE
8
PIPE_ENDS
10
-3233.625
20
-271.025773
30
0
40
32
0
CIRCLE
8
PIPE_ENDS
10
1766.375
20
-271.025773
30
0
40
32
0
CIRCLE
8
PIPE_ENDS
10
-1333.625
20
-271.025773
30
0
40
32
0
CIRCLE
8
PIPE_ENDS
10
-133.625
20
-271.025773
30
0
40
32
0
CIRCLE
8
PIPE_ENDS
10
-2533.625
20
-271.025773
30
0
40
32
0
CIRCLE
8
PIPE_ENDS
10
1066.375
20
-271.025773
30
0
40
32
0
CIRCLE
8
PIPE_ENDS
10
-3733.625
20
263.374227
30
0
40
32
0
CIRCLE
8
PIPE_ENDS
10
2266.375
20
263.374227
30
0
40
32
0
CIRCLE
8
PIPE_ENDS
10
-3733.625
20
853.774227
30
0
40
32
0
CIRCLE
8
PIPE_ENDS
10
2266.375
20
853.774227
30
0
40
32
0
LINE
8
LEVEL_GUIDE
6
DASHED
10
-3913.625
20
-1571.725773
30
0
11
2446.375
21
-1571.725773
31
0
0
LINE
8
LEVEL_GUIDE
6
DASHED
10
-3913.625
20
-1271.725773
30
0
11
2446.375
21
-1271.725773
31
0
0
LINE
8
LEVEL_GUIDE
6
DASHED
10
-3913.625
20
-720.665773
30
0
11
2446.375
21
-720.665773
31
0
0
LINE
8
LEVEL_GUIDE
6
DASHED
10
-3913.625
20
-271.045773
30
0
11
2446.375
21
-271.045773
31
0
0
LINE
8
LEVEL_GUIDE
6
DASHED
10
-3913.625
20
263.384227
30
0
11
2446.375
21
263.384227
31
0
0
LINE
8
LEVEL_GUIDE
6
DASHED
10
-3913.625
20
853.814227
30
0
11
2446.375
21
853.814227
31
0
0
LINE
8
LEVEL_GUIDE
6
DASHED
10
-3913.625
20
1892.494227
30
0
11
2446.375
21
1892.494227
31
0
0
LINE
8
LEVEL_GUIDE
6
DASHED
10
-3913.625
20
2428.284227
30
0
11
2446.375
21
2428.284227
31
0
0
LINE
8
DIMENSION
10
-3733.625
20
-1631.725773
30
0
11
-3733.625
21
-1951.725773
31
0
0
LINE
8
DIMENSION
10
-3233.625
20
-1631.725773
30
0
11
-3233.625
21
-1951.725773
31
0
0
LINE
8
DIMENSION
10
-3733.625
20
-1951.725773
30
0
11
-3233.625
21
-1951.725773
31
0
0
LINE
8
DIMENSION
10
-3733.625
20
-1951.725773
30
0
11
-3797.066545
21
-1922.142494
31
0
0
LINE
8
DIMENSION
10
-3733.625
20
-1951.725773
30
0
11
-3797.066545
21
-1981.309051
31
0
0
LINE
8
DIMENSION
10
-3233.625
20
-1951.725773
30
0
11
-3170.183455
21
-1981.309051
31
0
0
LINE
8
DIMENSION
10
-3233.625
20
-1951.725773
30
0
11
-3170.183455
21
-1922.142494
31
0
0
TEXT
8
DIMENSION
10
-3483.625
20
-2121.725773
30
0
40
85
1
0.5
50
0
7
STANDARD
72
1
73
2
11
-3483.625
21
-2121.725773
31
0
0
LINE
8
DIMENSION
10
-3233.625
20
-1631.725773
30
0
11
-3233.625
21
-1951.725773
31
0
0
LINE
8
DIMENSION
10
-2533.625
20
-1631.725773
30
0
11
-2533.625
21
-1951.725773
31
0
0
LINE
8
DIMENSION
10
-3233.625
20
-1951.725773
30
0
11
-2533.625
21
-1951.725773
31
0
0
LINE
8
DIMENSION
10
-3233.625
20
-1951.725773
30
0
11
-3297.066545
21
-1922.142494
31
0
0
LINE
8
DIMENSION
10
-3233.625
20
-1951.725773
30
0
11
-3297.066545
21
-1981.309051
31
0
0
LINE
8
DIMENSION
10
-2533.625
20
-1951.725773
30
0
11
-2470.183455
21
-1981.309051
31
0
0
LINE
8
DIMENSION
10
-2533.625
20
-1951.725773
30
0
11
-2470.183455
21
-1922.142494
31
0
0
TEXT
8
DIMENSION
10
-2883.625
20
-2121.725773
30
0
40
85
1
0.7
50
0
7
STANDARD
72
1
73
2
11
-2883.625
21
-2121.725773
31
0
0
LINE
8
DIMENSION
10
-2533.625
20
-1631.725773
30
0
11
-2533.625
21
-1951.725773
31
0
0
LINE
8
DIMENSION
10
-1333.625
20
-1631.725773
30
0
11
-1333.625
21
-1951.725773
31
0
0
LINE
8
DIMENSION
10
-2533.625
20
-1951.725773
30
0
11
-1333.625
21
-1951.725773
31
0
0
LINE
8
DIMENSION
10
-2533.625
20
-1951.725773
30
0
11
-2597.066545
21
-1922.142494
31
0
0
LINE
8
DIMENSION
10
-2533.625
20
-1951.725773
30
0
11
-2597.066545
21
-1981.309051
31
0
0
LINE
8
DIMENSION
10
-1333.625
20
-1951.725773
30
0
11
-1270.183455
21
-1981.309051
31
0
0
LINE
8
DIMENSION
10
-1333.625
20
-1951.725773
30
0
11
-1270.183455
21
-1922.142494
31
0
0
TEXT
8
DIMENSION
10
-1933.625
20
-2121.725773
30
0
40
85
1
1.2
50
0
7
STANDARD
72
1
73
2
11
-1933.625
21
-2121.725773
31
0
0
LINE
8
DIMENSION
10
-1333.625
20
-1631.725773
30
0
11
-1333.625
21
-1951.725773
31
0
0
LINE
8
DIMENSION
10
-133.625
20
-1631.725773
30
0
11
-133.625
21
-1951.725773
31
0
0
LINE
8
DIMENSION
10
-1333.625
20
-1951.725773
30
0
11
-133.625
21
-1951.725773
31
0
0
LINE
8
DIMENSION
10
-1333.625
20
-1951.725773
30
0
11
-1397.066545
21
-1922.142494
31
0
0
LINE
8
DIMENSION
10
-1333.625
20
-1951.725773
30
0
11
-1397.066545
21
-1981.309051
31
0
0
LINE
8
DIMENSION
10
-133.625
20
-1951.725773
30
0
11
-70.183455
21
-1981.309051
31
0
0
LINE
8
DIMENSION
10
-133.625
20
-1951.725773
30
0
11
-70.183455
21
-1922.142494
31
0
0
TEXT
8
DIMENSION
10
-733.625
20
-2121.725773
30
0
40
85
1
1.2
50
0
7
STANDARD
72
1
73
2
11
-733.625
21
-2121.725773
31
0
0
LINE
8
DIMENSION
10
-133.625
20
-1631.725773
30
0
11
-133.625
21
-1951.725773
31
0
0
LINE
8
DIMENSION
10
1066.375
20
-1631.725773
30
0
11
1066.375
21
-1951.725773
31
0
0
LINE
8
DIMENSION
10
-133.625
20
-1951.725773
30
0
11
1066.375
21
-1951.725773
31
0
0
LINE
8
DIMENSION
10
-133.625
20
-1951.725773
30
0
11
-197.066545
21
-1922.142494
31
0
0
LINE
8
DIMENSION
10
-133.625
20
-1951.725773
30
0
11
-197.066545
21
-1981.309051
31
0
0
LINE
8
DIMENSION
10
1066.375
20
-1951.725773
30
0
11
1129.816545
21
-1981.309051
31
0
0
LINE
8
DIMENSION
10
1066.375
20
-1951.725773
30
0
11
1129.816545
21
-1922.142494
31
0
0
TEXT
8
DIMENSION
10
466.375
20
-2121.725773
30
0
40
85
1
1.2
50
0
7
STANDARD
72
1
73
2
11
466.375
21
-2121.725773
31
0
0
LINE
8
DIMENSION
10
1066.375
20
-1631.725773
30
0
11
1066.375
21
-1951.725773
31
0
0
LINE
8
DIMENSION
10
1066.385
20
-1631.725773
30
0
11
1066.385
21
-1951.725773
31
0
0
LINE
8
DIMENSION
10
1066.375
20
-1951.725773
30
0
11
1066.385
21
-1951.725773
31
0
0
LINE
8
DIMENSION
10
1066.375
20
-1951.725773
30
0
11
1002.933455
21
-1922.142494
31
0
0
LINE
8
DIMENSION
10
1066.375
20
-1951.725773
30
0
11
1002.933455
21
-1981.309051
31
0
0
LINE
8
DIMENSION
10
1066.385
20
-1951.725773
30
0
11
1129.826545
21
-1981.309051
31
0
0
LINE
8
DIMENSION
10
1066.385
20
-1951.725773
30
0
11
1129.826545
21
-1922.142494
31
0
0
TEXT
8
DIMENSION
10
1066.38
20
-2121.725773
30
0
40
85
1
0
50
0
7
STANDARD
72
1
73
2
11
1066.38
21
-2121.725773
31
0
0
LINE
8
DIMENSION
10
1066.385
20
-1631.725773
30
0
11
1066.385
21
-1951.725773
31
0
0
LINE
8
DIMENSION
10
1766.375
20
-1631.725773
30
0
11
1766.375
21
-1951.725773
31
0
0
LINE
8
DIMENSION
10
1066.385
20
-1951.725773
30
0
11
1766.375
21
-1951.725773
31
0
0
LINE
8
DIMENSION
10
1066.385
20
-1951.725773
30
0
11
1002.943455
21
-1922.142494
31
0
0
LINE
8
DIMENSION
10
1066.385
20
-1951.725773
30
0
11
1002.943455
21
-1981.309051
31
0
0
LINE
8
DIMENSION
10
1766.375
20
-1951.725773
30
0
11
1829.816545
21
-1981.309051
31
0
0
LINE
8
DIMENSION
10
1766.375
20
-1951.725773
30
0
11
1829.816545
21
-1922.142494
31
0
0
TEXT
8
DIMENSION
10
1416.38
20
-2121.725773
30
0
40
85
1
0.7
50
0
7
STANDARD
72
1
73
2
11
1416.38
21
-2121.725773
31
0
0
LINE
8
DIMENSION
10
1766.375
20
-1631.725773
30
0
11
1766.375
21
-1951.725773
31
0
0
LINE
8
DIMENSION
10
2266.375
20
-1631.725773
30
0
11
2266.375
21
-1951.725773
31
0
0
LINE
8
DIMENSION
10
1766.375
20
-1951.725773
30
0
11
2266.375
21
-1951.725773
31
0
0
LINE
8
DIMENSION
10
1766.375
20
-1951.725773
30
0
11
1702.933455
21
-1922.142494
31
0
0
LINE
8
DIMENSION
10
1766.375
20
-1951.725773
30
0
11
1702.933455
21
-1981.309051
31
0
0
LINE
8
DIMENSION
10
2266.375
20
-1951.725773
30
0
11
2329.816545
21
-1981.309051
31
0
0
LINE
8
DIMENSION
10
2266.375
20
-1951.725773
30
0
11
2329.816545
21
-1922.142494
31
0
0
TEXT
8
DIMENSION
10
2016.375
20
-2121.725773
30
0
40
85
1
0.5
50
0
7
STANDARD
72
1
73
2
11
2016.375
21
-2121.725773
31
0
0
LINE
8
DIMENSION
10
-3733.625
20
-1631.725773
30
0
11
-3733.625
21
-2321.725773
31
0
0
LINE
8
DIMENSION
10
2266.375
20
-1631.725773
30
0
11
2266.375
21
-2321.725773
31
0
0
LINE
8
DIMENSION
10
-3733.625
20
-2321.725773
30
0
11
2266.375
21
-2321.725773
31
0
0
LINE
8
DIMENSION
10
-3733.625
20
-2321.725773
30
0
11
-3797.066545
21
-2292.142494
31
0
0
LINE
8
DIMENSION
10
-3733.625
20
-2321.725773
30
0
11
-3797.066545
21
-2351.309051
31
0
0
LINE
8
DIMENSION
10
2266.375
20
-2321.725773
30
0
11
2329.816545
21
-2351.309051
31
0
0
LINE
8
DIMENSION
10
2266.375
20
-2321.725773
30
0
11
2329.816545
21
-2292.142494
31
0
0
TEXT
8
DIMENSION
10
-733.625
20
-2491.725773
30
0
40
85
1
TOTAL 6
50
0
7
STANDARD
72
1
73
2
11
-733.625
21
-2491.725773
31
0
0
LINE
8
DIMENSION
10
2326.375
20
-1571.725773
30
0
11
2966.375
21
-1571.725773
31
0
0
LINE
8
DIMENSION
10
2326.375
20
-1271.725773
30
0
11
2966.375
21
-1271.725773
31
0
0
LINE
8
DIMENSION
10
2966.375
20
-1571.725773
30
0
11
2966.375
21
-1271.725773
31
0
0
LINE
8
DIMENSION
10
2966.375
20
-1571.725773
30
0
11
2936.791722
21
-1635.167318
31
0
0
LINE
8
DIMENSION
10
2966.375
20
-1571.725773
30
0
11
2995.958278
21
-1635.167318
31
0
0
LINE
8
DIMENSION
10
2966.375
20
-1271.725773
30
0
11
2995.958278
21
-1208.284227
31
0
0
LINE
8
DIMENSION
10
2966.375
20
-1271.725773
30
0
11
2936.791722
21
-1208.284227
31
0
0
TEXT
8
DIMENSION
10
3136.375
20
-1421.725773
30
0
40
85
1
0.3
50
90
7
STANDARD
72
1
73
2
11
3136.375
21
-1421.725773
31
0
0
LINE
8
DIMENSION
10
2326.375
20
-1271.725773
30
0
11
2966.375
21
-1271.725773
31
0
0
LINE
8
DIMENSION
10
2326.375
20
-720.665773
30
0
11
2966.375
21
-720.665773
31
0
0
LINE
8
DIMENSION
10
2966.375
20
-1271.725773
30
0
11
2966.375
21
-720.665773
31
0
0
LINE
8
DIMENSION
10
2966.375
20
-1271.725773
30
0
11
2936.791722
21
-1335.167318
31
0
0
LINE
8
DIMENSION
10
2966.375
20
-1271.725773
30
0
11
2995.958278
21
-1335.167318
31
0
0
LINE
8
DIMENSION
10
2966.375
20
-720.665773
30
0
11
2995.958278
21
-657.224227
31
0
0
LINE
8
DIMENSION
10
2966.375
20
-720.665773
30
0
11
2936.791722
21
-657.224227
31
0
0
TEXT
8
DIMENSION
10
3136.375
20
-996.195773
30
0
40
85
1
0.551
50
90
7
STANDARD
72
1
73
2
11
3136.375
21
-996.195773
31
0
0
LINE
8
DIMENSION
10
2326.375
20
-720.665773
30
0
11
2966.375
21
-720.665773
31
0
0
LINE
8
DIMENSION
10
2326.375
20
-271.045773
30
0
11
2966.375
21
-271.045773
31
0
0
LINE
8
DIMENSION
10
2966.375
20
-720.665773
30
0
11
2966.375
21
-271.045773
31
0
0
LINE
8
DIMENSION
10
2966.375
20
-720.665773
30
0
11
2936.791722
21
-784.107318
31
0
0
LINE
8
DIMENSION
10
2966.375
20
-720.665773
30
0
11
2995.958278
21
-784.107318
31
0
0
LINE
8
DIMENSION
10
2966.375
20
-271.045773
30
0
11
2995.958278
21
-207.604227
31
0
0
LINE
8
DIMENSION
10
2966.375
20
-271.045773
30
0
11
2936.791722
21
-207.604227
31
0
0
TEXT
8
DIMENSION
10
3136.375
20
-495.855773
30
0
40
85
1
0.45
50
90
7
STANDARD
72
1
73
2
11
3136.375
21
-495.855773
31
0
0
LINE
8
DIMENSION
10
2326.375
20
-271.045773
30
0
11
2966.375
21
-271.045773
31
0
0
LINE
8
DIMENSION
10
2326.375
20
263.384227
30
0
11
2966.375
21
263.384227
31
0
0
LINE
8
DIMENSION
10
2966.375
20
-271.045773
30
0
11
2966.375
21
263.384227
31
0
0
LINE
8
DIMENSION
10
2966.375
20
-271.045773
30
0
11
2936.791722
21
-334.487318
31
0
0
LINE
8
DIMENSION
10
2966.375
20
-271.045773
30
0
11
2995.958278
21
-334.487318
31
0
0
LINE
8
DIMENSION
10
2966.375
20
263.384227
30
0
11
2995.958278
21
326.825773
31
0
0
LINE
8
DIMENSION
10
2966.375
20
263.384227
30
0
11
2936.791722
21
326.825773
31
0
0
TEXT
8
DIMENSION
10
3136.375
20
-3.830773
30
0
40
85
1
0.534
50
90
7
STANDARD
72
1
73
2
11
3136.375
21
-3.830773
31
0
0
LINE
8
DIMENSION
10
2326.375
20
263.384227
30
0
11
2966.375
21
263.384227
31
0
0
LINE
8
DIMENSION
10
2326.375
20
853.814227
30
0
11
2966.375
21
853.814227
31
0
0
LINE
8
DIMENSION
10
2966.375
20
263.384227
30
0
11
2966.375
21
853.814227
31
0
0
LINE
8
DIMENSION
10
2966.375
20
263.384227
30
0
11
2936.791722
21
199.942682
31
0
0
LINE
8
DIMENSION
10
2966.375
20
263.384227
30
0
11
2995.958278
21
199.942682
31
0
0
LINE
8
DIMENSION
10
2966.375
20
853.814227
30
0
11
2995.958278
21
917.255773
31
0
0
LINE
8
DIMENSION
10
2966.375
20
853.814227
30
0
11
2936.791722
21
917.255773
31
0
0
TEXT
8
DIMENSION
10
3136.375
20
558.599227
30
0
40
85
1
0.59
50
90
7
STANDARD
72
1
73
2
11
3136.375
21
558.599227
31
0
0
LINE
8
DIMENSION
10
2326.375
20
853.814227
30
0
11
2966.375
21
853.814227
31
0
0
LINE
8
DIMENSION
10
2326.375
20
1892.494227
30
0
11
2966.375
21
1892.494227
31
0
0
LINE
8
DIMENSION
10
2966.375
20
853.814227
30
0
11
2966.375
21
1892.494227
31
0
0
LINE
8
DIMENSION
10
2966.375
20
853.814227
30
0
11
2936.791722
21
790.372682
31
0
0
LINE
8
DIMENSION
10
2966.375
20
853.814227
30
0
11
2995.958278
21
790.372682
31
0
0
LINE
8
DIMENSION
10
2966.375
20
1892.494227
30
0
11
2995.958278
21
1955.935773
31
0
0
LINE
8
DIMENSION
10
2966.375
20
1892.494227
30
0
11
2936.791722
21
1955.935773
31
0
0
TEXT
8
DIMENSION
10
3136.375
20
1373.154227
30
0
40
85
1
1.039
50
90
7
STANDARD
72
1
73
2
11
3136.375
21
1373.154227
31
0
0
LINE
8
DIMENSION
10
2326.375
20
1892.494227
30
0
11
2966.375
21
1892.494227
31
0
0
LINE
8
DIMENSION
10
2326.375
20
2428.284227
30
0
11
2966.375
21
2428.284227
31
0
0
LINE
8
DIMENSION
10
2966.375
20
1892.494227
30
0
11
2966.375
21
2428.284227
31
0
0
LINE
8
DIMENSION
10
2966.375
20
1892.494227
30
0
11
2936.791722
21
1829.052682
31
0
0
LINE
8
DIMENSION
10
2966.375
20
1892.494227
30
0
11
2995.958278
21
1829.052682
31
0
0
LINE
8
DIMENSION
10
2966.375
20
2428.284227
30
0
11
2995.958278
21
2491.725773
31
0
0
LINE
8
DIMENSION
10
2966.375
20
2428.284227
30
0
11
2936.791722
21
2491.725773
31
0
0
TEXT
8
DIMENSION
10
3136.375
20
2160.389227
30
0
40
85
1
0.536
50
90
7
STANDARD
72
1
73
2
11
3136.375
21
2160.389227
31
0
0
LINE
8
DIMENSION
10
2326.375
20
-1571.725773
30
0
11
3416.375
21
-1571.725773
31
0
0
LINE
8
DIMENSION
10
2326.375
20
2428.284227
30
0
11
3416.375
21
2428.284227
31
0
0
LINE
8
DIMENSION
10
3416.375
20
-1571.725773
30
0
11
3416.375
21
2428.284227
31
0
0
LINE
8
DIMENSION
10
3416.375
20
-1571.725773
30
0
11
3386.791722
21
-1635.167318
31
0
0
LINE
8
DIMENSION
10
3416.375
20
-1571.725773
30
0
11
3445.958278
21
-1635.167318
31
0
0
LINE
8
DIMENSION
10
3416.375
20
2428.284227
30
0
11
3445.958278
21
2491.725773
31
0
0
LINE
8
DIMENSION
10
3416.375
20
2428.284227
30
0
11
3386.791722
21
2491.725773
31
0
0
TEXT
8
DIMENSION
10
3586.375
20
428.279227
30
0
40
85
1
TOTAL 4
50
90
7
STANDARD
72
1
73
2
11
3586.375
21
428.279227
31
0
0
ENDSEC
0
EOF
