0
SECTION
2
HEADER
9
$ACADVER
1
AC1009
9
$INSUNITS
70
4
9
$MEASUREMENT
70
1
9
$LUNITS
70
2
9
$LUPREC
70
1
9
$TILEMODE
70
1
9
$EXTMIN
10
-5455.960044
20
-5150.005
30
0
9
$EXTMAX
10
5455.960044
20
5150.005
30
0
9
$PEXTMIN
10
-5455.960044
20
-5150.005
30
0
9
$PEXTMAX
10
5455.960044
20
5150.005
30
0
9
$LIMMIN
10
-5955.960044
20
-5650.005
9
$LIMMAX
10
5955.960044
20
5650.005
9
$PLIMMIN
10
-5955.960044
20
-5650.005
9
$PLIMMAX
10
5955.960044
20
5650.005
0
ENDSEC
0
SECTION
2
TABLES
0
TABLE
2
VPORT
70
1
0
VPORT
2
*ACTIVE
70
0
10
0
20
0
11
1
21
1
12
0
22
0
40
11300.01
41
1.054151
42
50
43
0
44
0
50
0
51
0
71
0
72
100
73
1
74
3
75
0
76
0
77
0
78
0
0
ENDTAB
0
TABLE
2
LTYPE
70
2
0
LTYPE
2
CONTINUOUS
70
0
3
Solid line
72
65
73
0
40
0
0
LTYPE
2
DASHED
70
0
3
Dashed
72
65
73
2
40
240
49
120
74
0
49
-120
74
0
0
ENDTAB
0
TABLE
2
LAYER
70
6
0
LAYER
2
PIPES
70
0
62
5
6
CONTINUOUS
0
LAYER
2
PIPE_ENDS
70
0
62
5
6
CONTINUOUS
0
LAYER
2
DIMENSION
70
0
62
1
6
CONTINUOUS
0
LAYER
2
LEVEL_GUIDE
70
0
62
1
6
DASHED
0
LAYER
2
LEVEL_TEXT
70
0
62
1
6
CONTINUOUS
0
LAYER
2
FRAME
70
0
62
5
6
CONTINUOUS
0
ENDTAB
0
TABLE
2
STYLE
70
1
0
STYLE
2
STANDARD
70
0
40
0
41
1
50
0
71
0
42
100
3
txt
4

0
ENDTAB
0
ENDSEC
0
SECTION
2
BLOCKS
0
BLOCK
8
0
2
$MODEL_SPACE
70
0
10
0
20
0
30
0
3
$MODEL_SPACE
0
ENDBLK
8
0
0
BLOCK
67
1
8
0
2
$PAPER_SPACE
70
0
10
0
20
0
30
0
3
$PAPER_SPACE
0
ENDBLK
67
1
8
0
0
ENDSEC
0
SECTION
2
ENTITIES
0
LINE
8
PIPES
10
0
20
-5150.005
30
0
11
0
21
-4850.004
31
0
0
LINE
8
PIPES
10
0
20
-4850.004
30
0
11
0
21
-4298.941
31
0
0
LINE
8
PIPES
10
0
20
-4298.941
30
0
11
0
21
-3849.325
31
0
0
LINE
8
PIPES
10
0
20
-3849.325
30
0
11
0
21
-3314.895
31
0
0
LINE
8
PIPES
10
0
20
-3314.895
30
0
11
0
21
-2724.465
31
0
0
LINE
8
PIPES
10
0
20
-2724.465
30
0
11
0
21
-1843.235
31
0
0
LINE
8
PIPES
10
-1091.192009
20
-4520.005
30
0
11
-1091.192009
21
-4220.004
31
0
0
LINE
8
PIPES
10
-1091.192009
20
-4220.004
30
0
11
-1091.192009
21
-3668.941
31
0
0
LINE
8
PIPES
10
-1091.192009
20
-3668.941
30
0
11
-1091.192009
21
-3219.325
31
0
0
LINE
8
PIPES
10
-1091.192009
20
-3219.325
30
0
11
-1091.192009
21
-2684.895
31
0
0
LINE
8
PIPES
10
-1091.192009
20
-2684.895
30
0
11
-1091.192009
21
-2094.465
31
0
0
LINE
8
PIPES
10
-1091.192009
20
-2094.465
30
0
11
-1091.192009
21
-1134.515
31
0
0
LINE
8
PIPES
10
-2182.384018
20
-3890.005
30
0
11
-2182.384018
21
-3590.004
31
0
0
LINE
8
PIPES
10
-2182.384018
20
-3590.004
30
0
11
-2182.384018
21
-3038.941
31
0
0
LINE
8
PIPES
10
-2182.384018
20
-3038.941
30
0
11
-2182.384018
21
-2589.325
31
0
0
LINE
8
PIPES
10
-2182.384018
20
-2589.325
30
0
11
-2182.384018
21
-2054.895
31
0
0
LINE
8
PIPES
10
-2182.384018
20
-2054.895
30
0
11
-2182.384018
21
-1464.465
31
0
0
LINE
8
PIPES
10
-2182.384018
20
-1464.465
30
0
11
-2182.384018
21
-425.785
31
0
0
LINE
8
PIPES
10
-3273.576026
20
-3260.005
30
0
11
-3273.576026
21
-2960.004
31
0
0
LINE
8
PIPES
10
-3273.576026
20
-2960.004
30
0
11
-3273.576026
21
-2408.941
31
0
0
LINE
8
PIPES
10
-3273.576026
20
-2408.941
30
0
11
-3273.576026
21
-1959.325
31
0
0
LINE
8
PIPES
10
-3273.576026
20
-1959.325
30
0
11
-3273.576026
21
-1424.895
31
0
0
LINE
8
PIPES
10
-3273.576026
20
-1424.895
30
0
11
-3273.576026
21
-834.465
31
0
0
LINE
8
PIPES
10
-3273.576026
20
-834.465
30
0
11
-3273.576026
21
282.935
31
0
0
LINE
8
PIPES
10
-4364.768035
20
-2630.005
30
0
11
-4364.768035
21
-2330.004
31
0
0
LINE
8
PIPES
10
-4364.768035
20
-2330.004
30
0
11
-4364.768035
21
-1778.941
31
0
0
LINE
8
PIPES
10
-4364.768035
20
-1778.941
30
0
11
-4364.768035
21
-1329.325
31
0
0
LINE
8
PIPES
10
-4364.768035
20
-1329.325
30
0
11
-4364.768035
21
-794.895
31
0
0
LINE
8
PIPES
10
-4364.768035
20
-794.895
30
0
11
-4364.768035
21
-204.465
31
0
0
LINE
8
PIPES
10
-4364.768035
20
-204.465
30
0
11
-4364.768035
21
991.665
31
0
0
LINE
8
PIPES
10
-5455.960044
20
-2000.005
30
0
11
-5455.960044
21
-1700.004
31
0
0
LINE
8
PIPES
10
-5455.960044
20
-1700.004
30
0
11
-5455.960044
21
-1148.941
31
0
0
LINE
8
PIPES
10
-5455.960044
20
-1148.941
30
0
11
-5455.960044
21
-699.325
31
0
0
LINE
8
PIPES
10
-5455.960044
20
-699.325
30
0
11
-5455.960044
21
-164.895
31
0
0
LINE
8
PIPES
10
-5455.960044
20
-164.895
30
0
11
-5455.960044
21
425.535
31
0
0
LINE
8
PIPES
10
-5455.960044
20
425.535
30
0
11
-5455.960044
21
1700.385
31
0
0
LINE
8
PIPES
10
5455.960044
20
-2000.005
30
0
11
5455.960044
21
-1700.004
31
0
0
LINE
8
PIPES
10
5455.960044
20
-1700.004
30
0
11
5455.960044
21
-1148.941
31
0
0
LINE
8
PIPES
10
5455.960044
20
-1148.941
30
0
11
5455.960044
21
-699.325
31
0
0
LINE
8
PIPES
10
5455.960044
20
-699.325
30
0
11
5455.960044
21
-164.895
31
0
0
LINE
8
PIPES
10
5455.960044
20
-164.895
30
0
11
5455.960044
21
425.535
31
0
0
LINE
8
PIPES
10
5455.960044
20
425.535
30
0
11
5455.960044
21
1306.765
31
0
0
LINE
8
PIPES
10
4364.768035
20
-1370.005
30
0
11
4364.768035
21
-1070.004
31
0
0
LINE
8
PIPES
10
4364.768035
20
-1070.004
30
0
11
4364.768035
21
-518.941
31
0
0
LINE
8
PIPES
10
4364.768035
20
-518.941
30
0
11
4364.768035
21
-69.325
31
0
0
LINE
8
PIPES
10
4364.768035
20
-69.325
30
0
11
4364.768035
21
465.105
31
0
0
LINE
8
PIPES
10
4364.768035
20
465.105
30
0
11
4364.768035
21
1055.535
31
0
0
LINE
8
PIPES
10
4364.768035
20
1055.535
30
0
11
4364.768035
21
2015.485
31
0
0
LINE
8
PIPES
10
3273.576026
20
-740.005
30
0
11
3273.576026
21
-440.004
31
0
0
LINE
8
PIPES
10
3273.576026
20
-440.004
30
0
11
3273.576026
21
111.059
31
0
0
LINE
8
PIPES
10
3273.576026
20
111.059
30
0
11
3273.576026
21
560.675
31
0
0
LINE
8
PIPES
10
3273.576026
20
560.675
30
0
11
3273.576026
21
1095.105
31
0
0
LINE
8
PIPES
10
3273.576026
20
1095.105
30
0
11
3273.576026
21
1685.535
31
0
0
LINE
8
PIPES
10
3273.576026
20
1685.535
30
0
11
3273.576026
21
2724.215
31
0
0
LINE
8
PIPES
10
2182.384018
20
-110.005
30
0
11
2182.384018
21
189.996
31
0
0
LINE
8
PIPES
10
2182.384018
20
189.996
30
0
11
2182.384018
21
741.059
31
0
0
LINE
8
PIPES
10
2182.384018
20
741.059
30
0
11
2182.384018
21
1190.675
31
0
0
LINE
8
PIPES
10
2182.384018
20
1190.675
30
0
11
2182.384018
21
1725.105
31
0
0
LINE
8
PIPES
10
2182.384018
20
1725.105
30
0
11
2182.384018
21
2315.535
31
0
0
LINE
8
PIPES
10
2182.384018
20
2315.535
30
0
11
2182.384018
21
3432.935
31
0
0
LINE
8
PIPES
10
1091.192009
20
519.995
30
0
11
1091.192009
21
819.996
31
0
0
LINE
8
PIPES
10
1091.192009
20
819.996
30
0
11
1091.192009
21
1371.059
31
0
0
LINE
8
PIPES
10
1091.192009
20
1371.059
30
0
11
1091.192009
21
1820.675
31
0
0
LINE
8
PIPES
10
1091.192009
20
1820.675
30
0
11
1091.192009
21
2355.105
31
0
0
LINE
8
PIPES
10
1091.192009
20
2355.105
30
0
11
1091.192009
21
2945.535
31
0
0
LINE
8
PIPES
10
1091.192009
20
2945.535
30
0
11
1091.192009
21
4141.665
31
0
0
LINE
8
PIPES
10
0
20
1149.995
30
0
11
0
21
1449.996
31
0
0
LINE
8
PIPES
10
0
20
1449.996
30
0
11
0
21
2001.059
31
0
0
LINE
8
PIPES
10
0
20
2001.059
30
0
11
0
21
2450.675
31
0
0
LINE
8
PIPES
10
0
20
2450.675
30
0
11
0
21
2985.105
31
0
0
LINE
8
PIPES
10
0
20
2985.105
30
0
11
0
21
3575.535
31
0
0
LINE
8
PIPES
10
0
20
3575.535
30
0
11
0
21
4850.385
31
0
0
LINE
8
PIPES
10
1091.192009
20
-4520.005
30
0
11
1091.192009
21
-4220.004
31
0
0
LINE
8
PIPES
10
1091.192009
20
-4220.004
30
0
11
1091.192009
21
-3668.941
31
0
0
LINE
8
PIPES
10
1091.192009
20
-3668.941
30
0
11
1091.192009
21
-3219.325
31
0
0
LINE
8
PIPES
10
1091.192009
20
-3219.325
30
0
11
1091.192009
21
-2684.895
31
0
0
LINE
8
PIPES
10
1091.192009
20
-2684.895
30
0
11
1091.192009
21
-2094.465
31
0
0
LINE
8
PIPES
10
1091.192009
20
-2094.465
30
0
11
1091.192009
21
-1213.235
31
0
0
LINE
8
PIPES
10
-4364.768035
20
-1370.005
30
0
11
-4364.768035
21
-1070.004
31
0
0
LINE
8
PIPES
10
-4364.768035
20
-1070.004
30
0
11
-4364.768035
21
-518.941
31
0
0
LINE
8
PIPES
10
-4364.768035
20
-518.941
30
0
11
-4364.768035
21
-69.325
31
0
0
LINE
8
PIPES
10
-4364.768035
20
-69.325
30
0
11
-4364.768035
21
465.105
31
0
0
LINE
8
PIPES
10
-4364.768035
20
465.105
30
0
11
-4364.768035
21
1055.535
31
0
0
LINE
8
PIPES
10
-4364.768035
20
1055.535
30
0
11
-4364.768035
21
2330.385
31
0
0
LINE
8
PIPES
10
0
20
-3890.005
30
0
11
0
21
-3590.004
31
0
0
LINE
8
PIPES
10
0
20
-3590.004
30
0
11
0
21
-3038.941
31
0
0
LINE
8
PIPES
10
-1091.192009
20
-3260.005
30
0
11
-1091.192009
21
-2960.004
31
0
0
LINE
8
PIPES
10
-1091.192009
20
-2960.004
30
0
11
-1091.192009
21
-2408.941
31
0
0
LINE
8
PIPES
10
-2182.384018
20
-2630.005
30
0
11
-2182.384018
21
-2330.004
31
0
0
LINE
8
PIPES
10
-2182.384018
20
-2330.004
30
0
11
-2182.384018
21
-1778.941
31
0
0
LINE
8
PIPES
10
-3273.576026
20
-2000.005
30
0
11
-3273.576026
21
-1700.004
31
0
0
LINE
8
PIPES
10
-3273.576026
20
-1700.004
30
0
11
-3273.576026
21
-1148.941
31
0
0
LINE
8
PIPES
10
4364.768035
20
-2630.005
30
0
11
4364.768035
21
-2330.004
31
0
0
LINE
8
PIPES
10
4364.768035
20
-2330.004
30
0
11
4364.768035
21
-1778.941
31
0
0
LINE
8
PIPES
10
4364.768035
20
-1778.941
30
0
11
4364.768035
21
-1329.325
31
0
0
LINE
8
PIPES
10
4364.768035
20
-1329.325
30
0
11
4364.768035
21
-794.895
31
0
0
LINE
8
PIPES
10
4364.768035
20
-794.895
30
0
11
4364.768035
21
-204.465
31
0
0
LINE
8
PIPES
10
4364.768035
20
-204.465
30
0
11
4364.768035
21
676.765
31
0
0
LINE
8
PIPES
10
-1091.192009
20
519.995
30
0
11
-1091.192009
21
819.996
31
0
0
LINE
8
PIPES
10
-1091.192009
20
819.996
30
0
11
-1091.192009
21
1371.059
31
0
0
LINE
8
PIPES
10
-1091.192009
20
1371.059
30
0
11
-1091.192009
21
1820.675
31
0
0
LINE
8
PIPES
10
-1091.192009
20
1820.675
30
0
11
-1091.192009
21
2355.105
31
0
0
LINE
8
PIPES
10
-1091.192009
20
2355.105
30
0
11
-1091.192009
21
2945.535
31
0
0
LINE
8
PIPES
10
-1091.192009
20
2945.535
30
0
11
-1091.192009
21
4220.385
31
0
0
LINE
8
PIPES
10
3273.576026
20
-2000.005
30
0
11
3273.576026
21
-1700.004
31
0
0
LINE
8
PIPES
10
3273.576026
20
-1700.004
30
0
11
3273.576026
21
-1148.941
31
0
0
LINE
8
PIPES
10
2182.384018
20
-1370.005
30
0
11
2182.384018
21
-1070.004
31
0
0
LINE
8
PIPES
10
2182.384018
20
-1070.004
30
0
11
2182.384018
21
-518.941
31
0
0
LINE
8
PIPES
10
1091.192009
20
-740.005
30
0
11
1091.192009
21
-440.004
31
0
0
LINE
8
PIPES
10
1091.192009
20
-440.004
30
0
11
1091.192009
21
111.059
31
0
0
LINE
8
PIPES
10
0
20
-110.005
30
0
11
0
21
189.996
31
0
0
LINE
8
PIPES
10
0
20
189.996
30
0
11
0
21
741.059
31
0
0
LINE
8
PIPES
10
2182.384018
20
-3890.005
30
0
11
2182.384018
21
-3590.004
31
0
0
LINE
8
PIPES
10
2182.384018
20
-3590.004
30
0
11
2182.384018
21
-3038.941
31
0
0
LINE
8
PIPES
10
2182.384018
20
-3038.941
30
0
11
2182.384018
21
-2589.325
31
0
0
LINE
8
PIPES
10
2182.384018
20
-2589.325
30
0
11
2182.384018
21
-2054.895
31
0
0
LINE
8
PIPES
10
2182.384018
20
-2054.895
30
0
11
2182.384018
21
-1464.465
31
0
0
LINE
8
PIPES
10
2182.384018
20
-1464.465
30
0
11
2182.384018
21
-583.235
31
0
0
LINE
8
PIPES
10
-3273.576026
20
-740.005
30
0
11
-3273.576026
21
-440.004
31
0
0
LINE
8
PIPES
10
-3273.576026
20
-440.004
30
0
11
-3273.576026
21
111.059
31
0
0
LINE
8
PIPES
10
-3273.576026
20
111.059
30
0
11
-3273.576026
21
560.675
31
0
0
LINE
8
PIPES
10
-3273.576026
20
560.675
30
0
11
-3273.576026
21
1095.105
31
0
0
LINE
8
PIPES
10
-3273.576026
20
1095.105
30
0
11
-3273.576026
21
1685.535
31
0
0
LINE
8
PIPES
10
-3273.576026
20
1685.535
30
0
11
-3273.576026
21
2079.155
31
0
0
LINE
8
PIPES
10
-3273.576026
20
2079.155
30
0
11
-3273.576026
21
2960.385
31
0
0
LINE
8
PIPES
10
-3273.576026
20
2976.595
30
0
11
-3273.576026
21
3260.005
31
0
0
LINE
8
PIPES
10
1091.192009
20
-3260.005
30
0
11
1091.192009
21
-2960.004
31
0
0
LINE
8
PIPES
10
1091.192009
20
-2960.004
30
0
11
1091.192009
21
-2408.941
31
0
0
LINE
8
PIPES
10
0
20
-2630.005
30
0
11
0
21
-2330.004
31
0
0
LINE
8
PIPES
10
0
20
-2330.004
30
0
11
0
21
-1778.941
31
0
0
LINE
8
PIPES
10
-1091.192009
20
-2000.005
30
0
11
-1091.192009
21
-1700.004
31
0
0
LINE
8
PIPES
10
-1091.192009
20
-1700.004
30
0
11
-1091.192009
21
-1148.941
31
0
0
LINE
8
PIPES
10
-2182.384018
20
-1370.005
30
0
11
-2182.384018
21
-1070.004
31
0
0
LINE
8
PIPES
10
-2182.384018
20
-1070.004
30
0
11
-2182.384018
21
-518.941
31
0
0
LINE
8
PIPES
10
3273.576026
20
-3260.005
30
0
11
3273.576026
21
-2960.004
31
0
0
LINE
8
PIPES
10
3273.576026
20
-2960.004
30
0
11
3273.576026
21
-2408.941
31
0
0
LINE
8
PIPES
10
3273.576026
20
-2408.941
30
0
11
3273.576026
21
-1959.325
31
0
0
LINE
8
PIPES
10
3273.576026
20
-1959.325
30
0
11
3273.576026
21
-1424.895
31
0
0
LINE
8
PIPES
10
3273.576026
20
-1424.895
30
0
11
3273.576026
21
-834.465
31
0
0
LINE
8
PIPES
10
3273.576026
20
-834.465
30
0
11
3273.576026
21
46.765
31
0
0
LINE
8
PIPES
10
-2182.384018
20
-110.005
30
0
11
-2182.384018
21
189.996
31
0
0
LINE
8
PIPES
10
-2182.384018
20
189.996
30
0
11
-2182.384018
21
741.059
31
0
0
LINE
8
PIPES
10
-2182.384018
20
741.059
30
0
11
-2182.384018
21
1190.675
31
0
0
LINE
8
PIPES
10
-2182.384018
20
1190.675
30
0
11
-2182.384018
21
1725.105
31
0
0
LINE
8
PIPES
10
-2182.384018
20
1725.105
30
0
11
-2182.384018
21
2315.535
31
0
0
LINE
8
PIPES
10
-2182.384018
20
2315.535
30
0
11
-2182.384018
21
2709.155
31
0
0
LINE
8
PIPES
10
-2182.384018
20
2709.155
30
0
11
-2182.384018
21
3590.385
31
0
0
LINE
8
PIPES
10
-2182.384018
20
3606.595
30
0
11
-2182.384018
21
3890.005
31
0
0
LINE
8
PIPES
10
2182.384018
20
-2630.005
30
0
11
2182.384018
21
-2330.004
31
0
0
LINE
8
PIPES
10
2182.384018
20
-2330.004
30
0
11
2182.384018
21
-1778.941
31
0
0
LINE
8
PIPES
10
1091.192009
20
-2000.005
30
0
11
1091.192009
21
-1700.004
31
0
0
LINE
8
PIPES
10
1091.192009
20
-1700.004
30
0
11
1091.192009
21
-1148.941
31
0
0
LINE
8
PIPES
10
0
20
-1370.005
30
0
11
0
21
-1070.004
31
0
0
LINE
8
PIPES
10
0
20
-1070.004
30
0
11
0
21
-518.941
31
0
0
LINE
8
PIPES
10
-1091.192009
20
-740.005
30
0
11
-1091.192009
21
-440.004
31
0
0
LINE
8
PIPES
10
-1091.192009
20
-440.004
30
0
11
-1091.192009
21
111.059
31
0
0
LINE
8
PIPES
10
433.013568
20
-4048.9405
30
0
11
433.013568
21
-3599.3245
31
0
0
LINE
8
PIPES
10
5022.947342
20
-1398.941
30
0
11
5022.947342
21
-949.325
31
0
0
LINE
8
PIPES
10
-658.178441
20
-3418.9405
30
0
11
-658.178441
21
-2969.3245
31
0
0
LINE
8
PIPES
10
3931.755333
20
-768.941
30
0
11
3931.755333
21
-319.325
31
0
0
LINE
8
PIPES
10
-1749.37045
20
-2788.9405
30
0
11
-1749.37045
21
-2339.3245
31
0
0
LINE
8
PIPES
10
2840.563324
20
-138.941
30
0
11
2840.563324
21
310.675
31
0
0
LINE
8
PIPES
10
-2840.562458
20
-2158.9405
30
0
11
-2840.562458
21
-1709.3245
31
0
0
LINE
8
PIPES
10
1749.371316
20
491.059
30
0
11
1749.371316
21
940.675
31
0
0
LINE
8
PIPES
10
-3931.754467
20
-1528.9405
30
0
11
-3931.754467
21
-1079.3245
31
0
0
LINE
8
PIPES
10
658.179307
20
1121.059
30
0
11
658.179307
21
1570.675
31
0
0
LINE
8
PIPES
10
-5022.946476
20
-898.9405
30
0
11
-5022.946476
21
-449.3245
31
0
0
LINE
8
PIPES
10
-433.012702
20
1751.059
30
0
11
-433.012702
21
2200.675
31
0
0
LINE
8
PIPES
10
1749.37045
20
-2788.9405
30
0
11
1749.37045
21
-2339.3245
31
0
0
LINE
8
PIPES
10
-2840.563324
20
-138.941
30
0
11
-2840.563324
21
310.675
31
0
0
LINE
8
PIPES
10
2840.562458
20
-2158.9405
30
0
11
2840.562458
21
-1709.3245
31
0
0
LINE
8
PIPES
10
-1749.371316
20
491.059
30
0
11
-1749.371316
21
940.675
31
0
0
LINE
8
PIPES
10
658.178441
20
-3418.9405
30
0
11
658.178441
21
-2969.3245
31
0
0
LINE
8
PIPES
10
-3931.755333
20
-768.941
30
0
11
-3931.755333
21
-319.325
31
0
0
LINE
8
PIPES
10
3931.754467
20
-1528.9405
30
0
11
3931.754467
21
-1079.3245
31
0
0
LINE
8
PIPES
10
-658.179307
20
1121.059
30
0
11
-658.179307
21
1570.675
31
0
0
LINE
8
PIPES
10
0
20
1501.059
30
0
11
0
21
1950.675
31
0
0
LINE
8
PIPES
10
0
20
-4850.004
30
0
11
1091.192009
21
-4220.004
31
0
0
LINE
8
PIPES
10
1091.192009
20
-4220.004
30
0
11
2182.384018
21
-3590.004
31
0
0
LINE
8
PIPES
10
2182.384018
20
-3590.004
30
0
11
3273.576026
21
-2960.004
31
0
0
LINE
8
PIPES
10
3273.576026
20
-2960.004
30
0
11
4364.768035
21
-2330.004
31
0
0
LINE
8
PIPES
10
4364.768035
20
-2330.004
30
0
11
5455.960044
21
-1700.004
31
0
0
LINE
8
PIPES
10
-1091.192009
20
-4220.004
30
0
11
0
21
-3590.004
31
0
0
LINE
8
PIPES
10
0
20
-3590.004
30
0
11
1091.192009
21
-2960.004
31
0
0
LINE
8
PIPES
10
1091.192009
20
-2960.004
30
0
11
2182.384018
21
-2330.004
31
0
0
LINE
8
PIPES
10
2182.384018
20
-2330.004
30
0
11
3273.576026
21
-1700.004
31
0
0
LINE
8
PIPES
10
3273.576026
20
-1700.004
30
0
11
4364.768035
21
-1070.004
31
0
0
LINE
8
PIPES
10
-2182.384018
20
-3590.004
30
0
11
-1091.192009
21
-2960.004
31
0
0
LINE
8
PIPES
10
-1091.192009
20
-2960.004
30
0
11
0
21
-2330.004
31
0
0
LINE
8
PIPES
10
0
20
-2330.004
30
0
11
1091.192009
21
-1700.004
31
0
0
LINE
8
PIPES
10
1091.192009
20
-1700.004
30
0
11
2182.384018
21
-1070.004
31
0
0
LINE
8
PIPES
10
2182.384018
20
-1070.004
30
0
11
3273.576026
21
-440.004
31
0
0
LINE
8
PIPES
10
-3273.576026
20
-2960.004
30
0
11
-2182.384018
21
-2330.004
31
0
0
LINE
8
PIPES
10
-2182.384018
20
-2330.004
30
0
11
-1091.192009
21
-1700.004
31
0
0
LINE
8
PIPES
10
-1091.192009
20
-1700.004
30
0
11
0
21
-1070.004
31
0
0
LINE
8
PIPES
10
0
20
-1070.004
30
0
11
1091.192009
21
-440.004
31
0
0
LINE
8
PIPES
10
1091.192009
20
-440.004
30
0
11
2182.384018
21
189.996
31
0
0
LINE
8
PIPES
10
-4364.768035
20
-2330.004
30
0
11
-3273.576026
21
-1700.004
31
0
0
LINE
8
PIPES
10
-3273.576026
20
-1700.004
30
0
11
-2182.384018
21
-1070.004
31
0
0
LINE
8
PIPES
10
-2182.384018
20
-1070.004
30
0
11
-1091.192009
21
-440.004
31
0
0
LINE
8
PIPES
10
-1091.192009
20
-440.004
30
0
11
0
21
189.996
31
0
0
LINE
8
PIPES
10
0
20
189.996
30
0
11
1091.192009
21
819.996
31
0
0
LINE
8
PIPES
10
-5455.960044
20
-1700.004
30
0
11
-4364.768035
21
-1070.004
31
0
0
LINE
8
PIPES
10
-4364.768035
20
-1070.004
30
0
11
-3273.576026
21
-440.004
31
0
0
LINE
8
PIPES
10
-3273.576026
20
-440.004
30
0
11
-2182.384018
21
189.996
31
0
0
LINE
8
PIPES
10
-2182.384018
20
189.996
30
0
11
-1091.192009
21
819.996
31
0
0
LINE
8
PIPES
10
-1091.192009
20
819.996
30
0
11
0
21
1449.996
31
0
0
LINE
8
PIPES
10
0
20
-4850.004
30
0
11
-1091.192009
21
-4220.004
31
0
0
LINE
8
PIPES
10
-1091.192009
20
-4220.004
30
0
11
-2182.384018
21
-3590.004
31
0
0
LINE
8
PIPES
10
-2182.384018
20
-3590.004
30
0
11
-3273.576026
21
-2960.004
31
0
0
LINE
8
PIPES
10
-3273.576026
20
-2960.004
30
0
11
-4364.768035
21
-2330.004
31
0
0
LINE
8
PIPES
10
-4364.768035
20
-2330.004
30
0
11
-5455.960044
21
-1700.004
31
0
0
LINE
8
PIPES
10
1091.192009
20
-4220.004
30
0
11
0
21
-3590.004
31
0
0
LINE
8
PIPES
10
0
20
-3590.004
30
0
11
-1091.192009
21
-2960.004
31
0
0
LINE
8
PIPES
10
-1091.192009
20
-2960.004
30
0
11
-2182.384018
21
-2330.004
31
0
0
LINE
8
PIPES
10
-2182.384018
20
-2330.004
30
0
11
-3273.576026
21
-1700.004
31
0
0
LINE
8
PIPES
10
-3273.576026
20
-1700.004
30
0
11
-4364.768035
21
-1070.004
31
0
0
LINE
8
PIPES
10
2182.384018
20
-3590.004
30
0
11
1091.192009
21
-2960.004
31
0
0
LINE
8
PIPES
10
1091.192009
20
-2960.004
30
0
11
0
21
-2330.004
31
0
0
LINE
8
PIPES
10
0
20
-2330.004
30
0
11
-1091.192009
21
-1700.004
31
0
0
LINE
8
PIPES
10
-1091.192009
20
-1700.004
30
0
11
-2182.384018
21
-1070.004
31
0
0
LINE
8
PIPES
10
-2182.384018
20
-1070.004
30
0
11
-3273.576026
21
-440.004
31
0
0
LINE
8
PIPES
10
3273.576026
20
-2960.004
30
0
11
2182.384018
21
-2330.004
31
0
0
LINE
8
PIPES
10
2182.384018
20
-2330.004
30
0
11
1091.192009
21
-1700.004
31
0
0
LINE
8
PIPES
10
1091.192009
20
-1700.004
30
0
11
0
21
-1070.004
31
0
0
LINE
8
PIPES
10
0
20
-1070.004
30
0
11
-1091.192009
21
-440.004
31
0
0
LINE
8
PIPES
10
-1091.192009
20
-440.004
30
0
11
-2182.384018
21
189.996
31
0
0
LINE
8
PIPES
10
4364.768035
20
-2330.004
30
0
11
3273.576026
21
-1700.004
31
0
0
LINE
8
PIPES
10
3273.576026
20
-1700.004
30
0
11
2182.384018
21
-1070.004
31
0
0
LINE
8
PIPES
10
2182.384018
20
-1070.004
30
0
11
1091.192009
21
-440.004
31
0
0
LINE
8
PIPES
10
1091.192009
20
-440.004
30
0
11
0
21
189.996
31
0
0
LINE
8
PIPES
10
0
20
189.996
30
0
11
-1091.192009
21
819.996
31
0
0
LINE
8
PIPES
10
5455.960044
20
-1700.004
30
0
11
4364.768035
21
-1070.004
31
0
0
LINE
8
PIPES
10
4364.768035
20
-1070.004
30
0
11
3273.576026
21
-440.004
31
0
0
LINE
8
PIPES
10
3273.576026
20
-440.004
30
0
11
2182.384018
21
189.996
31
0
0
LINE
8
PIPES
10
2182.384018
20
189.996
30
0
11
1091.192009
21
819.996
31
0
0
LINE
8
PIPES
10
1091.192009
20
819.996
30
0
11
0
21
1449.996
31
0
0
LINE
8
PIPES
10
0
20
-4298.941
30
0
11
433.013568
21
-4048.9405
31
0
0
LINE
8
PIPES
10
1091.192009
20
-3668.941
30
0
11
2182.384018
21
-3038.941
31
0
0
LINE
8
PIPES
10
2182.384018
20
-3038.941
30
0
11
3273.576026
21
-2408.941
31
0
0
LINE
8
PIPES
10
3273.576026
20
-2408.941
30
0
11
4364.768035
21
-1778.941
31
0
0
LINE
8
PIPES
10
4364.768035
20
-1778.941
30
0
11
5022.947342
21
-1398.941
31
0
0
LINE
8
PIPES
10
-5455.960044
20
-1148.941
30
0
11
-5022.946476
21
-898.9405
31
0
0
LINE
8
PIPES
10
-4364.768035
20
-518.941
30
0
11
-3273.576026
21
111.059
31
0
0
LINE
8
PIPES
10
-3273.576026
20
111.059
30
0
11
-2182.384018
21
741.059
31
0
0
LINE
8
PIPES
10
-2182.384018
20
741.059
30
0
11
-1091.192009
21
1371.059
31
0
0
LINE
8
PIPES
10
-1091.192009
20
1371.059
30
0
11
-433.012702
21
1751.059
31
0
0
LINE
8
PIPES
10
0
20
-4298.941
30
0
11
-433.013568
21
-4048.9405
31
0
0
LINE
8
PIPES
10
-1091.192009
20
-3668.941
30
0
11
-2182.384018
21
-3038.941
31
0
0
LINE
8
PIPES
10
-2182.384018
20
-3038.941
30
0
11
-3273.576026
21
-2408.941
31
0
0
LINE
8
PIPES
10
-3273.576026
20
-2408.941
30
0
11
-4364.768035
21
-1778.941
31
0
0
LINE
8
PIPES
10
-4364.768035
20
-1778.941
30
0
11
-5022.947342
21
-1398.941
31
0
0
LINE
8
PIPES
10
5455.960044
20
-1148.941
30
0
11
5022.946476
21
-898.9405
31
0
0
LINE
8
PIPES
10
4364.768035
20
-518.941
30
0
11
3273.576026
21
111.059
31
0
0
LINE
8
PIPES
10
3273.576026
20
111.059
30
0
11
2182.384018
21
741.059
31
0
0
LINE
8
PIPES
10
2182.384018
20
741.059
30
0
11
1091.192009
21
1371.059
31
0
0
LINE
8
PIPES
10
1091.192009
20
1371.059
30
0
11
433.012702
21
1751.059
31
0
0
LINE
8
PIPES
10
-1091.192009
20
-3668.941
30
0
11
-658.178441
21
-3418.9405
31
0
0
LINE
8
PIPES
10
-658.178441
20
-3418.9405
30
0
11
0
21
-3038.941
31
0
0
LINE
8
PIPES
10
0
20
-3038.941
30
0
11
1091.192009
21
-2408.941
31
0
0
LINE
8
PIPES
10
1091.192009
20
-2408.941
30
0
11
2182.384018
21
-1778.941
31
0
0
LINE
8
PIPES
10
2182.384018
20
-1778.941
30
0
11
3273.576026
21
-1148.941
31
0
0
LINE
8
PIPES
10
3273.576026
20
-1148.941
30
0
11
3931.755333
21
-768.941
31
0
0
LINE
8
PIPES
10
3931.755333
20
-768.941
30
0
11
4364.768035
21
-518.941
31
0
0
LINE
8
PIPES
10
-2182.384018
20
-3038.941
30
0
11
-1749.37045
21
-2788.9405
31
0
0
LINE
8
PIPES
10
-1749.37045
20
-2788.9405
30
0
11
-1091.192009
21
-2408.941
31
0
0
LINE
8
PIPES
10
-1091.192009
20
-2408.941
30
0
11
0
21
-1778.941
31
0
0
LINE
8
PIPES
10
0
20
-1778.941
30
0
11
1091.192009
21
-1148.941
31
0
0
LINE
8
PIPES
10
1091.192009
20
-1148.941
30
0
11
2182.384018
21
-518.941
31
0
0
LINE
8
PIPES
10
2182.384018
20
-518.941
30
0
11
2840.563324
21
-138.941
31
0
0
LINE
8
PIPES
10
2840.563324
20
-138.941
30
0
11
3273.576026
21
111.059
31
0
0
LINE
8
PIPES
10
-3273.576026
20
-2408.941
30
0
11
-2840.562458
21
-2158.9405
31
0
0
LINE
8
PIPES
10
-2840.562458
20
-2158.9405
30
0
11
-2182.384018
21
-1778.941
31
0
0
LINE
8
PIPES
10
-2182.384018
20
-1778.941
30
0
11
-1091.192009
21
-1148.941
31
0
0
LINE
8
PIPES
10
-1091.192009
20
-1148.941
30
0
11
0
21
-518.941
31
0
0
LINE
8
PIPES
10
0
20
-518.941
30
0
11
1091.192009
21
111.059
31
0
0
LINE
8
PIPES
10
1091.192009
20
111.059
30
0
11
1749.371316
21
491.059
31
0
0
LINE
8
PIPES
10
1749.371316
20
491.059
30
0
11
2182.384018
21
741.059
31
0
0
LINE
8
PIPES
10
-4364.768035
20
-1778.941
30
0
11
-3931.754467
21
-1528.9405
31
0
0
LINE
8
PIPES
10
-3931.754467
20
-1528.9405
30
0
11
-3273.576026
21
-1148.941
31
0
0
LINE
8
PIPES
10
-3273.576026
20
-1148.941
30
0
11
-2182.384018
21
-518.941
31
0
0
LINE
8
PIPES
10
-2182.384018
20
-518.941
30
0
11
-1091.192009
21
111.059
31
0
0
LINE
8
PIPES
10
-1091.192009
20
111.059
30
0
11
0
21
741.059
31
0
0
LINE
8
PIPES
10
0
20
741.059
30
0
11
658.179307
21
1121.059
31
0
0
LINE
8
PIPES
10
658.179307
20
1121.059
30
0
11
1091.192009
21
1371.059
31
0
0
LINE
8
PIPES
10
2182.384018
20
-3038.941
30
0
11
1749.37045
21
-2788.9405
31
0
0
LINE
8
PIPES
10
-3273.576026
20
111.059
30
0
11
-2840.563324
21
-138.941
31
0
0
LINE
8
PIPES
10
1749.37045
20
-2788.9405
30
0
11
1091.192009
21
-2408.941
31
0
0
LINE
8
PIPES
10
-2840.563324
20
-138.941
30
0
11
-2182.384018
21
-518.941
31
0
0
LINE
8
PIPES
10
3273.576026
20
-2408.941
30
0
11
2840.562458
21
-2158.9405
31
0
0
LINE
8
PIPES
10
-2182.384018
20
741.059
30
0
11
-1749.371316
21
491.059
31
0
0
LINE
8
PIPES
10
2840.562458
20
-2158.9405
30
0
11
2182.384018
21
-1778.941
31
0
0
LINE
8
PIPES
10
-1749.371316
20
491.059
30
0
11
-1091.192009
21
111.059
31
0
0
LINE
8
PIPES
10
1091.192009
20
-3668.941
30
0
11
658.178441
21
-3418.9405
31
0
0
LINE
8
PIPES
10
-4364.768035
20
-518.941
30
0
11
-3931.755333
21
-768.941
31
0
0
LINE
8
PIPES
10
658.178441
20
-3418.9405
30
0
11
0
21
-3038.941
31
0
0
LINE
8
PIPES
10
-3931.755333
20
-768.941
30
0
11
-3273.576026
21
-1148.941
31
0
0
LINE
8
PIPES
10
4364.768035
20
-1778.941
30
0
11
3931.754467
21
-1528.9405
31
0
0
LINE
8
PIPES
10
-1091.192009
20
1371.059
30
0
11
-658.179307
21
1121.059
31
0
0
LINE
8
PIPES
10
3931.754467
20
-1528.9405
30
0
11
3273.576026
21
-1148.941
31
0
0
LINE
8
PIPES
10
-658.179307
20
1121.059
30
0
11
0
21
741.059
31
0
0
LINE
8
PIPES
10
0
20
-3349.324
30
0
11
658.178441
21
-2969.3245
31
0
0
LINE
8
PIPES
10
658.178441
20
-2969.3245
30
0
11
1749.37045
21
-2339.3245
31
0
0
LINE
8
PIPES
10
1749.37045
20
-2339.3245
30
0
11
2840.562458
21
-1709.3245
31
0
0
LINE
8
PIPES
10
2840.562458
20
-1709.3245
30
0
11
3931.754467
21
-1079.3245
31
0
0
LINE
8
PIPES
10
3931.754467
20
-1079.3245
30
0
11
4589.933774
21
-699.3245
31
0
0
LINE
8
PIPES
10
-4589.933774
20
-699.3245
30
0
11
-3931.755333
21
-319.325
31
0
0
LINE
8
PIPES
10
-3931.755333
20
-319.325
30
0
11
-2840.563324
21
310.675
31
0
0
LINE
8
PIPES
10
-1749.371316
20
940.675
30
0
11
-658.179307
21
1570.675
31
0
0
LINE
8
PIPES
10
-658.179307
20
1570.675
30
0
11
0
21
1950.675
31
0
0
LINE
8
PIPES
10
0
20
-3849.325
30
0
11
433.013568
21
-3599.3245
31
0
0
LINE
8
PIPES
10
433.013568
20
-3599.3245
30
0
11
1091.192009
21
-3219.325
31
0
0
LINE
8
PIPES
10
1091.192009
20
-3219.325
30
0
11
2182.384018
21
-2589.325
31
0
0
LINE
8
PIPES
10
2182.384018
20
-2589.325
30
0
11
3273.576026
21
-1959.325
31
0
0
LINE
8
PIPES
10
3273.576026
20
-1959.325
30
0
11
4364.768035
21
-1329.325
31
0
0
LINE
8
PIPES
10
4364.768035
20
-1329.325
30
0
11
5022.947342
21
-949.325
31
0
0
LINE
8
PIPES
10
5022.947342
20
-949.325
30
0
11
5455.960044
21
-699.325
31
0
0
LINE
8
PIPES
10
0
20
2450.675
30
0
11
-433.012702
21
2200.675
31
0
0
LINE
8
PIPES
10
-433.012702
20
2200.675
30
0
11
-1091.192009
21
1820.675
31
0
0
LINE
8
PIPES
10
-1091.192009
20
1820.675
30
0
11
-2182.384018
21
1190.675
31
0
0
LINE
8
PIPES
10
-3273.576026
20
560.675
30
0
11
-4364.768035
21
-69.325
31
0
0
LINE
8
PIPES
10
-4364.768035
20
-69.325
30
0
11
-5022.946476
21
-449.3245
31
0
0
LINE
8
PIPES
10
-5022.946476
20
-449.3245
30
0
11
-5455.960044
21
-699.325
31
0
0
LINE
8
PIPES
10
0
20
-3849.325
30
0
11
-433.013568
21
-3599.3245
31
0
0
LINE
8
PIPES
10
-1091.192009
20
-3219.325
30
0
11
-2182.384018
21
-2589.325
31
0
0
LINE
8
PIPES
10
-2182.384018
20
-2589.325
30
0
11
-3273.576026
21
-1959.325
31
0
0
LINE
8
PIPES
10
-3273.576026
20
-1959.325
30
0
11
-4364.768035
21
-1329.325
31
0
0
LINE
8
PIPES
10
-4364.768035
20
-1329.325
30
0
11
-5022.947342
21
-949.325
31
0
0
LINE
8
PIPES
10
5455.960044
20
-699.325
30
0
11
5022.946476
21
-449.3245
31
0
0
LINE
8
PIPES
10
4364.768035
20
-69.325
30
0
11
3273.576026
21
560.675
31
0
0
LINE
8
PIPES
10
3273.576026
20
560.675
30
0
11
2182.384018
21
1190.675
31
0
0
LINE
8
PIPES
10
2182.384018
20
1190.675
30
0
11
1091.192009
21
1820.675
31
0
0
LINE
8
PIPES
10
1091.192009
20
1820.675
30
0
11
433.012702
21
2200.675
31
0
0
LINE
8
PIPES
10
433.013568
20
-3599.3245
30
0
11
0
21
-3349.324
31
0
0
LINE
8
PIPES
10
0
20
-3349.324
30
0
11
-658.178441
21
-2969.3245
31
0
0
LINE
8
PIPES
10
-1749.37045
20
-2339.3245
30
0
11
-2840.562458
21
-1709.3245
31
0
0
LINE
8
PIPES
10
-4589.933774
20
-699.3245
30
0
11
-5022.946476
21
-449.3245
31
0
0
LINE
8
PIPES
10
5022.947342
20
-949.325
30
0
11
4589.933774
21
-699.3245
31
0
0
LINE
8
PIPES
10
4589.933774
20
-699.3245
30
0
11
3931.755333
21
-319.325
31
0
0
LINE
8
PIPES
10
2840.563324
20
310.675
30
0
11
1749.371316
21
940.675
31
0
0
LINE
8
PIPES
10
0
20
1950.675
30
0
11
-433.012702
21
2200.675
31
0
0
LINE
8
PIPES
10
2182.384018
20
-2589.325
30
0
11
1749.37045
21
-2339.3245
31
0
0
LINE
8
PIPES
10
-3273.576026
20
560.675
30
0
11
-2840.563324
21
310.675
31
0
0
LINE
8
PIPES
10
3273.576026
20
-1959.325
30
0
11
2840.562458
21
-1709.3245
31
0
0
LINE
8
PIPES
10
-2182.384018
20
1190.675
30
0
11
-1749.371316
21
940.675
31
0
0
LINE
8
PIPES
10
1091.192009
20
-3219.325
30
0
11
658.178441
21
-2969.3245
31
0
0
LINE
8
PIPES
10
-4364.768035
20
-69.325
30
0
11
-3931.755333
21
-319.325
31
0
0
LINE
8
PIPES
10
4364.768035
20
-1329.325
30
0
11
3931.754467
21
-1079.3245
31
0
0
LINE
8
PIPES
10
-1091.192009
20
1820.675
30
0
11
-658.179307
21
1570.675
31
0
0
LINE
8
PIPES
10
-1091.192009
20
-3219.325
30
0
11
-658.178441
21
-2969.3245
31
0
0
LINE
8
PIPES
10
4364.768035
20
-69.325
30
0
11
3931.755333
21
-319.325
31
0
0
LINE
8
PIPES
10
-2182.384018
20
-2589.325
30
0
11
-1749.37045
21
-2339.3245
31
0
0
LINE
8
PIPES
10
3273.576026
20
560.675
30
0
11
2840.563324
21
310.675
31
0
0
LINE
8
PIPES
10
-3273.576026
20
-1959.325
30
0
11
-2840.562458
21
-1709.3245
31
0
0
LINE
8
PIPES
10
2182.384018
20
1190.675
30
0
11
1749.371316
21
940.675
31
0
0
LINE
8
PIPES
10
-4364.768035
20
-1329.325
30
0
11
-3931.754467
21
-1079.3245
31
0
0
LINE
8
PIPES
10
1091.192009
20
1820.675
30
0
11
658.179307
21
1570.675
31
0
0
LINE
8
PIPES
10
0
20
-3314.895
30
0
11
1091.192009
21
-2684.895
31
0
0
LINE
8
PIPES
10
1091.192009
20
-2684.895
30
0
11
2182.384018
21
-2054.895
31
0
0
LINE
8
PIPES
10
2182.384018
20
-2054.895
30
0
11
3273.576026
21
-1424.895
31
0
0
LINE
8
PIPES
10
3273.576026
20
-1424.895
30
0
11
4364.768035
21
-794.895
31
0
0
LINE
8
PIPES
10
4364.768035
20
-794.895
30
0
11
5455.960044
21
-164.895
31
0
0
LINE
8
PIPES
10
-5455.960044
20
-164.895
30
0
11
-4364.768035
21
465.105
31
0
0
LINE
8
PIPES
10
-4364.768035
20
465.105
30
0
11
-3273.576026
21
1095.105
31
0
0
LINE
8
PIPES
10
-2182.384018
20
1725.105
30
0
11
-1091.192009
21
2355.105
31
0
0
LINE
8
PIPES
10
-1091.192009
20
2355.105
30
0
11
0
21
2985.105
31
0
0
LINE
8
PIPES
10
0
20
-3314.895
30
0
11
-1091.192009
21
-2684.895
31
0
0
LINE
8
PIPES
10
-1091.192009
20
-2684.895
30
0
11
-2182.384018
21
-2054.895
31
0
0
LINE
8
PIPES
10
-2182.384018
20
-2054.895
30
0
11
-3273.576026
21
-1424.895
31
0
0
LINE
8
PIPES
10
-3273.576026
20
-1424.895
30
0
11
-4364.768035
21
-794.895
31
0
0
LINE
8
PIPES
10
-4364.768035
20
-794.895
30
0
11
-5455.960044
21
-164.895
31
0
0
LINE
8
PIPES
10
5455.960044
20
-164.895
30
0
11
4364.768035
21
465.105
31
0
0
LINE
8
PIPES
10
4364.768035
20
465.105
30
0
11
3273.576026
21
1095.105
31
0
0
LINE
8
PIPES
10
3273.576026
20
1095.105
30
0
11
2182.384018
21
1725.105
31
0
0
LINE
8
PIPES
10
2182.384018
20
1725.105
30
0
11
1091.192009
21
2355.105
31
0
0
LINE
8
PIPES
10
1091.192009
20
2355.105
30
0
11
0
21
2985.105
31
0
0
LINE
8
PIPES
10
0
20
-2724.465
30
0
11
1091.192009
21
-2094.465
31
0
0
LINE
8
PIPES
10
1091.192009
20
-2094.465
30
0
11
2182.384018
21
-1464.465
31
0
0
LINE
8
PIPES
10
2182.384018
20
-1464.465
30
0
11
3273.576026
21
-834.465
31
0
0
LINE
8
PIPES
10
3273.576026
20
-834.465
30
0
11
4364.768035
21
-204.465
31
0
0
LINE
8
PIPES
10
4364.768035
20
-204.465
30
0
11
5455.960044
21
425.535
31
0
0
LINE
8
PIPES
10
-5455.960044
20
425.535
30
0
11
-4364.768035
21
1055.535
31
0
0
LINE
8
PIPES
10
-4364.768035
20
1055.535
30
0
11
-3273.576026
21
1685.535
31
0
0
LINE
8
PIPES
10
-2182.384018
20
2315.535
30
0
11
-1091.192009
21
2945.535
31
0
0
LINE
8
PIPES
10
-1091.192009
20
2945.535
30
0
11
0
21
3575.535
31
0
0
LINE
8
PIPES
10
0
20
-2724.465
30
0
11
-1091.192009
21
-2094.465
31
0
0
LINE
8
PIPES
10
-1091.192009
20
-2094.465
30
0
11
-2182.384018
21
-1464.465
31
0
0
LINE
8
PIPES
10
-2182.384018
20
-1464.465
30
0
11
-3273.576026
21
-834.465
31
0
0
LINE
8
PIPES
10
-3273.576026
20
-834.465
30
0
11
-4364.768035
21
-204.465
31
0
0
LINE
8
PIPES
10
-4364.768035
20
-204.465
30
0
11
-5455.960044
21
425.535
31
0
0
LINE
8
PIPES
10
5455.960044
20
425.535
30
0
11
4364.768035
21
1055.535
31
0
0
LINE
8
PIPES
10
4364.768035
20
1055.535
30
0
11
3273.576026
21
1685.535
31
0
0
LINE
8
PIPES
10
3273.576026
20
1685.535
30
0
11
2182.384018
21
2315.535
31
0
0
LINE
8
PIPES
10
2182.384018
20
2315.535
30
0
11
1091.192009
21
2945.535
31
0
0
LINE
8
PIPES
10
1091.192009
20
2945.535
30
0
11
0
21
3575.535
31
0
0
LINE
8
PIPES
10
0
20
-1543.615
30
0
11
1091.192009
21
-913.615
31
0
0
LINE
8
PIPES
10
0
20
-1843.235
30
0
11
1091.192009
21
-1213.235
31
0
0
LINE
8
PIPES
10
1091.192009
20
-913.615
30
0
11
2182.384018
21
-283.615
31
0
0
LINE
8
PIPES
10
1091.192009
20
-1213.235
30
0
11
2182.384018
21
-583.235
31
0
0
LINE
8
PIPES
10
2182.384018
20
-283.615
30
0
11
3273.576026
21
346.385
31
0
0
LINE
8
PIPES
10
2182.384018
20
-583.235
30
0
11
3273.576026
21
46.765
31
0
0
LINE
8
PIPES
10
3273.576026
20
346.385
30
0
11
4364.768035
21
976.385
31
0
0
LINE
8
PIPES
10
3273.576026
20
46.765
30
0
11
4364.768035
21
676.765
31
0
0
LINE
8
PIPES
10
4364.768035
20
976.385
30
0
11
5455.960044
21
1606.385
31
0
0
LINE
8
PIPES
10
4364.768035
20
676.765
30
0
11
5455.960044
21
1306.765
31
0
0
LINE
8
PIPES
10
-5455.960044
20
2000.005
30
0
11
-4364.768035
21
2630.005
31
0
0
LINE
8
PIPES
10
-5455.960044
20
1700.385
30
0
11
-4364.768035
21
2330.385
31
0
0
LINE
8
PIPES
10
-4364.768035
20
2630.005
30
0
11
-3273.576026
21
3260.005
31
0
0
LINE
8
PIPES
10
-4364.768035
20
2330.385
30
0
11
-3273.576026
21
2960.385
31
0
0
LINE
8
PIPES
10
-3273.576026
20
3260.005
30
0
11
-2182.384018
21
3890.005
31
0
0
LINE
8
PIPES
10
-3273.576026
20
2960.385
30
0
11
-2182.384018
21
3590.385
31
0
0
LINE
8
PIPES
10
-2182.384018
20
3890.005
30
0
11
-1091.192009
21
4520.005
31
0
0
LINE
8
PIPES
10
-2182.384018
20
3590.385
30
0
11
-1091.192009
21
4220.385
31
0
0
LINE
8
PIPES
10
-1091.192009
20
4520.005
30
0
11
0
21
5150.005
31
0
0
LINE
8
PIPES
10
-1091.192009
20
4220.385
30
0
11
0
21
4850.385
31
0
0
LINE
8
PIPES
10
2182.384018
20
-283.615
30
0
11
1882.427459
21
-88.795
31
0
0
LINE
8
PIPES
10
1882.427459
20
-88.795
30
0
11
1624.627284
21
78.646
31
0
0
LINE
8
PIPES
10
1624.627284
20
78.646
30
0
11
1366.82711
21
246.087
31
0
0
LINE
8
PIPES
10
1366.82711
20
246.087
30
0
11
1109.023472
21
413.53
31
0
0
LINE
8
PIPES
10
1109.023472
20
413.53
30
0
11
1091.192009
21
425.105
31
0
0
LINE
8
PIPES
10
851.22503
20
580.97
30
0
11
593.426587
21
748.4
31
0
0
LINE
8
PIPES
10
593.426587
20
748.4
30
0
11
335.628145
21
915.84
31
0
0
LINE
8
PIPES
10
335.628145
20
915.84
30
0
11
77.829703
21
1083.28
31
0
0
LINE
8
PIPES
10
77.829703
20
1083.28
30
0
11
0
21
1133.835
31
0
0
LINE
8
PIPES
10
-179.977399
20
1250.725
30
0
11
-437.775842
21
1418.165
31
0
0
LINE
8
PIPES
10
-437.775842
20
1418.165
30
0
11
-695.574284
21
1585.605
31
0
0
LINE
8
PIPES
10
-695.574284
20
1585.605
30
0
11
-953.372726
21
1753.045
31
0
0
LINE
8
PIPES
10
-953.372726
20
1753.045
30
0
11
-1091.192009
21
1842.555
31
0
0
LINE
8
PIPES
10
-1211.171168
20
1920.485
30
0
11
-1468.978271
21
2087.93
31
0
0
LINE
8
PIPES
10
-1468.978271
20
2087.93
30
0
11
-1726.776713
21
2255.37
31
0
0
LINE
8
PIPES
10
-1726.776713
20
2255.37
30
0
11
-1984.575155
21
2422.81
31
0
0
LINE
8
PIPES
10
-1984.575155
20
2422.81
30
0
11
-2182.384018
21
2551.285
31
0
0
LINE
8
PIPES
10
-2242.373597
20
2590.24
30
0
11
-2500.172039
21
2757.68
31
0
0
LINE
8
PIPES
10
-2500.172039
20
2757.68
30
0
11
-2757.979142
21
2925.125
31
0
0
LINE
8
PIPES
10
-2757.979142
20
2925.125
30
0
11
-3015.777584
21
3092.565
31
0
0
LINE
8
PIPES
10
-3015.777584
20
3092.565
30
0
11
-3273.576026
21
3260.005
31
0
0
LINE
8
PIPES
10
2182.384018
20
-583.235
30
0
11
1882.427459
21
-388.415
31
0
0
LINE
8
PIPES
10
1882.427459
20
-388.415
30
0
11
1624.627284
21
-220.974
31
0
0
LINE
8
PIPES
10
1624.627284
20
-220.974
30
0
11
1366.82711
21
-53.533
31
0
0
LINE
8
PIPES
10
1366.82711
20
-53.533
30
0
11
1109.023472
21
113.91
31
0
0
LINE
8
PIPES
10
1109.023472
20
113.91
30
0
11
1091.192009
21
125.485
31
0
0
LINE
8
PIPES
10
851.22503
20
281.35
30
0
11
593.426587
21
448.78
31
0
0
LINE
8
PIPES
10
593.426587
20
448.78
30
0
11
335.628145
21
616.22
31
0
0
LINE
8
PIPES
10
335.628145
20
616.22
30
0
11
77.829703
21
783.66
31
0
0
LINE
8
PIPES
10
77.829703
20
783.66
30
0
11
0
21
834.215
31
0
0
LINE
8
PIPES
10
-179.977399
20
951.105
30
0
11
-437.775842
21
1118.545
31
0
0
LINE
8
PIPES
10
-437.775842
20
1118.545
30
0
11
-695.574284
21
1285.985
31
0
0
LINE
8
PIPES
10
-695.574284
20
1285.985
30
0
11
-953.372726
21
1453.425
31
0
0
LINE
8
PIPES
10
-953.372726
20
1453.425
30
0
11
-1091.192009
21
1542.935
31
0
0
LINE
8
PIPES
10
-1211.171168
20
1620.865
30
0
11
-1468.978271
21
1788.31
31
0
0
LINE
8
PIPES
10
-1468.978271
20
1788.31
30
0
11
-1726.776713
21
1955.75
31
0
0
LINE
8
PIPES
10
-1726.776713
20
1955.75
30
0
11
-1984.575155
21
2123.18
31
0
0
LINE
8
PIPES
10
-1984.575155
20
2123.18
30
0
11
-2182.384018
21
2251.665
31
0
0
LINE
8
PIPES
10
-2242.373597
20
2290.62
30
0
11
-2500.172039
21
2458.06
31
0
0
LINE
8
PIPES
10
-2500.172039
20
2458.06
30
0
11
-2757.979142
21
2625.505
31
0
0
LINE
8
PIPES
10
-2757.979142
20
2625.505
30
0
11
-3015.777584
21
2792.945
31
0
0
LINE
8
PIPES
10
-3015.777584
20
2792.945
30
0
11
-3273.576026
21
2960.385
31
0
0
LINE
8
PIPES
10
-3273.576026
20
2960.385
30
0
11
-3273.576026
21
2976.595
31
0
0
LINE
8
PIPES
10
2182.384018
20
-283.615
30
0
11
2182.384018
21
-583.235
31
0
0
LINE
8
PIPES
10
1882.427459
20
-88.795
30
0
11
1882.427459
21
-388.415
31
0
0
LINE
8
PIPES
10
1624.627284
20
78.646
30
0
11
1624.627284
21
-220.974
31
0
0
LINE
8
PIPES
10
1366.82711
20
246.087
30
0
11
1366.82711
21
-53.533
31
0
0
LINE
8
PIPES
10
1109.023472
20
413.53
30
0
11
1109.023472
21
113.91
31
0
0
LINE
8
PIPES
10
851.22503
20
580.97
30
0
11
851.22503
21
281.35
31
0
0
LINE
8
PIPES
10
593.426587
20
748.4
30
0
11
593.426587
21
448.78
31
0
0
LINE
8
PIPES
10
335.628145
20
915.84
30
0
11
335.628145
21
616.22
31
0
0
LINE
8
PIPES
10
77.829703
20
1083.28
30
0
11
77.829703
21
783.66
31
0
0
LINE
8
PIPES
10
-179.977399
20
1250.725
30
0
11
-179.977399
21
951.105
31
0
0
LINE
8
PIPES
10
-437.775842
20
1418.165
30
0
11
-437.775842
21
1118.545
31
0
0
LINE
8
PIPES
10
-695.574284
20
1585.605
30
0
11
-695.574284
21
1285.985
31
0
0
LINE
8
PIPES
10
-953.372726
20
1753.045
30
0
11
-953.372726
21
1453.425
31
0
0
LINE
8
PIPES
10
-1211.171168
20
1920.485
30
0
11
-1211.171168
21
1620.865
31
0
0
LINE
8
PIPES
10
-1468.978271
20
2087.93
30
0
11
-1468.978271
21
1788.31
31
0
0
LINE
8
PIPES
10
-1726.776713
20
2255.37
30
0
11
-1726.776713
21
1955.75
31
0
0
LINE
8
PIPES
10
-1984.575155
20
2422.81
30
0
11
-1984.575155
21
2123.18
31
0
0
LINE
8
PIPES
10
-2242.373597
20
2590.24
30
0
11
-2242.373597
21
2290.62
31
0
0
LINE
8
PIPES
10
-2500.172039
20
2757.68
30
0
11
-2500.172039
21
2458.06
31
0
0
LINE
8
PIPES
10
-2757.979142
20
2925.125
30
0
11
-2757.979142
21
2625.505
31
0
0
LINE
8
PIPES
10
-3015.777584
20
3092.565
30
0
11
-3015.777584
21
2792.945
31
0
0
LINE
8
PIPES
10
3273.576026
20
346.385
30
0
11
2973.619467
21
541.205
31
0
0
LINE
8
PIPES
10
2973.619467
20
541.205
30
0
11
2715.819293
21
708.646
31
0
0
LINE
8
PIPES
10
2715.819293
20
708.646
30
0
11
2458.019119
21
876.087
31
0
0
LINE
8
PIPES
10
2458.019119
20
876.087
30
0
11
2200.215481
21
1043.53
31
0
0
LINE
8
PIPES
10
2200.215481
20
1043.53
30
0
11
2182.384018
21
1055.105
31
0
0
LINE
8
PIPES
10
1942.417038
20
1210.97
30
0
11
1684.618596
21
1378.4
31
0
0
LINE
8
PIPES
10
1684.618596
20
1378.4
30
0
11
1426.820154
21
1545.84
31
0
0
LINE
8
PIPES
10
1426.820154
20
1545.84
30
0
11
1169.021712
21
1713.28
31
0
0
LINE
8
PIPES
10
1169.021712
20
1713.28
30
0
11
1091.192009
21
1763.835
31
0
0
LINE
8
PIPES
10
911.214609
20
1880.725
30
0
11
653.416167
21
2048.165
31
0
0
LINE
8
PIPES
10
653.416167
20
2048.165
30
0
11
395.617725
21
2215.605
31
0
0
LINE
8
PIPES
10
395.617725
20
2215.605
30
0
11
137.819283
21
2383.045
31
0
0
LINE
8
PIPES
10
137.819283
20
2383.045
30
0
11
0
21
2472.555
31
0
0
LINE
8
PIPES
10
-119.979159
20
2550.485
30
0
11
-377.786262
21
2717.93
31
0
0
LINE
8
PIPES
10
-377.786262
20
2717.93
30
0
11
-635.584704
21
2885.37
31
0
0
LINE
8
PIPES
10
-635.584704
20
2885.37
30
0
11
-893.383146
21
3052.81
31
0
0
LINE
8
PIPES
10
-893.383146
20
3052.81
30
0
11
-1091.192009
21
3181.285
31
0
0
LINE
8
PIPES
10
-1151.181588
20
3220.24
30
0
11
-1408.980031
21
3387.68
31
0
0
LINE
8
PIPES
10
-1408.980031
20
3387.68
30
0
11
-1666.787133
21
3555.125
31
0
0
LINE
8
PIPES
10
-1666.787133
20
3555.125
30
0
11
-1924.585575
21
3722.565
31
0
0
LINE
8
PIPES
10
-1924.585575
20
3722.565
30
0
11
-2182.384018
21
3890.005
31
0
0
LINE
8
PIPES
10
3273.576026
20
46.765
30
0
11
2973.619467
21
241.585
31
0
0
LINE
8
PIPES
10
2973.619467
20
241.585
30
0
11
2715.819293
21
409.026
31
0
0
LINE
8
PIPES
10
2715.819293
20
409.026
30
0
11
2458.019119
21
576.467
31
0
0
LINE
8
PIPES
10
2458.019119
20
576.467
30
0
11
2200.215481
21
743.91
31
0
0
LINE
8
PIPES
10
2200.215481
20
743.91
30
0
11
2182.384018
21
755.485
31
0
0
LINE
8
PIPES
10
1942.417038
20
911.35
30
0
11
1684.618596
21
1078.78
31
0
0
LINE
8
PIPES
10
1684.618596
20
1078.78
30
0
11
1426.820154
21
1246.22
31
0
0
LINE
8
PIPES
10
1426.820154
20
1246.22
30
0
11
1169.021712
21
1413.66
31
0
0
LINE
8
PIPES
10
1169.021712
20
1413.66
30
0
11
1091.192009
21
1464.215
31
0
0
LINE
8
PIPES
10
911.214609
20
1581.105
30
0
11
653.416167
21
1748.545
31
0
0
LINE
8
PIPES
10
653.416167
20
1748.545
30
0
11
395.617725
21
1915.985
31
0
0
LINE
8
PIPES
10
395.617725
20
1915.985
30
0
11
137.819283
21
2083.425
31
0
0
LINE
8
PIPES
10
137.819283
20
2083.425
30
0
11
0
21
2172.935
31
0
0
LINE
8
PIPES
10
-119.979159
20
2250.865
30
0
11
-377.786262
21
2418.31
31
0
0
LINE
8
PIPES
10
-377.786262
20
2418.31
30
0
11
-635.584704
21
2585.75
31
0
0
LINE
8
PIPES
10
-635.584704
20
2585.75
30
0
11
-893.383146
21
2753.18
31
0
0
LINE
8
PIPES
10
-893.383146
20
2753.18
30
0
11
-1091.192009
21
2881.665
31
0
0
LINE
8
PIPES
10
-1151.181588
20
2920.62
30
0
11
-1408.980031
21
3088.06
31
0
0
LINE
8
PIPES
10
-1408.980031
20
3088.06
30
0
11
-1666.787133
21
3255.505
31
0
0
LINE
8
PIPES
10
-1666.787133
20
3255.505
30
0
11
-1924.585575
21
3422.945
31
0
0
LINE
8
PIPES
10
-1924.585575
20
3422.945
30
0
11
-2182.384018
21
3590.385
31
0
0
LINE
8
PIPES
10
-2182.384018
20
3590.385
30
0
11
-2182.384018
21
3606.595
31
0
0
LINE
8
PIPES
10
3273.576026
20
346.385
30
0
11
3273.576026
21
46.765
31
0
0
LINE
8
PIPES
10
2973.619467
20
541.205
30
0
11
2973.619467
21
241.585
31
0
0
LINE
8
PIPES
10
2715.819293
20
708.646
30
0
11
2715.819293
21
409.026
31
0
0
LINE
8
PIPES
10
2458.019119
20
876.087
30
0
11
2458.019119
21
576.467
31
0
0
LINE
8
PIPES
10
2200.215481
20
1043.53
30
0
11
2200.215481
21
743.91
31
0
0
LINE
8
PIPES
10
1942.417038
20
1210.97
30
0
11
1942.417038
21
911.35
31
0
0
LINE
8
PIPES
10
1684.618596
20
1378.4
30
0
11
1684.618596
21
1078.78
31
0
0
LINE
8
PIPES
10
1426.820154
20
1545.84
30
0
11
1426.820154
21
1246.22
31
0
0
LINE
8
PIPES
10
1169.021712
20
1713.28
30
0
11
1169.021712
21
1413.66
31
0
0
LINE
8
PIPES
10
911.214609
20
1880.725
30
0
11
911.214609
21
1581.105
31
0
0
LINE
8
PIPES
10
653.416167
20
2048.165
30
0
11
653.416167
21
1748.545
31
0
0
LINE
8
PIPES
10
395.617725
20
2215.605
30
0
11
395.617725
21
1915.985
31
0
0
LINE
8
PIPES
10
137.819283
20
2383.045
30
0
11
137.819283
21
2083.425
31
0
0
LINE
8
PIPES
10
-119.979159
20
2550.485
30
0
11
-119.979159
21
2250.865
31
0
0
LINE
8
PIPES
10
-377.786262
20
2717.93
30
0
11
-377.786262
21
2418.31
31
0
0
LINE
8
PIPES
10
-635.584704
20
2885.37
30
0
11
-635.584704
21
2585.75
31
0
0
LINE
8
PIPES
10
-893.383146
20
3052.81
30
0
11
-893.383146
21
2753.18
31
0
0
LINE
8
PIPES
10
-1151.181588
20
3220.24
30
0
11
-1151.181588
21
2920.62
31
0
0
LINE
8
PIPES
10
-1408.980031
20
3387.68
30
0
11
-1408.980031
21
3088.06
31
0
0
LINE
8
PIPES
10
-1666.787133
20
3555.125
30
0
11
-1666.787133
21
3255.505
31
0
0
LINE
8
PIPES
10
-1924.585575
20
3722.565
30
0
11
-1924.585575
21
3422.945
31
0
0
LINE
8
PIPES
10
0
20
-1843.235
30
0
11
-1091.192009
21
-2094.465
31
0
0
LINE
8
PIPES
10
-1091.192009
20
-2094.465
30
0
11
0
21
-3849.325
31
0
0
LINE
8
PIPES
10
0
20
-3849.325
30
0
11
-1091.192009
21
-4520.005
31
0
0
LINE
8
PIPES
10
-1091.192009
20
-1134.515
30
0
11
-2182.384018
21
-1464.465
31
0
0
LINE
8
PIPES
10
-2182.384018
20
-1464.465
30
0
11
-1091.192009
21
-3219.325
31
0
0
LINE
8
PIPES
10
-1091.192009
20
-3219.325
30
0
11
-2182.384018
21
-3890.005
31
0
0
LINE
8
PIPES
10
-2182.384018
20
-425.785
30
0
11
-3273.576026
21
-834.465
31
0
0
LINE
8
PIPES
10
-3273.576026
20
-834.465
30
0
11
-2182.384018
21
-2589.325
31
0
0
LINE
8
PIPES
10
-2182.384018
20
-2589.325
30
0
11
-3273.576026
21
-3260.005
31
0
0
LINE
8
PIPES
10
-3273.576026
20
282.935
30
0
11
-4364.768035
21
-204.465
31
0
0
LINE
8
PIPES
10
-4364.768035
20
-204.465
30
0
11
-3273.576026
21
-1959.325
31
0
0
LINE
8
PIPES
10
-3273.576026
20
-1959.325
30
0
11
-4364.768035
21
-2630.005
31
0
0
LINE
8
PIPES
10
-4364.768035
20
991.665
30
0
11
-5455.960044
21
425.535
31
0
0
LINE
8
PIPES
10
-5455.960044
20
425.535
30
0
11
-4364.768035
21
-1329.325
31
0
0
LINE
8
PIPES
10
-4364.768035
20
-1329.325
30
0
11
-5455.960044
21
-2000.005
31
0
0
LINE
8
PIPES
10
-3273.576026
20
2079.155
30
0
11
-2182.384018
21
2709.155
31
0
0
LINE
8
PIPES
10
0
20
-3038.941
30
0
11
-1091.192009
21
-2408.941
31
0
0
LINE
8
PIPES
10
-1091.192009
20
-2408.941
30
0
11
-2182.384018
21
-1778.941
31
0
0
LINE
8
PIPES
10
-2182.384018
20
-1778.941
30
0
11
-3273.576026
21
-1148.941
31
0
0
LINE
8
PIPES
10
1091.192009
20
-2408.941
30
0
11
0
21
-1778.941
31
0
0
LINE
8
PIPES
10
0
20
-1778.941
30
0
11
-1091.192009
21
-1148.941
31
0
0
LINE
8
PIPES
10
-1091.192009
20
-1148.941
30
0
11
-2182.384018
21
-518.941
31
0
0
LINE
8
PIPES
10
2182.384018
20
-1778.941
30
0
11
1091.192009
21
-1148.941
31
0
0
LINE
8
PIPES
10
1091.192009
20
-1148.941
30
0
11
0
21
-518.941
31
0
0
LINE
8
PIPES
10
0
20
-518.941
30
0
11
-1091.192009
21
111.059
31
0
0
LINE
8
PIPES
10
3273.576026
20
-1148.941
30
0
11
2182.384018
21
-518.941
31
0
0
LINE
8
PIPES
10
2182.384018
20
-518.941
30
0
11
1091.192009
21
111.059
31
0
0
LINE
8
PIPES
10
1091.192009
20
111.059
30
0
11
0
21
741.059
31
0
0
LINE
8
PIPES
10
0
20
-4298.941
30
0
11
1091.192009
21
-4220.004
31
0
0
LINE
8
PIPES
10
1091.192009
20
-4220.004
30
0
11
2182.384018
21
-3038.941
31
0
0
LINE
8
PIPES
10
2182.384018
20
-3038.941
30
0
11
3273.576026
21
-2960.004
31
0
0
LINE
8
PIPES
10
4364.768035
20
-1778.941
30
0
11
3273.576026
21
-2960.004
31
0
0
LINE
8
PIPES
10
4364.768035
20
-1778.941
30
0
11
5455.960044
21
-1700.004
31
0
0
LINE
8
PIPES
10
-1091.192009
20
-4220.004
30
0
11
0
21
-3038.941
31
0
0
LINE
8
PIPES
10
0
20
-3038.941
30
0
11
1091.192009
21
-2960.004
31
0
0
LINE
8
PIPES
10
1091.192009
20
-2960.004
30
0
11
2182.384018
21
-1778.941
31
0
0
LINE
8
PIPES
10
2182.384018
20
-1778.941
30
0
11
3273.576026
21
-1700.004
31
0
0
LINE
8
PIPES
10
3273.576026
20
-1700.004
30
0
11
4364.768035
21
-518.941
31
0
0
LINE
8
PIPES
10
-2182.384018
20
-3038.941
30
0
11
-1091.192009
21
-2960.004
31
0
0
LINE
8
PIPES
10
-1091.192009
20
-2960.004
30
0
11
0
21
-1778.941
31
0
0
LINE
8
PIPES
10
0
20
-1778.941
30
0
11
1091.192009
21
-1700.004
31
0
0
LINE
8
PIPES
10
1091.192009
20
-1700.004
30
0
11
2182.384018
21
-518.941
31
0
0
LINE
8
PIPES
10
2182.384018
20
-518.941
30
0
11
3273.576026
21
-440.004
31
0
0
LINE
8
PIPES
10
-3273.576026
20
-2960.004
30
0
11
-2182.384018
21
-1778.941
31
0
0
LINE
8
PIPES
10
-2182.384018
20
-1778.941
30
0
11
-1091.192009
21
-1700.004
31
0
0
LINE
8
PIPES
10
-1091.192009
20
-1700.004
30
0
11
0
21
-518.941
31
0
0
LINE
8
PIPES
10
0
20
-518.941
30
0
11
1091.192009
21
-440.004
31
0
0
LINE
8
PIPES
10
1091.192009
20
-440.004
30
0
11
2182.384018
21
741.059
31
0
0
LINE
8
PIPES
10
-4364.768035
20
-1778.941
30
0
11
-3273.576026
21
-1700.004
31
0
0
LINE
8
PIPES
10
-3273.576026
20
-1700.004
30
0
11
-2182.384018
21
-518.941
31
0
0
LINE
8
PIPES
10
-2182.384018
20
-518.941
30
0
11
-1091.192009
21
-440.004
31
0
0
LINE
8
PIPES
10
-1091.192009
20
-440.004
30
0
11
0
21
741.059
31
0
0
LINE
8
PIPES
10
0
20
741.059
30
0
11
1091.192009
21
819.996
31
0
0
LINE
8
PIPES
10
-5455.960044
20
-1700.004
30
0
11
-4364.768035
21
-518.941
31
0
0
LINE
8
PIPES
10
-4364.768035
20
-518.941
30
0
11
-3273.576026
21
-440.004
31
0
0
LINE
8
PIPES
10
-3273.576026
20
-440.004
30
0
11
-2182.384018
21
741.059
31
0
0
LINE
8
PIPES
10
-2182.384018
20
741.059
30
0
11
-1091.192009
21
819.996
31
0
0
LINE
8
PIPES
10
-1091.192009
20
819.996
30
0
11
0
21
2001.059
31
0
0
LINE
8
PIPES
10
1091.192009
20
-4220.004
30
0
11
0
21
-3038.941
31
0
0
LINE
8
PIPES
10
0
20
-3038.941
30
0
11
-1091.192009
21
-2960.004
31
0
0
LINE
8
PIPES
10
-1091.192009
20
-2960.004
30
0
11
-2182.384018
21
-1778.941
31
0
0
LINE
8
PIPES
10
-2182.384018
20
-1778.941
30
0
11
-3273.576026
21
-1700.004
31
0
0
LINE
8
PIPES
10
-3273.576026
20
-1700.004
30
0
11
-4364.768035
21
-518.941
31
0
0
LINE
8
PIPES
10
2182.384018
20
-3038.941
30
0
11
1091.192009
21
-2960.004
31
0
0
LINE
8
PIPES
10
1091.192009
20
-2960.004
30
0
11
0
21
-1778.941
31
0
0
LINE
8
PIPES
10
0
20
-1778.941
30
0
11
-1091.192009
21
-1700.004
31
0
0
LINE
8
PIPES
10
-1091.192009
20
-1700.004
30
0
11
-2182.384018
21
-518.941
31
0
0
LINE
8
PIPES
10
-2182.384018
20
-518.941
30
0
11
-3273.576026
21
-440.004
31
0
0
LINE
8
PIPES
10
3273.576026
20
-2960.004
30
0
11
2182.384018
21
-1778.941
31
0
0
LINE
8
PIPES
10
2182.384018
20
-1778.941
30
0
11
1091.192009
21
-1700.004
31
0
0
LINE
8
PIPES
10
1091.192009
20
-1700.004
30
0
11
0
21
-518.941
31
0
0
LINE
8
PIPES
10
0
20
-518.941
30
0
11
-1091.192009
21
-440.004
31
0
0
LINE
8
PIPES
10
-1091.192009
20
-440.004
30
0
11
-2182.384018
21
741.059
31
0
0
LINE
8
PIPES
10
4364.768035
20
-1778.941
30
0
11
3273.576026
21
-1700.004
31
0
0
LINE
8
PIPES
10
3273.576026
20
-1700.004
30
0
11
2182.384018
21
-518.941
31
0
0
LINE
8
PIPES
10
2182.384018
20
-518.941
30
0
11
1091.192009
21
-440.004
31
0
0
LINE
8
PIPES
10
1091.192009
20
-440.004
30
0
11
0
21
741.059
31
0
0
LINE
8
PIPES
10
0
20
741.059
30
0
11
-1091.192009
21
819.996
31
0
0
LINE
8
PIPES
10
0
20
-1843.235
30
0
11
-1091.192009
21
-1134.515
31
0
0
LINE
8
PIPES
10
-1091.192009
20
-1134.515
30
0
11
-2182.384018
21
-425.785
31
0
0
LINE
8
PIPES
10
-2182.384018
20
-425.785
30
0
11
-3273.576026
21
282.935
31
0
0
LINE
8
PIPES
10
-3273.576026
20
282.935
30
0
11
-4364.768035
21
991.665
31
0
0
LINE
8
PIPES
10
-4364.768035
20
991.665
30
0
11
-5455.960044
21
1700.385
31
0
0
LINE
8
PIPES
10
0
20
-1543.615
30
0
11
-1091.192009
21
-834.895
31
0
0
LINE
8
PIPES
10
-1091.192009
20
-834.895
30
0
11
-2182.384018
21
-126.165
31
0
0
LINE
8
PIPES
10
-2182.384018
20
-126.165
30
0
11
-3273.576026
21
582.555
31
0
0
LINE
8
PIPES
10
-3273.576026
20
582.555
30
0
11
-4364.768035
21
1291.285
31
0
0
LINE
8
PIPES
10
-4364.768035
20
1291.285
30
0
11
-5455.960044
21
2000.005
31
0
0
LINE
8
PIPES
10
5455.960044
20
1306.765
30
0
11
4364.768035
21
2015.485
31
0
0
LINE
8
PIPES
10
4364.768035
20
2015.485
30
0
11
3273.576026
21
2724.215
31
0
0
LINE
8
PIPES
10
3273.576026
20
2724.215
30
0
11
2182.384018
21
3432.935
31
0
0
LINE
8
PIPES
10
2182.384018
20
3432.935
30
0
11
1091.192009
21
4141.665
31
0
0
LINE
8
PIPES
10
1091.192009
20
4141.665
30
0
11
0
21
4850.385
31
0
0
LINE
8
PIPES
10
5455.960044
20
1606.385
30
0
11
4364.768035
21
2315.105
31
0
0
LINE
8
PIPES
10
4364.768035
20
2315.105
30
0
11
3273.576026
21
3023.835
31
0
0
LINE
8
PIPES
10
3273.576026
20
3023.835
30
0
11
2182.384018
21
3732.555
31
0
0
LINE
8
PIPES
10
2182.384018
20
3732.555
30
0
11
1091.192009
21
4441.285
31
0
0
LINE
8
PIPES
10
1091.192009
20
4441.285
30
0
11
0
21
5150.005
31
0
0
LINE
8
PIPES
10
0
20
4850.385
30
0
11
1091.192009
21
2945.535
31
0
0
LINE
8
PIPES
10
1091.192009
20
2945.535
30
0
11
0
21
2450.675
31
0
0
LINE
8
PIPES
10
0
20
2450.675
30
0
11
1091.192009
21
519.995
31
0
0
LINE
8
PIPES
10
1091.192009
20
4141.665
30
0
11
2182.384018
21
2315.535
31
0
0
LINE
8
PIPES
10
2182.384018
20
2315.535
30
0
11
1091.192009
21
1820.675
31
0
0
LINE
8
PIPES
10
1091.192009
20
1820.675
30
0
11
2182.384018
21
-110.005
31
0
0
LINE
8
PIPES
10
2182.384018
20
3432.935
30
0
11
3273.576026
21
1685.535
31
0
0
LINE
8
PIPES
10
3273.576026
20
1685.535
30
0
11
2182.384018
21
1190.675
31
0
0
LINE
8
PIPES
10
2182.384018
20
1190.675
30
0
11
3273.576026
21
-740.005
31
0
0
LINE
8
PIPES
10
3273.576026
20
2724.215
30
0
11
4364.768035
21
1055.535
31
0
0
LINE
8
PIPES
10
4364.768035
20
1055.535
30
0
11
3273.576026
21
560.675
31
0
0
LINE
8
PIPES
10
3273.576026
20
560.675
30
0
11
4364.768035
21
-1370.005
31
0
0
LINE
8
PIPES
10
4364.768035
20
2015.485
30
0
11
5455.960044
21
425.535
31
0
0
LINE
8
PIPES
10
5455.960044
20
425.535
30
0
11
4364.768035
21
-69.325
31
0
0
LINE
8
PIPES
10
4364.768035
20
-69.325
30
0
11
5455.960044
21
-2000.005
31
0
0
LINE
8
PIPES
10
0
20
-1843.235
30
0
11
1091.192009
21
-2094.465
31
0
0
LINE
8
PIPES
10
1091.192009
20
-2094.465
30
0
11
0
21
-3849.325
31
0
0
LINE
8
PIPES
10
0
20
-3849.325
30
0
11
1091.192009
21
-4520.005
31
0
0
LINE
8
PIPES
10
1091.192009
20
-1213.235
30
0
11
2182.384018
21
-1464.465
31
0
0
LINE
8
PIPES
10
2182.384018
20
-1464.465
30
0
11
1091.192009
21
-3219.325
31
0
0
LINE
8
PIPES
10
1091.192009
20
-3219.325
30
0
11
2182.384018
21
-3890.005
31
0
0
LINE
8
PIPES
10
2182.384018
20
-583.235
30
0
11
3273.576026
21
-834.465
31
0
0
LINE
8
PIPES
10
3273.576026
20
-834.465
30
0
11
2182.384018
21
-2589.325
31
0
0
LINE
8
PIPES
10
2182.384018
20
-2589.325
30
0
11
3273.576026
21
-3260.005
31
0
0
LINE
8
PIPES
10
3273.576026
20
46.765
30
0
11
4364.768035
21
-204.465
31
0
0
LINE
8
PIPES
10
4364.768035
20
-204.465
30
0
11
3273.576026
21
-1959.325
31
0
0
LINE
8
PIPES
10
3273.576026
20
-1959.325
30
0
11
4364.768035
21
-2630.005
31
0
0
LINE
8
PIPES
10
4364.768035
20
676.765
30
0
11
5455.960044
21
425.535
31
0
0
LINE
8
PIPES
10
5455.960044
20
425.535
30
0
11
4364.768035
21
-1329.325
31
0
0
LINE
8
PIPES
10
4364.768035
20
-1329.325
30
0
11
5455.960044
21
-2000.005
31
0
0
LINE
8
PIPES
10
-2182.384018
20
3606.595
30
0
11
-3273.576026
21
2079.155
31
0
0
LINE
8
PIPES
10
-4364.768035
20
2330.385
30
0
11
-5455.960044
21
425.535
31
0
0
LINE
8
PIPES
10
-5455.960044
20
425.535
30
0
11
-4364.768035
21
-69.325
31
0
0
LINE
8
PIPES
10
-4364.768035
20
-69.325
30
0
11
-5455.960044
21
-2000.005
31
0
0
LINE
8
PIPES
10
-3273.576026
20
2976.595
30
0
11
-4364.768035
21
1055.535
31
0
0
LINE
8
PIPES
10
-4364.768035
20
1055.535
30
0
11
-3273.576026
21
560.675
31
0
0
LINE
8
PIPES
10
-3273.576026
20
560.675
30
0
11
-4364.768035
21
-1370.005
31
0
0
LINE
8
PIPES
10
-1091.192009
20
4220.385
30
0
11
-2182.384018
21
2315.535
31
0
0
LINE
8
PIPES
10
-2182.384018
20
2315.535
30
0
11
-1091.192009
21
1820.675
31
0
0
LINE
8
PIPES
10
-1091.192009
20
1820.675
30
0
11
-2182.384018
21
-110.005
31
0
0
LINE
8
PIPES
10
0
20
4850.385
30
0
11
-1091.192009
21
2945.535
31
0
0
LINE
8
PIPES
10
-1091.192009
20
2945.535
30
0
11
0
21
2450.675
31
0
0
LINE
8
PIPES
10
-1091.192009
20
519.995
30
0
11
0
21
2450.675
31
0
0
LINE
8
PIPES
10
0
20
-1843.235
30
0
11
0
21
-1543.615
31
0
0
LINE
8
PIPES
10
-1091.192009
20
-1134.515
30
0
11
-1091.192009
21
-834.895
31
0
0
LINE
8
PIPES
10
-2182.384018
20
-425.785
30
0
11
-2182.384018
21
-126.165
31
0
0
LINE
8
PIPES
10
-3273.576026
20
282.935
30
0
11
-3273.576026
21
582.555
31
0
0
LINE
8
PIPES
10
-4364.768035
20
991.665
30
0
11
-4364.768035
21
1291.285
31
0
0
LINE
8
PIPES
10
-5455.960044
20
1700.385
30
0
11
-5455.960044
21
2000.005
31
0
0
LINE
8
PIPES
10
433.013568
20
-4048.9405
30
0
11
1091.192009
21
-3668.941
31
0
0
LINE
8
PIPES
10
5022.947342
20
-1398.941
30
0
11
5455.960044
21
-1148.941
31
0
0
LINE
8
PIPES
10
-658.178441
20
-2969.3245
30
0
11
-1749.37045
21
-2339.3245
31
0
0
LINE
8
PIPES
10
3931.755333
20
-319.325
30
0
11
2840.563324
21
310.675
31
0
0
LINE
8
PIPES
10
-2840.562458
20
-1709.3245
30
0
11
-3931.754467
21
-1079.3245
31
0
0
LINE
8
PIPES
10
1749.371316
20
940.675
30
0
11
658.179307
21
1570.675
31
0
0
LINE
8
PIPES
10
-3931.754467
20
-1079.3245
30
0
11
-4589.933774
21
-699.3245
31
0
0
LINE
8
PIPES
10
658.179307
20
1570.675
30
0
11
0
21
1950.675
31
0
0
LINE
8
PIPES
10
-5022.946476
20
-898.9405
30
0
11
-4364.768035
21
-518.941
31
0
0
LINE
8
PIPES
10
-433.012702
20
1751.059
30
0
11
0
21
2001.059
31
0
0
LINE
8
PIPES
10
5455.960044
20
1306.765
30
0
11
5455.960044
21
1606.385
31
0
0
LINE
8
PIPES
10
4364.768035
20
2015.485
30
0
11
4364.768035
21
2315.105
31
0
0
LINE
8
PIPES
10
3273.576026
20
2724.215
30
0
11
3273.576026
21
3023.835
31
0
0
LINE
8
PIPES
10
2182.384018
20
3432.935
30
0
11
2182.384018
21
3732.555
31
0
0
LINE
8
PIPES
10
1091.192009
20
4141.665
30
0
11
1091.192009
21
4441.285
31
0
0
LINE
8
PIPES
10
0
20
4850.385
30
0
11
0
21
5150.005
31
0
0
LINE
8
PIPES
10
1091.192009
20
-1213.235
30
0
11
1091.192009
21
-913.615
31
0
0
LINE
8
PIPES
10
-4364.768035
20
2330.385
30
0
11
-4364.768035
21
2630.005
31
0
0
LINE
8
PIPES
10
4364.768035
20
676.765
30
0
11
4364.768035
21
976.385
31
0
0
LINE
8
PIPES
10
-1091.192009
20
4220.385
30
0
11
-1091.192009
21
4520.005
31
0
0
LINE
8
PIPES
10
-1091.192009
20
-834.895
30
0
11
0
21
-204.895
31
0
0
LINE
8
PIPES
10
-1091.192009
20
-1134.515
30
0
11
0
21
-504.515
31
0
0
LINE
8
PIPES
10
-2182.384018
20
-126.165
30
0
11
-1091.192009
21
503.835
31
0
0
LINE
8
PIPES
10
-2182.384018
20
-425.785
30
0
11
-1091.192009
21
204.215
31
0
0
LINE
8
PIPES
10
-3273.576026
20
582.555
30
0
11
-2182.384018
21
1212.555
31
0
0
LINE
8
PIPES
10
-3273.576026
20
282.935
30
0
11
-2182.384018
21
912.935
31
0
0
LINE
8
PIPES
10
-4364.768035
20
1291.285
30
0
11
-3273.576026
21
1921.285
31
0
0
LINE
8
PIPES
10
-4364.768035
20
991.665
30
0
11
-3273.576026
21
1621.665
31
0
0
LINE
8
PIPES
10
0
20
-504.515
30
0
11
0
21
-204.895
31
0
0
LINE
8
PIPES
10
-1091.192009
20
204.215
30
0
11
-1091.192009
21
503.835
31
0
0
LINE
8
PIPES
10
-2182.384018
20
912.935
30
0
11
-2182.384018
21
1212.555
31
0
0
LINE
8
PIPES
10
-3273.576026
20
1621.665
30
0
11
-3273.576026
21
1921.285
31
0
0
LINE
8
PIPES
10
1091.192009
20
425.105
30
0
11
851.22503
21
580.97
31
0
0
LINE
8
PIPES
10
0
20
-204.895
30
0
11
1091.192009
21
425.105
31
0
0
LINE
8
PIPES
10
1091.192009
20
125.485
30
0
11
851.22503
21
281.35
31
0
0
LINE
8
PIPES
10
0
20
-504.515
30
0
11
1091.192009
21
125.485
31
0
0
LINE
8
PIPES
10
0
20
1133.835
30
0
11
-179.977399
21
1250.725
31
0
0
LINE
8
PIPES
10
-1091.192009
20
503.835
30
0
11
0
21
1133.835
31
0
0
LINE
8
PIPES
10
0
20
834.215
30
0
11
-179.977399
21
951.105
31
0
0
LINE
8
PIPES
10
-1091.192009
20
204.215
30
0
11
0
21
834.215
31
0
0
LINE
8
PIPES
10
-1091.192009
20
1842.555
30
0
11
-1211.171168
21
1920.485
31
0
0
LINE
8
PIPES
10
-2182.384018
20
1212.555
30
0
11
-1091.192009
21
1842.555
31
0
0
LINE
8
PIPES
10
-1091.192009
20
1542.935
30
0
11
-1211.171168
21
1620.865
31
0
0
LINE
8
PIPES
10
-2182.384018
20
912.935
30
0
11
-1091.192009
21
1542.935
31
0
0
LINE
8
PIPES
10
-2182.384018
20
2551.285
30
0
11
-2242.373597
21
2590.24
31
0
0
LINE
8
PIPES
10
-3273.576026
20
1921.285
30
0
11
-2182.384018
21
2551.285
31
0
0
LINE
8
PIPES
10
-2182.384018
20
2251.665
30
0
11
-2242.373597
21
2290.62
31
0
0
LINE
8
PIPES
10
-3273.576026
20
1621.665
30
0
11
-2182.384018
21
2251.665
31
0
0
LINE
8
PIPES
10
1091.192009
20
125.485
30
0
11
1091.192009
21
425.105
31
0
0
LINE
8
PIPES
10
0
20
834.215
30
0
11
0
21
1133.835
31
0
0
LINE
8
PIPES
10
-1091.192009
20
1542.935
30
0
11
-1091.192009
21
1842.555
31
0
0
LINE
8
PIPES
10
-2182.384018
20
2251.665
30
0
11
-2182.384018
21
2551.285
31
0
0
LINE
8
PIPES
10
2182.384018
20
1055.105
30
0
11
1942.417038
21
1210.97
31
0
0
LINE
8
PIPES
10
1091.192009
20
425.105
30
0
11
2182.384018
21
1055.105
31
0
0
LINE
8
PIPES
10
2182.384018
20
755.485
30
0
11
1942.417038
21
911.35
31
0
0
LINE
8
PIPES
10
1091.192009
20
125.485
30
0
11
2182.384018
21
755.485
31
0
0
LINE
8
PIPES
10
1091.192009
20
1763.835
30
0
11
911.214609
21
1880.725
31
0
0
LINE
8
PIPES
10
0
20
1133.835
30
0
11
1091.192009
21
1763.835
31
0
0
LINE
8
PIPES
10
1091.192009
20
1464.215
30
0
11
911.214609
21
1581.105
31
0
0
LINE
8
PIPES
10
0
20
834.215
30
0
11
1091.192009
21
1464.215
31
0
0
LINE
8
PIPES
10
0
20
2472.555
30
0
11
-119.979159
21
2550.485
31
0
0
LINE
8
PIPES
10
-1091.192009
20
1842.555
30
0
11
0
21
2472.555
31
0
0
LINE
8
PIPES
10
0
20
2172.935
30
0
11
-119.979159
21
2250.865
31
0
0
LINE
8
PIPES
10
-1091.192009
20
1542.935
30
0
11
0
21
2172.935
31
0
0
LINE
8
PIPES
10
-1091.192009
20
3181.285
30
0
11
-1151.181588
21
3220.24
31
0
0
LINE
8
PIPES
10
-2182.384018
20
2551.285
30
0
11
-1091.192009
21
3181.285
31
0
0
LINE
8
PIPES
10
-1091.192009
20
2881.665
30
0
11
-1151.181588
21
2920.62
31
0
0
LINE
8
PIPES
10
-2182.384018
20
2251.665
30
0
11
-1091.192009
21
2881.665
31
0
0
LINE
8
PIPES
10
2182.384018
20
755.485
30
0
11
2182.384018
21
1055.105
31
0
0
LINE
8
PIPES
10
1091.192009
20
1464.215
30
0
11
1091.192009
21
1763.835
31
0
0
LINE
8
PIPES
10
0
20
2172.935
30
0
11
0
21
2472.555
31
0
0
LINE
8
PIPES
10
-1091.192009
20
2881.665
30
0
11
-1091.192009
21
3181.285
31
0
0
LINE
8
PIPES
10
2182.384018
20
1055.105
30
0
11
3273.584687
21
1685.11
31
0
0
LINE
8
PIPES
10
2182.384018
20
755.485
30
0
11
3273.584687
21
1385.49
31
0
0
LINE
8
PIPES
10
1091.192009
20
1763.835
30
0
11
2182.392678
21
2393.84
31
0
0
LINE
8
PIPES
10
1091.192009
20
1464.215
30
0
11
2182.392678
21
2094.22
31
0
0
LINE
8
PIPES
10
0
20
2472.555
30
0
11
1091.200669
21
3102.56
31
0
0
LINE
8
PIPES
10
0
20
2172.935
30
0
11
1091.200669
21
2802.94
31
0
0
LINE
8
PIPES
10
-1091.192009
20
3181.285
30
0
11
0.00866
21
3811.29
31
0
0
LINE
8
PIPES
10
-1091.192009
20
2881.665
30
0
11
0.00866
21
3511.67
31
0
0
LINE
8
PIPES
10
3273.584687
20
1385.49
30
0
11
3273.584687
21
1685.11
31
0
0
LINE
8
PIPES
10
2182.392678
20
2094.22
30
0
11
2182.392678
21
2393.84
31
0
0
LINE
8
PIPES
10
1091.200669
20
2802.94
30
0
11
1091.200669
21
3102.56
31
0
0
LINE
8
PIPES
10
0.00866
20
3511.67
30
0
11
0.00866
21
3811.29
31
0
0
LINE
8
PIPES
10
3273.584687
20
1685.11
30
0
11
4364.768035
21
2315.105
31
0
0
LINE
8
PIPES
10
3273.584687
20
1385.49
30
0
11
4364.768035
21
2015.485
31
0
0
LINE
8
PIPES
10
2182.392678
20
2393.84
30
0
11
3273.576026
21
3023.835
31
0
0
LINE
8
PIPES
10
2182.392678
20
2094.22
30
0
11
3273.576026
21
2724.215
31
0
0
LINE
8
PIPES
10
1091.200669
20
3102.56
30
0
11
2182.384018
21
3732.555
31
0
0
LINE
8
PIPES
10
1091.200669
20
2802.94
30
0
11
2182.384018
21
3432.935
31
0
0
LINE
8
PIPES
10
0.00866
20
3811.29
30
0
11
1091.192009
21
4441.285
31
0
0
LINE
8
PIPES
10
0.00866
20
3511.67
30
0
11
1091.192009
21
4141.665
31
0
0
LINE
8
PIPES
10
1091.192009
20
-913.615
30
0
11
0
21
-204.895
31
0
0
LINE
8
PIPES
10
0
20
-204.895
30
0
11
-1091.192009
21
503.835
31
0
0
LINE
8
PIPES
10
-2182.384018
20
1212.555
30
0
11
-1091.192009
21
503.835
31
0
0
LINE
8
PIPES
10
-2182.384018
20
1212.555
30
0
11
-3273.576026
21
1921.285
31
0
0
LINE
8
PIPES
10
-3273.576026
20
1921.285
30
0
11
-4364.768035
21
2630.005
31
0
0
LINE
8
PIPES
10
1091.192009
20
-1213.235
30
0
11
0
21
-504.515
31
0
0
LINE
8
PIPES
10
0
20
-504.515
30
0
11
-1091.192009
21
204.215
31
0
0
LINE
8
PIPES
10
-1091.192009
20
204.215
30
0
11
-2182.384018
21
912.935
31
0
0
LINE
8
PIPES
10
-2182.384018
20
912.935
30
0
11
-3273.576026
21
1621.665
31
0
0
LINE
8
PIPES
10
-3273.576026
20
1621.665
30
0
11
-4364.768035
21
2330.385
31
0
0
LINE
8
PIPES
10
4364.768035
20
676.765
30
0
11
3273.584687
21
1385.49
31
0
0
LINE
8
PIPES
10
3273.584687
20
1385.49
30
0
11
2182.392678
21
2094.22
31
0
0
LINE
8
PIPES
10
2182.392678
20
2094.22
30
0
11
1091.200669
21
2802.94
31
0
0
LINE
8
PIPES
10
1091.200669
20
2802.94
30
0
11
0.00866
21
3511.67
31
0
0
LINE
8
PIPES
10
0.00866
20
3511.67
30
0
11
-1091.192009
21
4220.385
31
0
0
LINE
8
PIPES
10
4364.768035
20
976.385
30
0
11
3273.584687
21
1685.11
31
0
0
LINE
8
PIPES
10
3273.584687
20
1685.11
30
0
11
2182.392678
21
2393.84
31
0
0
LINE
8
PIPES
10
2182.392678
20
2393.84
30
0
11
1091.200669
21
3102.56
31
0
0
LINE
8
PIPES
10
1091.200669
20
3102.56
30
0
11
0.00866
21
3811.29
31
0
0
LINE
8
PIPES
10
0.00866
20
3811.29
30
0
11
-1091.192009
21
4520.005
31
0
0
LINE
8
PIPES
10
0
20
-1543.615
30
0
11
1091.192009
21
-1213.235
31
0
0
LINE
8
PIPES
10
1091.192009
20
-1213.235
30
0
11
2182.384018
21
-283.615
31
0
0
LINE
8
PIPES
10
2182.384018
20
-283.615
30
0
11
3273.576026
21
46.765
31
0
0
LINE
8
PIPES
10
4364.768035
20
976.385
30
0
11
3273.576026
21
46.765
31
0
0
LINE
8
PIPES
10
4364.768035
20
976.385
30
0
11
5455.960044
21
1306.765
31
0
0
LINE
8
PIPES
10
-1091.192009
20
-1134.515
30
0
11
0
21
-204.895
31
0
0
LINE
8
PIPES
10
4364.768035
20
2315.105
30
0
11
3273.584687
21
1385.49
31
0
0
LINE
8
PIPES
10
-2182.384018
20
-126.165
30
0
11
-1091.192009
21
204.215
31
0
0
LINE
8
PIPES
10
-1091.192009
20
204.215
30
0
11
0
21
1133.835
31
0
0
LINE
8
PIPES
10
0
20
1133.835
30
0
11
1091.192009
21
1464.215
31
0
0
LINE
8
PIPES
10
1091.192009
20
1464.215
30
0
11
2182.392678
21
2393.84
31
0
0
LINE
8
PIPES
10
2182.392678
20
2393.84
30
0
11
3273.576026
21
2724.215
31
0
0
LINE
8
PIPES
10
-3273.576026
20
282.935
30
0
11
-2182.384018
21
1212.555
31
0
0
LINE
8
PIPES
10
-2182.384018
20
1212.555
30
0
11
-1091.192009
21
1542.935
31
0
0
LINE
8
PIPES
10
-1091.192009
20
1542.935
30
0
11
0
21
2472.555
31
0
0
LINE
8
PIPES
10
0
20
2472.555
30
0
11
1091.200669
21
2802.94
31
0
0
LINE
8
PIPES
10
2182.384018
20
3732.555
30
0
11
1091.200669
21
2802.94
31
0
0
LINE
8
PIPES
10
-4364.768035
20
1291.285
30
0
11
-3273.576026
21
1621.665
31
0
0
LINE
8
PIPES
10
-3273.576026
20
1621.665
30
0
11
-2182.384018
21
2551.285
31
0
0
LINE
8
PIPES
10
-2182.384018
20
2551.285
30
0
11
-1091.192009
21
2881.665
31
0
0
LINE
8
PIPES
10
-1091.192009
20
2881.665
30
0
11
0.00866
21
3811.29
31
0
0
LINE
8
PIPES
10
0.00866
20
3811.29
30
0
11
1091.192009
21
4141.665
31
0
0
LINE
8
PIPES
10
-5455.960044
20
1700.385
30
0
11
-4364.768035
21
2630.005
31
0
0
LINE
8
PIPES
10
-4364.768035
20
2630.005
30
0
11
-3273.576026
21
2976.595
31
0
0
LINE
8
PIPES
10
-3273.576026
20
2960.385
30
0
11
-2182.384018
21
3890.005
31
0
0
LINE
8
PIPES
10
-2182.384018
20
3890.005
30
0
11
-1091.192009
21
4220.385
31
0
0
LINE
8
PIPES
10
-1091.192009
20
4220.385
30
0
11
0
21
5150.005
31
0
0
LINE
8
PIPES
10
0
20
-1543.615
30
0
11
-1091.192009
21
-1134.515
31
0
0
LINE
8
PIPES
10
-1091.192009
20
-1134.515
30
0
11
-2182.384018
21
-126.165
31
0
0
LINE
8
PIPES
10
-2182.384018
20
-126.165
30
0
11
-3273.576026
21
282.935
31
0
0
LINE
8
PIPES
10
-3273.576026
20
282.935
30
0
11
-4364.768035
21
1291.285
31
0
0
LINE
8
PIPES
10
-4364.768035
20
1291.285
30
0
11
-5455.960044
21
1700.385
31
0
0
LINE
8
PIPES
10
1091.192009
20
-1213.235
30
0
11
0
21
-204.895
31
0
0
LINE
8
PIPES
10
0
20
-204.895
30
0
11
-1091.192009
21
204.215
31
0
0
LINE
8
PIPES
10
-1091.192009
20
204.215
30
0
11
-2182.384018
21
1212.555
31
0
0
LINE
8
PIPES
10
-2182.384018
20
1212.555
30
0
11
-3273.576026
21
1621.665
31
0
0
LINE
8
PIPES
10
-3273.576026
20
1621.665
30
0
11
-4364.768035
21
2630.005
31
0
0
LINE
8
PIPES
10
4364.768035
20
976.385
30
0
11
3273.584687
21
1385.49
31
0
0
LINE
8
PIPES
10
3273.584687
20
1385.49
30
0
11
2182.392678
21
2393.84
31
0
0
LINE
8
PIPES
10
2182.392678
20
2393.84
30
0
11
1091.200669
21
2802.94
31
0
0
LINE
8
PIPES
10
1091.200669
20
2802.94
30
0
11
0.00866
21
3811.29
31
0
0
LINE
8
PIPES
10
0.00866
20
3811.29
30
0
11
-1091.192009
21
4220.385
31
0
0
LINE
8
PIPES
10
5455.960044
20
1306.765
30
0
11
4364.768035
21
2315.105
31
0
0
LINE
8
PIPES
10
4364.768035
20
2315.105
30
0
11
3273.576026
21
2724.215
31
0
0
LINE
8
PIPES
10
3273.576026
20
2724.215
30
0
11
2182.384018
21
3732.555
31
0
0
LINE
8
PIPES
10
2182.384018
20
3732.555
30
0
11
1091.192009
21
4141.665
31
0
0
LINE
8
PIPES
10
1091.192009
20
4141.665
30
0
11
0
21
5150.005
31
0
0
LINE
8
PIPES
10
-433.013568
20
-4048.9405
30
0
11
-1091.192009
21
-3668.941
31
0
0
LINE
8
PIPES
10
-5022.947342
20
-1398.941
30
0
11
-5455.960044
21
-1148.941
31
0
0
LINE
8
PIPES
10
5022.946476
20
-898.9405
30
0
11
4364.768035
21
-518.941
31
0
0
LINE
8
PIPES
10
433.012702
20
1751.059
30
0
11
0
21
2001.059
31
0
0
LINE
8
PIPES
10
-433.013568
20
-3599.3245
30
0
11
-1091.192009
21
-3219.325
31
0
0
LINE
8
PIPES
10
0
20
-3349.324
30
0
11
-433.013568
21
-3599.3245
31
0
0
LINE
8
PIPES
10
-5022.947342
20
-949.325
30
0
11
-5455.960044
21
-699.325
31
0
0
LINE
8
PIPES
10
-4589.933774
20
-699.3245
30
0
11
-5022.947342
21
-949.325
31
0
0
LINE
8
PIPES
10
5022.946476
20
-449.3245
30
0
11
4364.768035
21
-69.325
31
0
0
LINE
8
PIPES
10
4589.933774
20
-699.3245
30
0
11
5022.946476
21
-449.3245
31
0
0
LINE
8
PIPES
10
433.012702
20
2200.675
30
0
11
0
21
2450.675
31
0
0
LINE
8
PIPES
10
0
20
1950.675
30
0
11
433.012702
21
2200.675
31
0
0
LINE
8
PIPES
10
0
20
-204.895
30
0
11
1091.192009
21
125.485
31
0
0
LINE
8
PIPES
10
1091.192009
20
125.485
30
0
11
2182.384018
21
1055.105
31
0
0
LINE
8
PIPES
10
2182.384018
20
1055.105
30
0
11
3273.584687
21
1385.49
31
0
0
LINE
8
PIPES
10
0
20
-1543.615
30
0
11
0
21
-204.895
31
0
0
LINE
8
PIPES
10
0
20
-204.895
30
0
11
-2182.384018
21
-126.165
31
0
0
LINE
8
PIPES
10
-2182.384018
20
-126.165
30
0
11
-2182.384018
21
1212.555
31
0
0
LINE
8
PIPES
10
-2182.384018
20
1212.555
30
0
11
-4364.768035
21
1291.285
31
0
0
LINE
8
PIPES
10
-4364.768035
20
1291.285
30
0
11
-4364.768035
21
2630.005
31
0
0
LINE
8
PIPES
10
1091.192009
20
-913.615
30
0
11
1091.192009
21
425.105
31
0
0
LINE
8
PIPES
10
1091.192009
20
425.105
30
0
11
-1091.192009
21
503.835
31
0
0
LINE
8
PIPES
10
2182.384018
20
-283.615
30
0
11
2182.384018
21
1055.105
31
0
0
LINE
8
PIPES
10
-1091.192009
20
503.835
30
0
11
-1091.192009
21
1842.555
31
0
0
LINE
8
PIPES
10
-1091.192009
20
1842.555
30
0
11
-3273.576026
21
1921.285
31
0
0
LINE
8
PIPES
10
-3273.576026
20
1921.285
30
0
11
-3273.576026
21
3260.005
31
0
0
LINE
8
PIPES
10
2182.384018
20
1055.105
30
0
11
0
21
1133.835
31
0
0
LINE
8
PIPES
10
0
20
1133.835
30
0
11
0
21
2472.555
31
0
0
LINE
8
PIPES
10
0
20
2472.555
30
0
11
-2182.384018
21
2551.285
31
0
0
LINE
8
PIPES
10
-2182.384018
20
2551.285
30
0
11
-2182.384018
21
3890.005
31
0
0
LINE
8
PIPES
10
3273.576026
20
346.385
30
0
11
3273.584687
21
1685.11
31
0
0
LINE
8
PIPES
10
3273.584687
20
1685.11
30
0
11
1091.192009
21
1763.835
31
0
0
LINE
8
PIPES
10
1091.192009
20
1763.835
30
0
11
1091.200669
21
3102.56
31
0
0
LINE
8
PIPES
10
1091.200669
20
3102.56
30
0
11
-1091.192009
21
3181.285
31
0
0
LINE
8
PIPES
10
-1091.192009
20
3181.285
30
0
11
-1091.192009
21
4520.005
31
0
0
LINE
8
PIPES
10
4364.768035
20
976.385
30
0
11
4364.768035
21
2315.105
31
0
0
LINE
8
PIPES
10
4364.768035
20
2315.105
30
0
11
2182.392678
21
2393.84
31
0
0
LINE
8
PIPES
10
2182.392678
20
2393.84
30
0
11
2182.384018
21
3732.555
31
0
0
LINE
8
PIPES
10
2182.384018
20
3732.555
30
0
11
0.00866
21
3811.29
31
0
0
LINE
8
PIPES
10
0.00866
20
3811.29
30
0
11
0
21
5150.005
31
0
0
LINE
8
PIPES
10
1091.192009
20
-1213.235
30
0
11
-1091.192009
21
-1134.515
31
0
0
LINE
8
PIPES
10
-1091.192009
20
-1134.515
30
0
11
-1091.192009
21
204.215
31
0
0
LINE
8
PIPES
10
-1091.192009
20
204.215
30
0
11
-3273.576026
21
282.935
31
0
0
LINE
8
PIPES
10
-3273.576026
20
282.935
30
0
11
-3273.576026
21
1621.665
31
0
0
LINE
8
PIPES
10
-3273.576026
20
1621.665
30
0
11
-5455.960044
21
1700.385
31
0
0
LINE
8
PIPES
10
2182.384018
20
-583.235
30
0
11
0
21
-504.515
31
0
0
LINE
8
PIPES
10
0
20
-504.515
30
0
11
0
21
834.215
31
0
0
LINE
8
PIPES
10
0
20
834.215
30
0
11
-2182.384018
21
912.935
31
0
0
LINE
8
PIPES
10
-2182.384018
20
912.935
30
0
11
-2182.384018
21
2251.665
31
0
0
LINE
8
PIPES
10
-2182.384018
20
2251.665
30
0
11
-4364.768035
21
2330.385
31
0
0
LINE
8
PIPES
10
3273.576026
20
46.765
30
0
11
1091.192009
21
125.485
31
0
0
LINE
8
PIPES
10
1091.192009
20
125.485
30
0
11
1091.192009
21
1464.215
31
0
0
LINE
8
PIPES
10
1091.192009
20
1464.215
30
0
11
-1091.192009
21
1542.935
31
0
0
LINE
8
PIPES
10
-1091.192009
20
1542.935
30
0
11
-1091.192009
21
2881.665
31
0
0
LINE
8
PIPES
10
-1091.192009
20
2881.665
30
0
11
-3273.576026
21
2960.385
31
0
0
LINE
8
PIPES
10
4364.768035
20
676.765
30
0
11
2182.384018
21
755.485
31
0
0
LINE
8
PIPES
10
2182.384018
20
755.485
30
0
11
2182.392678
21
2094.22
31
0
0
LINE
8
PIPES
10
2182.392678
20
2094.22
30
0
11
0
21
2172.935
31
0
0
LINE
8
PIPES
10
0
20
2172.935
30
0
11
0.00866
21
3511.67
31
0
0
LINE
8
PIPES
10
0.00866
20
3511.67
30
0
11
-2182.384018
21
3590.385
31
0
0
LINE
8
PIPES
10
5455.960044
20
1306.765
30
0
11
3273.584687
21
1385.49
31
0
0
LINE
8
PIPES
10
3273.584687
20
1385.49
30
0
11
3273.576026
21
2724.215
31
0
0
LINE
8
PIPES
10
3273.576026
20
2724.215
30
0
11
1091.200669
21
2802.94
31
0
0
LINE
8
PIPES
10
1091.200669
20
2802.94
30
0
11
1091.192009
21
4141.665
31
0
0
LINE
8
PIPES
10
1091.192009
20
4141.665
30
0
11
-1091.192009
21
4220.385
31
0
0
ENDSEC
0
EOF
