0
SECTION
2
HEADER
9
$ACADVER
1
AC1009
9
$INSUNITS
70
4
9
$MEASUREMENT
70
1
9
$LUNITS
70
2
9
$LUPREC
70
1
9
$TILEMODE
70
1
9
$EXTMIN
10
-3855.345773
20
-2491.720773
30
0
9
$EXTMAX
10
3855.345773
20
2491.720773
30
0
9
$PEXTMIN
10
-3855.345773
20
-2491.720773
30
0
9
$PEXTMAX
10
3855.345773
20
2491.720773
30
0
9
$LIMMIN
10
-4355.345773
20
-2991.720773
9
$LIMMAX
10
4355.345773
20
2991.720773
9
$PLIMMIN
10
-4355.345773
20
-2991.720773
9
$PLIMMAX
10
4355.345773
20
2991.720773
0
ENDSEC
0
SECTION
2
TABLES
0
TABLE
2
VPORT
70
1
0
VPORT
2
*ACTIVE
70
0
10
0
20
0
11
1
21
1
12
0
22
0
40
5983.441545
41
1.4558
42
50
43
0
44
0
50
0
51
0
71
0
72
100
73
1
74
3
75
0
76
0
77
0
78
0
0
ENDTAB
0
TABLE
2
LTYPE
70
2
0
LTYPE
2
CONTINUOUS
70
0
3
Solid line
72
65
73
0
40
0
0
LTYPE
2
DASHED
70
0
3
Dashed
72
65
73
2
40
240
49
120
74
0
49
-120
74
0
0
ENDTAB
0
TABLE
2
LAYER
70
6
0
LAYER
2
PIPES
70
0
62
5
6
CONTINUOUS
0
LAYER
2
PIPE_ENDS
70
0
62
5
6
CONTINUOUS
0
LAYER
2
DIMENSION
70
0
62
1
6
CONTINUOUS
0
LAYER
2
LEVEL_GUIDE
70
0
62
1
6
DASHED
0
LAYER
2
LEVEL_TEXT
70
0
62
1
6
CONTINUOUS
0
LAYER
2
FRAME
70
0
62
5
6
CONTINUOUS
0
ENDTAB
0
TABLE
2
STYLE
70
1
0
STYLE
2
STANDARD
70
0
40
0
41
1
50
0
71
0
42
100
3
txt
4

0
ENDTAB
0
ENDSEC
0
SECTION
2
BLOCKS
0
BLOCK
8
0
2
$MODEL_SPACE
70
0
10
0
20
0
30
0
3
$MODEL_SPACE
0
ENDBLK
8
0
0
BLOCK
67
1
8
0
2
$PAPER_SPACE
70
0
10
0
20
0
30
0
3
$PAPER_SPACE
0
ENDBLK
67
1
8
0
0
ENDSEC
0
SECTION
2
ENTITIES
0
LINE
8
PIPES
10
-3791.904227
20
-1571.720773
30
0
11
-2591.904227
21
-1571.720773
31
0
0
LINE
8
PIPES
10
-2591.904227
20
-1571.720773
30
0
11
-1391.904227
21
-1571.720773
31
0
0
LINE
8
PIPES
10
-1391.904227
20
-1571.720773
30
0
11
-191.904227
21
-1571.720773
31
0
0
LINE
8
PIPES
10
-191.904227
20
-1571.720773
30
0
11
1008.095773
21
-1571.720773
31
0
0
LINE
8
PIPES
10
1008.095773
20
-1571.720773
30
0
11
2208.095773
21
-1571.720773
31
0
0
LINE
8
PIPES
10
-3791.904227
20
-238.720773
30
0
11
-2591.904227
21
-238.720773
31
0
0
LINE
8
PIPES
10
-2591.904227
20
-238.720773
30
0
11
-1391.904227
21
-238.720773
31
0
0
LINE
8
PIPES
10
-1391.904227
20
-238.720773
30
0
11
-191.904227
21
-238.720773
31
0
0
LINE
8
PIPES
10
-191.904227
20
-238.720773
30
0
11
1008.095773
21
-238.720773
31
0
0
LINE
8
PIPES
10
1008.095773
20
-238.720773
30
0
11
2208.095773
21
-238.720773
31
0
0
LINE
8
PIPES
10
-3791.904227
20
1094.279227
30
0
11
-2591.904227
21
1094.279227
31
0
0
LINE
8
PIPES
10
-2591.904227
20
1094.279227
30
0
11
-1391.904227
21
1094.279227
31
0
0
LINE
8
PIPES
10
-1391.904227
20
1094.279227
30
0
11
-191.904227
21
1094.279227
31
0
0
LINE
8
PIPES
10
-191.904227
20
1094.279227
30
0
11
1008.095773
21
1094.279227
31
0
0
LINE
8
PIPES
10
1008.095773
20
1094.279227
30
0
11
2208.095773
21
1094.279227
31
0
0
LINE
8
PIPES
10
-3791.904227
20
2428.279227
30
0
11
-2591.904227
21
2428.279227
31
0
0
LINE
8
PIPES
10
-2591.904227
20
2428.279227
30
0
11
-1391.904227
21
2428.279227
31
0
0
LINE
8
PIPES
10
-1391.904227
20
2428.279227
30
0
11
-191.904227
21
2428.279227
31
0
0
LINE
8
PIPES
10
-191.904227
20
2428.279227
30
0
11
1008.095773
21
2428.279227
31
0
0
LINE
8
PIPES
10
1008.095773
20
2428.279227
30
0
11
2208.095773
21
2428.279227
31
0
0
LINE
8
PIPES
10
-3791.904227
20
-1571.720773
30
0
11
-3791.904227
21
-238.720773
31
0
0
LINE
8
PIPES
10
-3791.904227
20
-238.720773
30
0
11
-3791.904227
21
1094.279227
31
0
0
LINE
8
PIPES
10
-3791.904227
20
1094.279227
30
0
11
-3791.904227
21
2428.279227
31
0
0
LINE
8
PIPES
10
-2591.904227
20
-1571.720773
30
0
11
-2591.904227
21
-238.720773
31
0
0
LINE
8
PIPES
10
-2591.904227
20
-238.720773
30
0
11
-2591.904227
21
1094.279227
31
0
0
LINE
8
PIPES
10
-2591.904227
20
1094.279227
30
0
11
-2591.904227
21
2428.279227
31
0
0
LINE
8
PIPES
10
-1391.904227
20
-1571.720773
30
0
11
-1391.904227
21
-238.720773
31
0
0
LINE
8
PIPES
10
-1391.904227
20
-238.720773
30
0
11
-1391.904227
21
1094.279227
31
0
0
LINE
8
PIPES
10
-1391.904227
20
1094.279227
30
0
11
-1391.904227
21
2428.279227
31
0
0
LINE
8
PIPES
10
-191.904227
20
-1571.720773
30
0
11
-191.904227
21
-238.720773
31
0
0
LINE
8
PIPES
10
-191.904227
20
-238.720773
30
0
11
-191.904227
21
1094.279227
31
0
0
LINE
8
PIPES
10
-191.904227
20
1094.279227
30
0
11
-191.904227
21
2428.279227
31
0
0
LINE
8
PIPES
10
1008.095773
20
-1571.720773
30
0
11
1008.095773
21
-238.720773
31
0
0
LINE
8
PIPES
10
1008.095773
20
-238.720773
30
0
11
1008.095773
21
1094.279227
31
0
0
LINE
8
PIPES
10
1008.095773
20
1094.279227
30
0
11
1008.095773
21
2428.279227
31
0
0
LINE
8
PIPES
10
2208.095773
20
-1571.720773
30
0
11
2208.095773
21
-238.720773
31
0
0
LINE
8
PIPES
10
2208.095773
20
-238.720773
30
0
11
2208.095773
21
1094.279227
31
0
0
LINE
8
PIPES
10
2208.095773
20
1094.279227
30
0
11
2208.095773
21
2428.279227
31
0
0
LINE
8
PIPES
10
-3291.903227
20
2428.279227
30
0
11
-3791.904227
21
2428.279227
31
0
0
LINE
8
PIPES
10
1708.095773
20
2428.279227
30
0
11
1008.095773
21
2428.279227
31
0
0
LINE
8
PIPES
10
-3791.904227
20
1094.279227
30
0
11
-3791.904227
21
1928.279227
31
0
0
LINE
8
PIPES
10
2208.095773
20
1094.279227
30
0
11
2208.095773
21
1928.279227
31
0
0
LINE
8
PIPES
10
-3791.904227
20
-1571.720773
30
0
11
-3291.903227
21
-1571.720773
31
0
0
LINE
8
PIPES
10
-3291.903227
20
-1571.720773
30
0
11
-2591.904227
21
-1571.720773
31
0
0
LINE
8
PIPES
10
1008.095773
20
-1571.720773
30
0
11
1708.095773
21
-1571.720773
31
0
0
LINE
8
PIPES
10
2208.095773
20
-1571.720773
30
0
11
1708.095773
21
-1571.720773
31
0
0
LINE
8
PIPES
10
-3791.904227
20
-238.720773
30
0
11
-3291.903227
21
-238.720773
31
0
0
LINE
8
PIPES
10
-3291.903227
20
-238.720773
30
0
11
-2591.904227
21
-238.720773
31
0
0
LINE
8
PIPES
10
1008.095773
20
-238.720773
30
0
11
1708.095773
21
-238.720773
31
0
0
LINE
8
PIPES
10
2208.095773
20
-238.720773
30
0
11
1708.095773
21
-238.720773
31
0
0
LINE
8
PIPES
10
-3791.904227
20
1094.279227
30
0
11
-3291.903227
21
1094.279227
31
0
0
LINE
8
PIPES
10
-3291.903227
20
1094.279227
30
0
11
-2591.904227
21
1094.279227
31
0
0
LINE
8
PIPES
10
1008.095773
20
1094.279227
30
0
11
1708.095773
21
1094.279227
31
0
0
LINE
8
PIPES
10
2208.095773
20
1094.279227
30
0
11
1708.095773
21
1094.279227
31
0
0
LINE
8
PIPES
10
-1391.904227
20
2428.279227
30
0
11
-1391.904227
21
1928.279227
31
0
0
LINE
8
PIPES
10
-1391.904227
20
1928.279227
30
0
11
-1391.904227
21
1094.279227
31
0
0
LINE
8
PIPES
10
-191.904227
20
2428.279227
30
0
11
-191.904227
21
1928.279227
31
0
0
LINE
8
PIPES
10
-191.904227
20
1928.279227
30
0
11
-191.904227
21
1094.279227
31
0
0
LINE
8
PIPES
10
-2591.904227
20
2428.279227
30
0
11
-2591.904227
21
1928.279227
31
0
0
LINE
8
PIPES
10
-2591.904227
20
1928.279227
30
0
11
-2591.904227
21
1094.279227
31
0
0
LINE
8
PIPES
10
1008.095773
20
2428.279227
30
0
11
1008.095773
21
1928.279227
31
0
0
LINE
8
PIPES
10
1008.095773
20
1928.279227
30
0
11
1008.095773
21
1094.279227
31
0
0
LINE
8
PIPES
10
-3291.903227
20
-1571.720773
30
0
11
-3291.903227
21
-1071.720773
31
0
0
LINE
8
PIPES
10
-3291.903227
20
1928.279227
30
0
11
-3291.903227
21
2428.279227
31
0
0
LINE
8
PIPES
10
1708.095773
20
-1571.720773
30
0
11
1708.095773
21
-1071.720773
31
0
0
LINE
8
PIPES
10
1708.095773
20
1928.279227
30
0
11
1708.095773
21
2428.279227
31
0
0
LINE
8
PIPES
10
-3291.903227
20
1928.279227
30
0
11
-2591.904227
21
1928.279227
31
0
0
LINE
8
PIPES
10
-2591.904227
20
1928.279227
30
0
11
-1391.904227
21
1928.279227
31
0
0
LINE
8
PIPES
10
-191.904227
20
1928.279227
30
0
11
1008.095773
21
1928.279227
31
0
0
LINE
8
PIPES
10
1008.095773
20
1928.279227
30
0
11
1708.095773
21
1928.279227
31
0
0
LINE
8
PIPES
10
1708.095773
20
2428.279227
30
0
11
2208.095773
21
2428.279227
31
0
0
LINE
8
PIPES
10
-3291.903227
20
2428.279227
30
0
11
-2591.904227
21
2428.279227
31
0
0
LINE
8
PIPES
10
-3791.904227
20
-1571.720773
30
0
11
-3791.904227
21
-1071.720773
31
0
0
LINE
8
PIPES
10
2208.095773
20
-1571.720773
30
0
11
2208.095773
21
-1071.720773
31
0
0
LINE
8
PIPES
10
-1391.904227
20
-1143.900773
30
0
11
-1391.904227
21
-846.220773
31
0
0
LINE
8
PIPES
10
-1391.904227
20
-846.220773
30
0
11
-1391.904227
21
-548.540773
31
0
0
LINE
8
PIPES
10
-1391.904227
20
-548.540773
30
0
11
-1391.904227
21
-250.860773
31
0
0
LINE
8
PIPES
10
-1391.904227
20
-250.860773
30
0
11
-1391.904227
21
-238.720773
31
0
0
LINE
8
PIPES
10
-1391.904227
20
46.819227
30
0
11
-1391.904227
21
344.509227
31
0
0
LINE
8
PIPES
10
-1391.904227
20
344.509227
30
0
11
-1391.904227
21
642.189227
31
0
0
LINE
8
PIPES
10
-1391.904227
20
642.189227
30
0
11
-1391.904227
21
939.869227
31
0
0
LINE
8
PIPES
10
-1391.904227
20
939.869227
30
0
11
-1391.904227
21
1094.279227
31
0
0
LINE
8
PIPES
10
-1391.904227
20
1237.549227
30
0
11
-1391.904227
21
1535.229227
31
0
0
LINE
8
PIPES
10
-1391.904227
20
1535.229227
30
0
11
-1391.904227
21
1832.919227
31
0
0
LINE
8
PIPES
10
-1391.904227
20
1832.919227
30
0
11
-1391.904227
21
2130.599227
31
0
0
LINE
8
PIPES
10
-1391.904227
20
2130.599227
30
0
11
-1391.904227
21
2428.279227
31
0
0
LINE
8
PIPES
10
-191.904227
20
-1143.900773
30
0
11
-191.904227
21
-846.220773
31
0
0
LINE
8
PIPES
10
-191.904227
20
-846.220773
30
0
11
-191.904227
21
-548.540773
31
0
0
LINE
8
PIPES
10
-191.904227
20
-548.540773
30
0
11
-191.904227
21
-250.860773
31
0
0
LINE
8
PIPES
10
-191.904227
20
-250.860773
30
0
11
-191.904227
21
-238.720773
31
0
0
LINE
8
PIPES
10
-191.904227
20
46.819227
30
0
11
-191.904227
21
344.509227
31
0
0
LINE
8
PIPES
10
-191.904227
20
344.509227
30
0
11
-191.904227
21
642.189227
31
0
0
LINE
8
PIPES
10
-191.904227
20
642.189227
30
0
11
-191.904227
21
939.869227
31
0
0
LINE
8
PIPES
10
-191.904227
20
939.869227
30
0
11
-191.904227
21
1094.279227
31
0
0
LINE
8
PIPES
10
-191.904227
20
1237.549227
30
0
11
-191.904227
21
1535.229227
31
0
0
LINE
8
PIPES
10
-191.904227
20
1535.229227
30
0
11
-191.904227
21
1832.919227
31
0
0
LINE
8
PIPES
10
-191.904227
20
1832.919227
30
0
11
-191.904227
21
2130.599227
31
0
0
LINE
8
PIPES
10
-191.904227
20
2130.599227
30
0
11
-191.904227
21
2428.279227
31
0
0
LINE
8
PIPES
10
-2591.904227
20
-1571.720773
30
0
11
-2591.904227
21
-1071.720773
31
0
0
LINE
8
PIPES
10
-1391.904227
20
-1571.720773
30
0
11
-1391.904227
21
-1071.720773
31
0
0
LINE
8
PIPES
10
-191.904227
20
-1571.720773
30
0
11
-191.904227
21
-1071.720773
31
0
0
LINE
8
PIPES
10
1008.095773
20
-1571.720773
30
0
11
1008.095773
21
-1071.720773
31
0
0
LINE
8
PIPES
10
-3291.903227
20
-238.720773
30
0
11
-3291.903227
21
1094.279227
31
0
0
LINE
8
PIPES
10
1708.095773
20
-238.720773
30
0
11
1708.095773
21
1094.279227
31
0
0
LINE
8
PIPES
10
-3291.903227
20
1094.279227
30
0
11
-3291.903227
21
1928.279227
31
0
0
LINE
8
PIPES
10
1708.095773
20
1094.279227
30
0
11
1708.095773
21
1928.279227
31
0
0
LINE
8
PIPES
10
-1391.904227
20
-1571.720773
30
0
11
-1391.904227
21
-1143.900773
31
0
0
LINE
8
PIPES
10
-1391.904227
20
-238.720773
30
0
11
-1391.904227
21
46.819227
31
0
0
LINE
8
PIPES
10
-1391.904227
20
1094.279227
30
0
11
-1391.904227
21
1237.549227
31
0
0
LINE
8
PIPES
10
-191.904227
20
-1571.720773
30
0
11
-191.904227
21
-1143.900773
31
0
0
LINE
8
PIPES
10
-191.904227
20
-238.720773
30
0
11
-191.904227
21
46.819227
31
0
0
LINE
8
PIPES
10
-191.904227
20
1094.279227
30
0
11
-191.904227
21
1237.549227
31
0
0
LINE
8
PIPES
10
1008.105773
20
-1571.720773
30
0
11
-191.904227
21
-1571.720773
31
0
0
LINE
8
PIPES
10
-191.904227
20
-238.720773
30
0
11
1008.105773
21
-238.720773
31
0
0
LINE
8
PIPES
10
-191.904227
20
1094.279227
30
0
11
1008.105773
21
1094.279227
31
0
0
LINE
8
PIPES
10
1008.105773
20
-1571.720773
30
0
11
2208.095773
21
-1571.720773
31
0
0
LINE
8
PIPES
10
2208.095773
20
-238.720773
30
0
11
1008.105773
21
-238.720773
31
0
0
LINE
8
PIPES
10
1008.105773
20
1094.279227
30
0
11
2208.095773
21
1094.279227
31
0
0
LINE
8
PIPES
10
1008.105773
20
-1571.720773
30
0
11
1008.105773
21
-238.720773
31
0
0
LINE
8
PIPES
10
1008.105773
20
-238.720773
30
0
11
1008.105773
21
1094.279227
31
0
0
LINE
8
PIPES
10
1008.105773
20
1094.279227
30
0
11
1008.095773
21
2428.279227
31
0
0
LINE
8
PIPES
10
-3791.904227
20
1928.279227
30
0
11
-3791.904227
21
2428.279227
31
0
0
LINE
8
PIPES
10
2208.095773
20
1928.279227
30
0
11
2208.095773
21
2428.279227
31
0
0
LINE
8
PIPES
10
-3291.903227
20
1928.279227
30
0
11
-3791.904227
21
1928.279227
31
0
0
LINE
8
PIPES
10
1708.095773
20
1928.279227
30
0
11
2208.095773
21
1928.279227
31
0
0
LINE
8
PIPES
10
-3791.904227
20
-1571.720773
30
0
11
-2591.904227
21
-238.720773
31
0
0
LINE
8
PIPES
10
-2591.904227
20
-238.720773
30
0
11
-3791.904227
21
1094.279227
31
0
0
LINE
8
PIPES
10
-3791.904227
20
1094.279227
30
0
11
-2591.904227
21
2428.279227
31
0
0
LINE
8
PIPES
10
-2591.904227
20
-1571.720773
30
0
11
-1391.904227
21
-238.720773
31
0
0
LINE
8
PIPES
10
-1391.904227
20
-238.720773
30
0
11
-2591.904227
21
1094.279227
31
0
0
LINE
8
PIPES
10
-2591.904227
20
1094.279227
30
0
11
-1391.904227
21
2428.279227
31
0
0
LINE
8
PIPES
10
-1391.904227
20
-1571.720773
30
0
11
-191.904227
21
-238.720773
31
0
0
LINE
8
PIPES
10
-191.904227
20
-238.720773
30
0
11
-1391.904227
21
1094.279227
31
0
0
LINE
8
PIPES
10
-1391.904227
20
1094.279227
30
0
11
-191.904227
21
2428.279227
31
0
0
LINE
8
PIPES
10
-191.904227
20
-1571.720773
30
0
11
1008.105773
21
-238.720773
31
0
0
LINE
8
PIPES
10
1008.105773
20
-238.720773
30
0
11
-191.904227
21
1094.279227
31
0
0
LINE
8
PIPES
10
-191.904227
20
1094.279227
30
0
11
1008.095773
21
2428.279227
31
0
0
LINE
8
PIPES
10
1008.105773
20
-1571.720773
30
0
11
2208.095773
21
-238.720773
31
0
0
LINE
8
PIPES
10
2208.095773
20
-238.720773
30
0
11
1008.105773
21
1094.279227
31
0
0
LINE
8
PIPES
10
1008.105773
20
1094.279227
30
0
11
2208.095773
21
2428.279227
31
0
0
LINE
8
PIPES
10
-2591.904227
20
-1571.720773
30
0
11
-3791.904227
21
-238.720773
31
0
0
LINE
8
PIPES
10
-3791.904227
20
-238.720773
30
0
11
-2591.904227
21
1094.279227
31
0
0
LINE
8
PIPES
10
-2591.904227
20
1094.279227
30
0
11
-3791.904227
21
2428.279227
31
0
0
LINE
8
PIPES
10
-1391.904227
20
-1571.720773
30
0
11
-2591.904227
21
-238.720773
31
0
0
LINE
8
PIPES
10
-2591.904227
20
-238.720773
30
0
11
-1391.904227
21
1094.279227
31
0
0
LINE
8
PIPES
10
-1391.904227
20
1094.279227
30
0
11
-2591.904227
21
2428.279227
31
0
0
LINE
8
PIPES
10
-191.904227
20
-1571.720773
30
0
11
-1391.904227
21
-238.720773
31
0
0
LINE
8
PIPES
10
-1391.904227
20
-238.720773
30
0
11
-191.904227
21
1094.279227
31
0
0
LINE
8
PIPES
10
-191.904227
20
1094.279227
30
0
11
-1391.904227
21
2428.279227
31
0
0
LINE
8
PIPES
10
1008.105773
20
-1571.720773
30
0
11
-191.904227
21
-238.720773
31
0
0
LINE
8
PIPES
10
-191.904227
20
-238.720773
30
0
11
1008.105773
21
1094.279227
31
0
0
LINE
8
PIPES
10
1008.105773
20
1094.279227
30
0
11
-191.904227
21
2428.279227
31
0
0
LINE
8
PIPES
10
2208.095773
20
-1571.720773
30
0
11
1008.105773
21
-238.720773
31
0
0
LINE
8
PIPES
10
1008.105773
20
-238.720773
30
0
11
2208.095773
21
1094.279227
31
0
0
LINE
8
PIPES
10
2208.095773
20
1094.279227
30
0
11
1008.095773
21
2428.279227
31
0
0
LINE
8
PIPES
10
1008.105773
20
-1571.720773
30
0
11
1008.095773
21
-1571.720773
31
0
0
LINE
8
PIPES
10
-3791.904227
20
-1071.720773
30
0
11
-3791.904227
21
-238.720773
31
0
0
LINE
8
PIPES
10
-3291.903227
20
-1071.720773
30
0
11
-3291.903227
21
-238.720773
31
0
0
LINE
8
PIPES
10
1708.095773
20
-1071.720773
30
0
11
1708.095773
21
-238.720773
31
0
0
LINE
8
PIPES
10
2208.095773
20
-1071.720773
30
0
11
2208.095773
21
-238.720773
31
0
0
LINE
8
PIPES
10
-1391.904227
20
-1071.720773
30
0
11
-1391.904227
21
-238.720773
31
0
0
LINE
8
PIPES
10
-191.904227
20
-1071.720773
30
0
11
-191.904227
21
-238.720773
31
0
0
LINE
8
PIPES
10
-3791.904227
20
-1071.720773
30
0
11
-3291.903227
21
-1071.720773
31
0
0
LINE
8
PIPES
10
2208.095773
20
-1071.720773
30
0
11
1708.095773
21
-1071.720773
31
0
0
LINE
8
PIPES
10
-3291.903227
20
-1071.720773
30
0
11
-2591.904227
21
-1071.720773
31
0
0
LINE
8
PIPES
10
-2591.904227
20
-1071.720773
30
0
11
-1391.904227
21
-1071.720773
31
0
0
LINE
8
PIPES
10
-1391.904227
20
-1071.720773
30
0
11
-191.904227
21
-1071.720773
31
0
0
LINE
8
PIPES
10
-191.904227
20
-1071.720773
30
0
11
1008.095773
21
-1071.720773
31
0
0
LINE
8
PIPES
10
1008.095773
20
-1071.720773
30
0
11
1708.095773
21
-1071.720773
31
0
0
LINE
8
PIPES
10
-2591.904227
20
-1071.720773
30
0
11
-2591.904227
21
-238.720773
31
0
0
LINE
8
PIPES
10
1008.095773
20
-1071.720773
30
0
11
1008.095773
21
-238.720773
31
0
0
CIRCLE
8
PIPE_ENDS
10
-3791.904227
20
-1571.720773
30
0
40
32
0
CIRCLE
8
PIPE_ENDS
10
-3791.904227
20
-238.720773
30
0
40
32
0
CIRCLE
8
PIPE_ENDS
10
-3791.904227
20
1094.279227
30
0
40
32
0
CIRCLE
8
PIPE_ENDS
10
-3791.904227
20
2428.279227
30
0
40
32
0
CIRCLE
8
PIPE_ENDS
10
2208.095773
20
-1571.720773
30
0
40
32
0
CIRCLE
8
PIPE_ENDS
10
2208.095773
20
-238.720773
30
0
40
32
0
CIRCLE
8
PIPE_ENDS
10
2208.095773
20
1094.279227
30
0
40
32
0
CIRCLE
8
PIPE_ENDS
10
2208.095773
20
2428.279227
30
0
40
32
0
CIRCLE
8
PIPE_ENDS
10
-2591.904227
20
2428.279227
30
0
40
32
0
CIRCLE
8
PIPE_ENDS
10
-2591.904227
20
-1571.720773
30
0
40
32
0
CIRCLE
8
PIPE_ENDS
10
-2591.904227
20
-238.720773
30
0
40
32
0
CIRCLE
8
PIPE_ENDS
10
-2591.904227
20
1094.279227
30
0
40
32
0
CIRCLE
8
PIPE_ENDS
10
1008.095773
20
2428.279227
30
0
40
32
0
CIRCLE
8
PIPE_ENDS
10
1008.095773
20
-1571.720773
30
0
40
32
0
CIRCLE
8
PIPE_ENDS
10
1008.095773
20
-238.720773
30
0
40
32
0
CIRCLE
8
PIPE_ENDS
10
1008.095773
20
1094.279227
30
0
40
32
0
CIRCLE
8
PIPE_ENDS
10
-1391.904227
20
2428.279227
30
0
40
32
0
CIRCLE
8
PIPE_ENDS
10
-1391.904227
20
-1571.720773
30
0
40
32
0
CIRCLE
8
PIPE_ENDS
10
-1391.904227
20
-238.720773
30
0
40
32
0
CIRCLE
8
PIPE_ENDS
10
-1391.904227
20
1094.279227
30
0
40
32
0
CIRCLE
8
PIPE_ENDS
10
-191.904227
20
2428.279227
30
0
40
32
0
CIRCLE
8
PIPE_ENDS
10
-191.904227
20
-1571.720773
30
0
40
32
0
CIRCLE
8
PIPE_ENDS
10
-191.904227
20
-238.720773
30
0
40
32
0
CIRCLE
8
PIPE_ENDS
10
-191.904227
20
1094.279227
30
0
40
32
0
CIRCLE
8
PIPE_ENDS
10
-3291.904227
20
-1571.720773
30
0
40
25
0
CIRCLE
8
PIPE_ENDS
10
1708.095773
20
-1571.720773
30
0
40
25
0
CIRCLE
8
PIPE_ENDS
10
-3291.904227
20
-238.720773
30
0
40
25
0
CIRCLE
8
PIPE_ENDS
10
1708.095773
20
-238.720773
30
0
40
25
0
CIRCLE
8
PIPE_ENDS
10
-3291.904227
20
1094.279227
30
0
40
25
0
CIRCLE
8
PIPE_ENDS
10
1708.095773
20
1094.279227
30
0
40
25
0
CIRCLE
8
PIPE_ENDS
10
-3291.904227
20
2428.279227
30
0
40
25
0
CIRCLE
8
PIPE_ENDS
10
1708.095773
20
2428.279227
30
0
40
25
0
CIRCLE
8
PIPE_ENDS
10
-1391.904227
20
1928.279227
30
0
40
25
0
CIRCLE
8
PIPE_ENDS
10
-191.904227
20
1928.279227
30
0
40
25
0
CIRCLE
8
PIPE_ENDS
10
-2591.904227
20
1928.279227
30
0
40
25
0
CIRCLE
8
PIPE_ENDS
10
1008.095773
20
1928.279227
30
0
40
25
0
CIRCLE
8
PIPE_ENDS
10
-3291.904227
20
1928.279227
30
0
40
25
0
CIRCLE
8
PIPE_ENDS
10
1708.095773
20
1928.279227
30
0
40
25
0
CIRCLE
8
PIPE_ENDS
10
-1391.904227
20
-1143.920773
30
0
40
25
0
CIRCLE
8
PIPE_ENDS
10
-1391.904227
20
-846.220773
30
0
40
25
0
CIRCLE
8
PIPE_ENDS
10
-1391.904227
20
-548.520773
30
0
40
25
0
CIRCLE
8
PIPE_ENDS
10
-1391.904227
20
-250.820773
30
0
40
25
0
CIRCLE
8
PIPE_ENDS
10
-1391.904227
20
46.779227
30
0
40
25
0
CIRCLE
8
PIPE_ENDS
10
-1391.904227
20
344.479227
30
0
40
25
0
CIRCLE
8
PIPE_ENDS
10
-1391.904227
20
642.179227
30
0
40
25
0
CIRCLE
8
PIPE_ENDS
10
-1391.904227
20
939.879227
30
0
40
25
0
CIRCLE
8
PIPE_ENDS
10
-1391.904227
20
1237.579227
30
0
40
25
0
CIRCLE
8
PIPE_ENDS
10
-1391.904227
20
1535.279227
30
0
40
25
0
CIRCLE
8
PIPE_ENDS
10
-1391.904227
20
1832.879227
30
0
40
25
0
CIRCLE
8
PIPE_ENDS
10
-1391.904227
20
2130.579227
30
0
40
25
0
CIRCLE
8
PIPE_ENDS
10
-191.904227
20
-1143.920773
30
0
40
25
0
CIRCLE
8
PIPE_ENDS
10
-191.904227
20
-846.220773
30
0
40
25
0
CIRCLE
8
PIPE_ENDS
10
-191.904227
20
-548.520773
30
0
40
25
0
CIRCLE
8
PIPE_ENDS
10
-191.904227
20
-250.820773
30
0
40
25
0
CIRCLE
8
PIPE_ENDS
10
-191.904227
20
46.779227
30
0
40
25
0
CIRCLE
8
PIPE_ENDS
10
-191.904227
20
344.479227
30
0
40
25
0
CIRCLE
8
PIPE_ENDS
10
-191.904227
20
642.179227
30
0
40
25
0
CIRCLE
8
PIPE_ENDS
10
-191.904227
20
939.879227
30
0
40
25
0
CIRCLE
8
PIPE_ENDS
10
-191.904227
20
1237.579227
30
0
40
25
0
CIRCLE
8
PIPE_ENDS
10
-191.904227
20
1535.279227
30
0
40
25
0
CIRCLE
8
PIPE_ENDS
10
-191.904227
20
1832.879227
30
0
40
25
0
CIRCLE
8
PIPE_ENDS
10
-191.904227
20
2130.579227
30
0
40
25
0
CIRCLE
8
PIPE_ENDS
10
-3291.904227
20
-1071.720773
30
0
40
25
0
CIRCLE
8
PIPE_ENDS
10
1708.095773
20
-1071.720773
30
0
40
25
0
CIRCLE
8
PIPE_ENDS
10
-1391.904227
20
-1071.720773
30
0
40
25
0
CIRCLE
8
PIPE_ENDS
10
-191.904227
20
-1071.720773
30
0
40
25
0
CIRCLE
8
PIPE_ENDS
10
-2591.904227
20
-1071.720773
30
0
40
25
0
CIRCLE
8
PIPE_ENDS
10
1008.095773
20
-1071.720773
30
0
40
25
0
LINE
8
DIMENSION
10
-3791.904227
20
-1631.720773
30
0
11
-3791.904227
21
-1951.720773
31
0
0
LINE
8
DIMENSION
10
-3291.904227
20
-1631.720773
30
0
11
-3291.904227
21
-1951.720773
31
0
0
LINE
8
DIMENSION
10
-3791.904227
20
-1951.720773
30
0
11
-3291.904227
21
-1951.720773
31
0
0
LINE
8
DIMENSION
10
-3791.904227
20
-1951.720773
30
0
11
-3855.345773
21
-1922.137494
31
0
0
LINE
8
DIMENSION
10
-3791.904227
20
-1951.720773
30
0
11
-3855.345773
21
-1981.304051
31
0
0
LINE
8
DIMENSION
10
-3291.904227
20
-1951.720773
30
0
11
-3228.462682
21
-1981.304051
31
0
0
LINE
8
DIMENSION
10
-3291.904227
20
-1951.720773
30
0
11
-3228.462682
21
-1922.137494
31
0
0
TEXT
8
DIMENSION
10
-3541.904227
20
-2121.720773
30
0
40
85
1
0.5
50
0
7
STANDARD
72
1
73
2
11
-3541.904227
21
-2121.720773
31
0
0
LINE
8
DIMENSION
10
-3291.904227
20
-1631.720773
30
0
11
-3291.904227
21
-1951.720773
31
0
0
LINE
8
DIMENSION
10
-2591.904227
20
-1631.720773
30
0
11
-2591.904227
21
-1951.720773
31
0
0
LINE
8
DIMENSION
10
-3291.904227
20
-1951.720773
30
0
11
-2591.904227
21
-1951.720773
31
0
0
LINE
8
DIMENSION
10
-3291.904227
20
-1951.720773
30
0
11
-3355.345773
21
-1922.137494
31
0
0
LINE
8
DIMENSION
10
-3291.904227
20
-1951.720773
30
0
11
-3355.345773
21
-1981.304051
31
0
0
LINE
8
DIMENSION
10
-2591.904227
20
-1951.720773
30
0
11
-2528.462682
21
-1981.304051
31
0
0
LINE
8
DIMENSION
10
-2591.904227
20
-1951.720773
30
0
11
-2528.462682
21
-1922.137494
31
0
0
TEXT
8
DIMENSION
10
-2941.904227
20
-2121.720773
30
0
40
85
1
0.7
50
0
7
STANDARD
72
1
73
2
11
-2941.904227
21
-2121.720773
31
0
0
LINE
8
DIMENSION
10
-2591.904227
20
-1631.720773
30
0
11
-2591.904227
21
-1951.720773
31
0
0
LINE
8
DIMENSION
10
-1391.904227
20
-1631.720773
30
0
11
-1391.904227
21
-1951.720773
31
0
0
LINE
8
DIMENSION
10
-2591.904227
20
-1951.720773
30
0
11
-1391.904227
21
-1951.720773
31
0
0
LINE
8
DIMENSION
10
-2591.904227
20
-1951.720773
30
0
11
-2655.345773
21
-1922.137494
31
0
0
LINE
8
DIMENSION
10
-2591.904227
20
-1951.720773
30
0
11
-2655.345773
21
-1981.304051
31
0
0
LINE
8
DIMENSION
10
-1391.904227
20
-1951.720773
30
0
11
-1328.462682
21
-1981.304051
31
0
0
LINE
8
DIMENSION
10
-1391.904227
20
-1951.720773
30
0
11
-1328.462682
21
-1922.137494
31
0
0
TEXT
8
DIMENSION
10
-1991.904227
20
-2121.720773
30
0
40
85
1
1.2
50
0
7
STANDARD
72
1
73
2
11
-1991.904227
21
-2121.720773
31
0
0
LINE
8
DIMENSION
10
-1391.904227
20
-1631.720773
30
0
11
-1391.904227
21
-1951.720773
31
0
0
LINE
8
DIMENSION
10
-191.904227
20
-1631.720773
30
0
11
-191.904227
21
-1951.720773
31
0
0
LINE
8
DIMENSION
10
-1391.904227
20
-1951.720773
30
0
11
-191.904227
21
-1951.720773
31
0
0
LINE
8
DIMENSION
10
-1391.904227
20
-1951.720773
30
0
11
-1455.345773
21
-1922.137494
31
0
0
LINE
8
DIMENSION
10
-1391.904227
20
-1951.720773
30
0
11
-1455.345773
21
-1981.304051
31
0
0
LINE
8
DIMENSION
10
-191.904227
20
-1951.720773
30
0
11
-128.462682
21
-1981.304051
31
0
0
LINE
8
DIMENSION
10
-191.904227
20
-1951.720773
30
0
11
-128.462682
21
-1922.137494
31
0
0
TEXT
8
DIMENSION
10
-791.904227
20
-2121.720773
30
0
40
85
1
1.2
50
0
7
STANDARD
72
1
73
2
11
-791.904227
21
-2121.720773
31
0
0
LINE
8
DIMENSION
10
-191.904227
20
-1631.720773
30
0
11
-191.904227
21
-1951.720773
31
0
0
LINE
8
DIMENSION
10
1008.095773
20
-1631.720773
30
0
11
1008.095773
21
-1951.720773
31
0
0
LINE
8
DIMENSION
10
-191.904227
20
-1951.720773
30
0
11
1008.095773
21
-1951.720773
31
0
0
LINE
8
DIMENSION
10
-191.904227
20
-1951.720773
30
0
11
-255.345773
21
-1922.137494
31
0
0
LINE
8
DIMENSION
10
-191.904227
20
-1951.720773
30
0
11
-255.345773
21
-1981.304051
31
0
0
LINE
8
DIMENSION
10
1008.095773
20
-1951.720773
30
0
11
1071.537318
21
-1981.304051
31
0
0
LINE
8
DIMENSION
10
1008.095773
20
-1951.720773
30
0
11
1071.537318
21
-1922.137494
31
0
0
TEXT
8
DIMENSION
10
408.095773
20
-2121.720773
30
0
40
85
1
1.2
50
0
7
STANDARD
72
1
73
2
11
408.095773
21
-2121.720773
31
0
0
LINE
8
DIMENSION
10
1008.095773
20
-1631.720773
30
0
11
1008.095773
21
-1951.720773
31
0
0
LINE
8
DIMENSION
10
1008.105773
20
-1631.720773
30
0
11
1008.105773
21
-1951.720773
31
0
0
LINE
8
DIMENSION
10
1008.095773
20
-1951.720773
30
0
11
1008.105773
21
-1951.720773
31
0
0
LINE
8
DIMENSION
10
1008.095773
20
-1951.720773
30
0
11
944.654227
21
-1922.137494
31
0
0
LINE
8
DIMENSION
10
1008.095773
20
-1951.720773
30
0
11
944.654227
21
-1981.304051
31
0
0
LINE
8
DIMENSION
10
1008.105773
20
-1951.720773
30
0
11
1071.547318
21
-1981.304051
31
0
0
LINE
8
DIMENSION
10
1008.105773
20
-1951.720773
30
0
11
1071.547318
21
-1922.137494
31
0
0
TEXT
8
DIMENSION
10
1008.100773
20
-2121.720773
30
0
40
85
1
0
50
0
7
STANDARD
72
1
73
2
11
1008.100773
21
-2121.720773
31
0
0
LINE
8
DIMENSION
10
1008.105773
20
-1631.720773
30
0
11
1008.105773
21
-1951.720773
31
0
0
LINE
8
DIMENSION
10
1708.095773
20
-1631.720773
30
0
11
1708.095773
21
-1951.720773
31
0
0
LINE
8
DIMENSION
10
1008.105773
20
-1951.720773
30
0
11
1708.095773
21
-1951.720773
31
0
0
LINE
8
DIMENSION
10
1008.105773
20
-1951.720773
30
0
11
944.664227
21
-1922.137494
31
0
0
LINE
8
DIMENSION
10
1008.105773
20
-1951.720773
30
0
11
944.664227
21
-1981.304051
31
0
0
LINE
8
DIMENSION
10
1708.095773
20
-1951.720773
30
0
11
1771.537318
21
-1981.304051
31
0
0
LINE
8
DIMENSION
10
1708.095773
20
-1951.720773
30
0
11
1771.537318
21
-1922.137494
31
0
0
TEXT
8
DIMENSION
10
1358.100773
20
-2121.720773
30
0
40
85
1
0.7
50
0
7
STANDARD
72
1
73
2
11
1358.100773
21
-2121.720773
31
0
0
LINE
8
DIMENSION
10
1708.095773
20
-1631.720773
30
0
11
1708.095773
21
-1951.720773
31
0
0
LINE
8
DIMENSION
10
2208.095773
20
-1631.720773
30
0
11
2208.095773
21
-1951.720773
31
0
0
LINE
8
DIMENSION
10
1708.095773
20
-1951.720773
30
0
11
2208.095773
21
-1951.720773
31
0
0
LINE
8
DIMENSION
10
1708.095773
20
-1951.720773
30
0
11
1644.654227
21
-1922.137494
31
0
0
LINE
8
DIMENSION
10
1708.095773
20
-1951.720773
30
0
11
1644.654227
21
-1981.304051
31
0
0
LINE
8
DIMENSION
10
2208.095773
20
-1951.720773
30
0
11
2271.537318
21
-1981.304051
31
0
0
LINE
8
DIMENSION
10
2208.095773
20
-1951.720773
30
0
11
2271.537318
21
-1922.137494
31
0
0
TEXT
8
DIMENSION
10
1958.095773
20
-2121.720773
30
0
40
85
1
0.5
50
0
7
STANDARD
72
1
73
2
11
1958.095773
21
-2121.720773
31
0
0
LINE
8
DIMENSION
10
-3791.904227
20
-1631.720773
30
0
11
-3791.904227
21
-2321.720773
31
0
0
LINE
8
DIMENSION
10
2208.095773
20
-1631.720773
30
0
11
2208.095773
21
-2321.720773
31
0
0
LINE
8
DIMENSION
10
-3791.904227
20
-2321.720773
30
0
11
2208.095773
21
-2321.720773
31
0
0
LINE
8
DIMENSION
10
-3791.904227
20
-2321.720773
30
0
11
-3855.345773
21
-2292.137494
31
0
0
LINE
8
DIMENSION
10
-3791.904227
20
-2321.720773
30
0
11
-3855.345773
21
-2351.304051
31
0
0
LINE
8
DIMENSION
10
2208.095773
20
-2321.720773
30
0
11
2271.537318
21
-2351.304051
31
0
0
LINE
8
DIMENSION
10
2208.095773
20
-2321.720773
30
0
11
2271.537318
21
-2292.137494
31
0
0
TEXT
8
DIMENSION
10
-791.904227
20
-2491.720773
30
0
40
85
1
TOTAL 6
50
0
7
STANDARD
72
1
73
2
11
-791.904227
21
-2491.720773
31
0
0
LINE
8
DIMENSION
10
2268.095773
20
-1571.720773
30
0
11
2908.095773
21
-1571.720773
31
0
0
LINE
8
DIMENSION
10
2268.095773
20
-1071.720773
30
0
11
2908.095773
21
-1071.720773
31
0
0
LINE
8
DIMENSION
10
2908.095773
20
-1571.720773
30
0
11
2908.095773
21
-1071.720773
31
0
0
LINE
8
DIMENSION
10
2908.095773
20
-1571.720773
30
0
11
2878.512494
21
-1635.162318
31
0
0
LINE
8
DIMENSION
10
2908.095773
20
-1571.720773
30
0
11
2937.679051
21
-1635.162318
31
0
0
LINE
8
DIMENSION
10
2908.095773
20
-1071.720773
30
0
11
2937.679051
21
-1008.279227
31
0
0
LINE
8
DIMENSION
10
2908.095773
20
-1071.720773
30
0
11
2878.512494
21
-1008.279227
31
0
0
TEXT
8
DIMENSION
10
3078.095773
20
-1321.720773
30
0
40
85
1
0.5
50
90
7
STANDARD
72
1
73
2
11
3078.095773
21
-1321.720773
31
0
0
LINE
8
DIMENSION
10
2268.095773
20
-1071.720773
30
0
11
2908.095773
21
-1071.720773
31
0
0
LINE
8
DIMENSION
10
2268.095773
20
-238.720773
30
0
11
2908.095773
21
-238.720773
31
0
0
LINE
8
DIMENSION
10
2908.095773
20
-1071.720773
30
0
11
2908.095773
21
-238.720773
31
0
0
LINE
8
DIMENSION
10
2908.095773
20
-1071.720773
30
0
11
2878.512494
21
-1135.162318
31
0
0
LINE
8
DIMENSION
10
2908.095773
20
-1071.720773
30
0
11
2937.679051
21
-1135.162318
31
0
0
LINE
8
DIMENSION
10
2908.095773
20
-238.720773
30
0
11
2937.679051
21
-175.279227
31
0
0
LINE
8
DIMENSION
10
2908.095773
20
-238.720773
30
0
11
2878.512494
21
-175.279227
31
0
0
TEXT
8
DIMENSION
10
3078.095773
20
-655.220773
30
0
40
85
1
0.833
50
90
7
STANDARD
72
1
73
2
11
3078.095773
21
-655.220773
31
0
0
LINE
8
DIMENSION
10
2268.095773
20
-238.720773
30
0
11
2908.095773
21
-238.720773
31
0
0
LINE
8
DIMENSION
10
2268.095773
20
1094.279227
30
0
11
2908.095773
21
1094.279227
31
0
0
LINE
8
DIMENSION
10
2908.095773
20
-238.720773
30
0
11
2908.095773
21
1094.279227
31
0
0
LINE
8
DIMENSION
10
2908.095773
20
-238.720773
30
0
11
2878.512494
21
-302.162318
31
0
0
LINE
8
DIMENSION
10
2908.095773
20
-238.720773
30
0
11
2937.679051
21
-302.162318
31
0
0
LINE
8
DIMENSION
10
2908.095773
20
1094.279227
30
0
11
2937.679051
21
1157.720773
31
0
0
LINE
8
DIMENSION
10
2908.095773
20
1094.279227
30
0
11
2878.512494
21
1157.720773
31
0
0
TEXT
8
DIMENSION
10
3078.095773
20
427.779227
30
0
40
85
1
1.333
50
90
7
STANDARD
72
1
73
2
11
3078.095773
21
427.779227
31
0
0
LINE
8
DIMENSION
10
2268.095773
20
1094.279227
30
0
11
2908.095773
21
1094.279227
31
0
0
LINE
8
DIMENSION
10
2268.095773
20
1928.279227
30
0
11
2908.095773
21
1928.279227
31
0
0
LINE
8
DIMENSION
10
2908.095773
20
1094.279227
30
0
11
2908.095773
21
1928.279227
31
0
0
LINE
8
DIMENSION
10
2908.095773
20
1094.279227
30
0
11
2878.512494
21
1030.837682
31
0
0
LINE
8
DIMENSION
10
2908.095773
20
1094.279227
30
0
11
2937.679051
21
1030.837682
31
0
0
LINE
8
DIMENSION
10
2908.095773
20
1928.279227
30
0
11
2937.679051
21
1991.720773
31
0
0
LINE
8
DIMENSION
10
2908.095773
20
1928.279227
30
0
11
2878.512494
21
1991.720773
31
0
0
TEXT
8
DIMENSION
10
3078.095773
20
1511.279227
30
0
40
85
1
0.834
50
90
7
STANDARD
72
1
73
2
11
3078.095773
21
1511.279227
31
0
0
LINE
8
DIMENSION
10
2268.095773
20
1928.279227
30
0
11
2908.095773
21
1928.279227
31
0
0
LINE
8
DIMENSION
10
2268.095773
20
2428.279227
30
0
11
2908.095773
21
2428.279227
31
0
0
LINE
8
DIMENSION
10
2908.095773
20
1928.279227
30
0
11
2908.095773
21
2428.279227
31
0
0
LINE
8
DIMENSION
10
2908.095773
20
1928.279227
30
0
11
2878.512494
21
1864.837682
31
0
0
LINE
8
DIMENSION
10
2908.095773
20
1928.279227
30
0
11
2937.679051
21
1864.837682
31
0
0
LINE
8
DIMENSION
10
2908.095773
20
2428.279227
30
0
11
2937.679051
21
2491.720773
31
0
0
LINE
8
DIMENSION
10
2908.095773
20
2428.279227
30
0
11
2878.512494
21
2491.720773
31
0
0
TEXT
8
DIMENSION
10
3078.095773
20
2178.279227
30
0
40
85
1
0.5
50
90
7
STANDARD
72
1
73
2
11
3078.095773
21
2178.279227
31
0
0
LINE
8
DIMENSION
10
2268.095773
20
-1571.720773
30
0
11
3358.095773
21
-1571.720773
31
0
0
LINE
8
DIMENSION
10
2268.095773
20
2428.279227
30
0
11
3358.095773
21
2428.279227
31
0
0
LINE
8
DIMENSION
10
3358.095773
20
-1571.720773
30
0
11
3358.095773
21
2428.279227
31
0
0
LINE
8
DIMENSION
10
3358.095773
20
-1571.720773
30
0
11
3328.512494
21
-1635.162318
31
0
0
LINE
8
DIMENSION
10
3358.095773
20
-1571.720773
30
0
11
3387.679051
21
-1635.162318
31
0
0
LINE
8
DIMENSION
10
3358.095773
20
2428.279227
30
0
11
3387.679051
21
2491.720773
31
0
0
LINE
8
DIMENSION
10
3358.095773
20
2428.279227
30
0
11
3328.512494
21
2491.720773
31
0
0
TEXT
8
DIMENSION
10
3528.095773
20
428.279227
30
0
40
85
1
TOTAL 4
50
90
7
STANDARD
72
1
73
2
11
3528.095773
21
428.279227
31
0
0
ENDSEC
0
EOF
